<svg width="15" height="25" viewBox="0 0 15 25" fill="none" xmlns="http://www.w3.org/2000/svg">
<path d="M1.57635 10.3623C2.04279 10.3623 2.32265 10.7355 2.32265 11.1086V13.8139C2.50922 16.6126 4.84141 18.7582 7.54674 18.8514H8.01317C10.8118 18.7582 13.0507 16.6126 13.2373 13.8139V13.5341V13.4408V11.2952V11.2019C13.2373 10.7355 13.6104 10.4556 13.9836 10.4556C14.45 10.4556 14.7299 10.8287 14.7299 11.2019V11.2952V13.0676V13.1609C14.7299 16.7058 12.0245 19.7843 8.47961 20.1575V22.4897H11.5581C12.0245 22.4897 12.3044 22.8628 12.3044 23.236C12.3044 23.7024 12.0245 24.0755 11.5581 24.0755H4.09511C3.62867 24.0755 3.34881 23.7024 3.34881 23.3292C3.34881 22.8628 3.72196 22.5829 4.09511 22.5829H7.0803V20.2508C3.53538 19.7843 0.830053 16.7991 0.830053 13.2542V11.3885C0.830053 11.3885 0.830053 11.3885 0.830053 11.2952C0.830053 10.7355 1.2032 10.3623 1.57635 10.3623Z" fill="white"/>
<path d="M11.838 14.5604C11.5581 15.4 11.0917 16.1463 10.3454 16.706C8.85277 17.8255 6.80045 17.8255 5.30785 16.706C4.56155 16.1463 4.09512 15.4 3.81525 14.5604C3.72197 14.1873 3.62868 13.7208 3.62868 13.3477C3.62868 12.8813 3.62868 12.4148 3.62868 11.9484V7.93703C3.62868 7.47059 3.62868 5.51156 3.62868 5.04512C3.62868 4.57869 3.72197 4.20554 3.81525 3.83239C4.37498 1.96664 5.96086 0.753906 7.82661 0.753906C9.69235 0.753906 11.2782 1.96664 11.838 3.7391C11.9312 4.20554 12.0245 4.57869 12.0245 5.04512C12.0245 5.41827 12.0245 7.47059 12.0245 7.93703V11.8551C12.0245 12.3215 12.0245 12.788 12.0245 13.2544C12.0245 13.7208 11.9312 14.094 11.838 14.5604ZM10.4387 5.04512C10.4387 4.76526 10.3454 4.4854 10.3454 4.20554C10.1588 3.64581 9.87893 3.17938 9.41249 2.80623C8.47962 2.05993 7.1736 2.05993 6.24072 2.80623C5.77429 3.17938 5.49443 3.64581 5.30785 4.20554C5.21456 4.4854 5.21456 4.76526 5.12128 5.04512C5.12128 5.41827 5.12128 8.40346 5.12128 12.6014C5.12128 12.8813 5.12128 12.9745 5.12128 13.2544C5.12128 13.5343 5.21456 13.8141 5.21456 14.094C5.40114 14.6537 5.681 15.1201 6.14744 15.4933C7.08031 16.2396 8.38633 16.2396 9.3192 15.4933C9.78564 15.1201 10.0655 14.6537 10.2521 14.094C10.3454 13.8141 10.3454 13.5343 10.3454 13.2544C10.3454 12.9745 10.3454 12.8813 10.3454 12.6014C10.4387 8.40346 10.4387 5.32498 10.4387 5.04512Z" fill="white"/>
</svg>
