<svg width="19" height="19" viewBox="0 0 19 19" fill="none" xmlns="http://www.w3.org/2000/svg">
<path d="M8.30525 10.0458H6.69125C6.4898 10.0458 6.32654 10.2092 6.32654 10.4105C6.32654 10.612 6.4898 10.7753 6.69125 10.7753H8.30525C8.45583 11.1998 8.86129 11.5047 9.3367 11.5047C9.50538 11.5047 9.66522 11.4664 9.80812 11.3978L11.6415 13.2312C11.7127 13.3025 11.8062 13.3381 11.8995 13.3381C11.9928 13.3381 12.0861 13.3025 12.1574 13.2312C12.2997 13.0889 12.2997 12.858 12.1574 12.7155L10.3238 10.882C10.3924 10.7391 10.4308 10.5792 10.4308 10.4105C10.4308 9.8072 9.94004 9.31641 9.3367 9.31641C8.86129 9.31641 8.45583 9.62143 8.30525 10.0458ZM9.3367 10.0458C9.53786 10.0458 9.70141 10.2095 9.70141 10.4105C9.70141 10.6117 9.53786 10.7753 9.3367 10.7753C9.13554 10.7753 8.97199 10.6117 8.97199 10.4105C8.97199 10.2095 9.13554 10.0458 9.3367 10.0458Z" fill="#FF508B"/>
<path d="M17.7327 1.87385C17.1261 1.26738 16.3197 0.933294 15.4618 0.933294C14.604 0.933294 13.7975 1.26738 13.1912 1.87371L13.1547 1.91018C13.0862 1.97857 13.0477 2.07145 13.0477 2.16819C13.0477 2.26492 13.0861 2.35781 13.1546 2.42619L14.415 3.68673L13.8118 4.28993C12.8353 3.57404 11.6822 3.08595 10.4308 2.90431V2.18827H10.4769C11.0803 2.18827 11.5711 1.69748 11.5711 1.09414C11.5711 0.490795 11.0803 0 10.4769 0H8.19634C7.593 0 7.10221 0.490795 7.10221 1.09414C7.10221 1.69748 7.593 2.18827 8.19634 2.18827H8.2425V2.90431C6.99108 3.08595 5.83796 3.57404 4.86136 4.28993L4.25816 3.68673L5.5187 2.42619C5.58708 2.35781 5.62555 2.26492 5.62555 2.16819C5.62555 2.07145 5.58708 1.97857 5.51856 1.91018L5.48223 1.87385C4.87575 1.26738 4.06925 0.933294 3.21146 0.933294C2.35354 0.933294 1.54718 1.26738 0.940559 1.87385C0.334082 2.48047 0 3.28697 0 4.14476C0 5.00254 0.334082 5.80904 0.940559 6.41552L0.977031 6.45199C1.04541 6.52038 1.13816 6.55884 1.23489 6.55884C1.33163 6.55884 1.42437 6.52038 1.4929 6.45199L2.73363 5.21126L3.3196 5.79708C2.3363 7.07642 1.75062 8.6766 1.75062 10.4111C1.75062 12.1495 2.33872 13.7527 3.32586 15.0334L2.21577 16.6074C1.93283 17.0084 1.8975 17.5283 2.12345 17.9639C2.34926 18.3996 2.79447 18.6703 3.28526 18.6703C3.70212 18.6703 4.09746 18.4693 4.34293 18.1323L5.29403 16.8273C6.4651 17.5679 7.85158 17.9971 9.33664 17.9971C10.8217 17.9971 12.2082 17.5679 13.3792 16.8273L14.3302 18.1323C14.5757 18.4693 14.971 18.6703 15.3879 18.6703C15.8787 18.6703 16.3239 18.3996 16.5498 17.9639C16.7756 17.5283 16.7403 17.0084 16.4574 16.6072L15.3474 15.0334C16.3346 13.7528 16.9227 12.1495 16.9227 10.4111C16.9227 8.6766 16.337 7.07642 15.3537 5.79708L15.9396 5.21126L17.1804 6.45199C17.2488 6.52038 17.3417 6.55884 17.4384 6.55884C17.5351 6.55884 17.6279 6.52038 17.6962 6.45199L17.7327 6.41552C18.3392 5.8089 18.6733 5.00254 18.6733 4.14462C18.6733 3.28683 18.3392 2.48047 17.7327 1.87385ZM7.83163 1.09414C7.83163 0.892976 7.99518 0.729425 8.19634 0.729425H10.4769C10.678 0.729425 10.8416 0.892976 10.8416 1.09414C10.8416 1.29516 10.678 1.45885 10.4769 1.45885H8.19634C7.99532 1.45885 7.83163 1.29516 7.83163 1.09414ZM8.97193 2.8251V2.18827H9.70135V2.8251H8.97193ZM1.24886 5.66444C0.494356 4.69168 0.563595 3.28241 1.45643 2.38972C1.92514 1.92087 2.54843 1.66272 3.21146 1.66272C3.76879 1.66272 4.29819 1.84522 4.73129 2.18201L3.48457 3.42872H3.48443L1.24886 5.66444ZM3.2495 4.69539L3.74243 4.20246L4.29136 4.75138C4.11783 4.90624 3.95157 5.06893 3.79287 5.2389L3.2495 4.69539ZM3.75355 17.7028C3.64485 17.852 3.4699 17.9409 3.28526 17.9409C3.06472 17.9409 2.87254 17.824 2.77096 17.6283C2.66952 17.4324 2.68477 17.208 2.81185 17.0278L3.81424 15.6064C4.08692 15.8961 4.38196 16.1643 4.69667 16.4085L3.75355 17.7028ZM15.8613 17.0277C15.9885 17.208 16.0038 17.4324 15.9022 17.6283C15.8007 17.824 15.6084 17.9409 15.3879 17.9409C15.2034 17.9409 15.0284 17.852 14.9197 17.7028L13.9765 16.4085C14.2913 16.1643 14.5864 15.8961 14.859 15.6064L15.8613 17.0277ZM9.33664 17.2677C5.55588 17.2677 2.48004 14.1919 2.48004 10.4111C2.48004 6.63036 5.55588 3.55452 9.33664 3.55452C13.1174 3.55452 16.1932 6.63036 16.1932 10.4111C16.1932 14.1919 13.1174 17.2677 9.33664 17.2677ZM14.8804 5.2389C14.7217 5.06893 14.5554 4.90624 14.3819 4.75138L14.9308 4.20246L15.4238 4.69539L14.8804 5.2389ZM17.4246 5.66458L13.942 2.18201C14.3751 1.84522 14.9045 1.66272 15.462 1.66272C16.1249 1.66272 16.7481 1.92087 17.2169 2.38972C17.6857 2.85843 17.9439 3.48172 17.9439 4.14476C17.9439 4.70208 17.7614 5.23149 17.4246 5.66458Z" fill="#FF508B"/>
<path d="M10.0911 4.62415C8.84566 4.46274 7.56034 4.71162 6.47219 5.32537C6.29667 5.42424 6.23469 5.64677 6.33357 5.82214C6.43244 5.99766 6.65497 6.05963 6.83034 5.96076C8.81703 4.84041 11.3324 5.18575 12.9471 6.80046C14.9379 8.79127 14.9379 12.0305 12.9471 14.0213C11.9806 14.9878 10.6966 15.5196 9.33048 15.5196C9.32748 15.5196 9.32435 15.5196 9.32136 15.5196C7.96024 15.5172 6.6836 14.9854 5.72695 14.0222C4.13831 12.4226 3.78656 9.84595 4.89081 7.89588C4.99011 7.72064 4.92843 7.49797 4.75319 7.39881C4.57796 7.29951 4.35543 7.3612 4.25613 7.53644C3.66333 8.58327 3.42128 9.85421 3.57457 11.1147C3.73314 12.4193 4.31383 13.6344 5.20937 14.5362C6.30365 15.638 7.76349 16.2464 9.32008 16.2491H9.33048C10.8913 16.2489 12.3587 15.6412 13.4628 14.5371C15.738 12.2619 15.738 8.55991 13.4628 6.28459C12.5435 5.36526 11.3776 4.79112 10.0911 4.62415Z" fill="#FF508B"/>
<path d="M5.46817 6.90716C5.56405 6.90716 5.65822 6.86812 5.72603 6.80031C5.79427 6.7325 5.83288 6.63833 5.83288 6.54245C5.83288 6.44657 5.79427 6.3524 5.72603 6.28458C5.65822 6.21677 5.56447 6.17773 5.46817 6.17773C5.37229 6.17773 5.27812 6.21677 5.2103 6.28458C5.14249 6.3524 5.10388 6.44657 5.10388 6.54245C5.10388 6.63833 5.14249 6.7325 5.2103 6.80031C5.27854 6.86812 5.37229 6.90716 5.46817 6.90716Z" fill="#FF508B"/>
<path d="M9.5945 6.56496C9.66231 6.49714 9.70135 6.40297 9.70135 6.3071C9.70135 6.21079 9.66231 6.11705 9.5945 6.04923C9.52669 5.98099 9.43252 5.94238 9.33664 5.94238C9.24076 5.94238 9.14659 5.98099 9.07877 6.04923C9.01096 6.11705 8.97192 6.21122 8.97192 6.3071C8.97192 6.40297 9.01096 6.49672 9.07877 6.56496C9.14659 6.63277 9.24076 6.67181 9.33664 6.67181C9.43252 6.67181 9.52669 6.63277 9.5945 6.56496Z" fill="#FF508B"/>
<path d="M9.07877 14.2582C9.01096 14.326 8.97192 14.4201 8.97192 14.5161C8.97192 14.612 9.01096 14.706 9.07877 14.7738C9.14659 14.8416 9.24076 14.8808 9.33664 14.8808C9.43252 14.8808 9.52669 14.8418 9.5945 14.7738C9.66231 14.706 9.70135 14.612 9.70135 14.5161C9.70135 14.4201 9.66231 14.326 9.5945 14.2582C9.52669 14.1904 9.43252 14.1514 9.33664 14.1514C9.24076 14.1514 9.14659 14.1904 9.07877 14.2582Z" fill="#FF508B"/>
<path d="M13.6989 10.6685C13.7667 10.6005 13.8057 10.5065 13.8057 10.4106C13.8057 10.3146 13.7667 10.2208 13.6989 10.1527C13.6311 10.0849 13.537 10.0459 13.441 10.0459C13.3447 10.0459 13.251 10.0849 13.1831 10.1527C13.115 10.2208 13.0763 10.3146 13.0763 10.4106C13.0763 10.5068 13.115 10.6005 13.1831 10.6685C13.251 10.7366 13.3447 10.7753 13.441 10.7753C13.537 10.7753 13.6311 10.7366 13.6989 10.6685Z" fill="#FF508B"/>
<path d="M4.9744 10.6688C5.04222 10.7366 5.13624 10.7753 5.23227 10.7753C5.32857 10.7753 5.42232 10.7366 5.48999 10.6688C5.55823 10.6005 5.59698 10.5068 5.59698 10.4106C5.59698 10.3146 5.55823 10.2206 5.48999 10.1527C5.42232 10.0849 5.32843 10.0459 5.23227 10.0459C5.13624 10.0459 5.04222 10.0849 4.9744 10.1527C4.90659 10.2206 4.86755 10.3146 4.86755 10.4106C4.86755 10.5068 4.90645 10.6005 4.9744 10.6688Z" fill="#FF508B"/>
</svg>
