<svg width="247" height="247" viewBox="0 0 247 247" fill="none" xmlns="http://www.w3.org/2000/svg">
<path d="M123.5 232C183.423 232 232 183.423 232 123.5C232 63.5771 183.423 15 123.5 15C63.5771 15 15 63.5771 15 123.5C15 183.423 63.5771 232 123.5 232Z" fill="#2D2DB2" fill-opacity="0.08" stroke="#2D2DB2" stroke-opacity="0.08" stroke-width="30"/>
<g opacity="0.5">
<path d="M110.781 174.487C111.722 174.487 112.465 173.736 112.465 172.784C112.465 171.833 111.722 171.082 110.781 171.082H109.841C108.9 171.082 108.157 171.833 108.157 172.784C108.157 173.736 108.9 174.487 109.841 174.487H110.781Z" fill="#2D2DB2" fill-opacity="0.5"/>
<path d="M144.453 114.252C142.72 114.252 141.334 115.654 141.334 117.406V161.569H99.0461C97.313 161.569 95.9265 162.971 95.9265 164.723C95.9265 166.476 97.313 167.878 99.0461 167.878H140.938C139.551 173.586 134.451 177.692 128.509 177.692H92.0642C86.1221 177.692 81.0218 173.586 79.6353 167.878H89.3902C91.1233 167.878 92.5098 166.476 92.5098 164.723C92.5098 162.971 91.1233 161.569 89.3902 161.569H79.2392V99.7315H125.934C127.667 99.7315 129.054 98.3295 129.054 96.577C129.054 94.8246 127.667 93.4226 125.934 93.4226H79.6353C81.0218 87.7145 86.1221 83.6087 92.0642 83.6087H117.615C119.348 83.6087 120.735 82.2067 120.735 80.4543C120.735 78.7018 119.348 77.2998 117.615 77.2998H92.0642C81.5665 77.2998 73 85.962 73 96.577V164.723C73 175.338 81.5665 184.001 92.0642 184.001H128.509C139.007 184.001 147.573 175.338 147.573 164.723V117.406C147.573 116.555 147.276 115.754 146.682 115.153C146.088 114.552 145.295 114.202 144.453 114.202V114.252Z" fill="#2D2DB2" fill-opacity="0.5"/>
<path d="M103.453 86.8125C102.513 86.8125 101.77 87.5636 101.77 88.5149C101.77 89.4663 102.513 90.2173 103.453 90.2173H117.17C118.11 90.2173 118.853 89.4663 118.853 88.5149C118.853 87.5636 118.11 86.8125 117.17 86.8125H103.453Z" fill="#2D2DB2" fill-opacity="0.5"/>
<path d="M160.299 68.5389C159.704 69.29 159.853 70.3414 160.546 70.9423C163.765 73.546 165.646 77.4515 165.646 81.6074V81.7576C165.646 82.7089 166.389 83.46 167.33 83.46C168.271 83.46 169.014 82.7089 169.014 81.7576V81.6074C169.014 76.4 166.686 71.5431 162.675 68.2885C161.933 67.6877 160.893 67.8379 160.299 68.5389Z" fill="#2D2DB2" fill-opacity="0.5"/>
<path d="M166.043 64.4305C165.301 63.8797 164.261 64.03 163.667 64.781C163.122 65.5321 163.27 66.5836 164.013 67.1844C168.519 70.6393 171.144 75.8967 171.144 81.6549V83.207C171.144 84.1584 171.886 84.9095 172.827 84.9095C173.768 84.9095 174.511 84.1584 174.511 83.207V81.6549C174.511 74.8452 171.441 68.5864 166.043 64.4806V64.4305Z" fill="#2D2DB2" fill-opacity="0.5"/>
<path d="M129.648 81.706C129.648 82.6573 130.39 83.4084 131.331 83.4084C132.272 83.4084 133.015 82.6573 133.015 81.706V81.5558C133.015 77.3999 134.847 73.4944 138.115 70.8907C138.858 70.2899 138.957 69.2384 138.363 68.4873C137.769 67.7363 136.729 67.6361 135.986 68.237C131.975 71.4916 129.648 76.3484 129.648 81.5558V81.706Z" fill="#2D2DB2" fill-opacity="0.5"/>
<path d="M125.785 84.8098C126.725 84.8098 127.468 84.0588 127.468 83.1074V81.5552C127.468 75.8472 130.043 70.5898 134.599 67.0848C135.342 66.534 135.49 65.4325 134.945 64.6814C134.401 63.9303 133.311 63.7801 132.569 64.3309C127.171 68.4367 124.101 74.6956 124.101 81.5052V83.0574C124.101 84.0087 124.844 84.7598 125.785 84.7598V84.8098Z" fill="#2D2DB2" fill-opacity="0.5"/>
<path d="M163.715 96.2769C163.319 96.2769 162.972 95.9264 162.972 95.5258V83.1083C162.972 76.4489 158.367 70.6908 152.128 69.1886V68.6379C152.128 66.8854 150.742 65.4834 149.009 65.4834C147.275 65.4834 145.889 66.8854 145.889 68.6379V69.1886C143.364 69.7895 141.036 71.0913 139.155 72.994C136.53 75.6478 135.045 79.2028 135.045 82.9581V95.4758C135.045 95.8763 134.698 96.2268 134.302 96.2268C131.678 96.2268 129.499 98.3799 129.499 101.084V102.936C129.499 105.59 131.628 107.793 134.302 107.793H141.779C143.017 110.898 146.038 113.001 149.454 113.001C152.871 113.001 155.842 110.898 157.129 107.793H163.765C166.389 107.793 168.568 105.64 168.568 102.936V101.084C168.568 98.4299 166.439 96.2268 163.765 96.2268L163.715 96.2769ZM154.604 101.534H137.966C139.947 100.283 141.284 98.0795 141.284 95.5258V83.0082C141.284 80.9052 142.076 78.9524 143.562 77.5004C144.998 76.0483 146.978 75.1971 149.108 75.1971C153.317 75.1971 156.733 78.8022 156.733 83.1584V95.5759C156.733 98.1295 158.07 100.333 160.051 101.584H154.604V101.534Z" fill="#2D2DB2" fill-opacity="0.5"/>
<path d="M125.043 126.466L114.446 115.751C109.445 110.694 100.631 110.644 95.6299 115.751C90.4306 121.009 90.4306 129.571 95.6299 134.828L103.899 143.19H94.8376C93.1045 143.19 91.718 144.592 91.718 146.344C91.718 148.097 93.1045 149.499 94.8376 149.499H125.835C127.569 149.499 128.955 148.097 128.955 146.344C128.955 144.942 128.064 143.791 126.826 143.34C128.212 141.187 128.955 138.684 128.955 136.03C128.955 132.425 127.569 129.07 125.043 126.516V126.466ZM113.109 123.312L103.107 133.426L99.9874 130.272C97.2144 127.468 97.2144 122.961 99.9874 120.157C102.661 117.454 107.316 117.454 109.99 120.157L113.06 123.312H113.109ZM122.716 135.98C122.716 137.882 121.973 139.685 120.636 141.037C117.962 143.741 113.308 143.741 110.634 141.037L107.564 137.932L117.566 127.818L120.884 131.223C122.072 132.525 122.716 134.227 122.716 136.03V135.98Z" fill="#2D2DB2" fill-opacity="0.5"/>
</g>
</svg>
