<svg width="60" height="63" viewBox="0 0 60 63" fill="none" xmlns="http://www.w3.org/2000/svg">
<path d="M3.40884 46.3603H56.2465C58.4223 42.2201 59.6553 37.507 59.6553 32.5053C59.6553 16.032 46.301 2.67773 29.8277 2.67773C13.3544 2.67773 0 16.032 0 32.5053C0 37.507 1.23303 42.2201 3.40884 46.3603Z" fill="url(#paint0_linear_4181_4118)"/>
<path d="M20.4951 35.2574C20.2496 35.2574 20.003 35.1754 19.7988 35.0072C19.3318 34.6223 19.2652 33.9318 19.65 33.4648C22.1658 30.4118 25.8753 28.6609 29.8275 28.6609C33.7759 28.6609 37.4833 30.4091 39.999 33.4574C40.3842 33.924 40.3181 34.6147 39.8513 34.9999C39.3849 35.3848 38.694 35.319 38.3088 34.8522C36.2109 32.3102 33.1196 30.8523 29.8275 30.8523C26.5324 30.8523 23.4392 32.3125 21.3412 34.8584C21.1246 35.1214 20.811 35.2574 20.4951 35.2574Z" fill="#BECAF5"/>
<path d="M38.1938 35.655C37.9281 35.5896 37.688 35.4422 37.5215 35.2251C36.5314 33.9338 36.265 31.8462 36.2134 30.3472C35.5684 31.0985 34.8915 31.7269 34.2446 32.2292C32.9843 33.2079 31.4293 33.7394 29.8275 33.7394C29.7663 33.7394 29.7052 33.7373 29.6442 33.7357L29.6437 33.7393L29.6461 33.76C29.6511 33.8046 30.1046 38.2359 26.6399 41.7539C26.5684 41.7509 26.457 41.7489 26.3173 41.7536L29.6874 45.7868L29.8275 45.9544L38.3912 35.7057C38.3254 35.6887 38.26 35.6712 38.1938 35.655Z" fill="#FFAA7B"/>
<path d="M29.8275 33.7392C28.2259 33.7392 26.6707 33.2077 25.4105 32.229C24.7637 31.7267 24.0867 31.0982 23.4417 30.3469C23.3901 31.846 23.1237 33.9335 22.1335 35.2248C21.9671 35.4419 21.7269 35.5895 21.4613 35.6547C21.395 35.671 21.3297 35.6884 21.2637 35.7052L26.4685 41.934C26.62 41.9332 26.7116 41.9403 26.7116 41.9403C30.3415 38.3105 29.8275 33.7392 29.8275 33.7392Z" fill="#FC9460"/>
<path d="M50.8908 53.6216C53.022 51.4955 54.8335 49.049 56.2465 46.3603C55.049 43.015 52.5978 39.9099 47.6571 39.506C46.833 39.4386 46.3946 39.1189 45.4234 38.5713C44.6738 38.1486 43.9203 37.7605 43.1568 37.4067L30.9706 51.9907C30.6868 52.3304 30.2702 52.5252 29.8276 52.5252C29.3851 52.5252 28.9685 52.3304 28.6847 51.9907L22.9133 45.0838C22.9165 45.1979 22.9228 45.314 22.9341 45.4333C22.4867 45.3866 21.4438 45.3098 20.1655 45.4261C18.61 45.5676 16.4085 46.0368 14.754 47.4685C13.1452 48.8606 12.3295 50.8968 12.3295 53.5204V56.6264L13.8683 57.7065C16.7899 59.561 20.0557 60.922 23.549 61.6706L23.5532 61.6695L25.6775 62.044C25.6775 62.044 25.7076 62.0485 25.7599 62.0566C27.09 62.238 28.4477 62.3328 29.8276 62.3328C35.6613 62.3328 41.1027 60.657 45.6991 57.7618L50.8908 53.6216Z" fill="#1FA2EA"/>
<path d="M50.891 53.6216C50.4366 51.7745 49.4976 50.3744 48.5415 49.3625C47.5192 48.2808 45.6992 49.01 45.6992 50.4983V57.7619C47.5821 56.5759 49.3233 55.1858 50.891 53.6216Z" fill="#218EE8"/>
<path d="M14.232 38.5712C13.2608 39.1188 12.8224 39.4385 11.9984 39.5058C7.05761 39.9098 4.60641 43.0149 3.40894 46.3602C5.4126 50.1728 8.21771 53.4983 11.5995 56.1138L12.5121 56.7544C12.5121 55.7969 12.5121 54.7239 12.5121 53.5203C12.5121 44.0991 23.1418 45.6418 23.1418 45.6418C23.1269 45.5299 23.1169 45.4227 23.109 45.3174L16.4986 37.4065C15.735 37.7605 14.9815 38.1486 14.232 38.5712Z" fill="#218EE8"/>
<path d="M29.6562 2.1872e-05C29.148 0.417117 27.7801 1.69385 27.5488 3.51405C27.3854 4.79979 27.8288 6.0798 28.8665 7.31843C28.8978 7.3558 28.9285 7.39537 28.9588 7.43603C29.7214 7.58493 30.5137 7.53647 31.2566 7.28933C32.6841 6.81465 34.9223 6.33924 36.747 7.16028C38.8947 8.12669 38.7148 11.083 38.5963 12.719C38.5551 13.2878 38.6903 13.8583 38.9977 14.3406C39.1792 14.6254 39.3233 14.9273 39.4376 15.2255C39.5797 15.5961 39.6807 16.2226 39.7432 16.6114C40.0728 16.4517 40.7875 16.2777 41.1906 16.3347C41.2399 14.6244 41.3978 12.5371 41.3978 12.5371C43.1216 4.09476 36.1248 -0.0109351 29.6562 2.1872e-05Z" fill="#2A428C"/>
<path d="M27.692 0.132885C21.2785 1.00677 20.6689 4.64302 20.6661 5.97709C20.6655 6.25686 20.5105 6.51618 20.259 6.63853C16.923 8.26138 18.7216 16.3266 18.7216 16.3266C19.0567 16.349 19.6508 16.4846 19.9123 16.6113C19.9763 16.2127 20.0809 15.5769 20.2286 15.1975C20.3411 14.9085 20.4817 14.6165 20.6575 14.3407C20.9626 13.8621 21.1016 13.2974 21.0601 12.7329C20.9402 11.1012 20.7544 8.12941 22.9083 7.1602C24.733 6.33916 26.9714 6.81457 28.3987 7.28925C28.6641 7.37752 28.936 7.4396 29.2104 7.47735C29.1449 7.37788 29.0772 7.28523 29.0067 7.20111C25.595 3.12877 29.9333 0.01455 29.9498 0.00261911C29.1869 -0.0107727 28.4291 0.0324464 27.692 0.132885Z" fill="#1C2E7A"/>
<path d="M41.9116 16.3133C41.4121 15.8556 40.2953 16.0876 39.8651 16.3679C39.9593 16.9548 39.9647 17.5553 39.8833 18.1482L39.3757 21.8458C39.3757 22.1438 39.3663 22.4362 39.349 22.7237C40.587 23.0971 41.3237 21.9857 41.4273 21.2229C41.4719 20.8946 41.5448 20.571 41.6459 20.2552C41.9751 19.2268 43.1631 17.4603 41.9116 16.3133Z" fill="#FFAA7B"/>
<path d="M17.7435 16.3133C18.2431 15.8556 19.3598 16.0876 19.7901 16.3679C19.6958 16.9548 19.6905 17.5553 19.7719 18.1482L20.2796 21.8458C20.2796 22.1438 20.289 22.4362 20.3063 22.7237C19.0682 23.0971 18.3316 21.9857 18.228 21.2229C18.1834 20.8946 18.1105 20.571 18.0093 20.2552C17.68 19.2268 16.492 17.4603 17.7435 16.3133Z" fill="#FC9460"/>
<path d="M39.6812 15.2257C39.5669 14.9275 39.4228 14.6256 39.2413 14.3408C38.9339 13.8585 38.7987 13.288 38.8398 12.7192C38.9584 11.0831 38.8947 7.8834 36.747 6.917C34.9224 6.09596 32.6842 6.57137 31.2568 7.04593C30.4059 7.32886 29.4897 7.35138 28.628 7.11483C27.1916 8.44903 27.1599 11.105 27.2661 12.5501C27.3086 13.1281 27.1662 13.7064 26.8537 14.1967C26.6737 14.4793 26.5296 14.7783 26.4145 15.0742C26.0407 16.0343 25.9318 17.0756 26.0718 18.0952L26.5919 21.8829C26.5919 27.3284 29.4986 31.0295 31.9712 32.9497C32.2399 33.1583 32.5221 33.3462 32.8149 33.514C33.3207 33.284 33.8012 32.9963 34.2447 32.6519C36.659 30.777 39.4973 27.1631 39.4973 21.846L40.005 18.1484C40.1403 17.1625 40.0376 16.1558 39.6812 15.2257Z" fill="#FFC7AB"/>
<path d="M31.9986 32.6518C29.5842 30.7769 26.7459 27.163 26.7459 21.8459L26.2381 18.1474C26.1014 17.1519 26.2078 16.1353 26.5728 15.1977C26.6853 14.9087 26.8259 14.6167 27.0017 14.3409C27.3068 13.8622 27.4457 13.2976 27.4043 12.7331C27.2942 11.2358 27.3353 8.40633 29.0067 7.20131C28.8014 7.16357 28.598 7.11231 28.3985 7.04596C26.9711 6.57128 24.7329 6.09599 22.9083 6.91703C20.7545 7.88612 20.6967 11.1015 20.8165 12.7332C20.858 13.2978 20.719 13.8623 20.4139 14.341C20.2381 14.6169 20.0975 14.9088 19.985 15.1978C19.62 16.1354 19.5137 17.1521 19.6503 18.1476L20.1581 21.846C20.1581 27.1631 22.9964 30.7771 25.4106 32.6519C26.6708 33.6305 28.2259 34.162 29.8276 34.162C30.9808 34.162 32.1092 33.8851 33.1215 33.3656C32.728 33.1634 32.3514 32.9258 31.9986 32.6518Z" fill="#FFAA7B"/>
<path d="M38.1845 35.6684L29.5482 46.0039L33.1592 49.6564L43.1519 37.6976C43.3893 37.4136 43.2917 36.9801 42.9547 36.8269C41.6952 36.2547 40.4072 35.7774 39.0637 35.3985C38.7427 35.308 38.3983 35.4126 38.1845 35.6684Z" fill="#73C3F9"/>
<path d="M32.8585 49.2968L29.8276 45.6695L26.5535 41.7511C26.0534 41.7425 24.6025 41.8092 23.6813 42.7807C23.087 43.4075 22.8356 44.2846 22.9308 45.3897C25.7499 48.7635 28.1136 51.5923 28.5445 52.1079C29.2129 52.9078 30.4422 52.9078 31.1106 52.1079L32.8585 50.0161C33.0325 49.8079 33.0325 49.505 32.8585 49.2968Z" fill="#49B1F7"/>
<path d="M21.5276 35.7364C21.2792 35.4392 20.8788 35.3164 20.5064 35.4228C19.1932 35.7979 17.9327 36.2672 16.6995 36.8275C16.363 36.9804 16.2649 37.4124 16.502 37.6961C18.5599 40.1589 20.9958 43.074 23.1416 45.6421C22.6038 41.6125 26.7117 41.9405 26.7117 41.9405L21.5276 35.7364Z" fill="#1FA2EA"/>
<path d="M40.8183 41.8434V52.9514H43.0097V41.8434C43.0097 38.7883 41.9405 35.8103 39.9991 33.4579C39.6139 32.9912 38.9232 32.925 38.4566 33.3102C37.9898 33.6954 37.9237 34.3859 38.3089 34.8527C39.927 36.8136 40.8183 39.2962 40.8183 41.8434Z" fill="#DEEEFF"/>
<path d="M17.7412 50.054C17.136 50.054 16.6455 49.5635 16.6455 48.9583V41.843C16.6455 38.7913 17.7126 35.8158 19.6502 33.4649C20.0349 32.9979 20.7254 32.9312 21.1925 33.3161C21.6595 33.7009 21.7261 34.3915 21.3413 34.8585C19.7264 36.8181 18.837 39.2986 18.837 41.843V48.9583C18.8369 49.5635 18.3464 50.054 17.7412 50.054Z" fill="#DEEEFF"/>
<path d="M24.9337 59.7627C24.8144 60.1132 24.5385 60.4055 24.1589 60.5293C23.8045 60.645 23.4359 60.5889 23.1417 60.4076L23.5531 61.6692C24.2524 61.819 24.9608 61.944 25.6774 62.0437L24.9337 59.7627Z" fill="#DEEEFF"/>
<path d="M19.0647 51.1096C18.1585 51.1096 17.5544 51.1096 16.6484 51.1096C15.7501 51.1096 14.8995 51.3635 14.1753 51.8132L15.7009 49.2844C16.6798 47.6617 19.0331 47.6617 20.0121 49.2844L21.5376 51.8132C20.8134 51.3635 19.9629 51.1096 19.0647 51.1096Z" fill="#2A428C"/>
<path d="M23.7024 55.1148C23.118 54.7507 22.614 54.6502 22.2042 54.8159C21.5675 55.0737 21.3543 55.9009 21.3523 55.9093L21.3468 55.9313L21.2849 56.0152L20.9839 55.0919C20.7121 54.2587 19.9408 53.6989 19.0644 53.6989C18.1584 53.6989 17.5543 53.6989 16.6482 53.6989C16.151 53.6989 15.6879 53.8795 15.3303 54.1875C15.0339 54.1721 14.3581 54.0811 13.9445 53.5862C13.6432 53.2255 13.5471 52.7295 13.6577 52.1105C14.4776 51.4305 15.5255 51.0339 16.6482 51.0339H19.0644C21.0977 51.0339 22.8872 52.3327 23.5176 54.2658L23.8181 55.1874C23.7795 55.1629 23.7409 55.1387 23.7024 55.1148Z" fill="#3C58A0"/>
<path d="M23.7629 55.0179L25.0479 58.9584C25.2761 59.6581 24.8938 60.4102 24.1941 60.6383C23.4945 60.8666 22.7423 60.4842 22.5142 59.7845L21.2415 55.8817C21.2415 55.8817 21.763 53.7721 23.7629 55.0179Z" fill="#4B6BB2"/>
<path d="M13.796 52C13.0639 52.5617 12.4966 53.3408 12.195 54.2655L11.5935 56.1101C12.3275 56.6779 13.0884 57.2126 13.8745 57.7111L14.7287 55.0918C14.8659 54.6709 15.1309 54.3202 15.4723 54.0757L15.472 54.0756C15.4722 54.0756 13.3206 54.1576 13.796 52Z" fill="#2A428C"/>
<path d="M40.0362 48.9292C40.1569 49.1808 40.3905 49.3605 40.7315 49.4643C40.6536 49.668 40.5266 50.114 40.6962 50.5442C40.8289 50.8811 41.113 51.1332 41.5409 51.2938L42.8039 52.2301C42.841 52.4572 43.0702 53.4102 44.3057 53.4583C44.3188 53.6045 44.3743 53.8744 44.5968 54.0862C44.8305 54.3089 45.1809 54.4024 45.636 54.3682C46.0533 53.6943 46.295 52.9002 46.295 52.0493C46.295 49.6135 44.3204 47.6389 41.8845 47.6389C41.2198 47.6389 40.59 47.7868 40.0248 48.0502C39.9644 48.2251 39.8749 48.5928 40.0362 48.9292Z" fill="#DEEEFF"/>
<path d="M45.6992 54.2623C44.346 54.4025 44.4037 53.3587 44.4037 53.3587C42.9914 53.3587 42.8987 52.174 42.8987 52.174L41.5898 51.2037C40.214 50.6973 40.8708 49.3969 40.8708 49.3969C39.6346 49.101 40.1552 47.9945 40.1572 47.9902C38.58 48.6624 37.4744 50.2266 37.4744 52.0492C37.4744 54.485 39.4489 56.4596 41.8848 56.4596C43.5136 56.4597 44.9353 55.5759 45.6992 54.2623Z" fill="#D3DCFB"/>
<path d="M40.7315 49.4643C40.6536 49.668 40.5266 50.1139 40.6962 50.5442C40.8289 50.881 41.113 51.1332 41.5408 51.2937L42.8039 52.2301C42.8409 52.4571 43.0702 53.4101 44.3056 53.4582C44.3073 53.4771 44.3098 53.498 44.3132 53.5206C44.5737 53.0915 44.7237 52.5879 44.7237 52.0493C44.7237 50.4813 43.4526 49.2102 41.8846 49.2102C41.4694 49.2102 41.0754 49.3001 40.7199 49.4603C40.7238 49.4615 40.7274 49.4631 40.7315 49.4643Z" fill="#D3DCFB"/>
<path d="M41.8846 54.8882C42.9802 54.8882 43.9302 54.2673 44.4035 53.3585C42.9914 53.3585 42.8985 52.1738 42.8985 52.1738L41.5896 51.2035C40.2191 50.6993 40.8654 49.4072 40.8704 49.3972C39.8034 49.8055 39.0454 50.8385 39.0454 52.049C39.0454 53.6171 40.3165 54.8882 41.8846 54.8882Z" fill="#A8B7EF"/>
<path d="M41.8846 49.5628C42.445 49.5628 42.9194 49.1977 43.0848 48.6927V46.3977C43.0848 45.7349 42.5474 45.1975 41.8846 45.1975C41.2218 45.1975 40.6844 45.7349 40.6844 46.3977V48.6927C40.8498 49.1977 41.3242 49.5628 41.8846 49.5628Z" fill="#6289CC"/>
<path d="M41.8846 49.4995C41.2218 49.4995 40.6844 48.9621 40.6844 48.2993V51.7382C40.6844 52.401 41.2218 52.9384 41.8846 52.9384C42.5475 52.9384 43.0848 52.401 43.0848 51.7382V48.2993C43.0848 48.9621 42.5474 49.4995 41.8846 49.4995Z" fill="#4B6BB2"/>
<defs>
<linearGradient id="paint0_linear_4181_4118" x1="-8.88932e-07" y1="46.3603" x2="66.593" y2="28.3962" gradientUnits="userSpaceOnUse">
<stop stop-color="#2D2DB2"/>
<stop offset="1" stop-color="#FF508B"/>
</linearGradient>
</defs>
</svg>
