<svg width="53" height="53" viewBox="0 0 53 53" fill="none" xmlns="http://www.w3.org/2000/svg">
<path d="M26.5 53C41.1355 53 53 41.1355 53 26.5C53 11.8645 41.1355 0 26.5 0C11.8645 0 0 11.8645 0 26.5C0 41.1355 11.8645 53 26.5 53Z" fill="#FF508B"/>
<path d="M33.1364 39H19.8576C18.3047 38.9981 16.8159 38.3801 15.7178 37.2815C14.6196 36.1829 14.0019 34.6934 14 33.1397V24.926C14.0022 24.0241 14.2112 23.1347 14.611 22.3264C15.0108 21.518 15.5906 20.8122 16.3059 20.2632L22.9453 15.1969C23.9669 14.4204 25.2146 14 26.4976 14C27.7806 14 29.0283 14.4204 30.0499 15.1969L32.1595 16.8052V15.5576C32.1684 15.3045 32.2751 15.0647 32.4572 14.8887C32.6393 14.7128 32.8826 14.6144 33.1358 14.6144C33.389 14.6144 33.6323 14.7128 33.8144 14.8887C33.9965 15.0647 34.1032 15.3045 34.1121 15.5576V18.7717C34.112 18.9537 34.0611 19.132 33.9651 19.2867C33.8691 19.4413 33.7319 19.566 33.5689 19.6468C33.4059 19.7276 33.2235 19.7613 33.0424 19.744C32.8613 19.7267 32.6887 19.6592 32.5439 19.549L28.866 16.7492C28.1849 16.2314 27.353 15.9511 26.4976 15.9511C25.6422 15.9511 24.8103 16.2314 24.1292 16.7492L17.4898 21.8107C17.0131 22.1765 16.6266 22.6467 16.3601 23.1854C16.0936 23.724 15.9541 24.3166 15.9525 24.9177V33.1314C15.9519 33.6451 16.0524 34.1538 16.2483 34.6286C16.4443 35.1035 16.7317 35.535 17.0944 35.8987C17.457 36.2624 17.8876 36.551 18.3618 36.7482C18.8359 36.9453 19.3442 37.0471 19.8576 37.0478H33.1364C34.1717 37.0465 35.1643 36.6345 35.8963 35.9021C36.6284 35.1697 37.0402 34.1767 37.0415 33.1409V24.9272C37.0436 24.3258 36.9078 23.732 36.6443 23.1915C36.3809 22.651 35.9969 22.1782 35.5221 21.8096C35.4135 21.734 35.3214 21.6372 35.2514 21.525C35.1814 21.4128 35.1348 21.2876 35.1146 21.1569C35.0944 21.0261 35.1009 20.8927 35.1337 20.7645C35.1666 20.6364 35.2251 20.5163 35.3057 20.4114C35.3863 20.3066 35.4873 20.2192 35.6027 20.1546C35.7181 20.09 35.8453 20.0494 35.9768 20.0355C36.1083 20.0215 36.2412 20.0344 36.3676 20.0733C36.4939 20.1123 36.6111 20.1765 36.7119 20.262C37.4249 20.8138 38.0019 21.5218 38.3986 22.3316C38.7952 23.1413 39.001 24.0313 39 24.9331V33.1468C38.9962 34.7003 38.3768 36.1889 37.2776 37.2861C36.1784 38.3833 34.6892 38.9997 33.1364 39Z" fill="white"/>
<path d="M25.7641 26.4977C25.7641 26.7393 25.6925 26.9754 25.5583 27.1762C25.4242 27.3771 25.2336 27.5336 25.0105 27.6261C24.7874 27.7185 24.542 27.7427 24.3051 27.6956C24.0683 27.6485 23.8508 27.5321 23.6801 27.3613C23.5094 27.1905 23.3931 26.9729 23.346 26.736C23.2989 26.499 23.323 26.2535 23.4154 26.0303C23.5078 25.8071 23.6643 25.6164 23.8651 25.4822C24.0658 25.348 24.3018 25.2764 24.5433 25.2764C24.8671 25.2764 25.1776 25.405 25.4065 25.6341C25.6355 25.8631 25.7641 26.1738 25.7641 26.4977ZM28.4484 25.2764C28.207 25.2764 27.9709 25.348 27.7702 25.4822C27.5694 25.6164 27.4129 25.8071 27.3205 26.0303C27.2281 26.2535 27.204 26.499 27.2511 26.736C27.2982 26.9729 27.4144 27.1905 27.5852 27.3613C27.7559 27.5321 27.9734 27.6485 28.2102 27.6956C28.4471 27.7427 28.6925 27.7185 28.9156 27.6261C29.1386 27.5336 29.3293 27.3771 29.4635 27.1762C29.5976 26.9754 29.6692 26.7393 29.6692 26.4977C29.6692 26.174 29.5407 25.8635 29.3121 25.6345C29.0834 25.4055 28.7732 25.2767 28.4496 25.2764H28.4484ZM24.5433 29.1832C24.3018 29.1832 24.0658 29.2549 23.8651 29.3891C23.6643 29.5233 23.5078 29.714 23.4154 29.9372C23.323 30.1603 23.2989 30.4059 23.346 30.6428C23.3931 30.8798 23.5094 31.0974 23.6801 31.2682C23.8508 31.439 24.0683 31.5553 24.3051 31.6024C24.542 31.6496 24.7874 31.6254 25.0105 31.5329C25.2336 31.4405 25.4242 31.284 25.5583 31.0831C25.6925 30.8823 25.7641 30.6461 25.7641 30.4046C25.7641 30.0809 25.6356 29.7704 25.4069 29.5414C25.1783 29.3124 24.8681 29.1835 24.5445 29.1832H24.5433ZM28.4484 29.1832C28.207 29.1832 27.9709 29.2549 27.7702 29.3891C27.5694 29.5233 27.4129 29.714 27.3205 29.9372C27.2281 30.1603 27.204 30.4059 27.2511 30.6428C27.2982 30.8798 27.4144 31.0974 27.5852 31.2682C27.7559 31.439 27.9734 31.5553 28.2102 31.6024C28.4471 31.6496 28.6925 31.6254 28.9156 31.5329C29.1386 31.4405 29.3293 31.284 29.4635 31.0831C29.5976 30.8823 29.6692 30.6461 29.6692 30.4046C29.6692 30.0809 29.5407 29.7704 29.3121 29.5414C29.0834 29.3124 28.7732 29.1835 28.4496 29.1832H28.4484Z" fill="white"/>
</svg>
