<svg width="100" height="100" viewBox="0 0 100 100" fill="none" xmlns="http://www.w3.org/2000/svg">
<path d="M49.6001 97C73.9006 97 93.6001 77.3005 93.6001 53C93.6001 28.6995 73.9006 9 49.6001 9C25.2996 9 5.6001 28.6995 5.6001 53C5.6001 77.3005 25.2996 97 49.6001 97Z" fill="#FF8F15"/>
<path d="M49.6001 10.0996C73.0001 10.0996 92.0001 29.0996 92.0001 52.4996C92.0001 75.8996 73.0001 94.9996 49.6001 94.9996C26.2001 94.9996 7.1001 75.8996 7.1001 52.4996C7.1001 29.0996 26.1001 10.0996 49.6001 10.0996ZM49.6001 7.09961C24.5001 7.09961 4.1001 27.3996 4.1001 52.4996C4.1001 77.5996 24.5001 97.9996 49.6001 97.9996C74.7001 97.9996 95.0001 77.5996 95.0001 52.4996C95.0001 27.3996 74.7001 7.09961 49.6001 7.09961Z" fill="white"/>
<path d="M55.3 73.2002H45V98.1002H55.3V73.2002Z" fill="#D7F0FC" stroke="#8EA6B2" stroke-width="0.3664" stroke-miterlimit="10" stroke-linecap="round" stroke-linejoin="round"/>
<path d="M51.0001 79.0006C52.4001 78.9006 53.9001 78.6006 55.3001 78.1006V73.1006H44.9001V77.9006C46.7001 78.9006 49.0001 79.1006 51.0001 79.0006Z" fill="#D7F0FC"/>
<path d="M81.1001 11.6004C78.2001 4.30039 62.9001 2.40039 53.6001 2.00039C52.3001 1.90039 51.0001 1.90039 50.0001 1.90039C49.0001 1.90039 47.7001 1.90039 46.4001 2.00039C37.1001 2.40039 21.8001 4.30039 18.9001 11.6004C15.7001 19.6004 14.8001 68.5004 45.0001 75.7004C46.6001 76.1004 48.3001 76.3004 50.0001 76.5004C51.8001 76.4004 53.4001 76.1004 55.0001 75.7004C85.2001 68.6004 84.3001 19.6004 81.1001 11.6004Z" fill="#EDEDEE" stroke="#9FB9C6" stroke-width="0.3664" stroke-miterlimit="10" stroke-linecap="round" stroke-linejoin="round"/>
<path d="M79.6001 10.3006C76.8001 4.90059 62.2001 3.00059 53.4001 2.60059C52.1001 2.60059 47.8001 2.80059 46.6001 2.80059C37.8001 3.10059 23.3001 4.80059 20.5001 10.2006C17.5001 16.0006 16.6001 51.7006 45.3001 57.0006C46.8001 57.3006 48.4001 57.5006 50.1001 57.6006C51.8001 57.5006 53.4001 57.3006 54.9001 57.0006C83.5001 51.8006 82.6001 16.1006 79.6001 10.3006Z" fill="#B9D7E6"/>
<path d="M74.2001 10.6002C71.9001 5.4002 60.0001 4.1002 52.8001 3.8002C51.8001 3.8002 50.8001 3.7002 50.0001 3.7002C49.2001 3.7002 48.2001 3.7002 47.2001 3.8002C40.0001 4.1002 28.1001 5.4002 25.8001 10.6002C23.3001 16.2002 22.6001 50.8002 46.1001 55.9002C47.3001 56.2002 48.6001 56.4002 50.0001 56.4002C51.4001 56.3002 52.7001 56.1002 53.9001 55.9002C77.4001 50.8002 76.6001 16.2002 74.2001 10.6002Z" fill="#00214B"/>
<path d="M73.7001 10.7006C71.5001 5.70059 59.8001 4.50059 52.7001 4.20059C51.7001 4.20059 50.7001 4.10059 50.0001 4.10059C49.2001 4.10059 48.3001 4.10059 47.3001 4.20059C40.2001 4.50059 28.6001 5.70059 26.3001 10.7006C23.9001 16.1006 23.2001 49.3006 46.2001 54.2006C47.4001 54.5006 48.7001 54.6006 50.0001 54.7006C51.3001 54.6006 52.6001 54.4006 53.8001 54.2006C76.8001 49.3006 76.1001 16.1006 73.7001 10.7006Z" fill="#024985"/>
<path d="M72.1001 25.2002C72.1001 32.1002 66.5001 37.6002 59.7001 37.6002H42.3001C35.4001 37.6002 29.9001 32.0002 29.9001 25.2002V25.1002C29.9001 18.2002 35.5001 12.7002 42.3001 12.7002H59.6001C66.5001 12.7002 72.1001 18.3002 72.1001 25.2002Z" fill="#B9D7E6" stroke="white" stroke-width="0.3664" stroke-miterlimit="10" stroke-linecap="round" stroke-linejoin="round"/>
<path d="M70.6 25.2004C70.6 31.6004 65.3 36.9004 58.8 36.9004H42.8C36.3 36.9004 31 31.6004 31 25.2004V25.1004C31 18.7004 36.2 13.4004 42.8 13.4004H58.7C65.3 13.5004 70.6 18.7004 70.6 25.2004Z" fill="white" stroke="#B9D7E6" stroke-width="0.3664" stroke-miterlimit="10" stroke-linecap="round" stroke-linejoin="round"/>
<path d="M40.7002 22.0004V19.0004L41.8002 17.9004V22.4004L41.4002 22.8004L40.7002 22.0004ZM41.9002 23.6004V28.0004L40.8002 26.9004V23.9004L41.5002 23.2004L41.9002 23.6004Z" fill="black"/>
<path d="M45.5001 22.0006L44.8001 22.7006L44.4001 22.3006V17.8006L45.5001 18.9006V22.0006ZM45.5001 26.9006L44.4001 28.0006V23.6006L44.8001 23.2006L45.5001 23.9006V26.9006ZM50.5001 17.6006L49.4001 18.7006H45.7001L44.6001 17.6006H50.5001ZM50.5001 28.2006H44.6001L45.7001 27.1006H49.4001L50.5001 28.2006ZM50.7001 22.3006L50.3001 22.7006L49.6001 22.0006V19.0006L50.7001 17.9006V22.3006ZM50.7001 28.0006L49.6001 26.9006V23.9006L50.3001 23.2006L50.7001 23.6006V28.0006Z" fill="black"/>
<path d="M53.7002 22.0006L53.0002 22.7006L52.6002 22.3006V17.8006L53.7002 18.9006V22.0006ZM53.7002 26.9006L52.5002 28.0006V23.6006L52.9002 23.2006L53.6002 23.9006V26.9006H53.7002ZM58.7002 17.6006L57.6002 18.7006H53.9002L52.8002 17.6006H58.7002ZM58.7002 28.2006H52.8002L53.9002 27.1006H57.6002L58.7002 28.2006ZM58.9002 22.3006L58.5002 22.7006L57.8002 22.0006V19.0006L58.9002 17.9006V22.3006ZM58.9002 28.0006L57.8002 26.9006V23.9006L58.5002 23.2006L58.9002 23.6006V28.0006Z" fill="black"/>
<path d="M53.1001 32.2006H53.5001V32.4006C53.6001 32.2006 53.8001 32.1006 54.1001 32.1006C54.2001 32.1006 54.4001 32.1006 54.5001 32.2006C54.6001 32.3006 54.7001 32.3006 54.7001 32.4006C54.9001 32.2006 55.1001 32.1006 55.4001 32.1006C55.6001 32.1006 55.7001 32.2006 55.9001 32.3006C56.0001 32.4006 56.1001 32.6006 56.1001 32.9006V34.3006H55.7001V33.0006C55.7001 32.8006 55.7001 32.7006 55.6001 32.7006C55.5001 32.6006 55.4001 32.6006 55.3001 32.6006C55.2001 32.6006 55.1001 32.6006 55.0001 32.7006C54.9001 32.8006 54.9001 32.9006 54.9001 33.0006V34.3006H54.5001V33.0006C54.5001 32.8006 54.5001 32.7006 54.4001 32.7006C54.3001 32.6006 54.2001 32.6006 54.1001 32.6006C54.0001 32.6006 53.9001 32.6006 53.8001 32.7006C53.7001 32.8006 53.7001 32.9006 53.7001 33.0006V34.3006H53.3001V32.2006H53.1001Z" fill="black"/>
<path d="M57.9002 34.1004C57.8002 34.3004 57.6002 34.3004 57.4002 34.3004C57.3002 34.3004 57.2002 34.3004 57.1002 34.2004C57.0002 34.1004 56.9002 34.1004 56.9002 34.0004C56.8002 33.9004 56.8002 33.8004 56.8002 33.7004C56.8002 33.6004 56.8002 33.4004 56.8002 33.1004C56.8002 32.8004 56.8002 32.6004 56.8002 32.5004C56.8002 32.4004 56.9002 32.3004 56.9002 32.2004C56.9002 32.1004 57.0002 32.1004 57.1002 32.0004C57.2002 31.9004 57.3002 31.9004 57.4002 31.9004C57.6002 31.9004 57.8002 32.0004 57.9002 32.2004V32.0004H58.3002V34.1004C58.3002 34.4004 58.2002 34.7004 58.0002 34.8004C57.8002 35.0004 57.6002 35.0004 57.4002 35.0004C57.1002 35.0004 56.9002 34.9004 56.7002 34.6004L57.0002 34.3004C57.1002 34.4004 57.1002 34.4004 57.2002 34.4004C57.3002 34.4004 57.3002 34.5004 57.4002 34.5004C57.5002 34.5004 57.7002 34.5004 57.7002 34.4004C57.8002 34.3004 57.8002 34.2004 57.8002 34.1004H57.9002ZM57.0002 33.3004C57.0002 33.5004 57.0002 33.6004 57.0002 33.6004C57.0002 33.7004 57.0002 33.7004 57.1002 33.8004L57.2002 33.9004C57.3002 33.9004 57.3002 34.0004 57.4002 34.0004C57.5002 34.0004 57.5002 34.0004 57.6002 33.9004C57.7002 33.9004 57.7002 33.8004 57.7002 33.8004C57.7002 33.8004 57.8002 33.7004 57.8002 33.6004C57.8002 33.5004 57.8002 33.4004 57.8002 33.3004C57.8002 33.1004 57.8002 33.0004 57.8002 33.0004C57.8002 32.9004 57.8002 32.9004 57.7002 32.8004L57.6002 32.7004C57.5002 32.7004 57.5002 32.7004 57.4002 32.6004C57.3002 32.6004 57.3002 32.6004 57.2002 32.7004C57.1002 32.7004 57.1002 32.8004 57.1002 32.8004C57.1002 32.8004 57.0002 32.9004 57.0002 33.0004C57.0002 33.0004 57.0002 33.1004 57.0002 33.3004Z" fill="black"/>
<path d="M59.6002 31.3008H60.0002L59.0002 34.4008H58.7002L59.6002 31.3008Z" fill="black"/>
<path d="M61.5001 34.1008C61.4001 34.3008 61.2001 34.3008 61.0001 34.3008C60.9001 34.3008 60.8001 34.3008 60.7001 34.2008C60.6001 34.2008 60.5001 34.1008 60.5001 34.0008C60.4001 33.9008 60.4001 33.8008 60.4001 33.7008C60.4001 33.6008 60.4001 33.4008 60.4001 33.2008C60.4001 32.9008 60.4001 32.8008 60.4001 32.7008C60.4001 32.6008 60.5001 32.5008 60.5001 32.4008C60.6001 32.2008 60.8001 32.1008 61.1001 32.1008C61.2001 32.1008 61.3001 32.1008 61.4001 32.2008C61.5001 32.2008 61.6001 32.3008 61.6001 32.4008V31.3008H62.0001V34.3008H61.6001V34.1008H61.5001ZM61.1001 32.6008C61.0001 32.6008 60.9001 32.6008 60.9001 32.7008C60.8001 32.7008 60.8001 32.8008 60.8001 32.9008C60.8001 33.0008 60.8001 33.0008 60.8001 33.1008C60.8001 33.2008 60.8001 33.3008 60.8001 33.4008C60.8001 33.5008 60.8001 33.6008 60.8001 33.6008C60.8001 33.7008 60.8001 33.8008 60.8001 33.8008C60.8001 33.9008 60.9001 33.9008 60.9001 34.0008C61.0001 34.0008 61.0001 34.1008 61.1001 34.1008C61.2001 34.1008 61.3001 34.1008 61.3001 34.0008C61.4001 34.0008 61.4001 33.9008 61.4001 33.8008C61.4001 33.7008 61.4001 33.7008 61.5001 33.6008C61.5001 33.5008 61.5001 33.4008 61.5001 33.4008C61.5001 33.3008 61.5001 33.2008 61.5001 33.2008C61.5001 33.1008 61.5001 33.1008 61.4001 33.0008C61.4001 32.9008 61.3001 32.9008 61.3001 32.8008C61.3001 32.6008 61.2001 32.6008 61.1001 32.6008Z" fill="black"/>
<path d="M62.5 31.3008H63V33.9008H64.4V34.3008H62.5V31.3008Z" fill="black"/>
<path d="M56.4003 58.2003C56.7003 58.0003 57.1003 57.8003 57.8003 57.8003C59.9003 57.7003 66.0003 62.9003 66.4003 63.4003C66.7003 63.8003 66.8003 64.2003 66.8003 64.6003C66.8003 65.0003 66.7003 65.3002 66.5003 65.7002C66.1003 66.4002 59.9003 71.6003 57.8003 71.5003C57.0003 71.5003 56.7003 71.3003 56.4003 71.0003C55.8003 70.6003 55.9003 70.0003 55.9003 70.0003V59.3003C55.8003 59.3003 55.7003 58.7003 56.4003 58.2003Z" fill="#00214B"/>
<path d="M56.9003 58.7C57.2003 58.5 57.6003 58.4 58.2003 58.4C59.9003 58.3 65.0003 63 65.3003 63.5C65.6003 63.8 65.7003 64.2 65.7003 64.6C65.7003 64.9 65.7003 65.3 65.4003 65.6C65.1003 66.2 60.0003 70.9 58.3003 70.8C57.7003 70.8 57.1003 70.6 56.9003 70.4C56.4003 70 56.2003 69.5 56.2003 69.5V59.8C56.1003 59.7 56.3003 59.1 56.9003 58.7Z" fill="#024985"/>
<path d="M44.1002 58.2003C43.8002 58.0003 43.4002 57.8003 42.7002 57.8003C40.6002 57.7003 34.5002 62.9003 34.1002 63.4003C33.8002 63.8003 33.7002 64.2003 33.7002 64.6003C33.7002 65.0003 33.8002 65.3002 34.0002 65.7002C34.4002 66.4002 40.6002 71.6003 42.7002 71.5003C43.5002 71.5003 43.9002 71.3003 44.2002 71.0003C44.8002 70.6003 44.7002 70.0003 44.7002 70.0003V59.3003C44.8002 59.3003 44.8002 58.7003 44.1002 58.2003Z" fill="#00214B"/>
<path d="M43.4002 58.7C43.1002 58.5 42.7002 58.4 42.2002 58.4C40.5002 58.3 35.4002 63 35.1002 63.5C34.8002 63.8 34.7002 64.2 34.8002 64.6C34.8002 64.9 34.9002 65.3 35.1002 65.6C35.4002 66.2 40.5002 70.9 42.2002 70.8C42.8002 70.8 43.3002 70.6 43.5002 70.4C44.0002 70 44.0002 69.5 44.0002 69.5V59.8C44.0002 59.7 44.0002 59.1 43.4002 58.7Z" fill="#024985"/>
<path d="M54.7001 67.6006C54.7001 69.8006 52.9001 71.6006 50.7001 71.6006H50.6001C48.4001 71.6006 46.6001 69.8006 46.6001 67.6006V61.6006C46.6001 59.4006 48.4001 57.6006 50.6001 57.6006H50.7001C52.9001 57.6006 54.7001 59.4006 54.7001 61.6006V67.6006Z" fill="#00214B"/>
<path d="M54.3002 67.6002C54.3002 69.6002 52.4002 71.2002 50.5002 71.2002C48.5002 71.2002 46.7002 69.6002 46.7002 67.6002V62.3002C46.7002 60.3002 48.6002 58.7002 50.5002 58.7002C52.5002 58.7002 54.3002 60.3002 54.3002 62.3002V67.6002Z" fill="#024985"/>
<path d="M51.4003 66.301C51.4003 66.501 51.0003 66.701 50.8003 66.701H50.6003C50.4003 66.701 50.3003 66.501 50.3003 66.301V64.101C50.3003 63.901 50.4003 63.501 50.6003 63.501H50.8003C51.0003 63.501 51.4003 63.901 51.4003 64.101V66.301Z" fill="white"/>
<path d="M52.9002 65.001C52.9002 66.401 51.8002 67.501 50.4002 67.501C49.0002 67.501 48.0002 66.401 48.0002 65.001C48.0002 63.601 49.1002 62.501 50.5002 62.501C51.9002 62.501 52.9002 63.701 52.9002 65.001Z" stroke="white" stroke-width="0.3664" stroke-miterlimit="10" stroke-linecap="round" stroke-linejoin="round"/>
<path d="M20.3 43.5C20.3 43.5 24.6001 72.3 48.9001 75.7C48.9001 75.7 28.7 71.2 20.3 43.5Z" fill="#EDEDEE"/>
<path d="M79.8002 43.5C79.8002 43.5 75.5002 72.3 51.2002 75.7C51.2002 75.7 71.4002 71.2 79.8002 43.5Z" fill="#EDEDEE"/>
</svg>
