<svg width="23" height="21" viewBox="0 0 23 21" fill="none" xmlns="http://www.w3.org/2000/svg">
<path d="M21.367 17.1585L21.3571 2.90542V2.90173V2.89805V1.66962C21.2064 1.3973 19.4917 0.848175 16.6339 0.848175C13.8099 0.848175 12.1021 1.38414 11.9107 1.69343V17.1581C12.8591 16.7239 14.6214 16.4553 16.6339 16.4553C18.616 16.4553 20.4297 16.7247 21.367 17.1585ZM14.159 12.7096C13.9601 12.8115 13.7163 12.7357 13.6102 12.539C13.5042 12.3423 13.5748 12.097 13.7692 11.9868C14.619 11.4735 15.3953 10.8475 16.077 10.1258C15.7606 9.72061 15.4797 9.28886 15.2375 8.83537C15.136 8.63246 15.2182 8.38571 15.4211 8.28418C15.624 8.18266 15.8708 8.26487 15.9723 8.46778C16.1679 8.829 16.3905 9.1749 16.6385 9.50238C17.2814 8.74315 17.8251 7.90527 18.2567 7.00894H13.5535C13.3267 7.00894 13.1428 6.82508 13.1428 6.59822C13.1428 6.37141 13.3267 6.1875 13.5535 6.1875H16.4285V4.95534C16.4285 4.72853 16.6124 4.54462 16.8393 4.54462C17.0661 4.54462 17.25 4.72848 17.25 4.95534V6.1875H20.125C20.3518 6.1875 20.5357 6.37137 20.5357 6.59822C20.5357 6.82503 20.3518 7.00894 20.125 7.00894H19.1578C18.6555 8.15023 17.9861 9.21043 17.1716 10.1546C17.8209 10.9037 18.6068 11.5227 19.4871 11.9786C19.6901 12.0799 19.7725 12.3267 19.6711 12.5297C19.5698 12.7328 19.323 12.8151 19.1199 12.7137C18.1703 12.2253 17.3199 11.5645 16.6121 10.7649C15.8884 11.5236 15.0628 12.1781 14.159 12.7096Z" fill="#FF508B"/>
<path fill-rule="evenodd" clip-rule="evenodd" d="M6.16073 6.53574L5.2132 9.06246H7.10822L6.16073 6.53574Z" fill="#FF508B"/>
<path fill-rule="evenodd" clip-rule="evenodd" d="M22.5893 3.31245H22.1786V17.151C22.1787 17.434 22.0342 17.6974 21.7954 17.8493C21.5641 17.9986 21.2724 18.0192 21.0224 17.9039C20.1985 17.5232 18.4764 17.2767 16.6339 17.2767C14.2699 17.2767 12.51 17.6645 11.9929 18.0476C11.7008 18.2667 11.2992 18.2667 11.0072 18.0476C10.4897 17.6645 8.72976 17.2767 6.3661 17.2767C4.52363 17.2767 2.80151 17.5232 1.97804 17.9043C1.72823 18.0202 1.43651 18.0004 1.20467 17.8517C0.965102 17.6994 0.820453 17.4349 0.821486 17.151V3.31245H0.410721C0.18391 3.31245 0 3.49632 0 3.72317V18.5089C0 18.7357 0.183865 18.9196 0.410721 18.9196H8.80163C9.18459 18.9224 9.54514 19.1005 9.77994 19.403C10.2249 19.8812 10.8488 20.1525 11.502 20.1518C12.1551 20.1512 12.7785 19.8787 13.2226 19.3997C13.4573 19.0989 13.8168 18.922 14.1984 18.9196H22.5893C22.8161 18.9196 23 18.7358 23 18.5089V3.72317C23 3.49632 22.8161 3.31245 22.5893 3.31245Z" fill="#FF508B"/>
<path d="M1.64285 2.90173C1.64285 2.91202 1.6375 2.92065 1.6371 2.93089L1.64285 17.151C2.57026 16.7247 4.38394 16.4553 6.36607 16.4553C8.37857 16.4553 10.1446 16.7243 11.0893 17.1572V1.66962C10.9386 1.3973 9.22382 0.848175 6.36607 0.848175C3.50832 0.848175 1.79361 1.3973 1.63629 1.70452V2.87217C1.63755 2.88246 1.64285 2.89149 1.64285 2.90173ZM3.31161 11.7933L5.77589 5.22186C5.83581 5.06117 5.98922 4.95462 6.16073 4.95462C6.33225 4.95462 6.48565 5.06117 6.54558 5.22186L9.00986 11.7933C9.04818 11.8954 9.04431 12.0085 8.99917 12.1077C8.95402 12.2069 8.87127 12.2842 8.76917 12.3223C8.72299 12.3392 8.6742 12.348 8.62501 12.3482C8.45368 12.3483 8.30032 12.242 8.24017 12.0816L7.41625 9.88389H4.90517L4.08125 12.0816C4.00188 12.2941 3.76518 12.4021 3.55266 12.3227C3.34013 12.2433 3.23219 12.0066 3.31156 11.7941L3.31161 11.7933Z" fill="#FF508B"/>
</svg>
