<svg width="132" height="93" viewBox="0 0 132 93" fill="none" xmlns="http://www.w3.org/2000/svg">
<path d="M127.406 27.1935C122.583 20.9851 112.897 21.7095 110.98 21.9044C101.505 22.8632 95.4888 29.7195 90.42 35.4959C89.6016 36.431 88.6908 37.532 87.7299 38.8121C86.9643 38.0298 86.3096 37.3503 85.8053 36.8419C85.7683 36.8024 85.4252 36.2756 84.7968 35.8884C84.5513 35.7382 84.2636 35.5776 84.0207 35.6698C83.8992 35.7172 83.6696 35.8752 83.498 35.9911C83.4848 36.0016 83.4689 36.0122 83.4478 36.028C83.2841 36.1597 83.226 36.323 83.2128 36.3572C82.1727 38.9465 81.2566 41.7201 79.4139 43.8168C78.1942 45.2049 73.3498 50.6942 67.5788 49.1875C64.0491 48.2709 61.3061 45.0337 60.2501 40.9641C67.4124 41.0958 71.8503 37.8007 94.7681 22.044C99.6204 18.7041 103.153 16.286 102.68 13.9655C102.197 11.6001 98.1975 12.393 90.9718 8.31289C85.4225 5.17578 83.4531 2.26519 78.1467 1.62776C77.7797 1.58035 75.9766 1.37753 73.6402 1.69625C71.6127 1.96755 66.5307 2.62605 63.0379 6.82467C60.5959 9.76159 59.9782 13.0541 59.833 15.0006C59.7907 15.5722 60.3372 16.0068 60.8916 15.8383C64.3579 14.7899 70.5118 13.5493 77.6556 15.3352C81.3226 16.2518 84.2398 17.7137 86.3386 19.0149C84.2688 20.9825 74.7516 29.6089 60.9603 28.9741C58.8166 28.874 45.144 28.2682 39.5314 19.1624C34.8955 11.6423 39.4522 4.33289 35.7087 2.10452C31.4134 -0.453108 20.5894 6.28997 16.7323 15.646C16.0987 17.179 12.6483 26.0688 17.3184 31.9795C17.6247 32.372 20.3227 35.6961 24.6523 36.4731C28.38 37.1422 30.4815 35.4116 35.7166 36.4362C37.5936 36.8076 39.0826 37.1211 39.5895 38.2405C40.4897 40.2371 37.7784 43.7772 34.782 45.4077C30.4102 47.7783 25.5975 45.9819 24.4121 45.5394C19.3697 43.6534 16.9488 39.4127 14.9926 36.0648C12.2417 31.3737 11.154 26.6878 10.7686 22.9369C10.7184 22.4444 10.2036 22.1494 9.75745 22.3601C9.13442 22.6525 8.48762 22.9369 7.80913 23.2161C5.92945 23.9905 4.13953 24.5779 2.48161 25.0231C2.17009 25.1074 1.95625 25.3839 1.95361 25.7053C1.92985 29.2559 2.43145 40.6744 11.2464 49.2349C12.907 50.8548 23.0076 60.6639 33.9821 57.158C40.1835 55.1746 47.0501 48.8504 46.2449 41.778C45.8621 38.4381 43.8267 34.4502 40.26 32.3904C34.0085 28.7792 26.9333 33.876 24.7527 30.8179C23.4195 28.9504 24.7817 25.3049 26.7617 23.2873C27.0838 22.958 29.4677 20.5953 32.4615 20.9878C35.2203 21.3486 36.9547 23.8483 37.6755 24.8598C46.6145 37.3529 49.7297 38.4565 51.3375 39.2757C53.1564 39.9316 54.8223 40.3425 56.2769 40.5875C56.2769 40.5795 56.2795 40.5743 56.2795 40.5664C56.3086 40.5769 56.3403 40.5901 56.3772 40.6059C56.3455 40.598 56.3139 40.5954 56.2769 40.5875C56.2399 40.7876 56.1977 41.0431 56.1555 41.3513C56.1555 41.3513 56.0763 41.8966 56.0235 42.4418C55.1443 52.0401 60.1471 57.4636 60.1471 57.4636C61.3563 58.7727 62.9059 60.4505 65.3215 60.814C68.9172 61.3593 71.8688 58.7174 73.9728 56.7787C79.0628 52.0718 81.7925 45.8239 83.2788 40.7192C83.4029 42.0125 83.6405 43.2873 83.9758 44.52C82.4076 47.2331 80.8764 50.3965 79.5591 54.0367C79.3901 54.5108 79.4878 55.0376 79.8099 55.4196C80.8025 56.6023 81.8004 57.7876 82.7931 58.9676C83.4689 59.7736 84.752 59.584 85.177 58.6225C86.0931 56.5469 87.0646 54.5714 88.0836 52.7039C90.1164 55.2879 92.7195 57.4241 95.7555 58.8859C105.233 63.4454 115.196 59.663 120.88 54.7611C128.835 47.8995 133.175 34.6214 127.409 27.1961L127.406 27.1935ZM116.677 46.8485C112.493 49.9461 105.616 52.0928 100.346 49.5484C98.3242 48.5711 95.8268 46.564 93.4244 44.3778C100.5 35.0534 108.678 30.2674 115.46 31.587C117.488 31.9795 120.36 33.1095 123.449 36.539C122.998 38.2932 121.469 43.2952 116.68 46.8485H116.677Z" fill="#2D2DB2"/>
<path d="M56.3671 40.6039C56.337 40.5964 56.3069 40.5939 56.2743 40.5864C56.2743 40.5789 56.2768 40.5739 56.2768 40.5664C56.3044 40.5764 56.3345 40.5889 56.3671 40.6039Z" fill="#FF8F15"/>
<path d="M56.3671 40.6039C56.337 40.5964 56.3069 40.5939 56.2743 40.5864C56.2743 40.5789 56.2768 40.5739 56.2768 40.5664C56.3044 40.5764 56.3345 40.5889 56.3671 40.6039Z" fill="#FF8F15"/>
<path d="M54.6058 13.5045C57.1705 13.5045 59.2496 11.4301 59.2496 8.87126C59.2496 6.3124 57.1705 4.23804 54.6058 4.23804C52.0411 4.23804 49.962 6.3124 49.962 8.87126C49.962 11.4301 52.0411 13.5045 54.6058 13.5045Z" fill="#FF8F15"/>
<path d="M44.2596 13.5045C46.8243 13.5045 48.9034 11.4301 48.9034 8.87126C48.9034 6.3124 46.8243 4.23804 44.2596 4.23804C41.6949 4.23804 39.6158 6.3124 39.6158 8.87126C39.6158 11.4301 41.6949 13.5045 44.2596 13.5045Z" fill="#FF8F15"/>
<path d="M32.3056 68.192C34.8703 68.192 36.9494 66.1176 36.9494 63.5588C36.9494 60.9999 34.8703 58.9255 32.3056 58.9255C29.7409 58.9255 27.6619 60.9999 27.6619 63.5588C27.6619 66.1176 29.7409 68.192 32.3056 68.192Z" fill="#FF8F15"/>
<path d="M21.9596 68.192C24.5242 68.192 26.6033 66.1176 26.6033 63.5588C26.6033 60.9999 24.5242 58.9255 21.9596 58.9255C19.3949 58.9255 17.3158 60.9999 17.3158 63.5588C17.3158 66.1176 19.3949 68.192 21.9596 68.192Z" fill="#FF8F15"/>
<path d="M45.3525 53.2282C47.4936 50.9366 48.8928 48.5845 49.8115 46.6195C50.2233 45.7397 51.5037 45.8109 51.7968 46.7354C52.528 49.0402 53.6817 51.7795 55.5376 54.5979C56.7732 56.476 58.0852 58.03 59.3181 59.2944C60.0441 60.0398 59.392 61.2725 58.3651 61.0908C56.6174 60.78 54.45 59.9581 52.8686 57.9062C51.9736 56.7446 51.5169 55.5146 51.2952 54.432C51.1816 53.8815 50.4345 53.7972 50.1811 54.2976C49.6346 55.3776 48.8004 56.5682 47.5332 57.5823C45.1017 59.5314 42.3192 59.8449 40.2388 59.7079C39.1908 59.6394 38.8608 58.2697 39.7636 57.7324C41.4664 56.7157 43.4464 55.267 45.3525 53.2256V53.2282Z" fill="#FF8F15"/>
<path d="M105.333 11.4606C105.254 14.6793 104.299 17.3265 103.285 19.2599C102.799 20.187 103.715 21.2196 104.695 20.8482C108.013 19.5891 112.836 18.4934 118.269 19.7182C119.18 19.9236 120.038 20.1765 120.835 20.4636C121.957 20.864 122.879 19.4969 122.063 18.6277C120.912 17.4029 119.302 16.1728 117.134 15.5038C113.839 14.4897 111.012 15.3167 109.711 15.8251C109.51 15.9041 109.307 15.725 109.359 15.5169C109.66 14.3527 110.046 12.0321 109.132 9.43763C108.552 7.78874 107.63 6.55602 106.709 5.65783C105.883 4.85445 104.533 5.64202 104.811 6.75621C105.143 8.08639 105.376 9.67206 105.331 11.4579L105.333 11.4606Z" fill="#FF8F15"/>
<path d="M24.428 85.8687C24.1349 85.8687 23.8788 85.7581 23.6597 85.5395C23.4406 85.3209 23.3297 85.0654 23.3297 84.773C23.4036 83.4586 23.5937 82.2259 23.9 81.0722C24.2062 79.9185 24.6603 78.9123 25.2622 78.0483C25.8615 77.187 26.6271 76.5074 27.5564 76.0123C28.4856 75.5171 29.6103 75.2668 30.925 75.2668C31.292 75.2668 31.5692 75.3827 31.7592 75.6171C31.9493 75.8516 32.0444 76.1071 32.0444 76.3836C32.0444 76.647 31.9493 76.8947 31.7592 77.1291C31.5692 77.3635 31.292 77.4794 30.925 77.4794H30.6848C29.8215 77.4794 29.0849 77.6743 28.4777 78.0589C27.8705 78.4461 27.3716 78.9439 26.9861 79.5471C26.598 80.1529 26.3024 80.8246 26.0964 81.5621C25.8905 82.2996 25.7585 83.0187 25.7004 83.7194H35.1411V79.929C35.1411 78.8623 35.318 77.9878 35.6691 77.3003C36.0202 76.6154 36.4822 76.0728 37.0524 75.6804C37.6227 75.2853 38.2774 75.0113 39.0166 74.8586C39.7558 74.7058 40.5135 74.6294 41.2896 74.6294C41.5827 74.6294 41.8388 74.74 42.0579 74.9586C42.277 75.1773 42.3879 75.4328 42.3879 75.7251V80.5217C42.3879 80.8878 42.2744 81.1618 42.0473 81.3435C41.8203 81.5252 41.5668 81.6174 41.2896 81.6174C41.0124 81.6174 40.759 81.5252 40.532 81.3435C40.3049 81.1618 40.1914 80.8878 40.1914 80.5217V76.842C39.9432 76.842 39.6581 76.8815 39.336 76.9631C39.014 77.0448 38.7077 77.2028 38.4147 77.4452C38.1216 77.6848 37.8735 78.0299 37.6676 78.4751C37.4616 78.9202 37.3613 79.5076 37.3613 80.2372V84.7703C37.3613 85.0627 37.2504 85.3182 37.0313 85.5368C36.8122 85.7555 36.5561 85.8661 36.2631 85.8661H24.4306L24.428 85.8687Z" fill="#2D2DB2"/>
<path d="M45.5902 85.8687C45.2391 85.8687 44.9724 85.7555 44.7876 85.5289C44.6055 85.3024 44.5131 85.0575 44.5131 84.7967C44.5131 84.5201 44.6055 84.2699 44.7876 84.0513C44.9698 83.8326 45.2364 83.722 45.5902 83.722H50.5956V79.3179C50.5956 78.9966 50.5692 78.6831 50.5191 78.375C50.4689 78.0694 50.3791 77.7876 50.2551 77.5321C50.131 77.2766 49.9541 77.0527 49.7271 76.863C49.5 76.6734 49.2123 76.5338 48.8611 76.4469C48.1299 76.2704 47.7629 75.9069 47.7629 75.3511C47.7629 75.0745 47.8553 74.8217 48.0375 74.5952C48.2196 74.3686 48.4942 74.2554 48.8611 74.2554C49.3443 74.2554 49.8195 74.3607 50.2894 74.5741C50.7567 74.7848 51.1791 75.0824 51.5513 75.4617C51.9235 75.841 52.2271 76.3046 52.4621 76.8525C52.6971 77.4004 52.8132 78.0036 52.8132 78.6594V83.7194H56.2162V85.8661H45.5902V85.8687Z" fill="#2D2DB2"/>
<path d="M63.7032 85.8686C63.4101 85.8686 63.1039 85.8476 62.7818 85.8028C62.4597 85.758 62.1376 85.6763 61.8156 85.5499C61.4935 85.4261 61.1872 85.2496 60.8942 85.0231C60.6012 84.7966 60.3372 84.5095 60.1048 84.1592C59.7379 84.7729 59.2785 85.2101 58.7215 85.4735C58.1644 85.7369 57.4701 85.8686 56.6359 85.8686H55.7805V83.7219H56.8128C57.3988 83.7219 57.8925 83.5165 58.2938 83.1082C58.6951 82.6999 58.8984 82.0783 58.8984 81.2459V75.7698C58.8984 75.4063 59.0119 75.1298 59.2389 74.948C59.466 74.7663 59.7194 74.6741 59.9966 74.6741C60.2738 74.6741 60.5272 74.7663 60.7543 74.948C60.9813 75.1298 61.0948 75.4037 61.0948 75.7698V81.2459C61.0948 82.0203 61.343 82.6262 61.842 83.0634C62.3383 83.5007 62.9692 83.7193 63.7296 83.7193H64.4318V85.866H63.7084L63.7032 85.8686Z" fill="#2D2DB2"/>
<path d="M63.9884 85.8687V83.722H64.7117C65.472 83.722 66.0608 83.4691 66.4779 82.966C66.895 82.4629 67.1036 81.7939 67.1036 80.9615V70.0962C67.1036 69.7301 67.2171 69.4562 67.4441 69.2744C67.6712 69.0927 67.9246 69.0005 68.2018 69.0005C68.479 69.0005 68.7324 69.0927 68.9595 69.2744C69.1865 69.4562 69.3 69.7301 69.3 70.0962V81.0485C69.3 81.7649 69.1892 82.4182 68.97 83.0082C68.7509 83.6008 68.4368 84.1066 68.0249 84.5306C67.6157 84.9547 67.1168 85.284 66.5333 85.5157C65.9472 85.7502 65.2952 85.8661 64.5797 85.8661H63.9857L63.9884 85.8687Z" fill="#2D2DB2"/>
<path d="M73.1862 70.0962C73.1862 69.7301 73.2997 69.4562 73.5267 69.2744C73.7538 69.0927 74.0072 69.0005 74.2844 69.0005C74.5616 69.0005 74.815 69.0927 75.0421 69.2744C75.2691 69.4562 75.3826 69.7301 75.3826 70.0962V84.8151C75.3826 85.1654 75.2612 85.4288 75.021 85.6027C74.7807 85.7791 74.5352 85.8661 74.2844 85.8661C74.0204 85.8661 73.7722 85.7791 73.5373 85.6027C73.3023 85.4262 73.1862 85.1654 73.1862 84.8151V70.0962Z" fill="#2D2DB2"/>
<path d="M92.7036 85.8687C92.4105 85.8687 92.0752 85.8213 91.6924 85.7265C91.3123 85.6316 90.9691 85.4736 90.6602 85.255C90.383 85.4736 90.053 85.6316 89.6728 85.7265C89.2927 85.8213 88.9416 85.8687 88.6195 85.8687H87.3681C86.9431 85.8687 86.5418 85.9293 86.1616 86.0557C85.7815 86.1795 85.4515 86.3744 85.1743 86.6352C84.8971 86.8986 84.6753 87.2305 84.5169 87.6309C84.3559 88.0312 84.2767 88.5106 84.2767 89.0664V89.6143C84.2767 89.9646 84.1552 90.228 83.915 90.4018C83.6748 90.5783 83.4213 90.6652 83.1573 90.6652C82.8933 90.6652 82.6452 90.5783 82.4102 90.4018C82.1752 90.2254 82.0591 89.9646 82.0591 89.6143V89.0664C82.0591 88.5106 82.1541 87.9206 82.3442 87.2911C82.5343 86.6642 82.8405 86.0873 83.2656 85.5605C83.6906 85.0337 84.2424 84.5965 84.9235 84.2462C85.6046 83.8958 86.4415 83.7194 87.4368 83.7194H88.5112C88.2472 83.4849 87.9516 83.2189 87.6216 82.9186C87.2916 82.6183 86.9774 82.3312 86.6764 82.052C86.3755 81.7755 86.1141 81.5331 85.8871 81.3303C85.66 81.1249 85.5175 80.9932 85.4594 80.9352C85.2403 80.7166 85.0608 80.5085 84.9208 80.3109C84.7809 80.1134 84.7123 79.9053 84.7123 79.6867C84.7123 79.1309 84.8548 78.5435 85.14 77.9219C85.4251 77.3003 85.8237 76.7313 86.3359 76.2124C86.848 75.6935 87.4711 75.2668 88.2024 74.9323C88.9336 74.5951 89.7547 74.4292 90.6602 74.4292C91.5657 74.4292 92.3683 74.5978 93.1075 74.9323C93.8467 75.2695 94.4724 75.6962 94.9845 76.2124C95.4967 76.7313 95.8953 77.3003 96.1804 77.9219C96.4656 78.5435 96.6081 79.1309 96.6081 79.6867C96.6081 79.9053 96.5395 80.1134 96.3996 80.3109C96.2596 80.5085 96.0748 80.7166 95.8399 80.9352C95.795 80.98 95.7237 81.0485 95.6208 81.1433C95.5178 81.2381 95.3937 81.354 95.2485 81.4936C95.1033 81.6332 94.937 81.786 94.7548 81.9546C94.5727 82.1232 94.3932 82.2865 94.2163 82.4471C93.7912 82.8264 93.316 83.2505 92.788 83.7167H99.3088V85.8634H92.7009L92.7036 85.8687ZM90.6628 83.1741C90.8529 82.9845 91.1169 82.729 91.4522 82.4076C91.7875 82.0863 92.1333 81.757 92.4844 81.4225C92.8356 81.088 93.1735 80.7614 93.4956 80.4479C93.8176 80.1345 94.0737 79.8816 94.2638 79.692C94.2348 79.2968 94.1397 78.9044 93.9787 78.5093C93.8176 78.1142 93.5827 77.7612 93.2764 77.4478C92.9702 77.1343 92.6006 76.8788 92.1676 76.6813C91.7347 76.4837 91.2357 76.3863 90.6628 76.3863C90.09 76.3863 89.6095 76.4837 89.1712 76.6813C88.733 76.8788 88.3581 77.1343 88.0519 77.4478C87.7456 77.7612 87.5054 78.1168 87.3391 78.5093C87.1701 78.9044 87.0804 79.2968 87.0645 79.692C87.2704 79.8974 87.5318 80.1582 87.8539 80.4795C88.176 80.8009 88.5112 81.1301 88.865 81.4646C89.2161 81.8018 89.554 82.1205 89.8761 82.4287C90.1982 82.7342 90.4622 82.9845 90.6655 83.1741H90.6628Z" fill="#2D2DB2"/>
<path d="M98.8733 85.8688V83.7221H99.8607C100.183 83.7221 100.497 83.6615 100.806 83.535C101.112 83.4112 101.384 83.2111 101.619 82.9319C101.854 82.6553 102.044 82.2971 102.189 81.8598C102.334 81.4226 102.408 80.8879 102.408 80.261V79.8448C102.408 77.9457 102.823 76.468 103.649 75.4091C104.475 74.3502 105.621 73.8208 107.084 73.8208C108.546 73.8208 109.692 74.3502 110.518 75.4091C111.345 76.468 111.759 77.9457 111.759 79.8448C111.759 81.7439 111.353 83.24 110.539 84.291C109.726 85.342 108.575 85.8688 107.081 85.8688C106.305 85.8688 105.611 85.7186 104.995 85.421C104.38 85.1207 103.868 84.665 103.459 84.0513C103.298 84.3569 103.081 84.6255 102.812 84.852C102.54 85.0786 102.237 85.2682 101.901 85.421C101.563 85.5738 101.218 85.687 100.859 85.7608C100.5 85.8345 100.167 85.8714 99.8607 85.8714H98.8733V85.8688ZM107.084 83.7221C107.889 83.7221 108.493 83.3981 108.895 82.7475C109.296 82.0969 109.499 81.1302 109.499 79.8448C109.499 78.4725 109.301 77.461 108.905 76.8104C108.509 76.1598 107.902 75.8358 107.084 75.8358C106.265 75.8358 105.634 76.1598 105.238 76.8104C104.842 77.461 104.644 78.4725 104.644 79.8448C104.644 81.1302 104.845 82.0969 105.249 82.7475C105.65 83.3981 106.263 83.7221 107.081 83.7221H107.084Z" fill="#2D2DB2"/>
<path d="M59.994 73.7181C60.6005 73.7181 61.0922 73.2275 61.0922 72.6224C61.0922 72.0172 60.6005 71.5266 59.994 71.5266C59.3875 71.5266 58.8958 72.0172 58.8958 72.6224C58.8958 73.2275 59.3875 73.7181 59.994 73.7181Z" fill="#2D2DB2"/>
</svg>
