<svg width="16" height="18" viewBox="0 0 16 18" fill="none" xmlns="http://www.w3.org/2000/svg">
<path d="M15.9812 14.4908L14.2035 5.49139V3.19213C14.2035 2.68217 13.8181 2.26572 13.3425 2.26572H11.3418C11.5386 2.02573 11.6583 1.71164 11.6583 1.36754C11.6583 0.614071 11.0877 0 10.3874 0C9.80525 0 9.31491 0.425249 9.16567 1.00229C8.49002 1.03583 7.93409 1.56872 7.81109 2.26572H2.66172C2.18614 2.26572 1.80076 2.68217 1.80076 3.19213V3.89269L0.743002 4.0515C0.272348 4.12207 -0.0572716 4.59147 0.00831461 5.09612L1.43834 16.1054C1.50231 16.6065 1.93524 16.9647 2.40917 16.8942L3.73586 16.6948L3.84899 17.2647C3.94737 17.7623 4.39999 18.087 4.87065 17.9794L15.3186 15.5884C15.7827 15.4825 16.0795 14.9902 15.9812 14.4908ZM1.36455 7.88946C1.358 7.89124 1.34979 7.89124 1.34159 7.89124C1.26124 7.89124 1.19072 7.82772 1.17924 7.73948L0.838139 5.10495C0.825036 5.00967 0.887346 4.91966 0.977552 4.90734C1.06776 4.89146 1.14976 4.96028 1.16286 5.05731L1.50559 7.69006C1.51707 7.78713 1.45476 7.87536 1.36455 7.88946ZM10.3874 0.352933C10.9072 0.352933 11.3304 0.808199 11.3304 1.36758C11.3304 2.22164 10.6744 2.2534 10.658 2.26575C10.5481 1.63933 10.0873 1.14347 9.50346 1.02526C9.63467 0.635257 9.97904 0.352933 10.3874 0.352933ZM2.66172 14.8807C2.36652 14.8807 2.12876 14.6231 2.12876 14.3073V3.19213C2.12876 2.87626 2.36655 2.61865 2.66172 2.61865H7.78809C7.80122 2.97685 7.92419 3.30329 8.12591 3.56094L7.54702 4.18385C7.48305 4.25267 7.48305 4.36384 7.54702 4.43266C7.61098 4.50149 7.71429 4.50149 7.77826 4.43266L8.36371 3.80271C8.60643 4.00033 8.90815 4.11858 9.2345 4.11858C9.99215 4.11858 10.6137 3.49215 10.6793 2.69631C11.2303 2.55513 11.8174 2.65219 13.3425 2.61865C13.636 2.61865 13.8754 2.8763 13.8754 3.19213V14.3073C13.8754 14.6231 13.636 14.8807 13.3425 14.8807H2.66172ZM15.2498 15.2442L4.80182 17.6335C4.5132 17.6988 4.23113 17.5011 4.17044 17.1924L4.0622 16.6453C4.08517 16.6418 12.6767 15.336 13.3425 15.2337C13.8181 15.2337 14.2035 14.819 14.2035 14.3073V7.18893L15.6614 14.5631C15.7221 14.8737 15.5368 15.179 15.2498 15.2442Z" fill="#FF508B"/>
<path d="M2.57609 5.79855H13.4288C13.5421 5.79855 13.6338 5.70199 13.6338 5.58287C13.6338 5.46375 13.5421 5.36719 13.4288 5.36719H2.57609C2.46279 5.36719 2.37109 5.46375 2.37109 5.58287C2.37114 5.70195 2.46279 5.79855 2.57609 5.79855Z" fill="#FF508B"/>
<path d="M2.57609 8.36105H5.33164C5.44494 8.36105 5.53663 8.26449 5.53663 8.14537C5.53663 8.02625 5.44494 7.92969 5.33164 7.92969H2.57609C2.46279 7.92969 2.37109 8.02625 2.37109 8.14537C2.37114 8.26449 2.46279 8.36105 2.57609 8.36105Z" fill="#FF508B"/>
<path d="M13.4289 7.92969H6.58561C6.47231 7.92969 6.38062 8.02625 6.38062 8.14537C6.38062 8.26449 6.47231 8.36105 6.58561 8.36105H13.4289C13.5422 8.36105 13.6339 8.26449 13.6339 8.14537C13.6339 8.02629 13.5422 7.92969 13.4289 7.92969Z" fill="#FF508B"/>
<path d="M13.4288 10.4883H10.6733C10.56 10.4883 10.4683 10.5848 10.4683 10.704C10.4683 10.8231 10.56 10.9196 10.6733 10.9196H13.4288C13.5421 10.9196 13.6338 10.8231 13.6338 10.704C13.6338 10.5848 13.5421 10.4883 13.4288 10.4883Z" fill="#FF508B"/>
<path d="M2.57609 10.9196H9.41942C9.53273 10.9196 9.62442 10.8231 9.62442 10.704C9.62442 10.5848 9.53273 10.4883 9.41942 10.4883H2.57609C2.46279 10.4883 2.37109 10.5848 2.37109 10.704C2.37109 10.8231 2.46279 10.9196 2.57609 10.9196Z" fill="#FF508B"/>
<path d="M2.57609 13.4821H5.33164C5.44494 13.4821 5.53663 13.3856 5.53663 13.2665C5.53663 13.1473 5.44494 13.0508 5.33164 13.0508H2.57609C2.46279 13.0508 2.37109 13.1473 2.37109 13.2665C2.37109 13.3856 2.46279 13.4821 2.57609 13.4821Z" fill="#FF508B"/>
<path d="M13.4289 13.0508H6.58561C6.47231 13.0508 6.38062 13.1473 6.38062 13.2665C6.38062 13.3856 6.47231 13.4821 6.58561 13.4821H13.4289C13.5422 13.4821 13.6339 13.3856 13.6339 13.2665C13.6339 13.1473 13.5422 13.0508 13.4289 13.0508Z" fill="#FF508B"/>
</svg>
