<svg width="10" height="16" viewBox="0 0 10 16" fill="none" xmlns="http://www.w3.org/2000/svg">
<path d="M0.566033 8.00892L1.48303 5.71592C1.65355 5.28749 1.94236 4.91637 2.31577 4.64583C2.68918 4.37529 3.1318 4.21648 3.59203 4.18792C3.28226 3.89219 3.06816 3.51045 2.97732 3.09192C2.88648 2.67339 2.92307 2.23724 3.08237 1.8397C3.24167 1.44215 3.51637 1.10142 3.87109 0.861424C4.2258 0.621428 4.64426 0.493164 5.07253 0.493164C5.50081 0.493164 5.91927 0.621428 6.27399 0.861424C6.6287 1.10142 6.90341 1.44215 7.06271 1.8397C7.22201 2.23724 7.2586 2.67339 7.16776 3.09192C7.07692 3.51045 6.86281 3.89219 6.55304 4.18792C7.01327 4.21648 7.4559 4.37529 7.82931 4.64583C8.20272 4.91637 8.49152 5.28749 8.66203 5.71592L9.57903 8.00892C9.66889 8.23378 9.6901 8.48023 9.63996 8.71713C9.58983 8.95403 9.47061 9.17076 9.29736 9.33994C9.12412 9.50912 8.90462 9.62316 8.6666 9.66765C8.42857 9.71214 8.1827 9.6851 7.96004 9.58992C7.90803 9.56768 7.85758 9.54195 7.80904 9.51292L8.43104 11.7509C8.44381 11.7968 8.44569 11.845 8.43654 11.8918C8.42739 11.9385 8.40745 11.9825 8.37832 12.0201C8.34919 12.0578 8.31166 12.0882 8.26873 12.1088C8.2258 12.1294 8.17865 12.1397 8.13104 12.1389H7.21204V14.5889C7.21273 14.8382 7.13704 15.0817 6.99518 15.2866C6.85331 15.4916 6.65208 15.6482 6.41854 15.7353C6.18501 15.8225 5.93038 15.836 5.68894 15.774C5.44749 15.7121 5.2308 15.5777 5.06804 15.3889C4.90528 15.5777 4.68859 15.7121 4.44714 15.774C4.20569 15.836 3.95107 15.8225 3.71753 15.7353C3.48399 15.6482 3.28276 15.4916 3.14089 15.2866C2.99903 15.0817 2.92335 14.8382 2.92404 14.5889V12.1389H2.00504C1.95742 12.1397 1.91027 12.1294 1.86734 12.1088C1.82441 12.0882 1.78688 12.0578 1.75775 12.0201C1.72862 11.9825 1.70868 11.9385 1.69953 11.8918C1.69038 11.845 1.69226 11.7968 1.70503 11.7509L2.32604 9.51392C2.16416 9.60877 1.98292 9.66578 1.79589 9.68067C1.60886 9.69556 1.42088 9.66796 1.24603 9.59992C0.944542 9.47918 0.703337 9.24365 0.575448 8.94512C0.447559 8.64658 0.443455 8.30948 0.564034 8.00792L0.566033 8.00892ZM6.60404 2.64392C6.60404 2.34112 6.51425 2.04512 6.34602 1.79335C6.17779 1.54157 5.93867 1.34534 5.65892 1.22946C5.37917 1.11359 5.07134 1.08327 4.77435 1.14234C4.47737 1.20142 4.20457 1.34723 3.99046 1.56134C3.77634 1.77546 3.63053 2.04826 3.57146 2.34524C3.51238 2.64223 3.5427 2.95006 3.65858 3.22981C3.77446 3.50957 3.97069 3.74868 4.22246 3.9169C4.47423 4.08513 4.77023 4.17492 5.07304 4.17492C5.47884 4.17413 5.86779 4.01257 6.15474 3.72563C6.44169 3.43868 6.60324 3.04973 6.60404 2.64392ZM5.37904 14.5889C5.38543 14.7471 5.45276 14.8966 5.56693 15.0063C5.68109 15.1159 5.83325 15.1772 5.99154 15.1772C6.14983 15.1772 6.30199 15.1159 6.41615 15.0063C6.53032 14.8966 6.59764 14.7471 6.60404 14.5889V12.1389H5.37904V14.5889ZM3.54104 14.5889C3.5377 14.6714 3.55108 14.7538 3.58035 14.831C3.60963 14.9082 3.65421 14.9787 3.71141 15.0383C3.76862 15.0979 3.83727 15.1452 3.91325 15.1776C3.98922 15.21 4.07095 15.2267 4.15353 15.2267C4.23612 15.2267 4.31786 15.21 4.39383 15.1776C4.46981 15.1452 4.53845 15.0979 4.59566 15.0383C4.65286 14.9787 4.69745 14.9082 4.72672 14.831C4.756 14.7538 4.76937 14.6714 4.76604 14.5889V12.1389H3.54604V14.5889H3.54104ZM1.14104 8.70492C1.1725 8.77914 1.21841 8.84636 1.27609 8.90267C1.33378 8.95898 1.40208 9.00326 1.47704 9.03292C1.62854 9.09134 1.79685 9.08841 1.94622 9.02474C2.09559 8.96107 2.21427 8.84168 2.27704 8.69192L3.26103 6.20692C3.28795 6.13136 3.34345 6.06939 3.4156 6.03434C3.48776 5.9993 3.57078 5.99399 3.64681 6.01955C3.72284 6.04511 3.7858 6.0995 3.82212 6.17102C3.85845 6.24253 3.86524 6.32545 3.84103 6.40192L2.41704 11.5269H7.73604L6.30904 6.39992C6.28483 6.32345 6.29163 6.24053 6.32795 6.16902C6.36428 6.0975 6.42723 6.04311 6.50326 6.01755C6.57929 5.99199 6.66232 5.9973 6.73447 6.03234C6.80662 6.06739 6.86213 6.12936 6.88904 6.20492L7.87304 8.68892C7.93338 8.8397 8.05113 8.96033 8.20041 9.02428C8.34969 9.08823 8.51826 9.09026 8.66904 9.02992C8.81981 8.96959 8.94045 8.85183 9.0044 8.70255C9.06835 8.55327 9.07037 8.3847 9.01003 8.23392L8.09303 5.94092C7.95761 5.5993 7.72243 5.30639 7.41813 5.10037C7.11383 4.89435 6.75452 4.78478 6.38704 4.78592H3.75803C3.39055 4.78478 3.03125 4.89435 2.72694 5.10037C2.42264 5.30639 2.18745 5.5993 2.05203 5.94092L1.13503 8.23392C1.07517 8.38391 1.07733 8.55153 1.14104 8.69992V8.70492Z" fill="#2D2DB2"/>
</svg>
