<svg width="12" height="14" viewBox="0 0 12 14" fill="none" xmlns="http://www.w3.org/2000/svg">
<mask id="mask0_1023_1972" style="mask-type:luminance" maskUnits="userSpaceOnUse" x="0" y="0" width="12" height="14">
<path fill-rule="evenodd" clip-rule="evenodd" d="M0 0H11.6693V14H0V0Z" fill="white"/>
</mask>
<g mask="url(#mask0_1023_1972)">
<path fill-rule="evenodd" clip-rule="evenodd" d="M5.83468 1.03132C5.25145 1.03132 1.57188 2.32708 1.14752 2.68128C1.02235 2.80715 1.01753 3.02586 1.04436 4.49012C1.05674 5.19578 1.07393 6.15453 1.07393 7.48193C1.07393 11.059 5.00936 12.6471 5.834 12.9394C6.65795 12.6457 10.5954 11.0487 10.5954 7.48193C10.5954 6.15315 10.6126 5.19371 10.6257 4.48806C10.6518 3.02517 10.647 2.80646 10.5143 2.67441C10.0982 2.32708 6.41792 1.03132 5.83468 1.03132ZM5.83465 13.9998C5.78444 13.9998 5.73424 13.9929 5.6854 13.9778C5.455 13.9083 0.0422392 12.215 0.0422392 7.48178C0.0422392 6.16332 0.0250449 5.20938 0.012665 4.50923C-0.0189725 2.76023 -0.0258502 2.39571 0.426016 1.94453C0.965916 1.40325 5.05472 -0.000488281 5.83465 -0.000488281C6.6139 -0.000488281 10.7027 1.40325 11.244 1.94453C11.6952 2.39571 11.6883 2.76023 11.6566 4.50717C11.6443 5.20732 11.6271 6.16126 11.6271 7.48178C11.6271 12.215 6.2143 13.9083 5.9839 13.9778C5.93506 13.9929 5.88486 13.9998 5.83465 13.9998Z" fill="white"/>
</g>
<path fill-rule="evenodd" clip-rule="evenodd" d="M5.34874 8.61028C5.21188 8.61028 5.08051 8.55594 4.98354 8.45897L3.68227 7.15633C3.48145 6.95481 3.48145 6.62743 3.68296 6.4266C3.88379 6.22509 4.21117 6.22509 4.41269 6.4266L5.34874 7.36404L7.66516 5.04762C7.86668 4.84611 8.19268 4.84611 8.3942 5.04762C8.59571 5.24914 8.59571 5.57583 8.3942 5.77735L5.71326 8.45897C5.61698 8.55594 5.48561 8.61028 5.34874 8.61028Z" fill="white"/>
</svg>
