<svg width="12" height="15" viewBox="0 0 12 15" fill="none" xmlns="http://www.w3.org/2000/svg">
<path d="M9.71908 5.70675V3.85096C9.71908 1.7311 7.98798 0 5.86812 0C3.74826 0 2.01717 1.7311 2.01717 3.85096C2.01717 4.1517 2.26656 4.40109 2.5673 4.40109C2.86805 4.40109 3.11744 4.1517 3.11744 3.85096C3.11744 2.33258 4.34975 1.10027 5.86812 1.10027C7.3865 1.10027 8.61881 2.33258 8.61881 3.85096V5.68474H2.20055C0.982911 5.68474 0 6.66765 0 7.88529V12.2864C0 13.504 0.982911 14.4869 2.20055 14.4869H9.5357C10.7533 14.4869 11.7362 13.504 11.7362 12.2864V7.88529C11.7362 6.73367 10.8487 5.79477 9.71908 5.70675ZM10.636 12.2864C10.636 12.8952 10.1445 13.3867 9.5357 13.3867H2.20055C1.59173 13.3867 1.10027 12.8952 1.10027 12.2864V7.88529C1.10027 7.27647 1.59173 6.78502 2.20055 6.78502H9.5357C10.1445 6.78502 10.636 7.27647 10.636 7.88529V12.2864Z" fill="white"/>
<path d="M5.86804 9.35254C5.4646 9.35254 5.13452 9.68262 5.13452 10.0861C5.13452 10.4895 5.4646 10.8196 5.86804 10.8196C6.27147 10.8196 6.60155 10.4895 6.60155 10.0861C6.60155 9.68262 6.27147 9.35254 5.86804 9.35254Z" fill="white"/>
</svg>
