<svg width="14" height="12" viewBox="0 0 14 12" fill="none" xmlns="http://www.w3.org/2000/svg">
<path d="M3.32404 0.991941H3.81304V0.491941C3.81304 0.362118 3.86461 0.237612 3.95641 0.145813C4.04821 0.0540139 4.17271 0.00244141 4.30254 0.00244141C4.43236 0.00244141 4.55687 0.0540139 4.64866 0.145813C4.74046 0.237612 4.79204 0.362118 4.79204 0.491941V0.991941H9.49204V0.491941C9.49204 0.362118 9.54361 0.237612 9.63541 0.145813C9.72721 0.0540139 9.85171 0.00244141 9.98154 0.00244141C10.1114 0.00244141 10.2359 0.0540139 10.3277 0.145813C10.4195 0.237612 10.471 0.362118 10.471 0.491941V0.991941H10.957C11.6101 0.99749 12.2343 1.26178 12.6929 1.72685C13.1514 2.19193 13.4068 2.81985 13.403 3.47294V9.42694C13.4068 10.08 13.1514 10.7079 12.6929 11.173C12.2343 11.6381 11.6101 11.9024 10.957 11.9079H3.32404C2.67096 11.9024 2.04673 11.6381 1.58822 11.173C1.1297 10.7079 0.874307 10.08 0.878036 9.42694V3.47294C0.874307 2.81985 1.1297 2.19193 1.58822 1.72685C2.04673 1.26178 2.67096 0.99749 3.32404 0.991941ZM1.85604 9.42594C1.85391 9.81778 2.00725 10.1945 2.28244 10.4734C2.55763 10.7523 2.93221 10.9108 3.32404 10.9139H10.957C11.3487 10.9105 11.723 10.752 11.998 10.4731C12.273 10.1941 12.4262 9.8176 12.424 9.42594V3.47294C12.4262 3.08111 12.2728 2.70442 11.9976 2.42548C11.7224 2.14654 11.3479 1.98811 10.956 1.98494H3.32304C2.93121 1.98811 2.55663 2.14654 2.28144 2.42548C2.00625 2.70442 1.85291 3.08111 1.85504 3.47294L1.85604 9.42594Z" fill="#2D2DB2"/>
<path d="M6.62694 4.98405H7.65494C7.79126 4.98405 7.92201 4.92991 8.0184 4.83351C8.1148 4.73712 8.16895 4.60638 8.16895 4.47006C8.16895 4.33374 8.1148 4.20299 8.0184 4.1066C7.92201 4.0102 7.79126 3.95605 7.65494 3.95605H6.62694C6.49062 3.95605 6.35988 4.0102 6.26349 4.1066C6.1671 4.20299 6.11295 4.33374 6.11295 4.47006C6.11295 4.60638 6.1671 4.73712 6.26349 4.83351C6.35988 4.92991 6.49062 4.98405 6.62694 4.98405Z" fill="#2D2DB2"/>
<path d="M3.1311 4.89372H4.15909C4.29541 4.89372 4.42616 4.83957 4.52255 4.74318C4.61895 4.64679 4.6731 4.51605 4.6731 4.37973C4.6731 4.24341 4.61895 4.11266 4.52255 4.01627C4.42616 3.91987 4.29541 3.86572 4.15909 3.86572H3.1311C2.99478 3.86572 2.86403 3.91987 2.76764 4.01627C2.67125 4.11266 2.6171 4.24341 2.6171 4.37973C2.6171 4.51605 2.67125 4.64679 2.76764 4.74318C2.86403 4.83957 2.99478 4.89372 3.1311 4.89372Z" fill="#2D2DB2"/>
<path d="M10.123 6.95087H11.151C11.2874 6.95087 11.4181 6.89669 11.5145 6.80029C11.6109 6.7039 11.665 6.57318 11.665 6.43686C11.665 6.30054 11.6109 6.16979 11.5145 6.07339C11.4181 5.977 11.2874 5.92285 11.151 5.92285H10.123C9.98672 5.92285 9.85598 5.977 9.75958 6.07339C9.66319 6.16979 9.60904 6.30054 9.60904 6.43686C9.60904 6.57318 9.66319 6.7039 9.75958 6.80029C9.85598 6.89669 9.98672 6.95087 10.123 6.95087Z" fill="#2D2DB2"/>
<path d="M6.62694 6.95087H7.65494C7.79126 6.95087 7.92201 6.89669 8.0184 6.80029C8.1148 6.7039 8.16895 6.57318 8.16895 6.43686C8.16895 6.30054 8.1148 6.16979 8.0184 6.07339C7.92201 5.977 7.79126 5.92285 7.65494 5.92285H6.62694C6.49062 5.92285 6.35988 5.977 6.26349 6.07339C6.1671 6.16979 6.11295 6.30054 6.11295 6.43686C6.11295 6.57318 6.1671 6.7039 6.26349 6.80029C6.35988 6.89669 6.49062 6.95087 6.62694 6.95087Z" fill="#2D2DB2"/>
<path d="M3.1311 6.95087H4.15909C4.29541 6.95087 4.42616 6.89669 4.52255 6.80029C4.61895 6.7039 4.6731 6.57318 4.6731 6.43686C4.6731 6.30054 4.61895 6.16979 4.52255 6.07339C4.42616 5.977 4.29541 5.92285 4.15909 5.92285H3.1311C2.99478 5.92285 2.86403 5.977 2.76764 6.07339C2.67125 6.16979 2.6171 6.30054 2.6171 6.43686C2.6171 6.57318 2.67125 6.7039 2.76764 6.80029C2.86403 6.89669 2.99478 6.95087 3.1311 6.95087Z" fill="#2D2DB2"/>
<path d="M10.123 9.00702H11.151C11.2874 9.00702 11.4181 8.95284 11.5145 8.85645C11.6109 8.76005 11.665 8.62933 11.665 8.49301C11.665 8.35669 11.6109 8.22594 11.5145 8.12955C11.4181 8.03315 11.2874 7.979 11.151 7.979H10.123C9.98672 7.979 9.85598 8.03315 9.75958 8.12955C9.66319 8.22594 9.60904 8.35669 9.60904 8.49301C9.60904 8.62933 9.66319 8.76005 9.75958 8.85645C9.85598 8.95284 9.98672 9.00702 10.123 9.00702Z" fill="#2D2DB2"/>
<path d="M6.62694 9.00702H7.65494C7.79126 9.00702 7.92201 8.95284 8.0184 8.85645C8.1148 8.76005 8.16895 8.62933 8.16895 8.49301C8.16895 8.35669 8.1148 8.22594 8.0184 8.12955C7.92201 8.03315 7.79126 7.979 7.65494 7.979H6.62694C6.49062 7.979 6.35988 8.03315 6.26349 8.12955C6.1671 8.22594 6.11295 8.35669 6.11295 8.49301C6.11295 8.62933 6.1671 8.76005 6.26349 8.85645C6.35988 8.95284 6.49062 9.00702 6.62694 9.00702Z" fill="#2D2DB2"/>
</svg>
