<svg width="23" height="24" viewBox="0 0 23 24" fill="none" xmlns="http://www.w3.org/2000/svg">
<path d="M19.7564 23.5949H16.2179C15.9843 23.5918 15.761 23.4977 15.5958 23.3324C15.4306 23.1672 15.3364 22.944 15.3333 22.7103V21.2359H13.859C13.6253 21.2329 13.4021 21.1387 13.2368 20.9735C13.0716 20.8082 12.9774 20.585 12.9744 20.3513V16.8129C12.9774 16.5792 13.0716 16.356 13.2368 16.1908C13.4021 16.0255 13.6253 15.9313 13.859 15.9283H15.3333V14.4539C15.3364 14.2203 15.4306 13.997 15.5958 13.8318C15.761 13.6666 15.9843 13.5724 16.2179 13.5693H19.7564C19.99 13.5724 20.2133 13.6666 20.3785 13.8318C20.5437 13.997 20.6379 14.2203 20.641 14.4539V15.9283H22.1153C22.349 15.9313 22.5722 16.0255 22.7375 16.1908C22.9027 16.356 22.9969 16.5792 22.9999 16.8129V20.3513C22.9969 20.585 22.9027 20.8082 22.7375 20.9735C22.5722 21.1387 22.349 21.2329 22.1153 21.2359H20.641V22.7103C20.6379 22.944 20.5437 23.1672 20.3785 23.3324C20.2133 23.4977 19.99 23.5918 19.7564 23.5949ZM17.1025 21.8257H18.8718V20.3513C18.8748 20.1177 18.969 19.8944 19.1342 19.7292C19.2995 19.564 19.5227 19.4698 19.7564 19.4667H21.2307V17.6975H19.7564C19.5227 17.6945 19.2995 17.6003 19.1342 17.435C18.969 17.2698 18.8748 17.0466 18.8718 16.8129V15.3386H17.1025V16.8129C17.0995 17.0466 17.0053 17.2698 16.8401 17.435C16.6748 17.6003 16.4516 17.6945 16.2179 17.6975H14.7436V19.4667H16.2179C16.4516 19.4698 16.6748 19.564 16.8401 19.7292C17.0053 19.8944 17.0995 20.1177 17.1025 20.3513V21.8257Z" fill="#FF508B"/>
<path d="M16.2179 7.08088C15.9842 7.07783 15.761 6.98365 15.5957 6.81841C15.4305 6.65317 15.3363 6.42994 15.3333 6.19627V1.47836C15.3333 1.24375 15.4265 1.01874 15.5923 0.852846C15.7582 0.686949 15.9832 0.59375 16.2179 0.59375C16.4525 0.59375 16.6775 0.686949 16.8434 0.852846C17.0093 1.01874 17.1025 1.24375 17.1025 1.47836V6.19627C17.0994 6.42994 17.0052 6.65317 16.84 6.81841C16.6748 6.98365 16.4515 7.07783 16.2179 7.08088Z" fill="#FF508B"/>
<path d="M5.60263 7.08088C5.36896 7.07783 5.14573 6.98365 4.98049 6.81841C4.81525 6.65317 4.72107 6.42994 4.71802 6.19627V1.47836C4.71802 1.24375 4.81122 1.01874 4.97711 0.852846C5.14301 0.686949 5.36801 0.59375 5.60263 0.59375C5.83724 0.59375 6.06224 0.686949 6.22814 0.852846C6.39404 1.01874 6.48724 1.24375 6.48724 1.47836V6.19627C6.48418 6.42994 6.39 6.65317 6.22476 6.81841C6.05952 6.98365 5.83629 7.07783 5.60263 7.08088Z" fill="#FF508B"/>
<path d="M11.4999 23.594H2.06409C1.51761 23.5909 0.994401 23.3724 0.607979 22.986C0.221556 22.5996 0.00309625 22.0764 0 21.5299V5.01721C0.00309625 4.47074 0.221556 3.94753 0.607979 3.5611C0.994401 3.17468 1.51761 2.95622 2.06409 2.95312H19.7563C20.3027 2.95622 20.826 3.17468 21.2124 3.5611C21.5988 3.94753 21.8173 4.47074 21.8204 5.01721V10.9146C21.8204 11.1492 21.7272 11.3742 21.5613 11.5401C21.3954 11.706 21.1704 11.7992 20.9357 11.7992C20.7011 11.7992 20.4761 11.706 20.3102 11.5401C20.1443 11.3742 20.0511 11.1492 20.0511 10.9146V5.01721C20.0511 4.93901 20.0201 4.86401 19.9648 4.80871C19.9095 4.75341 19.8345 4.72234 19.7563 4.72234H2.06409C1.98588 4.72234 1.91088 4.75341 1.85558 4.80871C1.80028 4.86401 1.76922 4.93901 1.76922 5.01721V21.5299C1.76922 21.6081 1.80028 21.6831 1.85558 21.7384C1.91088 21.7937 1.98588 21.8248 2.06409 21.8248H11.4999C11.7345 21.8248 11.9595 21.918 12.1254 22.0839C12.2913 22.2498 12.3845 22.4748 12.3845 22.7094C12.3845 22.944 12.2913 23.169 12.1254 23.3349C11.9595 23.5008 11.7345 23.594 11.4999 23.594Z" fill="#FF508B"/>
<path d="M12.6795 11.7995H5.60263C5.36801 11.7995 5.14301 11.7063 4.97711 11.5404C4.81122 11.3745 4.71802 11.1495 4.71802 10.9149C4.71802 10.6803 4.81122 10.4553 4.97711 10.2894C5.14301 10.1235 5.36801 10.0303 5.60263 10.0303H12.6795C12.9141 10.0303 13.1391 10.1235 13.305 10.2894C13.4709 10.4553 13.5641 10.6803 13.5641 10.9149C13.5641 11.1495 13.4709 11.3745 13.305 11.5404C13.1391 11.7063 12.9141 11.7995 12.6795 11.7995Z" fill="#FF508B"/>
<path d="M10.3205 15.3386H5.60263C5.36801 15.3386 5.14301 15.2454 4.97711 15.0795C4.81122 14.9136 4.71802 14.6886 4.71802 14.4539C4.71802 14.2193 4.81122 13.9943 4.97711 13.8284C5.14301 13.6625 5.36801 13.5693 5.60263 13.5693H10.3205C10.5552 13.5693 10.7802 13.6625 10.9461 13.8284C11.1119 13.9943 11.2052 14.2193 11.2052 14.4539C11.2052 14.6886 11.1119 14.9136 10.9461 15.0795C10.7802 15.2454 10.5552 15.3386 10.3205 15.3386Z" fill="#FF508B"/>
</svg>
