<svg width="16" height="18" viewBox="0 0 16 18" fill="none" xmlns="http://www.w3.org/2000/svg">
<path d="M8.59163 15.3261H1.86047C1.24502 15.3261 0.744186 14.8253 0.744186 14.2098V5.65166H13.7674V9.62934C13.7674 9.83511 13.9338 10.0014 14.1395 10.0014C14.3453 10.0014 14.5116 9.83511 14.5116 9.62934V3.7912C14.5116 2.76534 13.677 1.93073 12.6512 1.93073H11.5349C11.5349 1.31529 11.0341 0.814453 10.4186 0.814453C9.80317 0.814453 9.30233 1.31529 9.30233 1.93073H5.20931C5.20931 1.31529 4.70847 0.814453 4.09303 0.814453C3.47758 0.814453 2.97675 1.31529 2.97675 1.93073H1.86047C0.834605 1.93073 0 2.76534 0 3.7912V14.2098C0 15.2357 0.834605 16.0703 1.86047 16.0703H8.59163C8.7974 16.0703 8.96373 15.9039 8.96373 15.6982C8.96373 15.4924 8.7974 15.3261 8.59163 15.3261ZM10.0465 1.93073C10.0465 1.72571 10.2132 1.55864 10.4186 1.55864C10.624 1.55864 10.7907 1.72571 10.7907 1.93073V2.67492C10.7907 2.87994 10.624 3.04701 10.4186 3.04701C10.2132 3.04701 10.0465 2.87994 10.0465 2.67492V1.93073ZM3.72093 1.93073C3.72093 1.72571 3.88763 1.55864 4.09303 1.55864C4.29842 1.55864 4.46512 1.72571 4.46512 1.93073V2.67492C4.46512 2.87994 4.29842 3.04701 4.09303 3.04701C3.88763 3.04701 3.72093 2.87994 3.72093 2.67492V1.93073ZM0.744186 3.7912C0.744186 3.17576 1.24502 2.67492 1.86047 2.67492H2.97675C2.97675 3.29036 3.47758 3.7912 4.09303 3.7912C4.70847 3.7912 5.20931 3.29036 5.20931 2.67492H9.30233C9.30233 3.29036 9.80317 3.7912 10.4186 3.7912C11.0341 3.7912 11.5349 3.29036 11.5349 2.67492H12.6512C13.2666 2.67492 13.7674 3.17576 13.7674 3.7912V4.90748H0.744186V3.7912Z" fill="#FF508B"/>
<path d="M4.46525 7.88286C4.46525 7.47244 4.13148 7.13867 3.72106 7.13867H2.60478C2.19436 7.13867 1.8606 7.47244 1.8606 7.88286V8.99914C1.8606 9.40956 2.19436 9.74332 2.60478 9.74332H3.72106C4.13148 9.74332 4.46525 9.40956 4.46525 8.99914V7.88286ZM2.60478 8.99914V7.88286H3.72106V8.99914H2.60478Z" fill="#FF508B"/>
<path d="M8.55802 7.88286C8.55802 7.47244 8.22425 7.13867 7.81384 7.13867H6.69756C6.28714 7.13867 5.95337 7.47244 5.95337 7.88286V8.99914C5.95337 9.40956 6.28714 9.74332 6.69756 9.74332H7.81384C8.22425 9.74332 8.55802 9.40956 8.55802 8.99914V7.88286ZM6.69756 8.99914V7.88286H7.81384V8.99914H6.69756Z" fill="#FF508B"/>
<path d="M10.7908 7.13867C10.3804 7.13867 10.0466 7.47244 10.0466 7.88286V8.99914C10.0466 9.40956 10.3804 9.74332 10.7908 9.74332H11.9071C12.3175 9.74332 12.6513 9.40956 12.6513 8.99914V7.88286C12.6513 7.47244 12.3175 7.13867 11.9071 7.13867H10.7908ZM10.7908 8.99914V7.88286H11.9071V8.99914H10.7908Z" fill="#FF508B"/>
<path d="M3.72106 11.2324H2.60478C2.19436 11.2324 1.8606 11.5662 1.8606 11.9766V13.0929C1.8606 13.5033 2.19436 13.8371 2.60478 13.8371H3.72106C4.13148 13.8371 4.46525 13.5033 4.46525 13.0929V11.9766C4.46525 11.5662 4.13148 11.2324 3.72106 11.2324ZM2.60478 13.0929V11.9766H3.72106L3.72181 13.0929H2.60478Z" fill="#FF508B"/>
<path d="M7.81384 11.2324H6.69756C6.28714 11.2324 5.95337 11.5662 5.95337 11.9766V13.0929C5.95337 13.5033 6.28714 13.8371 6.69756 13.8371H7.81384C8.22425 13.8371 8.55802 13.5033 8.55802 13.0929V11.9766C8.55802 11.5662 8.22425 11.2324 7.81384 11.2324ZM6.69756 13.0929V11.9766H7.81384L7.81458 13.0929H6.69756Z" fill="#FF508B"/>
<path d="M12.6511 10.4883C10.8044 10.4883 9.30225 11.9904 9.30225 13.8371C9.30225 15.6838 10.8044 17.186 12.6511 17.186C14.4978 17.186 15.9999 15.6838 15.9999 13.8371C15.9999 11.9904 14.4978 10.4883 12.6511 10.4883ZM12.6511 16.4418C11.2152 16.4418 10.0464 15.273 10.0464 13.8371C10.0464 12.4012 11.2152 11.2325 12.6511 11.2325C14.087 11.2325 15.2557 12.4012 15.2557 13.8371C15.2557 15.273 14.087 16.4418 12.6511 16.4418Z" fill="#FF508B"/>
<path d="M13.5043 12.8298L12.279 14.0551L11.7979 13.574C11.6524 13.4285 11.4172 13.4285 11.2717 13.574C11.1262 13.7195 11.1262 13.9547 11.2717 14.1001L12.0159 14.8443C12.0885 14.9169 12.1837 14.9534 12.279 14.9534C12.3742 14.9534 12.4695 14.9169 12.542 14.8443L14.0304 13.356C14.1759 13.2105 14.1759 12.9753 14.0304 12.8298C13.8849 12.6843 13.6498 12.6843 13.5043 12.8298Z" fill="#FF508B"/>
</svg>
