<svg width="15" height="18" viewBox="0 0 15 18" fill="none" xmlns="http://www.w3.org/2000/svg">
<path fill-rule="evenodd" clip-rule="evenodd" d="M11.7047 13.6239H4.60808C4.0703 13.6239 4.0703 12.8014 4.60808 12.8014H11.7047C12.2425 12.8014 12.2425 13.6239 11.7047 13.6239ZM12.8752 15.9543H12.2425V16.587C12.2425 17.3673 11.6098 18 10.8401 18H1.41301C0.632689 18 0 17.3673 0 16.587V3.44815C0 2.66784 0.632689 2.03515 1.41301 2.03515H2.03515V1.41301C2.03515 0.632689 2.66784 0 3.44815 0H9.88049C10.0598 0 10.1652 0.105448 10.1652 0.105448L10.1757 0.115993L14.1617 4.10193C14.2355 4.17575 14.2882 4.2812 14.2777 4.39719V14.5518C14.2777 15.3216 13.645 15.9543 12.8752 15.9543ZM11.42 15.9543H3.44815C2.66784 15.9543 2.03515 15.3216 2.03515 14.5518V2.85764H1.41301C1.08612 2.85764 0.822496 3.12127 0.822496 3.44815V16.587C0.822496 16.9139 1.08612 17.1775 1.41301 17.1775H10.8401C11.1564 17.1775 11.42 16.9139 11.42 16.587V15.9543ZM9.47979 0.822496H3.44815C3.12127 0.822496 2.85765 1.08612 2.85765 1.41301V14.5518C2.85765 14.8682 3.12127 15.1318 3.44815 15.1318H12.8752C13.1916 15.1318 13.4552 14.8682 13.4552 14.5518V4.80844H9.89104C9.65905 4.80844 9.47979 4.61863 9.47979 4.39719V0.822496ZM10.3023 3.98594H12.8752L10.3023 1.40246V3.98594ZM8.31986 4.93497H4.60808C4.0703 4.93497 4.0703 4.11248 4.60808 4.11248H8.31986C8.85765 4.11248 8.85765 4.93497 8.31986 4.93497ZM6.78032 2.76274H4.60808C4.0703 2.76274 4.0703 1.94025 4.60808 1.94025H6.78032C7.3181 1.94025 7.3181 2.76274 6.78032 2.76274ZM11.7047 7.10721H4.60808C4.0703 7.10721 4.0703 6.28471 4.60808 6.28471H11.7047C12.2425 6.28471 12.2425 7.10721 11.7047 7.10721ZM11.7047 9.27944H4.60808C4.0703 9.27944 4.0703 8.45694 4.60808 8.45694H11.7047C12.2425 8.45694 12.2425 9.27944 11.7047 9.27944ZM11.7047 11.4517H4.60808C4.0703 11.4517 4.0703 10.6292 4.60808 10.6292H11.7047C12.2425 10.6292 12.2425 11.4517 11.7047 11.4517Z" fill="#FF508B"/>
</svg>
