<svg width="16" height="14" viewBox="0 0 16 14" fill="none" xmlns="http://www.w3.org/2000/svg">
<path d="M9 7.47168H3C2.5176 7.47168 2.125 7.07908 2.125 6.59668V5.59668C2.125 5.11428 2.5176 4.72168 3 4.72168H9C9.4824 4.72168 9.875 5.11428 9.875 5.59668V6.59668C9.875 7.07908 9.4824 7.47168 9 7.47168ZM3 5.47168C2.93115 5.47168 2.875 5.52783 2.875 5.59668V6.59668C2.875 6.66553 2.93115 6.72168 3 6.72168H9C9.06885 6.72168 9.125 6.66553 9.125 6.59668V5.59668C9.125 5.52783 9.06885 5.47168 9 5.47168H3Z" fill="white"/>
<path d="M8.5 11.4717H3.5C3.0176 11.4717 2.625 11.0791 2.625 10.5967V7.09668C2.625 6.88963 2.79295 6.72168 3 6.72168H9C9.20705 6.72168 9.375 6.88963 9.375 7.09668V10.5967C9.375 11.0791 8.9824 11.4717 8.5 11.4717ZM3.375 7.47168V10.5967C3.375 10.6655 3.43115 10.7217 3.5 10.7217H8.5C8.56885 10.7217 8.625 10.6655 8.625 10.5967V7.47168H3.375Z" fill="white"/>
<path d="M7 5.47168H5C4.79295 5.47168 4.625 5.30373 4.625 5.09668V3.09668C4.625 2.88963 4.79295 2.72168 5 2.72168H7C7.20705 2.72168 7.375 2.88963 7.375 3.09668V5.09668C7.375 5.30373 7.20705 5.47168 7 5.47168ZM5.375 4.72168H6.625V3.47168H5.375V4.72168Z" fill="white"/>
<path d="M7.9038 5.47157H7C6.79295 5.47157 6.625 5.30362 6.625 5.09657V3.09657C6.625 2.92447 6.74195 2.77457 6.90895 2.73282L7.5469 2.57317C7.98975 2.46307 8.4502 2.55997 8.80935 2.84097C9.16875 3.12172 9.375 3.54432 9.375 4.00037C9.375 4.81167 8.7151 5.47157 7.9038 5.47157ZM7.375 4.72157H7.9038C8.3015 4.72157 8.625 4.39807 8.625 4.00037C8.625 3.77672 8.52395 3.56972 8.34765 3.43202C8.1714 3.29407 7.94605 3.24597 7.72875 3.30067L7.375 3.38927V4.72157Z" fill="white"/>
<path d="M5 5.47159H4.0962C3.2849 5.47159 2.625 4.81169 2.625 4.00039C2.625 3.54434 2.8313 3.12174 3.19065 2.84099C3.55005 2.55999 4.01045 2.46304 4.45285 2.57319L5.09105 2.73284C5.25805 2.77459 5.375 2.92449 5.375 3.09659V5.09659C5.375 5.30364 5.20705 5.47159 5 5.47159ZM4.09475 3.27894C3.93605 3.27894 3.78105 3.33144 3.65235 3.43204C3.4761 3.56974 3.375 3.77679 3.375 4.00039C3.375 4.39809 3.6985 4.72159 4.0962 4.72159H4.625V3.38929L4.271 3.30069C4.2124 3.28604 4.1533 3.27894 4.09475 3.27894Z" fill="white"/>
<path d="M14.5 13.375H1.5C0.7417 13.375 0.125 12.7583 0.125 12V2C0.125 1.2417 0.7417 0.625 1.5 0.625H14.5C15.2583 0.625 15.875 1.2417 15.875 2V12C15.875 12.7583 15.2583 13.375 14.5 13.375ZM1.5 1.375C1.15525 1.375 0.875 1.65525 0.875 2V12C0.875 12.3448 1.15525 12.625 1.5 12.625H14.5C14.8448 12.625 15.125 12.3448 15.125 12V2C15.125 1.65525 14.8448 1.375 14.5 1.375H1.5Z" fill="white"/>
<path d="M13.5 3.375H11C10.793 3.375 10.625 3.20705 10.625 3C10.625 2.79295 10.793 2.625 11 2.625H13.5C13.7071 2.625 13.875 2.79295 13.875 3C13.875 3.20705 13.7071 3.375 13.5 3.375Z" fill="white"/>
<path d="M13.5 5.375H11.5C11.293 5.375 11.125 5.20705 11.125 5C11.125 4.79295 11.293 4.625 11.5 4.625H13.5C13.7071 4.625 13.875 4.79295 13.875 5C13.875 5.20705 13.7071 5.375 13.5 5.375Z" fill="white"/>
<path d="M13.5 7.375H11.5C11.293 7.375 11.125 7.20705 11.125 7C11.125 6.79295 11.293 6.625 11.5 6.625H13.5C13.7071 6.625 13.875 6.79295 13.875 7C13.875 7.20705 13.7071 7.375 13.5 7.375Z" fill="white"/>
<path d="M13.5 9.375H11C10.793 9.375 10.625 9.20705 10.625 9C10.625 8.79295 10.793 8.625 11 8.625H13.5C13.7071 8.625 13.875 8.79295 13.875 9C13.875 9.20705 13.7071 9.375 13.5 9.375Z" fill="white"/>
<path d="M13.5 11.375H11C10.793 11.375 10.625 11.207 10.625 11C10.625 10.793 10.793 10.625 11 10.625H13.5C13.7071 10.625 13.875 10.793 13.875 11C13.875 11.207 13.7071 11.375 13.5 11.375Z" fill="white"/>
</svg>
