<svg width="16" height="16" viewBox="0 0 16 16" fill="none" xmlns="http://www.w3.org/2000/svg">
<path fill-rule="evenodd" clip-rule="evenodd" d="M11.362 0H4.13164C3.03586 0 1.98496 0.435297 1.21013 1.21013C0.435297 1.98496 0 3.03586 0 4.13164V11.362C0 12.4578 0.435297 13.5087 1.21013 14.2835C1.98496 15.0584 3.03586 15.4937 4.13164 15.4937H11.362C11.499 15.4937 11.6303 15.4392 11.7272 15.3424C11.8241 15.2455 11.8785 15.1142 11.8785 14.9772C11.8785 14.8402 11.8241 14.7089 11.7272 14.612C11.6303 14.5152 11.499 14.4607 11.362 14.4607H4.13164C3.30981 14.4607 2.52163 14.1343 1.94051 13.5531C1.35938 12.972 1.03291 12.1838 1.03291 11.362V4.13164C1.03291 3.30981 1.35938 2.52163 1.94051 1.94051C2.52163 1.35938 3.30981 1.03291 4.13164 1.03291H11.362C12.1838 1.03291 12.972 1.35938 13.5531 1.94051C14.1343 2.52163 14.4607 3.30981 14.4607 4.13164V11.362C14.4607 11.499 14.5152 11.6303 14.612 11.7272C14.7089 11.8241 14.8402 11.8785 14.9772 11.8785C15.1142 11.8785 15.2455 11.8241 15.3424 11.7272C15.4392 11.6303 15.4937 11.499 15.4937 11.362V4.13164C15.4937 3.03586 15.0584 1.98496 14.2835 1.21013C13.5087 0.435297 12.4578 0 11.362 0Z" fill="#FF508B"/>
<path fill-rule="evenodd" clip-rule="evenodd" d="M10.8368 10.1055C11.5947 9.16073 11.9618 7.96142 11.8626 6.75425C11.7634 5.54708 11.2054 4.4238 10.3034 3.6154C9.40145 2.80699 8.224 2.37492 7.01321 2.40802C5.80242 2.44112 4.65033 2.93689 3.79385 3.79336C2.93737 4.64984 2.44161 5.80193 2.40851 7.01272C2.37541 8.22351 2.80748 9.40096 3.61588 10.303C4.42429 11.205 5.54757 11.7629 6.75474 11.8621C7.96191 11.9613 9.16121 11.5942 10.106 10.8363L14.6121 15.3419C14.6597 15.3912 14.7167 15.4306 14.7797 15.4576C14.8427 15.4847 14.9105 15.4989 14.9791 15.4995C15.0477 15.5001 15.1157 15.4871 15.1791 15.4611C15.2426 15.4351 15.3003 15.3968 15.3488 15.3483C15.3973 15.2998 15.4356 15.2421 15.4616 15.1787C15.4875 15.1152 15.5006 15.0472 15.5 14.9786C15.4994 14.91 15.4852 14.8423 15.4581 14.7793C15.431 14.7162 15.3917 14.6593 15.3424 14.6116L10.8368 10.1055ZM7.14416 10.8451C6.41209 10.8451 5.69645 10.628 5.08775 10.2213C4.47906 9.81458 4.00463 9.2365 3.72448 8.56015C3.44433 7.8838 3.37103 7.13957 3.51385 6.42156C3.65667 5.70355 4.0092 5.04402 4.52685 4.52636C5.04451 4.00871 5.70404 3.65618 6.42205 3.51336C7.14005 3.37054 7.88429 3.44384 8.56064 3.72399C9.23699 4.00415 9.81507 4.47857 10.2218 5.08726C10.6285 5.69596 10.8456 6.4116 10.8456 7.14367C10.8452 8.12523 10.4551 9.06646 9.76101 9.76053C9.06695 10.4546 8.12572 10.8447 7.14416 10.8451Z" fill="#FF508B"/>
</svg>
