<svg width="16" height="16" viewBox="0 0 16 16" fill="none" xmlns="http://www.w3.org/2000/svg">
<circle cx="8" cy="8" r="8" fill="#EE2E3A"/>
<path d="M4.01562 12.0148H5.07192V9.59722H4.01562V12.0148ZM5.52045 10.115V11.4029C5.96257 11.4529 6.61198 11.6608 7.19315 11.8405C8.09214 12.1193 8.4029 12.0004 9.02861 11.8505C9.25287 11.796 9.87056 11.6887 9.90677 11.6569L12.4442 9.42294C12.5313 9.3076 12.5624 9.21501 12.5505 9.15126C12.5422 9.1048 12.5025 9.08494 12.4544 9.07757C12.3256 9.05674 12.1565 9.11473 11.946 9.27268V9.27396L10.3604 10.4417C10.2861 10.6407 10.1624 10.7804 9.98975 10.8621C9.81161 10.9457 9.59119 10.9582 9.32784 10.9002C8.72296 10.7804 8.11104 10.7903 7.61157 11.0947C7.50616 11.1591 7.36808 11.1264 7.30368 11.021C7.23929 10.9146 7.27293 10.7775 7.37801 10.7131C7.97936 10.3472 8.69477 10.3181 9.41306 10.4606C9.58479 10.4969 9.70365 10.5017 9.79912 10.4571C9.86191 10.427 9.90997 10.3681 9.94265 10.2809C9.90901 10.0438 9.8036 9.88845 9.55115 9.80675C9.20962 9.69686 8.63294 9.68949 7.70223 9.77119C7.49078 9.78945 7.47989 9.80291 7.3008 9.86923C6.87213 10.0365 6.54342 10.1409 6.23201 10.1736C5.9882 10.2002 5.76298 10.1822 5.52045 10.115ZM7.45106 9.35309C7.52186 9.33932 7.5901 9.33131 7.66251 9.3249C8.65344 9.23776 9.28363 9.25057 9.68763 9.38129C10.0237 9.49022 10.2124 9.66835 10.3114 9.92177L10.8961 9.49118V9.09263C10.8961 8.50793 10.5382 7.96553 9.99263 7.80021C9.50757 8.16256 8.83926 8.16256 8.35325 7.80021C7.80828 7.96553 7.45042 8.50761 7.45042 9.09263V9.35309H7.45106ZM8.97414 12.3237C8.39201 12.4681 8.00884 12.5627 7.06147 12.2682C6.53029 12.1039 5.91355 11.9078 5.52045 11.8533C5.52045 12.0424 5.54223 12.191 5.39518 12.3394C5.31797 12.4153 5.21256 12.4633 5.09723 12.4633H3.98999C3.75836 12.4633 3.56677 12.2718 3.56677 12.0392V9.57256C3.56677 9.33996 3.7574 9.14837 3.98999 9.14837H5.09723C5.32886 9.14837 5.52045 9.33996 5.52045 9.57256V9.64624C5.75561 9.72698 5.96193 9.75261 6.18427 9.7289C6.42488 9.70167 6.66292 9.63182 7.00252 9.50367C7.00252 9.26018 6.98971 8.99043 7.03264 8.75719L6.04555 7.67911C5.07031 6.61481 5.20455 4.84824 6.35247 3.97552C6.76929 3.6577 7.26075 3.51417 7.74388 3.53884C8.17992 3.56159 8.61019 3.7205 8.97446 4.01204L9.17374 4.20203L9.42267 4.06939C10.3136 3.4501 11.4814 3.58722 12.2298 4.40355C13.099 5.35155 13.099 6.87816 12.2298 7.82649L11.3244 8.81454C11.3437 8.94429 11.3453 9.03143 11.3453 9.16055L11.6814 8.91257C12.061 8.62199 12.5387 8.51466 12.8273 8.77545C12.9126 8.8517 12.969 8.95262 12.9907 9.07052C13.0244 9.25474 12.968 9.47932 12.7902 9.70904C12.7803 9.72185 12.7694 9.73435 12.7565 9.74524L10.2028 11.993C10.1102 12.0747 9.71422 12.1647 9.42267 12.2247L8.97414 12.3237ZM9.17406 5.32528C10.2656 5.32528 10.9169 6.54144 10.3249 7.44844C10.7036 7.62176 11.0031 7.93445 11.1768 8.31474L11.9005 7.52469C12.6505 6.70644 12.6069 5.34066 11.7797 4.58488C11.1124 3.97456 10.1487 3.98193 9.48483 4.59033C9.37846 4.68644 9.32944 4.7848 9.19873 4.7848C9.11895 4.7848 9.04783 4.74315 9.0081 4.6794C8.93986 4.59129 8.86649 4.51152 8.78832 4.44039C8.07259 3.78393 7.02559 3.84641 6.37458 4.55669C5.6643 5.33233 5.6643 6.60199 6.37458 7.37731L7.19283 8.26989C7.36904 7.90946 7.66058 7.61407 8.0239 7.44812C7.43119 6.54112 8.08156 5.32528 9.17406 5.32528ZM9.82795 6.04453C9.24678 5.46433 8.24944 5.8773 8.24944 6.69843C8.24944 7.51956 9.24646 7.93349 9.82795 7.35232C10.1884 6.99158 10.1884 6.40592 9.82795 6.04453Z" fill="white"/>
</svg>
