<svg width="14" height="14" viewBox="0 0 14 14" fill="none" xmlns="http://www.w3.org/2000/svg">
<path d="M13.1075 0.891404C11.9175 -0.297135 9.98776 -0.297135 8.79775 0.891404L0.609483 9.06953C0.511634 9.16726 0.449983 9.29537 0.434698 9.43273L0.00381957 13.3066C-0.0392911 13.6943 0.288682 14.0219 0.676849 13.9788L4.55553 13.5484C4.69309 13.5332 4.82133 13.4716 4.91918 13.3738L11.4137 6.88745C11.4139 6.88725 11.4142 6.88708 11.4144 6.88685L13.1075 5.19584C13.7025 4.60157 14 3.8226 14 3.04364C14 2.26467 13.7025 1.4857 13.1075 0.891404ZM12.2455 4.33492L10.9834 5.59554L8.39752 3.0129L9.65967 1.75232C10.3736 1.03921 11.5315 1.03921 12.2455 1.75232C12.6025 2.10885 12.781 2.57623 12.781 3.04361C12.781 3.51102 12.6025 3.9784 12.2455 4.33492ZM4.20847 12.362L1.29943 12.6848L1.6226 9.77939L7.53559 3.87373L10.1215 6.4564L4.20847 12.362Z" fill="#FF508B"/>
<path d="M6.643 12.7832H6.03354C5.69694 12.7832 5.42407 13.0557 5.42407 13.3919C5.42407 13.7281 5.69694 14.0006 6.03354 14.0006H6.643C6.9796 14.0006 7.25246 13.7281 7.25246 13.3919C7.25246 13.0557 6.9796 12.7832 6.643 12.7832Z" fill="#FF508B"/>
<path d="M13.3472 12.7832H12.1283C11.7917 12.7832 11.5188 13.0557 11.5188 13.3919C11.5188 13.7281 11.7917 14.0006 12.1283 14.0006H13.3472C13.6838 14.0006 13.9567 13.7281 13.9567 13.3919C13.9567 13.0557 13.6838 12.7832 13.3472 12.7832Z" fill="#FF508B"/>
<path d="M10.2999 12.7832H9.0809C8.7443 12.7832 8.47144 13.0557 8.47144 13.3919C8.47144 13.7281 8.7443 14.0006 9.0809 14.0006H10.2999C10.6365 14.0006 10.9093 13.7281 10.9093 13.3919C10.9093 13.0557 10.6365 12.7832 10.2999 12.7832Z" fill="#FF508B"/>
</svg>
