<svg width="10" height="10" viewBox="0 0 10 10" fill="none" xmlns="http://www.w3.org/2000/svg">
<path d="M2.33331 3.66016C1.59694 3.66016 1 3.06321 1 2.32684C1 1.59044 1.59694 0.9935 2.33331 0.9935C3.06968 0.9935 3.66662 1.59044 3.66662 2.32684C3.66662 3.06321 3.06968 3.66016 2.33331 3.66016Z" stroke="#FF508B" stroke-miterlimit="10" stroke-linecap="round" stroke-linejoin="round"/>
<path d="M2.33331 8.99219C1.59694 8.99219 1 8.39524 1 7.65888C1 6.92248 1.59694 6.32553 2.33331 6.32553C3.06968 6.32553 3.66662 6.92248 3.66662 7.65888C3.66662 8.39524 3.06968 8.99219 2.33331 8.99219Z" stroke="#FF508B" stroke-miterlimit="10" stroke-linecap="round" stroke-linejoin="round"/>
<path d="M6.37866 0.996094H9.0001" stroke="#FF508B" stroke-miterlimit="10" stroke-linecap="round" stroke-linejoin="round"/>
<path d="M6.37866 3.66016H7.68936" stroke="#FF508B" stroke-miterlimit="10" stroke-linecap="round" stroke-linejoin="round"/>
<path d="M6.37866 6.32422H9.0001" stroke="#FF508B" stroke-miterlimit="10" stroke-linecap="round" stroke-linejoin="round"/>
<path d="M6.37866 8.99219H7.68936" stroke="#FF508B" stroke-miterlimit="10" stroke-linecap="round" stroke-linejoin="round"/>
</svg>
