<svg width="18" height="18" viewBox="0 0 18 18" fill="none" xmlns="http://www.w3.org/2000/svg">
<path d="M10.876 6.56727H6.70052C5.5475 6.56727 4.61279 5.63256 4.61279 4.47954V3.08773C4.61279 1.93471 5.5475 1 6.70052 1H10.876C12.029 1 12.9637 1.93471 12.9637 3.08773V4.47954C12.9637 5.63256 12.029 6.56727 10.876 6.56727Z" stroke="#FF508B" stroke-width="1.2" stroke-miterlimit="10" stroke-linecap="round" stroke-linejoin="round"/>
<path d="M8.78833 6.56836V11.8573" stroke="#FF508B" stroke-width="1.2" stroke-miterlimit="10" stroke-linecap="round" stroke-linejoin="round"/>
<path d="M2.95246 17.0154C3.496 16.4719 3.496 15.5906 2.95246 15.0471C2.40893 14.5036 1.52769 14.5036 0.984154 15.0471C0.440621 15.5906 0.440621 16.4719 0.984154 17.0154C1.52769 17.5589 2.40893 17.5589 2.95246 17.0154Z" fill="#FF508B"/>
<path d="M9.77216 17.0154C10.3157 16.4719 10.3157 15.5906 9.77216 15.0471C9.22863 14.5036 8.34739 14.5036 7.80386 15.0471C7.26032 15.5906 7.26032 16.4719 7.80386 17.0154C8.34739 17.5589 9.22863 17.5589 9.77216 17.0154Z" fill="#FF508B"/>
<path d="M16.5921 17.0154C17.1356 16.4719 17.1356 15.5906 16.5921 15.0471C16.0486 14.5036 15.1673 14.5036 14.6238 15.0471C14.0803 15.5906 14.0803 16.4719 14.6238 17.0154C15.1673 17.5589 16.0486 17.5589 16.5921 17.0154Z" fill="#FF508B"/>
<path d="M1.96838 11.8554V10.6028C1.96838 9.83409 2.59154 9.21094 3.3602 9.21094H14.2164C14.985 9.21094 15.6082 9.83409 15.6082 10.6028V11.8554" stroke="#FF508B" stroke-width="1.2" stroke-miterlimit="10" stroke-linecap="round" stroke-linejoin="round"/>
</svg>
