<svg width="13" height="14" viewBox="0 0 13 14" fill="none" xmlns="http://www.w3.org/2000/svg">
<mask id="mask0_1023_1964" style="mask-type:luminance" maskUnits="userSpaceOnUse" x="0" y="0" width="13" height="12">
<path fill-rule="evenodd" clip-rule="evenodd" d="M0.285645 0H12.3301V11.2964H0.285645V0Z" fill="white"/>
</mask>
<g mask="url(#mask0_1023_1964)">
<path fill-rule="evenodd" clip-rule="evenodd" d="M6.30699 0.976744C4.03118 0.976744 2.44495 2.75963 2.44495 4.35953C2.44495 5.7133 2.06923 6.33907 1.73713 6.89126C1.47081 7.3347 1.26048 7.68502 1.26048 8.44623C1.36923 9.67432 2.17992 10.3196 6.30699 10.3196C10.4113 10.3196 11.2474 9.64567 11.3555 8.40391C11.3535 7.68502 11.1432 7.3347 10.8769 6.89126C10.5448 6.33907 10.169 5.7133 10.169 4.35953C10.169 2.75963 8.58281 0.976744 6.30699 0.976744ZM6.30696 11.2964C3.26212 11.2964 0.510304 11.0815 0.285653 8.48791C0.2837 7.41479 0.611235 6.86912 0.900351 6.38856C1.19272 5.90149 1.46816 5.44242 1.46816 4.35953C1.46816 2.25433 3.41254 0 6.30696 0C9.20137 0 11.1457 2.25433 11.1457 4.35953C11.1457 5.44242 11.4212 5.90149 11.7136 6.38856C12.0027 6.86912 12.3302 7.41479 12.3302 8.44623C12.103 11.0815 9.35179 11.2964 6.30696 11.2964Z" fill="white"/>
</g>
<path fill-rule="evenodd" clip-rule="evenodd" d="M6.27524 13.9999H6.27394C5.54398 13.9993 4.8531 13.6776 4.32891 13.0935C4.14854 12.8936 4.16482 12.5843 4.36538 12.4046C4.56594 12.2236 4.87459 12.2399 5.05496 12.4411C5.39226 12.8168 5.82529 13.0232 6.27459 13.0232H6.27524C6.7265 13.0232 7.16147 12.8168 7.49943 12.4404C7.68045 12.2405 7.9891 12.2242 8.18901 12.4046C8.38956 12.585 8.40584 12.8943 8.22547 13.0942C7.69933 13.6783 7.00715 13.9999 6.27524 13.9999Z" fill="white"/>
</svg>
