<svg width="62" height="62" viewBox="0 0 62 62" fill="none" xmlns="http://www.w3.org/2000/svg">
<g clip-path="url(#clip0_4181_3768)">
<path d="M5.23912 47.0576H56.7608C59.2466 42.7184 60.6681 37.6912 60.6681 32.3318C60.6681 15.9465 47.3852 2.66357 30.9999 2.66357C14.6146 2.66357 1.33167 15.9465 1.33167 32.3318C1.33179 37.6912 2.75331 42.7184 5.23912 47.0576Z" fill="#F5F5FF"/>
<path d="M31.0025 43.2657C33.43 43.2657 35.7999 42.6178 37.8717 41.4072C37.9315 39.5664 37.9675 37.7617 37.9892 36.0056C37.5391 34.8374 37.3888 33.4574 37.3517 32.3811C36.7102 33.1284 36.0369 33.7535 35.3935 34.253C34.1399 35.2264 32.5932 35.7551 31 35.7551C29.4069 35.7551 27.86 35.2264 26.6066 34.253C25.9632 33.7535 25.2898 33.1283 24.6483 32.3811C24.6111 33.4619 24.4596 34.8489 24.0051 36.0202C24.0131 37.7746 24.0393 39.5657 24.0905 41.3829C26.1722 42.6097 28.5585 43.2657 31.0025 43.2657Z" fill="#FFFBFC"/>
<path d="M31.076 35.7536C31.0506 35.7538 31.0254 35.7551 31 35.7551C29.4069 35.7551 27.86 35.2264 26.6066 34.253C25.9632 33.7535 25.2898 33.1283 24.6483 32.3811C24.6111 33.4619 24.4596 34.8489 24.0051 36.0202C24.0131 37.7746 24.0393 39.5657 24.0905 41.3829C24.9262 41.8752 25.8115 42.274 26.7294 42.577C26.9137 42.5664 27.101 42.5445 27.2921 42.5076C30.7062 41.8477 31.1045 37.834 31.076 35.7536Z" fill="#D9D9D9"/>
<path d="M24.0839 41.1372C24.2627 47.7563 24.7783 54.7319 26.0178 61.5815C27.638 61.8554 29.302 62.0001 31 62.0001C32.6779 62.0001 34.3225 61.8586 35.9243 61.5909C37.1699 54.6922 37.6741 47.6949 37.8793 41.1608C35.8059 42.3743 33.4329 43.0236 31.0026 43.0236C28.556 43.0237 26.1672 42.3663 24.0839 41.1372Z" fill="#D9D9D9"/>
<path d="M31.0035 46.3253C33.3692 46.3253 35.6826 45.7372 37.7412 44.6344C37.7979 43.4644 37.8434 42.3053 37.8793 41.1607C35.8059 42.3742 33.4329 43.0235 31.0026 43.0235C28.556 43.0235 26.1672 42.3662 24.0839 41.137C24.1149 42.283 24.1563 43.4402 24.2094 44.6051C26.2821 45.7274 28.6164 46.3253 31.0035 46.3253Z" fill="#FFFBFC"/>
<path d="M52.3506 42.4278C51.9226 42.2226 51.4627 42.0472 50.9729 41.902L43.0836 38.8913C42.6573 38.7164 42.2271 38.5515 41.7917 38.3982C41.4483 38.8347 40.9494 39.4012 40.289 39.9964C39.6802 47.9107 37.6316 56.3176 36.1674 61.5505C44.9867 60.0014 52.4643 54.5577 56.7609 47.0575C55.861 45.157 54.475 43.447 52.3506 42.4278Z" fill="#D9D9D9"/>
<path d="M20.7772 39.0706L17.5285 45.4386C16.8747 45.647 12.3546 47.2458 12.3546 51.5686V55.4067C16.1699 58.4935 20.7647 60.6549 25.7993 61.5452C24.3638 55.2949 23.6158 47.2814 23.2306 41.1826C22.1739 40.474 21.3621 39.7125 20.7772 39.0706Z" fill="#D9D9D9"/>
<path d="M12.5362 51.5686C12.5362 47.0166 17.6554 45.5897 17.6554 45.5897L20.9085 39.2127C20.6282 38.9141 20.394 38.6371 20.2064 38.3989C19.7728 38.5516 19.3444 38.7158 18.9197 38.89L11.0221 41.9035C10.5364 42.0477 10.0802 42.2216 9.65542 42.4249C7.52757 43.4437 6.13983 45.1554 5.23914 47.0577C7.11573 50.3336 9.59924 53.2172 12.5362 55.5552C12.5362 54.4694 12.5362 53.1302 12.5362 51.5686Z" fill="#D9D9D9"/>
<path d="M16.2025 45.2429L19.237 45.9672C19.5951 46.0527 19.9278 46.2224 20.2072 46.4624L21.6811 47.7288L21.4085 47.9295L21.6811 47.971L24.4836 45.8032C24.2468 41.7568 24.245 35.2952 24.245 35.2952L22.5905 35.9256C21.18 36.4631 19.9737 37.4297 19.1418 38.6892L15.6822 43.9267C15.3519 44.4272 15.6193 45.1038 16.2025 45.2429Z" fill="#F5F5FF"/>
<path d="M24.4704 45.5715L21.6812 47.7291L17.7234 50.6423C16.7717 51.3427 16.3819 52.5814 16.7693 53.6978C17.4695 55.7156 18.2965 57.7032 19.1289 59.5275C21.3803 60.5116 23.777 61.2246 26.2784 61.6247C25.2219 55.715 24.7139 49.8406 24.4704 45.5715Z" fill="#FFFBFC"/>
<path d="M45.743 45.2429L42.7084 45.9672C42.3502 46.0527 42.0176 46.2224 41.7382 46.4624L40.2643 47.7288L40.537 47.9295L40.2643 47.971L37.4618 45.8032C37.6987 41.7568 37.7547 35.2952 37.7547 35.2952L39.3766 35.9221C40.7736 36.462 41.9677 37.4236 42.7931 38.6733L46.2631 43.9269C46.5936 44.4272 46.3262 45.1038 45.743 45.2429Z" fill="#F5F5FF"/>
<path d="M44.2223 50.6423L40.2644 47.7291L37.4753 45.5715C37.2315 49.8429 36.7232 55.7211 35.6655 61.6338C38.1621 61.2394 40.5547 60.5332 42.8033 59.557C43.6402 57.7247 44.4723 55.7263 45.1764 53.6976C45.5637 52.5814 45.1738 51.3427 44.2223 50.6423Z" fill="#FFFBFC"/>
<path d="M52.9916 52.242C52.4045 49.8153 50.9077 48.4138 49.697 47.6484C48.94 47.1698 47.9531 47.7084 47.9531 48.604V56.6795C49.7965 55.3935 51.4866 53.9032 52.9916 52.242Z" fill="#D9D9D9"/>
<path d="M19.9721 19.0694H42.1651C42.2044 17.4703 42.4711 13.2379 44.1423 10.2229C44.3747 9.80352 44.4162 9.30534 44.2544 8.85403C43.648 7.16332 41.8367 3.21082 37.8863 2.15657C37.6759 2.10039 37.6203 1.82817 37.7915 1.69363L38.3835 1.22851C38.652 1.01757 38.5488 0.589137 38.2137 0.524472C35.2992 -0.0375236 25.6195 -1.38263 22.6127 4.80005C22.4332 5.16902 22.095 5.4347 21.6978 5.53751C20.8229 5.76396 19.2493 6.44644 18.2236 8.49159C18.023 8.89157 17.9888 9.35548 18.1326 9.77918C18.6311 11.2482 19.8454 15.1927 19.9721 19.0694Z" fill="#D9D9D9"/>
<path d="M29.9024 9.29687C26.3577 3.895 32.558 0.00244141 32.558 0.00244141C28.7978 0.0511211 24.454 1.01394 22.6127 4.8003C22.4332 5.16927 22.095 5.43495 21.6978 5.53776C20.8229 5.7642 19.2493 6.44669 18.2236 8.49184C18.023 8.89181 17.9888 9.35572 18.1326 9.77943C18.631 11.2484 19.8454 15.1929 19.9721 19.0696H25.1379C28.4075 16.4212 32.0087 12.5068 29.9024 9.29687Z" fill="#D9D9D9"/>
<path d="M43.0266 18.4226C42.5297 17.9672 41.4189 18.1981 40.991 18.4768C41.0847 19.0606 41.09 19.6578 41.009 20.2476L40.5041 23.9254C40.5041 24.2219 40.4947 24.5127 40.4775 24.7985C41.7089 25.1699 42.4417 24.0644 42.5447 23.3058C42.5891 22.9792 42.6616 22.6573 42.7622 22.3432C43.0898 21.3205 44.2714 19.5634 43.0266 18.4226Z" fill="#D9D9D9"/>
<path d="M18.988 18.4226C19.4848 17.9672 20.5956 18.1981 21.0236 18.4768C20.9298 19.0606 20.9245 19.6578 21.0055 20.2476L21.5105 23.9254C21.5105 24.2219 21.5198 24.5127 21.537 24.7985C20.3056 25.1699 19.5729 24.0644 19.4698 23.3058C19.4255 22.9792 19.353 22.6573 19.2523 22.3432C18.9248 21.3205 17.7431 19.5634 18.988 18.4226Z" fill="#D9D9D9"/>
<path d="M40.8081 17.3408C40.6944 17.0442 40.5511 16.7439 40.3706 16.4606C40.0648 15.981 39.9303 15.4136 39.9713 14.8477C40.0892 13.2204 40.0261 10.0377 37.8897 9.07647C36.0748 8.25982 33.8486 8.73269 32.4289 9.20483C31.5409 9.50006 30.5816 9.51011 29.6883 9.23668C28.0707 10.4781 28.0327 13.2733 28.142 14.7618C28.1838 15.3307 28.0438 15.8999 27.7364 16.3822C27.5592 16.6602 27.4174 16.9545 27.3041 17.2457C26.9363 18.1905 26.829 19.2152 26.9668 20.2186L27.4786 23.9459C27.4786 29.3046 30.339 32.9468 32.7723 34.8364C33.1315 35.1153 33.5157 35.3552 33.9169 35.5599C34.4427 35.3268 34.9415 35.0306 35.4006 34.674C37.8021 32.8093 40.6251 29.2145 40.6251 23.9258L41.1301 20.248C41.2649 19.2672 41.1628 18.2659 40.8081 17.3408Z" fill="#F5F5FF"/>
<path d="M32.7897 34.6735C30.3883 32.8088 27.5652 29.214 27.5652 23.9254L27.0601 20.2468C26.9241 19.2566 27.03 18.2452 27.393 17.3128C27.5049 17.0253 27.6448 16.735 27.8197 16.4606C28.1232 15.9844 28.2614 15.4229 28.2202 14.8614C28.1088 13.3458 28.1521 10.4573 29.9027 9.29653C29.7962 9.26965 29.6905 9.23938 29.5858 9.2045C28.1659 8.73248 25.9398 8.25961 24.1249 9.07614C21.9825 10.04 21.9251 13.2383 22.0444 14.8613C22.0857 15.4228 21.9474 15.9843 21.644 16.4604C21.4691 16.7348 21.3291 17.0252 21.2172 17.3127C20.8543 18.2451 20.7485 19.2565 20.8843 20.2467L21.3894 23.9253C21.3894 29.2139 24.2126 32.8086 26.6139 34.6734C27.8673 35.6468 29.4142 36.1755 31.0073 36.1755C32.0832 36.1755 33.1376 35.9334 34.0952 35.477C33.6348 35.2579 33.1965 34.9896 32.7897 34.6735Z" fill="#D9D9D9"/>
</g>
<defs>
<clipPath id="clip0_4181_3768">
<rect width="62" height="62" fill="white"/>
</clipPath>
</defs>
</svg>
