<svg width="311" height="375" viewBox="0 0 311 375" fill="none" xmlns="http://www.w3.org/2000/svg">
<path d="M102.833 361.762L107.767 326.074L130.882 327.266L118.017 365.609L102.833 361.762Z" fill="#FFBE9D"/>
<path d="M119.374 361.873L119.293 362.883C119.293 362.883 135.986 371.366 135.885 374.668L101.554 371.455L103.089 360.064C105.516 361.513 108.226 362.424 111.035 362.736C113.844 363.048 116.688 362.754 119.374 361.873Z" fill="#8276F4"/>
<g opacity="0.6">
<path opacity="0.6" d="M106.195 364.023C105.856 364.096 105.556 364.29 105.351 364.569C105.147 364.849 105.051 365.193 105.084 365.538C105.143 365.878 105.33 366.183 105.605 366.391C105.88 366.599 106.225 366.695 106.568 366.659C106.927 366.584 107.246 366.378 107.462 366.081C107.679 365.785 107.777 365.418 107.739 365.053C107.648 364.698 107.421 364.393 107.108 364.204C106.794 364.016 106.419 363.958 106.063 364.043" fill="white"/>
</g>
<g opacity="0.6">
<path opacity="0.6" d="M101.53 371.439L101.894 368.692L134.683 372.731C134.683 372.731 136.157 373.539 135.883 374.609L101.53 371.439Z" fill="white"/>
</g>
<path d="M119.404 362.973C119.404 363.135 118.536 363.135 117.657 363.599C116.778 364.063 116.284 364.72 116.132 364.609C115.98 364.498 116.324 363.599 117.394 363.044C118.464 362.489 119.455 362.822 119.404 362.973Z" fill="#263238"/>
<path d="M122.868 364.801C122.868 364.963 122.141 365.185 121.505 365.811C120.869 366.437 120.626 367.195 120.495 367.174C120.364 367.153 120.313 366.164 121.121 365.387C121.929 364.61 122.878 364.64 122.868 364.801Z" fill="#263238"/>
<path d="M124.514 369.305C124.352 369.305 124.201 368.457 124.714 367.588C125.227 366.719 126.047 366.417 126.108 366.578C126.169 366.739 125.633 367.178 125.219 367.901C124.805 368.624 124.676 369.295 124.514 369.305Z" fill="#263238"/>
<path d="M8.11987 308.746L33.3759 290.64L53.3439 301.495L17.1209 322.005L8.11987 308.746Z" fill="#FFBE9D"/>
<path d="M19.1279 321.156L18.2699 321.722C18.2699 321.722 21.8849 340.091 19.2189 342.04L0.576904 313.017L10.2769 306.877C10.6704 309.744 11.6615 312.497 13.1862 314.956C14.7109 317.416 16.7352 319.528 19.1279 321.156Z" fill="#8276F4"/>
<g opacity="0.6">
<path opacity="0.6" d="M9.30191 312.128C9.03523 311.905 8.69603 311.786 8.34825 311.796C8.00047 311.805 7.66813 311.942 7.41391 312.179C7.17648 312.43 7.04419 312.762 7.04419 313.108C7.04419 313.454 7.17648 313.786 7.41391 314.037C7.69605 314.284 8.06117 314.415 8.4359 314.404C8.81062 314.392 9.16718 314.239 9.43391 313.976C9.64975 313.683 9.74403 313.317 9.69708 312.956C9.65014 312.595 9.46559 312.266 9.18192 312.037" fill="white"/>
</g>
<g opacity="0.6">
<path opacity="0.6" d="M0.586914 313.018L2.96991 311.618L19.9699 339.954C19.9699 339.954 20.2429 341.61 19.2329 342.044L0.586914 313.018Z" fill="white"/>
</g>
<path d="M18.2688 321.874C18.1178 321.965 17.6018 321.288 16.6938 320.864C15.7858 320.44 14.9568 320.47 14.9368 320.309C14.9168 320.148 15.8558 319.824 16.9568 320.309C18.0578 320.794 18.4208 321.823 18.2688 321.874Z" fill="#263238"/>
<path d="M18.966 325.731C18.845 325.852 18.209 325.388 17.3 325.297C16.391 325.206 15.674 325.469 15.583 325.297C15.492 325.125 16.25 324.55 17.37 324.691C18.49 324.832 19.128 325.641 18.966 325.731Z" fill="#263238"/>
<path d="M16.4309 329.801C16.3199 329.69 16.8959 329.034 17.9049 328.901C18.9139 328.768 19.6519 329.234 19.5709 329.366C19.4899 329.498 18.8139 329.366 17.9859 329.477C17.1579 329.588 16.5319 329.932 16.4309 329.801Z" fill="#263238"/>
<path d="M171.563 129.017C174.541 129.017 176.956 126.602 176.956 123.624C176.956 120.646 174.541 118.231 171.563 118.231C168.584 118.231 166.17 120.646 166.17 123.624C166.17 126.602 168.584 129.017 171.563 129.017Z" fill="#263238"/>
<path d="M110.608 75.458C116.433 76.8744 121.761 79.855 126.016 84.0781C130.272 88.3013 133.293 93.6065 134.753 99.421C136.975 107.853 141.903 145.021 141.903 145.021L171.612 122.088L180.802 134.297L153.607 165.218C147.548 172.559 135.682 174.307 126.655 171.277C116.405 167.833 115.88 160.744 117.055 150L110.608 75.458Z" fill="#FFBE9D"/>
<path d="M184.741 128.337L194.526 117.623L179.298 109.544C178.228 110.19 171.613 121.066 171.613 121.066L171.213 122.934C171.213 122.934 180.594 133.134 180.857 133.305C181.12 133.476 184.741 128.337 184.741 128.337Z" fill="#FFBE9D"/>
<path d="M193.909 118.51C193.865 118.612 193.807 118.707 193.737 118.793C192.727 120.075 187.87 125.104 187.037 124.741C186.204 124.378 184.737 122.277 185.25 121.499C185.763 120.721 191.602 115.359 191.602 115.359C191.602 115.359 192.612 114.571 194.302 115.783C195.374 116.531 193.909 118.51 193.909 118.51Z" fill="#FFBE9D"/>
<path d="M192.576 114.063C192.533 114.163 192.479 114.259 192.414 114.346C191.404 115.639 186.537 120.668 185.709 120.294C184.881 119.92 183.417 117.84 183.932 117.052C184.447 116.264 190.274 110.912 190.274 110.912C190.274 110.912 191.284 110.124 192.98 111.336C194.055 112.094 192.576 114.063 192.576 114.063Z" fill="#FFBE9D"/>
<path d="M190.456 110.549C190.412 110.651 190.354 110.746 190.284 110.832C189.274 112.114 184.407 117.143 183.579 116.78C182.751 116.417 181.287 114.316 181.802 113.528C182.317 112.74 188.144 107.388 188.144 107.388C188.144 107.388 189.154 106.6 190.85 107.822C191.921 108.566 190.456 110.549 190.456 110.549Z" fill="#FFBE9D"/>
<path d="M188.285 107.09C188.241 107.192 188.183 107.287 188.113 107.373C187.103 108.666 182.246 113.695 181.413 113.321C180.58 112.947 179.121 110.867 179.636 110.079C180.151 109.291 185.978 103.939 185.978 103.939C185.978 103.939 186.988 103.151 188.684 104.363C189.79 105.121 188.285 107.09 188.285 107.09Z" fill="#FFBE9D"/>
<path d="M186.649 120.066C187.594 119.417 188.458 118.657 189.224 117.804C190.074 117.06 190.828 116.211 191.466 115.279C190.514 115.917 189.646 116.673 188.883 117.529C188.026 118.269 187.274 119.122 186.649 120.066Z" fill="#EB996E"/>
<path d="M183.619 117.489C184.923 116.517 186.133 115.425 187.234 114.227C188.45 113.144 189.559 111.947 190.546 110.652C188.038 112.72 185.72 115.008 183.619 117.489Z" fill="#EB996E"/>
<g opacity="0.78">
<path opacity="0.78" d="M180.802 114.552C183.317 112.492 185.636 110.203 187.729 107.715C186.427 108.691 185.218 109.782 184.114 110.977C182.901 112.063 181.793 113.26 180.802 114.552Z" fill="#EB996E"/>
</g>
<path d="M175.026 121.798L175.703 116.042C176.002 113.522 177.26 111.215 179.217 109.599L180.712 108.377L190.255 118.384C190.255 118.384 186.004 121.131 183.873 117.859L184.373 123.221L175.026 121.798Z" fill="#FFBE9D"/>
<path d="M183.185 123.243C183.114 123.243 183.458 122.643 183.67 121.557C183.949 120.044 183.664 118.482 182.87 117.164L182.113 115.922L183.274 116.811L185.94 118.831H185.879C186.501 119.185 187.212 119.355 187.928 119.319C188.643 119.284 189.333 119.045 189.918 118.631C190 118.562 190.078 118.488 190.15 118.409V118.843C187.343 116.127 184.828 113.632 183.132 111.774C182.274 110.825 181.607 110.037 181.112 109.482C180.855 109.213 180.64 108.907 180.476 108.573C181.507 109.479 182.485 110.443 183.405 111.461C185.182 113.279 187.727 115.702 190.555 118.419L190.777 118.631L190.577 118.853C190.482 118.97 190.374 119.075 190.254 119.166C189.574 119.711 188.726 120.004 187.854 119.994C187.06 119.979 186.28 119.786 185.572 119.428L182.957 117.317L183.351 116.964C184.174 118.403 184.402 120.106 183.987 121.71C183.861 122.283 183.584 122.813 183.185 123.243Z" fill="#EB996E"/>
<path d="M188.073 118.808C188.184 118.858 187.74 119.414 187.573 120.333C187.53 120.573 187.56 120.821 187.659 121.044C187.758 121.267 187.921 121.456 188.128 121.585C188.429 121.68 188.749 121.695 189.058 121.627C189.366 121.56 189.651 121.413 189.885 121.201C191.085 120.242 192.268 119.401 193.026 118.757C193.784 118.113 194.238 117.636 194.319 117.697C194.4 117.758 194.067 118.323 193.309 119.091C192.341 120.04 191.309 120.921 190.219 121.727C189.897 122.006 189.504 122.191 189.083 122.26C188.662 122.33 188.231 122.282 187.836 122.121C187.524 121.935 187.283 121.65 187.149 121.313C187.016 120.975 186.998 120.602 187.099 120.253C187.213 119.833 187.418 119.444 187.699 119.112C187.912 118.89 188.043 118.789 188.073 118.808Z" fill="#EB996E"/>
<path d="M138.924 154.671C138.668 154.08 138.528 153.446 138.51 152.803C138.356 151.261 138.441 149.704 138.762 148.188C139.077 146.663 139.635 145.199 140.413 143.851C140.689 143.272 141.073 142.752 141.544 142.316C140.568 144.214 139.809 146.216 139.282 148.284C138.927 150.393 138.807 152.535 138.924 154.671Z" fill="#EB996E"/>
<path d="M168.118 122.813L179.529 134.288L182.639 130.683L171.349 120.241L168.118 122.813Z" fill="#263238"/>
<path d="M92.8959 94.558C93.6129 90.64 91.4319 85.914 94.1179 82.965C95.9759 80.945 99.2879 80.945 101.439 79.239C104.206 76.987 104.014 72.827 104.327 69.282C104.851 63.5587 107.284 58.1776 111.234 54.003C112.819 52.337 114.799 50.327 114.142 48.126C113.842 47.3485 113.381 46.6431 112.789 46.056L93.0569 23.556C91.5118 21.5935 89.6644 19.8892 87.5839 18.507C86.5379 17.8267 85.3453 17.4043 84.1043 17.2744C82.8633 17.1446 81.6091 17.311 80.4449 17.76C76.4859 19.588 75.8099 24.92 72.9919 28.242C70.4469 31.271 66.1449 32.574 64.2669 36.028C62.4799 39.328 63.4389 43.672 61.4499 46.853C58.8039 51.104 52.1999 51.353 49.4429 55.538C47.0299 59.194 48.4329 64.566 45.7069 67.969C43.2129 71.059 38.6379 71.059 34.9519 72.624C34.9519 72.624 39.1429 77.224 41.0109 79.875C42.8789 82.526 49.3319 82.723 52.1699 80.794C55.0079 78.865 55.5699 77.229 57.3199 75.401C58.7286 74.1157 60.3537 73.0899 62.1199 72.371C62.1199 72.371 56.9899 76.239 57.3199 77.955C57.6499 79.671 52.5739 85.973 51.3619 85.555C50.1499 85.137 64.7519 94.543 64.7519 94.543L92.8959 94.558Z" fill="#263238"/>
<path d="M117.876 18.295C117.676 20.981 119.451 23.344 121.239 25.364C123.027 27.384 125.026 29.484 125.41 32.15C126.097 36.876 121.462 41.239 122.381 45.944C122.896 48.458 124.946 50.478 125.31 53.013C125.674 55.548 124.351 57.87 122.725 59.738C121.099 61.606 119.11 63.151 117.676 65.171C116.242 67.191 115.323 69.816 114.232 72.179C113.141 74.542 111.677 76.905 109.385 78.147C105.931 80.025 101.104 79.157 98.459 82.047C95.814 84.937 96.712 89.964 93.559 92.075" fill="#263238"/>
<path d="M76.5569 22.406C76.4859 19.972 78.7379 18.084 81.0099 17.195C83.2819 16.306 85.7759 15.963 87.7959 14.595C89.5959 13.395 90.8259 11.505 92.3099 9.97001C94.1815 8.07539 96.5232 6.71256 99.095 6.02122C101.667 5.32989 104.376 5.33491 106.946 6.03579C109.515 6.73667 111.851 8.10819 113.716 10.0097C115.58 11.9113 116.906 14.2745 117.556 16.857C118.424 20.331 117.829 24.441 115.092 26.743C111.911 29.429 107.205 28.833 103.136 27.995C99.0669 27.157 94.4619 26.339 91.0179 28.732C88.9979 30.176 87.7969 32.519 86.5439 34.69C85.2909 36.861 83.7159 39.073 81.3439 39.89C78.9719 40.707 75.7599 39.29 75.6689 36.79" fill="#263238"/>
<path d="M86.1689 22.91C85.1516 23.012 84.2108 23.496 83.5362 24.2643C82.8617 25.0326 82.5035 26.0281 82.5339 27.05L84.9679 82.157C85.0679 88.657 94.5819 92.326 101.55 92.164C108.619 91.992 108.811 88.549 108.902 82.348C109.043 72.007 109.033 68.13 109.033 68.21C109.033 68.29 117.933 66.715 119.733 55.082C120.642 49.316 120.333 39.854 119.824 32.128C119.37 25.17 114.775 16.637 107.807 17.384L86.1689 22.91Z" fill="#FFBE9D"/>
<path d="M117.627 38.754C117.631 39.1402 117.485 39.5129 117.219 39.7929C116.953 40.073 116.589 40.2384 116.203 40.254C115.829 40.2867 115.458 40.1699 115.171 39.9291C114.884 39.6883 114.704 39.3434 114.671 38.97V38.922C114.666 38.5344 114.812 38.1602 115.078 37.8778C115.343 37.5953 115.708 37.4266 116.095 37.407C116.471 37.3772 116.844 37.4981 117.132 37.7432C117.419 37.9883 117.598 38.3374 117.628 38.714L117.627 38.754Z" fill="#263238"/>
<path d="M117.789 37.047C117.607 37.247 116.476 36.411 114.871 36.421C113.266 36.431 112.104 37.229 111.932 37.037C111.76 36.845 112.032 36.603 112.538 36.229C113.231 35.7464 114.056 35.489 114.901 35.492C115.735 35.4871 116.549 35.7488 117.224 36.239C117.708 36.613 117.879 36.966 117.789 37.047Z" fill="#263238"/>
<path d="M101.692 39.138C101.696 39.5258 101.549 39.9 101.281 40.1803C101.013 40.4607 100.646 40.625 100.258 40.638C100.072 40.6529 99.8841 40.631 99.7063 40.5734C99.5284 40.5158 99.3636 40.4237 99.2213 40.3025C99.0791 40.1812 98.9621 40.033 98.8771 39.8665C98.7921 39.7 98.7407 39.5184 98.726 39.332V39.295C98.7256 38.9084 98.8745 38.5365 99.1417 38.257C99.4089 37.9775 99.7737 37.812 100.16 37.795C100.537 37.7652 100.91 37.8861 101.197 38.1312C101.484 38.3763 101.663 38.7255 101.693 39.102L101.692 39.138Z" fill="#263238"/>
<path d="M102.055 37.381C101.873 37.581 100.742 36.745 99.1369 36.755C97.5319 36.765 96.3699 37.563 96.1879 37.371C96.0059 37.179 96.2879 36.937 96.8039 36.563C97.4971 36.0803 98.3222 35.8229 99.1669 35.826C99.9976 35.8231 100.808 36.0847 101.48 36.573C101.933 36.947 102.146 37.3 102.055 37.381Z" fill="#263238"/>
<path d="M107.892 49.236C108.734 48.9639 109.608 48.8042 110.492 48.761C110.906 48.711 111.292 48.63 111.361 48.361C111.391 47.9377 111.293 47.5151 111.078 47.149L109.866 44.039C108.18 39.606 106.958 35.96 107.129 35.9C107.3 35.84 108.829 39.374 110.512 43.8C110.912 44.891 111.312 45.931 111.683 46.931C111.936 47.4261 112.011 47.9932 111.895 48.537C111.837 48.6829 111.745 48.8131 111.628 48.9173C111.51 49.0215 111.37 49.0967 111.218 49.137C110.995 49.2015 110.763 49.2351 110.531 49.237C109.655 49.349 108.768 49.3487 107.892 49.236Z" fill="#263238"/>
<path d="M109.002 68.181C103.542 68.2796 98.1617 66.8602 93.4609 64.081C93.4609 64.081 97.2479 72.039 108.861 70.928L109.002 68.181Z" fill="#EB996E"/>
<path d="M107.225 53.104C106.915 52.7226 106.515 52.4249 106.061 52.2379C105.607 52.051 105.113 51.9809 104.625 52.034C104.269 52.0715 103.925 52.1802 103.613 52.3537C103.301 52.5273 103.026 52.7621 102.807 53.044C102.596 53.3126 102.471 53.6388 102.45 53.9797C102.428 54.3206 102.51 54.66 102.686 54.953C102.944 55.2389 103.282 55.4422 103.655 55.5373C104.029 55.6325 104.422 55.6153 104.786 55.488C105.535 55.2166 106.222 54.7976 106.806 54.256C106.99 54.1295 107.148 53.9681 107.271 53.781C107.331 53.6925 107.363 53.588 107.363 53.481C107.363 53.374 107.331 53.2695 107.271 53.181" fill="#EB996E"/>
<path d="M103.176 50.357C103.439 50.357 103.449 52.084 104.933 53.316C106.417 54.548 108.276 54.326 108.296 54.588C108.316 54.85 107.882 54.931 107.096 54.952C106.072 54.9615 105.078 54.6031 104.296 53.942C103.538 53.3255 103.049 52.4383 102.933 51.468C102.874 50.781 103.068 50.347 103.176 50.357Z" fill="#263238"/>
<path d="M102.772 34.582C102.61 35.016 101.015 34.814 99.1368 35.036C97.2588 35.258 95.7369 35.783 95.4919 35.4C95.3809 35.208 95.6438 34.8 96.2488 34.39C97.0657 33.8739 97.9889 33.5495 98.949 33.4411C99.9092 33.3327 100.881 33.4431 101.793 33.764C102.489 34.028 102.833 34.371 102.772 34.582Z" fill="#263238"/>
<path d="M117.192 32.423C116.909 32.787 115.809 32.423 114.476 32.423C113.143 32.423 112.032 32.675 111.77 32.292C111.659 32.11 111.831 31.747 112.325 31.403C112.979 30.9813 113.747 30.7698 114.525 30.797C115.303 30.8097 116.058 31.0637 116.686 31.524C117.162 31.867 117.313 32.241 117.192 32.423Z" fill="#263238"/>
<path d="M78.0719 61.072C79.6745 61.3939 81.3308 61.3301 82.9039 60.8859C84.477 60.4416 85.922 59.6296 87.1195 58.5169C88.317 57.4042 89.2327 56.0227 89.7911 54.4864C90.3494 52.95 90.5345 51.3029 90.3309 49.681C89.9669 46.833 88.4309 43.935 89.4219 41.239C90.7219 37.674 95.7219 36.574 97.0459 33.019C97.8139 30.999 97.1269 28.535 97.9949 26.506C98.8629 24.477 100.823 23.476 102.782 22.8C104.741 22.124 106.821 21.608 108.457 20.336C110.093 19.064 111.123 16.65 110.063 14.873C101.399 15.9092 92.8893 17.9772 84.7159 21.033C82.8159 21.74 80.8279 22.588 79.7159 24.264C78.6039 25.94 78.5849 28.303 78.7059 30.485L80.1599 61.729" fill="#263238"/>
<path d="M96.1679 14.468C95.9742 14.7379 95.7545 14.9881 95.5119 15.215C94.8155 15.8672 94.0086 16.3903 93.1289 16.76C91.7312 17.3174 90.2565 17.658 88.7559 17.77C87.0089 17.982 84.9989 17.942 82.8179 17.992C80.4419 17.9916 78.0898 18.4676 75.9009 19.392C74.7082 19.9715 73.6932 20.8609 72.9619 21.967C72.2604 23.1765 71.6949 24.46 71.2759 25.794C70.8014 27.2753 69.8359 28.5504 68.5389 29.409C67.1382 30.1174 65.6623 30.6662 64.1389 31.045C62.6178 31.4184 61.2769 32.316 60.3519 33.58C59.5114 34.974 58.9351 36.511 58.6519 38.114C58.3471 39.763 57.8663 41.3745 57.2179 42.921C56.4882 44.4009 55.4563 45.7114 54.1889 46.768C52.9697 47.7917 51.5535 48.5548 50.0279 49.01C48.566 49.399 47.0564 49.5791 45.5439 49.545C44.1652 49.5016 42.7918 49.7352 41.5049 50.232C40.9203 50.5097 40.3876 50.8854 39.9299 51.343C39.5016 51.8165 39.1351 52.3424 38.8389 52.908C37.7079 55.18 37.3439 57.634 36.3389 59.633C35.4021 61.4314 33.9451 62.9058 32.1579 63.864C30.8323 64.593 29.3663 65.0304 27.8579 65.147C26.9072 65.2165 25.9515 65.1492 25.0199 64.947C24.6969 64.866 24.4649 64.775 24.3129 64.735L24.0709 64.644C25.302 64.9478 26.5743 65.0491 27.8379 64.944C29.3106 64.7957 30.7354 64.338 32.0189 63.601C33.7332 62.6548 35.1204 61.2114 35.9979 59.461C37.0079 57.522 37.2979 55.088 38.4619 52.705C38.767 52.0993 39.1544 51.5387 39.6129 51.039C40.1041 50.5301 40.6822 50.1129 41.3199 49.807C42.6723 49.2748 44.1181 49.0207 45.5709 49.06C47.0386 49.0822 48.5026 48.9056 49.9229 48.535C51.3781 48.0896 52.7281 47.3545 53.8919 46.374C55.1058 45.3647 56.0903 44.1081 56.7799 42.688C57.4151 41.1771 57.8826 39.601 58.1739 37.988C58.4699 36.3197 59.0724 34.7208 59.9509 33.272C60.4291 32.5725 61.0484 31.9809 61.7689 31.535C62.4731 31.1097 63.2258 30.7706 64.0109 30.525C65.4993 30.1648 66.942 29.6364 68.3109 28.95C69.5249 28.1595 70.425 26.9701 70.8559 25.587C71.2973 24.2225 71.89 22.9117 72.6229 21.679C73.4127 20.5447 74.4941 19.6447 75.7529 19.074C77.9883 18.1292 80.3953 17.6583 82.8219 17.691C85.0339 17.691 87.0029 17.691 88.7399 17.54C90.2196 17.439 91.6761 17.1192 93.0619 16.591C94.231 16.1021 95.2879 15.3797 96.1679 14.468Z" fill="#263238"/>
<path d="M87.523 73.099C73.618 74.412 64.347 79.461 57.278 86.299L66.589 114.11C66.589 114.11 75.173 130.49 74.589 142.133C74.005 153.776 68.348 158.593 63.733 174.316L127.878 183.707C127.878 183.707 124.263 146.151 123.485 138.002C122.707 129.853 132.22 119.391 129.352 108.575C122.98 84.561 113.457 76.26 113.457 76.26C113.457 76.26 99.561 71.16 87.523 73.099Z" fill="#8276F4"/>
<path d="M69.1239 158.087C69.9404 158.617 70.8854 158.916 71.8582 158.951C72.8311 158.986 73.7952 158.757 74.6479 158.287C76.3468 157.319 77.7662 155.927 78.7679 154.248C80.7879 151.219 82.1309 147.634 81.6259 144.069C81.1209 140.504 78.3039 137.131 74.7089 136.839C74.7089 136.839 74.4089 141.888 74.0829 143.514C73.7569 145.14 69.1239 158.087 69.1239 158.087Z" fill="#FFBE9D"/>
<path d="M114.132 113.021C114.125 113.364 114.07 113.703 113.97 114.031C113.757 114.976 113.467 115.901 113.102 116.798C111.9 119.791 110.022 122.466 107.615 124.614C105.208 126.762 102.337 128.324 99.227 129.179C98.2919 129.447 97.3358 129.636 96.369 129.744C96.0174 129.794 95.6606 129.794 95.309 129.744C95.309 129.644 96.809 129.512 99.116 128.785C102.13 127.849 104.909 126.277 107.262 124.174C109.616 122.071 111.491 119.486 112.759 116.596C113.739 114.455 114.052 112.96 114.132 113.021Z" fill="#263238"/>
<path d="M117.22 140.068C117.189 140.49 117.107 140.907 116.978 141.31C116.875 141.792 116.743 142.267 116.584 142.734C116.412 143.289 116.231 143.926 115.958 144.602C115.361 146.207 114.656 147.769 113.847 149.278C111.846 152.977 109.249 156.322 106.162 159.178C104.893 160.339 103.543 161.408 102.123 162.378C101.184 163.045 100.202 163.648 99.184 164.186C98.8213 164.409 98.4354 164.592 98.033 164.731C98.033 164.64 99.578 163.792 101.901 162.075C106.616 158.604 110.532 154.162 113.383 149.048C114.205 147.568 114.936 146.041 115.574 144.473C116.698 141.785 117.132 140.038 117.22 140.068Z" fill="#263238"/>
<g opacity="0.3">
<path opacity="0.3" d="M116.698 141.912C114.305 145.749 110.639 149.92 106.115 151.334C104.176 151.95 102.136 152.152 100.147 152.606C98.1301 152.952 96.2606 153.887 94.773 155.292C94.0112 155.932 93.482 156.805 93.2676 157.776C93.0533 158.748 93.1659 159.763 93.5878 160.664C94.0097 161.564 94.7173 162.301 95.6007 162.758C96.4841 163.215 97.4939 163.368 98.473 163.192C100.324 162.966 102.086 162.271 103.593 161.172C110.329 156.799 114.58 149.933 116.721 141.894" fill="black"/>
</g>
<path d="M81.1309 74.909C81.2538 75.0955 81.3618 75.2915 81.4539 75.495C81.6539 75.889 81.9289 76.505 82.2819 77.242C82.9819 78.767 83.9579 80.988 85.0089 83.806C86.2471 87.0946 87.2395 90.4705 87.9779 93.906C88.889 98.1335 89.2523 102.461 89.0589 106.781C88.875 111.113 87.9422 115.38 86.3019 119.394C84.9389 122.665 83.0301 125.68 80.6569 128.311C79.0616 130.075 77.2338 131.614 75.2239 132.886C74.5069 133.33 73.9309 133.643 73.5379 133.835C73.3425 133.947 73.1361 134.039 72.9219 134.108C72.9219 134.108 73.7299 133.654 75.1129 132.714C77.0569 131.388 78.8276 129.824 80.3839 128.059C82.6805 125.432 84.5264 122.443 85.8469 119.213C87.4397 115.251 88.348 111.048 88.5329 106.782C88.7267 102.509 88.3874 98.2276 87.5229 94.038C86.8069 90.6099 85.8553 87.2352 84.6749 83.938C83.6649 81.121 82.7559 78.889 82.1199 77.338C81.8069 76.611 81.5649 76.015 81.3729 75.561C81.2672 75.3538 81.186 75.135 81.1309 74.909Z" fill="#FAFAFA"/>
<path d="M84.625 74.445C84.7639 74.6464 84.8857 74.8592 84.989 75.081C85.211 75.505 85.534 76.091 85.938 76.959C86.726 78.595 87.838 80.998 89.028 84.028C90.4264 87.5872 91.5301 91.2552 92.328 94.995C93.3282 99.59 93.6683 104.304 93.338 108.995C93.0052 113.699 91.7747 118.296 89.713 122.537C87.9965 125.968 85.6567 129.05 82.813 131.626C80.8919 133.363 78.724 134.806 76.38 135.908C75.7464 136.206 75.0956 136.466 74.431 136.686C74.2045 136.778 73.9702 136.848 73.731 136.898C73.731 136.837 74.67 136.534 76.296 135.717C78.5761 134.562 80.6835 133.094 82.557 131.355C85.3284 128.758 87.6039 125.678 89.272 122.266C91.2788 118.071 92.4777 113.535 92.806 108.896C93.1383 104.256 92.8222 99.5933 91.867 95.041C91.0927 91.3196 90.0326 87.6634 88.696 84.105C87.555 81.076 86.496 78.652 85.757 76.986L84.909 75.077C84.7906 74.8778 84.6953 74.6658 84.625 74.445Z" fill="#FAFAFA"/>
<path d="M123.696 101.368C121.821 102.588 119.608 103.186 117.374 103.075C118.4 102.707 119.454 102.42 120.525 102.217C121.558 101.851 122.618 101.567 123.696 101.368Z" fill="#FAFAFA"/>
<path d="M122.838 103.295C122.039 103.775 121.157 104.1 120.238 104.254C119.365 104.571 118.439 104.718 117.511 104.688C118.314 104.219 119.195 103.898 120.111 103.739C120.984 103.423 121.909 103.273 122.838 103.295Z" fill="#FAFAFA"/>
<path d="M84.8169 74.992C84.8169 74.992 90.7549 86.312 105.66 84.636C114.274 83.626 109.033 76.136 109.033 76.136C109.033 76.136 100.991 71.437 84.8169 74.992Z" fill="#FFBE9D"/>
<path d="M127.746 172.274L131.482 241.953C132.07 247.462 131.063 253.024 128.58 257.976C126.097 262.929 122.242 267.063 117.476 269.887L40.9308 316.687L27.6418 299.177L97.7548 245.04L90.6848 167.477L127.746 172.274Z" fill="#263238"/>
<path d="M64.6199 157.574L62.7199 161.735C58.6199 170.753 57.6709 182.396 60.8419 190.647C64.0129 198.898 69.0619 205.647 77.1419 212.863L114.051 246.632C115.503 247.965 116.599 249.639 117.24 251.503C117.88 253.368 118.044 255.362 117.717 257.306L105.124 334.265L129.471 337.638L150.314 259.628C152.606 249.883 151.829 244.339 146.931 235.604L97.2779 162.492L64.6199 157.574Z" fill="#263238"/>
<path d="M145.357 242.897C145.185 242.711 145.03 242.51 144.893 242.297L143.641 240.55L139.127 234.057L124.383 212.527L109.783 190.906L105.4 184.322L104.229 182.514C104.085 182.31 103.96 182.094 103.855 181.868C104.03 182.051 104.186 182.252 104.32 182.468L105.572 184.215L110.086 190.708L124.83 212.238L139.43 233.848C141.258 236.595 142.742 238.837 143.813 240.432C144.298 241.189 144.681 241.785 144.984 242.24C145.124 242.45 145.249 242.669 145.357 242.897Z" fill="#455A64"/>
<path d="M113.83 292.908C113.815 292.7 113.815 292.49 113.83 292.282C113.88 291.828 113.951 291.272 114.03 290.474C114.23 288.858 114.515 286.574 114.858 283.728C115.615 277.928 116.666 269.823 117.887 260.401V260.482C117.402 258.225 116.361 256.125 114.858 254.373C113.26 252.491 111.532 250.723 109.688 249.081C100.145 240.194 91.2789 232.409 84.9769 226.632C81.8259 223.744 79.2919 221.391 77.5649 219.745L75.5449 217.836L75.0449 217.321C74.9239 217.21 74.8729 217.149 74.8829 217.139C74.8929 217.129 74.9539 217.139 75.0749 217.28L75.6199 217.755L77.6399 219.593L85.1729 226.349C91.5249 232.055 100.442 239.8 109.985 248.697C111.854 250.354 113.602 252.142 115.216 254.049C116.761 255.872 117.827 258.052 118.316 260.391V260.472C117.016 269.872 115.903 277.972 115.105 283.772C114.691 286.62 114.368 288.892 114.095 290.508C113.974 291.255 113.883 291.851 113.812 292.295C113.839 292.498 113.845 292.704 113.83 292.908Z" fill="#455A64"/>
<path d="M103.954 259.183C103.309 258.845 102.729 258.397 102.237 257.86C99.7155 255.371 98.0773 252.126 97.5719 248.62C97.4376 247.903 97.4376 247.166 97.5719 246.449C97.944 248.847 98.6474 251.182 99.6619 253.387C100.822 255.505 102.266 257.455 103.954 259.183Z" fill="#455A64"/>
<path d="M107.761 189.42C107.933 188.553 108.276 187.729 108.771 186.996C109.117 186.187 109.618 185.453 110.245 184.835C110.074 185.7 109.731 186.521 109.235 187.249C108.891 188.062 108.39 188.8 107.761 189.42Z" fill="#455A64"/>
<path d="M78.7079 25.233C78.2244 21.6121 76.4276 18.295 73.6589 15.912C71.4269 14.024 68.3779 12.802 65.5799 13.579C64.283 13.9793 63.1287 14.7445 62.2549 15.783C61.381 16.8216 60.8246 18.0897 60.6519 19.436C60.5156 20.7864 60.7218 22.1493 61.2514 23.399C61.781 24.6486 62.6169 25.7447 63.6819 26.586C64.7597 27.4089 66.003 27.9885 67.3262 28.2849C68.6494 28.5813 70.0211 28.5875 71.3469 28.303C73.8409 27.778 76.2349 26.283 78.7469 26.718" fill="#263238"/>
<path d="M39.8999 77.713C41.4305 77.4714 42.9306 77.065 44.3739 76.501C48.295 74.9043 51.552 72.0143 53.6039 68.311C54.285 67.1018 54.8044 65.8084 55.1489 64.464C55.5429 63.07 55.6489 61.546 56.0379 59.99C56.2277 59.1903 56.5233 58.4195 56.9169 57.698C57.3504 56.9501 57.9562 56.3166 58.6839 55.85C60.2359 55.0349 61.9052 54.4661 63.6319 54.164C64.4987 54.0325 65.3308 53.73 66.0796 53.274C66.8284 52.818 67.4792 52.2177 67.9939 51.508C68.9329 49.983 69.0039 48.044 69.2559 46.146C69.3451 45.1606 69.5173 44.1844 69.7709 43.228C70.0365 42.2293 70.5528 41.3151 71.2709 40.572C72.8059 39.077 74.9369 38.663 76.8149 38.017C77.7585 37.727 78.6463 37.2797 79.4409 36.694C80.1829 36.0899 80.7078 35.2603 80.9359 34.331C81.4309 32.463 81.1279 30.431 81.8039 28.504C82.1325 27.5426 82.7722 26.7181 83.6219 26.161C84.441 25.6512 85.3383 25.2796 86.2779 25.061C88.0779 24.576 89.9029 24.294 91.3269 23.274C92.6373 22.2159 93.6327 20.819 94.2049 19.235C94.8409 17.7 95.3359 16.135 96.0049 14.691C96.3307 13.9863 96.7157 13.3105 97.1559 12.671C97.6006 12.0515 98.1157 11.4857 98.6909 10.985C99.7882 10.0508 101.073 9.36202 102.458 8.965C103.637 8.61261 104.874 8.50078 106.097 8.63615C107.32 8.77151 108.504 9.15132 109.577 9.75301C111.186 10.6763 112.503 12.0341 113.377 13.671C113.916 14.6987 114.258 15.8178 114.387 16.971C114.433 17.3697 114.433 17.7723 114.387 18.171C114.372 17.7705 114.325 17.3719 114.246 16.979C114.073 15.8503 113.696 14.7624 113.135 13.768C112.253 12.1905 110.953 10.887 109.378 10.001C108.335 9.43463 107.19 9.08213 106.009 8.96416C104.828 8.84619 103.635 8.96513 102.501 9.31401C101.18 9.69683 99.9551 10.3542 98.9059 11.243C98.3596 11.7229 97.8716 12.2653 97.4519 12.859C97.0251 13.4978 96.6569 14.1739 96.3519 14.879C95.7059 16.293 95.2309 17.909 94.5849 19.423C93.9951 21.1025 92.9456 22.5827 91.5559 23.695C90.0559 24.816 88.1559 25.095 86.4059 25.583C85.5193 25.7832 84.6706 26.1242 83.8919 26.593C83.1326 27.0915 82.5633 27.8313 82.2759 28.693C81.6499 30.44 81.9429 32.47 81.4279 34.469C81.1818 35.5066 80.6039 36.4356 79.7819 37.115C78.9431 37.7462 77.9997 38.2248 76.9949 38.529C75.0659 39.185 73.0159 39.61 71.6429 40.963C70.2699 42.316 69.9769 44.346 69.7749 46.214C69.5729 48.082 69.4619 50.114 68.4219 51.788C67.9131 52.6087 67.1906 53.2755 66.3319 53.717C65.5131 54.1293 64.6489 54.4445 63.7569 54.656C62.0787 54.9393 60.4541 55.4789 58.9399 56.256C58.2925 56.7054 57.7406 57.2786 57.316 57.9425C56.8913 58.6064 56.6024 59.3478 56.4659 60.124C56.0819 61.624 55.9659 63.153 55.5469 64.587C55.1836 65.9603 54.6438 67.2806 53.9409 68.515C52.741 70.6385 51.1352 72.5053 49.2149 74.009C47.7775 75.1532 46.1693 76.0643 44.4489 76.709C43.3713 77.1318 42.2501 77.4337 41.1059 77.609L40.2169 77.7C40.1121 77.7162 40.0057 77.7206 39.8999 77.713Z" fill="#455A64"/>
<path d="M64.0559 26.011C63.8017 25.9232 63.573 25.7741 63.3899 25.577C62.8669 25.0253 62.5443 24.314 62.4739 23.557C62.4277 23.01 62.4934 22.4593 62.6671 21.9385C62.8407 21.4177 63.1187 20.9378 63.4839 20.528C64.3928 19.5223 65.6123 18.8502 66.9479 18.619C68.2488 18.408 69.5751 18.408 70.8759 18.619C71.9327 18.7685 72.9714 19.0255 73.9759 19.386C74.6502 19.6247 75.3051 19.9149 75.9349 20.254C76.3689 20.506 76.6009 20.668 76.5809 20.698C76.5609 20.728 75.5709 20.254 73.8539 19.688C72.8646 19.3874 71.8507 19.1746 70.8239 19.052C69.5724 18.8813 68.3023 18.9019 67.0569 19.113C65.8316 19.3211 64.7079 19.9241 63.8569 20.83C63.5134 21.1907 63.2467 21.6174 63.073 22.0843C62.8994 22.5512 62.8225 23.0485 62.8469 23.546C62.8906 24.2272 63.1341 24.8804 63.5469 25.424C63.6972 25.6357 63.8677 25.8322 64.0559 26.011Z" fill="#455A64"/>
<path d="M69.5589 28.737C69.3662 28.2088 69.3414 27.6339 69.4879 27.091C69.7095 25.7398 70.41 24.5134 71.4614 23.6363C72.5128 22.7591 73.8449 22.2897 75.2139 22.314C75.7732 22.2776 76.331 22.404 76.8199 22.678C76.8199 22.769 76.1939 22.617 75.2199 22.678C73.9646 22.7693 72.767 23.2413 71.7869 24.031C70.8345 24.8505 70.1575 25.9433 69.8479 27.161C69.6189 28.111 69.6189 28.737 69.5589 28.737Z" fill="#455A64"/>
<path d="M77.3038 74.527C65.0448 76.688 56.0168 87.281 56.0168 87.281C55.5274 87.745 55.075 88.2465 54.6638 88.781C42.4148 105.312 20.2188 135.789 19.4008 140.969C18.0008 149.724 44.0208 195.278 44.0208 195.278L58.2798 190.653L44.1418 144.968L66.5909 113.633L72.6498 128.871C95.8748 115.93 77.3038 74.527 77.3038 74.527Z" fill="#FFBE9D"/>
<path d="M68.6599 118.383L83.0199 114.778C83.0199 114.778 81.3339 121.988 76.4759 125.523L72.2849 127.381L68.6599 118.383Z" fill="#263238"/>
<path d="M44.3749 190.824L48.6369 204.689L63.2189 196.065L64.0979 192.248C64.2907 191.391 64.2433 190.497 63.961 189.665C63.6787 188.833 63.1725 188.095 62.4979 187.532L57.2669 183.19L55.8729 181.89C55.8729 181.89 42.3209 184.798 42.0379 184.919C41.7549 185.04 44.3749 190.824 44.3749 190.824Z" fill="#FFBE9D"/>
<path d="M48.0799 203.326C48.0183 203.235 47.9676 203.136 47.9289 203.033C47.3129 201.538 45.4649 194.773 46.2119 194.247C46.9589 193.721 49.4939 193.52 49.9119 194.358C50.3299 195.196 51.9319 202.942 51.9319 202.942C51.9319 202.942 52.1239 204.184 50.1949 205.053C49.0389 205.588 48.0799 203.326 48.0799 203.326Z" fill="#FFBE9D"/>
<path d="M52.8259 204.504C52.764 204.414 52.7098 204.32 52.6639 204.221C52.0579 202.721 50.2099 195.95 50.9469 195.421C51.6839 194.892 54.2289 194.694 54.6469 195.532C55.0649 196.37 56.7169 204.116 56.7169 204.116C56.7169 204.116 56.8989 205.358 54.9799 206.227C53.7849 206.776 52.8259 204.504 52.8259 204.504Z" fill="#FFBE9D"/>
<path d="M57.1279 204.57C57.0647 204.478 57.0105 204.38 56.9659 204.277C56.3599 202.782 54.5119 196.016 55.2489 195.491C55.9859 194.966 58.5409 194.764 58.9549 195.602C59.3689 196.44 60.9749 204.185 60.9749 204.185C60.9749 204.185 61.1569 205.427 59.2379 206.296C58.0869 206.832 57.1279 204.57 57.1279 204.57Z" fill="#FFBE9D"/>
<path d="M61.3889 204.57C61.3273 204.479 61.2766 204.38 61.2379 204.277C60.6219 202.782 58.7739 196.016 59.5109 195.491C60.2479 194.966 62.8029 194.764 63.2169 195.602C63.6309 196.44 65.2369 204.185 65.2369 204.185C65.2369 204.185 65.4289 205.427 63.4999 206.296C62.3479 206.832 61.3889 204.57 61.3889 204.57Z" fill="#FFBE9D"/>
<path d="M50.5029 196.316C50.5748 197.462 50.7884 198.595 51.1389 199.689C51.3399 200.801 51.6792 201.883 52.1489 202.91C52.0771 201.764 51.8635 200.631 51.5129 199.537C51.3179 198.424 50.9783 197.341 50.5029 196.316Z" fill="#EB996E"/>
<path d="M54.4719 195.125C54.6603 196.745 54.9984 198.344 55.4819 199.901C55.8056 201.495 56.2742 203.057 56.8819 204.566C56.6806 202.948 56.3428 201.35 55.8719 199.789C55.5468 198.195 55.0783 196.634 54.4719 195.125Z" fill="#EB996E"/>
<g opacity="0.78">
<path opacity="0.78" d="M58.6019 194.346C58.802 195.964 59.1399 197.562 59.6119 199.123C59.9356 200.717 60.4042 202.279 61.0119 203.788C60.8238 202.168 60.4857 200.569 60.0019 199.012C59.6785 197.417 59.2099 195.855 58.6019 194.346Z" fill="#EB996E"/>
</g>
<path d="M64.5699 200.992C63.8417 199.456 63.2863 197.844 62.9139 196.185C62.1669 193.485 61.4399 191.348 61.5609 191.285C62.4213 192.765 63.048 194.369 63.4189 196.041C63.9564 197.652 64.3417 199.309 64.5699 200.992Z" fill="#EB996E"/>
<path d="M76.4559 109.855C75.8641 109.889 75.2707 109.889 74.6789 109.855C73.2718 109.894 71.8879 110.223 70.6144 110.823C69.3408 111.422 68.2052 112.279 67.2789 113.339C66.9313 113.821 66.5564 114.282 66.1559 114.721C66.2991 114.124 66.583 113.57 66.9839 113.105C67.8804 111.924 69.0494 110.977 70.3912 110.346C71.7329 109.715 73.2074 109.418 74.6889 109.48C75.2993 109.463 75.9049 109.592 76.4559 109.855Z" fill="#EB996E"/>
<path d="M44.3129 143.2C43.8477 142.887 43.3994 142.55 42.9699 142.19C41.8735 141.406 40.6256 140.858 39.3059 140.583C37.9862 140.307 36.6236 140.31 35.3049 140.59C34.7647 140.756 34.2151 140.89 33.6589 140.99C34.1064 140.61 34.6405 140.347 35.2139 140.223C36.5797 139.827 38.0217 139.771 39.4139 140.061C40.8073 140.348 42.1065 140.98 43.1929 141.898C44.0199 142.588 44.3729 143.17 44.3129 143.2Z" fill="#EB996E"/>
<path d="M228.215 306.056C231.415 310.596 237.601 309.102 240.474 306.324C243.347 303.546 244.554 299.505 245.665 295.674C248.174 286.901 250.722 277.707 248.845 268.858C248.394 266.151 247.208 263.62 245.416 261.541C244.506 260.521 243.344 259.757 242.046 259.328C240.749 258.898 239.361 258.816 238.022 259.092C234.9 259.916 232.946 262.923 231.548 265.873C227.419 274.462 225.253 283.862 225.206 293.392C224.921 297.842 225.968 302.277 228.213 306.13" fill="#8276F4"/>
<g opacity="0.2">
<path opacity="0.2" d="M228.215 306.056C231.415 310.596 237.601 309.102 240.474 306.324C243.347 303.546 244.554 299.505 245.665 295.674C248.174 286.901 250.722 277.707 248.845 268.858C248.394 266.151 247.208 263.62 245.416 261.541C244.506 260.521 243.344 259.757 242.046 259.328C240.749 258.898 239.361 258.816 238.022 259.092C234.9 259.916 232.946 262.923 231.548 265.873C227.419 274.462 225.253 283.862 225.206 293.392C224.921 297.842 225.968 302.277 228.213 306.13" fill="black"/>
</g>
<path d="M240.148 329.079C245.523 326.558 251.567 325.833 257.387 327.01C260.553 327.303 263.528 328.653 265.834 330.841C267.96 333.178 268.343 337.277 265.934 339.288C264.365 340.348 262.473 340.822 260.59 340.629C256.069 340.629 251.013 339.786 247.431 342.544C245.362 344.095 243.983 346.681 241.531 347.444C240.296 347.745 238.997 347.628 237.835 347.112C236.674 346.595 235.717 345.708 235.114 344.59C233.937 342.322 233.676 339.689 234.386 337.235C234.656 335.525 235.316 333.899 236.315 332.485C237.315 331.07 238.626 329.905 240.148 329.079Z" fill="#8276F4"/>
<path d="M219.481 312.568C221.116 310.431 222.205 307.926 222.652 305.272C223.099 302.618 222.892 299.895 222.048 297.34C220.303 292.231 217.18 287.704 213.026 284.257C208.321 280.041 202.835 276.787 196.879 274.68C194.57 273.75 192.086 273.332 189.6 273.454C188.363 273.529 187.162 273.903 186.102 274.543C185.041 275.184 184.151 276.072 183.509 277.132C181.809 280.388 183.509 284.315 185.209 287.532C188.312 293.187 191.861 298.587 195.821 303.679C199.001 307.779 202.64 311.82 207.486 313.679C212.332 315.538 217.37 315.326 219.937 311.955" fill="#8276F4"/>
<path d="M228.004 374.667C228.169 373.989 228.265 373.296 228.291 372.598C228.444 371.104 228.617 369.207 228.847 366.967C229.123 364.188 229.545 361.426 230.111 358.692C230.848 355.36 231.854 352.093 233.118 348.923C234.361 345.763 236.037 342.792 238.098 340.093C239.789 337.896 241.948 336.103 244.419 334.845C246.088 334.015 247.879 333.459 249.725 333.198C250.418 333.173 251.105 333.07 251.775 332.892C251.081 332.825 250.381 332.825 249.687 332.892C247.77 333.045 245.895 333.538 244.151 334.348C241.544 335.579 239.266 337.411 237.504 339.692C235.345 342.42 233.603 345.453 232.332 348.692C231.052 351.914 230.053 355.24 229.344 358.633C228.804 361.398 228.433 364.194 228.233 367.004C228.061 369.398 228.003 371.333 227.965 372.75C227.912 373.389 227.925 374.031 228.004 374.667Z" fill="#263238"/>
<path d="M228.388 370.338C228.436 370.02 228.436 369.698 228.388 369.38V366.622C228.388 364.247 228.388 360.876 228.503 356.547C228.714 348.047 229.461 336.301 230.859 323.39C232.257 310.479 234.173 298.872 235.897 290.54C236.318 288.433 236.721 286.555 237.104 284.908C237.468 283.261 237.793 281.843 238.104 280.694C238.415 279.545 238.564 278.778 238.736 278.031C238.822 277.717 238.879 277.397 238.908 277.073C238.752 277.356 238.636 277.659 238.563 277.973L237.778 280.616C237.414 281.746 237.05 283.164 236.648 284.811C236.246 286.458 235.767 288.316 235.326 290.404C232.982 301.265 231.217 312.243 230.039 323.292C228.622 336.221 227.989 348.001 227.932 356.544C227.932 360.796 227.932 364.206 228.085 366.638C228.085 367.749 228.2 368.649 228.238 369.377C228.264 369.701 228.314 370.022 228.388 370.338Z" fill="#263238"/>
<path d="M228.445 347.621C228.537 346.666 228.537 345.703 228.445 344.748C228.291 342.149 228.003 339.559 227.583 336.99C226.952 333.172 226.108 329.393 225.055 325.67C223.799 321.094 222.218 316.613 220.324 312.262C217.042 304.272 212.337 296.944 206.437 290.636C205.415 289.548 204.321 288.53 203.162 287.59C202.662 287.169 202.223 286.747 201.762 286.403L200.498 285.541C199.734 284.964 198.927 284.446 198.085 283.99C200.866 286.173 203.508 288.527 205.996 291.039C211.697 297.404 216.276 304.691 219.538 312.588C221.419 316.913 223.006 321.361 224.288 325.9C225.533 330.056 226.357 333.868 226.988 337.086C227.619 340.304 227.907 342.947 228.118 344.748C228.157 345.712 228.266 346.673 228.445 347.621Z" fill="#263238"/>
<path d="M239.7 3.825L261.555 1.975L261.62 2.00501L261.783 1.992C272.523 1.169 283.801 7.37 293.221 20.878C312.139 47.962 316.047 94.27 301.99 124.194C295 139.074 284.883 147.094 274.161 148.094L273.998 148.107L273.934 148.077L252.078 149.927L252.778 140.672C248.77 137.357 245.252 133.492 242.327 129.191C223.435 102.052 219.519 55.785 233.58 25.852C235.737 21.1622 238.539 16.7967 241.904 12.882L239.7 3.825Z" fill="#8276F4"/>
<path opacity="0.4" d="M239.7 3.825L261.555 1.975L261.62 2.00501L261.783 1.992C272.523 1.169 283.801 7.37 293.221 20.878C312.139 47.962 316.047 94.27 301.99 124.194C295 139.074 284.883 147.094 274.161 148.094L273.998 148.107L273.934 148.077L252.078 149.927L252.778 140.672C248.77 137.357 245.252 133.492 242.327 129.191C223.435 102.052 219.519 55.785 233.58 25.852C235.737 21.1622 238.539 16.7967 241.904 12.882L239.7 3.825Z" fill="white"/>
<path opacity="0.4" d="M305.013 116.688C304.135 119.24 303.126 121.745 301.99 124.193C295 139.073 284.883 147.093 274.161 148.093L273.998 148.106L273.934 148.076L252.078 149.925L252.778 140.67C251.925 139.97 251.07 139.221 250.22 138.419L252.974 121.037L305.013 116.688Z" fill="#8276F4"/>
<path d="M251.789 149.941C275.08 147.976 291.203 113.682 287.801 73.3432C284.399 33.004 262.76 1.89495 239.469 3.85928C216.177 5.82361 200.054 40.1174 203.456 80.4567C206.858 120.796 228.497 151.905 251.789 149.941Z" fill="#8276F4"/>
<path d="M241.639 139.992C253.283 145.462 264.82 138.955 272.502 122.603C285.22 95.53 281.527 51.923 264.446 27.387C259.96 20.951 254.872 16.274 249.717 13.852C238.073 8.382 226.54 14.88 218.855 31.241C206.141 58.305 209.834 101.912 226.91 126.457C231.387 132.889 236.484 137.57 241.638 139.992H241.639Z" fill="#8276F4"/>
<path opacity="0.15" d="M241.639 139.992C253.283 145.462 264.82 138.955 272.502 122.603C285.22 95.53 281.527 51.923 264.446 27.387C259.96 20.951 254.872 16.274 249.717 13.852C238.073 8.382 226.54 14.88 218.855 31.241C206.141 58.305 209.834 101.912 226.91 126.457C231.387 132.889 236.484 137.57 241.638 139.992H241.639Z" fill="black"/>
<path d="M224.385 30.706C229.28 20.286 235.731 13.889 242.785 12.014C245.195 12.1844 247.551 12.8101 249.728 13.858C254.883 16.28 259.972 20.958 264.457 27.393C281.519 51.921 285.208 95.56 272.503 122.605C267.612 133.015 261.155 139.422 254.103 141.297C251.694 141.12 249.338 140.494 247.159 139.452C242.004 137.03 236.916 132.352 232.44 125.922C215.355 101.37 211.671 57.768 224.385 30.706Z" fill="#FAFAFA"/>
<path d="M230.829 77.099C231.081 77.2166 231.352 77.2864 231.629 77.305L253.754 78.895L251.527 35.017C251.529 34.4171 251.294 33.8407 250.871 33.4147C250.449 32.9888 249.874 32.748 249.274 32.7455C248.674 32.743 248.098 32.9789 247.672 33.4013C247.246 33.8237 247.005 34.3981 247.003 34.998C247.002 35.0788 247.006 35.1597 247.015 35.24L248.898 73.981L231.957 72.775C231.432 72.7407 230.911 72.8904 230.485 73.1984C230.058 73.5064 229.753 73.9534 229.62 74.4625C229.488 74.9716 229.537 75.511 229.759 75.9878C229.981 76.4646 230.363 76.8491 230.838 77.075L230.829 77.099Z" fill="#37474F"/>
<path d="M247.574 84.106C246.223 81.9212 245.406 79.4487 245.189 76.889C244.973 74.3293 245.363 71.7547 246.328 69.374C248.333 65.105 252.143 64.786 254.835 68.65C256.186 70.8368 257.003 73.3114 257.219 75.873C257.435 78.4346 257.043 81.0109 256.077 83.393C254.084 87.631 250.262 87.979 247.574 84.106Z" fill="#455A64"/>
<path d="M231.937 117.394C232.337 117.972 232.937 117.862 233.237 117.213L236.937 109.334C237.098 108.967 237.17 108.567 237.146 108.167C237.122 107.768 237.003 107.379 236.8 107.034C236.4 106.465 235.8 106.566 235.494 107.224L231.794 115.094C231.633 115.461 231.562 115.861 231.587 116.261C231.612 116.661 231.732 117.05 231.937 117.394Z" fill="#8276F4"/>
<path d="M264.385 48.535C264.785 49.113 265.372 48.999 265.677 48.35L269.383 40.461C269.545 40.0963 269.618 39.6983 269.595 39.2999C269.573 38.9015 269.456 38.5142 269.254 38.17C268.854 37.601 268.254 37.702 267.954 38.36L264.254 46.239C264.092 46.6047 264.02 47.0036 264.043 47.4028C264.065 47.802 264.183 48.19 264.385 48.535Z" fill="#8276F4"/>
<path d="M274.731 113.094C274.871 112.725 274.922 112.328 274.879 111.936C274.837 111.544 274.702 111.167 274.486 110.837L269.472 103.673C269.037 103.056 268.459 103.073 268.163 103.705C268.024 104.074 267.974 104.471 268.017 104.862C268.059 105.254 268.193 105.631 268.407 105.962L273.375 113.105C273.856 113.756 274.443 113.741 274.731 113.094Z" fill="#8276F4"/>
<path d="M231.528 50.889C231.666 50.5199 231.716 50.1234 231.674 49.7314C231.631 49.3394 231.497 48.9628 231.283 48.632L226.311 41.471C225.885 40.858 225.298 40.871 225.011 41.516C224.871 41.885 224.82 42.282 224.862 42.6744C224.905 43.0669 225.04 43.4437 225.256 43.774L230.224 50.917C230.646 51.53 231.232 51.515 231.528 50.889Z" fill="#8276F4"/>
</svg>
