<svg width="18" height="21" viewBox="0 0 18 21" fill="none" xmlns="http://www.w3.org/2000/svg">
<path opacity="0.9" d="M8.37156 0.702175C8.24943 0.702175 8.1285 0.726231 8.01566 0.772968C7.90283 0.819705 7.80031 0.888209 7.71395 0.974567C7.62759 1.06093 7.55909 1.16345 7.51235 1.27628C7.46561 1.38911 7.44156 1.51005 7.44156 1.63218V2.63218C5.89247 2.85759 4.47616 3.63272 3.45132 4.81601C2.42647 5.9993 1.86149 7.51178 1.85956 9.07718V14.7962C1.86816 14.9411 1.83884 15.0857 1.77448 15.2159C1.71012 15.346 1.61295 15.4571 1.49256 15.5382C0.940179 15.8283 0.500996 16.2952 0.245193 16.8643C-0.0106099 17.4334 -0.068267 18.0719 0.0814356 18.6776C0.231138 19.2833 0.57956 19.8214 1.07102 20.2058C1.56248 20.5902 2.16861 20.7988 2.79256 20.7982H13.9576C14.5815 20.7988 15.1876 20.5902 15.6791 20.2058C16.1706 19.8214 16.519 19.2833 16.6687 18.6776C16.8184 18.0719 16.7607 17.4334 16.5049 16.8643C16.2491 16.2952 15.8099 15.8283 15.2576 15.5382C15.1372 15.4571 15.04 15.346 14.9756 15.2159C14.9113 15.0857 14.882 14.9411 14.8906 14.7962V9.07418C14.8886 7.50878 14.3236 5.9963 13.2988 4.81301C12.274 3.62972 10.8576 2.85459 9.30855 2.62918V1.62918C9.30816 1.50671 9.28359 1.38552 9.23624 1.27258C9.18888 1.15963 9.1197 1.05715 9.03264 0.971019C8.94558 0.884887 8.84236 0.8168 8.72891 0.770664C8.61547 0.724528 8.49402 0.701252 8.37156 0.702175ZM13.0226 9.07418V14.7962C13.0103 15.2801 13.1303 15.7582 13.3698 16.1788C13.6093 16.5995 13.9592 16.9468 14.3816 17.1832C14.5666 17.2789 14.714 17.4341 14.8002 17.6238C14.8864 17.8134 14.9064 18.0265 14.8569 18.2289C14.8074 18.4312 14.6913 18.6111 14.5273 18.7395C14.3633 18.868 14.1609 18.9376 13.9526 18.9372H2.79456C2.58624 18.9376 2.38382 18.868 2.21982 18.7395C2.05582 18.6111 1.93975 18.4312 1.89026 18.2289C1.84077 18.0265 1.86072 17.8134 1.94692 17.6238C2.03312 17.4341 2.18056 17.2789 2.36556 17.1832C2.78797 16.9468 3.13779 16.5995 3.37729 16.1788C3.61679 15.7582 3.73686 15.2801 3.72456 14.7962V9.07418C3.74979 7.85762 4.25078 6.6994 5.12008 5.84794C5.98938 4.99649 7.15774 4.51962 8.37456 4.51962C9.59138 4.51962 10.7597 4.99649 11.629 5.84794C12.4983 6.6994 12.9993 7.85762 13.0246 9.07418H13.0226Z" fill="white"/>
<path d="M12.7926 11.211C15.2321 11.211 17.2096 9.23339 17.2096 6.79395C17.2096 4.35451 15.2321 2.37695 12.7926 2.37695C10.3532 2.37695 8.37561 4.35451 8.37561 6.79395C8.37561 9.23339 10.3532 11.211 12.7926 11.211Z" fill="#FF8F15"/>
<path d="M12.7926 10.211C14.6798 10.211 16.2096 8.68111 16.2096 6.79395C16.2096 4.9068 14.6798 3.37695 12.7926 3.37695C10.9055 3.37695 9.37561 4.9068 9.37561 6.79395C9.37561 8.68111 10.9055 10.211 12.7926 10.211Z" stroke="#171433" stroke-width="2"/>
</svg>
