<svg width="18" height="15" viewBox="0 0 18 15" fill="none" xmlns="http://www.w3.org/2000/svg">
<path d="M15.9121 1.05448C16.4815 1.05448 16.9385 1.51494 16.942 2.08436V10.6819C16.942 11.2513 16.4815 11.7083 15.9121 11.7083H10.9842L10.6749 12.0176L9.02285 13.6696C9.00879 13.6837 8.9877 13.6837 8.97364 13.6696L7.32162 12.0176L7.0123 11.7083H2.08436C1.51494 11.7083 1.058 11.2478 1.05448 10.6819V2.08436C1.05448 1.51494 1.51494 1.058 2.08436 1.05448H15.9121ZM15.9121 0H2.08436C0.931459 0 0 0.934974 0 2.08436V10.6819C0 11.8313 0.931459 12.7627 2.08436 12.7627H6.57997L8.23199 14.4148C8.65729 14.8401 9.34622 14.8401 9.77153 14.4148L11.4236 12.7627H15.9156C17.065 12.7627 18 11.8313 18 10.6819V2.08436C17.9965 0.934974 17.065 0 15.9121 0Z" fill="#FF508B"/>
<path d="M9.3567 2.73878L10.3901 4.83017L12.6959 5.16409C12.9138 5.19572 13.0685 5.39959 13.0368 5.61751C13.0228 5.70539 12.9841 5.78623 12.9208 5.84599L11.2477 7.47692L11.6414 9.77569C11.6766 9.99361 11.5289 10.201 11.311 10.2361C11.2231 10.2502 11.1353 10.2361 11.0579 10.1975L8.99817 9.11136L6.9349 10.194C6.73807 10.2959 6.49553 10.2221 6.3936 10.0252C6.35142 9.94792 6.33736 9.86005 6.35494 9.77217L6.75213 7.4734L5.08253 5.84599C4.92436 5.69133 4.92084 5.43825 5.0755 5.28008C5.13877 5.21681 5.21961 5.17463 5.30397 5.16409L7.60977 4.83017L8.64316 2.73878C8.74158 2.54194 8.98411 2.4611 9.18095 2.55952C9.25476 2.59818 9.31803 2.66145 9.3567 2.73878Z" fill="#FF508B"/>
</svg>
