<svg width="36" height="49" viewBox="0 0 36 49" fill="none" xmlns="http://www.w3.org/2000/svg">
<path d="M16.4396 0C16.041 1.26529 15.6337 2.52674 15.2513 3.79682C15.1531 4.12106 15.0119 4.24768 14.6848 4.24672C10.6077 4.23617 6.53062 4.23425 2.45257 4.24864C2.08063 4.2496 1.93471 4.09516 1.8279 3.74406C1.44546 2.49125 1.03632 1.24706 0.636719 0H16.4396Z" fill="white"/>
<path d="M15.2313 42.0873C15.2428 45.7297 12.6973 48.291 9.8038 48.8732C8.02324 49.2311 6.2627 48.8147 4.85407 47.8794C4.76538 47.8209 4.67859 47.7605 4.59371 47.6972C4.09492 47.3326 3.64573 46.9 3.26234 46.4117C3.10593 46.2132 2.96097 46.004 2.82745 45.7873C2.57948 45.3853 2.37444 44.9546 2.21803 44.5009C2.14746 44.2975 2.08737 44.0893 2.03778 43.8764C1.94432 43.4821 1.88709 43.0725 1.87088 42.6514C1.86993 42.6312 1.86897 42.6111 1.86897 42.5909C1.86039 42.3828 1.85562 42.1746 1.85371 41.9664C1.85276 41.9079 1.85276 41.8494 1.85276 41.7909V36.8593C1.85276 36.6511 1.85181 36.4429 1.85276 36.2348C1.85181 35.8069 1.85181 35.3781 1.85276 34.9493C1.85181 34.7412 1.85181 34.533 1.85276 34.3248C1.85181 33.896 1.85181 33.4672 1.85276 33.0384C1.85181 32.8303 1.85181 32.6221 1.85276 32.414C1.85181 31.9861 1.85181 31.5573 1.85276 31.1285C1.85181 30.9204 1.85181 30.7122 1.85276 30.504C1.85181 30.0752 1.85181 29.6464 1.85181 29.2176V16.0909C3.98429 16.0909 6.02904 16.088 8.07378 16.0918C10.2778 16.0957 12.4828 16.1158 14.6868 16.1024C15.0959 16.1005 15.2323 16.1993 15.2323 16.629C15.2199 25.1158 15.2046 33.6015 15.2313 42.0873Z" fill="#FF8E15"/>
<path d="M29.1382 36.1982C24.9057 36.9109 21.2988 34.0379 20.5043 30.3514C20.1438 28.6813 20.5005 27.1273 21.0823 25.5895C22.3888 22.1371 24.1933 18.936 26.0406 15.7589C26.6138 14.7727 27.2146 13.8019 27.8288 12.7812C27.948 12.9251 28.0386 13.0115 28.1025 13.1151C30.3418 16.745 32.481 20.4315 34.17 24.3597C34.7536 25.7162 35.3192 27.0946 35.3774 28.6045C35.5204 32.2882 32.7566 35.589 29.1382 36.1982Z" fill="#FF8E15"/>
<path d="M15.2323 4.01562H1.85181V16.4575H15.2323V4.01562Z" fill="white"/>
<path d="M15.8386 3.10156H0.952637V4.96231H15.8386V3.10156Z" fill="#FF8E15"/>
<path d="M4.85407 20.9512H1.85181V21.5757H4.85407V20.9512Z" fill="white"/>
<path d="M4.85407 22.8613H1.85181V23.4858H4.85407V22.8613Z" fill="white"/>
<path d="M4.85407 24.7715H1.85181V25.396H4.85407V24.7715Z" fill="white"/>
<path d="M4.85407 26.6816H1.85181V27.3061H4.85407V26.6816Z" fill="white"/>
<path d="M4.85407 28.5918H1.85181V29.2163H4.85407V28.5918Z" fill="white"/>
<path d="M4.85408 30.5039V31.1284H1.85277C1.85181 30.9202 1.85181 30.7121 1.85277 30.5039H4.85408Z" fill="white"/>
<path d="M4.85408 32.4121V33.0366H1.85277C1.85181 32.8284 1.85181 32.6203 1.85277 32.4121H4.85408Z" fill="white"/>
<path d="M4.85408 34.3242V34.9487H1.85277C1.85181 34.7405 1.85181 34.5324 1.85277 34.3242H4.85408Z" fill="white"/>
<path d="M4.85403 36.2344V36.8589H1.85272C1.85272 36.6507 1.85177 36.4425 1.85272 36.2344H4.85403Z" fill="white"/>
<path d="M4.85409 38.1445H1.85278V38.769H4.85409V38.1445Z" fill="white"/>
<path d="M4.85409 40.0547H1.85278V40.6792H4.85409V40.0547Z" fill="white"/>
<path d="M4.85387 41.9668V42.5913H1.86877C1.86019 42.3831 1.85542 42.175 1.85352 41.9668H4.85387Z" fill="white"/>
<path d="M4.85413 43.875V44.4995H2.21809C2.14752 44.2961 2.08743 44.088 2.03784 43.875H4.85413Z" fill="white"/>
<path d="M4.85402 45.7852V46.4096H3.26228C3.10587 46.2111 2.96091 46.002 2.82739 45.7852H4.85402Z" fill="white"/>
<path d="M4.85387 47.6953V47.8776C4.76517 47.8191 4.67839 47.7586 4.59351 47.6953H4.85387Z" fill="white"/>
</svg>
