<svg width="36" height="42" viewBox="0 0 36 42" fill="none" xmlns="http://www.w3.org/2000/svg">
<path d="M13.4592 38.6692C13.7885 38.6692 14.0485 38.4064 14.0485 38.0734C14.0485 37.7404 13.7885 37.4775 13.4592 37.4775H13.1299C12.8006 37.4775 12.5406 37.7404 12.5406 38.0734C12.5406 38.4064 12.8006 38.6692 13.1299 38.6692H13.4592Z" fill="white"/>
<path d="M25.2443 17.5877C24.6377 17.5877 24.1524 18.0784 24.1524 18.6918V34.1488H9.35157C8.74498 34.1488 8.2597 34.6394 8.2597 35.2528C8.2597 35.8662 8.74498 36.3569 9.35157 36.3569H24.0138C23.5285 38.3547 21.7434 39.7918 19.6636 39.7918H6.90787C4.82812 39.7918 3.04301 38.3547 2.55773 36.3569H5.97198C6.57857 36.3569 7.06385 35.8662 7.06385 35.2528C7.06385 34.6394 6.57857 34.1488 5.97198 34.1488H2.41908V12.5055H18.7624C19.369 12.5055 19.8543 12.0148 19.8543 11.4014C19.8543 10.788 19.369 10.2973 18.7624 10.2973H2.55773C3.04301 8.29948 4.82812 6.86244 6.90787 6.86244H15.8508C16.4574 6.86244 16.9426 6.37174 16.9426 5.75837C16.9426 5.145 16.4574 4.6543 15.8508 4.6543H6.90787C3.23365 4.6543 0.235352 7.68611 0.235352 11.4014V35.2528C0.235352 38.9681 3.23365 41.9999 6.90787 41.9999H19.6636C23.3379 41.9999 26.3362 38.9681 26.3362 35.2528V18.6918C26.3362 18.3938 26.2322 18.1134 26.0242 17.9031C25.8162 17.6928 25.5389 17.5702 25.2443 17.5702V17.5877Z" fill="white"/>
<path d="M10.8939 7.98535C10.5647 7.98535 10.3047 8.24823 10.3047 8.5812C10.3047 8.91417 10.5647 9.17705 10.8939 9.17705H15.6947C16.024 9.17705 16.284 8.91417 16.284 8.5812C16.284 8.24823 16.024 7.98535 15.6947 7.98535H10.8939Z" fill="white"/>
<path d="M30.7903 1.58979C30.5823 1.85266 30.6343 2.22068 30.8769 2.43098C32.0035 3.34228 32.662 4.70922 32.662 6.16379V6.21637C32.662 6.54934 32.922 6.81221 33.2513 6.81221C33.5806 6.81221 33.8406 6.54934 33.8406 6.21637V6.16379C33.8406 4.3412 33.026 2.64128 31.6222 1.50216C31.3622 1.29186 30.9982 1.34444 30.7903 1.58979Z" fill="white"/>
<path d="M32.8009 0.149999C32.541 -0.0427754 32.177 0.00979931 31.969 0.272673C31.7784 0.535547 31.8304 0.903571 32.0903 1.11387C33.6675 2.32309 34.586 4.16321 34.586 6.17857V6.72185C34.586 7.05482 34.846 7.31769 35.1753 7.31769C35.5046 7.31769 35.7646 7.05482 35.7646 6.72185V6.17857C35.7646 3.79518 34.69 1.60457 32.8009 0.167524V0.149999Z" fill="white"/>
<path d="M20.0621 6.19749C20.0621 6.53046 20.3221 6.79334 20.6514 6.79334C20.9807 6.79334 21.2407 6.53046 21.2407 6.19749V6.14492C21.2407 4.69035 21.8819 3.3234 23.0258 2.41211C23.2857 2.20181 23.3204 1.83378 23.1124 1.57091C22.9045 1.30803 22.5405 1.27298 22.2805 1.48328C20.8767 2.6224 20.0621 4.32232 20.0621 6.14492V6.19749Z" fill="white"/>
<path d="M18.7101 7.28351C19.0394 7.28351 19.2994 7.02064 19.2994 6.68767V6.14439C19.2994 4.14655 20.2006 2.30643 21.7951 1.07969C22.055 0.886916 22.107 0.501367 21.9164 0.238494C21.7257 -0.0243804 21.3445 -0.0769551 21.0845 0.115819C19.1954 1.55286 18.1208 3.74348 18.1208 6.12687V6.67014C18.1208 7.00311 18.3808 7.26599 18.7101 7.26599V7.28351Z" fill="white"/>
<path d="M31.9859 11.2964C31.8472 11.2964 31.7259 11.1737 31.7259 11.0335V6.68733C31.7259 4.35651 30.1141 2.34115 27.9304 1.8154V1.62262C27.9304 1.00925 27.4451 0.518555 26.8385 0.518555C26.2319 0.518555 25.7466 1.00925 25.7466 1.62262V1.8154C24.8627 2.0257 24.0482 2.48135 23.3896 3.14729C22.471 4.07611 21.9511 5.32038 21.9511 6.63475V11.016C21.9511 11.1562 21.8298 11.2789 21.6911 11.2789C20.7726 11.2789 20.01 12.0324 20.01 12.9788V13.6272C20.01 14.556 20.7553 15.3271 21.6911 15.3271H24.3082C24.7414 16.4137 25.7986 17.1497 26.9945 17.1497C28.1903 17.1497 29.2302 16.4137 29.6808 15.3271H32.0032C32.9218 15.3271 33.6843 14.5735 33.6843 13.6272V12.9788C33.6843 12.05 32.9391 11.2789 32.0032 11.2789L31.9859 11.2964ZM28.7969 13.1365H22.9736C23.6669 12.6984 24.1348 11.9273 24.1348 11.0335V6.65228C24.1348 5.91623 24.4121 5.23276 24.9321 4.72454C25.4347 4.21631 26.1279 3.91839 26.8732 3.91839C28.3463 3.91839 29.5422 5.18018 29.5422 6.70485V11.051C29.5422 11.9448 30.0101 12.7159 30.7034 13.154H28.7969V13.1365Z" fill="white"/>
<path d="M18.4505 21.8637L14.7416 18.1134C12.9912 16.3434 9.90624 16.3258 8.15579 18.1134C6.33601 19.9535 6.33601 22.9503 8.15579 24.7904L11.0501 27.717H7.87849C7.27189 27.717 6.78662 28.2077 6.78662 28.8211C6.78662 29.4345 7.27189 29.9252 7.87849 29.9252H18.7278C19.3344 29.9252 19.8197 29.4345 19.8197 28.8211C19.8197 28.3304 19.5077 27.9273 19.0745 27.7696C19.5597 27.0161 19.8197 26.1398 19.8197 25.211C19.8197 23.9492 19.3344 22.775 18.4505 21.8812V21.8637ZM14.2737 20.7597L10.7728 24.2997L9.68093 23.1956C8.71039 22.2142 8.71039 20.637 9.68093 19.6556C10.6168 18.7092 12.246 18.7092 13.1818 19.6556L14.2564 20.7597H14.2737ZM17.636 25.1935C17.636 25.8594 17.376 26.4903 16.908 26.9635C15.9722 27.9098 14.343 27.9098 13.4071 26.9635L12.3326 25.8769L15.8335 22.3369L16.9947 23.5286C17.4107 23.9842 17.636 24.5801 17.636 25.211V25.1935Z" fill="white"/>
</svg>
