<svg width="68" height="68" viewBox="0 0 68 68" fill="none" xmlns="http://www.w3.org/2000/svg">
<path d="M6.87861 40.2238C6.52944 40.2238 6.21519 39.9794 6.14536 39.6215C5.4994 36.4266 5.41211 33.1706 5.87476 29.967C6.31994 26.8682 7.27142 23.8828 8.703 21.0808C8.89504 20.7142 9.34022 20.5658 9.70685 20.7578C10.0735 20.9498 10.2219 21.395 10.0298 21.7617C8.66808 24.4153 7.76898 27.2436 7.34998 30.1765C6.91352 33.2143 7.00081 36.2957 7.61185 39.3247C7.69042 39.7262 7.42854 40.119 7.027 40.2063C6.98336 40.2238 6.93098 40.2238 6.87861 40.2238Z" fill="#FF508B"/>
<path d="M11.6535 18.4534C11.4964 18.4534 11.348 18.4098 11.2171 18.3138C10.8854 18.0693 10.8068 17.6067 11.0512 17.2663C15.2412 11.5225 21.3952 7.57692 28.3785 6.17152C34.5675 4.92326 40.835 5.72634 46.4915 8.51093C46.8581 8.69425 47.0153 9.13943 46.832 9.51478C46.6486 9.88141 46.2035 10.0385 45.8281 9.85522C40.4684 7.22775 34.5326 6.45959 28.6666 7.64675C22.0499 8.98231 16.2276 12.7096 12.2558 18.1566C12.1162 18.3399 11.8892 18.4534 11.6535 18.4534Z" fill="#FF508B"/>
<path d="M61.104 29.2951C60.7549 29.2951 60.4406 29.0507 60.3708 28.6928C59.0003 21.9015 55.1246 15.9657 49.4506 11.9852C49.1102 11.7496 49.0316 11.2782 49.2673 10.9465C49.503 10.606 49.9744 10.5275 50.3061 10.7632C56.2943 14.9619 60.3882 21.2294 61.8285 28.396C61.9071 28.7976 61.6452 29.1904 61.2437 29.2777C61.2088 29.2864 61.1564 29.2951 61.104 29.2951Z" fill="#FF508B"/>
<path d="M61.6714 35.3181C61.6626 35.3181 61.6626 35.3181 61.6539 35.3181C61.2436 35.3094 60.9119 34.9689 60.9207 34.5587C60.9556 32.6033 60.781 30.6218 60.3882 28.6927C60.3096 28.2911 60.5715 27.8983 60.973 27.811C61.3746 27.7325 61.7674 27.9944 61.8547 28.3959C62.265 30.4298 62.457 32.516 62.4134 34.5849C62.4046 34.9951 62.0729 35.3181 61.6714 35.3181Z" fill="#FF508B"/>
<path d="M7.15797 41.4024C6.82626 41.4024 6.52074 41.1754 6.43345 40.835C6.3287 40.4247 6.24141 40.0145 6.16285 39.6216C6.08429 39.2201 6.34616 38.8273 6.7477 38.74C7.14924 38.6614 7.54205 38.9233 7.62934 39.3249C7.70791 39.7002 7.7952 40.0843 7.89122 40.4771C7.98724 40.8786 7.74282 41.2802 7.34128 41.3849C7.28018 41.3937 7.21907 41.4024 7.15797 41.4024Z" fill="#FF508B"/>
<path d="M26.851 61.488C26.6764 61.488 26.5018 61.4269 26.3621 61.3047C26.0566 61.0341 26.0217 60.5627 26.2923 60.2485C29.3213 56.8005 31.5647 52.6541 32.778 48.2547C34.0525 43.6369 34.2183 38.897 33.2669 34.1658C33.1883 33.7643 33.4502 33.3715 33.8517 33.2842C34.2533 33.2056 34.6461 33.4675 34.7334 33.869C35.7372 38.8359 35.5626 43.8028 34.2183 48.6475C32.9439 53.2652 30.587 57.621 27.4096 61.2349C27.27 61.4007 27.0605 61.488 26.851 61.488Z" fill="#FF508B"/>
<path d="M23.2807 60.2574C23.0887 60.2574 22.9054 60.1875 22.757 60.0479C22.4602 59.7598 22.4514 59.2884 22.7395 58.9916C25.2884 56.3816 27.2525 53.3351 28.5793 49.9308C28.7277 49.5467 29.1642 49.3547 29.5482 49.5031C29.9323 49.6514 30.1244 50.0879 29.976 50.472C28.5793 54.0597 26.5018 57.272 23.8132 60.0304C23.6648 60.1875 23.4728 60.2574 23.2807 60.2574Z" fill="#FF508B"/>
<path d="M30.7266 62.23C30.5695 62.23 30.4036 62.1776 30.2639 62.0729C29.941 61.8197 29.8799 61.3483 30.133 61.0254C36.2347 53.2215 38.609 43.1743 36.6537 33.4762L36.6013 33.2231C36.418 32.612 36.0339 32.0883 35.5014 31.7391C34.8904 31.3376 34.1659 31.1892 33.4501 31.3376C32.0971 31.6082 31.1805 32.8477 31.2678 34.1833L31.3376 34.5499C32.1145 38.4082 32.097 42.2926 31.2765 46.116C31.1892 46.5175 30.7964 46.7794 30.3861 46.6921C29.9846 46.6048 29.7227 46.212 29.81 45.8017C30.5345 42.4236 30.5956 38.9843 30.0021 35.5712H29.9846L29.8362 34.8554C29.3736 32.5771 30.8575 30.3424 33.1445 29.8798C34.2531 29.6528 35.3792 29.8798 36.3132 30.4996C37.256 31.1281 37.8932 32.0795 38.1202 33.1794L38.2511 33.8341L38.2336 33.8428C40.0406 43.7679 37.5353 53.9722 31.3027 61.9507C31.1718 62.134 30.9448 62.23 30.7266 62.23Z" fill="#FF508B"/>
<path d="M20.0073 58.6248C19.8065 58.6248 19.6057 58.5463 19.4573 58.3891C19.178 58.0836 19.1955 57.6122 19.4923 57.3329C25.044 52.1391 27.7587 44.5534 26.7374 37.0377C26.6851 36.6274 26.9644 36.252 27.3747 36.1997C27.7849 36.1473 28.1603 36.4266 28.2127 36.8369C29.2951 44.8241 26.4145 52.8985 20.5048 58.4241C20.3739 58.555 20.1906 58.6248 20.0073 58.6248Z" fill="#FF508B"/>
<path d="M41.542 40.8437C41.1318 40.8437 40.8001 40.512 40.7913 40.1017C40.7826 37.6663 40.5382 35.2134 40.0494 32.7954L39.9883 32.5074C39.6129 31.0147 38.7051 29.7228 37.4132 28.8673C36.034 27.9508 34.3841 27.6278 32.7693 27.9595C30.3426 28.4483 28.4396 30.3338 27.9333 32.7605C27.846 33.1621 27.4532 33.4239 27.0517 33.3366C26.6501 33.2494 26.3883 32.8565 26.4755 32.455C27.104 29.4434 29.4609 27.104 32.4725 26.493C34.4802 26.0915 36.5315 26.493 38.2424 27.6278C39.9533 28.7626 41.1143 30.4909 41.5159 32.5074L41.6381 33.1097L41.6293 33.1184C42.0571 35.4316 42.2753 37.7885 42.284 40.1192C42.284 40.512 41.9523 40.8437 41.542 40.8437Z" fill="#FF508B"/>
<path d="M34.8816 62.4047C34.7332 62.4047 34.5935 62.3611 34.4626 62.2738C34.1221 62.0381 34.0349 61.5755 34.2705 61.235C37.7011 56.2158 39.8746 50.3934 40.5643 44.3965C40.6079 43.9863 40.9832 43.6895 41.3935 43.7418C41.8038 43.7855 42.1006 44.1608 42.0482 44.5711C41.3324 50.8124 39.0716 56.8705 35.5014 62.0818C35.353 62.2913 35.1173 62.4047 34.8816 62.4047Z" fill="#FF508B"/>
<path d="M17.0569 56.626C16.8474 56.626 16.6379 56.5387 16.4895 56.3641C16.2189 56.0499 16.2538 55.5785 16.568 55.3079C19.2042 53.0208 21.2119 50.0791 22.3642 46.7882C23.4728 43.6283 23.7696 40.2326 23.2284 36.9156H23.2196L23.08 36.2085C22.4951 33.293 23.0712 30.3251 24.7211 27.846C26.3709 25.3669 28.8761 23.6822 31.7917 23.0973C32.8042 22.8966 33.8343 22.8267 34.8643 22.9053C35.2746 22.9402 35.5801 23.2981 35.5539 23.7084C35.519 24.1187 35.1611 24.4242 34.7508 24.398C33.8692 24.3282 32.9701 24.3805 32.0884 24.5638C29.5657 25.0701 27.3922 26.5366 25.9693 28.6753C24.6599 30.6481 24.1275 32.9787 24.4504 35.3094L24.5727 35.9117C25.3408 39.7176 25.0702 43.6457 23.787 47.2945C22.5388 50.8298 20.3914 53.9898 17.5544 56.4427C17.406 56.5649 17.2314 56.626 17.0569 56.626Z" fill="#FF508B"/>
<path d="M39.2898 61.9071C39.1589 61.9071 39.0279 61.8721 38.9145 61.8023C38.5566 61.5928 38.4431 61.1389 38.6439 60.781C43.7155 52.1304 45.4177 41.9435 43.4362 32.1058L43.3751 31.7828C42.7553 29.1553 41.0531 26.9119 38.6875 25.5851C38.3296 25.3843 38.1987 24.9304 38.3994 24.5725C38.6002 24.2146 39.0541 24.0837 39.412 24.2845C42.2577 25.8732 44.2654 28.6141 44.9114 31.809L45.0423 32.4462H45.0336C46.8929 42.4498 45.0947 52.7502 39.9445 61.5317C39.7961 61.7761 39.543 61.9071 39.2898 61.9071Z" fill="#FF508B"/>
<path d="M14.4292 54.3127C14.211 54.3127 14.0015 54.2167 13.8531 54.0421C13.5912 53.7192 13.6349 53.2565 13.9578 52.9946C16.1663 51.179 17.8859 48.8134 18.9247 46.151C19.0731 45.7669 19.5096 45.5749 19.8937 45.7233C20.2777 45.8717 20.4698 46.3081 20.3214 46.6922C19.1953 49.599 17.3186 52.1828 14.9093 54.1556C14.7696 54.2604 14.5951 54.3127 14.4292 54.3127Z" fill="#FF508B"/>
<path d="M47.8619 48.211C47.8182 48.211 47.7833 48.211 47.7397 48.2023C47.3294 48.1324 47.0588 47.7483 47.1199 47.3468C47.9841 42.0744 47.8881 36.7234 46.8231 31.4336L46.7795 31.2328C46.055 27.8895 44.0909 25.0089 41.2365 23.1147C38.3209 21.1768 34.8293 20.496 31.4075 21.1856C27.9769 21.8752 25.0265 23.8654 23.0886 26.7722C21.2816 29.4957 20.5659 32.7255 21.046 35.9378L21.1769 36.6012C21.5435 38.4256 21.6308 40.2675 21.43 42.0919C21.3864 42.5021 21.0198 42.7989 20.6095 42.7553C20.1992 42.7116 19.9024 42.345 19.9461 41.9347C20.1032 40.5032 20.0596 39.0628 19.8413 37.6313L19.6929 36.898C18.9248 33.0747 19.6842 29.1902 21.8403 25.9429C23.9964 22.6957 27.2873 20.4872 31.1107 19.7191C34.9253 18.9509 38.8185 19.7103 42.0657 21.8664C45.313 24.0225 47.5214 27.3134 48.2896 31.1368L48.3594 31.486C49.3982 36.8369 49.4768 42.249 48.5951 47.5912C48.5428 47.9491 48.2198 48.211 47.8619 48.211Z" fill="#FF508B"/>
<path d="M43.9162 60.5802C43.8028 60.5802 43.698 60.554 43.5933 60.5016C43.2266 60.3183 43.0695 59.8731 43.2528 59.5065C44.4924 56.9663 45.4875 54.2952 46.2207 51.5717C46.3255 51.1702 46.7358 50.9345 47.1373 51.0393C47.5388 51.144 47.7745 51.5543 47.6698 51.9558C46.9191 54.7666 45.889 57.525 44.6058 60.1525C44.4575 60.4231 44.1956 60.5802 43.9162 60.5802Z" fill="#FF508B"/>
<path d="M48.7261 58.1709C48.6388 58.1709 48.5515 58.1534 48.4555 58.1185C48.0714 57.9701 47.8793 57.5424 48.0277 57.1583C51.2226 48.8045 51.9908 39.735 50.2537 30.9272L50.2187 30.7352C49.7386 28.3783 48.7872 26.1961 47.3818 24.2669C47.1374 23.9352 47.2159 23.4638 47.5476 23.2194C47.8793 22.975 48.3507 23.0536 48.5951 23.3853C50.0703 25.4104 51.0829 27.6713 51.6241 30.1329L51.6852 30.4384C53.5271 39.5866 52.7502 49.0053 49.4331 57.6821C49.3109 57.9876 49.0316 58.1709 48.7261 58.1709Z" fill="#FF508B"/>
<path d="M44.9637 21.3864C44.7979 21.3864 44.632 21.334 44.4924 21.2205C40.6253 18.0519 35.6148 16.8036 30.7265 17.79C29.4695 18.0431 28.2474 18.4447 27.0864 18.9684C26.7111 19.143 26.2659 18.9772 26.1001 18.6018C25.9255 18.2265 26.0913 17.7813 26.4667 17.6154C27.7237 17.0393 29.0592 16.6028 30.4297 16.3322C35.7545 15.2585 41.2277 16.6203 45.4351 20.0683C45.7581 20.3302 45.8017 20.8015 45.5398 21.1158C45.3915 21.2904 45.1732 21.3864 44.9637 21.3864Z" fill="#FF508B"/>
<path d="M12.1422 51.7202C11.924 51.7202 11.7058 51.6242 11.5574 51.4408C11.2955 51.1179 11.3479 50.6465 11.6708 50.3933C15.3545 47.4342 17.144 42.7903 16.4282 38.1638L16.3147 37.579C14.9879 30.9797 17.4059 24.2408 22.6346 19.9985C22.9576 19.7366 23.429 19.789 23.6821 20.1032C23.944 20.4262 23.8916 20.8976 23.5774 21.1507C18.9509 24.9043 16.725 30.779 17.659 36.6188L17.79 37.2735C18.8724 42.6419 16.8909 48.115 12.6136 51.5456C12.4739 51.6678 12.3081 51.7202 12.1422 51.7202Z" fill="#FF508B"/>
<path d="M10.187 48.8483C9.97747 48.8483 9.76797 48.761 9.61958 48.5864C9.34897 48.2721 9.39262 47.8008 9.70687 47.5302C12.2732 45.3566 13.5215 42.0046 13.0152 38.6963L12.9279 38.2511C12.701 37.1338 12.5613 35.999 12.5177 34.8554C12.5002 34.4452 12.8232 34.096 13.2334 34.0786C13.6437 34.0611 13.9929 34.3841 14.0103 34.7943C14.0453 35.6323 14.1325 36.4791 14.2722 37.3083L14.4031 37.9543C15.2062 41.9348 13.7746 46.0375 10.6758 48.6649C10.5274 48.7959 10.3616 48.8483 10.187 48.8483Z" fill="#FF508B"/>
<path d="M54.8103 33.3454C54.4436 33.3454 54.1294 33.0748 54.0683 32.7082C53.9548 31.94 53.8239 31.1718 53.6755 30.4211L53.5969 30.0632C52.5407 24.8257 49.5117 20.3128 45.0598 17.3536C40.608 14.3944 35.2745 13.3469 30.037 14.4032C26.0041 15.215 22.3815 17.2052 19.5533 20.1644C16.7861 23.0537 14.9617 26.6589 14.2809 30.587C14.211 30.9973 13.827 31.2679 13.4167 31.198C13.0064 31.1282 12.7358 30.7441 12.8056 30.3338C13.5389 26.1177 15.4942 22.2419 18.4709 19.1344C21.5173 15.9569 25.4105 13.8096 29.7402 12.9367C35.3705 11.8019 41.1055 12.9279 45.8891 16.1053C50.5155 19.178 53.7191 23.8219 54.9499 29.2252H54.9587L55.0721 29.7664C55.2555 30.6568 55.4126 31.5734 55.5522 32.4899C55.6134 32.9002 55.334 33.2756 54.9237 33.3367C54.8801 33.3454 54.8452 33.3454 54.8103 33.3454Z" fill="#FF508B"/>
<path d="M53.6319 54.2429C53.5708 54.2429 53.501 54.2342 53.4399 54.2167C53.0384 54.112 52.8027 53.7017 52.9074 53.3001C54.3303 47.9841 54.8715 42.4935 54.5223 36.9941C54.4961 36.5838 54.8104 36.226 55.2206 36.1998C55.6309 36.1736 55.9888 36.4878 56.015 36.8981C56.3729 42.5546 55.8142 48.2023 54.3477 53.6842C54.2604 54.0247 53.9636 54.2429 53.6319 54.2429Z" fill="#FF508B"/>
<path d="M8.55467 45.6359C8.37136 45.6359 8.18805 45.5661 8.04838 45.4352C7.74286 45.1558 7.7254 44.6844 8.00474 44.3789C9.29665 42.9823 9.8815 41.0619 9.58471 39.2025L9.53234 38.9494C8.21424 32.42 9.52361 25.7597 13.2073 20.2079C16.8997 14.6562 22.5213 10.8765 29.0594 9.55839C31.8004 9.00845 34.585 8.91243 37.3346 9.28778C37.7449 9.34016 38.033 9.71551 37.9719 10.1258C37.9195 10.5361 37.5354 10.8241 37.1339 10.763C34.5501 10.4138 31.9313 10.5011 29.3562 11.0249C23.2109 12.2644 17.921 15.8172 14.4556 21.0372C11.0687 26.135 9.8204 32.228 10.9203 38.2336L11.0076 38.6526C11.4964 41.0706 10.7806 43.5933 9.10461 45.4002C8.95621 45.5574 8.75544 45.6359 8.55467 45.6359Z" fill="#FF508B"/>
<path d="M58.4067 47.7571C58.3717 47.7571 58.3456 47.7571 58.3106 47.7483C57.9004 47.696 57.6123 47.3206 57.6647 46.9191C58.3717 41.2451 58.1797 35.5101 57.0886 29.8536L56.9838 29.3735C55.3078 21.0459 49.2323 14.2546 41.1317 11.6621C40.7389 11.5399 40.5207 11.1122 40.6516 10.7193C40.7738 10.3265 41.2015 10.1083 41.5943 10.2392C49.983 12.9278 56.3291 19.8413 58.3019 28.3784H58.3106L58.459 29.0767C59.6637 35.0475 59.8993 41.1055 59.1486 47.1024C59.105 47.4865 58.782 47.7571 58.4067 47.7571Z" fill="#FF508B"/>
<path d="M2.26953 7.86501V1.46655H8.66799" stroke="#2D2DB2" stroke-width="2" stroke-miterlimit="10" stroke-linecap="round" stroke-linejoin="round"/>
<path d="M65.7305 7.86501V1.46655H59.332" stroke="#2D2DB2" stroke-width="2" stroke-miterlimit="10" stroke-linecap="round" stroke-linejoin="round"/>
<path d="M2.26953 60.1438V66.5423H8.66799" stroke="#2D2DB2" stroke-width="2" stroke-miterlimit="10" stroke-linecap="round" stroke-linejoin="round"/>
<path d="M65.7305 60.1438V66.5423H59.332" stroke="#2D2DB2" stroke-width="2" stroke-miterlimit="10" stroke-linecap="round" stroke-linejoin="round"/>
</svg>
