<svg width="24" height="24" viewBox="0 0 24 24" fill="none" xmlns="http://www.w3.org/2000/svg">
<path fill-rule="evenodd" clip-rule="evenodd" d="M12.0011 16.4247C11.5871 16.4247 11.2511 16.0791 11.2511 15.6534V3.27125C11.2511 2.84552 11.5871 2.5 12.0011 2.5C12.4151 2.5 12.7511 2.84552 12.7511 3.27125V15.6534C12.7511 16.0791 12.4151 16.4247 12.0011 16.4247Z" fill="#2D2DB2"/>
<path fill-rule="evenodd" clip-rule="evenodd" d="M12.0011 16.4243C11.8021 16.4243 11.6101 16.3431 11.4701 16.197L8.55407 13.1871C8.26207 12.8848 8.26307 12.3963 8.55607 12.096C8.85007 11.7958 9.32407 11.7958 9.61607 12.0981L12.0011 14.561L14.3861 12.0981C14.6781 11.7958 15.1521 11.7958 15.4461 12.096C15.7391 12.3963 15.7401 12.8848 15.4481 13.1871L12.5321 16.197C12.3921 16.3431 12.2001 16.4243 12.0011 16.4243Z" fill="#2D2DB2"/>
<mask id="mask0_269_3393" style="mask-type:luminance" maskUnits="userSpaceOnUse" x="2" y="7" width="20" height="15">
<path fill-rule="evenodd" clip-rule="evenodd" d="M2.00024 7.36621H22V21.4996H2.00024V7.36621Z" fill="white"/>
</mask>
<g mask="url(#mask0_269_3393)">
<path fill-rule="evenodd" clip-rule="evenodd" d="M17.5752 21.4996H6.43524C3.99024 21.4996 2.00024 19.4543 2.00024 16.939V11.9156C2.00024 9.40642 3.98524 7.36621 6.42624 7.36621H7.36724C7.78124 7.36621 8.11724 7.71173 8.11724 8.13746C8.11724 8.56319 7.78124 8.90871 7.36724 8.90871H6.42624C4.81224 8.90871 3.50024 10.2569 3.50024 11.9156V16.939C3.50024 18.6038 4.81624 19.9571 6.43524 19.9571H17.5752C19.1872 19.9571 20.5002 18.6069 20.5002 16.9492V11.9269C20.5002 10.262 19.1832 8.90871 17.5662 8.90871H16.6342C16.2202 8.90871 15.8842 8.56319 15.8842 8.13746C15.8842 7.71173 16.2202 7.36621 16.6342 7.36621H17.5662C20.0112 7.36621 22.0002 9.41259 22.0002 11.9269V16.9492C22.0002 19.4584 20.0142 21.4996 17.5752 21.4996Z" fill="#2D2DB2"/>
</g>
</svg>
