<svg width="18" height="18" viewBox="0 0 18 18" fill="none" xmlns="http://www.w3.org/2000/svg">
<path d="M14.1428 13.4282C13.9428 13.4282 13.7714 13.2996 13.7285 13.0996L13 10.1996L12.2714 13.1139C12.2285 13.2996 12.0571 13.4282 11.8571 13.4282C11.6571 13.4282 11.4857 13.2996 11.4428 13.0996L10.3 8.52821C10.2428 8.29964 10.3857 8.07107 10.6142 8.01392C10.8428 7.95678 11.0714 8.09964 11.1285 8.32821L11.8571 11.2282L12.5857 8.31392C12.6285 8.12821 12.8 7.98535 13 7.98535C13.2 7.98535 13.3714 8.11392 13.4142 8.31392L14.1428 11.2282L14.8714 8.31392C14.9285 8.08535 15.1571 7.94249 15.3857 7.99964C15.6142 8.05678 15.7571 8.28535 15.7 8.51392L14.5571 13.0854C14.5142 13.2996 14.3428 13.4282 14.1428 13.4282Z" fill="#FF508B"/>
<path d="M9.28551 11.1429C9.52836 11.1429 9.71408 10.9571 9.71408 10.7143C9.71408 10.4714 9.52836 10.2857 9.28551 10.2857H7.71408V8.85714H9.28551C9.52836 8.85714 9.71408 8.67143 9.71408 8.42857C9.71408 8.18571 9.52836 8 9.28551 8H7.28551C7.04265 8 6.85693 8.18571 6.85693 8.42857V13C6.85693 13.2429 7.04265 13.4286 7.28551 13.4286H9.28551C9.52836 13.4286 9.71408 13.2429 9.71408 13C9.71408 12.7571 9.52836 12.5714 9.28551 12.5714H7.71408V11.1429H9.28551Z" fill="#FF508B"/>
<path d="M5.57129 13.4276C5.41415 13.4276 5.27129 13.3419 5.19986 13.2133L3.42843 10.0705V12.999C3.42843 13.2419 3.24272 13.4276 2.99986 13.4276C2.757 13.4276 2.57129 13.2419 2.57129 12.999V8.42759C2.57129 8.22759 2.69986 8.05617 2.88557 8.01331C3.07129 7.97045 3.27129 8.04188 3.37129 8.21331L5.14272 11.3562V8.42759C5.14272 8.18474 5.32843 7.99902 5.57129 7.99902C5.81415 7.99902 5.99986 8.18474 5.99986 8.42759V12.999C5.99986 13.199 5.87129 13.3705 5.68557 13.4133C5.64272 13.4276 5.61415 13.4276 5.57129 13.4276Z" fill="#FF508B"/>
<path d="M2.14268 2.57199C2.37938 2.57199 2.57125 2.38011 2.57125 2.14342C2.57125 1.90672 2.37938 1.71484 2.14268 1.71484C1.90599 1.71484 1.71411 1.90672 1.71411 2.14342C1.71411 2.38011 1.90599 2.57199 2.14268 2.57199Z" fill="#FF508B"/>
<path d="M3.57164 2.57199C3.80833 2.57199 4.00021 2.38011 4.00021 2.14342C4.00021 1.90672 3.80833 1.71484 3.57164 1.71484C3.33494 1.71484 3.14307 1.90672 3.14307 2.14342C3.14307 2.38011 3.33494 2.57199 3.57164 2.57199Z" fill="#FF508B"/>
<path d="M5.0001 2.57199C5.2368 2.57199 5.42868 2.38011 5.42868 2.14342C5.42868 1.90672 5.2368 1.71484 5.0001 1.71484C4.76341 1.71484 4.57153 1.90672 4.57153 2.14342C4.57153 2.38011 4.76341 2.57199 5.0001 2.57199Z" fill="#FF508B"/>
<path d="M16.1429 18H1.85714C0.828571 18 0 17.1714 0 16.1429V5.85714C0 5.61429 0.185714 5.42857 0.428571 5.42857C0.671429 5.42857 0.857143 5.61429 0.857143 5.85714V16.1429C0.857143 16.7 1.3 17.1429 1.85714 17.1429H16.1429C16.7 17.1429 17.1429 16.7 17.1429 16.1429V1.85714C17.1429 1.3 16.7 0.857143 16.1429 0.857143H1.85714C1.3 0.857143 0.857143 1.3 0.857143 1.85714V3.42857H15.7143C15.9571 3.42857 16.1429 3.61429 16.1429 3.85714C16.1429 4.1 15.9571 4.28571 15.7143 4.28571H0.428571C0.185714 4.28571 0 4.1 0 3.85714V1.85714C0 0.828571 0.828571 0 1.85714 0H16.1429C17.1714 0 18 0.828571 18 1.85714V16.1429C18 17.1714 17.1714 18 16.1429 18Z" fill="#FF508B"/>
<path d="M2.14268 2.57199C1.89983 2.57199 1.71411 2.38627 1.71411 2.14342C1.71411 1.90056 1.89983 1.71484 2.14268 1.71484" fill="#FF508B"/>
</svg>
