<svg width="11" height="15" viewBox="0 0 11 15" fill="none" xmlns="http://www.w3.org/2000/svg">
<path d="M5.66698 0.5C7.06391 0.506616 8.40118 1.06708 9.38541 2.05843C10.3696 3.04978 10.9204 4.39105 10.917 5.788C10.917 9.931 6.15998 14.21 5.95798 14.388C5.8778 14.4593 5.77425 14.4986 5.66698 14.4986C5.5597 14.4986 5.45615 14.4593 5.37598 14.388C5.17598 14.208 0.416976 9.93 0.416976 5.788C0.413518 4.39105 0.964321 3.04978 1.94855 2.05843C2.93277 1.06708 4.27004 0.506616 5.66698 0.5V0.5ZM5.66698 8.667C6.2439 8.667 6.80788 8.49592 7.28757 8.1754C7.76727 7.85487 8.14115 7.3993 8.36193 6.86629C8.58271 6.33328 8.64048 5.74676 8.52793 5.18092C8.41538 4.61508 8.13756 4.09532 7.72961 3.68737C7.32166 3.27942 6.8019 3.0016 6.23605 2.88905C5.67021 2.7765 5.0837 2.83426 4.55069 3.05504C4.01768 3.27582 3.5621 3.6497 3.24158 4.1294C2.92105 4.6091 2.74998 5.17307 2.74998 5.75C2.75077 6.52339 3.05835 7.26488 3.60522 7.81175C4.1521 8.35862 4.89358 8.66621 5.66698 8.667Z" fill="#2D2DB2"/>
</svg>
