<svg width="18" height="18" viewBox="0 0 18 18" fill="none" xmlns="http://www.w3.org/2000/svg">
<path d="M5.66969 1.24414C4.79439 1.24414 3.93874 1.5037 3.21095 1.98999C2.48317 2.47628 1.91592 3.16747 1.58096 3.97614C1.246 4.78482 1.15836 5.67466 1.32912 6.53314C1.49988 7.39162 1.92138 8.18019 2.54031 8.79912C3.15924 9.41806 3.94781 9.83955 4.8063 10.0103C5.66478 10.1811 6.55462 10.0934 7.3633 9.75848C8.17197 9.42351 8.86316 8.85627 9.34945 8.12848C9.83574 7.4007 10.0953 6.54505 10.0953 5.66975C10.094 4.49641 9.62727 3.37151 8.7976 2.54184C7.96793 1.71216 6.84303 1.24547 5.66969 1.24414ZM9.12491 7.32374L8.88327 7.18449C8.81551 7.14536 8.73497 7.13476 8.65939 7.15501C8.58381 7.17526 8.51937 7.22471 8.48024 7.29247C8.44112 7.36023 8.43052 7.44076 8.45077 7.51635C8.47102 7.59193 8.52047 7.65637 8.58823 7.6955L8.83193 7.83623C8.56357 8.22615 8.22609 8.56363 7.83617 8.83199L7.69544 8.58829C7.65631 8.52052 7.59187 8.47108 7.51629 8.45083C7.44071 8.43058 7.36018 8.44118 7.29241 8.4803C7.22465 8.51943 7.1752 8.58387 7.15495 8.65945C7.1347 8.73503 7.1453 8.81556 7.18443 8.88333L7.32398 9.12497C6.89761 9.33035 6.43661 9.45423 5.96473 9.49023V9.21023C5.96473 9.13198 5.93365 9.05694 5.87831 9.00161C5.82298 8.94628 5.74794 8.91519 5.66969 8.91519C5.59144 8.91519 5.51639 8.94628 5.46106 9.00161C5.40573 9.05694 5.37465 9.13198 5.37465 9.21023V9.49023C4.90276 9.45423 4.44176 9.33035 4.0154 9.12497L4.15495 8.88333C4.19407 8.81556 4.20468 8.73503 4.18443 8.65945C4.16417 8.58387 4.11473 8.51943 4.04697 8.4803C3.9792 8.44118 3.89867 8.43058 3.82309 8.45083C3.74751 8.47108 3.68307 8.52052 3.64394 8.58829L3.50321 8.83199C3.11329 8.56363 2.7758 8.22615 2.50744 7.83623L2.75115 7.6955C2.81891 7.65637 2.86836 7.59193 2.88861 7.51635C2.90886 7.44076 2.89826 7.36023 2.85913 7.29247C2.82001 7.22471 2.75557 7.17526 2.67998 7.15501C2.6044 7.13476 2.52387 7.14536 2.45611 7.18449L2.21447 7.32374C2.00905 6.89749 1.88517 6.43658 1.84921 5.96479H2.1292C2.20745 5.96479 2.2825 5.9337 2.33783 5.87837C2.39316 5.82304 2.42424 5.748 2.42424 5.66975C2.42424 5.5915 2.39316 5.51645 2.33783 5.46112C2.2825 5.40579 2.20745 5.37471 2.1292 5.37471H1.84921C1.88521 4.90282 2.00909 4.44182 2.21447 4.01546L2.45611 4.15501C2.52387 4.19413 2.6044 4.20474 2.67998 4.18448C2.75557 4.16423 2.82001 4.11479 2.85913 4.04702C2.89826 3.97926 2.90886 3.89873 2.88861 3.82315C2.86836 3.74757 2.81891 3.68313 2.75115 3.644L2.50744 3.50327C2.7758 3.11335 3.11329 2.77586 3.50321 2.5075L3.64394 2.75121C3.68307 2.81897 3.74751 2.86842 3.82309 2.88867C3.89867 2.90892 3.9792 2.89832 4.04697 2.85919C4.11473 2.82007 4.16417 2.75562 4.18443 2.68004C4.20468 2.60446 4.19407 2.52393 4.15495 2.45617L4.01569 2.21453C4.44194 2.00911 4.90285 1.88523 5.37465 1.84927V2.12926C5.37465 2.20751 5.40573 2.28256 5.46106 2.33789C5.51639 2.39322 5.59144 2.4243 5.66969 2.4243C5.74794 2.4243 5.82298 2.39322 5.87831 2.33789C5.93365 2.28256 5.96473 2.20751 5.96473 2.12926V1.84927C6.43653 1.88523 6.89744 2.00911 7.32369 2.21453L7.18443 2.45617C7.1453 2.52393 7.1347 2.60446 7.15495 2.68004C7.1752 2.75562 7.22465 2.82007 7.29241 2.85919C7.36018 2.89832 7.44071 2.90892 7.51629 2.88867C7.59187 2.86842 7.65631 2.81897 7.69544 2.75121L7.83617 2.5075C8.22609 2.77586 8.56357 3.11335 8.83193 3.50327L8.58823 3.644C8.52047 3.68313 8.47102 3.74757 8.45077 3.82315C8.43052 3.89873 8.44112 3.97926 8.48024 4.04702C8.51937 4.11479 8.58381 4.16423 8.65939 4.18448C8.73497 4.20474 8.81551 4.19413 8.88327 4.15501L9.12491 4.01546C9.33029 4.44182 9.45417 4.90282 9.49017 5.37471H9.21017C9.13192 5.37471 9.05688 5.40579 9.00155 5.46112C8.94622 5.51645 8.91513 5.5915 8.91513 5.66975C8.91513 5.748 8.94622 5.82304 9.00155 5.87837C9.05688 5.9337 9.13192 5.96479 9.21017 5.96479H9.49017C9.45421 6.43658 9.33033 6.89749 9.12491 7.32374Z" fill="#FF508B"/>
<path d="M7.73501 5.38196H6.50292C6.4596 5.25685 6.38877 5.14304 6.29563 5.04894C6.20249 4.95483 6.08943 4.88282 5.96477 4.8382V3.30871C5.96477 3.23046 5.93369 3.15542 5.87835 3.10009C5.82302 3.04476 5.74798 3.01367 5.66973 3.01367C5.59148 3.01367 5.51643 3.04476 5.4611 3.10009C5.40577 3.15542 5.37469 3.23046 5.37469 3.30871V4.8382C5.23418 4.88762 5.10846 4.97177 5.00921 5.08283C4.90997 5.19389 4.84042 5.32824 4.80705 5.4734C4.77369 5.61856 4.77757 5.76979 4.81836 5.91304C4.85914 6.05629 4.9355 6.1869 5.04032 6.29271C5.14514 6.39852 5.27502 6.4761 5.41788 6.51823C5.56074 6.56036 5.71193 6.56568 5.8574 6.53367C6.00286 6.50167 6.13787 6.4334 6.24985 6.3352C6.36184 6.237 6.44717 6.11208 6.49791 5.97204H7.73501C7.81326 5.97204 7.88831 5.94096 7.94364 5.88563C7.99897 5.8303 8.03005 5.75525 8.03005 5.677C8.03005 5.59875 7.99897 5.52371 7.94364 5.46838C7.88831 5.41305 7.81326 5.38196 7.73501 5.38196ZM5.66973 5.96408C5.61138 5.96408 5.55433 5.94677 5.50581 5.91435C5.45729 5.88193 5.41948 5.83585 5.39715 5.78194C5.37482 5.72803 5.36897 5.66871 5.38036 5.61148C5.39174 5.55424 5.41984 5.50167 5.4611 5.46041C5.50237 5.41915 5.55494 5.39105 5.61217 5.37966C5.6694 5.36828 5.72872 5.37412 5.78264 5.39645C5.83655 5.41879 5.88263 5.4566 5.91505 5.50512C5.94747 5.55364 5.96477 5.61068 5.96477 5.66904C5.96477 5.74729 5.93369 5.82233 5.87835 5.87766C5.82302 5.93299 5.74798 5.96408 5.66973 5.96408Z" fill="#FF508B"/>
<path d="M12.1606 6.5545C11.8334 6.55467 11.5068 6.5843 11.1849 6.64302C11.3991 5.46094 11.2302 4.24134 10.7026 3.16204C10.1751 2.08273 9.31661 1.20015 8.2523 0.642995C7.18798 0.0858346 5.97352 -0.116775 4.78598 0.0647072C3.59843 0.246189 2.49991 0.802273 1.65058 1.65188C0.801254 2.50148 0.245527 3.60018 0.0644308 4.78779C-0.116665 5.97539 0.0863386 7.18979 0.643844 8.25392C1.20135 9.31805 2.0842 10.1763 3.16368 10.7035C4.24316 11.2306 5.46282 11.3992 6.64482 11.1846C6.5856 11.5064 6.55549 11.833 6.55483 12.1603C6.55483 13.269 6.8836 14.3528 7.49957 15.2747C8.11554 16.1965 8.99105 16.915 10.0154 17.3393C11.0397 17.7636 12.1668 17.8746 13.2542 17.6583C14.3416 17.442 15.3405 16.9081 16.1245 16.1242C16.9085 15.3402 17.4424 14.3413 17.6587 13.2539C17.875 12.1665 17.7639 11.0394 17.3397 10.015C16.9154 8.99072 16.1969 8.11522 15.275 7.49925C14.3531 6.88328 13.2693 6.5545 12.1606 6.5545ZM5.66971 10.6851C4.6777 10.6851 3.70797 10.3909 2.88314 9.83978C2.05832 9.28864 1.41545 8.5053 1.03582 7.5888C0.656194 6.67231 0.556867 5.66382 0.750398 4.69087C0.943929 3.71792 1.42163 2.82421 2.12308 2.12276C2.82454 1.4213 3.71825 0.943603 4.6912 0.750071C5.66415 0.55654 6.67263 0.655867 7.58913 1.03549C8.50563 1.41512 9.28897 2.05799 9.8401 2.88282C10.3912 3.70764 10.6854 4.67737 10.6854 5.66938C10.6839 6.99917 10.155 8.27407 9.2147 9.21437C8.2744 10.1547 6.9995 10.6836 5.66971 10.6851ZM12.1606 8.91483C12.2389 8.91483 12.3139 8.88374 12.3692 8.82841C12.4246 8.77308 12.4556 8.69804 12.4556 8.61979V8.3398C12.9274 8.37575 13.3883 8.49964 13.8146 8.70506L13.6753 8.94669C13.6362 9.01446 13.6256 9.09499 13.6459 9.17057C13.6661 9.24615 13.7156 9.31059 13.7833 9.34972C13.8511 9.38884 13.9316 9.39944 14.0072 9.37919C14.0828 9.35894 14.1472 9.3095 14.1863 9.24173L14.3271 8.99803C14.717 9.26639 15.0545 9.60387 15.3228 9.99379L15.0791 10.1345C15.0114 10.1737 14.9619 10.2381 14.9417 10.3137C14.9214 10.3893 14.932 10.4698 14.9712 10.5376C15.0103 10.6053 15.0747 10.6548 15.1503 10.675C15.2259 10.6953 15.3064 10.6847 15.3742 10.6455L15.6158 10.506C15.8212 10.9324 15.9451 11.3933 15.9811 11.8652H15.7011C15.6228 11.8652 15.5478 11.8963 15.4925 11.9516C15.4371 12.007 15.406 12.082 15.406 12.1603C15.406 12.2385 15.4371 12.3136 15.4925 12.3689C15.5478 12.4242 15.6228 12.4553 15.7011 12.4553H15.9811C15.9451 12.9271 15.8212 13.388 15.6158 13.8143L15.3742 13.675C15.3064 13.6359 15.2259 13.6253 15.1503 13.6455C15.0747 13.6658 15.0103 13.7152 14.9712 13.783C14.932 13.8508 14.9214 13.9313 14.9417 14.0069C14.9619 14.0825 15.0114 14.1469 15.0791 14.186L15.3228 14.3268C15.0545 14.7167 14.717 15.0542 14.3271 15.3225L14.1863 15.0788C14.1472 15.0111 14.0828 14.9616 14.0072 14.9414C13.9316 14.9211 13.8511 14.9317 13.7833 14.9708C13.7156 15.01 13.6661 15.0744 13.6459 15.15C13.6256 15.2256 13.6362 15.3061 13.6753 15.3739L13.8149 15.6155C13.3885 15.8209 12.9275 15.9448 12.4556 15.9808V15.7008C12.4556 15.6225 12.4246 15.5475 12.3692 15.4921C12.3139 15.4368 12.2389 15.4057 12.1606 15.4057C12.0824 15.4057 12.0073 15.4368 11.952 15.4921C11.8966 15.5475 11.8656 15.6225 11.8656 15.7008V15.9808C11.3937 15.9448 10.9327 15.8209 10.5063 15.6155L10.6459 15.3739C10.685 15.3061 10.6956 15.2256 10.6753 15.15C10.6551 15.0744 10.6056 15.01 10.5379 14.9708C10.4701 14.9317 10.3896 14.9211 10.314 14.9414C10.2384 14.9616 10.174 15.0111 10.1349 15.0788L9.99412 15.3225C9.6042 15.0542 9.26672 14.7167 8.99836 14.3268L9.24206 14.186C9.30982 14.1469 9.35927 14.0825 9.37952 14.0069C9.39977 13.9313 9.38917 13.8508 9.35005 13.783C9.31092 13.7152 9.24648 13.6658 9.1709 13.6455C9.09531 13.6253 9.01478 13.6359 8.94702 13.675L8.70538 13.8143C8.49996 13.388 8.37608 12.9271 8.34012 12.4553H8.62012C8.69837 12.4553 8.77341 12.4242 8.82874 12.3689C8.88407 12.3136 8.91516 12.2385 8.91516 12.1603C8.91516 12.082 8.88407 12.007 8.82874 11.9516C8.77341 11.8963 8.69837 11.8652 8.62012 11.8652H8.34012C8.37612 11.3933 8.5 10.9324 8.70538 10.506L8.94702 10.6455C9.01478 10.6847 9.09531 10.6953 9.1709 10.675C9.24648 10.6548 9.31092 10.6053 9.35005 10.5376C9.38917 10.4698 9.39977 10.3893 9.37952 10.3137C9.35927 10.2381 9.30982 10.1737 9.24206 10.1345L9.13083 10.0702C9.48 9.7951 9.79542 9.47967 10.0705 9.1305L10.1349 9.24173C10.174 9.3095 10.2384 9.35894 10.314 9.37919C10.3896 9.39944 10.4701 9.38884 10.5379 9.34972C10.6056 9.31059 10.6551 9.24615 10.6753 9.17057C10.6956 9.09499 10.685 9.01446 10.6459 8.94669L10.5066 8.70506C10.9329 8.49964 11.3938 8.37575 11.8656 8.3398V8.61979C11.8656 8.69804 11.8966 8.77308 11.952 8.82841C12.0073 8.88374 12.0824 8.91483 12.1606 8.91483ZM12.1606 17.176C10.8308 17.1745 9.55591 16.6456 8.61561 15.7053C7.67531 14.765 7.1464 13.4901 7.14491 12.1603C7.1459 11.7827 7.19015 11.4066 7.2768 11.0391C7.50967 10.9686 7.73764 10.8829 7.95922 10.7824C7.81105 11.2267 7.73533 11.6919 7.73499 12.1603C7.73499 13.0356 7.99455 13.8912 8.48084 14.619C8.96714 15.3468 9.65832 15.914 10.467 16.249C11.2757 16.584 12.1655 16.6716 13.024 16.5008C13.8825 16.3301 14.671 15.9086 15.29 15.2896C15.9089 14.6707 16.3304 13.8821 16.5012 13.0237C16.6719 12.1652 16.5843 11.2753 16.2493 10.4667C15.9144 9.65799 15.3471 8.96681 14.6193 8.48052C13.8915 7.99422 13.0359 7.73467 12.1606 7.73467C11.6904 7.73627 11.2236 7.81409 10.7783 7.96509C10.8804 7.74049 10.9674 7.50936 11.0389 7.27322C11.4067 7.18787 11.783 7.14471 12.1606 7.14459C13.4908 7.14459 14.7666 7.67302 15.7072 8.61365C16.6479 9.55427 17.1763 10.83 17.1763 12.1603C17.1763 13.4905 16.6479 14.7663 15.7072 15.7069C14.7666 16.6475 13.4908 17.176 12.1606 17.176Z" fill="#FF508B"/>
<path d="M11.8656 11.3284C11.6689 11.3977 11.503 11.5344 11.3974 11.7142C11.2919 11.894 11.2533 12.1054 11.2887 12.311C11.324 12.5165 11.4309 12.7029 11.5905 12.8371C11.7501 12.9714 11.9521 13.0448 12.1606 13.0444C12.2146 13.044 12.2684 13.0385 12.3214 13.0282L12.9377 14.0953C12.9771 14.1625 13.0415 14.2114 13.1169 14.2314C13.1922 14.2513 13.2723 14.2406 13.3398 14.2016C13.4073 14.1627 13.4566 14.0986 13.477 14.0234C13.4974 13.9482 13.4873 13.868 13.4488 13.8003L12.8312 12.7305C12.9252 12.6223 12.9912 12.4927 13.0234 12.3531C13.0556 12.2135 13.053 12.0681 13.016 11.9297C12.9789 11.7913 12.9084 11.6641 12.8107 11.5592C12.713 11.4544 12.5911 11.3752 12.4557 11.3284V9.79895C12.4557 9.7207 12.4246 9.64565 12.3692 9.59032C12.3139 9.53499 12.2389 9.50391 12.1606 9.50391C12.0824 9.50391 12.0073 9.53499 11.952 9.59032C11.8967 9.64565 11.8656 9.7207 11.8656 9.79895V11.3284ZM12.1606 11.8642C12.219 11.8642 12.276 11.8815 12.3245 11.914C12.373 11.9464 12.4109 11.9925 12.4332 12.0464C12.4555 12.1003 12.4614 12.1596 12.45 12.2168C12.4386 12.2741 12.4105 12.3266 12.3692 12.3679C12.328 12.4092 12.2754 12.4373 12.2182 12.4486C12.1609 12.46 12.1016 12.4542 12.0477 12.4319C11.9938 12.4095 11.9477 12.3717 11.9153 12.3232C11.8829 12.2747 11.8656 12.2176 11.8656 12.1593C11.8656 12.081 11.8967 12.006 11.952 11.9506C12.0073 11.8953 12.0824 11.8642 12.1606 11.8642Z" fill="#FF508B"/>
<path d="M5.50658 16.9121L4.9935 16.6554C4.53115 16.4263 4.13503 16.0828 3.84277 15.6575C3.5505 15.2322 3.37178 14.7393 3.32357 14.2255H4.19453C4.25288 14.2255 4.30991 14.2082 4.35842 14.1758C4.40692 14.1433 4.44473 14.0973 4.46706 14.0434C4.48938 13.9894 4.49522 13.9301 4.48385 13.8729C4.47247 13.8157 4.44438 13.7631 4.40313 13.7219L2.63288 11.9516C2.57756 11.8963 2.50252 11.8652 2.42429 11.8652C2.34606 11.8652 2.27103 11.8963 2.2157 11.9516L0.445454 13.7219C0.404204 13.7631 0.376115 13.8157 0.364736 13.8729C0.353357 13.9301 0.359199 13.9894 0.381525 14.0434C0.403851 14.0973 0.441657 14.1433 0.490165 14.1758C0.538672 14.2082 0.595703 14.2255 0.654047 14.2255H1.55127C1.62638 15.1099 2.03052 15.934 2.68381 16.5349C3.33711 17.1358 4.19203 17.4698 5.07965 17.4709H5.3747C5.44111 17.4709 5.50555 17.4484 5.55761 17.4072C5.60966 17.3659 5.64628 17.3083 5.66153 17.2437C5.67679 17.179 5.66979 17.1111 5.64167 17.051C5.61355 16.9908 5.56595 16.9419 5.50658 16.9121ZM2.12925 13.9305C2.12925 13.8522 2.09817 13.7772 2.04283 13.7218C1.9875 13.6665 1.91246 13.6354 1.83421 13.6354H1.36628L2.42429 12.5774L3.48231 13.6354H3.01437C2.93612 13.6354 2.86108 13.6665 2.80575 13.7218C2.75042 13.7772 2.71933 13.8522 2.71933 13.9305C2.71757 14.445 2.82571 14.9541 3.03651 15.4235C3.24731 15.8929 3.55592 16.3119 3.94168 16.6525C3.40519 16.4276 2.94703 16.0493 2.62462 15.565C2.3022 15.0808 2.12988 14.5122 2.12925 13.9305Z" fill="#FF508B"/>
<path d="M12.3232 0.916229L12.8363 1.17291C13.2987 1.40206 13.6948 1.74557 13.9871 2.17085C14.2794 2.59614 14.4582 3.08907 14.5065 3.60287H13.6358C13.5775 3.60288 13.5204 3.62019 13.4719 3.65261C13.4234 3.68503 13.3856 3.73111 13.3633 3.78501C13.341 3.83891 13.3351 3.89823 13.3465 3.95545C13.3579 4.01267 13.386 4.06524 13.4272 4.1065L15.1975 5.87674C15.2528 5.93206 15.3278 5.96313 15.4061 5.96313C15.4843 5.96313 15.5593 5.93206 15.6147 5.87674L17.3849 4.1065C17.4261 4.06524 17.4542 4.01267 17.4656 3.95545C17.477 3.89823 17.4712 3.83891 17.4488 3.78501C17.4265 3.73111 17.3887 3.68503 17.3402 3.65261C17.2917 3.62019 17.2346 3.60288 17.1763 3.60287H16.2785C16.2035 2.7185 15.7994 1.89445 15.1462 1.29355C14.4931 0.692646 13.6382 0.358602 12.7507 0.357422H12.4557C12.3892 0.35736 12.3247 0.37974 12.2725 0.420937C12.2203 0.462134 12.1836 0.519734 12.1683 0.584405C12.153 0.649076 12.1599 0.717029 12.188 0.777254C12.2161 0.837479 12.2638 0.886449 12.3232 0.916229ZM15.7011 3.89791C15.7011 3.97616 15.7322 4.0512 15.7875 4.10653C15.8428 4.16186 15.9179 4.19295 15.9961 4.19295H16.4641L15.4061 5.25096L14.3475 4.19295H14.816C14.8942 4.19295 14.9693 4.16186 15.0246 4.10653C15.0799 4.0512 15.111 3.97616 15.111 3.89791C15.1128 3.38335 15.0046 2.87436 14.7939 2.40494C14.5832 1.93552 14.2746 1.51649 13.889 1.17586C14.4254 1.40089 14.8835 1.77921 15.2058 2.26342C15.5282 2.74763 15.7005 3.31621 15.7011 3.89791Z" fill="#FF508B"/>
</svg>
