<svg width="14" height="14" viewBox="0 0 14 14" fill="none" xmlns="http://www.w3.org/2000/svg">
<path d="M7.00059 0C3.14045 0 0 3.1402 0 7.00001C0 10.8598 3.14046 14 7.00059 14C10.8601 14 14 10.8598 14 7.00001C14 3.1402 10.8601 0 7.00059 0ZM11.6896 3.27116C11.1209 3.51613 10.4228 3.71095 9.6425 3.84575C9.525 3.26132 9.37411 2.71822 9.19234 2.23332C9.05504 1.86705 8.90225 1.54286 8.73645 1.2627C9.91452 1.61988 10.9402 2.33065 11.6896 3.27116ZM7.00059 12.994C6.59453 12.994 6.1152 12.3885 5.7497 11.4139C5.59272 10.9953 5.46141 10.5261 5.35673 10.0206C5.88422 9.96782 6.43599 9.93997 7.0006 9.93997C7.5648 9.93997 8.11618 9.96781 8.64333 10.0206C8.53868 10.526 8.40738 10.9953 8.25044 11.414C7.88504 12.3885 7.40614 12.994 7.00059 12.994ZM7.00059 8.93395C6.38154 8.93395 5.7743 8.96635 5.19213 9.0278C5.1298 8.53928 5.09031 8.02802 5.07484 7.50302H8.92515C8.90969 8.02798 8.8702 8.53922 8.80788 9.02773C8.22607 8.96633 7.61922 8.93395 7.00059 8.93395ZM7.00059 1.00602C7.40608 1.00602 7.885 1.6116 8.25042 2.58647C8.40744 3.00534 8.53879 3.47491 8.64347 3.98064C8.11627 4.0334 7.56484 4.06124 7.00059 4.06124C6.43592 4.06124 5.88411 4.03338 5.35658 3.98058C5.46127 3.47486 5.59265 3.00534 5.7497 2.58651C6.11526 1.61163 6.59459 1.00602 7.00059 1.00602ZM7.00059 5.06726C7.61926 5.06726 8.22614 5.03488 8.80798 4.97347C8.87024 5.46165 8.9097 5.97248 8.92516 6.497H5.07484C5.0903 5.97244 5.12977 5.46158 5.19204 4.9734C5.77423 5.03485 6.3815 5.06726 7.00059 5.06726ZM4.0679 6.497H1.02723C1.0987 5.64108 1.35068 4.83573 1.7451 4.11921C2.41849 4.42956 3.2581 4.67305 4.19575 4.8355C4.12715 5.3693 4.08389 5.92653 4.0679 6.497ZM4.06789 7.50302C4.08389 8.07393 4.12719 8.63155 4.19586 9.16569C3.2584 9.32808 2.41895 9.57149 1.74561 9.88171C1.3509 9.16496 1.09874 8.3593 1.02723 7.50302L4.06789 7.50302ZM9.9321 7.50302H12.9728C12.9013 8.35932 12.6492 9.16499 12.2545 9.88175C11.5811 9.57147 10.7416 9.32803 9.80416 9.16562C9.87282 8.63149 9.91611 8.07389 9.9321 7.50302ZM9.93209 6.497C9.91611 5.92657 9.87286 5.36936 9.80427 4.83557C10.7419 4.67312 11.5816 4.42958 12.255 4.11917C12.6494 4.8357 12.9013 5.64107 12.9728 6.497H9.93209ZM5.26375 1.26289C5.09793 1.543 4.94513 1.8671 4.80782 2.23328C4.626 2.71814 4.47507 3.26125 4.35754 3.84569C3.57726 3.7109 2.8792 3.51613 2.31065 3.27122C3.06001 2.33086 4.08569 1.62013 5.26375 1.26289ZM2.31136 10.7297C2.87982 10.4849 3.57768 10.2902 4.35768 10.1555C4.47519 10.7397 4.62607 11.2826 4.80782 11.7672C4.94506 12.1331 5.09779 12.4571 5.26353 12.737C4.08593 12.3799 3.06062 11.6695 2.31136 10.7297ZM8.73665 12.7372C8.90238 12.4572 9.05509 12.1332 9.19233 11.7672C9.37403 11.2825 9.52489 10.7396 9.64236 10.1554C10.4224 10.2902 11.1203 10.4849 11.6888 10.7297C10.9396 11.6697 9.91426 12.3802 8.73665 12.7372Z" fill="white"/>
</svg>
