<svg width="19" height="18" viewBox="0 0 19 18" fill="none" xmlns="http://www.w3.org/2000/svg">
<path d="M11.876 5.56727H7.70052C6.5475 5.56727 5.61279 4.63256 5.61279 3.47954V2.08773C5.61279 0.93471 6.5475 0 7.70052 0H11.876C13.029 0 13.9637 0.93471 13.9637 2.08773V3.47954C13.9637 4.63256 13.029 5.56727 11.876 5.56727Z" fill="#FF508B"/>
<path d="M9.78833 5.56836V10.8573" stroke="#FF508B" stroke-width="1.2" stroke-miterlimit="10" stroke-linecap="round" stroke-linejoin="round"/>
<path d="M3.95246 16.0154C4.496 15.4719 4.496 14.5906 3.95246 14.0471C3.40893 13.5036 2.52769 13.5036 1.98415 14.0471C1.44062 14.5906 1.44062 15.4719 1.98415 16.0154C2.52769 16.5589 3.40893 16.5589 3.95246 16.0154Z" stroke="#FF508B" stroke-width="1.2" stroke-miterlimit="10" stroke-linecap="round" stroke-linejoin="round"/>
<path d="M10.7722 16.0154C11.3157 15.4719 11.3157 14.5906 10.7722 14.0471C10.2286 13.5036 9.34739 13.5036 8.80386 14.0471C8.26032 14.5906 8.26032 15.4719 8.80386 16.0154C9.34739 16.5589 10.2286 16.5589 10.7722 16.0154Z" stroke="#FF508B" stroke-width="1.2" stroke-miterlimit="10" stroke-linecap="round" stroke-linejoin="round"/>
<path d="M17.5921 16.0154C18.1356 15.4719 18.1356 14.5906 17.5921 14.0471C17.0486 13.5036 16.1673 13.5036 15.6238 14.0471C15.0803 14.5906 15.0803 15.4719 15.6238 16.0154C16.1673 16.5589 17.0486 16.5589 17.5921 16.0154Z" stroke="#FF508B" stroke-width="1.2" stroke-miterlimit="10" stroke-linecap="round" stroke-linejoin="round"/>
<path d="M2.96838 10.8554V9.60275C2.96838 8.83409 3.59154 8.21094 4.3602 8.21094H15.2164C15.985 8.21094 16.6082 8.83409 16.6082 9.60275V10.8554" stroke="#FF508B" stroke-width="1.2" stroke-miterlimit="10" stroke-linecap="round" stroke-linejoin="round"/>
</svg>
