<svg width="35" height="34" viewBox="0 0 35 34" fill="none" xmlns="http://www.w3.org/2000/svg">
<path d="M27.8361 3.60938H26.5139V2.26922C26.5192 2.09231 26.4889 1.91614 26.4249 1.75114C26.3609 1.58614 26.2644 1.43568 26.1411 1.30866C26.0179 1.18165 25.8704 1.08067 25.7074 1.01171C25.5444 0.942757 25.3692 0.907227 25.1922 0.907227C25.0152 0.907227 24.8401 0.942757 24.6771 1.01171C24.5141 1.08067 24.3666 1.18165 24.2433 1.30866C24.1201 1.43568 24.0236 1.58614 23.9595 1.75114C23.8955 1.91614 23.8653 2.09231 23.8706 2.26922V3.60938H11.1802V2.26922C11.1856 2.09231 11.1553 1.91614 11.0913 1.75114C11.0273 1.58614 10.9308 1.43568 10.8075 1.30866C10.6843 1.18165 10.5368 1.08067 10.3738 1.01171C10.2108 0.942757 10.0356 0.907227 9.8586 0.907227C9.68162 0.907227 9.50644 0.942757 9.34344 1.01171C9.18044 1.08067 9.03294 1.18165 8.90969 1.30866C8.78644 1.43568 8.68994 1.58614 8.62592 1.75114C8.56189 1.91614 8.53164 2.09231 8.53697 2.26922V3.60938H7.21473C5.45029 3.62392 3.76364 4.33766 2.52472 5.59406C1.2858 6.85046 0.595756 8.54694 0.605946 10.3114V26.3934C0.595756 28.1579 1.2858 29.8544 2.52472 31.1108C3.76364 32.3672 5.45029 33.0809 7.21473 33.0955H27.8361C29.6005 33.0809 31.2872 32.3672 32.5261 31.1108C33.765 29.8544 34.4551 28.1579 34.4449 26.3934V10.3114C34.4551 8.54694 33.765 6.85046 32.5261 5.59406C31.2872 4.33766 29.6005 3.62392 27.8361 3.60938ZM31.8016 26.3934C31.8077 27.4521 31.3936 28.4699 30.6501 29.2236C29.9067 29.9773 28.8947 30.4054 27.8361 30.4139H7.21473C6.15611 30.4054 5.14409 29.9773 4.40068 29.2236C3.65727 28.4699 3.24317 27.4521 3.24922 26.3934V10.3114C3.24317 9.25278 3.65727 8.23496 4.40068 7.48124C5.14409 6.72752 6.15611 6.29944 7.21473 6.29091H27.8361C28.8947 6.29944 29.9067 6.72752 30.6501 7.48124C31.3936 8.23496 31.8077 9.25278 31.8016 10.3114V26.3934Z" fill="#2D2DB2"/>
<path d="M18.914 14.3936H16.1356C15.7672 14.3936 15.4139 14.2472 15.1533 13.9867C14.8928 13.7262 14.7465 13.3729 14.7465 13.0044C14.7465 12.636 14.8928 12.2826 15.1533 12.0221C15.4139 11.7616 15.7672 11.6152 16.1356 11.6152H18.914C19.2825 11.6152 19.6358 11.7616 19.8963 12.0221C20.1568 12.2826 20.3032 12.636 20.3032 13.0044C20.3032 13.3729 20.1568 13.7262 19.8963 13.9867C19.6358 14.2472 19.2825 14.3936 18.914 14.3936Z" fill="#2D2DB2"/>
<path d="M28.3598 14.1514H25.5815C25.213 14.1514 24.8597 14.0051 24.5992 13.7445C24.3386 13.484 24.1923 13.1307 24.1923 12.7622C24.1923 12.3938 24.3386 12.0405 24.5992 11.7799C24.8597 11.5194 25.213 11.373 25.5815 11.373H28.3598C28.7282 11.373 29.0816 11.5194 29.3421 11.7799C29.6027 12.0405 29.749 12.3938 29.749 12.7622C29.749 13.1307 29.6027 13.484 29.3421 13.7445C29.0816 14.0051 28.7282 14.1514 28.3598 14.1514Z" fill="#2D2DB2"/>
<path d="M9.46946 19.7071H6.69229C6.32385 19.7071 5.9705 19.5607 5.70998 19.3002C5.44946 19.0397 5.3031 18.6863 5.3031 18.3179C5.3031 17.9494 5.44946 17.5961 5.70998 17.3356C5.9705 17.0751 6.32385 16.9287 6.69229 16.9287H9.47065C9.83909 16.9287 10.1924 17.0751 10.4529 17.3356C10.7135 17.5961 10.8598 17.9494 10.8598 18.3179C10.8598 18.6863 10.7135 19.0397 10.4529 19.3002C10.1924 19.5607 9.83909 19.7071 9.47065 19.7071H9.46946Z" fill="#2D2DB2"/>
<path d="M18.9141 19.7071H16.1358C15.7673 19.7071 15.414 19.5607 15.1535 19.3002C14.8929 19.0397 14.7466 18.6863 14.7466 18.3179C14.7466 17.9494 14.8929 17.5961 15.1535 17.3356C15.414 17.0751 15.7673 16.9287 16.1358 16.9287H18.9141C19.2826 16.9287 19.6359 17.0751 19.8964 17.3356C20.157 17.5961 20.3033 17.9494 20.3033 18.3179C20.3033 18.6863 20.157 19.0397 19.8964 19.3002C19.6359 19.5607 19.2826 19.7071 18.9141 19.7071Z" fill="#2D2DB2"/>
<path d="M28.3598 19.7071H25.5815C25.213 19.7071 24.8597 19.5607 24.5992 19.3002C24.3386 19.0397 24.1923 18.6863 24.1923 18.3179C24.1923 17.9494 24.3386 17.5961 24.5992 17.3356C24.8597 17.0751 25.213 16.9287 25.5815 16.9287H28.3598C28.7282 16.9287 29.0816 17.0751 29.3421 17.3356C29.6027 17.5961 29.749 17.9494 29.749 18.3179C29.749 18.6863 29.6027 19.0397 29.3421 19.3002C29.0816 19.5607 28.7282 19.7071 28.3598 19.7071Z" fill="#2D2DB2"/>
<path d="M9.46946 25.2627H6.69229C6.32385 25.2627 5.9705 25.1164 5.70998 24.8559C5.44946 24.5954 5.3031 24.242 5.3031 23.8735C5.3031 23.5051 5.44946 23.1518 5.70998 22.8912C5.9705 22.6307 6.32385 22.4844 6.69229 22.4844H9.47065C9.83909 22.4844 10.1924 22.6307 10.4529 22.8912C10.7135 23.1518 10.8598 23.5051 10.8598 23.8735C10.8598 24.242 10.7135 24.5954 10.4529 24.8559C10.1924 25.1164 9.83909 25.2627 9.47065 25.2627H9.46946Z" fill="#2D2DB2"/>
<path d="M18.9141 25.2627H16.1358C15.7673 25.2627 15.414 25.1164 15.1535 24.8559C14.8929 24.5954 14.7466 24.242 14.7466 23.8735C14.7466 23.5051 14.8929 23.1518 15.1535 22.8912C15.414 22.6307 15.7673 22.4844 16.1358 22.4844H18.9141C19.2826 22.4844 19.6359 22.6307 19.8964 22.8912C20.157 23.1518 20.3033 23.5051 20.3033 23.8735C20.3033 24.242 20.157 24.5954 19.8964 24.8559C19.6359 25.1164 19.2826 25.2627 18.9141 25.2627Z" fill="#2D2DB2"/>
</svg>
