<svg width="17" height="17" viewBox="0 0 17 17" fill="none" xmlns="http://www.w3.org/2000/svg">
<path d="M10.0263 13.9992L8.48111 15.5378C8.01982 16.0034 7.47058 16.3725 6.86539 16.6235C6.26019 16.8745 5.61114 17.0025 4.95605 17H4.85947C4.1788 16.9882 3.50789 16.8358 2.88883 16.5523C2.26977 16.2688 1.7159 15.8604 1.26197 15.3525C0.404094 14.3779 -0.0464053 13.1104 0.00378527 11.8124C0.0539759 10.5144 0.601011 9.28552 1.53158 8.3802L2.97219 6.9382C3.22633 6.69353 3.56524 6.55687 3.91784 6.55687C4.27045 6.55687 4.60936 6.69353 4.86349 6.9382C4.98784 7.06241 5.08649 7.20995 5.1538 7.37238C5.22111 7.5348 5.25576 7.70892 5.25576 7.88476C5.25576 8.06061 5.22111 8.23472 5.1538 8.39715C5.08649 8.55957 4.98784 8.70711 4.86349 8.83133L3.39069 10.3055C2.97851 10.7034 2.72445 11.2374 2.67561 11.8084C2.62678 12.3795 2.78648 12.9489 3.12511 13.4111C3.32459 13.6742 3.57854 13.8911 3.86956 14.0468C4.16058 14.2025 4.48178 14.2934 4.81118 14.3133C5.13958 14.3341 5.46864 14.2849 5.77663 14.1689C6.08462 14.053 6.36453 13.8729 6.59785 13.6407L8.13504 12.102C8.39012 11.8592 8.72867 11.7238 9.08069 11.7238C9.43271 11.7238 9.77126 11.8592 10.0263 12.102C10.2765 12.3534 10.4169 12.6937 10.4169 13.0486C10.4169 13.4034 10.2765 13.7437 10.0263 13.9951V13.9992ZM7.28999 11.5824C7.03573 11.8165 6.70097 11.9432 6.3556 11.9362C6.01022 11.9291 5.68091 11.7888 5.43638 11.5446C5.19185 11.3003 5.05101 10.971 5.04323 10.6253C5.03546 10.2796 5.16136 9.94428 5.39467 9.68927L9.6521 5.41967C9.77629 5.29537 9.92372 5.19676 10.086 5.12949C10.2482 5.06222 10.4221 5.02759 10.5978 5.02759C10.7734 5.02759 10.9473 5.06222 11.1095 5.12949C11.2718 5.19676 11.4192 5.29537 11.5434 5.41967C11.6676 5.54397 11.7661 5.69155 11.8333 5.85396C11.9005 6.01637 11.9351 6.19044 11.9351 6.36623C11.9351 6.54203 11.9005 6.7161 11.8333 6.87851C11.7661 7.04092 11.6676 7.18849 11.5434 7.3128L7.28999 11.5824ZM15.5272 8.50506L14.1148 9.91081C13.864 10.1619 13.5238 10.3029 13.1691 10.3029C12.8144 10.3029 12.4743 10.1619 12.2235 9.91081C11.9727 9.65977 11.8318 9.31928 11.8318 8.96425C11.8318 8.60922 11.9727 8.26873 12.2235 8.01768L13.5836 6.65624C14.0057 6.24776 14.2646 5.69932 14.3119 5.11355C14.3377 4.75197 14.2783 4.38939 14.1385 4.05499C13.9987 3.72058 13.7825 3.42369 13.5071 3.1882C13.0461 2.82188 12.4655 2.64005 11.8781 2.67801C11.2907 2.71597 10.7383 2.971 10.3281 3.39362L8.97204 4.74701C8.71791 4.99167 8.379 5.12834 8.02639 5.12834C7.67378 5.12834 7.33487 4.99167 7.08074 4.74701C6.83156 4.4951 6.69178 4.15494 6.69178 3.80044C6.69178 3.44595 6.83156 3.10578 7.08074 2.85388L8.40867 1.52466C9.31104 0.59839 10.5341 0.0540218 11.8256 0.00380918C13.1172 -0.0464034 14.3787 0.401369 15.3501 1.25479C15.8542 1.70902 16.2604 2.26141 16.5438 2.87817C16.8272 3.49493 16.9819 4.16309 16.9985 4.84176C17.0151 5.52044 16.8932 6.19536 16.6402 6.82524C16.3872 7.45513 16.0085 8.02672 15.5272 8.50506Z" fill="#FF508B"/>
</svg>
