<svg width="53" height="53" viewBox="0 0 53 53" fill="none" xmlns="http://www.w3.org/2000/svg">
<path d="M26.5 53C41.1355 53 53 41.1355 53 26.5C53 11.8645 41.1355 0 26.5 0C11.8645 0 0 11.8645 0 26.5C0 41.1355 11.8645 53 26.5 53Z" fill="#2D2DB2"/>
<mask id="mask0_253_2729" style="mask-type:luminance" maskUnits="userSpaceOnUse" x="13" y="12" width="28" height="28">
<path d="M13 12.6665H40.3335V40H13V12.6665Z" fill="white"/>
</mask>
<g mask="url(#mask0_253_2729)">
<path d="M28.2283 26.333H37.9712C38.8336 26.333 39.5327 25.6339 39.5327 24.7715V15.0286C39.5327 14.1662 38.8336 13.467 37.9712 13.467H28.2283C27.3659 13.467 26.6667 14.1662 26.6667 15.0286V24.7715C26.6667 25.6339 27.3659 26.333 28.2283 26.333Z" stroke="white" stroke-width="1.5" stroke-miterlimit="10" stroke-linejoin="round"/>
<path d="M36.3163 19.8999H29.8833V16.6834H36.3163V19.8999Z" stroke="white" stroke-width="1.5" stroke-miterlimit="10" stroke-linejoin="round"/>
<path d="M29.8833 23.1167H31.4915" stroke="white" stroke-width="1.5" stroke-miterlimit="10" stroke-linecap="round" stroke-linejoin="round"/>
<path d="M34.708 23.1167H36.3163" stroke="white" stroke-width="1.5" stroke-miterlimit="10" stroke-linecap="round" stroke-linejoin="round"/>
<path d="M33.0997 26.3329V33.0662C33.0997 34.6768 31.7941 35.9824 30.1835 35.9824H26.6667" stroke="white" stroke-width="1.5" stroke-miterlimit="10" stroke-linejoin="round"/>
<path d="M26.6667 39.1992H13.8008V32.7662H26.6667V39.1992Z" stroke="white" stroke-width="1.5" stroke-miterlimit="10" stroke-linejoin="round"/>
<path d="M26.6668 19.8999H21.842" stroke="white" stroke-width="1.5" stroke-miterlimit="10" stroke-linejoin="round"/>
<path d="M21.842 19.9003C21.842 22.1208 20.0419 23.9209 17.8214 23.9209C15.6009 23.9209 13.8008 22.1208 13.8008 19.9003C13.8008 17.6797 15.6009 15.8796 17.8214 15.8796C20.0419 15.8796 21.842 17.6797 21.842 19.9003Z" stroke="white" stroke-width="1.5" stroke-miterlimit="10" stroke-linejoin="round"/>
<path d="M17.8215 19.8999V18.3651" stroke="white" stroke-width="1.5" stroke-miterlimit="10" stroke-linecap="round" stroke-linejoin="round"/>
<path d="M17.0173 32.7665V34.6973" stroke="white" stroke-width="1.5" stroke-miterlimit="10" stroke-linecap="round" stroke-linejoin="round"/>
<path d="M20.2336 32.7665V34.6973" stroke="white" stroke-width="1.5" stroke-miterlimit="10" stroke-linecap="round" stroke-linejoin="round"/>
<path d="M23.4502 32.7665V34.6973" stroke="white" stroke-width="1.5" stroke-miterlimit="10" stroke-linecap="round" stroke-linejoin="round"/>
</g>
</svg>
