<svg width="53" height="53" viewBox="0 0 53 53" fill="none" xmlns="http://www.w3.org/2000/svg">
<path d="M26.5 53C41.1355 53 53 41.1355 53 26.5C53 11.8645 41.1355 0 26.5 0C11.8645 0 0 11.8645 0 26.5C0 41.1355 11.8645 53 26.5 53Z" fill="#2D2DB2"/>
<path d="M25.3048 39.2106C25.5365 39.2106 25.7194 39.0256 25.7194 38.7913C25.7194 38.557 25.5365 38.3721 25.3048 38.3721H25.0731C24.8414 38.3721 24.6584 38.557 24.6584 38.7913C24.6584 39.0256 24.8414 39.2106 25.0731 39.2106H25.3048Z" fill="white"/>
<path d="M33.5976 24.376C33.1707 24.376 32.8293 24.7213 32.8293 25.1529V36.0292H22.4146C21.9878 36.0292 21.6463 36.3745 21.6463 36.8061C21.6463 37.2377 21.9878 37.5829 22.4146 37.5829H32.7317C32.3902 38.9887 31.1341 39.9999 29.6707 39.9999H20.6951C19.2317 39.9999 17.9756 38.9887 17.6341 37.5829H20.0366C20.4634 37.5829 20.8049 37.2377 20.8049 36.8061C20.8049 36.3745 20.4634 36.0292 20.0366 36.0292H17.5366V20.7999H29.0366C29.4634 20.7999 29.8049 20.4546 29.8049 20.023C29.8049 19.5914 29.4634 19.2461 29.0366 19.2461H17.6341C17.9756 17.8403 19.2317 16.8292 20.6951 16.8292H26.9878C27.4146 16.8292 27.7561 16.4839 27.7561 16.0523C27.7561 15.6207 27.4146 15.2754 26.9878 15.2754H20.6951C18.1098 15.2754 16 17.4087 16 20.023V36.8061C16 39.4203 18.1098 41.5537 20.6951 41.5537H29.6707C32.2561 41.5537 34.3659 39.4203 34.3659 36.8061V25.1529C34.3659 24.9432 34.2927 24.7459 34.1463 24.5979C34 24.45 33.8049 24.3637 33.5976 24.3637V24.376Z" fill="white"/>
<path d="M21.6496 31.9006H21.0714C20.4797 31.9006 20 31.4209 20 30.8293V28.0714C20 27.4797 20.4797 27 21.0714 27H21.6496C22.2413 27 22.721 27.4797 22.721 28.0714V30.8293C22.721 31.4209 22.2413 31.9006 21.6496 31.9006Z" stroke="white" stroke-width="1.2" stroke-miterlimit="10" stroke-linecap="round" stroke-linejoin="round"/>
<path d="M28.9524 31.9006H28.3741C27.7824 31.9006 27.3027 31.4209 27.3027 30.8293V28.0714C27.3027 27.4797 27.7824 27 28.3741 27H28.9524C29.5441 27 30.0237 27.4797 30.0237 28.0714V30.8293C30.0237 31.4209 29.5441 31.9006 28.9524 31.9006Z" stroke="white" stroke-width="1.2" stroke-miterlimit="10" stroke-linecap="round" stroke-linejoin="round"/>
<path d="M27.303 30.5659H22.7207" stroke="white" stroke-width="1.2" stroke-miterlimit="10" stroke-linecap="round" stroke-linejoin="round"/>
<path d="M27.303 28.334H22.7207" stroke="white" stroke-width="1.2" stroke-miterlimit="10" stroke-linecap="round" stroke-linejoin="round"/>
<path d="M23.5001 17.6182C23.2684 17.6182 23.0854 17.8031 23.0854 18.0374C23.0854 18.2717 23.2684 18.4567 23.5001 18.4567H26.8781C27.1098 18.4567 27.2928 18.2717 27.2928 18.0374C27.2928 17.8031 27.1098 17.6182 26.8781 17.6182H23.5001Z" fill="white"/>
<path d="M37.4999 13.1173C37.3536 13.3022 37.3901 13.5612 37.5609 13.7092C38.3536 14.3504 38.817 15.3123 38.817 16.3358V16.3728C38.817 16.6071 38.9999 16.792 39.2316 16.792C39.4633 16.792 39.6462 16.6071 39.6462 16.3728V16.3358C39.6462 15.0533 39.0731 13.8571 38.0853 13.0556C37.9023 12.9076 37.6462 12.9446 37.4999 13.1173Z" fill="white"/>
<path d="M38.9147 12.1059C38.7318 11.9703 38.4757 12.0073 38.3294 12.1922C38.1952 12.3772 38.2318 12.6362 38.4147 12.7841C39.5245 13.635 40.1708 14.9298 40.1708 16.3479V16.7302C40.1708 16.9645 40.3538 17.1495 40.5855 17.1495C40.8172 17.1495 41.0001 16.9645 41.0001 16.7302V16.3479C41.0001 14.6708 40.244 13.1294 38.9147 12.1182V12.1059Z" fill="white"/>
<path d="M29.9512 16.3605C29.9512 16.5948 30.1341 16.7798 30.3658 16.7798C30.5975 16.7798 30.7804 16.5948 30.7804 16.3605V16.3235C30.7804 15.3 31.2317 14.3382 32.0365 13.697C32.2195 13.549 32.2439 13.29 32.0975 13.105C31.9512 12.9201 31.6951 12.8954 31.5121 13.0434C30.5243 13.8449 29.9512 15.0411 29.9512 16.3235V16.3605Z" fill="white"/>
<path d="M28.9998 17.125C29.2315 17.125 29.4145 16.9401 29.4145 16.7058V16.3235C29.4145 14.9177 30.0486 13.6229 31.1706 12.7597C31.3535 12.6241 31.3901 12.3528 31.2559 12.1678C31.1218 11.9828 30.8535 11.9459 30.6706 12.0815C29.3413 13.0927 28.5852 14.6341 28.5852 16.3112V16.6934C28.5852 16.9277 28.7681 17.1127 28.9998 17.1127V17.125Z" fill="white"/>
<path d="M38.3414 19.9486C38.2438 19.9486 38.1585 19.8623 38.1585 19.7636V16.7054C38.1585 15.0653 37.0243 13.6472 35.4877 13.2773V13.1416C35.4877 12.71 35.1463 12.3647 34.7194 12.3647C34.2926 12.3647 33.9511 12.71 33.9511 13.1416V13.2773C33.3292 13.4252 32.756 13.7459 32.2926 14.2145C31.6463 14.868 31.2804 15.7436 31.2804 16.6684V19.7513C31.2804 19.8499 31.195 19.9362 31.0975 19.9362C30.4511 19.9362 29.9146 20.4665 29.9146 21.1324V21.5887C29.9146 22.2422 30.4389 22.7848 31.0975 22.7848H32.9389C33.2438 23.5494 33.9877 24.0673 34.8292 24.0673C35.6706 24.0673 36.4024 23.5494 36.7194 22.7848H38.3536C38.9999 22.7848 39.5365 22.2545 39.5365 21.5887V21.1324C39.5365 20.4788 39.0121 19.9362 38.3536 19.9362L38.3414 19.9486ZM36.0975 21.2434H31.9999C32.4877 20.9351 32.817 20.3925 32.817 19.7636V16.6807C32.817 16.1628 33.0121 15.6819 33.378 15.3243C33.7316 14.9667 34.2194 14.757 34.7438 14.757C35.7804 14.757 36.6219 15.6449 36.6219 16.7177V19.7759C36.6219 20.4048 36.9511 20.9474 37.4389 21.2557H36.0975V21.2434Z" fill="white"/>
</svg>
