<svg width="13" height="15" viewBox="0 0 13 15" fill="none" xmlns="http://www.w3.org/2000/svg">
<path d="M6.24316 0C2.80068 0 0 2.81311 0 6.27091C0 9.19274 2.02073 11.6844 4.79603 12.3445L5.89524 14.0189C5.97218 14.1361 6.10296 14.2067 6.24316 14.2067C6.38337 14.2067 6.51415 14.1361 6.59109 14.0189L7.69033 12.3445C10.4658 11.6843 12.4863 9.19255 12.4863 6.27091C12.4863 2.81311 9.68565 0 6.24316 0ZM7.35029 11.5675C7.24226 11.59 7.14759 11.6544 7.08707 11.7466L6.24316 13.0321L5.39928 11.7466C5.33874 11.6544 5.24406 11.5899 5.13604 11.5675C2.64236 11.0491 0.832422 8.82159 0.832422 6.27091C0.832422 3.27211 3.25968 0.832422 6.24316 0.832422C9.22665 0.832422 11.6539 3.27211 11.6539 6.27091C11.6539 8.82159 9.84397 11.0491 7.35029 11.5675Z" fill="#2D2DB2"/>
<path d="M6.24326 8.35205C5.55477 8.35205 4.99463 8.91219 4.99463 9.60068C4.99463 10.2892 5.55477 10.8493 6.24326 10.8493C6.93176 10.8493 7.49189 10.2892 7.49189 9.60068C7.49189 8.91219 6.93176 8.35205 6.24326 8.35205ZM6.24326 10.0169C6.01376 10.0169 5.82705 9.83018 5.82705 9.60068C5.82705 9.37118 6.01376 9.18447 6.24326 9.18447C6.47276 9.18447 6.65947 9.37118 6.65947 9.60068C6.65947 9.83018 6.47276 10.0169 6.24326 10.0169Z" fill="#2D2DB2"/>
<path d="M6.24326 1.66504C5.55477 1.66504 4.99463 2.22518 4.99463 2.91367V6.27111C4.99463 6.9596 5.55477 7.51974 6.24326 7.51974C6.93176 7.51974 7.49189 6.9596 7.49189 6.27111V2.91367C7.49189 2.22518 6.93176 1.66504 6.24326 1.66504ZM6.65947 6.27111C6.65947 6.50061 6.47276 6.68732 6.24326 6.68732C6.01376 6.68732 5.82705 6.50061 5.82705 6.27111V2.91367C5.82705 2.68417 6.01376 2.49746 6.24326 2.49746C6.47276 2.49746 6.65947 2.68417 6.65947 2.91367V6.27111Z" fill="#2D2DB2"/>
</svg>
