<svg width="247" height="247" viewBox="0 0 247 247" fill="none" xmlns="http://www.w3.org/2000/svg">
<path d="M123.5 232C183.423 232 232 183.423 232 123.5C232 63.5771 183.423 15 123.5 15C63.5771 15 15 63.5771 15 123.5C15 183.423 63.5771 232 123.5 232Z" fill="#2D2DB2" fill-opacity="0.08" stroke="#2D2DB2" stroke-opacity="0.08" stroke-width="30"/>
<g opacity="0.5">
<path d="M137.463 125.902V169.219H136.713V126.648H118.732V125.902H137.463Z" fill="#2D2DB2" fill-opacity="0.5"/>
<path d="M136.293 80.2441V103.659H135.708V80.8046H121.073V80.2441H136.293Z" fill="#2D2DB2" fill-opacity="0.5"/>
<path d="M130.439 107.171V114.195H126.927V113.766H130.096V107.171H130.439Z" fill="#2D2DB2" fill-opacity="0.5"/>
<path d="M119.902 120.048C120.092 119.723 120.203 119.318 120.203 118.878C120.203 118.438 120.092 118.032 119.903 117.707H136.291C136.103 118.032 135.992 118.438 135.992 118.878C135.992 119.318 136.103 119.723 136.293 120.048H119.902Z" fill="#2D2DB2" fill-opacity="0.5"/>
<path d="M114.049 116.817V117.708H100V114.195H100.84V116.817H114.049Z" fill="#2D2DB2" fill-opacity="0.5"/>
<path d="M114.049 106H112.878V116.537H114.049V106Z" fill="#2D2DB2" fill-opacity="0.5"/>
<path d="M111.707 116.537H103.342L102.979 112.713L102.342 106C102.507 107.628 104.322 108.912 106.536 108.912C108.629 108.912 110.364 107.765 110.688 106.263L111.328 112.713L111.707 116.537Z" fill="#2D2DB2" fill-opacity="0.5"/>
<path d="M146.829 116.536H143.317L144.186 110.683C144.446 110.857 144.75 110.957 145.073 110.957C145.396 110.957 145.675 110.865 145.927 110.705L146.829 116.536Z" fill="#2D2DB2" fill-opacity="0.5"/>
<path d="M143.817 109.513C143.817 109.978 144.078 110.396 144.488 110.683H142.146V108.342H144.488C144.078 108.629 143.817 109.047 143.817 109.513Z" fill="#2D2DB2" fill-opacity="0.5"/>
<path d="M143.317 61.5117L142.225 66.1946H114.437L112.878 61.5117H143.317Z" fill="#2D2DB2" fill-opacity="0.5"/>
<path d="M136.693 182.097L118.292 181.917C117.081 181.905 116.198 180.857 116.426 179.756C116.595 180.566 117.343 181.212 118.292 181.221L136.693 181.402C137.667 181.411 138.471 180.736 138.612 179.863L138.631 180.182C138.692 181.23 137.804 182.108 136.693 182.097Z" fill="#2D2DB2" fill-opacity="0.5"/>
<path d="M146.829 185.609H108.195V187.951H146.829V185.609Z" fill="#2D2DB2" fill-opacity="0.5"/>
<path d="M115.219 187.951C115.219 188.273 115.093 188.565 114.889 188.778C114.686 188.99 114.406 189.122 114.097 189.122H112.829C112.212 189.122 111.707 188.594 111.707 187.951H115.219Z" fill="#2D2DB2" fill-opacity="0.5"/>
<path d="M129.268 187.951C129.268 188.273 129.142 188.565 128.938 188.778C128.734 188.99 128.454 189.122 128.145 189.122H126.879C126.262 189.122 125.756 188.594 125.756 187.951H129.268Z" fill="#2D2DB2" fill-opacity="0.5"/>
<path d="M143.317 187.951C143.317 188.273 143.191 188.565 142.987 188.778C142.784 188.99 142.504 189.122 142.195 189.122H140.927C140.31 189.122 139.805 188.594 139.805 187.951H143.317Z" fill="#2D2DB2" fill-opacity="0.5"/>
<path d="M144.506 60.0143L143.736 59.7348L142.11 64.5085H141.914V65.3519L142.707 65.5543L144.001 60.1553H112.727L114.601 65.6326L115.371 65.3519V64.5085H114.786L113.115 60.8577H144.506V60.0143L143.736 59.7348L144.506 60.0143V59.1709H110.537L113.752 66.1953H116.526L115.037 61.8421H141.914L140.871 66.1953H143.268L145.659 59.1709H144.506V60.0143Z" fill="#2D2DB2" fill-opacity="0.5"/>
<path d="M113.705 65.854H112.878V175.073H143.317V65.0244H112.878V65.854H113.705V66.6836H141.662V173.414H114.532V65.854H113.705ZM119.543 78.5176V79.3472H136.231V104.15H120.37V78.5176H119.543H118.716V105.81H137.886V77.6879H118.716V78.5176H119.543ZM130.315 107.476H129.488V112.729H127.341V108.306H130.315V107.476V106.646H125.686V114.388H131.142V106.646H130.315V107.476ZM138.96 171.112V170.283H118.334V125.645H138.132V171.112H138.96H139.787V123.985H116.68V171.942H139.787V171.112H138.96ZM137.874 120.673V119.843C137.753 119.843 137.644 119.815 137.546 119.765C137.448 119.715 137.362 119.642 137.296 119.553L137.048 119.221H119.352L119.104 119.553C119.037 119.642 118.951 119.715 118.853 119.765C118.755 119.815 118.646 119.843 118.526 119.843C118.424 119.843 118.331 119.823 118.244 119.786C118.116 119.732 118.004 119.639 117.926 119.523C117.848 119.407 117.804 119.272 117.804 119.119C117.804 119.016 117.824 118.923 117.86 118.837C117.915 118.708 118.007 118.595 118.123 118.517C118.238 118.439 118.373 118.394 118.526 118.394C118.646 118.394 118.756 118.422 118.854 118.473C118.952 118.524 119.039 118.598 119.105 118.685L119.353 119.018H137.048L137.296 118.685C137.362 118.596 137.448 118.523 137.546 118.473C137.644 118.422 137.754 118.395 137.875 118.394C137.977 118.394 138.07 118.414 138.156 118.451C138.285 118.505 138.396 118.598 138.474 118.714C138.552 118.83 138.597 118.966 138.597 119.119C138.597 119.221 138.577 119.315 138.54 119.401C138.486 119.53 138.394 119.642 138.278 119.72C138.162 119.798 138.027 119.843 137.875 119.843V121.502C138.201 121.502 138.515 121.436 138.8 121.315C139.228 121.134 139.588 120.833 139.845 120.452C140.101 120.073 140.251 119.61 140.251 119.119C140.251 118.792 140.185 118.477 140.065 118.191C139.884 117.762 139.584 117.399 139.204 117.142C138.826 116.885 138.364 116.734 137.875 116.734C137.487 116.734 137.117 116.829 136.792 116.995C136.467 117.162 136.187 117.401 135.97 117.692L136.633 118.189V117.359H119.767V118.189L120.429 117.692C120.213 117.402 119.932 117.162 119.607 116.995C119.282 116.828 118.911 116.733 118.524 116.734C118.198 116.734 117.884 116.801 117.599 116.922C117.171 117.103 116.81 117.404 116.554 117.785C116.298 118.164 116.148 118.627 116.148 119.118C116.148 119.445 116.214 119.76 116.335 120.046C116.515 120.475 116.816 120.836 117.195 121.094C117.573 121.351 118.035 121.501 118.524 121.501C118.912 121.501 119.282 121.406 119.607 121.24C119.932 121.073 120.211 120.835 120.427 120.546L119.765 120.048V120.878H136.633V120.048L135.971 120.546C136.187 120.835 136.467 121.073 136.791 121.24C137.115 121.408 137.486 121.502 137.874 121.501V120.672V120.673Z" fill="#2D2DB2" fill-opacity="0.5"/>
<path d="M146.968 184.821V184.033H109.316L113.003 173.136H113.644V172.348H112.806V174.731H143.648V173.136H144.186V172.348L143.366 172.511L146.148 184.983L146.968 184.821V184.033V184.821L147.788 184.659L144.866 171.561H141.972V173.156H114.482V171.561H111.777L107.024 185.609H148L147.788 184.659L146.968 184.821Z" fill="#2D2DB2" fill-opacity="0.5"/>
<path d="M117.228 124.391H116.39V171.561H139.805V123.561H116.39V124.391H117.228V125.221H138.128V169.9H118.067V124.391H117.228ZM137.53 169.307V168.476H119.504V126.645H136.691V169.307H137.53H138.368V124.984H117.827V170.137H138.368V169.307H137.53Z" fill="#2D2DB2" fill-opacity="0.5"/>
<path d="M136.67 126.734H135.876V168.726H120.319V127.566H136.67V126.734H135.876H136.67V125.902H118.732V170.39H137.463V125.902H136.67V126.734Z" fill="#2D2DB2" fill-opacity="0.5"/>
<path d="M119.54 78.7313H118.732V106H137.463V77.9023H118.732V78.7313H119.54V79.5602H135.847V104.342H120.348V78.7313H119.54ZM135.269 103.75V102.921H121.734V80.9811H134.461V103.75H135.269H136.078V79.3233H120.117V104.579H136.078V103.75H135.269Z" fill="#2D2DB2" fill-opacity="0.5"/>
<path d="M135.433 79.8986H134.573V102.008H121.622V80.724H135.433V79.8986H134.573H135.433V79.0732H119.902V103.659H136.293V79.0732H135.433V79.8986Z" fill="#2D2DB2" fill-opacity="0.5"/>
<path d="M130.722 106.878H129.835V112.439H127.531V107.756H130.722V106.878H129.835H130.722V106H125.756V114.195H131.61V106H130.722V106.878Z" fill="#2D2DB2" fill-opacity="0.5"/>
<path d="M120.258 118.88H119.443C119.443 119.044 119.391 119.185 119.304 119.301L119.296 119.312L119.3 119.305C119.235 119.392 119.15 119.464 119.053 119.513C118.957 119.562 118.85 119.59 118.731 119.59C118.631 119.59 118.539 119.57 118.454 119.534C118.327 119.481 118.218 119.39 118.141 119.276C118.064 119.162 118.02 119.029 118.02 118.879C118.02 118.777 118.04 118.687 118.076 118.602C118.129 118.475 118.22 118.364 118.334 118.287C118.448 118.21 118.581 118.166 118.731 118.166C118.85 118.166 118.958 118.194 119.055 118.244C119.151 118.294 119.236 118.366 119.301 118.453V118.455C119.391 118.573 119.442 118.715 119.443 118.879H121.073C121.073 118.356 120.9 117.865 120.605 117.475V117.477C120.393 117.192 120.117 116.956 119.797 116.792C119.477 116.628 119.112 116.535 118.731 116.536C118.41 116.536 118.1 116.601 117.82 116.72C117.398 116.898 117.042 117.194 116.791 117.568C116.538 117.94 116.39 118.396 116.39 118.878C116.39 119.199 116.455 119.509 116.574 119.789C116.752 120.211 117.048 120.566 117.421 120.819C117.794 121.071 118.249 121.219 118.731 121.219C119.113 121.219 119.477 121.126 119.797 120.963C120.117 120.799 120.392 120.565 120.605 120.281L120.603 120.284C120.9 119.893 121.073 119.402 121.073 118.878H120.258V118.88Z" fill="#2D2DB2" fill-opacity="0.5"/>
<path d="M138.989 118.879H138.175C138.175 118.979 138.155 119.071 138.119 119.156C138.065 119.283 137.974 119.392 137.86 119.469C137.746 119.546 137.614 119.59 137.464 119.59C137.345 119.59 137.238 119.562 137.141 119.513C137.045 119.464 136.96 119.392 136.894 119.305L136.892 119.301C136.805 119.184 136.752 119.043 136.752 118.879C136.752 118.715 136.805 118.573 136.892 118.455V118.453C136.958 118.365 137.045 118.293 137.141 118.244C137.238 118.194 137.346 118.167 137.465 118.166C137.565 118.166 137.657 118.186 137.742 118.222C137.869 118.276 137.978 118.366 138.055 118.481C138.132 118.595 138.176 118.729 138.176 118.879H139.805C139.805 118.557 139.74 118.248 139.621 117.967C139.443 117.546 139.147 117.189 138.774 116.937C138.402 116.684 137.946 116.536 137.465 116.536C137.083 116.536 136.719 116.629 136.399 116.792C136.079 116.956 135.803 117.19 135.589 117.477L135.577 117.492L135.59 117.475C135.295 117.865 135.122 118.356 135.122 118.879C135.122 119.402 135.295 119.894 135.592 120.284L135.59 120.281C135.803 120.565 136.079 120.799 136.398 120.963C136.716 121.127 137.082 121.22 137.464 121.219C137.785 121.219 138.094 121.154 138.375 121.035C138.796 120.857 139.151 120.561 139.404 120.187C139.656 119.815 139.804 119.36 139.804 118.878H138.989V118.879Z" fill="#2D2DB2" fill-opacity="0.5"/>
<path d="M113.258 112.737H112.468V115.939H111.786V116.823L112.572 116.734L112.287 113.621H113.258V112.737H112.468H113.258V111.854H110.537L111.072 117.707H114.049V111.854H113.258V112.737Z" fill="#2D2DB2" fill-opacity="0.5"/>
<path d="M102.549 116.823V115.939H101.747V113.621H102.154V112.737L101.284 112.823L101.679 116.909L102.549 116.823V115.939V116.823L103.419 116.737L102.947 111.854H100V117.707H103.512L103.419 116.737L102.549 116.823Z" fill="#2D2DB2" fill-opacity="0.5"/>
<path d="M106.438 102.169V101.319C105.745 101.319 105.08 101.422 104.469 101.612C103.552 101.897 102.748 102.376 102.151 103.023C101.853 103.346 101.609 103.713 101.437 104.117C101.266 104.52 101.171 104.962 101.171 105.416C101.171 105.533 101.178 105.646 101.189 105.753C101.248 106.323 101.454 106.854 101.763 107.315C102.226 108.008 102.908 108.551 103.711 108.927C104.516 109.302 105.447 109.511 106.44 109.513C107.69 109.513 108.845 109.181 109.769 108.6C110.23 108.308 110.634 107.953 110.956 107.537C111.277 107.122 111.515 106.643 111.63 106.121L111.651 106.03V105.935H110.806L111.63 106.12C111.681 105.89 111.707 105.654 111.707 105.415C111.707 104.808 111.537 104.227 111.245 103.724C111.027 103.345 110.743 103.007 110.412 102.712C109.915 102.269 109.31 101.924 108.637 101.686C107.964 101.447 107.221 101.317 106.441 101.317V103.019C106.968 103.019 107.467 103.098 107.914 103.237C108.584 103.445 109.132 103.789 109.489 104.179C109.669 104.373 109.8 104.579 109.888 104.784C109.975 104.991 110.018 105.197 110.02 105.415C110.02 105.53 110.008 105.641 109.984 105.75L109.963 105.842V105.936H110.807L109.984 105.752C109.928 106.002 109.811 106.251 109.625 106.491C109.349 106.85 108.915 107.186 108.365 107.425C107.816 107.666 107.155 107.811 106.442 107.81C105.436 107.811 104.535 107.52 103.903 107.086C103.587 106.87 103.338 106.621 103.167 106.364C102.996 106.107 102.899 105.845 102.871 105.575C102.865 105.519 102.863 105.465 102.863 105.414C102.863 105.124 102.94 104.851 103.097 104.577C103.214 104.373 103.378 104.173 103.588 103.987C103.902 103.707 104.318 103.463 104.804 103.29C105.291 103.118 105.848 103.018 106.442 103.018V102.167L106.438 102.169ZM106.438 107.934V107.083C106.017 107.083 105.613 107.022 105.25 106.915C104.705 106.756 104.255 106.489 103.974 106.207C103.833 106.066 103.733 105.924 103.671 105.792C103.61 105.659 103.583 105.538 103.582 105.416C103.582 105.335 103.594 105.254 103.621 105.169C103.666 105.022 103.757 104.859 103.906 104.694C104.128 104.446 104.482 104.202 104.922 104.029C105.362 103.854 105.885 103.748 106.437 103.75C106.858 103.75 107.262 103.81 107.624 103.917C108.169 104.077 108.618 104.342 108.899 104.625C109.04 104.766 109.14 104.908 109.202 105.041C109.263 105.174 109.29 105.295 109.291 105.416C109.291 105.498 109.279 105.578 109.253 105.663C109.207 105.81 109.116 105.973 108.967 106.138C108.745 106.386 108.391 106.63 107.952 106.803C107.513 106.978 106.99 107.084 106.437 107.083V108.784C107.019 108.784 107.578 108.702 108.097 108.549C108.874 108.319 109.563 107.94 110.088 107.417C110.35 107.156 110.572 106.855 110.73 106.519C110.888 106.182 110.981 105.806 110.98 105.416C110.98 105.157 110.939 104.902 110.865 104.663C110.735 104.242 110.505 103.869 110.216 103.549C109.782 103.07 109.215 102.702 108.571 102.445C107.927 102.19 107.201 102.048 106.437 102.047C105.856 102.047 105.296 102.129 104.777 102.283C104.001 102.512 103.312 102.891 102.786 103.414C102.524 103.676 102.302 103.976 102.144 104.312C101.986 104.649 101.893 105.026 101.893 105.415C101.893 105.674 101.934 105.929 102.008 106.169C102.138 106.589 102.368 106.962 102.658 107.282C103.093 107.761 103.659 108.129 104.303 108.384C104.947 108.64 105.674 108.782 106.437 108.782V107.931L106.438 107.934Z" fill="#2D2DB2" fill-opacity="0.5"/>
<path d="M146.168 109.513H145.51C145.51 109.698 145.475 109.864 145.42 109.995C145.366 110.127 145.293 110.219 145.23 110.269H145.229C145.199 110.294 145.172 110.31 145.146 110.319C145.12 110.329 145.097 110.333 145.071 110.333C145.045 110.333 145.021 110.329 144.993 110.318C144.967 110.307 144.937 110.29 144.906 110.264L144.9 110.258L144.896 110.255C144.88 110.241 144.856 110.218 144.827 110.18L144.83 110.185C144.778 110.117 144.726 110.023 144.691 109.907C144.654 109.792 144.631 109.657 144.632 109.513C144.632 109.367 144.655 109.233 144.691 109.118C144.727 109.003 144.778 108.909 144.83 108.841H144.829C144.874 108.785 144.92 108.746 144.96 108.724C145.001 108.701 145.035 108.693 145.072 108.692C145.113 108.692 145.148 108.702 145.193 108.729C145.257 108.768 145.34 108.854 145.404 108.991C145.468 109.127 145.512 109.309 145.512 109.513H146.828C146.828 108.911 146.662 108.352 146.362 107.919C146.212 107.702 146.026 107.516 145.807 107.383C145.588 107.249 145.336 107.171 145.072 107.171C144.829 107.171 144.593 107.238 144.387 107.355C144.18 107.471 144.001 107.634 143.851 107.825H143.85C143.678 108.049 143.547 108.31 143.456 108.595C143.366 108.879 143.317 109.19 143.317 109.513C143.317 109.836 143.366 110.146 143.456 110.431C143.547 110.716 143.679 110.977 143.85 111.198L143.853 111.203C143.934 111.306 144.028 111.407 144.139 111.497L144.519 110.876L144.129 111.489C144.261 111.601 144.408 111.692 144.567 111.755C144.725 111.818 144.897 111.854 145.073 111.854C145.242 111.854 145.406 111.822 145.559 111.764C145.713 111.705 145.855 111.621 145.983 111.518H145.982C146.256 111.3 146.466 110.999 146.608 110.655C146.751 110.312 146.829 109.922 146.829 109.512H146.171L146.168 109.513Z" fill="#2D2DB2" fill-opacity="0.5"/>
<path d="M138.943 180.84H138.104L138.943 180.842L138.114 180.719C138.073 180.979 137.934 181.212 137.734 181.381C137.532 181.548 137.277 181.649 136.988 181.649H136.975L118.024 181.459C117.879 181.458 117.748 181.433 117.627 181.388C117.265 181.256 116.991 180.938 116.918 180.572V180.57C116.903 180.502 116.896 180.433 116.896 180.363C116.896 180.268 116.909 180.171 116.938 180.07L117.666 177.5C117.734 177.261 117.879 177.06 118.073 176.916C118.267 176.772 118.507 176.69 118.765 176.69H118.772L136.847 176.811C137.149 176.813 137.418 176.926 137.623 177.115C137.828 177.303 137.958 177.559 137.976 177.85L138.128 180.532L138.126 180.488C138.126 180.509 138.127 180.53 138.127 180.554C138.127 180.611 138.122 180.667 138.115 180.719L138.105 180.779V180.84H138.944L139.774 180.962C139.795 180.827 139.805 180.69 139.805 180.554C139.805 180.505 139.805 180.455 139.801 180.404L139.651 177.763C139.611 177.048 139.283 176.403 138.782 175.944C138.283 175.484 137.601 175.198 136.859 175.194L118.784 175.073H118.765C118.131 175.073 117.534 175.279 117.056 175.631C116.577 175.982 116.214 176.484 116.048 177.075L115.32 179.646C115.252 179.885 115.219 180.128 115.219 180.365C115.219 180.543 115.237 180.719 115.273 180.889V180.887C115.398 181.495 115.732 182.036 116.211 182.431C116.45 182.629 116.726 182.788 117.031 182.901C117.334 183.013 117.666 183.075 118.01 183.079L136.961 183.268H136.991C137.695 183.268 138.345 183.015 138.836 182.603C139.328 182.191 139.671 181.615 139.775 180.965L139.784 180.904V180.84H138.945H138.943Z" fill="#2D2DB2" fill-opacity="0.5"/>
<path d="M144.823 58.8768V58H110.537V61.5122H145.659V58H144.823V58.8768H143.987V59.7586H112.209V59.7536H144.823V58.8768H143.987H144.823Z" fill="#2D2DB2" fill-opacity="0.5"/>
</g>
</svg>
