<svg width="25" height="30" viewBox="0 0 25 30" fill="none" xmlns="http://www.w3.org/2000/svg">
<path d="M9.30479 27.2106C9.5365 27.2106 9.71942 27.0256 9.71942 26.7913C9.71942 26.557 9.5365 26.3721 9.30479 26.3721H9.07308C8.84137 26.3721 8.65845 26.557 8.65845 26.7913C8.65845 27.0256 8.84137 27.2106 9.07308 27.2106H9.30479Z" fill="#2D2DB2"/>
<path d="M17.5976 12.376C17.1707 12.376 16.8293 12.7213 16.8293 13.1529V24.0292H6.41463C5.9878 24.0292 5.64634 24.3745 5.64634 24.8061C5.64634 25.2377 5.9878 25.5829 6.41463 25.5829H16.7317C16.3902 26.9887 15.1341 27.9999 13.6707 27.9999H4.69512C3.23171 27.9999 1.97561 26.9887 1.63415 25.5829H4.03658C4.46341 25.5829 4.80488 25.2377 4.80488 24.8061C4.80488 24.3745 4.46341 24.0292 4.03658 24.0292H1.53659V8.79987H13.0366C13.4634 8.79987 13.8049 8.45459 13.8049 8.02299C13.8049 7.59139 13.4634 7.24611 13.0366 7.24611H1.63415C1.97561 5.84033 3.23171 4.82915 4.69512 4.82915H10.9878C11.4146 4.82915 11.7561 4.48387 11.7561 4.05227C11.7561 3.62067 11.4146 3.27539 10.9878 3.27539H4.69512C2.10976 3.27539 0 5.40873 0 8.02299V24.8061C0 27.4203 2.10976 29.5537 4.69512 29.5537H13.6707C16.2561 29.5537 18.3659 27.4203 18.3659 24.8061V13.1529C18.3659 12.9432 18.2927 12.7459 18.1463 12.5979C18 12.45 17.8049 12.3637 17.5976 12.3637V12.376Z" fill="#2D2DB2"/>
<path d="M5.64965 19.9006H5.07136C4.47967 19.9006 4 19.4209 4 18.8293V16.0714C4 15.4797 4.47967 15 5.07136 15H5.64965C6.24134 15 6.72101 15.4797 6.72101 16.0714V18.8293C6.72101 19.4209 6.24134 19.9006 5.64965 19.9006Z" stroke="#2D2DB2" stroke-width="1.2" stroke-miterlimit="10" stroke-linecap="round" stroke-linejoin="round"/>
<path d="M12.9524 19.9006H12.3741C11.7824 19.9006 11.3027 19.4209 11.3027 18.8293V16.0714C11.3027 15.4797 11.7824 15 12.3741 15H12.9524C13.5441 15 14.0237 15.4797 14.0237 16.0714V18.8293C14.0237 19.4209 13.5441 19.9006 12.9524 19.9006Z" stroke="#2D2DB2" stroke-width="1.2" stroke-miterlimit="10" stroke-linecap="round" stroke-linejoin="round"/>
<path d="M11.303 18.5659H6.7207" stroke="#2D2DB2" stroke-width="1.2" stroke-miterlimit="10" stroke-linecap="round" stroke-linejoin="round"/>
<path d="M11.303 16.334H6.7207" stroke="#2D2DB2" stroke-width="1.2" stroke-miterlimit="10" stroke-linecap="round" stroke-linejoin="round"/>
<path d="M7.50008 5.61816C7.26838 5.61816 7.08545 5.80314 7.08545 6.03743C7.08545 6.27173 7.26838 6.4567 7.50008 6.4567H10.8781C11.1098 6.4567 11.2928 6.27173 11.2928 6.03743C11.2928 5.80314 11.1098 5.61816 10.8781 5.61816H7.50008Z" fill="#2D2DB2"/>
<path d="M21.4999 1.11726C21.3536 1.30223 21.3901 1.56119 21.5609 1.70917C22.3536 2.35041 22.817 3.31226 22.817 4.33577V4.37276C22.817 4.60706 22.9999 4.79203 23.2316 4.79203C23.4633 4.79203 23.6462 4.60706 23.6462 4.37276V4.33577C23.6462 3.0533 23.0731 1.85715 22.0853 1.05561C21.9023 0.907628 21.6462 0.944623 21.4999 1.11726Z" fill="#2D2DB2"/>
<path d="M22.9147 0.10591C22.7318 -0.0297355 22.4757 0.00725879 22.3294 0.19223C22.1952 0.377202 22.2318 0.636162 22.4147 0.784139C23.5245 1.63501 24.1708 2.92981 24.1708 4.34792V4.7302C24.1708 4.96449 24.3538 5.14946 24.5855 5.14946C24.8172 5.14946 25.0001 4.96449 25.0001 4.7302V4.34792C25.0001 2.67085 24.244 1.12942 22.9147 0.118242V0.10591Z" fill="#2D2DB2"/>
<path d="M13.9512 4.36054C13.9512 4.59484 14.1341 4.77981 14.3658 4.77981C14.5975 4.77981 14.7804 4.59484 14.7804 4.36054V4.32355C14.7804 3.30004 15.2317 2.33819 16.0365 1.69695C16.2195 1.54898 16.2439 1.29002 16.0975 1.10504C15.9512 0.920073 15.6951 0.89541 15.5121 1.04339C14.5243 1.84493 13.9512 3.04108 13.9512 4.32355V4.36054Z" fill="#2D2DB2"/>
<path d="M12.9998 5.12505C13.2315 5.12505 13.4145 4.94008 13.4145 4.70578V4.32351C13.4145 2.91772 14.0486 1.62292 15.1706 0.759725C15.3535 0.624079 15.3901 0.352788 15.2559 0.167816C15.1218 -0.0171553 14.8535 -0.0541495 14.6706 0.0814962C13.3413 1.09267 12.5852 2.6341 12.5852 4.31118V4.69345C12.5852 4.92775 12.7681 5.11272 12.9998 5.11272V5.12505Z" fill="#2D2DB2"/>
<path d="M22.3414 7.94857C22.2438 7.94857 22.1585 7.86225 22.1585 7.7636V4.70541C22.1585 3.06533 21.0243 1.64721 19.4877 1.27727V1.14163C19.4877 0.710026 19.1463 0.364746 18.7194 0.364746C18.2926 0.364746 17.9511 0.710026 17.9511 1.14163V1.27727C17.3292 1.42525 16.756 1.74587 16.2926 2.21446C15.6463 2.86803 15.2804 3.74356 15.2804 4.66841V7.75127C15.2804 7.84992 15.195 7.93624 15.0975 7.93624C14.4511 7.93624 13.9146 8.46649 13.9146 9.13239V9.58865C13.9146 10.2422 14.4389 10.7848 15.0975 10.7848H16.9389C17.2438 11.5494 17.9877 12.0673 18.8292 12.0673C19.6706 12.0673 20.4024 11.5494 20.7194 10.7848H22.3536C22.9999 10.7848 23.5365 10.2545 23.5365 9.58865V9.13239C23.5365 8.47882 23.0121 7.93624 22.3536 7.93624L22.3414 7.94857ZM20.0975 9.24337H15.9999C16.4877 8.93509 16.817 8.39251 16.817 7.7636V4.68075C16.817 4.16283 17.0121 3.6819 17.378 3.32429C17.7316 2.96668 18.2194 2.75704 18.7438 2.75704C19.7804 2.75704 20.6219 3.64491 20.6219 4.71774V7.77593C20.6219 8.40484 20.9511 8.94742 21.4389 9.2557H20.0975V9.24337Z" fill="#2D2DB2"/>
</svg>
