<svg width="375" height="501" viewBox="0 0 375 501" fill="none" xmlns="http://www.w3.org/2000/svg">
<path d="M249.585 417.319C245.573 415.939 241.052 415.974 236.689 416.518C228.051 417.6 220.986 422.168 221.706 433.011C220.823 437.087 223.133 439.97 226.519 442.397C232.946 447.012 239.97 447.725 247.474 445.93C254.053 444.362 258.995 441.298 260.176 433.905C261.621 424.881 257.258 419.963 249.585 417.319ZM251.807 434.081C248.263 435.859 244.433 436.379 240.011 436.514C235.479 435.952 230.402 435.631 226.765 431.309C224.647 428.794 224.677 426.548 226.759 423.998C229.695 420.407 234.005 419.834 238.023 419.179C242.912 418.378 247.778 419.302 252.223 421.805C254.503 423.086 256.878 424.501 256.749 427.373C256.609 430.478 254.58 432.695 251.807 434.081Z" fill="#2D2DB2"/>
<path d="M92.1579 478.347C95.667 480.739 99.328 482.921 102.896 485.231C113.054 491.816 123.184 498.46 133.366 505.016C140.343 509.507 147.419 513.853 154.402 518.339C160.52 522.269 166.567 526.304 172.649 530.287C179.878 535.012 187.147 539.668 194.335 544.457C198.938 547.516 203.652 550.405 208.295 553.394C212.26 555.949 216.904 556.142 221.694 555.043C226.127 554.025 229.548 551.271 233.426 549.312C243.695 544.118 253.959 538.913 264.153 533.579C274.265 528.292 284.26 522.789 294.36 517.479C302.437 513.227 310.613 509.162 318.707 504.952C332.579 497.741 346.475 490.582 360.271 483.231C365.5 480.447 370.839 477.815 376.114 475.096V478.61C373.793 478.564 372.331 480.429 370.447 481.318C364.038 484.342 357.879 487.904 351.592 491.202C345.323 494.489 338.936 497.571 332.731 500.992C326.216 504.583 319.531 507.858 312.964 511.356C306.144 514.987 299.208 518.438 292.366 522.041C283.02 526.965 273.487 531.521 264.276 536.714C258.036 540.241 251.521 543.282 245.152 546.58C240.157 549.165 235.063 551.592 230.244 554.47C221.308 559.798 212.763 560.178 203.921 554.06C194.744 547.715 185.27 541.796 175.878 535.767C165.684 529.222 155.28 522.994 145.261 516.204C136.816 510.484 128.12 505.168 119.645 499.501C110.3 493.255 100.72 487.354 91.2924 481.225C85.2685 477.306 85.2978 473.651 91.1462 469.604C95.8892 466.323 101.229 464.177 106.293 461.521C117.119 455.843 127.962 450.193 138.857 444.655C150.794 438.584 162.842 432.73 174.755 426.624C185.293 421.226 195.622 415.425 206.231 410.173C211.611 407.512 216.916 404.693 222.361 402.137C231.233 397.973 239.765 393.107 248.468 388.586C253.895 385.767 259.404 383.101 264.82 380.258C272.557 376.205 280.447 372.462 287.962 367.965C293.594 364.59 299.226 365.936 304.443 369.181C315.882 376.305 327.263 383.533 338.638 390.762C349.849 397.879 361.031 405.055 372.219 412.208C373.53 413.044 374.816 413.91 376.114 414.758V418.273C369.161 413.904 362.131 409.64 355.277 405.12C349.773 401.482 344.182 397.985 338.615 394.446C328.789 388.2 319.063 381.79 309.262 375.498C306.577 373.772 303.84 372.1 301.033 370.585C296.705 368.251 292.442 368.93 288.272 371.176C272.528 379.644 256.667 387.873 240.584 395.68C230.917 400.371 221.647 405.868 212.097 410.804C203.821 415.085 195.341 418.98 187.048 423.232C176.942 428.414 167.052 434.022 156.853 439.005C149.724 442.491 142.665 446.117 135.617 449.755C128.541 453.404 121.558 457.235 114.475 460.866C108.861 463.75 103.176 466.504 97.48 469.224C95.5383 470.148 93.6317 471.136 91.9883 472.493C89.1519 474.821 89.187 476.324 92.1579 478.347Z" fill="#2D2DB2"/>
<path d="M352.201 431.221C349.417 428.841 346.165 427.963 342.709 427.203C337.609 426.08 332.422 426.525 327.831 428.162C321.789 430.32 317.573 434.613 317.789 443.327C316.865 448.678 320.444 451.778 324.76 454.24C330.088 457.281 335.808 458.094 341.908 456.977C349.347 455.615 355.839 452.299 356.927 443.333C357.511 438.491 355.985 434.467 352.201 431.221ZM348.639 444.099C345.154 446.456 341.124 447.105 336.796 446.971C333.966 447.228 331.235 446.193 328.433 445.368C324.749 444.28 321.737 441.994 321.515 438.327C321.286 434.566 324.673 432.367 327.942 431.262C335.323 428.765 342.697 428.554 349.639 432.876C355.289 436.385 353.991 440.479 348.639 444.099Z" fill="#2D2DB2"/>
<path d="M167.316 464.446C162.866 461.346 158.058 459.358 152.976 459.896C150.058 459.837 147.742 460.352 145.356 460.826C138.636 462.159 134.53 465.797 132.823 472.405C131.711 476.721 133.261 483.085 136.238 485.33C142.268 489.88 149.081 491.494 156.45 490.214C165.948 488.57 170.422 484.903 171.609 476.78C172.182 472.85 170.539 466.692 167.316 464.446ZM165.562 475.827C161.643 479.301 156.643 480.33 151.76 480.19C147.034 480.061 142.081 479.453 138.46 475.435C135.56 472.212 135.378 470.294 138.507 467.206C142.227 463.533 147.075 463.083 150.081 462.849C156.625 462.656 160.994 463.744 164.901 466.346C169.17 469.183 169.422 472.405 165.562 475.827Z" fill="#2D2DB2"/>
<path d="M212.46 443.21C207.91 438.59 202.36 437.52 196.301 437.613C195.324 437.613 194.342 437.526 193.377 437.625C185.926 438.42 177.995 441.748 176.978 450.503C176.826 451.796 177.37 452.954 177.03 454.211C176.159 457.509 177.697 460.106 179.914 462.217C187.879 469.814 201.605 469.844 210.384 464.112C215.969 460.469 218.115 448.959 212.46 443.21ZM208.395 454.351C200.845 459.03 192.382 459.194 184.815 454.936C178.884 451.603 178.481 447.246 184.978 442.877C188.458 440.543 192.663 440.391 197.301 440.549C201.389 439.859 205.512 441.526 209.191 443.83C213.565 446.573 213.495 451.199 208.395 454.351Z" fill="#2D2DB2"/>
<path d="M308.525 454.638C304.057 451.585 299.197 450.141 294.168 450.509C292.723 450.509 291.647 450.427 290.583 450.521C284.676 451.024 276.231 453.883 274.763 462.194C274.19 465.411 273.546 468.873 275.125 471.885C277.231 475.908 280.997 478.213 285.184 479.803C290.36 481.774 295.688 481.587 300.841 480.166C306.666 478.564 311.613 475.669 312.923 468.926C313.994 463.405 312.058 457.047 308.525 454.638ZM306.56 466.826C302.537 470.195 297.46 470.557 292.337 470.54C289.226 470.528 286.413 469.616 283.6 468.633C280.71 467.621 278.371 465.539 278.044 462.498C277.693 459.17 279.915 457.024 282.898 455.597C286.407 453.924 290.039 453.129 293.963 453.462C298.361 452.995 302.291 454.398 306.069 456.626C310.859 459.445 310.824 463.264 306.56 466.826Z" fill="#2D2DB2"/>
<path d="M263.616 475.838C257.171 471.984 250.276 472.031 243.357 473.511C237.205 474.832 232.508 478.195 231.409 484.979C230.619 489.804 230.374 494.512 234.894 497.963C239.228 501.273 243.878 503.618 249.673 503.162C252.089 503.636 254.639 503.127 257.031 502.513C262.838 501.021 268.014 498.513 269.312 491.775C270.534 485.395 269.909 479.593 263.616 475.838ZM264.85 487.301C261.528 491.202 257.3 492.711 247.691 492.67C244.802 492.582 240.164 491.787 236.462 487.909C233.631 484.944 234.093 482.242 237.538 479.242C239.678 477.376 242.345 476.376 245.17 475.967C252.176 474.949 258.972 475.101 264.593 480.242C267.195 482.622 267.172 484.576 264.85 487.301Z" fill="#2D2DB2"/>
<path d="M297.928 396.482C294.939 394.639 291.857 393.569 288.535 393.242C281.898 392.592 275.599 393.113 269.639 397.061C264.873 400.213 263.031 413.243 267.066 416.863C268.785 418.407 270.704 419.811 272.733 420.899C277.886 423.665 283.395 424.045 289.109 423.004C299.378 421.138 303.654 416.167 303.706 405.523C303.256 402.699 302.034 399.026 297.928 396.482ZM297.77 408.623C293.957 412.249 289.068 412.933 284.05 413.027C280.804 413.074 277.669 412.407 274.651 411.319C271.47 410.167 268.604 407.822 268.37 404.669C268.095 400.95 271.417 398.575 274.692 397.458C282.061 394.938 289.448 394.721 296.478 398.856C300.788 401.388 301.402 405.172 297.77 408.623Z" fill="#2D2DB2"/>
<path d="M222.659 500.887C215.582 493.114 201.57 494.161 194.142 497.834C188.756 500.495 186.615 505.402 187.194 511.654C186.06 517.069 189.516 520.257 193.774 522.567C202.201 527.135 210.74 526.877 219.191 522.339C226.425 518.461 228.186 506.963 222.659 500.887ZM220.384 510.566C214.249 516.432 198.815 517.327 192.493 510.636C189.58 507.554 190.218 503.513 193.85 501.296C197.78 498.899 202.014 497.84 206.576 497.934C211.266 497.799 215.536 499.074 219.413 501.729C222.823 504.063 223.355 507.73 220.384 510.566Z" fill="#2D2DB2"/>
<path d="M249.585 417.319C245.573 415.939 241.052 415.974 236.689 416.518C228.051 417.6 220.986 422.168 221.706 433.011C220.823 437.087 223.133 439.97 226.519 442.397C232.946 447.012 239.97 447.725 247.474 445.93C254.053 444.362 258.995 441.298 260.176 433.905C261.621 424.881 257.258 419.963 249.585 417.319ZM251.807 434.081C248.263 435.859 244.433 436.379 240.011 436.514C235.479 435.952 230.402 435.631 226.765 431.309C224.647 428.794 224.677 426.548 226.759 423.998C229.695 420.407 234.005 419.834 238.023 419.179C242.912 418.378 247.778 419.302 252.223 421.805C254.503 423.086 256.878 424.501 256.749 427.373C256.609 430.478 254.58 432.695 251.807 434.081Z" fill="#2D2DB2"/>
<path d="M177.137 94.7236C176.304 94.7187 175.167 94.65 175.167 95.7332C175.162 96.8066 176.314 96.2773 176.951 96.4538C177.74 96.341 178.941 96.689 178.951 95.5225C178.961 94.5961 177.863 94.7285 177.137 94.7236ZM177.137 94.7236C176.304 94.7187 175.167 94.65 175.167 95.7332C175.162 96.8066 176.314 96.2773 176.951 96.4538C177.74 96.341 178.941 96.689 178.951 95.5225C178.961 94.5961 177.863 94.7285 177.137 94.7236ZM177.137 94.7236C176.304 94.7187 175.167 94.65 175.167 95.7332C175.162 96.8066 176.314 96.2773 176.951 96.4538C177.74 96.341 178.941 96.689 178.951 95.5225C178.961 94.5961 177.863 94.7285 177.137 94.7236ZM177.137 94.7236C176.304 94.7187 175.167 94.65 175.167 95.7332C175.162 96.8066 176.314 96.2773 176.951 96.4538C177.74 96.341 178.941 96.689 178.951 95.5225C178.961 94.5961 177.863 94.7285 177.137 94.7236ZM177.137 94.7236C176.304 94.7187 175.167 94.65 175.167 95.7332C175.162 96.8066 176.314 96.2773 176.951 96.4538C177.74 96.341 178.941 96.689 178.951 95.5225C178.961 94.5961 177.863 94.7285 177.137 94.7236ZM177.137 94.7236C176.304 94.7187 175.167 94.65 175.167 95.7332C175.162 96.8066 176.314 96.2773 176.951 96.4538C177.74 96.341 178.941 96.689 178.951 95.5225C178.961 94.5961 177.863 94.7285 177.137 94.7236ZM177.137 94.7236C176.304 94.7187 175.167 94.65 175.167 95.7332C175.162 96.8066 176.314 96.2773 176.951 96.4538C177.74 96.341 178.941 96.689 178.951 95.5225C178.961 94.5961 177.863 94.7285 177.137 94.7236ZM177.137 94.7236C176.304 94.7187 175.167 94.65 175.167 95.7332C175.162 96.8066 176.314 96.2773 176.951 96.4538C177.74 96.341 178.941 96.689 178.951 95.5225C178.961 94.5961 177.863 94.7285 177.137 94.7236ZM177.137 94.7236C176.304 94.7187 175.167 94.65 175.167 95.7332C175.162 96.8066 176.314 96.2773 176.951 96.4538C177.74 96.341 178.941 96.689 178.951 95.5225C178.961 94.5961 177.863 94.7285 177.137 94.7236ZM177.137 94.7236C176.304 94.7187 175.167 94.65 175.167 95.7332C175.162 96.8066 176.314 96.2773 176.951 96.4538C177.74 96.341 178.941 96.689 178.951 95.5225C178.961 94.5961 177.863 94.7285 177.137 94.7236ZM177.137 94.7236C176.304 94.7187 175.167 94.65 175.167 95.7332C175.162 96.8066 176.314 96.2773 176.951 96.4538C177.74 96.341 178.941 96.689 178.951 95.5225C178.961 94.5961 177.863 94.7285 177.137 94.7236ZM177.137 94.7236C176.304 94.7187 175.167 94.65 175.167 95.7332C175.162 96.8066 176.314 96.2773 176.951 96.4538C177.74 96.341 178.941 96.689 178.951 95.5225C178.961 94.5961 177.863 94.7285 177.137 94.7236ZM177.137 94.7236C176.304 94.7187 175.167 94.65 175.167 95.7332C175.162 96.8066 176.314 96.2773 176.951 96.4538C177.74 96.341 178.941 96.689 178.951 95.5225C178.961 94.5961 177.863 94.7285 177.137 94.7236ZM177.137 94.7236C176.304 94.7187 175.167 94.65 175.167 95.7332C175.162 96.8066 176.314 96.2773 176.951 96.4538C177.74 96.341 178.941 96.689 178.951 95.5225C178.961 94.5961 177.863 94.7285 177.137 94.7236ZM177.137 94.7236C176.304 94.7187 175.167 94.65 175.167 95.7332C175.162 96.8066 176.314 96.2773 176.951 96.4538C177.74 96.341 178.941 96.689 178.951 95.5225C178.961 94.5961 177.863 94.7285 177.137 94.7236ZM177.137 94.7236C176.304 94.7187 175.167 94.65 175.167 95.7332C175.162 96.8066 176.314 96.2773 176.951 96.4538C177.74 96.341 178.941 96.689 178.951 95.5225C178.961 94.5961 177.863 94.7285 177.137 94.7236ZM177.137 94.7236C176.304 94.7187 175.167 94.65 175.167 95.7332C175.162 96.8066 176.314 96.2773 176.951 96.4538C177.74 96.341 178.941 96.689 178.951 95.5225C178.961 94.5961 177.863 94.7285 177.137 94.7236ZM177.137 94.7236C176.304 94.7187 175.167 94.65 175.167 95.7332C175.162 96.8066 176.314 96.2773 176.951 96.4538C177.74 96.341 178.941 96.689 178.951 95.5225C178.961 94.5961 177.863 94.7285 177.137 94.7236ZM177.137 94.7236C176.304 94.7187 175.167 94.65 175.167 95.7332C175.162 96.8066 176.314 96.2773 176.951 96.4538C177.74 96.341 178.941 96.689 178.951 95.5225C178.961 94.5961 177.863 94.7285 177.137 94.7236ZM177.137 94.7236C176.304 94.7187 175.167 94.65 175.167 95.7332C175.162 96.8066 176.314 96.2773 176.951 96.4538C177.74 96.341 178.941 96.689 178.951 95.5225C178.961 94.5961 177.863 94.7285 177.137 94.7236ZM177.137 94.7236C176.304 94.7187 175.167 94.65 175.167 95.7332C175.162 96.8066 176.314 96.2773 176.951 96.4538C177.74 96.341 178.941 96.689 178.951 95.5225C178.961 94.5961 177.863 94.7285 177.137 94.7236ZM177.137 94.7236C176.304 94.7187 175.167 94.65 175.167 95.7332C175.162 96.8066 176.314 96.2773 176.951 96.4538C177.74 96.341 178.941 96.689 178.951 95.5225C178.961 94.5961 177.863 94.7285 177.137 94.7236ZM177.137 94.7236C176.304 94.7187 175.167 94.65 175.167 95.7332C175.162 96.8066 176.314 96.2773 176.951 96.4538C177.74 96.341 178.941 96.689 178.951 95.5225C178.961 94.5961 177.863 94.7285 177.137 94.7236ZM177.137 94.7236C176.304 94.7187 175.167 94.65 175.167 95.7332C175.162 96.8066 176.314 96.2773 176.951 96.4538C177.74 96.341 178.941 96.689 178.951 95.5225C178.961 94.5961 177.863 94.7285 177.137 94.7236ZM177.137 94.7236C176.304 94.7187 175.167 94.65 175.167 95.7332C175.162 96.8066 176.314 96.2773 176.951 96.4538C177.74 96.341 178.941 96.689 178.951 95.5225C178.961 94.5961 177.863 94.7285 177.137 94.7236ZM177.137 94.7236C176.304 94.7187 175.167 94.65 175.167 95.7332C175.162 96.8066 176.314 96.2773 176.951 96.4538C177.74 96.341 178.941 96.689 178.951 95.5225C178.961 94.5961 177.863 94.7285 177.137 94.7236ZM177.137 94.7236C176.304 94.7187 175.167 94.65 175.167 95.7332C175.162 96.8066 176.314 96.2773 176.951 96.4538C177.74 96.341 178.941 96.689 178.951 95.5225C178.961 94.5961 177.863 94.7285 177.137 94.7236ZM177.137 94.7236C176.304 94.7187 175.167 94.65 175.167 95.7332C175.162 96.8066 176.314 96.2773 176.951 96.4538C177.74 96.341 178.941 96.689 178.951 95.5225C178.961 94.5961 177.863 94.7285 177.137 94.7236ZM177.137 94.7236C176.304 94.7187 175.167 94.65 175.167 95.7332C175.162 96.8066 176.314 96.2773 176.951 96.4538C177.74 96.341 178.941 96.689 178.951 95.5225C178.961 94.5961 177.863 94.7285 177.137 94.7236ZM177.137 94.7236C176.304 94.7187 175.167 94.65 175.167 95.7332C175.162 96.8066 176.314 96.2773 176.951 96.4538C177.74 96.341 178.941 96.689 178.951 95.5225C178.961 94.5961 177.863 94.7285 177.137 94.7236ZM177.137 94.7236C176.304 94.7187 175.167 94.65 175.167 95.7332C175.162 96.8066 176.314 96.2773 176.951 96.4538C177.74 96.341 178.941 96.689 178.951 95.5225C178.961 94.5961 177.863 94.7285 177.137 94.7236ZM177.137 94.7236C176.304 94.7187 175.167 94.65 175.167 95.7332C175.162 96.8066 176.314 96.2773 176.951 96.4538C177.74 96.341 178.941 96.689 178.951 95.5225C178.961 94.5961 177.863 94.7285 177.137 94.7236ZM177.137 94.7236C176.304 94.7187 175.167 94.65 175.167 95.7332C175.162 96.8066 176.314 96.2773 176.951 96.4538C177.74 96.341 178.941 96.689 178.951 95.5225C178.961 94.5961 177.863 94.7285 177.137 94.7236ZM177.137 94.7236C176.304 94.7187 175.167 94.65 175.167 95.7332C175.162 96.8066 176.314 96.2773 176.951 96.4538C177.74 96.341 178.941 96.689 178.951 95.5225C178.961 94.5961 177.863 94.7285 177.137 94.7236ZM177.137 94.7236C176.304 94.7187 175.167 94.65 175.167 95.7332C175.162 96.8066 176.314 96.2773 176.951 96.4538C177.74 96.341 178.941 96.689 178.951 95.5225C178.961 94.5961 177.863 94.7285 177.137 94.7236ZM177.137 94.7236C176.304 94.7187 175.167 94.65 175.167 95.7332C175.162 96.8066 176.314 96.2773 176.951 96.4538C177.74 96.341 178.941 96.689 178.951 95.5225C178.961 94.5961 177.863 94.7285 177.137 94.7236ZM177.137 94.7236C176.304 94.7187 175.167 94.65 175.167 95.7332C175.162 96.8066 176.314 96.2773 176.951 96.4538C177.74 96.341 178.941 96.689 178.951 95.5225C178.961 94.5961 177.863 94.7285 177.137 94.7236ZM177.137 94.7236C176.304 94.7187 175.167 94.65 175.167 95.7332C175.162 96.8066 176.314 96.2773 176.951 96.4538C177.74 96.341 178.941 96.689 178.951 95.5225C178.961 94.5961 177.863 94.7285 177.137 94.7236ZM177.137 94.7236C176.304 94.7187 175.167 94.65 175.167 95.7332C175.162 96.8066 176.314 96.2773 176.951 96.4538C177.74 96.341 178.941 96.689 178.951 95.5225C178.961 94.5961 177.863 94.7285 177.137 94.7236ZM177.137 94.7236C176.304 94.7187 175.167 94.65 175.167 95.7332C175.162 96.8066 176.314 96.2773 176.951 96.4538C177.74 96.341 178.941 96.689 178.951 95.5225C178.961 94.5961 177.863 94.7285 177.137 94.7236ZM177.137 94.7236C176.304 94.7187 175.167 94.65 175.167 95.7332C175.162 96.8066 176.314 96.2773 176.951 96.4538C177.74 96.341 178.941 96.689 178.951 95.5225C178.961 94.5961 177.863 94.7285 177.137 94.7236ZM177.137 94.7236C176.304 94.7187 175.167 94.65 175.167 95.7332C175.162 96.8066 176.314 96.2773 176.951 96.4538C177.74 96.341 178.941 96.689 178.951 95.5225C178.961 94.5961 177.863 94.7285 177.137 94.7236ZM177.137 94.7236C176.304 94.7187 175.167 94.65 175.167 95.7332C175.162 96.8066 176.314 96.2773 176.951 96.4538C177.74 96.341 178.941 96.689 178.951 95.5225C178.961 94.5961 177.863 94.7285 177.137 94.7236ZM177.137 94.7236C176.304 94.7187 175.167 94.65 175.167 95.7332C175.162 96.8066 176.314 96.2773 176.951 96.4538C177.74 96.341 178.941 96.689 178.951 95.5225C178.961 94.5961 177.863 94.7285 177.137 94.7236ZM177.137 94.7236C176.304 94.7187 175.167 94.65 175.167 95.7332C175.162 96.8066 176.314 96.2773 176.951 96.4538C177.74 96.341 178.941 96.689 178.951 95.5225C178.961 94.5961 177.863 94.7285 177.137 94.7236ZM177.137 94.7236C176.304 94.7187 175.167 94.65 175.167 95.7332C175.162 96.8066 176.314 96.2773 176.951 96.4538C177.74 96.341 178.941 96.689 178.951 95.5225C178.961 94.5961 177.863 94.7285 177.137 94.7236ZM177.137 94.7236C176.304 94.7187 175.167 94.65 175.167 95.7332C175.162 96.8066 176.314 96.2773 176.951 96.4538C177.74 96.341 178.941 96.689 178.951 95.5225C178.961 94.5961 177.863 94.7285 177.137 94.7236ZM177.137 94.7236C176.304 94.7187 175.167 94.65 175.167 95.7332C175.162 96.8066 176.314 96.2773 176.951 96.4538C177.74 96.341 178.941 96.689 178.951 95.5225C178.961 94.5961 177.863 94.7285 177.137 94.7236ZM177.137 94.7236C176.304 94.7187 175.167 94.65 175.167 95.7332C175.162 96.8066 176.314 96.2773 176.951 96.4538C177.74 96.341 178.941 96.689 178.951 95.5225C178.961 94.5961 177.863 94.7285 177.137 94.7236ZM177.137 94.7236C176.304 94.7187 175.167 94.65 175.167 95.7332C175.162 96.8066 176.314 96.2773 176.951 96.4538C177.74 96.341 178.941 96.689 178.951 95.5225C178.961 94.5961 177.863 94.7285 177.137 94.7236ZM177.137 94.7236C176.304 94.7187 175.167 94.65 175.167 95.7332C175.162 96.8066 176.314 96.2773 176.951 96.4538C177.74 96.341 178.941 96.689 178.951 95.5225C178.961 94.5961 177.863 94.7285 177.137 94.7236ZM177.137 94.7236C176.304 94.7187 175.167 94.65 175.167 95.7332C175.162 96.8066 176.314 96.2773 176.951 96.4538C177.74 96.341 178.941 96.689 178.951 95.5225C178.961 94.5961 177.863 94.7285 177.137 94.7236ZM177.137 94.7236C176.304 94.7187 175.167 94.65 175.167 95.7332C175.162 96.8066 176.314 96.2773 176.951 96.4538C177.74 96.341 178.941 96.689 178.951 95.5225C178.961 94.5961 177.863 94.7285 177.137 94.7236ZM177.137 94.7236C176.304 94.7187 175.167 94.65 175.167 95.7332C175.162 96.8066 176.314 96.2773 176.951 96.4538C177.74 96.341 178.941 96.689 178.951 95.5225C178.961 94.5961 177.863 94.7285 177.137 94.7236ZM177.137 94.7236C176.304 94.7187 175.167 94.65 175.167 95.7332C175.162 96.8066 176.314 96.2773 176.951 96.4538C177.74 96.341 178.941 96.689 178.951 95.5225C178.961 94.5961 177.863 94.7285 177.137 94.7236ZM177.137 94.7236C176.304 94.7187 175.167 94.65 175.167 95.7332C175.162 96.8066 176.314 96.2773 176.951 96.4538C177.74 96.341 178.941 96.689 178.951 95.5225C178.961 94.5961 177.863 94.7285 177.137 94.7236ZM177.137 94.7236C176.304 94.7187 175.167 94.65 175.167 95.7332C175.162 96.8066 176.314 96.2773 176.951 96.4538C177.74 96.341 178.941 96.689 178.951 95.5225C178.961 94.5961 177.863 94.7285 177.137 94.7236ZM177.137 94.7236C176.304 94.7187 175.167 94.65 175.167 95.7332C175.162 96.8066 176.314 96.2773 176.951 96.4538C177.74 96.341 178.941 96.689 178.951 95.5225C178.961 94.5961 177.863 94.7285 177.137 94.7236ZM177.137 94.7236C176.304 94.7187 175.167 94.65 175.167 95.7332C175.162 96.8066 176.314 96.2773 176.951 96.4538C177.74 96.341 178.941 96.689 178.951 95.5225C178.961 94.5961 177.863 94.7285 177.137 94.7236ZM177.137 94.7236C176.304 94.7187 175.167 94.65 175.167 95.7332C175.162 96.8066 176.314 96.2773 176.951 96.4538C177.74 96.341 178.941 96.689 178.951 95.5225C178.961 94.5961 177.863 94.7285 177.137 94.7236ZM177.137 94.7236C176.304 94.7187 175.167 94.65 175.167 95.7332C175.162 96.8066 176.314 96.2773 176.951 96.4538C177.74 96.341 178.941 96.689 178.951 95.5225C178.961 94.5961 177.863 94.7285 177.137 94.7236ZM177.137 94.7236C176.304 94.7187 175.167 94.65 175.167 95.7332C175.162 96.8066 176.314 96.2773 176.951 96.4538C177.74 96.341 178.941 96.689 178.951 95.5225C178.961 94.5961 177.863 94.7285 177.137 94.7236ZM177.137 94.7236C176.304 94.7187 175.167 94.65 175.167 95.7332C175.162 96.8066 176.314 96.2773 176.951 96.4538C177.74 96.341 178.941 96.689 178.951 95.5225C178.961 94.5961 177.863 94.7285 177.137 94.7236ZM177.137 94.7236C176.304 94.7187 175.167 94.65 175.167 95.7332C175.162 96.8066 176.314 96.2773 176.951 96.4538C177.74 96.341 178.941 96.689 178.951 95.5225C178.961 94.5961 177.863 94.7285 177.137 94.7236ZM177.137 94.7236C176.304 94.7187 175.167 94.65 175.167 95.7332C175.162 96.8066 176.314 96.2773 176.951 96.4538C177.74 96.341 178.941 96.689 178.951 95.5225C178.961 94.5961 177.863 94.7285 177.137 94.7236ZM177.137 94.7236C176.304 94.7187 175.167 94.65 175.167 95.7332C175.162 96.8066 176.314 96.2773 176.951 96.4538C177.74 96.341 178.941 96.689 178.951 95.5225C178.961 94.5961 177.863 94.7285 177.137 94.7236ZM177.137 94.7236C176.304 94.7187 175.167 94.65 175.167 95.7332C175.162 96.8066 176.314 96.2773 176.951 96.4538C177.74 96.341 178.941 96.689 178.951 95.5225C178.961 94.5961 177.863 94.7285 177.137 94.7236ZM177.137 94.7236C176.304 94.7187 175.167 94.65 175.167 95.7332C175.162 96.8066 176.314 96.2773 176.951 96.4538C177.74 96.341 178.941 96.689 178.951 95.5225C178.961 94.5961 177.863 94.7285 177.137 94.7236ZM177.137 94.7236C176.304 94.7187 175.167 94.65 175.167 95.7332C175.162 96.8066 176.314 96.2773 176.951 96.4538C177.74 96.341 178.941 96.689 178.951 95.5225C178.961 94.5961 177.863 94.7285 177.137 94.7236ZM177.137 94.7236C176.304 94.7187 175.167 94.65 175.167 95.7332C175.162 96.8066 176.314 96.2773 176.951 96.4538C177.74 96.341 178.941 96.689 178.951 95.5225C178.961 94.5961 177.863 94.7285 177.137 94.7236ZM177.137 94.7236C176.304 94.7187 175.167 94.65 175.167 95.7332C175.162 96.8066 176.314 96.2773 176.951 96.4538C177.74 96.341 178.941 96.689 178.951 95.5225C178.961 94.5961 177.863 94.7285 177.137 94.7236ZM177.137 94.7236C176.304 94.7187 175.167 94.65 175.167 95.7332C175.162 96.8066 176.314 96.2773 176.951 96.4538C177.74 96.341 178.941 96.689 178.951 95.5225C178.961 94.5961 177.863 94.7285 177.137 94.7236ZM177.137 94.7236C176.304 94.7187 175.167 94.65 175.167 95.7332C175.162 96.8066 176.314 96.2773 176.951 96.4538C177.74 96.341 178.941 96.689 178.951 95.5225C178.961 94.5961 177.863 94.7285 177.137 94.7236ZM177.137 94.7236C176.304 94.7187 175.167 94.65 175.167 95.7332C175.162 96.8066 176.314 96.2773 176.951 96.4538C177.74 96.341 178.941 96.689 178.951 95.5225C178.961 94.5961 177.863 94.7285 177.137 94.7236ZM177.137 94.7236C176.304 94.7187 175.167 94.65 175.167 95.7332C175.162 96.8066 176.314 96.2773 176.951 96.4538C177.74 96.341 178.941 96.689 178.951 95.5225C178.961 94.5961 177.863 94.7285 177.137 94.7236ZM177.137 94.7236C176.304 94.7187 175.167 94.65 175.167 95.7332C175.162 96.8066 176.314 96.2773 176.951 96.4538C177.74 96.341 178.941 96.689 178.951 95.5225C178.961 94.5961 177.863 94.7285 177.137 94.7236ZM177.137 94.7236C176.304 94.7187 175.167 94.65 175.167 95.7332C175.162 96.8066 176.314 96.2773 176.951 96.4538C177.74 96.341 178.941 96.689 178.951 95.5225C178.961 94.5961 177.863 94.7285 177.137 94.7236ZM177.137 94.7236C176.304 94.7187 175.167 94.65 175.167 95.7332C175.162 96.8066 176.314 96.2773 176.951 96.4538C177.74 96.341 178.941 96.689 178.951 95.5225C178.961 94.5961 177.863 94.7285 177.137 94.7236ZM177.137 94.7236C176.304 94.7187 175.167 94.65 175.167 95.7332C175.162 96.8066 176.314 96.2773 176.951 96.4538C177.74 96.341 178.941 96.689 178.951 95.5225C178.961 94.5961 177.863 94.7285 177.137 94.7236Z" fill="#2D2DB2"/>
<path d="M248.501 118.789C246.1 117.461 246.796 116.324 248.374 115.3C250.408 113.976 251.57 112.246 252.388 109.991C253.756 106.227 252.795 102.507 252.648 98.7672C252.525 95.6352 252.638 92.3464 250.629 89.7634C247.026 85.1315 242.144 82.2201 236.562 80.5292C230.626 78.7254 224.548 78.152 218.373 78.7156C216.24 78.9117 214.956 78.4706 216.054 76.0248C217.191 73.481 217.598 70.7313 216.461 68.3002C215.054 65.3054 215.103 62.6342 216.515 59.7963C216.672 59.4875 216.554 59.0414 216.554 58.664C216.549 53.0715 216.75 47.4742 216.476 41.9013C216.265 37.5636 214.442 33.5934 211.731 30.2605C207.016 24.467 200.576 20.9821 193.63 18.8402C176.471 13.5614 159.306 13.5566 142.303 19.8744C136.828 21.9036 131.765 24.6778 127.569 28.6675C120.462 35.4315 120.139 44.2392 120.904 53.2725C121.198 56.7378 122.33 60.6295 121.202 63.6243C118.419 71.0352 120.732 76.7649 125.437 82.0829C126.805 83.6317 127.452 85.0482 127.447 87.1117C127.378 109.403 127.589 131.695 127.275 153.981C127.192 159.79 130.005 163.52 133.745 166.916C142.127 174.533 152.483 177.449 163.452 178.062C172.045 178.542 180.749 178.831 189.003 175.41C191.042 174.567 191.709 175.587 191.356 177.4C190.675 180.9 191.145 184.439 190.959 187.953C190.758 191.683 191.939 195.192 194.865 197.962C200.889 203.652 207.962 206.652 216.211 207.431C218.975 207.691 221.877 207.304 224.548 208.455H225.69C226.44 207.98 227.288 207.887 228.131 207.892C233.356 207.941 238.292 206.642 242.968 204.466C248.291 201.981 252.918 198.638 255.403 193.021V127.293C253.324 124.269 251.869 120.647 248.501 118.789ZM247.281 120.333C250.31 122.652 252.751 125.205 253.143 129.283C253.653 134.562 250.58 137.572 246.58 139.944C240.076 143.806 232.915 145.306 225.421 145.6C217.549 145.914 209.967 145.066 202.668 141.699C197.703 139.41 194.777 135.626 192.954 130.788C192.43 129.406 193.086 127.837 193.576 126.416C194.517 123.706 196.414 121.686 198.566 119.946C199.733 119.005 201.105 118.471 202.771 119.235C209.153 122.147 215.863 123.456 222.897 123.323C229.636 123.196 236.174 122.162 242.546 119.706C240.198 123.647 236.473 125.441 232.342 126.754C225.529 128.921 218.76 128.783 211.942 126.837C211.3 126.656 210.241 126.303 210.001 127.308C209.775 128.254 210.829 128.538 211.496 128.72C216.76 130.156 222.171 130.71 227.543 129.925C231.837 129.298 236.037 128.102 239.728 125.495C241.483 124.254 243.071 123.034 243.982 121.049C244.747 119.382 245.722 119.142 247.281 120.333ZM198.277 106.472C198.816 106.384 199.527 106.801 200.036 107.168C201.757 108.403 200.899 110.29 201.129 111.736C201.129 112.192 201.178 112.486 201.12 112.756C200.924 113.712 201.678 115.417 200.536 115.476C199.184 115.545 198.037 114.123 197.792 112.677C197.537 111.202 197.679 109.658 197.708 108.144C197.723 107.536 197.419 106.609 198.277 106.472ZM203.404 113.393V112.54C203.413 109.393 203.487 109.344 206.305 110.477C209.285 111.673 210.829 115.437 209.619 118.436C209.276 119.294 208.741 119.157 208.031 119.054C204.261 118.49 203.409 117.476 203.404 113.393ZM217.686 117.147C217.686 121.083 216.084 122.044 212.677 120.407C211.78 119.976 211.329 119.451 211.579 118.427C211.707 117.888 211.962 117.231 211.775 116.795C211.138 115.3 211.31 113.638 212.383 112.878C213.564 112.045 215.373 112.79 216.667 113.27C218.505 113.962 217.373 115.947 217.686 117.147ZM225.7 117.775C225.749 121.735 225.597 121.823 222.127 121.598C220.529 121.495 219.917 120.774 219.97 119.265C220 118.505 220 117.741 219.961 116.981C219.794 113.476 219.789 113.609 223.308 113.545C227.273 113.466 225.038 116.461 225.7 117.775ZM251.388 104.164C251.403 104.825 251.393 105.492 251.388 106.149C251.785 110.393 248.849 112.756 246.08 115.001C241.536 118.682 235.846 119.632 230.356 120.956C228.798 121.328 227.808 120.765 227.935 118.878C228.009 117.858 227.739 116.819 227.675 115.785C227.568 114.104 228.268 113.231 230.062 112.986C237.674 111.952 244.86 109.962 249.923 103.531C250.129 103.267 250.555 102.978 250.83 103.022C251.413 103.115 251.379 103.698 251.388 104.164ZM221.455 80.3576C230.896 80.4311 239.012 82.1956 245.762 87.6411C253.295 93.7188 252.275 99.6054 245.389 105.306C240.86 109.055 235.121 110.33 229.342 111.349C221.706 112.697 214.447 111.271 207.266 109.006C202.781 107.595 199.247 104.639 196.395 101.012C193.307 97.0909 194.826 90.7878 199.174 87.3813C206.016 82.0143 213.981 80.6076 221.455 80.3576ZM214.182 50.018C214.456 50.1356 214.75 50.6061 214.75 50.9198C214.726 56.9142 214.584 62.8302 210.54 67.9032C205.374 74.3828 198.439 78.4117 190.846 80.6468C184.876 82.4015 178.539 83.6513 172.099 83.3376C170.256 83.2494 169.511 82.7593 169.663 80.8723C169.79 79.2646 169.687 77.6373 169.687 76.0199C169.707 68.9717 169.716 69.1138 176.848 68.3982C187.45 67.3346 197.507 64.4722 206.232 58.0906C208.952 56.1006 211.569 53.8313 213.182 50.714C213.407 50.2827 213.618 49.7729 214.182 50.018ZM124.972 35.1276C128.545 29.1087 134.069 25.4865 140.171 22.8104C149.454 18.7373 159.272 16.816 169.457 16.9434C179.568 17.1787 189.449 18.6344 198.708 22.9672C204.208 25.5405 208.839 29.2998 212.29 34.3335C214.628 37.7449 213.853 47.9251 210.687 51.3119C203.35 59.1591 194.287 63.1733 184.019 65.3103C170.496 68.1188 157.159 67.6336 144.082 63.3057C137.127 61.002 130.731 57.6299 126.104 51.4884C122.967 47.3271 122.305 39.6221 124.972 35.1276ZM167.403 76.0885C167.408 77.4168 167.354 78.745 167.418 80.0635C167.516 81.9849 167.29 83.3671 164.761 83.3376C162.384 83.3082 162.261 82.0045 162.237 80.2056C162.198 76.9903 162.453 73.8093 162.786 70.6136C162.962 68.8785 163.987 68.9962 165.148 68.9864C166.349 68.9766 167.472 68.9766 167.418 70.6921C167.359 72.4909 167.403 74.2897 167.403 76.0885ZM160.556 81.0928C160.556 82.3427 159.953 82.7495 158.791 82.725C157.625 82.7005 156.757 82.4309 156.556 81.083C155.997 77.3187 156.527 73.5643 156.571 69.8049C156.595 67.962 158.085 68.4178 159.115 68.4668C160.879 68.5501 161.139 69.0256 161.105 71.9958C160.311 74.6377 160.561 77.8726 160.556 81.0928ZM150.38 67.1729C151.856 67.3983 154.106 66.9474 154.238 69.4912C154.341 71.3782 154.257 73.28 154.262 75.1768C154.262 76.4071 154.419 77.6667 154.218 78.8676C154.037 79.9508 155.248 81.828 153.008 81.9653C150.106 82.1417 149.15 81.1957 149.136 78.5049C149.111 75.4758 149.096 72.4419 149.15 69.4079C149.17 68.4913 148.738 66.9278 150.38 67.1729ZM142.313 67.7757C142.313 66.8004 141.661 64.9525 143.44 65.1731C144.964 65.3593 147.278 65.3446 147.395 67.8884C147.479 69.6922 147.41 71.5057 147.41 73.3143C147.41 74.7455 147.533 76.1865 147.366 77.5932C147.253 78.5784 148.209 80.6223 146.023 80.1419C144.494 79.8086 142.107 79.9802 142.509 76.809C142.881 73.8534 142.323 70.7901 142.313 67.7757ZM135.907 68.7903C135.907 67.1827 136.088 65.5456 135.863 63.9673C135.564 61.8891 136.421 62.2126 137.75 62.7224C139.72 63.4723 140.837 64.531 140.602 66.9082C140.352 69.4422 140.632 72.0252 140.504 74.5789C140.46 75.5542 141.269 77.3677 139.602 77.3334C138.068 77.2991 136.093 76.7355 135.995 74.4759C135.912 72.584 135.975 70.6872 135.975 68.7903H135.907ZM133.691 67.4718C133.691 69.1726 133.696 70.8783 133.686 72.5791C133.677 73.9956 133.27 74.1671 132.005 73.378C129.515 71.8194 128.373 69.7363 128.525 66.7954C128.648 64.3399 128.584 61.8745 128.54 59.4189C128.51 57.6102 129.04 57.5416 130.486 58.4582C132.598 59.8012 134.23 61.2226 133.721 64.0703C133.525 65.1731 133.686 66.3347 133.691 67.4718ZM126.579 67.3346C121.83 62.7273 123.07 56.8652 122.8 51.0032C129.27 55.4831 125.957 61.8548 126.579 67.3346ZM189.935 173.014C181.695 175.998 173.339 177.067 164.536 176.028C158.497 175.317 152.454 174.881 146.758 172.661C140.387 170.176 134.902 166.421 130.961 160.682C129.682 158.819 129.118 156.765 129.118 154.53C129.123 132.626 129.118 110.722 129.148 88.8223C129.148 88.0283 128.677 86.9255 129.633 86.4941C130.446 86.1265 130.814 87.2539 131.451 87.5774C134.564 89.1654 137.588 91.0132 140.852 92.1945C150.655 95.7382 160.781 97.6007 171.265 97.0027C172.192 96.9488 173.544 97.1007 173.412 95.8019C173.255 94.307 172.001 95.1892 171.138 95.2333C160.835 95.7872 150.969 93.7384 141.337 90.2437C136.838 88.6067 132.608 86.4206 129.059 83.2102C124.158 78.7695 120.923 73.5545 122.629 66.2514C131.118 78.1373 143.386 82.4603 156.904 84.46C167.898 86.0824 178.872 85.4501 189.582 83.0583C199.041 80.9458 206.889 75.5248 213.113 67.9571C213.231 67.8149 213.383 67.7071 213.78 67.3444C216.128 71.6331 214.133 75.2308 212.609 78.8431C212.305 79.5538 211.466 79.6861 210.687 79.8773C204.698 81.3428 199.252 83.7445 195.307 88.7929C192.64 92.2092 191.925 96.1891 192.278 100.272C192.596 103.919 192.121 104.673 188.454 105.649C181.789 107.428 175.02 107.869 168.187 107.859C158.134 107.84 148.459 105.948 139.186 102.046C135.818 100.63 135.353 100.747 135.22 104.35C135.044 109.085 135.627 113.859 135.284 118.574C134.853 124.421 135.529 130.239 135.137 136.106C134.799 141.228 134.848 146.575 135.588 151.712C136.122 155.437 139.99 156.731 142.891 158.417C152.243 163.858 162.438 165.71 173.128 164.975C178.034 164.637 182.886 163.833 187.616 162.377C190.631 161.451 191.508 162.083 191.346 165.299C191.253 167.171 191.008 169.009 191.356 170.891C191.547 171.916 191.052 172.607 189.935 173.014ZM191.297 135.018C191.449 136.778 190.856 138.586 190.871 140.37C190.91 146.183 191.582 151.982 191.096 157.824C190.984 159.177 190.778 159.515 189.592 159.912C182.23 162.387 174.569 162.73 167.065 163.402C156.787 162.73 147.405 159.956 139.254 153.673C137.157 152.055 136.083 150.286 136.872 147.306C137.416 145.257 136.666 142.89 136.696 140.635C136.784 134.327 136.25 127.984 136.701 121.711C137.103 116.192 136.362 110.751 136.544 105.276C136.608 103.512 137.544 103.36 138.784 103.948C143.269 106.065 148.092 107.031 152.826 108.354C155.434 109.085 158.115 109.335 160.668 109.428C170.138 109.761 179.666 110.124 188.959 107.609C190.959 107.07 192.126 107.046 192.993 109.482C193.866 111.927 195.547 114.148 197.532 115.947C198.684 116.986 198.728 117.834 197.463 118.613C191.15 122.5 190.739 128.528 191.297 135.018ZM193.145 136.753C193.9 136.513 194.488 137.41 194.885 138.013C197.596 142.105 201.919 143.782 206.207 145.193C215.461 148.237 224.842 148.546 234.469 146.497C240.86 145.134 246.487 142.747 251.383 138.498C251.722 138.209 252.256 137.792 252.56 137.885C253.398 138.14 253.104 138.983 253.109 139.601C253.128 146.36 253.119 153.119 253.119 159.873C253.119 166.441 253.035 173.009 253.168 179.576C253.207 181.547 252.467 182.895 251.006 183.924C244.874 188.237 238.238 191.085 230.655 191.972C222.529 192.923 214.613 192.452 206.771 190.237C201.404 188.722 197.248 185.331 193.361 181.532C192.777 180.964 192.454 180.287 192.572 179.483C193.091 175.954 192.675 172.435 192.611 168.901C192.444 158.942 192.547 148.982 192.577 139.017C192.581 138.238 192.096 137.091 193.145 136.753ZM224.636 205.975C213.834 206.309 203.482 204.26 195.566 195.776C192.876 192.894 192.184 189.438 192.616 185.737C192.876 183.522 194.101 184.605 194.919 185.434C198.698 189.262 203.311 191.609 208.496 192.688C223.617 195.829 238.218 195.315 251.354 185.885C252.81 184.841 253.123 185.267 253.114 186.762C253.109 187.527 253.114 188.286 253.119 189.046C253.555 194.114 250.124 196.766 246.609 199.27C240.051 203.941 232.376 205.735 224.636 205.975Z" fill="#2D2DB2"/>
<path d="M178.951 95.5225C178.941 96.689 177.74 96.341 176.951 96.4538C176.314 96.2773 175.162 96.8066 175.167 95.7332C175.167 94.65 176.304 94.7187 177.137 94.7236C177.863 94.7285 178.961 94.5961 178.951 95.5225Z" fill="#2D2DB2"/>
<path d="M178.951 95.5225C178.941 96.689 177.74 96.341 176.951 96.4538C176.314 96.2773 175.162 96.8066 175.167 95.7332C175.167 94.65 176.304 94.7187 177.137 94.7236C177.863 94.7285 178.961 94.5961 178.951 95.5225Z" fill="#2D2DB2"/>
<path d="M-23.8647 15.2803C-22.7615 16.2708 -21.9016 17.0418 -21.0001 17.8543C-20.1164 16.8164 -21.7474 15.4108 -20.2054 14.6813C-19.0845 14.1535 -18.5329 15.0135 -17.8509 15.6065C-10.651 21.9287 -3.5994 28.4228 3.38105 35.0534C6.74969 38.25 5.29667 41.8381 5.75927 45.3194C5.87195 46.3098 5.16618 45.9125 4.48415 45.9599C1.11551 46.1794 -1.8617 46.2031 -4.54832 43.297C-10.3426 37.0876 -17.4773 32.1948 -22.3642 24.9534C-24.434 21.8694 -23.7757 18.9159 -23.8647 15.2803Z" fill="#2D2DB2"/>
<path d="M-34.4568 167.083C-33.3359 166.863 -32.6954 168.405 -31.3491 167.7C-30.5781 166.751 -33.2647 165.582 -31.788 164.639C-30.4654 163.779 -29.4098 165.28 -28.2414 165.719C-21.5219 168.293 -14.583 169.526 -7.3831 168.779C-1.48204 168.162 2.08824 163.934 5.50433 159.77C12.2891 151.491 12.7517 142.257 8.69506 132.679C7.52671 129.968 9.99389 127.24 8.32142 124.66C8.2977 124.637 8.74251 124.222 8.80775 124.263C12.8169 126.333 9.99984 122.015 11.6486 121.422C12.9711 124.085 15.5925 125.01 18.2791 125.609C20.4379 126.096 21.6952 128.231 21.802 129.352C22.3772 134.879 25.3011 139.683 26.2975 144.902C27.7505 152.701 25.0223 160.055 20.9242 166.774C16.7608 173.601 10.2193 178.227 3.21509 180.605C-1.01351 182.058 -6.3215 183.796 -11.9379 181.619C-14.494 180.629 -18.5032 181.334 -21.7413 180.119C-27.9152 177.788 -33.1995 174.656 -34.4568 167.083Z" fill="#2D2DB2"/>
<path d="M47.1675 446.141C43.6446 447.398 41.4384 449.094 41.1538 452.332C41.0648 453.501 40.1159 453.234 39.4161 453.436C35.8043 454.539 32.1035 454.141 28.4501 454.248C25.983 454.337 23.4268 453.673 21.2028 455.482C20.7817 455.814 19.8388 455.855 19.3109 455.636C11.512 452.309 3.36325 449.581 -2.09894 442.422C-5.37862 438.081 -5.90649 432.488 -9.06163 428.04C-9.9631 426.741 -11.1789 423.877 -8.29061 422.074C-7.73905 421.742 -7.86954 419.5 -8.37958 418.486C-9.89784 415.402 -8.84216 413 -6.99178 410.622C-6.7071 410.224 -6.24452 409.738 -6.26231 409.323C-6.59443 402.847 -2.43107 399.146 1.66705 394.917C4.92894 391.525 8.40433 390.795 12.4787 390.445C13.0066 391.964 11.0672 392.32 11.2036 393.595C12.1941 394.123 13.5819 392.296 14.2876 393.992C14.7917 395.202 13.6293 395.842 13.0125 396.655C7.79348 403.659 4.13423 411.239 5.04163 420.265C5.50423 425.045 8.30351 428.633 11.1443 432.293C17.4012 440.418 25.9 441.633 35.2171 440.839C36.5159 440.732 37.969 440.352 39.0484 441.278C40.5903 442.618 42.1738 442.244 45.0621 441.473C41.5511 445.239 44.813 445.239 47.1675 446.141Z" fill="#2D2DB2"/>
<path d="M63.0917 313.441C62.8248 314.301 62.7595 315.048 61.3717 314.959C58.5072 314.781 55.7316 315.202 53.3297 312.801C48.597 308.044 43.4432 303.679 38.7935 298.857C36.1484 296.106 33.3728 293.176 33.0466 289.012C32.9162 287.512 34.4997 286.017 33.5093 284.232C34.0845 284.784 34.6302 285.335 35.2292 285.863C35.6918 286.284 36.2671 287.008 36.8601 286.569C37.7616 285.928 36.7059 285.531 36.3975 285.069C35.9112 284.298 36.3323 283.811 36.9016 283.414C37.5836 282.975 38.1589 283.372 38.6631 283.835C46.6339 290.904 54.6997 297.908 62.0538 305.66C62.6943 306.324 63.4001 312.468 63.0917 313.441Z" fill="#2D2DB2"/>
<path d="M20.9123 166.774C16.749 173.601 10.2074 178.227 3.20321 180.605C-1.02539 182.058 -6.33341 183.796 -11.9498 181.619C-14.5059 180.629 -18.5151 181.334 -21.7533 180.119C-27.9212 177.782 -33.2055 174.656 -34.4628 167.077C-33.3419 166.858 -32.7014 168.4 -31.3551 167.694C-30.5841 166.745 -33.2707 165.576 -31.7939 164.633C-30.4714 163.774 -29.4157 165.274 -28.2474 165.713C-21.5279 168.287 -14.589 169.52 -7.38908 168.773C-1.48802 168.156 2.0823 163.928 5.49839 159.764C12.2831 151.485 12.7457 142.251 8.68912 132.673C7.52077 129.963 9.98794 127.234 8.31548 124.655C8.29176 124.631 8.73656 124.216 8.8018 124.257C12.811 126.327 9.99386 122.009 11.6426 121.416C12.9651 124.079 15.5865 125.004 18.2731 125.603C20.4319 126.09 21.6892 128.225 21.796 129.346C22.3713 134.873 25.2951 139.677 26.2915 144.896C27.7445 152.701 25.0104 160.055 20.9123 166.774Z" fill="#2D2DB2"/>
<path d="M47.1675 446.141C43.6446 447.398 41.4384 449.094 41.1538 452.332C41.0648 453.501 40.1159 453.234 39.4161 453.436C35.8043 454.539 32.1035 454.141 28.4501 454.248C25.983 454.337 23.4268 453.673 21.2028 455.482C20.7817 455.814 19.8388 455.855 19.3109 455.636C11.512 452.309 3.36325 449.581 -2.09894 442.422C-5.37862 438.081 -5.90649 432.488 -9.06163 428.04C-9.9631 426.741 -11.1789 423.877 -8.29061 422.074C-7.73905 421.742 -7.86954 419.5 -8.37958 418.486C-9.89784 415.402 -8.84216 413 -6.99178 410.622C-6.7071 410.224 -6.24452 409.738 -6.26231 409.323C-6.59443 402.847 -2.43107 399.146 1.66705 394.917C4.92894 391.525 8.40433 390.795 12.4787 390.445C13.0066 391.964 11.0672 392.32 11.2036 393.595C12.1941 394.123 13.5819 392.296 14.2876 393.992C14.7917 395.202 13.6293 395.842 13.0125 396.655C7.79348 403.659 4.13423 411.239 5.04163 420.265C5.50423 425.045 8.30351 428.633 11.1443 432.293C17.4012 440.418 25.9 441.633 35.2171 440.839C36.5159 440.732 37.969 440.352 39.0484 441.278C40.5903 442.618 42.1738 442.244 45.0621 441.473C41.5511 445.239 44.813 445.239 47.1675 446.141Z" fill="#2D2DB2"/>
<path d="M4.48415 45.9659C1.11551 46.1853 -1.8617 46.209 -4.54832 43.303C-10.3426 37.0935 -17.4773 32.2007 -22.3642 24.9593C-24.434 21.8753 -23.7757 18.9218 -23.8647 15.2922C-22.7615 16.2826 -21.9016 17.0536 -21.0001 17.8661C-20.1164 16.8283 -21.7474 15.4227 -20.2054 14.6932C-19.0845 14.1654 -18.5329 15.0253 -17.8509 15.6184C-10.651 21.9406 -3.5994 28.4347 3.38105 35.0652C6.74969 38.2619 5.29667 41.85 5.75927 45.3313C5.87195 46.3158 5.16618 45.9184 4.48415 45.9659Z" fill="#2D2DB2"/>
<path d="M63.0917 313.441C62.8248 314.301 62.7595 315.048 61.3717 314.959C58.5072 314.781 55.7316 315.202 53.3297 312.801C48.597 308.044 43.4432 303.679 38.7935 298.857C36.1484 296.106 33.3728 293.176 33.0466 289.012C32.9162 287.512 34.4997 286.017 33.5093 284.232C34.0845 284.784 34.6302 285.335 35.2292 285.863C35.6918 286.284 36.2671 287.008 36.8601 286.569C37.7616 285.928 36.7059 285.531 36.3975 285.069C35.9112 284.298 36.3323 283.811 36.9016 283.414C37.5836 282.975 38.1589 283.372 38.6631 283.835C46.6339 290.904 54.6997 297.908 62.0538 305.66C62.6943 306.324 63.4001 312.468 63.0917 313.441Z" fill="#2D2DB2"/>
<path d="M110.259 258.984L110.291 252.84H107.603C107.336 252.84 107.107 252.936 106.915 253.128C106.723 253.32 106.627 253.549 106.627 253.816V260.936C106.627 261.277 106.504 261.565 106.259 261.8C106.024 262.045 105.736 262.168 105.395 262.168H101.363C100.648 262.168 99.9815 261.987 99.3629 261.624C98.7442 261.261 98.2535 260.771 97.8909 260.152C97.5282 259.533 97.3469 258.861 97.3469 258.136V255.56H98.7389V258.136C98.7389 258.616 98.8562 259.059 99.0909 259.464C99.3255 259.869 99.6455 260.189 100.051 260.424C100.456 260.669 100.894 260.792 101.363 260.792H104.691C104.84 260.792 104.963 260.739 105.059 260.632C105.166 260.536 105.219 260.413 105.219 260.264V253.8C105.219 253.384 105.326 253 105.539 252.648C105.752 252.285 106.04 252.003 106.403 251.8C106.776 251.587 107.176 251.48 107.603 251.48H111.651L111.635 258.984H110.259ZM122.544 257.624C122.736 257.624 122.896 257.693 123.024 257.832C123.162 257.971 123.232 258.136 123.232 258.328C123.232 258.509 123.168 258.669 123.04 258.808C122.912 258.936 122.746 259 122.544 259H122.176C121.685 259 121.221 258.909 120.784 258.728C120.346 258.536 119.968 258.269 119.648 257.928L119.584 258.024C119.328 258.323 119.013 258.563 118.64 258.744C118.277 258.915 117.904 259 117.52 259H113.44V257.624H117.52C117.722 257.624 117.904 257.581 118.064 257.496C118.234 257.411 118.373 257.304 118.48 257.176C118.672 256.931 118.768 256.675 118.768 256.408C118.768 256.312 118.752 256.211 118.72 256.104L117.52 251.48L118.816 251.128L120.112 255.992C120.218 256.483 120.464 256.877 120.848 257.176C121.232 257.475 121.674 257.624 122.176 257.624H122.544ZM125.012 249.496C125.257 249.496 125.465 249.581 125.636 249.752C125.817 249.923 125.908 250.125 125.908 250.36C125.908 250.605 125.817 250.813 125.636 250.984C125.465 251.155 125.257 251.24 125.012 251.24C124.777 251.24 124.574 251.155 124.404 250.984C124.233 250.803 124.148 250.595 124.148 250.36C124.148 250.125 124.233 249.923 124.404 249.752C124.574 249.581 124.777 249.496 125.012 249.496ZM127.684 257.624C127.876 257.624 128.036 257.688 128.164 257.816C128.302 257.944 128.372 258.104 128.372 258.296C128.372 258.499 128.302 258.669 128.164 258.808C128.025 258.936 127.86 259 127.668 259H127.044C126.649 259 126.281 258.915 125.94 258.744C125.598 258.563 125.316 258.317 125.092 258.008C124.878 258.307 124.606 258.547 124.276 258.728C123.945 258.909 123.588 259 123.204 259H122.5C122.297 259 122.132 258.936 122.004 258.808C121.865 258.68 121.796 258.515 121.796 258.312C121.796 258.109 121.865 257.944 122.004 257.816C122.132 257.688 122.297 257.624 122.5 257.624H123.06C123.401 257.624 123.694 257.501 123.94 257.256C124.196 257 124.324 256.696 124.324 256.344V253.048H125.7V256.36C125.721 256.712 125.86 257.011 126.116 257.256C126.382 257.501 126.692 257.624 127.044 257.624H127.684ZM127.608 259C127.427 259 127.272 258.936 127.144 258.808C127.006 258.669 126.936 258.504 126.936 258.312C126.936 258.131 127.006 257.971 127.144 257.832C127.272 257.693 127.427 257.624 127.608 257.624H128.584C128.851 257.624 129.08 257.533 129.272 257.352C129.464 257.16 129.56 256.931 129.56 256.664V247.848H130.92V256.664C130.92 257.091 130.814 257.485 130.6 257.848C130.398 258.2 130.115 258.483 129.752 258.696C129.4 258.899 129.016 259 128.6 259H127.608ZM133.799 247.8H135.175V259H133.799V247.8ZM145.611 249.816C145.856 249.816 146.064 249.901 146.235 250.072C146.406 250.243 146.491 250.445 146.491 250.68C146.491 250.915 146.406 251.123 146.235 251.304C146.064 251.475 145.856 251.56 145.611 251.56C145.376 251.56 145.168 251.475 144.987 251.304C144.816 251.123 144.731 250.915 144.731 250.68C144.731 250.445 144.816 250.243 144.987 250.072C145.158 249.901 145.366 249.816 145.611 249.816ZM148.059 249.816C148.304 249.816 148.512 249.901 148.683 250.072C148.854 250.243 148.939 250.445 148.939 250.68C148.939 250.915 148.854 251.123 148.683 251.304C148.512 251.475 148.304 251.56 148.059 251.56C147.824 251.56 147.616 251.475 147.435 251.304C147.264 251.123 147.179 250.915 147.179 250.68C147.179 250.445 147.264 250.243 147.435 250.072C147.606 249.901 147.814 249.816 148.059 249.816ZM152.715 257.624C152.715 258.008 152.576 258.333 152.299 258.6C152.032 258.867 151.712 259 151.339 259H144.075C143.51 259 142.982 258.861 142.491 258.584C142.011 258.296 141.627 257.917 141.339 257.448C141.062 256.968 140.923 256.445 140.923 255.88V253.24H142.331V255.88C142.331 256.371 142.496 256.787 142.827 257.128C143.168 257.459 143.584 257.624 144.075 257.624H150.987C151.083 257.624 151.163 257.592 151.227 257.528C151.291 257.464 151.323 257.384 151.323 257.288V251.56H152.715V257.624ZM157.51 259C157.094 259 156.705 258.899 156.342 258.696C155.99 258.483 155.707 258.2 155.494 257.848C155.291 257.485 155.19 257.091 155.19 256.664V247.8H156.566V256.664C156.566 256.931 156.657 257.16 156.838 257.352C157.03 257.533 157.259 257.624 157.526 257.624H158.262V259H157.51ZM164.221 257.624C164.413 257.624 164.573 257.688 164.701 257.816C164.84 257.944 164.909 258.104 164.909 258.296C164.909 258.499 164.84 258.669 164.701 258.808C164.563 258.936 164.397 259 164.205 259H163.133C162.739 259 162.371 258.915 162.029 258.744C161.688 258.563 161.405 258.317 161.181 258.008C160.968 258.307 160.696 258.547 160.365 258.728C160.035 258.909 159.677 259 159.293 259H158.093C157.891 259 157.725 258.936 157.597 258.808C157.459 258.68 157.389 258.515 157.389 258.312C157.389 258.109 157.459 257.944 157.597 257.816C157.725 257.688 157.891 257.624 158.093 257.624H159.149C159.491 257.624 159.784 257.501 160.029 257.256C160.285 257 160.413 256.696 160.413 256.344V252.888H161.789V256.36C161.811 256.712 161.949 257.011 162.205 257.256C162.472 257.501 162.781 257.624 163.133 257.624H164.221ZM159.741 260.6C159.987 260.6 160.195 260.685 160.365 260.856C160.536 261.027 160.621 261.229 160.621 261.464C160.621 261.709 160.536 261.917 160.365 262.088C160.195 262.259 159.987 262.344 159.741 262.344C159.507 262.344 159.299 262.259 159.117 262.088C158.947 261.917 158.861 261.709 158.861 261.464C158.861 261.229 158.947 261.027 159.117 260.856C159.288 260.685 159.496 260.6 159.741 260.6ZM162.237 260.6C162.483 260.6 162.691 260.685 162.861 260.856C163.043 261.027 163.133 261.229 163.133 261.464C163.133 261.709 163.043 261.917 162.861 262.088C162.691 262.259 162.483 262.344 162.237 262.344C162.003 262.344 161.8 262.253 161.629 262.072C161.459 261.901 161.373 261.699 161.373 261.464C161.373 261.229 161.459 261.027 161.629 260.856C161.8 260.685 162.003 260.6 162.237 260.6ZM164.139 259C163.958 259 163.803 258.936 163.675 258.808C163.537 258.669 163.467 258.504 163.467 258.312C163.467 258.131 163.537 257.971 163.675 257.832C163.803 257.693 163.958 257.624 164.139 257.624H165.116C165.382 257.624 165.612 257.533 165.804 257.352C165.996 257.16 166.092 256.931 166.092 256.664V247.848H167.452V256.664C167.452 257.091 167.345 257.485 167.132 257.848C166.929 258.2 166.646 258.483 166.284 258.696C165.932 258.899 165.548 259 165.132 259H164.139ZM178.747 257.624C178.939 257.624 179.099 257.693 179.227 257.832C179.365 257.971 179.435 258.136 179.435 258.328C179.435 258.509 179.371 258.669 179.243 258.808C179.115 258.936 178.949 259 178.747 259H178.379C177.888 259 177.424 258.909 176.987 258.728C176.549 258.536 176.171 258.269 175.851 257.928L175.787 258.024C175.531 258.323 175.216 258.563 174.843 258.744C174.48 258.915 174.107 259 173.723 259H169.643V257.624H173.723C173.925 257.624 174.107 257.581 174.267 257.496C174.437 257.411 174.576 257.304 174.683 257.176C174.875 256.931 174.971 256.675 174.971 256.408C174.971 256.312 174.955 256.211 174.923 256.104L173.723 251.48L175.019 251.128L176.315 255.992C176.421 256.483 176.667 256.877 177.051 257.176C177.435 257.475 177.877 257.624 178.379 257.624H178.747ZM184.831 257.624C185.023 257.624 185.183 257.688 185.311 257.816C185.449 257.944 185.519 258.104 185.519 258.296C185.519 258.499 185.449 258.669 185.311 258.808C185.172 258.936 185.007 259 184.815 259H183.743C183.348 259 182.98 258.915 182.639 258.744C182.297 258.563 182.015 258.317 181.791 258.008C181.577 258.307 181.305 258.547 180.975 258.728C180.644 258.909 180.287 259 179.903 259H178.703C178.5 259 178.335 258.936 178.207 258.808C178.068 258.68 177.999 258.515 177.999 258.312C177.999 258.109 178.068 257.944 178.207 257.816C178.335 257.688 178.5 257.624 178.703 257.624H179.759C180.1 257.624 180.393 257.501 180.639 257.256C180.895 257 181.023 256.696 181.023 256.344V252.888H182.399V256.36C182.42 256.712 182.559 257.011 182.815 257.256C183.081 257.501 183.391 257.624 183.743 257.624H184.831ZM180.351 260.6C180.596 260.6 180.804 260.685 180.975 260.856C181.145 261.027 181.231 261.229 181.231 261.464C181.231 261.709 181.145 261.917 180.975 262.088C180.804 262.259 180.596 262.344 180.351 262.344C180.116 262.344 179.908 262.259 179.727 262.088C179.556 261.917 179.471 261.709 179.471 261.464C179.471 261.229 179.556 261.027 179.727 260.856C179.897 260.685 180.105 260.6 180.351 260.6ZM182.847 260.6C183.092 260.6 183.3 260.685 183.471 260.856C183.652 261.027 183.743 261.229 183.743 261.464C183.743 261.709 183.652 261.917 183.471 262.088C183.3 262.259 183.092 262.344 182.847 262.344C182.612 262.344 182.409 262.253 182.239 262.072C182.068 261.901 181.983 261.699 181.983 261.464C181.983 261.229 182.068 261.027 182.239 260.856C182.409 260.685 182.612 260.6 182.847 260.6ZM197.133 253.384C197.496 253.981 197.677 254.653 197.677 255.4V257.752C197.677 258.104 197.554 258.403 197.309 258.648C197.074 258.883 196.786 259 196.445 259H184.637V257.624H186.877V251.528H188.237V253.032L192.541 251.72C192.904 251.603 193.309 251.544 193.757 251.544C194.461 251.544 195.112 251.709 195.709 252.04C196.317 252.36 196.792 252.808 197.133 253.384ZM196.317 255.4C196.317 254.899 196.194 254.456 195.949 254.072C195.746 253.699 195.448 253.411 195.053 253.208C194.669 253.005 194.242 252.904 193.773 252.904C193.485 252.904 193.213 252.941 192.957 253.016L188.237 254.456V257.624H195.981C196.077 257.624 196.157 257.592 196.221 257.528C196.285 257.464 196.317 257.384 196.317 257.288V255.4ZM207.642 249.816C207.888 249.816 208.096 249.901 208.266 250.072C208.437 250.243 208.522 250.445 208.522 250.68C208.522 250.915 208.437 251.123 208.266 251.304C208.096 251.475 207.888 251.56 207.642 251.56C207.408 251.56 207.2 251.475 207.018 251.304C206.848 251.123 206.762 250.915 206.762 250.68C206.762 250.445 206.848 250.243 207.018 250.072C207.189 249.901 207.397 249.816 207.642 249.816ZM210.09 249.816C210.336 249.816 210.544 249.901 210.714 250.072C210.885 250.243 210.97 250.445 210.97 250.68C210.97 250.915 210.885 251.123 210.714 251.304C210.544 251.475 210.336 251.56 210.09 251.56C209.856 251.56 209.648 251.475 209.466 251.304C209.296 251.123 209.21 250.915 209.21 250.68C209.21 250.445 209.296 250.243 209.466 250.072C209.637 249.901 209.845 249.816 210.09 249.816ZM214.746 257.624C214.746 258.008 214.608 258.333 214.33 258.6C214.064 258.867 213.744 259 213.37 259H206.106C205.541 259 205.013 258.861 204.522 258.584C204.042 258.296 203.658 257.917 203.37 257.448C203.093 256.968 202.954 256.445 202.954 255.88V253.24H204.362V255.88C204.362 256.371 204.528 256.787 204.858 257.128C205.2 257.459 205.616 257.624 206.106 257.624H213.018C213.114 257.624 213.194 257.592 213.258 257.528C213.322 257.464 213.354 257.384 213.354 257.288V251.56H214.746V257.624ZM219.541 259C219.125 259 218.736 258.899 218.373 258.696C218.021 258.483 217.739 258.2 217.525 257.848C217.323 257.485 217.221 257.091 217.221 256.664V247.8H218.597V256.664C218.597 256.931 218.688 257.16 218.869 257.352C219.061 257.533 219.291 257.624 219.557 257.624H220.293V259H219.541ZM220.109 259C219.927 259 219.767 258.936 219.629 258.808C219.49 258.669 219.421 258.504 219.421 258.312C219.421 258.12 219.49 257.96 219.629 257.832C219.767 257.693 219.927 257.624 220.109 257.624H227.325C227.154 257.528 227.015 257.389 226.909 257.208C226.802 257.016 226.749 256.808 226.749 256.584V256.04C226.749 254.899 226.402 254.061 225.709 253.528C225.133 253.08 224.359 252.856 223.389 252.856C222.663 252.856 221.981 252.963 221.341 253.176L220.861 251.944C221.17 251.805 221.538 251.699 221.965 251.624C222.402 251.539 222.855 251.496 223.325 251.496C223.911 251.496 224.482 251.576 225.037 251.736C225.591 251.885 226.093 252.125 226.541 252.456C226.999 252.797 227.373 253.261 227.661 253.848C227.949 254.435 228.093 255.139 228.093 255.96V256.584C228.093 256.893 228.178 257.144 228.349 257.336C228.53 257.528 228.759 257.624 229.037 257.624H230.365V259H220.109ZM225.085 260.488C225.33 260.488 225.538 260.573 225.709 260.744C225.89 260.915 225.981 261.117 225.981 261.352C225.981 261.597 225.89 261.805 225.709 261.976C225.538 262.147 225.33 262.232 225.085 262.232C224.85 262.232 224.647 262.147 224.477 261.976C224.306 261.805 224.221 261.597 224.221 261.352C224.221 261.117 224.306 260.915 224.477 260.744C224.647 260.573 224.85 260.488 225.085 260.488ZM231.662 249.56C231.907 249.56 232.115 249.645 232.286 249.816C232.467 249.987 232.558 250.189 232.558 250.424C232.558 250.669 232.467 250.877 232.286 251.048C232.115 251.219 231.907 251.304 231.662 251.304C231.427 251.304 231.224 251.219 231.054 251.048C230.883 250.877 230.798 250.669 230.798 250.424C230.798 250.189 230.883 249.987 231.054 249.816C231.224 249.645 231.427 249.56 231.662 249.56ZM234.11 249.56C234.355 249.56 234.563 249.645 234.734 249.816C234.915 249.987 235.006 250.189 235.006 250.424C235.006 250.669 234.915 250.877 234.734 251.048C234.563 251.219 234.355 251.304 234.11 251.304C233.875 251.304 233.672 251.219 233.502 251.048C233.331 250.877 233.246 250.669 233.246 250.424C233.246 250.189 233.331 249.987 233.502 249.816C233.672 249.645 233.875 249.56 234.11 249.56ZM235.742 257.624C235.934 257.624 236.094 257.688 236.222 257.816C236.36 257.944 236.43 258.104 236.43 258.296C236.43 258.499 236.36 258.669 236.222 258.808C236.083 258.936 235.918 259 235.726 259H234.974C234.579 259 234.211 258.909 233.87 258.728C233.528 258.547 233.246 258.307 233.022 258.008C232.808 258.307 232.536 258.547 232.206 258.728C231.875 258.909 231.518 259 231.134 259H230.078C229.875 259 229.71 258.936 229.582 258.808C229.443 258.68 229.374 258.515 229.374 258.312C229.374 258.109 229.443 257.944 229.582 257.816C229.71 257.688 229.875 257.624 230.078 257.624H230.99C231.331 257.624 231.624 257.501 231.87 257.256C232.126 257 232.254 256.696 232.254 256.344V253H233.63V256.36C233.651 256.712 233.79 257.011 234.046 257.256C234.312 257.501 234.622 257.624 234.974 257.624H235.742ZM238.199 249.496C238.444 249.496 238.652 249.581 238.823 249.752C239.004 249.923 239.095 250.125 239.095 250.36C239.095 250.605 239.004 250.813 238.823 250.984C238.652 251.155 238.444 251.24 238.199 251.24C237.964 251.24 237.762 251.155 237.591 250.984C237.42 250.803 237.335 250.595 237.335 250.36C237.335 250.125 237.42 249.923 237.591 249.752C237.762 249.581 237.964 249.496 238.199 249.496ZM240.871 257.624C241.063 257.624 241.223 257.688 241.351 257.816C241.49 257.944 241.559 258.104 241.559 258.296C241.559 258.499 241.49 258.669 241.351 258.808C241.212 258.936 241.047 259 240.855 259H240.231C239.836 259 239.468 258.915 239.127 258.744C238.786 258.563 238.503 258.317 238.279 258.008C238.066 258.307 237.794 258.547 237.463 258.728C237.132 258.909 236.775 259 236.391 259H235.687C235.484 259 235.319 258.936 235.191 258.808C235.052 258.68 234.983 258.515 234.983 258.312C234.983 258.109 235.052 257.944 235.191 257.816C235.319 257.688 235.484 257.624 235.687 257.624H236.247C236.588 257.624 236.882 257.501 237.127 257.256C237.383 257 237.511 256.696 237.511 256.344V253.048H238.887V256.36C238.908 256.712 239.047 257.011 239.303 257.256C239.57 257.501 239.879 257.624 240.231 257.624H240.871ZM240.236 257.832C240.364 257.693 240.524 257.624 240.716 257.624H241.276C241.681 257.624 242.006 257.501 242.252 257.256C242.497 257 242.62 256.675 242.62 256.28V251.48H246.204C246.865 251.48 247.462 251.64 247.996 251.96C248.54 252.269 248.966 252.701 249.276 253.256C249.585 253.8 249.74 254.403 249.74 255.064V255.56C249.74 256.179 249.574 256.755 249.244 257.288C248.924 257.811 248.492 258.227 247.948 258.536C247.414 258.845 246.828 259 246.188 259C245.644 259 245.137 258.872 244.668 258.616C244.198 258.349 243.82 258.003 243.532 257.576C243.329 258.003 243.02 258.349 242.604 258.616C242.198 258.872 241.756 259 241.276 259H240.7C240.518 258.989 240.364 258.92 240.236 258.792C240.097 258.653 240.028 258.493 240.028 258.312C240.028 258.12 240.097 257.96 240.236 257.832ZM244.652 257.048C245.078 257.443 245.596 257.635 246.204 257.624C246.588 257.624 246.945 257.528 247.276 257.336C247.617 257.144 247.889 256.888 248.092 256.568C248.294 256.237 248.396 255.88 248.396 255.496V255.016C248.396 254.611 248.294 254.243 248.092 253.912C247.9 253.581 247.628 253.32 247.276 253.128C246.934 252.936 246.561 252.84 246.156 252.84H243.996V255.56C244.006 256.157 244.225 256.653 244.652 257.048ZM264.309 257.624C264.501 257.624 264.661 257.693 264.789 257.832C264.928 257.971 264.997 258.136 264.997 258.328C264.997 258.509 264.933 258.669 264.805 258.808C264.677 258.936 264.512 259 264.309 259H263.941C263.45 259 262.986 258.909 262.549 258.728C262.112 258.536 261.733 258.269 261.413 257.928L261.349 258.024C261.093 258.323 260.778 258.563 260.405 258.744C260.042 258.915 259.669 259 259.285 259H255.205V257.624H259.285C259.488 257.624 259.669 257.581 259.829 257.496C260 257.411 260.138 257.304 260.245 257.176C260.437 256.931 260.533 256.675 260.533 256.408C260.533 256.312 260.517 256.211 260.485 256.104L259.285 251.48L260.581 251.128L261.877 255.992C261.984 256.483 262.229 256.877 262.613 257.176C262.997 257.475 263.44 257.624 263.941 257.624H264.309ZM264.249 259C264.068 259 263.908 258.936 263.769 258.808C263.631 258.669 263.561 258.504 263.561 258.312C263.561 258.12 263.631 257.96 263.769 257.832C263.908 257.693 264.068 257.624 264.249 257.624H271.625C271.455 257.528 271.316 257.389 271.209 257.208C271.103 257.016 271.049 256.808 271.049 256.584V256.008C271.049 254.877 270.703 254.045 270.009 253.512C269.433 253.064 268.66 252.84 267.689 252.84C267.295 252.84 266.911 252.872 266.537 252.936C266.164 253 265.844 253.08 265.577 253.176L265.049 251.928C265.86 251.619 266.729 251.464 267.657 251.464C268.927 251.464 269.988 251.784 270.841 252.424C271.3 252.765 271.673 253.229 271.961 253.816C272.249 254.403 272.393 255.112 272.393 255.944V256.584C272.393 256.893 272.479 257.144 272.649 257.336C272.831 257.528 273.06 257.624 273.337 257.624H273.577V259H264.249ZM274.996 246.888V246.152H275.54C275.369 245.907 275.284 245.656 275.284 245.4C275.316 245.016 275.465 244.696 275.732 244.44C275.998 244.184 276.318 244.056 276.692 244.056C277.033 244.056 277.326 244.157 277.572 244.36C277.828 244.563 277.993 244.813 278.068 245.112L277.476 245.48C277.422 245.277 277.326 245.112 277.188 244.984C277.06 244.856 276.894 244.792 276.692 244.792C276.51 244.792 276.356 244.856 276.228 244.984C276.1 245.112 276.036 245.272 276.036 245.464C276.036 245.635 276.094 245.795 276.212 245.944C276.329 246.083 276.489 246.152 276.692 246.152H278.036V246.888H274.996ZM275.796 247.8H277.172V258.936H275.796V247.8Z" fill="#2D2DB2"/>
<path d="M197.685 296.896L197.025 297.695L196.922 297.823C195.851 299.106 194.692 300.438 193.447 301.817C194.985 303.375 196.473 304.938 197.895 306.5C197.978 306.405 198.06 306.315 198.147 306.224L199.268 304.987L199.573 304.645L200.138 303.998L200.513 303.586L201.036 302.976L201.543 302.378L202.207 301.582L202.718 300.964C202.846 300.807 202.97 300.651 203.098 300.498L203.646 299.81L203.939 299.447L204.742 298.421L204.924 298.182C205.142 297.893 205.361 297.609 205.571 297.324L205.769 297.06C206.024 296.718 206.276 296.38 206.519 296.042V296.022C206.783 295.655 207.043 295.292 207.294 294.933L207.377 294.81C207.599 294.492 207.818 294.175 208.028 293.862L208.123 293.722C208.358 293.371 208.589 293.025 208.807 292.683C208.947 292.468 209.079 292.271 209.219 292.048L209.273 291.966C209.339 291.863 209.397 291.76 209.462 291.656L209.751 291.187L209.813 291.079C210.622 289.749 211.355 288.372 212.006 286.957C212.019 286.922 212.034 286.888 212.051 286.854C209.578 287.596 205.414 289.867 200.035 293.944C199.301 294.89 198.518 295.873 197.685 296.896Z" fill="#6DCEF5"/>
<path d="M188.769 278.767C189.342 279.021 189.829 279.438 190.169 279.966C190.508 280.494 190.686 281.11 190.68 281.737C190.674 282.365 190.484 282.977 190.134 283.498C189.784 284.019 189.29 284.426 188.711 284.67L188.769 284.649C192.117 283.109 195.559 281.782 199.074 280.675C205.699 278.684 207.228 279.727 207.237 279.727C207.447 280.119 207.401 280.857 207.088 281.9C209.633 280.754 211.849 280.182 213.737 280.185C213.756 279.093 213.534 278.011 213.086 277.015L213.049 276.932C212.991 276.817 212.934 276.706 212.868 276.59L212.806 276.479C212.728 276.343 212.641 276.207 212.554 276.067C212.468 275.927 212.344 275.774 212.233 275.634C212.196 275.593 212.159 275.556 212.126 275.514C212.093 275.473 211.965 275.325 211.882 275.238C211.8 275.152 211.788 275.148 211.742 275.102C211.697 275.057 211.586 274.946 211.503 274.871L211.342 274.735L211.099 274.538L210.914 274.41L210.666 274.241C210.596 274.195 210.526 274.158 210.456 274.117L210.201 273.973L209.974 273.857L209.71 273.734L209.459 273.635L209.186 273.532L208.914 273.445L208.638 273.363L208.341 273.289L208.057 273.223L207.735 273.165L207.443 273.12L207.096 273.074L206.804 273.045L206.429 273.016H206.132H205.72H205.415H205.002H204.697L204.24 273.045L203.935 273.07L203.444 273.124L203.135 273.157L202.611 273.231L202.306 273.276L201.75 273.371L201.449 273.429L200.855 273.544L200.558 273.61C200.348 273.655 200.146 273.701 199.924 273.754L199.635 273.824L198.959 273.993L198.679 274.068L197.961 274.265L197.693 274.344L196.931 274.57L196.675 274.653L195.851 274.909L195.612 274.991C195.327 275.082 195.043 275.181 194.75 275.279L194.532 275.358L193.612 275.683L193.431 275.749L192.442 276.12L192.293 276.178L191.234 276.59L191.139 276.627L189.993 277.089H189.964C189.14 277.427 188.29 277.79 187.417 278.169C187.886 278.375 188.323 278.565 188.769 278.767Z" fill="#6DCEF5"/>
<path d="M219.204 330.4C219.275 330.321 219.343 330.238 219.406 330.152C219.451 330.099 219.488 330.037 219.529 329.979C219.571 329.922 219.653 329.806 219.707 329.72C219.76 329.633 219.781 329.592 219.818 329.53C219.855 329.468 219.925 329.349 219.975 329.254C220.024 329.159 220.045 329.118 220.078 329.052L220.214 328.759L220.3 328.541C220.337 328.442 220.379 328.339 220.416 328.236L220.49 328.005C220.523 327.898 220.556 327.79 220.585 327.679C220.613 327.568 220.626 327.518 220.646 327.436C220.667 327.354 220.7 327.209 220.725 327.094C220.75 326.978 220.758 326.925 220.77 326.838L220.832 326.476C220.832 326.389 220.853 326.298 220.865 326.208C220.877 326.117 220.894 325.956 220.902 325.828C220.91 325.701 220.902 325.643 220.923 325.548C220.943 325.453 220.923 325.284 220.943 325.136C220.964 324.987 220.943 324.942 220.943 324.843V324.431C220.943 324.332 220.943 324.229 220.943 324.126C220.943 324.023 220.943 323.833 220.943 323.685C220.943 323.536 220.943 323.475 220.943 323.367C220.943 323.26 220.919 323.062 220.902 322.906C220.886 322.749 220.881 322.687 220.869 322.58C220.857 322.473 220.832 322.255 220.811 322.094C220.791 321.933 220.782 321.867 220.766 321.756C220.75 321.644 220.717 321.418 220.688 321.245C220.659 321.071 220.651 321.014 220.63 320.898C220.597 320.721 220.564 320.544 220.527 320.362C220.527 320.247 220.482 320.128 220.457 320.008C220.42 319.822 220.379 319.633 220.337 319.443C220.308 319.324 220.284 319.204 220.255 319.085C220.209 318.891 220.16 318.672 220.111 318.491C220.082 318.367 220.053 318.248 220.02 318.128C219.966 317.918 219.909 317.716 219.851 317.498L219.752 317.135C219.69 316.912 219.624 316.69 219.558 316.467C219.521 316.348 219.488 316.228 219.451 316.104C219.377 315.869 219.303 315.634 219.228 315.391L219.117 315.041C219.035 314.789 218.948 314.534 218.861 314.278C218.824 314.167 218.787 314.056 218.746 313.944C218.655 313.672 218.556 313.392 218.458 313.12C218.42 313.017 218.383 312.918 218.346 312.811C218.239 312.514 218.128 312.209 218.012 311.904L217.913 311.64L217.522 310.618L217.448 310.437C217.295 310.024 217.138 309.649 216.973 309.249L216.949 309.192C216.594 308.318 216.211 307.411 215.807 306.484L215.226 307.798C214.97 308.373 214.552 308.86 214.023 309.199C213.494 309.539 212.877 309.716 212.248 309.709C211.62 309.702 211.007 309.511 210.485 309.16C209.964 308.809 209.557 308.312 209.314 307.732L209.339 307.798C209.776 308.771 210.163 309.69 210.543 310.568C210.724 311.005 210.901 311.43 211.066 311.846C211.231 312.263 211.396 312.671 211.548 313.054L211.771 313.635C215.762 324.109 214.244 326.294 214.269 326.294C213.857 326.5 213.14 326.451 212.105 326.142C213.255 328.689 213.824 330.903 213.824 332.799C214.926 332.818 216.018 332.588 217.019 332.127L217.204 332.028C217.299 331.983 217.39 331.937 217.481 331.884C217.634 331.798 217.782 331.704 217.926 331.603C218.07 331.5 218.21 331.397 218.338 331.286C218.381 331.252 218.422 331.217 218.462 331.179L218.738 330.94L218.874 330.8C218.952 330.721 219.031 330.643 219.101 330.56C219.171 330.478 219.162 330.47 219.204 330.4Z" fill="#F9A51A"/>
<path d="M197.022 316.702C195.466 315.433 193.838 314.03 192.137 312.493C190.578 314.031 189.012 315.519 187.454 316.941L187.557 317.036C188.41 317.811 189.259 318.569 190.108 319.303L190.24 319.419C191.106 320.165 191.959 320.886 192.808 321.587L192.874 321.64L193.674 322.292L193.851 322.432C194.631 323.058 195.397 323.668 196.156 324.233L196.457 324.464L197.104 324.946L197.467 325.214L198.452 325.923L198.922 326.261L199.433 326.616L199.919 326.95L200.398 327.271L201.02 327.683L201.305 327.869C202.711 328.787 204.164 329.631 205.658 330.4L205.699 330.42L206.26 330.696L206.392 330.762L206.845 330.973L207.134 331.109C206.392 328.635 204.12 324.472 200.043 319.093C199.054 318.343 198.047 317.546 197.022 316.702Z" fill="#F9A51A"/>
<path d="M165.877 306.339V306.191C165.877 306.15 165.877 306.104 165.877 306.063C165.88 306.052 165.88 306.041 165.877 306.03C165.876 306.008 165.876 305.986 165.877 305.964C165.877 305.935 165.877 305.911 165.877 305.882C165.877 305.853 165.877 305.775 165.844 305.725C165.811 305.676 165.815 305.618 165.799 305.564C165.788 305.521 165.774 305.478 165.758 305.436C165.758 305.379 165.717 305.325 165.692 305.267L165.667 305.202C164.076 301.636 162.955 298.738 162.171 296.38C159.756 289.101 160.572 287.027 160.72 286.739C161.112 286.529 161.85 286.574 162.893 286.887C161.747 284.344 161.178 282.134 161.178 280.238C159.714 280.196 158.273 280.611 157.056 281.425C156.936 281.508 156.821 281.594 156.709 281.681L156.631 281.743C156.544 281.809 156.466 281.883 156.388 281.953L156.231 282.089L156.025 282.303L155.864 282.468C155.802 282.538 155.741 282.617 155.683 282.691C155.625 282.765 155.58 282.81 155.534 282.872C155.489 282.934 155.423 283.029 155.37 283.107C155.316 283.186 155.275 283.239 155.233 283.305C155.192 283.371 155.135 283.47 155.085 283.552L154.961 283.767C154.916 283.853 154.875 283.944 154.834 284.031C154.792 284.117 154.759 284.183 154.726 284.261L154.615 284.538C154.586 284.62 154.553 284.698 154.524 284.785C154.496 284.872 154.458 284.979 154.43 285.078C154.401 285.177 154.376 285.247 154.351 285.337C154.327 285.428 154.302 285.539 154.277 285.646C154.252 285.754 154.232 285.824 154.211 285.919C154.191 286.013 154.174 286.133 154.153 286.244C154.133 286.355 154.12 286.434 154.108 286.533C154.096 286.632 154.079 286.759 154.063 286.875C154.046 286.99 154.063 287.077 154.034 287.176C154.005 287.275 154.013 287.415 154.009 287.534C154.005 287.654 154.009 287.749 154.009 287.856C154.009 287.963 154.009 288.103 154.009 288.227C154.009 288.351 154.009 288.449 154.009 288.565C154.009 288.68 154.009 288.82 154.009 288.952V289.307C154.009 289.439 154.009 289.575 154.038 289.719C154.067 289.863 154.038 289.966 154.067 290.094C154.096 290.222 154.096 290.37 154.108 290.506L154.158 290.919C154.158 291.059 154.195 291.203 154.215 291.331C154.236 291.459 154.256 291.607 154.281 291.743C154.306 291.879 154.327 292.036 154.355 292.184C154.384 292.332 154.409 292.473 154.434 292.617C154.458 292.761 154.496 292.918 154.524 293.07L154.623 293.532C154.656 293.684 154.693 293.837 154.731 293.994C154.768 294.15 154.805 294.315 154.846 294.48C154.887 294.645 154.924 294.793 154.966 294.954C155.007 295.115 155.056 295.292 155.102 295.461C155.147 295.63 155.188 295.783 155.233 295.943L155.394 296.483C155.44 296.648 155.489 296.809 155.539 296.974C155.588 297.139 155.654 297.349 155.716 297.539C155.778 297.728 155.819 297.868 155.872 298.037C155.926 298.206 156.004 298.45 156.074 298.635C156.145 298.821 156.182 298.969 156.243 299.138C156.305 299.307 156.388 299.55 156.466 299.773L156.643 300.276C156.722 300.494 156.808 300.721 156.891 300.948L157.076 301.446C157.167 301.685 157.262 301.924 157.356 302.168C157.418 302.328 157.48 302.493 157.546 302.658C157.645 302.914 157.752 303.173 157.855 303.433C157.921 303.59 157.983 303.746 158.049 303.907C158.16 304.183 158.28 304.468 158.399 304.732L158.581 305.173C158.713 305.486 158.853 305.803 158.993 306.125L159.154 306.5V306.541C159.343 306.953 159.533 307.411 159.735 307.856C159.997 308.425 160.42 308.904 160.951 309.236C161.482 309.568 162.098 309.737 162.724 309.724C163.35 309.71 163.959 309.514 164.475 309.16C164.991 308.805 165.393 308.308 165.63 307.728C165.63 307.679 165.671 307.625 165.688 307.576C165.704 307.526 165.725 307.473 165.741 307.423V307.374L165.766 307.275C165.766 307.221 165.795 307.168 165.803 307.114C165.811 307.061 165.803 307.032 165.824 306.991V306.97C165.824 306.912 165.824 306.859 165.844 306.801V306.657C165.844 306.603 165.844 306.549 165.844 306.496C165.844 306.442 165.877 306.393 165.877 306.339Z" fill="#00B8B5"/>
<path d="M177.247 316.063L177.754 315.453L178.034 315.115C179.089 313.851 180.231 312.54 181.46 311.183C179.918 309.625 178.43 308.058 177.012 306.5C175.363 308.297 173.825 310.086 172.382 311.859L172.308 311.945L171.686 312.712L171.48 312.972C170.902 313.683 170.353 314.391 169.831 315.094L169.443 315.602L169.076 316.092L168.598 316.743L168.342 317.09L167.642 318.034C167.567 318.141 167.497 318.248 167.423 318.351C167.254 318.594 167.089 318.833 166.929 319.076L166.722 319.377C166.504 319.703 166.31 320.029 166.079 320.35C164.88 322.181 163.815 324.095 162.893 326.08C162.893 326.113 162.864 326.15 162.847 326.183C165.321 325.437 169.484 323.165 174.868 319.085C175.61 318.099 176.41 317.09 177.247 316.063Z" fill="#D71921"/>
<path d="M189.012 306.492C188.752 306.751 188.496 307.015 188.233 307.275L187.454 308.05C185.846 309.636 184.286 311.113 182.775 312.481C181.401 313.726 180.075 314.88 178.797 315.944C178.739 315.993 178.681 316.043 178.619 316.088L177.857 316.723C176.843 317.547 175.846 318.333 174.868 319.081C169.484 323.161 165.304 325.433 162.847 326.179C161.821 326.488 161.091 326.533 160.712 326.331C160.712 326.311 159.599 324.715 161.771 317.712C162.854 314.341 164.137 311.037 165.613 307.819C165.625 307.795 165.635 307.77 165.642 307.745C165.402 308.327 164.996 308.825 164.475 309.178C163.954 309.531 163.341 309.724 162.711 309.732C162.082 309.74 161.464 309.563 160.934 309.223C160.404 308.883 159.986 308.395 159.731 307.819C159.529 307.374 159.319 306.937 159.15 306.504C158.941 306.982 158.739 307.452 158.544 307.914V307.934C158.362 308.347 158.189 308.759 158.02 309.196C157.991 309.262 157.967 309.324 157.942 309.39C157.799 309.744 157.662 310.094 157.53 310.441L157.418 310.725C157.295 311.038 157.175 311.343 157.064 311.648C157.018 311.764 156.977 311.875 156.936 311.986C156.833 312.267 156.726 312.547 156.627 312.811L156.499 313.182C156.406 313.437 156.315 313.693 156.227 313.949C156.182 314.076 156.14 314.204 156.099 314.332L155.86 315.045C155.819 315.181 155.778 315.309 155.732 315.457C155.662 315.684 155.592 315.907 155.526 316.125C155.485 316.261 155.448 316.393 155.407 316.537C155.345 316.752 155.283 316.949 155.225 317.168C155.184 317.3 155.151 317.432 155.114 317.58L154.953 318.178L154.854 318.569L154.718 319.134L154.632 319.522C154.59 319.703 154.553 319.884 154.516 320.062C154.479 320.239 154.463 320.313 154.438 320.441C154.413 320.569 154.376 320.783 154.343 320.948C154.31 321.113 154.302 321.199 154.281 321.319L154.207 321.805L154.158 322.164C154.137 322.32 154.12 322.477 154.104 322.63C154.087 322.782 154.079 322.86 154.067 322.976L154.03 323.421C154.03 323.532 154.03 323.644 154.009 323.755C153.989 323.866 154.009 324.039 154.009 324.167C154.009 324.295 154.009 324.386 154.009 324.493C154.009 324.6 154.009 324.761 154.009 324.905C154.009 325.049 154.009 325.115 154.009 325.218C154.009 325.321 154.009 325.474 154.009 325.598C154.009 325.721 154.009 325.799 154.03 325.894C154.05 325.989 154.055 326.137 154.071 326.261C154.087 326.385 154.071 326.451 154.104 326.546C154.137 326.64 154.141 326.776 154.162 326.888C154.182 326.999 154.191 327.073 154.211 327.16C154.232 327.246 154.261 327.378 154.285 327.49L154.347 327.745C154.376 327.852 154.409 327.955 154.442 328.054C154.475 328.153 154.491 328.219 154.52 328.302C154.549 328.384 154.595 328.495 154.632 328.594C154.669 328.693 154.689 328.751 154.722 328.825C154.755 328.899 154.809 329.011 154.854 329.101C154.9 329.192 154.92 329.25 154.957 329.32C154.994 329.39 155.06 329.493 155.11 329.584C155.159 329.674 155.188 329.715 155.229 329.781C155.271 329.847 155.341 329.95 155.398 330.033L155.53 330.218C155.592 330.301 155.658 330.379 155.724 330.457L155.86 330.622C155.934 330.705 156.008 330.779 156.087 330.857L156.227 331.002C156.314 331.084 156.404 331.158 156.499 331.236L156.623 331.348C156.762 331.462 156.906 331.569 157.056 331.669C158.271 332.489 159.713 332.907 161.178 332.865C163.074 332.865 165.3 332.292 167.835 331.146L167.918 331.109C168.788 330.696 169.69 330.255 170.639 329.732H170.667L171.232 329.41L171.508 329.25L171.995 328.961L172.378 328.73L172.823 328.458L173.269 328.174L173.644 327.935L173.916 327.757L174.559 327.345L175.016 327.036L175.536 326.682L176.014 326.348L176.645 325.898L177.42 325.338L177.873 325.004L178.459 324.567L178.871 324.266C179.588 323.722 180.314 323.153 181.047 322.568L181.332 322.337L182.057 321.743L182.251 321.587C183.076 320.919 183.892 320.232 184.7 319.526L184.881 319.369C185.743 318.623 186.613 317.848 187.482 317.057L187.515 317.028C189.074 315.606 190.64 314.118 192.198 312.58L192.858 311.929C193.076 311.714 193.27 311.492 193.505 311.273C192.098 309.701 190.6 308.108 189.012 306.492Z" fill="#6DCEF5"/>
<path d="M185.891 306.492L186.374 306.009L186.666 305.709L186.975 305.404L187.454 304.929C185.843 303.341 184.282 301.864 182.771 300.498L182.115 301.15L181.464 301.809C182.838 303.318 184.315 304.879 185.895 306.492H185.891Z" fill="#D71921"/>
<path d="M220.951 288.157C220.951 288.041 220.951 287.926 220.951 287.811C220.951 287.695 220.951 287.58 220.951 287.464L220.927 287.135C220.927 287.023 220.927 286.908 220.894 286.801C220.861 286.693 220.869 286.59 220.853 286.492C220.836 286.393 220.82 286.273 220.799 286.166L220.749 285.877L220.675 285.564C220.655 285.473 220.634 285.383 220.609 285.292C220.585 285.201 220.552 285.09 220.519 284.991C220.486 284.892 220.469 284.822 220.44 284.74L220.329 284.447L220.238 284.22L220.102 283.932L220.003 283.726C219.95 283.631 219.896 283.536 219.838 283.441C219.781 283.346 219.772 283.322 219.735 283.264C219.698 283.206 219.608 283.074 219.542 282.984L219.434 282.827C219.36 282.732 219.282 282.637 219.204 282.547L219.101 282.423C219.01 282.321 218.915 282.222 218.816 282.126C218.787 282.102 218.767 282.073 218.738 282.048C218.61 281.928 218.482 281.813 218.326 281.702C218.185 281.586 218.037 281.479 217.889 281.376L217.847 281.347C217.732 281.269 217.612 281.195 217.493 281.125L217.365 281.055C217.258 280.993 217.151 280.939 217.044 280.886L216.945 280.84C215.952 280.393 214.872 280.17 213.783 280.189C211.889 280.189 209.673 280.76 207.133 281.904L207.051 281.941C205.61 282.594 204.208 283.331 202.855 284.15L202.797 284.183L202.174 284.567L202.038 284.653L201.288 285.127C200.966 285.333 200.641 285.539 200.315 285.77L200.014 285.972L199.28 286.475L198.98 286.685L198.003 287.382L197.718 287.588L196.988 288.124L196.576 288.445L195.954 288.919L195.517 289.249L194.61 289.975L194.074 290.387L193.583 290.799L192.961 291.281L192.549 291.615C192.095 291.989 191.64 292.37 191.184 292.757L191.048 292.877L190.302 293.516L190.038 293.746C189.178 294.491 188.312 295.261 187.441 296.055C188.999 297.477 190.566 298.965 192.124 300.507C193.869 298.924 195.537 297.486 197.129 296.195L197.281 296.071L198.073 295.432C198.732 294.905 199.384 294.394 200.031 293.907H200.051C205.431 289.83 209.611 287.559 212.068 286.817C213.086 286.512 213.808 286.463 214.195 286.665C214.216 286.665 215.753 288.928 211.565 299.769C210.942 301.376 210.192 303.173 209.294 305.185C209.294 305.185 209.294 305.226 209.273 305.247C209.257 305.281 209.244 305.315 209.232 305.35C209.232 305.375 209.211 305.395 209.203 305.42C209.195 305.445 209.174 305.507 209.162 305.548C209.162 305.601 209.129 305.655 209.116 305.709L209.079 305.869C209.079 305.915 209.079 305.96 209.059 306.005C209.059 306.059 209.059 306.113 209.038 306.17C209.017 306.228 209.038 306.269 209.038 306.319C209.038 306.368 209.038 306.426 209.038 306.479C209.038 306.533 209.038 306.587 209.038 306.64C209.038 306.694 209.038 306.739 209.038 306.784C209.038 306.83 209.038 306.896 209.059 306.953L209.083 307.098L209.12 307.258C209.122 307.279 209.122 307.3 209.12 307.32L209.145 307.411L209.195 307.559L209.256 307.712C209.499 308.292 209.906 308.788 210.428 309.139C210.949 309.49 211.562 309.681 212.19 309.688C212.819 309.695 213.436 309.518 213.965 309.179C214.494 308.839 214.912 308.352 215.168 307.778L215.749 306.463L215.774 306.401L215.811 306.319C215.992 305.906 216.17 305.494 216.343 305.082L216.458 304.843L216.87 303.817L217.006 303.47C217.13 303.165 217.254 302.864 217.369 302.572L217.526 302.159C217.633 301.892 217.736 301.619 217.835 301.356C217.893 301.207 217.946 301.067 218 300.919L218.272 300.185L218.433 299.732C218.511 299.501 218.594 299.274 218.672 299.051C218.725 298.895 218.775 298.738 218.828 298.586C218.899 298.371 218.973 298.173 219.039 297.951L219.187 297.481C219.249 297.283 219.315 297.069 219.373 296.887C219.43 296.706 219.467 296.574 219.513 296.422C219.558 296.269 219.624 296.046 219.678 295.861C219.731 295.675 219.76 295.552 219.805 295.395C219.851 295.239 219.9 295.041 219.946 294.868C219.991 294.694 220.024 294.563 220.061 294.41C220.098 294.257 220.144 294.076 220.181 293.911C220.218 293.746 220.251 293.61 220.284 293.462C220.317 293.314 220.354 293.145 220.387 292.988L220.473 292.551C220.502 292.398 220.531 292.246 220.556 292.098L220.63 291.685C220.651 291.541 220.675 291.397 220.696 291.252C220.717 291.108 220.733 290.976 220.749 290.84C220.766 290.704 220.787 290.564 220.799 290.428C220.811 290.292 220.828 290.164 220.84 290.016C220.853 289.867 220.865 289.752 220.873 289.604L220.898 289.22C220.898 289.093 220.898 288.969 220.898 288.845C220.898 288.722 220.898 288.598 220.898 288.478L220.951 288.157Z" fill="#D71921"/>
<path d="M188.769 278.767C188.323 278.565 187.886 278.355 187.454 278.186L186.427 277.744L186.126 277.617L185.302 277.27L184.832 277.077L184.119 276.788L183.574 276.574L182.923 276.318L182.362 276.104L181.748 275.873L181.183 275.667L180.602 275.461L180.042 275.263L179.489 275.073L178.941 274.892L178.405 274.723L177.873 274.558L177.358 274.401L176.843 274.253L176.34 274.113L175.849 273.981L175.363 273.861L174.889 273.746L174.41 273.639L173.957 273.54L173.499 273.449L173.067 273.371L172.621 273.297L172.209 273.231L171.776 273.173L171.385 273.124L170.972 273.082L170.601 273.054L170.189 273.025H169.835H169.447H169.109H168.738H168.421C168.297 273.025 168.178 273.033 168.062 273.049L167.757 273.078L167.415 273.124L167.13 273.169L166.801 273.227L166.529 273.289L166.219 273.367L165.964 273.445L165.667 273.54L165.424 273.631C165.329 273.668 165.234 273.701 165.144 273.742L164.917 273.849C164.826 273.89 164.735 273.932 164.653 273.977L164.434 274.101L164.187 274.245L163.985 274.385L163.754 274.546L163.561 274.707C163.49 274.764 163.42 274.818 163.35 274.88C163.28 274.941 163.223 275.003 163.161 275.065C163.099 275.127 163.033 275.181 162.975 275.242C162.917 275.304 162.839 275.395 162.773 275.473C162.707 275.552 162.674 275.585 162.629 275.642C162.518 275.778 162.41 275.923 162.307 276.054C161.496 277.266 161.081 278.699 161.12 280.156C161.12 282.052 161.689 284.278 162.835 286.805L162.872 286.887C163.792 288.873 164.857 290.788 166.059 292.617L166.211 292.848L166.677 293.557L166.937 293.94L167.382 294.587L167.629 294.942C167.852 295.259 168.079 295.581 168.309 295.902L168.524 296.195L169.064 296.924L169.369 297.337L169.872 297.996L170.177 298.408L170.919 299.365L171.306 299.847L171.752 300.403C171.9 300.585 172.044 300.766 172.193 300.943L172.605 301.459C172.881 301.793 173.161 302.131 173.429 302.464L173.809 302.914L174.41 303.565L174.765 303.977L175.338 304.633C175.437 304.748 175.54 304.859 175.643 304.975C176.002 305.387 176.373 305.799 176.744 306.211L177.016 306.512C178.434 308.07 179.922 309.637 181.464 311.195C181.678 311.413 181.876 311.636 182.111 311.85L182.766 312.502C184.275 311.128 185.835 309.651 187.445 308.07C187.186 307.815 186.926 307.559 186.666 307.296L185.887 306.512C184.299 304.902 182.821 303.341 181.456 301.83C179.889 300.103 178.471 298.445 177.185 296.883L176.839 296.471L176.587 296.158C175.985 295.41 175.408 294.674 174.856 293.948C170.779 288.565 168.507 284.385 167.765 281.932C167.452 280.906 167.407 280.176 167.613 279.793C167.638 279.773 170.589 277.732 186.134 284.694L186.196 284.719C186.247 284.744 186.299 284.765 186.353 284.781C186.402 284.801 186.453 284.818 186.505 284.83L186.641 284.872L186.732 284.892H186.819L186.951 284.917L187.132 284.937H187.26H187.441H187.602H187.775L187.919 284.917L188.084 284.892L188.224 284.859L188.393 284.814L188.48 284.785H188.525L188.707 284.715C189.285 284.472 189.78 284.064 190.13 283.543C190.48 283.022 190.67 282.41 190.676 281.782C190.682 281.155 190.504 280.539 190.164 280.011C189.825 279.484 189.338 279.067 188.764 278.812L188.769 278.767Z" fill="#F9A51A"/>
<path d="M212.056 326.162L212.019 326.08C211.232 324.373 210.333 322.721 209.327 321.133C209.178 320.898 209.03 320.659 208.873 320.42C208.873 320.42 208.844 320.379 208.832 320.354C208.626 320.033 208.42 319.707 208.193 319.381L207.991 319.089C207.826 318.846 207.661 318.598 207.488 318.351L207.278 318.046C207.051 317.724 206.82 317.403 206.585 317.077C206.511 316.97 206.429 316.863 206.35 316.756L205.852 316.076L205.497 315.602L205.085 315.066L204.673 314.542C204.281 314.035 203.873 313.52 203.461 313.005L203.217 312.704C203.019 312.461 202.805 312.213 202.62 311.97C202.583 311.921 202.541 311.871 202.5 311.826C201.812 311.001 201.094 310.136 200.356 309.282L200.291 309.208C199.527 308.301 198.732 307.396 197.908 306.492C196.486 304.929 194.997 303.367 193.46 301.809L192.804 301.15C192.586 300.927 192.367 300.713 192.149 300.498C190.591 298.957 189.024 297.469 187.466 296.046L187.384 295.972C186.831 295.469 186.279 294.979 185.735 294.492L185.636 294.406C185.388 294.187 185.141 293.969 184.89 293.755L184.589 293.491L183.871 292.872L183.657 292.695C183.245 292.332 182.804 291.974 182.379 291.623L181.946 291.269C181.752 291.108 181.563 290.952 181.369 290.799L180.854 290.387L180.339 289.975L179.394 289.237L178.982 288.928L178.323 288.425L177.91 288.124L177.144 287.559L176.892 287.378C176.558 287.135 176.229 286.904 175.903 286.673L175.618 286.475C175.367 286.298 175.116 286.129 174.868 285.96L174.576 285.762C174.25 285.543 173.92 285.325 173.599 285.119C171.769 283.917 169.854 282.851 167.868 281.928L167.774 281.883C168.516 284.336 170.787 288.515 174.864 293.899C175.841 294.641 176.839 295.432 177.853 296.261C179.416 297.539 181.057 298.953 182.775 300.502C184.284 301.876 185.845 303.353 187.458 304.934C187.717 305.193 187.981 305.449 188.241 305.713C188.501 305.976 188.76 306.232 189.016 306.492C190.607 308.105 192.086 309.667 193.452 311.179C194.997 312.885 196.407 314.526 197.681 316.084L198.225 316.756C198.243 316.78 198.262 316.803 198.283 316.826C198.893 317.588 199.483 318.339 200.043 319.076L200.064 319.101C204.141 324.48 206.412 328.66 207.154 331.117C207.463 332.139 207.513 332.865 207.311 333.252C207.29 333.252 205.588 334.435 197.999 331.978C194.86 330.928 191.779 329.713 188.769 328.339L188.694 328.31C189.276 328.55 189.775 328.956 190.128 329.477C190.481 329.998 190.673 330.611 190.681 331.241C190.689 331.87 190.512 332.488 190.172 333.018C189.832 333.548 189.344 333.966 188.769 334.221C188.323 334.419 187.886 334.612 187.454 334.798C188.402 335.21 189.317 335.598 190.211 335.964L190.393 336.039L191.518 336.484L191.815 336.603L192.817 336.983L193.188 337.123L194.095 337.453L194.507 337.601L195.331 337.885L195.777 338.034L196.543 338.281L197.005 338.425L197.714 338.636L198.192 338.772L198.844 338.949L199.33 339.073L199.936 339.225L200.427 339.336L200.983 339.456L201.478 339.551L201.989 339.645L202.492 339.724L202.954 339.794L203.477 339.856L203.889 339.901L204.466 339.942L204.771 339.967C205.06 339.967 205.34 339.988 205.596 339.988C206.535 339.996 207.471 339.895 208.387 339.687C208.556 339.646 208.717 339.6 208.877 339.555C209.928 339.254 210.891 338.706 211.685 337.955C211.903 337.745 212.107 337.521 212.295 337.284C212.39 337.164 212.48 337.04 212.571 336.913C213.382 335.694 213.796 334.254 213.758 332.791C213.775 330.923 213.206 328.71 212.056 326.162Z" fill="#00B8B5"/>
<path d="M190.397 329.987C190.06 329.241 189.451 328.652 188.694 328.339L188.525 328.273L188.385 328.227L188.224 328.182H188.171L188.072 328.161L187.956 328.141H187.923H187.763H187.614H187.293H187.144H186.979L186.831 328.17L186.72 328.194H186.67H186.612L186.526 328.219L186.41 328.256H186.378L186.213 328.318L186.147 328.347C170.622 335.284 167.658 333.293 167.646 333.293C167.444 332.902 167.489 332.164 167.802 331.129C165.255 332.275 163.041 332.848 161.145 332.848C161.127 333.942 161.351 335.025 161.8 336.022C161.8 336.043 161.821 336.068 161.833 336.092C161.891 336.212 161.953 336.327 162.019 336.443L162.076 336.55C162.159 336.686 162.241 336.822 162.332 336.962C162.423 337.102 162.509 337.213 162.604 337.333C164.03 339.13 166.219 340.037 169.307 340.037C169.579 340.037 169.859 340.037 170.131 340.016L170.453 339.992L171.014 339.951L171.426 339.905L171.925 339.843L172.419 339.769L172.881 339.699L173.446 339.592L173.883 339.509L174.505 339.373L174.917 339.279L175.606 339.11L175.993 339.007C176.245 338.941 176.5 338.875 176.756 338.8L177.111 338.697L177.935 338.45L178.252 338.351L179.168 338.058L179.444 337.964L180.446 337.622L180.668 337.543L181.769 337.131L181.925 337.073C182.338 336.925 182.725 336.772 183.133 336.612L183.207 336.583C184.547 336.059 185.949 335.478 187.425 334.835C187.857 334.65 188.294 334.456 188.74 334.258C189.13 334.088 189.482 333.842 189.777 333.534C190.072 333.227 190.303 332.865 190.457 332.468C190.611 332.071 190.685 331.647 190.675 331.222C190.664 330.796 190.57 330.376 190.397 329.987Z" fill="#D71921"/>
<path d="M141.583 361.802C142.539 360.444 142.712 358.901 142.104 357.173C140.759 356.573 139.001 356.32 136.831 356.416C135.928 357.049 135.178 357.879 134.637 358.844C133.989 359.93 133.506 361.108 133.204 362.339C132.903 363.495 132.79 364.693 132.869 365.885L136.537 366.684C137.382 366.534 138.194 366.239 138.94 365.813C138.634 366.915 138.088 367.687 137.301 368.128C136.641 368.48 135.914 368.684 135.169 368.725C134.279 368.808 133.383 368.729 132.521 368.494C131.642 368.257 131.004 367.865 130.607 367.315C130.288 366.852 130.098 366.311 130.056 365.748C130.001 365.115 130.059 364.477 130.228 363.864C130.408 363.2 130.684 362.567 131.049 361.985C131.407 361.39 131.869 360.865 132.411 360.434L129.761 358.9C129.132 359.5 128.592 360.189 128.156 360.943C127.75 361.637 127.448 362.387 127.262 363.17C127.095 363.886 127.008 364.619 127 365.355C126.994 366.056 127.071 366.755 127.23 367.438C127.451 368.333 127.952 369.132 128.658 369.718C129.507 370.426 130.509 370.921 131.583 371.165C132.858 371.477 134.18 371.547 135.481 371.373C137.637 371.115 139.255 370.398 140.334 369.22C141.413 368.043 142.053 366.284 142.255 363.943L138.52 363.186C137.976 363.823 137.136 364.286 135.999 364.575C136.024 363.661 136.192 362.756 136.496 361.895C136.773 361.061 137.185 360.279 137.713 359.58C138.211 358.939 138.734 358.534 139.275 358.365C139.862 359.022 139.504 360.231 138.202 361.992L141.583 361.802Z" fill="#0E133A"/>
<path d="M156.095 357.43L158.365 356.388C157.689 355.715 157.176 354.894 156.866 353.988C155.796 354.26 154.989 354.639 154.445 355.127C154.743 356.306 155.293 357.073 156.095 357.43Z" fill="#0E133A"/>
<path d="M161.109 350.349L162.12 363.774C162.141 364.316 162.114 364.858 162.038 365.394C161.998 365.735 161.86 366.057 161.641 366.32C161.463 366.522 161.229 366.666 160.969 366.732C160.653 366.797 160.331 366.828 160.009 366.825C159.75 366.794 159.502 366.701 159.287 366.552C158.981 366.376 158.706 365.974 158.461 365.346C158.217 364.718 157.887 362.745 157.473 359.427C156.475 359.619 155.515 359.975 154.63 360.48C155.289 363.577 155.488 365.41 155.226 365.98C154.967 366.552 154.566 366.839 154.023 366.846V366.813C153.459 366.842 152.88 366.346 152.287 365.323C151.623 364.121 151.123 362.835 150.8 361.499C150.424 360.053 150.048 358.99 149.672 358.309L146.556 358.221C147.192 359.428 147.699 360.698 148.069 362.013C148.377 363.088 148.531 364.203 148.528 365.323C148.522 366.262 148.339 367.192 147.989 368.063C146.888 367.537 146.219 366.163 145.981 363.943L143.229 363.887C143.622 367 144.567 369.006 146.063 369.905C147.463 370.085 148.883 370.027 150.263 369.732C150.637 369.149 150.902 368.503 151.045 367.825C151.377 368.444 151.848 368.977 152.42 369.38C152.842 369.684 153.342 369.86 153.86 369.885H153.883C153.922 369.885 153.961 369.885 154 369.885C154.568 369.887 155.13 369.768 155.649 369.534C156.167 369.3 156.631 368.957 157.008 368.528C157.355 368.985 157.809 369.349 158.329 369.586C158.849 369.823 159.419 369.926 159.988 369.887C160.486 369.909 160.985 369.861 161.469 369.743C161.945 369.626 162.399 369.434 162.815 369.174C163.261 368.889 163.643 368.514 163.938 368.072C164.282 367.562 164.538 366.997 164.697 366.401C165.059 365.059 164.846 359.602 164.057 350.03L161.109 350.349Z" fill="#0E133A"/>
<path d="M169.63 350.634L166.95 350C166.863 351.08 166.798 352.152 166.753 353.215C166.709 354.278 166.698 355.467 166.721 356.782C166.744 358.089 166.804 359.328 166.907 360.504C167.01 361.692 167.183 362.874 167.423 364.043C167.635 365.123 167.942 366.183 168.34 367.209C168.685 368.098 169.161 368.93 169.752 369.676C170.272 370.351 170.948 370.887 171.721 371.236C170.751 369.491 170.121 367.19 169.832 364.332C169.543 361.474 169.476 356.908 169.63 350.634Z" fill="#0E133A"/>
<path d="M185 358.886C186.024 358.709 186.975 358.233 187.735 357.518L187.833 355.819C187.462 356.047 187.065 356.229 186.651 356.36C186.15 356.521 185.636 356.632 185.115 356.694C184.496 356.766 183.871 356.748 183.258 356.641C182.587 356.53 181.937 356.315 181.332 356.004L181.55 358.481C182.829 358.928 183.979 359.063 185 358.886Z" fill="#0E133A"/>
<path d="M192.783 361.966C192.644 361.434 192.397 360.938 192.056 360.508C190.886 360.234 189.7 360.036 188.505 359.916C188.987 360.858 189.376 361.846 189.667 362.864C189.887 363.59 189.982 364.347 189.949 365.105C189.92 365.653 189.746 366.183 189.445 366.64C189.162 367.049 188.762 367.362 188.299 367.538C187.762 367.732 187.194 367.821 186.625 367.799C185.994 367.787 185.371 367.651 184.791 367.399C184.175 367.142 183.602 366.792 183.092 366.359C182.577 365.922 182.107 365.432 181.692 364.897C181.282 364.373 180.938 363.8 180.667 363.191C180.414 362.64 180.24 362.055 180.151 361.455L176.309 361.034C176.944 363.422 177.825 365.255 178.95 366.531C180.089 367.814 181.554 368.759 183.186 369.264C184.259 369.616 185.374 369.816 186.501 369.857C187.592 369.907 188.683 369.777 189.732 369.473C190.629 369.236 191.449 368.763 192.107 368.102C192.559 367.595 192.868 366.975 193.003 366.306C193.178 365.573 193.238 364.816 193.182 364.063C193.127 363.352 192.993 362.648 192.783 361.966Z" fill="#0E133A"/>
<path d="M202.52 370.646C201.624 370.947 200.845 371.525 200.293 372.299L200.369 373.998C200.661 373.733 200.987 373.508 201.337 373.329C201.748 373.118 202.181 372.953 202.627 372.836C203.151 372.702 203.694 372.658 204.232 372.706C204.823 372.752 205.401 372.9 205.942 373.144L205.518 370.699C204.386 370.385 203.386 370.367 202.52 370.646Z" fill="#0E133A"/>
<path d="M207.348 350.349L208.359 363.774C208.38 364.316 208.352 364.858 208.276 365.394C208.237 365.735 208.099 366.057 207.88 366.32C207.702 366.522 207.468 366.666 207.208 366.732C206.88 366.798 206.547 366.829 206.213 366.825C205.906 366.84 205.604 366.738 205.367 366.54C205.147 366.344 204.939 365.946 204.743 365.346C204.536 364.702 204.225 362.547 203.81 358.879C202.803 359.014 201.814 359.257 200.857 359.603C201.516 363.293 201.716 365.418 201.456 365.98C201.196 366.542 200.794 366.823 200.25 366.825H200.044C198.842 366.707 197.996 364.994 197.503 361.684C197.011 358.374 196.831 354.517 196.962 350.111L194.248 350.671C194.276 357.288 194.691 362.117 195.495 365.158C196.278 368.115 197.812 369.692 200.099 369.892L200.234 369.903V369.882C200.802 369.885 201.364 369.765 201.883 369.532C202.401 369.298 202.865 368.955 203.242 368.526C203.587 368.957 204.025 369.303 204.522 369.538C205.019 369.773 205.563 369.891 206.112 369.882H206.231C206.737 369.906 207.243 369.858 207.735 369.739C208.206 369.626 208.656 369.441 209.069 369.188C209.515 368.903 209.897 368.527 210.193 368.086C210.536 367.576 210.793 367.011 210.952 366.415C211.314 365.073 211.101 359.616 210.312 350.044L207.348 350.349Z" fill="#0E133A"/>
<path d="M225.746 370.646C224.851 370.948 224.073 371.526 223.522 372.299L223.597 373.998C223.889 373.734 224.214 373.509 224.563 373.329C224.975 373.118 225.408 372.953 225.856 372.836C226.379 372.702 226.922 372.658 227.46 372.706C228.051 372.752 228.629 372.9 229.171 373.144L228.746 370.699C227.609 370.385 226.609 370.367 225.746 370.646Z" fill="#0E133A"/>
<path d="M246.759 362.087C246.573 361.588 246.256 361.15 245.842 360.821C245.369 360.441 244.809 360.187 244.214 360.08C243.549 359.935 242.87 359.871 242.19 359.89C241.522 359.908 240.857 359.985 240.202 360.122C239.545 360.262 238.912 360.496 238.32 360.816C237.704 361.147 237.128 361.549 236.603 362.013C236.029 362.522 235.52 363.101 235.087 363.737C234.596 364.457 234.179 365.226 233.845 366.033C233.492 365.45 233.224 364.029 233.043 361.772C232.085 361.468 231.056 361.491 230.113 361.837C230.496 364.489 230.626 365.987 230.502 366.329C230.379 366.672 230.043 366.843 229.496 366.843H229.473V366.832C229.153 366.855 228.836 366.753 228.588 366.547C228.368 366.351 228.16 365.953 227.964 365.353C227.754 364.709 227.443 362.554 227.031 358.886C226.025 359.021 225.035 359.264 224.079 359.61C224.737 363.3 224.936 365.425 224.675 365.987C224.413 366.548 224.012 366.83 223.471 366.832H223.46V366.82C222.896 366.849 222.317 366.353 221.724 365.329C221.06 364.128 220.56 362.842 220.236 361.506C219.86 360.06 219.484 358.997 219.108 358.316L215.993 358.228C216.634 359.432 217.148 360.7 217.524 362.013C217.832 363.088 217.986 364.203 217.983 365.323C217.977 366.262 217.794 367.192 217.444 368.063C216.343 367.537 215.674 366.163 215.436 363.943L212.685 363.887C213.074 367 214.018 369.006 215.516 369.905C216.916 370.085 218.337 370.026 219.718 369.732C220.09 369.149 220.354 368.503 220.498 367.825C220.83 368.444 221.301 368.977 221.873 369.38C222.295 369.684 222.795 369.859 223.313 369.885H223.336C223.375 369.885 223.414 369.885 223.453 369.885C224.021 369.887 224.583 369.768 225.102 369.534C225.62 369.3 226.084 368.957 226.461 368.528C226.809 368.963 227.252 369.311 227.754 369.546C228.257 369.781 228.807 369.896 229.361 369.882H229.75C230.829 369.882 231.665 369.574 232.258 368.956L232.779 369.199C232.606 370.242 232.512 371.297 232.497 372.354C233.507 372.023 234.562 371.853 235.624 371.85C235.517 371.16 235.546 370.456 235.711 369.778C239.416 370.124 242.357 369.573 244.535 368.125C245.029 367.795 245.462 367.382 245.817 366.903C246.174 366.428 246.463 365.903 246.674 365.346C246.874 364.809 246.984 364.243 247 363.67C247.019 363.132 246.937 362.594 246.759 362.087ZM243.916 364.267C243.624 364.995 243.096 365.601 242.419 365.987C241.274 366.681 239.349 367.043 236.644 367.072C237.216 365.597 237.946 364.44 238.836 363.6C239.74 362.761 240.869 362.209 242.082 362.013C242.891 361.867 243.458 362.031 243.808 362.501C244.159 362.971 244.184 363.566 243.916 364.267Z" fill="#0E133A"/>
</svg>
