<svg width="26" height="27" viewBox="0 0 26 27" fill="none" xmlns="http://www.w3.org/2000/svg">
<path d="M22.9676 0H10.7662C9.42259 0 8.33681 1.10308 8.33681 2.46814V6.94939C7.82107 6.96318 7.3189 7.07349 6.85744 7.28031C6.04311 7.63882 5.3645 8.23172 4.91662 9.01766L0.93996 16.036C0.736377 16.4083 0.587083 16.7944 0.492078 17.1942C0.464933 17.3321 0.437789 17.4562 0.424217 17.5941C0.424217 17.663 0.410645 17.732 0.410645 17.8009C0.410645 17.9388 0.410645 18.0629 0.410645 18.2008C0.410645 18.2697 0.410645 18.3525 0.410645 18.4214C0.437789 18.8075 0.519222 19.1936 0.654944 19.5521C0.695661 19.6624 0.736377 19.7589 0.817811 19.9243C1.17069 20.6689 1.74072 21.2894 2.46005 21.7031C3.00294 21.9926 3.62726 22.1719 4.23801 22.2132C4.84876 22.2546 5.37807 22.1443 5.79881 22.0202C5.98882 23.2336 6.54528 24.3367 7.4139 25.2329C8.51325 26.3498 9.96548 26.9703 11.567 26.984C14.0914 26.984 16.3444 25.3156 17.118 22.8889L18.8281 22.8613C19.4117 22.8061 19.8053 22.7786 20.3211 22.5304L20.4568 22.4752C20.5925 22.4201 20.7554 22.3373 20.9047 22.2408C21.5561 21.8409 22.289 21.1929 23.0627 20.3518C23.6327 19.7313 24.1756 19.0557 24.6777 18.3525C25.1528 17.6906 25.4106 16.9047 25.4106 16.0774V2.46814C25.4106 1.10308 24.3249 0 22.9812 0H22.9676ZM20.8504 18.6144C20.8504 18.3525 21.0675 18.1318 21.3254 18.1318H22.5605L20.8504 19.9243V18.6144ZM12.4085 16.9322C14.1457 17.3873 15.4486 18.8626 15.6115 20.6138C15.8015 22.6683 14.4172 24.5849 12.4085 25.1364V16.9185V16.9322ZM17.2809 19.883H17.7559C18.2174 19.883 18.5974 19.4969 18.5974 19.0281C18.5974 18.5593 18.2174 18.187 17.7559 18.187H16.643C16.2494 17.4976 15.4486 16.4359 14.0643 15.7464C12.8428 15.1535 11.6756 15.0846 10.8477 15.1673L11.9877 13.168C12.3406 12.5337 12.5306 11.8167 12.5306 11.0997C12.5306 11.017 12.5306 10.8929 12.5171 10.7826C12.6121 10.824 12.7206 10.8515 12.8292 10.8515H18.8281C19.2896 10.8515 19.6696 10.4655 19.6696 9.99664C19.6696 9.52784 19.2896 9.14176 18.8281 9.14176H12.8292C12.5713 9.14176 12.3406 9.27964 12.1777 9.47268C12.0692 9.2107 11.9334 8.94872 11.7434 8.68674C11.187 7.91458 10.4948 7.50093 10.0198 7.2941V2.46814C10.0198 2.05448 10.3455 1.72356 10.7527 1.72356H22.9541C23.3612 1.72356 23.687 2.05448 23.687 2.46814V16.4083H21.2983C20.1311 16.4359 19.1403 17.4424 19.1403 18.6007V21.1377C19.0453 21.1377 18.9774 21.1377 18.896 21.1377L17.3759 21.1653V21.0274C17.3759 20.6413 17.3352 20.2415 17.2673 19.8692L17.2809 19.883ZM7.45462 20.6276C7.61748 18.8626 8.92042 17.4011 10.6577 16.946V25.164C8.6354 24.6124 7.25103 22.6958 7.45462 20.6413V20.6276ZM10.5355 12.3131L8.96113 15.0846L4.82161 12.6578L6.39599 9.88634C6.91173 8.9763 8.01108 8.4937 9.00185 8.72811C9.23258 8.78326 9.44973 8.86599 9.65332 8.99009C10.3862 9.41753 10.8477 10.231 10.8477 11.0997C10.8477 11.5272 10.7391 11.9408 10.5219 12.3131H10.5355ZM6.45027 17.8974C5.9481 18.7385 5.78524 19.5658 5.75809 20.1725C5.48665 20.3518 5.05234 20.5586 4.48231 20.5586C3.96656 20.5586 3.54582 20.3794 3.28795 20.2139C2.14789 19.5383 1.75429 18.0491 2.40576 16.8909L3.98013 14.1194L7.83464 16.3807C7.37319 16.6978 6.85744 17.1804 6.45027 17.8837V17.8974Z" fill="#2D2DB2" fill-opacity="0.5"/>
<path d="M21.7054 5.44668C21.7054 4.97787 21.3253 4.5918 20.8639 4.5918H12.8291C12.3677 4.5918 11.9877 4.97787 11.9877 5.44668C11.9877 5.91549 12.3677 6.30157 12.8291 6.30157H20.8639C21.3253 6.30157 21.7054 5.91549 21.7054 5.44668Z" fill="#2D2DB2" fill-opacity="0.5"/>
<path d="M20.986 9.11426C20.5246 9.11426 20.1445 9.50034 20.1445 9.96914C20.1445 10.438 20.5246 10.824 20.986 10.824C21.4475 10.824 21.8275 10.438 21.8275 9.96914C21.8275 9.50034 21.4475 9.11426 20.986 9.11426Z" fill="#2D2DB2" fill-opacity="0.5"/>
<path d="M21.7054 14.4916C21.7054 14.0228 21.3254 13.6367 20.864 13.6367H15.2994C14.8379 13.6367 14.4579 14.0228 14.4579 14.4916C14.4579 14.9604 14.8379 15.3465 15.2994 15.3465H20.864C21.3254 15.3465 21.7054 14.9604 21.7054 14.4916Z" fill="#2D2DB2" fill-opacity="0.5"/>
</svg>
