<svg width="17" height="14" viewBox="0 0 17 14" fill="none" xmlns="http://www.w3.org/2000/svg">
<path d="M9.57933 7.51961H3.10314C2.58245 7.51961 2.15869 7.08852 2.15869 6.55882V5.46078C2.15869 4.93109 2.58245 4.5 3.10314 4.5H9.57933C10.1 4.5 10.5238 4.93109 10.5238 5.46078V6.55882C10.5238 7.08852 10.1 7.51961 9.57933 7.51961ZM3.10314 5.32353C3.02882 5.32353 2.96822 5.38518 2.96822 5.46078V6.55882C2.96822 6.63442 3.02882 6.69608 3.10314 6.69608H9.57933C9.65364 6.69608 9.71425 6.63442 9.71425 6.55882V5.46078C9.71425 5.38518 9.65364 5.32353 9.57933 5.32353H3.10314Z" fill="#FF508B"/>
<path d="M9.03976 11.911H3.64293C3.12225 11.911 2.69849 11.4799 2.69849 10.9502V7.10708C2.69849 6.87973 2.87977 6.69531 3.10325 6.69531H9.57944C9.80292 6.69531 9.9842 6.87973 9.9842 7.10708V10.9502C9.9842 11.4799 9.56044 11.911 9.03976 11.911ZM3.50801 7.51884V10.9502C3.50801 11.0258 3.56862 11.0875 3.64293 11.0875H9.03976C9.11407 11.0875 9.17468 11.0258 9.17468 10.9502V7.51884H3.50801Z" fill="#FF508B"/>
<path d="M7.42067 5.32429H5.26194C5.03846 5.32429 4.85718 5.13988 4.85718 4.91253V2.71645C4.85718 2.4891 5.03846 2.30469 5.26194 2.30469H7.42067C7.64415 2.30469 7.82543 2.4891 7.82543 2.71645V4.91253C7.82543 5.13988 7.64415 5.32429 7.42067 5.32429ZM5.6667 4.50077H7.01591V3.12822H5.6667V4.50077Z" fill="#FF508B"/>
<path d="M8.39616 5.32111H7.42063C7.19715 5.32111 7.01587 5.13669 7.01587 4.90935V2.71327C7.01587 2.52429 7.1421 2.3597 7.32235 2.31386L8.01094 2.13855C8.48893 2.01766 8.98593 2.12406 9.37358 2.43261C9.7615 2.74088 9.98412 3.20491 9.98412 3.70568C9.98412 4.59651 9.27185 5.32111 8.39616 5.32111ZM7.82539 4.49758H8.39616C8.82542 4.49758 9.1746 4.14237 9.1746 3.70568C9.1746 3.4601 9.06553 3.2328 8.87524 3.0816C8.685 2.93013 8.44176 2.87731 8.20722 2.93738L7.82539 3.03466V4.49758Z" fill="#FF508B"/>
<path d="M5.26198 5.32113H4.28645C3.41076 5.32113 2.69849 4.59654 2.69849 3.7057C2.69849 3.20494 2.92116 2.74091 3.30903 2.43263C3.69695 2.12408 4.19389 2.01763 4.6714 2.13858L5.36025 2.31388C5.54051 2.35972 5.66674 2.52432 5.66674 2.71329V4.90937C5.66674 5.13672 5.48546 5.32113 5.26198 5.32113ZM4.28488 2.91352C4.11359 2.91352 3.94629 2.97117 3.80737 3.08163C3.61713 3.23283 3.50801 3.46018 3.50801 3.7057C3.50801 4.14239 3.85718 4.4976 4.28645 4.4976H4.85722V3.03469L4.47512 2.9374C4.41187 2.92131 4.34808 2.91352 4.28488 2.91352Z" fill="#FF508B"/>
<path d="M15.5159 14H1.48413C0.665644 14 0 13.3228 0 12.4902V1.5098C0 0.677161 0.665644 0 1.48413 0H15.5159C16.3344 0 17 0.677161 17 1.5098V12.4902C17 13.3228 16.3344 14 15.5159 14ZM1.48413 0.823529C1.11202 0.823529 0.809524 1.13126 0.809524 1.5098V12.4902C0.809524 12.8687 1.11202 13.1765 1.48413 13.1765H15.5159C15.888 13.1765 16.1905 12.8687 16.1905 12.4902V1.5098C16.1905 1.13126 15.888 0.823529 15.5159 0.823529H1.48413Z" fill="#FF508B"/>
<path d="M14.4364 3.01884H11.738C11.5145 3.01884 11.3333 2.83443 11.3333 2.60708C11.3333 2.37973 11.5145 2.19531 11.738 2.19531H14.4364C14.6599 2.19531 14.8412 2.37973 14.8412 2.60708C14.8412 2.83443 14.6599 3.01884 14.4364 3.01884Z" fill="#FF508B"/>
<path d="M14.4365 5.21415H12.2778C12.0543 5.21415 11.873 5.02974 11.873 4.80239C11.873 4.57504 12.0543 4.39062 12.2778 4.39062H14.4365C14.66 4.39062 14.8413 4.57504 14.8413 4.80239C14.8413 5.02974 14.66 5.21415 14.4365 5.21415Z" fill="#FF508B"/>
<path d="M14.4365 7.41337H12.2778C12.0543 7.41337 11.873 7.22896 11.873 7.00161C11.873 6.77426 12.0543 6.58984 12.2778 6.58984H14.4365C14.66 6.58984 14.8413 6.77426 14.8413 7.00161C14.8413 7.22896 14.66 7.41337 14.4365 7.41337Z" fill="#FF508B"/>
<path d="M14.4364 9.60869H11.738C11.5145 9.60869 11.3333 9.42427 11.3333 9.19692C11.3333 8.96957 11.5145 8.78516 11.738 8.78516H14.4364C14.6599 8.78516 14.8412 8.96957 14.8412 9.19692C14.8412 9.42427 14.6599 9.60869 14.4364 9.60869Z" fill="#FF508B"/>
<path d="M14.4364 11.804H11.738C11.5145 11.804 11.3333 11.6196 11.3333 11.3922C11.3333 11.1649 11.5145 10.9805 11.738 10.9805H14.4364C14.6599 10.9805 14.8412 11.1649 14.8412 11.3922C14.8412 11.6196 14.6599 11.804 14.4364 11.804Z" fill="#FF508B"/>
</svg>
