<svg width="17" height="15" viewBox="0 0 17 15" fill="none" xmlns="http://www.w3.org/2000/svg">
<path d="M3.80429 4.23119L6.40429 3.85419L7.56629 1.49919C7.66686 1.29311 7.8233 1.11942 8.01778 0.997925C8.21227 0.876429 8.43697 0.812012 8.66629 0.812012C8.8956 0.812012 9.1203 0.876429 9.31479 0.997925C9.50927 1.11942 9.66571 1.29311 9.76629 1.49919L10.9283 3.85419L13.5283 4.23219C13.7543 4.26506 13.9667 4.36051 14.1413 4.50777C14.3159 4.65502 14.4458 4.84819 14.5163 5.06544C14.5869 5.28268 14.5952 5.51533 14.5404 5.73708C14.4856 5.95882 14.3699 6.1608 14.2063 6.32019L12.3263 8.15319L12.7703 10.7412C12.8091 10.9664 12.784 11.1979 12.698 11.4095C12.6121 11.6212 12.4685 11.8046 12.2837 11.9389C12.0989 12.0733 11.8802 12.1532 11.6523 12.1697C11.4244 12.1862 11.1965 12.1385 10.9943 12.0322L8.66529 10.8132L6.34128 12.0352C6.13903 12.1411 5.91121 12.1884 5.6835 12.1718C5.45579 12.1551 5.23727 12.0752 5.05259 11.9409C4.86791 11.8067 4.72442 11.6235 4.63832 11.412C4.55221 11.2006 4.52692 10.9693 4.56529 10.7442L5.00428 8.15219L3.12429 6.31919C2.96064 6.15967 2.84492 5.95753 2.79023 5.73564C2.73553 5.51375 2.74406 5.28098 2.81482 5.06368C2.88559 4.84639 3.01578 4.65324 3.19065 4.50611C3.36552 4.35898 3.57809 4.26375 3.80429 4.23119ZM3.85829 5.56819L5.93929 7.59319C6.00014 7.65253 6.04566 7.72576 6.07197 7.80658C6.09827 7.88741 6.10455 7.97341 6.09028 8.05719L5.59929 10.9172C5.59386 10.9493 5.59753 10.9824 5.60988 11.0126C5.62223 11.0428 5.64278 11.0689 5.66919 11.088C5.6956 11.1071 5.72683 11.1185 5.75936 11.1208C5.79189 11.1232 5.82442 11.1164 5.85328 11.1012L8.42128 9.75119C8.49655 9.71168 8.58028 9.69104 8.66529 9.69104C8.75029 9.69104 8.83402 9.71168 8.90928 9.75119L11.4773 11.1012C11.5061 11.1168 11.5388 11.1239 11.5715 11.1218C11.6042 11.1196 11.6356 11.1083 11.6621 11.0891C11.6887 11.0698 11.7093 11.0435 11.7215 11.0131C11.7337 10.9827 11.7371 10.9494 11.7313 10.9172L11.2403 8.05719C11.226 7.97341 11.2323 7.88741 11.2586 7.80658C11.2849 7.72576 11.3304 7.65253 11.3913 7.59319L13.4693 5.56819C13.4936 5.54544 13.5109 5.5162 13.519 5.48393C13.5272 5.45166 13.526 5.41772 13.5154 5.38614C13.5049 5.35456 13.4856 5.32666 13.4596 5.30575C13.4337 5.28485 13.4024 5.27181 13.3693 5.26819L10.4983 4.85119C10.4132 4.83969 10.3323 4.80752 10.2626 4.75748C10.1928 4.70745 10.1364 4.64108 10.0983 4.56419L8.81429 1.96419C8.80013 1.93456 8.77787 1.90953 8.75009 1.89202C8.72231 1.8745 8.69013 1.8652 8.65728 1.8652C8.62444 1.8652 8.59227 1.8745 8.56449 1.89202C8.53671 1.90953 8.51445 1.93456 8.50029 1.96419L7.21628 4.56419C7.17815 4.64108 7.12175 4.70745 7.05201 4.75748C6.98228 4.80752 6.90134 4.83969 6.81629 4.85119L3.94529 5.26819C3.9135 5.27427 3.88403 5.28909 3.8602 5.31099C3.83637 5.3329 3.81913 5.36101 3.8104 5.39218C3.80167 5.42335 3.80181 5.45633 3.8108 5.48743C3.81979 5.51852 3.83727 5.54649 3.86129 5.56819H3.85829Z" fill="#FF8F15"/>
<path d="M12.3949 1.07634L13.0169 0.216343C13.1004 0.108412 13.2227 0.0372591 13.3578 0.0179678C13.4929 -0.0013235 13.6303 0.0327632 13.7407 0.113002C13.8511 0.193242 13.9259 0.313325 13.9493 0.447796C13.9726 0.582268 13.9427 0.720555 13.8659 0.833343L13.2389 1.69734C13.1553 1.80527 13.033 1.87643 12.8979 1.89572C12.7628 1.91501 12.6255 1.88092 12.5151 1.80068C12.4047 1.72044 12.3298 1.60036 12.3065 1.46589C12.2831 1.33142 12.313 1.19313 12.3899 1.08034L12.3949 1.07634Z" fill="#FF8F15"/>
<path d="M14.4765 8.81906C14.5196 8.68678 14.6134 8.57701 14.7373 8.51382C14.8612 8.45064 15.0052 8.43922 15.1375 8.48209L16.1735 8.81906C16.2392 8.84034 16.3 8.87435 16.3525 8.91913C16.4051 8.96391 16.4482 9.01861 16.4796 9.08008C16.511 9.14155 16.53 9.2086 16.5355 9.27741C16.5409 9.34621 16.5328 9.41542 16.5115 9.48108C16.4902 9.54674 16.4562 9.60757 16.4115 9.6601C16.3667 9.71262 16.312 9.75578 16.2505 9.78717C16.189 9.81856 16.122 9.83755 16.0532 9.84302C15.9844 9.84849 15.9152 9.84034 15.8495 9.81906L14.8135 9.48209C14.7478 9.46078 14.6869 9.42672 14.6344 9.38184C14.5818 9.33696 14.5387 9.28215 14.5074 9.22055C14.4761 9.15896 14.4572 9.09178 14.4519 9.02289C14.4466 8.954 14.455 8.88472 14.4765 8.81906Z" fill="#FF8F15"/>
<path d="M3.57815 0.0991897C3.69076 0.0174335 3.83121 -0.0162724 3.96865 0.00547881C4.1061 0.02723 4.22929 0.102659 4.31115 0.21519L4.93814 1.07919C5.015 1.19198 5.04491 1.33026 5.02154 1.46474C4.99817 1.59921 4.92336 1.71929 4.81295 1.79953C4.70254 1.87977 4.56523 1.91386 4.43011 1.89456C4.29499 1.87527 4.17268 1.80412 4.08914 1.69619L3.46215 0.83219C3.3804 0.719583 3.34668 0.579126 3.36843 0.441681C3.39018 0.304236 3.46562 0.181049 3.57815 0.0991897Z" fill="#FF8F15"/>
<path d="M1.15921 8.81913L2.19522 8.48212C2.26088 8.46085 2.33009 8.45273 2.39889 8.4582C2.46769 8.46367 2.53475 8.48263 2.59622 8.51402C2.65769 8.5454 2.71239 8.5886 2.75717 8.64112C2.80195 8.69364 2.83593 8.75445 2.8572 8.82011C2.87848 8.88577 2.88663 8.95498 2.88116 9.02378C2.87569 9.09258 2.8567 9.15967 2.82531 9.22114C2.79393 9.28261 2.75076 9.33728 2.69824 9.38206C2.64572 9.42684 2.58488 9.46085 2.51922 9.48212L1.48321 9.81913C1.41755 9.8404 1.34834 9.84853 1.27954 9.84306C1.21073 9.83758 1.14368 9.81863 1.08221 9.78724C1.02074 9.75585 0.966042 9.71266 0.92126 9.66013C0.876478 9.60761 0.842498 9.54678 0.821223 9.48112C0.799949 9.41546 0.791795 9.34625 0.797267 9.27744C0.80274 9.20864 0.821728 9.14159 0.853114 9.08012C0.884501 9.01864 0.927698 8.96395 0.98022 8.91917C1.03274 8.87438 1.09354 8.8404 1.15921 8.81913Z" fill="#FF8F15"/>
<path d="M8.66641 12.8809C8.80565 12.8809 8.93919 12.9362 9.03764 13.0346C9.1361 13.1331 9.19141 13.2666 9.19141 13.4059V14.4709C9.1855 14.606 9.12767 14.7336 9.02995 14.8272C8.93224 14.9207 8.80219 14.9729 8.66692 14.9729C8.53164 14.9729 8.40158 14.9207 8.30386 14.8272C8.20615 14.7336 8.14831 14.606 8.14241 14.4709V13.4109C8.14175 13.3416 8.15481 13.2729 8.18083 13.2086C8.20686 13.1444 8.24534 13.086 8.29405 13.0367C8.34276 12.9875 8.40074 12.9483 8.46465 12.9216C8.52855 12.8948 8.59713 12.881 8.66641 12.8809Z" fill="#FF8F15"/>
</svg>
