<svg width="162" height="162" viewBox="0 0 162 162" fill="none" xmlns="http://www.w3.org/2000/svg">
<circle cx="81" cy="81" r="81" fill="#F5F5FF"/>
<g opacity="0.5">
<path d="M94.4634 82.9023V126.219H93.7131V83.6478H75.7317V82.9023H94.4634Z" fill="#B5B5FF"/>
<path d="M93.2928 37.2441V60.6588H92.7083V37.8046H78.0732V37.2441H93.2928Z" fill="#B5B5FF"/>
<path d="M87.439 64.1709V71.1953H83.9268V70.7655H87.0961V64.1709H87.439Z" fill="#B5B5FF"/>
<path d="M76.9023 77.0485C77.0918 76.7234 77.2032 76.3177 77.2032 75.8778C77.2032 75.4378 77.0918 75.0322 76.9035 74.707H93.2914C93.1031 75.0322 92.9917 75.4378 92.9917 75.8778C92.9917 76.3177 93.1031 76.7234 93.2926 77.0485H76.9023Z" fill="#B5B5FF"/>
<path d="M71.0488 73.8169V74.7075H57V71.1953H57.8403V73.8169H71.0488Z" fill="#B5B5FF"/>
<path d="M71.0487 63H69.8779V73.5366H71.0487V63Z" fill="#B5B5FF"/>
<path d="M68.7074 73.5366H60.3419L59.9794 69.7133L59.3416 63C59.5068 64.6281 61.3216 65.9124 63.5358 65.9124C65.6294 65.9124 67.364 64.7652 67.6875 63.2635L68.3277 69.7133L68.7074 73.5366Z" fill="#B5B5FF"/>
<path d="M103.829 73.5363H100.317L101.186 67.6826C101.446 67.8571 101.75 67.9574 102.073 67.9574C102.396 67.9574 102.675 67.8654 102.927 67.7046L103.829 73.5363Z" fill="#B5B5FF"/>
<path d="M100.817 66.5125C100.817 66.9776 101.078 67.3962 101.488 67.6833H99.1462V65.3418H101.488C101.078 65.6288 100.817 66.0475 100.817 66.5125Z" fill="#B5B5FF"/>
<path d="M100.317 18.5117L99.2249 23.1946H71.4366L69.8779 18.5117H100.317Z" fill="#B5B5FF"/>
<path d="M93.6933 139.097L75.2918 138.917C74.0814 138.905 73.198 137.857 73.4261 136.756C73.5949 137.566 74.3433 138.212 75.2918 138.221L93.6933 138.402C94.6675 138.411 95.4705 137.736 95.6125 136.863L95.6311 137.182C95.6916 138.23 94.8036 139.108 93.6933 139.097Z" fill="#B5B5FF"/>
<path d="M103.829 142.609H65.1951V144.951H103.829V142.609Z" fill="#B5B5FF"/>
<path d="M72.2195 144.951C72.2195 145.273 72.0932 145.565 71.8893 145.778C71.6864 145.99 71.4059 146.122 71.0973 146.122H69.8295C69.2123 146.122 68.7073 145.594 68.7073 144.951H72.2195Z" fill="#B5B5FF"/>
<path d="M86.2683 144.951C86.2683 145.273 86.1421 145.565 85.9382 145.778C85.7344 145.99 85.4539 146.122 85.1454 146.122H83.879C83.262 146.122 82.7561 145.594 82.7561 144.951H86.2683Z" fill="#B5B5FF"/>
<path d="M100.317 144.951C100.317 145.273 100.191 145.565 99.9869 145.778C99.7841 145.99 99.5036 146.122 99.195 146.122H97.9271C97.3099 146.122 96.8049 145.594 96.8049 144.951H100.317Z" fill="#B5B5FF"/>
<path d="M101.506 17.0143L100.736 16.7348L99.1103 21.5085H98.9143V22.3519L99.7066 22.5543L101.001 17.1553H69.7267L71.6006 22.6326L72.3707 22.3519V21.5085H71.7861L70.1153 17.8577H101.506V17.0143L100.736 16.7348L101.506 17.0143V16.1709H67.5366L70.7523 23.1953H73.5258L72.037 18.8421H98.9143L97.8712 23.1953H100.268L102.659 16.1709H101.506V17.0143Z" fill="#B5B5FF"/>
<path d="M70.7052 22.854H69.8779V132.073H100.317V22.0244H69.8779V22.854H70.7052V23.6836H98.6625V130.414H71.5324V22.854H70.7052ZM76.5432 35.5176V36.3472H93.231V61.1504H77.3704V35.5176H76.5432H75.7159V62.8096H94.8855V34.6879H75.7159V35.5176H76.5432ZM87.315 64.476H86.4878V69.7286H84.3405V65.3056H87.315V64.476V63.6463H82.686V71.3879H88.1423V63.6463H87.315V64.476ZM95.9597 128.112V127.283H75.3342V82.6446H95.1325V128.112H95.9597H96.787V80.9853H73.6797V128.942H96.787V128.112H95.9597ZM94.8737 77.6728V76.8432C94.7531 76.8432 94.6444 76.8147 94.5463 76.765C94.4482 76.7152 94.362 76.6417 94.2958 76.5528L94.0476 76.221H76.3517L76.1035 76.5528C76.0374 76.6417 75.9511 76.7152 75.853 76.765C75.7549 76.8147 75.6462 76.8432 75.5256 76.8432C75.424 76.8432 75.3306 76.823 75.2444 76.7863C75.1156 76.7318 75.0045 76.6393 74.9265 76.5232C74.8485 76.407 74.8036 76.2719 74.8036 76.119C74.8036 76.0159 74.8237 75.9235 74.8603 75.837C74.9147 75.7078 75.0068 75.5952 75.1227 75.517C75.2385 75.4388 75.3732 75.3937 75.5256 75.3937C75.6462 75.3937 75.7561 75.4222 75.8542 75.4731C75.9523 75.5241 76.0385 75.5976 76.1047 75.6853L76.3529 76.0183H94.0476L94.2958 75.6853C94.362 75.5964 94.4482 75.5229 94.5463 75.4731C94.6444 75.4222 94.7543 75.3949 94.8749 75.3937C94.9765 75.3937 95.0699 75.4139 95.1561 75.4506C95.2849 75.5051 95.396 75.5976 95.474 75.7137C95.552 75.8299 95.5969 75.9662 95.5969 76.119C95.5969 76.221 95.5768 76.3146 95.5402 76.4011C95.4858 76.5303 95.3937 76.6417 95.2779 76.7199C95.162 76.7981 95.0273 76.8432 94.8749 76.8432V78.5024C95.201 78.5024 95.5154 78.436 95.8002 78.3152C96.228 78.1338 96.5884 77.8328 96.8449 77.4524C97.1013 77.0731 97.2514 76.6097 97.2514 76.119C97.2514 75.7919 97.1852 75.4767 97.0647 75.1911C96.8839 74.762 96.5837 74.3994 96.2044 74.1422C95.8262 73.885 95.3641 73.7345 94.8749 73.7345C94.4872 73.7345 94.1174 73.8293 93.7924 73.9952C93.4674 74.1623 93.1873 74.4006 92.9698 74.6921L93.6328 75.1887V74.3591H76.7665V75.1887L77.4295 74.6921C77.2132 74.4017 76.932 74.1623 76.607 73.9952C76.282 73.8281 75.9109 73.7333 75.5245 73.7345C75.1983 73.7345 74.8839 73.8009 74.5991 73.9217C74.1713 74.1031 73.8097 74.4041 73.5544 74.7845C73.298 75.1638 73.1479 75.6272 73.1479 76.1179C73.1479 76.445 73.2141 76.7602 73.3346 77.0458C73.5154 77.4749 73.8156 77.8363 74.195 78.0935C74.5731 78.3507 75.0352 78.5012 75.5245 78.5012C75.9121 78.5012 76.282 78.4064 76.607 78.2405C76.932 78.0734 77.2109 77.8352 77.4271 77.546L76.7653 77.0482V77.8778H93.6328V77.0482L92.971 77.546C93.1873 77.8352 93.4674 78.0734 93.7912 78.2405C94.115 78.4076 94.4861 78.5024 94.8737 78.5012V77.6716V77.6728Z" fill="#B5B5FF"/>
<path d="M103.968 141.821V141.033H66.3163L70.0033 130.136H70.6439V129.348H69.8057V131.731H100.648V130.136H101.186V129.348L100.366 129.511L103.148 141.983L103.968 141.821V141.033V141.821L104.788 141.659L101.866 128.561H98.972V130.156H71.4821V128.561H68.7771L64.0244 142.609H105L104.788 141.659L103.968 141.821Z" fill="#B5B5FF"/>
<path d="M74.2284 81.3909H73.3901V128.561H96.8048V80.5605H73.3901V81.3909H74.2284V82.2213H95.1283V126.9H75.0666V81.3909H74.2284ZM94.5295 126.307V125.476H76.5036V83.6448H93.6913V126.307H94.5295H95.3678V81.984H74.8271V127.137H95.3678V126.307H94.5295Z" fill="#B5B5FF"/>
<path d="M93.6698 83.7343H92.8762V125.726H77.3189V84.5662H93.6698V83.7343H92.8762H93.6698V82.9023H75.7317V127.39H94.4634V82.9023H93.6698V83.7343Z" fill="#B5B5FF"/>
<path d="M76.54 35.7313H75.7317V62.9999H94.4634V34.9023H75.7317V35.7313H76.54V36.5602H92.8467V61.3421H77.3484V35.7313H76.54ZM92.2693 60.75V59.9211H78.7341V37.9811H91.461V60.75H92.2693H93.0777V36.3233H77.1174V61.5789H93.0777V60.75H92.2693Z" fill="#B5B5FF"/>
<path d="M92.4328 36.8986H91.573V59.0079H78.6219V37.724H92.4328V36.8986H91.573H92.4328V36.0732H76.9023V60.6586H93.2926V36.0732H92.4328V36.8986Z" fill="#B5B5FF"/>
<path d="M87.7223 63.8782H86.8348V69.4387H84.5311V64.7565H87.7223V63.8782H86.8348H87.7223V63H82.7561V71.1951H88.6098V63H87.7223V63.8782Z" fill="#B5B5FF"/>
<path d="M77.2582 75.8799H76.4434C76.4434 76.0441 76.391 76.185 76.3037 76.3014L76.2956 76.3119L76.3002 76.3049C76.235 76.3922 76.1501 76.4644 76.0535 76.5133C75.9568 76.5622 75.8498 76.5902 75.731 76.5902C75.6309 76.5902 75.539 76.5704 75.454 76.5343C75.3271 76.4807 75.2177 76.3899 75.1408 76.2758C75.064 76.1617 75.0198 76.029 75.0198 75.8788C75.0198 75.7775 75.0396 75.6867 75.0757 75.6017C75.1292 75.4747 75.22 75.3641 75.3341 75.2873C75.4482 75.2104 75.5809 75.1662 75.731 75.1662C75.8498 75.1662 75.958 75.1941 76.0546 75.2442C76.1512 75.2943 76.2362 75.3665 76.3014 75.4526V75.455C76.391 75.5725 76.4422 75.7146 76.4434 75.8788H78.0731C78.0731 75.356 77.8996 74.8646 77.6051 74.4746V74.4769C77.3933 74.1917 77.1174 73.9565 76.7973 73.7923C76.4772 73.6281 76.1117 73.535 75.731 73.5361C75.4097 73.5361 75.1001 73.6013 74.8196 73.7201C74.3982 73.8982 74.042 74.194 73.7906 74.5677C73.538 74.9403 73.3901 75.3956 73.3901 75.8776C73.3901 76.199 73.4553 76.5087 73.5741 76.7893C73.7522 77.2108 74.0478 77.5659 74.4215 77.8185C74.794 78.0712 75.2491 78.2191 75.731 78.2191C76.1128 78.2191 76.4772 78.1259 76.7973 77.9629C77.1174 77.7987 77.3921 77.5647 77.6051 77.2806L77.6028 77.2841C77.8996 76.8929 78.0731 76.4015 78.0731 75.8776H77.2582V75.8799Z" fill="#B5B5FF"/>
<path d="M95.9892 75.8788H95.1746C95.1746 75.9789 95.1548 76.0709 95.1187 76.1559C95.0652 76.2828 94.9744 76.3922 94.8604 76.4691C94.7463 76.5459 94.6137 76.5902 94.4635 76.5902C94.3448 76.5902 94.2378 76.5622 94.1412 76.5133C94.0446 76.4644 93.9596 76.3922 93.8945 76.3049L93.8921 76.3014C93.8049 76.1838 93.7525 76.0429 93.7525 75.8788C93.7525 75.7146 93.8049 75.5725 93.8921 75.4549V75.4526C93.9585 75.3653 94.0446 75.2931 94.1412 75.2442C94.2378 75.1941 94.346 75.1674 94.4647 75.1662C94.5648 75.1662 94.6567 75.186 94.7417 75.2221C94.8685 75.2756 94.9779 75.3665 95.0547 75.4806C95.1315 75.5947 95.1757 75.7286 95.1757 75.8788H96.805C96.805 75.5574 96.7398 75.2477 96.6211 74.9671C96.4431 74.5456 96.1475 74.1893 95.7739 73.9367C95.4015 73.684 94.9465 73.5361 94.4647 73.5361C94.083 73.5361 93.7187 73.6293 93.3987 73.7923C93.0787 73.9565 92.8029 74.1905 92.5887 74.4769L92.5771 74.492L92.5899 74.4746C92.2955 74.8646 92.1221 75.356 92.1221 75.8788C92.1221 76.4015 92.2955 76.8941 92.5922 77.2841L92.5899 77.2806C92.8029 77.5647 93.0787 77.7987 93.3975 77.9629C93.7164 78.1271 94.0818 78.2202 94.4635 78.219C94.7847 78.219 95.0943 78.1538 95.3747 78.0351C95.796 77.8569 96.151 77.5612 96.4035 77.1875C96.656 76.8149 96.8038 76.3596 96.8038 75.8776H95.9892V75.8788Z" fill="#B5B5FF"/>
<path d="M70.2583 69.7374H69.4678V72.9395H68.7857V73.8233L69.5717 73.7337L69.2871 70.6212H70.2583V69.7374H69.4678H70.2583V68.8535H67.5366L68.0719 74.7072H71.0488V68.8535H70.2583V69.7374Z" fill="#B5B5FF"/>
<path d="M59.5487 73.8233V72.9395H58.7474V70.6212H59.1542V69.7374L58.2843 69.8232L58.6787 73.9092L59.5487 73.8233V72.9395V73.8233L60.4186 73.7375L59.9468 68.8535H57V74.7072H60.5122L60.4186 73.7375L59.5487 73.8233Z" fill="#B5B5FF"/>
<path d="M63.4383 59.1695V58.3186C62.7448 58.3186 62.0801 58.4219 61.4685 58.6115C60.5518 58.8972 59.7484 59.3761 59.1513 60.0228C58.8534 60.3461 58.6085 60.7132 58.4372 61.1168C58.2659 61.5203 58.1707 61.9615 58.1707 62.4162C58.1707 62.5328 58.1779 62.6459 58.1887 62.7529C58.2479 63.3229 58.4541 63.8541 58.7629 64.3148C59.2261 65.0077 59.9077 65.551 60.711 65.9266C61.5156 66.3022 62.4468 66.5113 63.4395 66.5125C64.6904 66.5125 65.8448 66.1807 66.7688 65.5996C67.2296 65.3079 67.6337 64.953 67.9557 64.5373C68.2766 64.1216 68.5154 63.6426 68.63 63.1212L68.6505 63.03V62.9352H67.8062L68.63 63.12C68.6807 62.8902 68.7072 62.6544 68.7072 62.4149C68.7072 61.8084 68.5372 61.2274 68.2452 60.7241C68.0269 60.3449 67.7434 60.007 67.4117 59.7116C66.9148 59.2691 66.3104 58.9239 65.6373 58.6857C64.9642 58.4474 64.2212 58.3174 63.4408 58.3174V60.0191C63.9679 60.0191 64.4673 60.0981 64.9136 60.2367C65.5843 60.4446 66.1319 60.7886 66.4889 61.1787C66.6687 61.3732 66.8002 61.5787 66.8882 61.7841C66.9751 61.9907 67.0185 62.1974 67.0197 62.4149C67.0197 62.5304 67.0076 62.641 66.9835 62.7504L66.963 62.8416V62.9364H67.8074L66.9835 62.7516C66.928 63.002 66.811 63.2512 66.6253 63.4907C66.349 63.8505 65.9148 64.186 65.3647 64.4254C64.8159 64.6661 64.1549 64.8108 63.442 64.8095C62.436 64.8108 61.5349 64.5202 60.9028 64.0863C60.5868 63.8699 60.3383 63.6208 60.167 63.3643C59.9957 63.1066 59.8992 62.8452 59.8715 62.5754C59.8654 62.5195 59.863 62.4648 59.863 62.4137C59.863 62.1244 59.9402 61.8509 60.097 61.5774C60.214 61.3732 60.3781 61.1727 60.588 60.9867C60.9016 60.7071 61.3178 60.4628 61.8039 60.2902C62.2912 60.1176 62.8485 60.0179 63.442 60.0179V59.167L63.4383 59.1695ZM63.4383 64.9335V64.0827C63.0174 64.0827 62.6133 64.0219 62.2502 63.9149C61.705 63.7557 61.255 63.4895 60.974 63.2075C60.8328 63.0665 60.7327 62.9243 60.6712 62.7918C60.6097 62.6593 60.5832 62.5377 60.5819 62.4162C60.5819 62.3347 60.594 62.2545 60.6205 62.1694C60.6664 62.0223 60.7569 61.8594 60.9064 61.6941C61.1284 61.4462 61.4818 61.2018 61.9221 61.0292C62.3624 60.8542 62.8847 60.7484 63.4371 60.7497C63.8581 60.7497 64.2622 60.8104 64.6241 60.9174C65.1693 61.0766 65.618 61.3416 65.8991 61.6248C66.0402 61.7659 66.1403 61.9081 66.2019 62.0406C66.2634 62.1743 66.2899 62.2946 66.2911 62.4162C66.2911 62.4976 66.2791 62.5778 66.2525 62.6629C66.2067 62.81 66.1162 62.9729 65.9666 63.1382C65.7447 63.3862 65.3913 63.6305 64.9522 63.8031C64.5131 63.9781 63.9896 64.0839 63.4371 64.0827V65.7844C64.0185 65.7844 64.5782 65.7017 65.0969 65.5486C65.8738 65.3189 66.5625 64.9396 67.0885 64.4169C67.3502 64.1556 67.5722 63.8554 67.7302 63.5186C67.8882 63.1819 67.9811 62.8063 67.9799 62.4162C67.9799 62.1573 67.9389 61.902 67.8653 61.6625C67.735 61.242 67.5046 60.8688 67.2163 60.5491C66.7821 60.0702 66.2151 59.7019 65.571 59.4454C64.9269 59.1901 64.2007 59.0479 63.4371 59.0467C62.8557 59.0467 62.296 59.1294 61.7773 59.2825C61.0005 59.5123 60.3117 59.8915 59.7858 60.4142C59.5241 60.6755 59.3021 60.9758 59.1441 61.3125C58.9861 61.6492 58.8932 62.026 58.8932 62.4149C58.8932 62.6739 58.9342 62.9291 59.0078 63.1686C59.1381 63.5891 59.3685 63.9623 59.658 64.282C60.0934 64.7609 60.6591 65.1292 61.3033 65.3845C61.9474 65.6398 62.6736 65.782 63.4371 65.782V64.9311L63.4383 64.9335Z" fill="#B5B5FF"/>
<path d="M103.168 66.5129H102.51C102.51 66.6977 102.475 66.8639 102.42 66.9954C102.366 67.1269 102.293 67.2193 102.23 67.2693H102.229C102.199 67.2943 102.172 67.3095 102.146 67.3193C102.12 67.3291 102.097 67.3334 102.071 67.3334C102.045 67.3334 102.021 67.3291 101.993 67.3182C101.967 67.3073 101.937 67.29 101.906 67.2639L101.9 67.2584L101.896 67.2552C101.88 67.241 101.856 67.2182 101.827 67.1802L101.83 67.1845C101.778 67.1172 101.726 67.0226 101.691 66.9074C101.654 66.7922 101.631 66.6574 101.632 66.5129C101.632 66.3673 101.655 66.2325 101.691 66.1184C101.727 66.0032 101.778 65.9087 101.83 65.8413H101.829C101.874 65.7848 101.92 65.7456 101.96 65.7239C102.001 65.7011 102.035 65.6935 102.072 65.6924C102.113 65.6924 102.148 65.7022 102.193 65.7293C102.257 65.7685 102.34 65.8543 102.404 65.9913C102.468 66.1271 102.512 66.3086 102.512 66.5129H103.828C103.828 65.9108 103.662 65.3522 103.362 64.9186C103.212 64.7023 103.026 64.5165 102.807 64.3828C102.588 64.2491 102.336 64.1709 102.072 64.1709C101.829 64.1709 101.593 64.2383 101.387 64.3546C101.18 64.4708 101.001 64.6339 100.851 64.8251H100.85C100.678 65.049 100.547 65.3098 100.456 65.5946C100.366 65.8793 100.317 66.1901 100.317 66.5129C100.317 66.8357 100.366 67.1465 100.456 67.4312C100.547 67.716 100.679 67.9768 100.85 68.1985L100.853 68.2028C100.934 68.3061 101.028 68.4072 101.139 68.4974L101.519 67.8757L101.129 68.4887C101.261 68.6006 101.408 68.6919 101.567 68.7549C101.725 68.818 101.897 68.8538 102.073 68.8538C102.242 68.8538 102.406 68.8223 102.559 68.7636C102.713 68.7049 102.855 68.6213 102.983 68.518H102.982C103.256 68.2996 103.466 67.9985 103.608 67.6551C103.751 67.3117 103.829 66.9215 103.829 66.5118H103.171L103.168 66.5129Z" fill="#B5B5FF"/>
<path d="M95.9431 137.84H95.1041L95.9431 137.842L95.1136 137.719C95.0729 137.979 94.9339 138.212 94.7337 138.381C94.5323 138.548 94.277 138.649 93.9882 138.649H93.975L75.0242 138.459C74.8791 138.458 74.7485 138.433 74.6274 138.388C74.2655 138.256 73.991 137.938 73.9179 137.572V137.57C73.9035 137.502 73.8963 137.433 73.8963 137.363C73.8963 137.268 73.9095 137.171 73.9383 137.07L74.6658 134.5C74.7341 134.261 74.8791 134.06 75.0733 133.916C75.2675 133.772 75.5072 133.69 75.7649 133.69H75.7721L93.8467 133.811C94.1488 133.813 94.4185 133.926 94.6234 134.115C94.8284 134.303 94.9578 134.559 94.9758 134.85L95.128 137.532L95.1256 137.488C95.1256 137.509 95.1268 137.53 95.1268 137.554C95.1268 137.611 95.122 137.667 95.1148 137.719L95.1053 137.779V137.84H95.9443L96.7737 137.962C96.7953 137.827 96.8048 137.69 96.8048 137.554C96.8048 137.505 96.8048 137.455 96.8012 137.404L96.6514 134.763C96.6107 134.048 96.2835 133.403 95.7825 132.944C95.2826 132.484 94.6006 132.198 93.8587 132.194L75.7841 132.073H75.7649C75.1308 132.073 74.5339 132.279 74.0557 132.631C73.5775 132.982 73.2143 133.484 73.0477 134.075L72.3202 136.646C72.2518 136.885 72.2195 137.128 72.2195 137.365C72.2195 137.543 72.2375 137.719 72.2734 137.889V137.887C72.3981 138.495 72.7325 139.036 73.2107 139.431C73.4504 139.629 73.7261 139.788 74.0305 139.901C74.3338 140.013 74.6658 140.075 75.0098 140.079L93.9606 140.268H93.9906C94.6953 140.268 95.345 140.015 95.8364 139.603C96.3278 139.191 96.6706 138.615 96.7749 137.965L96.7845 137.904V137.84H95.9455H95.9431Z" fill="#B5B5FF"/>
<path d="M101.823 15.8768V15H67.5366V18.5122H102.659V15H101.823V15.8768H100.987V16.7586H69.2086V16.7536H101.823V15.8768H100.987H101.823Z" fill="#B5B5FF"/>
</g>
</svg>
