<svg width="26" height="29" viewBox="0 0 26 29" fill="none" xmlns="http://www.w3.org/2000/svg">
<path d="M0.0811768 27.975V9.99681C0.0811768 9.21633 0.592119 8.51541 1.32985 8.27401L2.40098 0.0908203L8.63999 0.908111L8.9707 0.10814L11.9541 1.34165L15.1561 1.76112L15.1139 2.08317L15.3115 1.82553L17.8748 3.78974L20.8577 5.02325L20.5275 5.82322L25.5222 9.64987L23.3366 12.5023V15.1122H24.4916V23.356H23.3366V27.975H0.0811768ZM22.0197 26.6576V23.356H16.2895L16.2652 23.3268C16.1699 23.2131 13.9356 20.5236 13.9356 19.2338C13.9356 17.944 16.1699 15.2551 16.2652 15.1409L16.2895 15.1116H22.0197V11.8095H1.39804V26.6576H22.0197ZM23.1742 22.0402V16.428H16.9239C16.6581 16.7717 16.4151 17.1056 16.2018 17.4206C15.3445 18.6812 15.2611 19.1721 15.2536 19.2338C15.2611 19.2961 15.3445 19.787 16.2013 21.047C16.414 21.3615 16.657 21.6954 16.9233 22.0397H23.1737L23.1742 22.0402ZM22.1009 10.4931C22.4197 10.4931 22.7255 10.6171 22.9545 10.8358L23.676 9.89452L15.5561 3.67228L10.3298 10.4926H10.8532L14.5808 5.62837L14.6452 5.67816C14.9353 5.90116 15.2817 6.01861 15.6476 6.01861C16.1666 6.01861 16.6446 5.78263 16.958 5.37182L17.0072 5.30741L21.7199 8.9181L21.6706 8.98251C21.3383 9.41551 21.2425 9.97625 21.4087 10.4931H22.1009ZM20.0561 10.4931C20.0496 10.4542 20.0436 10.4152 20.0382 10.3762C19.9911 10.0206 20.0074 9.66773 20.0859 9.32566L17.0386 6.9907C17.0094 7.0064 16.9769 7.02264 16.9401 7.0405C16.5396 7.23372 16.0925 7.33602 15.6476 7.33602C15.4246 7.33602 15.2027 7.31112 14.9873 7.26241L12.5121 10.4926H20.0561V10.4931ZM8.67031 10.4931L12.8655 5.01838L11.9768 4.65087C11.455 5.13691 10.7801 5.41674 10.0646 5.44326L7.97642 10.4926H8.66976L8.67031 10.4931ZM6.5513 10.4931L9.24728 3.97214L9.32251 4.00299C9.5244 4.08634 9.73603 4.12856 9.95253 4.12856C10.6237 4.12856 11.2228 3.72803 11.4789 3.1083L11.5097 3.03307L13.6937 3.93642L13.9551 3.59543L9.68407 1.82986L6.10261 10.4926H6.5513V10.4931ZM4.67749 10.4931L7.43409 3.82546L6.47878 3.70043C6.32452 3.94724 6.13454 4.1697 5.91371 4.36238C5.60303 4.63301 5.23227 4.83922 4.83824 4.96155L4.1135 10.4937H4.67695L4.67749 10.4931ZM2.78581 10.4931L3.66914 3.75131L3.74924 3.76159C3.82285 3.77079 3.89592 3.77566 3.96628 3.77566C4.79115 3.77566 5.4937 3.1581 5.60086 2.33864L5.61115 2.25799L7.95531 2.56488L8.11931 2.16815L3.53599 1.5679L2.36688 10.4931H2.78527H2.78581Z" fill="#2D2DB2"/>
<path d="M2.47136 0.181861L8.69142 0.996445L9.01509 0.214336L11.9335 1.42133L15.0657 1.8316L14.9948 2.37393L15.3272 1.93985L17.8348 3.86129L20.7527 5.06774L20.4296 5.84985L25.4091 9.66514L23.256 12.4748V15.1935H24.411V23.2749H23.256V27.894H0.162376V9.99692C0.162376 9.21103 0.685766 8.54745 1.40347 8.33582L2.47136 0.181861ZM2.27488 10.5739H2.85727L3.73951 3.84181C3.81583 3.85155 3.89106 3.85642 3.96629 3.85642C4.82256 3.85642 5.56732 3.22153 5.68152 2.34903L8.00674 2.65322L8.23515 2.10114L3.46672 1.47654L2.27488 10.5739ZM5.98138 10.5739H6.60598L9.29167 4.07779C9.50817 4.1671 9.73225 4.20932 9.95254 4.20932C10.6329 4.20932 11.2781 3.80608 11.5541 3.13872L13.7207 4.03449L14.0845 3.55981L9.64078 1.72281L5.98138 10.5739ZM10.1653 10.5739H10.8927L14.5954 5.74214C14.9093 5.983 15.2795 6.09937 15.6476 6.09937C16.1677 6.09937 16.6825 5.86609 17.0229 5.42064L21.6068 8.93228C21.2344 9.41778 21.1586 10.0375 21.3513 10.5734H22.1015C22.4441 10.5734 22.751 10.7222 22.9626 10.9587L23.7907 9.87839L15.5415 3.55765L10.1658 10.5734M4.02204 10.5734H4.73217L7.54992 3.75791L6.43711 3.61177C6.28339 3.86779 6.08908 4.09998 5.86014 4.29971C5.54026 4.57845 5.16517 4.78088 4.76464 4.89725L4.0215 10.5734M7.85573 10.5734H8.71091L12.9949 4.98277L11.96 4.55464C11.4459 5.0515 10.7552 5.34811 10.0105 5.36272L7.85627 10.5734M15.6481 7.25386C15.4111 7.25386 15.1794 7.22571 14.9553 7.17051L12.3481 10.5734H20.1546C20.14 10.5046 20.1286 10.4348 20.1189 10.3644C20.0707 10.0002 20.0913 9.63807 20.1773 9.29221L17.0467 6.89338C17.0002 6.91937 16.952 6.94372 16.9049 6.967C16.5158 7.15481 16.0811 7.25386 15.6481 7.25386ZM1.31687 26.7389H22.1009V23.2749H16.3274C16.3274 23.2749 14.0168 20.5097 14.0168 19.2339C14.0168 17.9582 16.3274 15.1929 16.3274 15.1929H22.1009V11.7284H1.31687V26.7389ZM16.8838 22.1215H23.2554V16.3469H16.8838C16.6792 16.611 16.4059 16.9742 16.1347 17.3753C15.2281 18.7078 15.1751 19.2015 15.1724 19.2339C15.1751 19.2669 15.2281 19.76 16.1347 21.0926C16.4064 21.4937 16.6792 21.8568 16.8838 22.121M2.33117 0L2.31006 0.160752L1.2557 8.2135C0.511483 8.48034 0 9.19858 0 9.99692V28.0563H23.4178V23.4373H24.5728V15.0311H23.4178V12.53L25.5374 9.76364L25.6359 9.63483L25.507 9.53632L20.6266 5.79681L20.9021 5.12944L20.9638 4.97952L20.8138 4.91727L17.916 3.71894L15.4257 1.81049L15.2969 1.71144L15.2346 1.79317L15.2482 1.69141L15.0874 1.6703L11.9763 1.26274L9.0768 0.064409L8.92687 0.00216501L8.86462 0.152092L8.58859 0.819456L2.49247 0.0211088L2.33171 0H2.33117ZM2.45945 10.4115L3.60582 1.65894L8.00349 2.23483L7.90336 2.47623L5.70155 2.18774L5.5408 2.16663L5.51969 2.32738C5.41793 3.10625 4.74949 3.6935 3.96575 3.6935C3.89918 3.6935 3.82936 3.68917 3.75899 3.67997L3.59824 3.6594L3.57713 3.81962L2.71384 10.4104H2.45891L2.45945 10.4115ZM6.22386 10.4115L9.72846 1.93498L13.8268 3.62909L13.6677 3.83694L11.6163 2.98825L11.4664 2.92601L11.4042 3.07594C11.1606 3.66536 10.5912 4.0464 9.95308 4.0464C9.74741 4.0464 9.54606 4.00635 9.35392 3.92732L9.20399 3.86562L9.14175 4.01555L6.49719 10.4115H6.22386ZM10.4938 10.4115L15.5707 3.78606L23.5618 9.90924L22.9431 10.7168C22.7082 10.5214 22.41 10.4115 22.1004 10.4115H21.4688C21.3345 9.9363 21.4309 9.42753 21.7345 9.03187L21.8336 8.90305L21.7047 8.804L17.1209 5.29236L16.9915 5.19331L16.893 5.32267C16.5948 5.71346 16.1407 5.93753 15.6471 5.93753C15.299 5.93753 14.9694 5.8255 14.6939 5.61387L14.5651 5.51482L14.466 5.64363L10.812 10.4115H10.4933H10.4938ZM4.9124 5.02228C5.29832 4.89508 5.66095 4.68941 5.9673 4.42311C6.1811 4.23692 6.36621 4.02313 6.51992 3.78714L7.31935 3.89214L4.62392 10.4121H4.20715L4.91294 5.02282L4.9124 5.02228ZM10.1203 5.52185C10.8185 5.48396 11.4767 5.21117 11.9941 4.74516L12.7373 5.05259L8.6308 10.4115H8.09875L10.1203 5.52185ZM15.6476 7.41678C16.105 7.41678 16.5639 7.31177 16.9747 7.11367C16.9942 7.10393 17.0126 7.09473 17.03 7.08607L19.9955 9.35825C19.9246 9.69382 19.9116 10.0391 19.9576 10.3866C19.9587 10.3953 19.9597 10.4034 19.9608 10.4121H12.6761L15.0203 7.35291C15.2254 7.39567 15.436 7.41732 15.6471 7.41732L15.6476 7.41678ZM1.47924 11.8913H21.9386V15.0311H16.2516L16.2029 15.0896C16.1071 15.2043 13.8544 17.9154 13.8544 19.2345C13.8544 20.5535 16.1066 23.2646 16.2029 23.3794L16.2516 23.4378H21.9386V26.5771H1.47924V11.8913ZM16.9634 16.5093H23.0931V21.9591H16.9634C16.7079 21.6279 16.4746 21.3058 16.269 21.0022C15.4652 19.8206 15.3504 19.3178 15.3358 19.2345C15.3499 19.1517 15.4647 18.6488 16.269 17.4667C16.4752 17.162 16.709 16.84 16.9639 16.5093H16.9634Z" fill="#2D2DB2"/>
<path d="M18.6369 21.0473C17.6372 21.0473 16.8237 20.2338 16.8237 19.2341C16.8237 18.2344 17.6372 17.4209 18.6369 17.4209C19.6366 17.4209 20.4501 18.2344 20.4501 19.2341C20.4501 20.2338 19.6366 21.0473 18.6369 21.0473ZM18.6369 18.7383C18.3631 18.7383 18.1406 18.9608 18.1406 19.2341C18.1406 19.5074 18.3631 19.7299 18.6369 19.7299C18.9108 19.7299 19.1333 19.5074 19.1333 19.2341C19.1333 18.9608 18.9108 18.7383 18.6369 18.7383Z" fill="#2D2DB2"/>
<path d="M18.6368 17.5017C19.5932 17.5017 20.3688 18.2773 20.3688 19.2337C20.3688 20.1901 19.5932 20.9657 18.6368 20.9657C17.6804 20.9657 16.9048 20.1901 16.9048 19.2337C16.9048 18.2773 17.6804 17.5017 18.6368 17.5017ZM18.6368 19.8107C18.9556 19.8107 19.2143 19.552 19.2143 19.2337C19.2143 18.9155 18.9556 18.6568 18.6368 18.6568C18.318 18.6568 18.0593 18.9155 18.0593 19.2337C18.0593 19.552 18.318 19.8107 18.6368 19.8107ZM18.6368 17.3394C17.5922 17.3394 16.7424 18.1891 16.7424 19.2337C16.7424 20.2784 17.5922 21.1281 18.6368 21.1281C19.6814 21.1281 20.5312 20.2784 20.5312 19.2337C20.5312 18.1891 19.6814 17.3394 18.6368 17.3394ZM18.6368 19.6483C18.4079 19.6483 18.2217 19.4627 18.2217 19.2337C18.2217 19.0048 18.4079 18.8191 18.6368 18.8191C18.8658 18.8191 19.052 19.0048 19.052 19.2337C19.052 19.4627 18.8658 19.6483 18.6368 19.6483Z" fill="#2D2DB2"/>
</svg>
