<svg width="18" height="18" viewBox="0 0 18 18" fill="none" xmlns="http://www.w3.org/2000/svg">
<path d="M8.033 17.065H4C2.93913 17.065 1.92172 16.6436 1.17157 15.8934C0.421427 15.1433 0 14.1259 0 13.065V4C0 2.93913 0.421427 1.92172 1.17157 1.17157C1.92172 0.421427 2.93913 0 4 0L8.033 0C9.09387 0 10.1113 0.421427 10.8614 1.17157C11.6116 1.92172 12.033 2.93913 12.033 4V4.667C12.0365 4.7567 12.0218 4.84618 11.9899 4.93007C11.958 5.01396 11.9094 5.09055 11.8472 5.15524C11.785 5.21993 11.7103 5.2714 11.6277 5.30655C11.5451 5.3417 11.4563 5.35982 11.3665 5.35982C11.2767 5.35982 11.1879 5.3417 11.1053 5.30655C11.0227 5.2714 10.9481 5.21993 10.8858 5.15524C10.8236 5.09055 10.775 5.01396 10.7431 4.93007C10.7112 4.84618 10.6965 4.7567 10.7 4.667V4C10.6995 3.29283 10.4183 2.61478 9.91827 2.11473C9.41822 1.61469 8.74017 1.33353 8.033 1.333H4C3.29283 1.33353 2.61478 1.61469 2.11473 2.11473C1.61469 2.61478 1.33353 3.29283 1.333 4V13.066C1.33379 13.773 1.61507 14.4508 2.11508 14.9506C2.6151 15.4505 3.293 15.7315 4 15.732H8.033C8.74 15.7315 9.4179 15.4505 9.91792 14.9506C10.4179 14.4508 10.6992 13.773 10.7 13.066V12.4C10.6965 12.3103 10.7112 12.2208 10.7431 12.1369C10.775 12.053 10.8236 11.9764 10.8858 11.9118C10.9481 11.8471 11.0227 11.7956 11.1053 11.7605C11.1879 11.7253 11.2767 11.7072 11.3665 11.7072C11.4563 11.7072 11.5451 11.7253 11.6277 11.7605C11.7103 11.7956 11.785 11.8471 11.8472 11.9118C11.9094 11.9764 11.958 12.053 11.9899 12.1369C12.0218 12.2208 12.0365 12.3103 12.033 12.4V13.067C12.0325 14.1275 11.6108 15.1444 10.8607 15.8941C10.1106 16.6438 9.09352 17.065 8.033 17.065Z" fill="white"/>
<path d="M14.466 11.7319C14.334 11.7318 14.2051 11.6926 14.0954 11.6193C13.9857 11.5459 13.9003 11.4417 13.8499 11.3198C13.7995 11.1978 13.7863 11.0637 13.8122 10.9343C13.838 10.8049 13.9016 10.6861 13.995 10.5929L15.538 9.05388C15.5995 8.99265 15.6483 8.91987 15.6816 8.83973C15.7149 8.75958 15.732 8.67366 15.732 8.58687C15.732 8.50009 15.7149 8.41416 15.6816 8.33402C15.6483 8.25388 15.5995 8.18111 15.538 8.11988L13.997 6.60688C13.8789 6.48135 13.814 6.31501 13.8159 6.1427C13.8178 5.97039 13.8862 5.80549 14.007 5.68254C14.1277 5.5596 14.2914 5.48816 14.4636 5.48319C14.6359 5.47822 14.8034 5.5401 14.931 5.65587L16.474 7.17087C16.6598 7.35595 16.8073 7.57593 16.9079 7.81815C17.0086 8.06037 17.0604 8.32008 17.0604 8.58237C17.0604 8.84466 17.0086 9.10438 16.9079 9.34661C16.8073 9.58883 16.6598 9.8088 16.474 9.99388L14.931 11.5329C14.8692 11.5948 14.7957 11.6438 14.7149 11.6773C14.6341 11.7108 14.5475 11.728 14.46 11.7279L14.466 11.7319ZM14.433 8.53188C14.433 8.35498 14.3627 8.18532 14.2376 8.06023C14.1125 7.93514 13.9429 7.86487 13.766 7.86487H6.56598C6.39368 7.87155 6.23066 7.94469 6.11111 8.06896C5.99157 8.19322 5.9248 8.35895 5.9248 8.53138C5.9248 8.7038 5.99157 8.86953 6.11111 8.99379C6.23066 9.11806 6.39368 9.1912 6.56598 9.19788H13.766C13.9427 9.19788 14.1122 9.12774 14.2373 9.00287C14.3623 8.878 14.4327 8.70861 14.433 8.53188Z" fill="white"/>
</svg>
