<svg width="12" height="12" viewBox="0 0 12 12" fill="none" xmlns="http://www.w3.org/2000/svg">
<path d="M11.9993 8.53739C11.9979 9.45538 11.6396 10.3354 11.0027 10.9845C10.3659 11.6336 9.50256 11.9989 8.60194 12.0003H3.39752C2.4969 11.9989 1.63355 11.6336 0.996715 10.9845C0.359881 10.3354 0.00151908 9.45538 0.00018072 8.53739V7.87981C-0.00203282 7.77604 0.0161074 7.67286 0.0535366 7.57634C0.0909659 7.47981 0.14693 7.39187 0.218147 7.31768C0.289365 7.2435 0.3744 7.18456 0.468265 7.14431C0.562129 7.10407 0.662933 7.08334 0.764762 7.08334C0.866591 7.08334 0.967395 7.10407 1.06126 7.14431C1.15512 7.18456 1.24016 7.2435 1.31138 7.31768C1.38259 7.39187 1.43856 7.47981 1.47599 7.57634C1.51342 7.67286 1.53156 7.77604 1.52934 7.87981V8.53739C1.52992 9.04234 1.72689 9.52646 2.07709 9.88362C2.42728 10.2408 2.90212 10.4418 3.39752 10.4427H8.60194C9.09752 10.4421 9.57264 10.2412 9.92307 9.88401C10.2735 9.52682 10.4706 9.04253 10.4712 8.53739V7.87981C10.4667 7.77469 10.4831 7.66973 10.5195 7.57126C10.5559 7.47278 10.6115 7.38284 10.6828 7.30683C10.7542 7.23083 10.84 7.17035 10.9349 7.12903C11.0298 7.08771 11.132 7.06641 11.2352 7.06641C11.3385 7.06641 11.4406 7.08771 11.5356 7.12903C11.6305 7.17035 11.7162 7.23083 11.7876 7.30683C11.859 7.38284 11.9146 7.47278 11.951 7.57126C11.9873 7.66973 12.0038 7.77469 11.9993 7.87981V8.53739Z" fill="white"/>
<path d="M3.66972 3.15266C3.81314 3.2988 4.00762 3.38089 4.21041 3.38089C4.41319 3.38089 4.60768 3.2988 4.75109 3.15266L5.23503 2.65975V7.65994C5.23503 7.86668 5.3156 8.06495 5.45902 8.21114C5.60244 8.35733 5.79696 8.43945 5.99979 8.43945C6.20262 8.43945 6.39714 8.35733 6.54056 8.21114C6.68398 8.06495 6.76455 7.86668 6.76455 7.65994V2.65975L7.26186 3.16666C7.40612 3.30855 7.59926 3.38702 7.79972 3.3852C8.00018 3.38338 8.19192 3.3014 8.33367 3.15692C8.47542 3.01243 8.55585 2.81699 8.55763 2.61267C8.55942 2.40834 8.48243 2.21147 8.34323 2.06443L6.54192 0.226524C6.53288 0.217314 6.52349 0.208104 6.51373 0.199263C6.39342 0.0882616 6.24146 0.0193377 6.08003 0.00254154H6.07677L6.0522 0.000699997H6.03955H6.03593H6.0016C5.97883 0.000699997 5.95606 0.000699997 5.93365 0.00401497H5.92751L5.91052 0.00622559L5.89028 0.00880432H5.88341C5.80433 0.0211153 5.72762 0.0459766 5.65608 0.0824823C5.6391 0.0913239 5.62283 0.100533 5.60657 0.110479C5.59211 0.119689 5.57765 0.129268 5.56356 0.139215L5.55741 0.143636C5.54368 0.153583 5.52995 0.164266 5.51657 0.175318L5.51007 0.181212C5.49995 0.190054 5.48947 0.199264 5.47935 0.208841L5.46851 0.219524L5.46128 0.226524L3.67189 2.05043C3.52824 2.19632 3.44731 2.39439 3.4469 2.60109C3.44649 2.80779 3.52664 3.00619 3.66972 3.15266Z" fill="white"/>
</svg>
