<svg width="16" height="12" viewBox="0 0 16 12" fill="none" xmlns="http://www.w3.org/2000/svg">
<path d="M1.88596 4.01221H9.75096C10.1181 4.01352 10.4699 4.15998 10.7296 4.41962C10.9892 4.67926 11.1356 5.03102 11.137 5.39821V10.3792C11.1356 10.7464 10.9892 11.0982 10.7296 11.3578C10.4699 11.6174 10.1181 11.7639 9.75096 11.7652H1.88596C1.51877 11.7639 1.167 11.6174 0.907364 11.3578C0.647723 11.0982 0.501287 10.7464 0.499969 10.3792V5.39821C0.500235 5.0307 0.646337 4.67833 0.906204 4.41846C1.16607 4.15859 1.51845 4.01247 1.88596 4.01221ZM1.24596 10.3982C1.24596 10.5308 1.29864 10.658 1.39241 10.7518C1.48618 10.8455 1.61335 10.8982 1.74596 10.8982H9.76796C9.90057 10.8982 10.0278 10.8455 10.1215 10.7518C10.2153 10.658 10.268 10.5308 10.268 10.3982V6.8932H1.24496L1.24596 10.3982ZM1.24596 5.57321H10.268V5.38321C10.268 5.2506 10.2153 5.12342 10.1215 5.02965C10.0278 4.93588 9.90057 4.88321 9.76796 4.88321H1.74997C1.61736 4.88321 1.49018 4.93588 1.39641 5.02965C1.30264 5.12342 1.24997 5.2506 1.24997 5.38321L1.24596 5.57321Z" fill="#2D2DB2"/>
<path d="M9.85097 3.15705H4.97297L5.96597 1.14705C6.12969 0.81746 6.41752 0.566308 6.76625 0.44875C7.11499 0.331193 7.49612 0.356836 7.82597 0.520051L14.873 4.00305C15.2026 4.16677 15.4537 4.4546 15.5713 4.80334C15.6888 5.15207 15.6632 5.53321 15.5 5.86305L13.29 10.3251C13.1472 10.613 12.909 10.8426 12.616 10.9746C12.323 11.1066 11.9932 11.1329 11.683 11.0491C11.8756 10.7251 11.9768 10.355 11.976 9.97805V5.27805C11.9733 4.71565 11.7485 4.17709 11.3504 3.77978C10.9524 3.38247 10.4134 3.15863 9.85097 3.15705Z" fill="#2D2DB2"/>
<path d="M8.84901 10.361C8.76528 10.2622 8.66103 10.1828 8.54352 10.1284C8.426 10.0739 8.29804 10.0457 8.16852 10.0457C8.039 10.0457 7.91103 10.0739 7.79352 10.1284C7.676 10.1828 7.57176 10.2622 7.48802 10.361C7.24933 10.361 7.02041 10.2662 6.85162 10.0974C6.68284 9.92863 6.58801 9.69972 6.58801 9.46103C6.58801 9.22233 6.68284 8.99343 6.85162 8.82465C7.02041 8.65586 7.24933 8.56104 7.48802 8.56104C7.57176 8.65984 7.676 8.73922 7.79352 8.79367C7.91103 8.84812 8.039 8.87634 8.16852 8.87634C8.29804 8.87634 8.426 8.84812 8.54352 8.79367C8.66103 8.73922 8.76528 8.65984 8.84901 8.56104C9.08771 8.56104 9.31663 8.65586 9.48541 8.82465C9.6542 8.99343 9.74902 9.22233 9.74902 9.46103C9.74902 9.69972 9.6542 9.92863 9.48541 10.0974C9.31663 10.2662 9.08771 10.361 8.84901 10.361Z" fill="#2D2DB2"/>
</svg>
