<svg width="10" height="10" viewBox="0 0 10 10" fill="none" xmlns="http://www.w3.org/2000/svg">
<path d="M4.98047 5.87891C4.17275 5.87891 3.51562 6.53604 3.51562 7.34375C3.51562 8.15146 4.17275 8.80859 4.98047 8.80859C5.78818 8.80859 6.44531 8.15146 6.44531 7.34375C6.44531 6.53604 5.78818 5.87891 4.98047 5.87891ZM4.98047 8.22266C4.49584 8.22266 4.10156 7.82838 4.10156 7.34375C4.10156 6.85912 4.49584 6.46484 4.98047 6.46484C5.4651 6.46484 5.85938 6.85912 5.85938 7.34375C5.85938 7.82838 5.4651 8.22266 4.98047 8.22266Z" fill="#FF508B"/>
<path d="M2.63672 7.63672C2.79852 7.63672 2.92969 7.50555 2.92969 7.34375C2.92969 7.18195 2.79852 7.05078 2.63672 7.05078C2.47492 7.05078 2.34375 7.18195 2.34375 7.34375C2.34375 7.50555 2.47492 7.63672 2.63672 7.63672Z" fill="#FF508B"/>
<path d="M7.36328 7.63672C7.52508 7.63672 7.65625 7.50555 7.65625 7.34375C7.65625 7.18195 7.52508 7.05078 7.36328 7.05078C7.20148 7.05078 7.07031 7.18195 7.07031 7.34375C7.07031 7.50555 7.20148 7.63672 7.36328 7.63672Z" fill="#FF508B"/>
<path d="M7.36328 1.17188C6.73113 1.17188 5.84549 1.24094 5.27344 1.45342V0.878906C5.27344 0.106211 3.40408 0 2.63672 0C1.86936 0 0 0.10582 0 0.878906C0 1.19979 0 9.36656 0 9.70703C0 9.86883 0.131172 10 0.292969 10H9.70703C9.86883 10 10 9.86883 10 9.70703C10 9.56486 10 2.17557 10 2.05078C10 1.27809 8.13064 1.17188 7.36328 1.17188ZM7.36328 1.75781C7.91154 1.75781 8.86498 1.82113 9.32934 2.05078C8.86586 2.27998 7.91709 2.34375 7.36328 2.34375C6.79404 2.34375 5.84104 2.27674 5.36633 2.05078C5.85008 1.82053 6.81713 1.75781 7.36328 1.75781ZM5.27344 4.10156V4.6875H4.6875V4.10156H5.27344ZM2.63672 0.585938C3.18498 0.585938 4.1384 0.649258 4.60277 0.878906C4.1393 1.10811 3.19053 1.17188 2.63672 1.17188C2.08846 1.17188 1.13504 1.10855 0.670664 0.878906C1.13414 0.649707 2.08291 0.585938 2.63672 0.585938ZM0.585938 1.48092C1.15385 1.69221 2.01686 1.75781 2.63672 1.75781C3.25643 1.75781 4.12023 1.69195 4.6875 1.48092V2.00043C4.62939 2.04529 4.45246 2.13662 4.06971 2.2157C3.67018 2.29828 3.16125 2.34375 2.63672 2.34375C1.876 2.34375 0.877832 2.22582 0.585938 2.00043V1.48092ZM0.585938 2.65279C1.15385 2.86408 2.01686 2.92969 2.63672 2.92969C3.25643 2.92969 4.12023 2.86383 4.6875 2.65279V3.1723C4.62939 3.21717 4.45246 3.3085 4.06971 3.38758C3.67018 3.47016 3.16125 3.51562 2.63672 3.51562C1.876 3.51562 0.877832 3.3977 0.585938 3.1723V2.65279ZM0.585938 4.10156H4.10156V4.6875H0.585938V4.10156ZM0.585938 5.27344H1.42889C1.32395 5.69379 0.99873 6.02576 0.585938 6.13418V5.27344ZM0.585938 9.41406V8.55332C0.99873 8.66174 1.32395 8.99371 1.42889 9.41406H0.585938ZM7.97371 9.41406H2.02629C1.90391 8.67471 1.32238 8.08053 0.585938 7.9549V6.7326C1.32172 6.60709 1.90379 6.01354 2.02629 5.27344H7.97369C8.09607 6.01279 8.6776 6.60697 9.41404 6.7326V7.9549C8.67828 8.08041 8.09621 8.67396 7.97371 9.41406ZM9.41406 9.41406H8.57111C8.67605 8.99371 9.00129 8.66174 9.41406 8.55332V9.41406ZM9.41406 6.13418C9.00127 6.02576 8.67603 5.69379 8.57111 5.27344H9.41406V6.13418ZM9.41406 4.6875H5.85938V4.10156H9.41406V4.6875ZM9.41406 3.1723C9.35596 3.21717 9.17902 3.3085 8.79627 3.38758C8.39674 3.47016 7.88781 3.51562 7.36328 3.51562C6.30299 3.51562 5.49414 3.33463 5.27344 3.16936V2.64814C5.84984 2.86223 6.73781 2.92969 7.36328 2.92969C7.98299 2.92969 8.8468 2.86383 9.41406 2.65279V3.1723Z" fill="#FF508B"/>
</svg>
