<svg width="21" height="22" viewBox="0 0 21 22" fill="none" xmlns="http://www.w3.org/2000/svg">
<path d="M10.25 0.75C8.22275 0.75 6.24101 1.35115 4.55541 2.47744C2.86981 3.60372 1.55604 5.20455 0.780239 7.07749C0.00444114 8.95044 -0.198543 11.0114 0.196955 12.9997C0.592454 14.988 1.56867 16.8144 3.00216 18.2478C4.43565 19.6813 6.26202 20.6576 8.25033 21.053C10.2386 21.4485 12.2996 21.2456 14.1725 20.4698C16.0455 19.694 17.6463 18.3802 18.7726 16.6946C19.8989 15.009 20.5 13.0273 20.5 11C20.4971 8.28242 19.4163 5.67699 17.4946 3.75537C15.573 1.83375 12.9676 0.752912 10.25 0.75V0.75ZM10.25 19.662C8.53682 19.662 6.86211 19.154 5.43766 18.2022C4.0132 17.2504 2.90297 15.8976 2.24736 14.3148C1.59175 12.732 1.42022 10.9904 1.75444 9.31013C2.08867 7.62986 2.91364 6.08644 4.12505 4.87504C5.33645 3.66364 6.87987 2.83866 8.56013 2.50444C10.2404 2.17021 11.982 2.34175 13.5648 2.99736C15.1476 3.65296 16.5004 4.76319 17.4522 6.18765C18.404 7.61211 18.912 9.28682 18.912 11C18.9094 13.2965 17.9959 15.4982 16.372 17.122C14.7482 18.7459 12.5465 19.6594 10.25 19.662Z" fill="#FF8F15"/>
<path d="M14.952 7.43493C14.7962 7.29354 14.5906 7.2198 14.3804 7.22992C14.1702 7.24005 13.9726 7.33321 13.831 7.48893L8.98804 12.8219L6.64803 10.4429C6.57566 10.3656 6.48855 10.3035 6.39182 10.2603C6.29509 10.2171 6.1907 10.1938 6.0848 10.1916C5.9789 10.1894 5.87362 10.2084 5.77517 10.2475C5.67672 10.2866 5.58709 10.3449 5.51156 10.4192C5.43602 10.4935 5.37612 10.5821 5.33536 10.6799C5.29461 10.7776 5.27382 10.8826 5.27424 10.9885C5.27465 11.0944 5.29626 11.1992 5.33779 11.2967C5.37932 11.3941 5.43993 11.4823 5.51604 11.5559L8.44503 14.5329C8.5189 14.6081 8.607 14.6677 8.70418 14.7084C8.80136 14.7491 8.90568 14.77 9.01104 14.7699H9.02604C9.13405 14.7678 9.24049 14.7436 9.33884 14.6989C9.4372 14.6542 9.52541 14.5899 9.59804 14.5099L15.006 8.55492C15.1471 8.39911 15.2207 8.19372 15.2105 7.98377C15.2004 7.77382 15.1074 7.57644 14.952 7.43493Z" fill="#FF8F15"/>
</svg>
