<svg width="12" height="12" viewBox="0 0 12 12" fill="none" xmlns="http://www.w3.org/2000/svg">
<rect width="12" height="12" rx="1" fill="#06AD2B"/>
<path d="M2.00002 9.63655C2.00002 9.73294 2.03833 9.82539 2.10653 9.89355C2.17472 9.96171 2.26721 10 2.36366 10C2.4601 10 2.55259 9.96171 2.62079 9.89355C2.68898 9.82539 2.72729 9.73294 2.72729 9.63655C2.72615 9.01481 2.9036 8.40581 3.23854 7.8819C3.57349 7.35798 4.05186 6.94117 4.61683 6.68098C5.02879 6.94963 5.51017 7.09243 6.00206 7.09191C6.49395 7.09139 6.97503 6.94758 7.38642 6.67807C7.73019 6.83856 8.04388 7.05678 8.31384 7.32326C8.61872 7.62629 8.86045 7.98674 9.02504 8.38376C9.18963 8.78078 9.27381 9.20648 9.27272 9.63623C9.27272 9.73262 9.31103 9.82506 9.37922 9.89322C9.44742 9.96138 9.53991 9.99968 9.63635 9.99968C9.7328 9.99968 9.82529 9.96138 9.89348 9.89322C9.96168 9.82506 9.99999 9.73262 9.99999 9.63623C10.0013 9.111 9.8984 8.59072 9.69723 8.10549C9.49605 7.62027 9.20061 7.17973 8.82799 6.80938C8.57098 6.55556 8.28097 6.33746 7.96577 6.16094C8.27209 5.78857 8.46627 5.3369 8.52574 4.85851C8.5852 4.38012 8.50748 3.89469 8.30164 3.45873C8.0958 3.02277 7.7703 2.65421 7.36303 2.39596C6.95576 2.13771 6.48348 2.0004 6.00116 2C5.51885 1.9996 5.04634 2.13614 4.63865 2.39372C4.23095 2.65129 3.90484 3.01931 3.69828 3.45494C3.49172 3.89056 3.41321 4.37586 3.47188 4.85435C3.53055 5.33283 3.724 5.78482 4.02969 6.1577C3.41204 6.50433 2.89823 7.00957 2.5414 7.62118C2.18457 8.23279 1.99767 8.92856 2.00002 9.63655ZM6.00033 2.73072C6.35999 2.73072 6.71158 2.83732 7.01063 3.03703C7.30968 3.23675 7.54277 3.52061 7.6804 3.85273C7.81804 4.18485 7.85405 4.5503 7.78389 4.90287C7.71372 5.25544 7.54052 5.5793 7.2862 5.83349C7.03188 6.08768 6.70785 6.26079 6.3551 6.33092C6.00235 6.40105 5.63671 6.36506 5.30442 6.22749C4.97213 6.08992 4.68812 5.85696 4.4883 5.55807C4.28848 5.25917 4.18183 4.90776 4.18183 4.54828C4.18217 4.06625 4.37384 3.60404 4.71478 3.2631C5.05571 2.92216 5.51805 2.73035 6.00033 2.72974V2.73072Z" fill="white"/>
</svg>
