<svg width="27" height="27" viewBox="0 0 27 27" fill="none" xmlns="http://www.w3.org/2000/svg">
<path d="M12.0655 21.9375H2.53125C2.06612 21.9375 1.6875 21.5593 1.6875 21.0938V8.4375H23.625V12.6727C23.625 13.1391 24.0024 13.5165 24.4688 13.5165C24.9351 13.5165 25.3125 13.1391 25.3125 12.6727V4.21875C25.3125 2.82293 24.1771 1.6875 22.7812 1.6875H18.5625V0.84375C18.5625 0.377384 18.1851 0 17.7188 0C17.2524 0 16.875 0.377384 16.875 0.84375V1.6875H13.5V0.84375C13.5 0.377384 13.1222 0 12.6562 0C12.1903 0 11.8125 0.377384 11.8125 0.84375V1.6875H8.4375V0.84375C8.4375 0.377384 8.05971 0 7.59375 0C7.12779 0 6.75 0.377384 6.75 0.84375V1.6875H2.53125C1.13543 1.6875 0 2.82293 0 4.21875V21.0938C0 22.4896 1.13543 23.625 2.53125 23.625H12.0655C12.5314 23.625 12.9092 23.2476 12.9092 22.7812C12.9092 22.3149 12.5314 21.9375 12.0655 21.9375ZM2.53125 3.375H6.75V4.21875C6.75 4.68512 7.12779 5.0625 7.59375 5.0625C8.05971 5.0625 8.4375 4.68512 8.4375 4.21875V3.375H11.8125V4.21875C11.8125 4.68512 12.1903 5.0625 12.6562 5.0625C13.1222 5.0625 13.5 4.68512 13.5 4.21875V3.375H16.875V4.21875C16.875 4.68512 17.2524 5.0625 17.7188 5.0625C18.1851 5.0625 18.5625 4.68512 18.5625 4.21875V3.375H22.7812C23.2468 3.375 23.625 3.7532 23.625 4.21875V6.75H1.6875V4.21875C1.6875 3.7532 2.06612 3.375 2.53125 3.375Z" fill="#2D2DB2"/>
<path d="M20.6719 14.3438C17.1823 14.3438 14.3438 17.1823 14.3438 20.6719C14.3438 24.1614 17.1823 27 20.6719 27C24.1614 27 27 24.1614 27 20.6719C27 17.1823 24.1614 14.3438 20.6719 14.3438ZM20.6719 25.3125C18.1134 25.3125 16.0312 23.2303 16.0312 20.6719C16.0312 18.1134 18.1134 16.0312 20.6719 16.0312C23.2303 16.0312 25.3125 18.1134 25.3125 20.6719C25.3125 23.2303 23.2303 25.3125 20.6719 25.3125Z" fill="#2D2DB2"/>
<path d="M23.7997 18.8097C23.4701 18.4801 22.9361 18.4801 22.6066 18.8097L19.8281 21.5881C19.8281 21.5881 18.7396 20.4996 18.7372 20.4972C17.9706 19.7307 16.7716 20.9179 17.5441 21.6903L19.2316 23.3778C19.5571 23.7033 20.0998 23.7026 20.4247 23.3778L23.7997 20.0028C24.1293 19.6732 24.1293 19.1393 23.7997 18.8097Z" fill="#2D2DB2"/>
<path d="M4.21875 10.125C3.75279 10.125 3.375 10.5024 3.375 10.9688C3.375 11.4351 3.75279 11.8125 4.21875 11.8125H9.28125C9.74721 11.8125 10.125 11.4351 10.125 10.9688C10.125 10.5024 9.74721 10.125 9.28125 10.125H4.21875Z" fill="#2D2DB2"/>
</svg>
