<svg width="53" height="53" viewBox="0 0 53 53" fill="none" xmlns="http://www.w3.org/2000/svg">
<path d="M26.5 53C41.1355 53 53 41.1355 53 26.5C53 11.8645 41.1355 0 26.5 0C11.8645 0 0 11.8645 0 26.5C0 41.1355 11.8645 53 26.5 53Z" fill="#FF8F15"/>
<path d="M32.9315 8C33.4776 8.1417 34.044 8.24291 34.5698 8.42509C37.1588 9.35625 38.9184 11.8258 38.9791 14.5788C38.9791 14.9837 38.7971 15.2468 38.4735 15.2671C38.1296 15.2873 37.9071 15.0646 37.8869 14.6193C37.806 12.757 37.0172 11.259 35.5205 10.1457C34.5092 9.41698 33.3765 9.0931 32.1225 9.0931C28.3807 9.0931 24.6591 9.0931 20.9173 9.0931C20.6341 9.0931 20.351 9.0931 20.0678 9.15382C17.1553 9.59916 15.1529 11.8461 15.1327 14.7813C15.1124 19.7812 15.1327 24.8013 15.1327 29.8012C15.1327 32.534 16.2855 34.7809 18.2475 36.623C18.7127 37.0683 19.2183 37.4327 19.724 37.8577C19.7644 37.8577 19.7846 37.8375 19.8251 37.8173C19.8251 37.6958 19.8251 37.5541 19.8251 37.4327C19.8251 36.2181 19.8251 35.0238 19.8251 33.8092C19.8251 32.8983 20.2094 32.5137 21.1398 32.5137C24.7198 32.5137 28.32 32.5137 31.9 32.5137C32.8304 32.5137 33.2147 32.8983 33.2147 33.8092C33.2147 35.0035 33.2147 36.1979 33.2147 37.3922C33.2147 37.5339 33.2147 37.6553 33.2147 37.878C33.4979 37.6756 33.7204 37.5339 33.9428 37.3517C35.743 35.9145 37.1183 34.1534 37.6442 31.8457C37.806 31.0967 37.8869 30.3073 37.9071 29.5381C37.9274 25.5908 37.9071 21.6232 37.9071 17.6759C37.9071 17.1091 38.0689 16.8257 38.433 16.8257C38.8173 16.8257 38.9993 17.0889 38.9993 17.6759C38.9993 21.5423 38.9791 25.4086 38.9993 29.2952C39.0398 33.3437 37.2194 36.38 34.0035 38.6674C32.7293 39.5784 31.3135 40.1856 29.7763 40.55C29.4729 40.6107 29.4122 40.7524 29.4122 41.0156C29.4122 42.2706 29.4122 43.5257 29.4122 44.7807C29.4122 45.6106 29.129 45.894 28.2998 45.894C27.066 45.894 25.8322 45.894 24.5984 45.894C23.8703 45.894 23.5669 45.5904 23.5669 44.8617C23.5669 43.5864 23.5669 42.2909 23.5669 41.0156C23.5669 40.7322 23.486 40.6107 23.2028 40.55C19.906 39.7201 17.2968 37.8982 15.4765 35.0035C14.445 33.3841 14 31.5826 14 29.6595C14 24.7406 14 19.8216 14 14.9027C14 11.1781 16.7103 8.44534 19.8858 8.08097C19.9464 8.08097 20.0071 8.04049 20.0476 8.02024C24.3355 8.02024 28.6234 8.02024 32.9113 8.02024L32.9315 8ZM24.6996 44.7605H28.2796V39.3355H24.6996V44.7605ZM20.9173 33.6271C20.9173 33.789 20.9173 33.9307 20.9173 34.0724C20.9173 35.3882 20.9173 36.7039 20.9173 38.0197C20.9173 38.4245 21.0386 38.6472 21.4027 38.7889C22.1106 39.0318 22.7983 39.295 23.5467 39.5581V33.6473H20.9173V33.6271ZM29.4527 39.5581C30.2617 39.2545 31.0101 38.9711 31.7584 38.6877C32.0011 38.6067 32.082 38.465 32.082 38.2019C32.082 36.7849 32.082 35.3679 32.082 33.9509C32.082 33.8497 32.082 33.7485 32.0618 33.6271H29.4527V39.5581ZM28.2998 38.2019V35.9954H24.7198V38.2019H28.2998ZM24.7198 34.8416H28.32V33.6271H24.7198V34.8416Z" fill="white"/>
<path d="M26.4792 25.6518C23.87 25.6518 21.2609 25.6518 18.6517 25.6518C17.6404 25.6518 17.2561 25.2672 17.2561 24.2753C17.2561 21.4414 17.2561 18.6074 17.2561 15.7735C17.2561 14.7816 17.6404 14.397 18.6517 14.397C23.8902 14.397 29.1288 14.397 34.3673 14.397C35.3382 14.397 35.7427 14.7816 35.7427 15.7735C35.7427 18.6277 35.7427 21.4616 35.7427 24.3158C35.7427 25.2875 35.3584 25.6721 34.3673 25.6721C31.7379 25.6721 29.1288 25.6721 26.4994 25.6721L26.4792 25.6518ZM34.5898 24.5182V15.5103H18.409V24.5182H34.5898Z" fill="white"/>
<path d="M28.6844 27.1699C30.7474 27.1699 32.7902 27.1699 34.8533 27.1699C34.9746 27.1699 35.096 27.1699 35.2174 27.1699C35.5208 27.2104 35.6826 27.3926 35.7028 27.676C35.7028 27.9594 35.5612 28.1618 35.2578 28.2428C35.1365 28.263 35.0151 28.263 34.8937 28.263C30.7474 28.263 26.6011 28.263 22.4345 28.263C22.3132 28.263 22.1918 28.263 22.0705 28.2428C21.7873 28.182 21.6255 27.9796 21.6255 27.676C21.6255 27.3926 21.8075 27.2104 22.1109 27.1699C22.2323 27.1699 22.3536 27.1699 22.475 27.1699C24.538 27.1699 26.5809 27.1699 28.6439 27.1699H28.6844Z" fill="white"/>
<path d="M18.6924 27.1699C18.9554 27.1699 19.2385 27.1699 19.5015 27.1699C19.8655 27.1699 20.1285 27.4128 20.1285 27.7165C20.1285 28.0201 19.906 28.263 19.5621 28.263C18.9958 28.263 18.4295 28.263 17.8632 28.263C17.5193 28.263 17.2766 28.0201 17.2766 27.7165C17.2766 27.4128 17.5193 27.1699 17.8834 27.1699C18.1463 27.1699 18.4295 27.1699 18.6924 27.1699Z" fill="white"/>
</svg>
