<svg width="12" height="12" viewBox="0 0 12 12" fill="none" xmlns="http://www.w3.org/2000/svg">
<path d="M1.99999 3C1.99999 2.40666 2.17594 1.82664 2.50559 1.33329C2.83523 0.839943 3.30377 0.455426 3.85195 0.228363C4.40012 0.00129986 5.00332 -0.0581102 5.58527 0.0576455C6.16721 0.173401 6.70175 0.459123 7.12131 0.878681C7.54087 1.29824 7.8266 1.83279 7.94235 2.41473C8.05811 2.99667 7.9987 3.59987 7.77164 4.14805C7.54458 4.69623 7.16005 5.16477 6.6667 5.49441C6.17336 5.82405 5.59333 6 4.99999 6C4.20434 6 3.44129 5.68393 2.87868 5.12132C2.31607 4.55871 1.99999 3.79565 1.99999 3ZM6.99999 3C6.99999 2.60444 6.8827 2.21776 6.66294 1.88886C6.44317 1.55996 6.13082 1.30362 5.76537 1.15224C5.39991 1.00087 4.99778 0.96126 4.60982 1.03843C4.22186 1.1156 3.86549 1.30608 3.58579 1.58579C3.30608 1.86549 3.11559 2.22186 3.03842 2.60982C2.96125 2.99778 3.00086 3.39992 3.15224 3.76537C3.30361 4.13082 3.55996 4.44318 3.88886 4.66294C4.21776 4.8827 4.60442 5 4.99999 5C5.53042 5 6.03913 4.78929 6.4142 4.41422C6.78927 4.03914 6.99999 3.53043 6.99999 3Z" fill="#2D2DB2"/>
<path d="M3.5 7H6.5C7.42826 7 8.3185 7.36877 8.97488 8.02515C9.63125 8.68152 10 9.57174 10 10.5V11.5C10 11.6326 9.94732 11.7598 9.85355 11.8535C9.75979 11.9473 9.63261 12 9.5 12C9.36739 12 9.24021 11.9473 9.14645 11.8535C9.05268 11.7598 9 11.6326 9 11.5V10.5C9 9.83696 8.73661 9.20108 8.26777 8.73224C7.79893 8.2634 7.16304 8 6.5 8H3.5C2.83696 8 2.20107 8.2634 1.73223 8.73224C1.26339 9.20108 1 9.83696 1 10.5V11.5C1 11.6326 0.947322 11.7598 0.853554 11.8535C0.759786 11.9473 0.632608 12 0.5 12C0.367392 12 0.240214 11.9473 0.146446 11.8535C0.0526781 11.7598 0 11.6326 0 11.5V10.5C0 9.57174 0.368746 8.68152 1.02512 8.02515C1.6815 7.36877 2.57174 7 3.5 7Z" fill="#2D2DB2"/>
<path d="M10 3.5C10.1326 3.5 10.2598 3.55269 10.3536 3.64645C10.4473 3.74022 10.5 3.86739 10.5 4V5H11.5C11.6326 5 11.7598 5.05269 11.8536 5.14645C11.9473 5.24022 12 5.36739 12 5.5C12 5.63261 11.9473 5.75979 11.8536 5.85356C11.7598 5.94733 11.6326 6 11.5 6H10.5V7C10.5 7.13261 10.4473 7.25979 10.3536 7.35356C10.2598 7.44733 10.1326 7.5 10 7.5C9.86739 7.5 9.74021 7.44733 9.64645 7.35356C9.55268 7.25979 9.5 7.13261 9.5 7V6H8.5C8.36739 6 8.24021 5.94733 8.14645 5.85356C8.05268 5.75979 8 5.63261 8 5.5C8 5.36739 8.05268 5.24022 8.14645 5.14645C8.24021 5.05269 8.36739 5 8.5 5H9.5V4C9.5 3.86739 9.55268 3.74022 9.64645 3.64645C9.74021 3.55269 9.86739 3.5 10 3.5Z" fill="#2D2DB2"/>
</svg>
