<svg width="14" height="18" viewBox="0 0 14 18" fill="none" xmlns="http://www.w3.org/2000/svg">
<path d="M4.8151 15.8577L4.81456 15.8582C4.38146 16.2391 3.80504 16.4602 3.17589 16.4277C1.9959 16.3664 1.05884 15.4251 1.0029 14.2446C0.95229 13.177 1.63045 12.2602 2.58297 11.9491C2.68152 11.9166 2.75717 11.8367 2.78594 11.7365L5.40429 2.61035C5.86404 1.00684 8.13612 1.00684 8.59586 2.61035L11.2137 11.7365C11.2424 11.8367 11.3181 11.9166 11.4172 11.9491C12.3692 12.2602 13.0479 13.177 12.9973 14.2446C12.9413 15.4251 12.0037 16.3664 10.8237 16.4277C10.1951 16.4602 9.61816 16.2391 9.18559 15.8582L9.18452 15.8577" stroke="white" stroke-miterlimit="10" stroke-linecap="round" stroke-linejoin="round"/>
<path d="M4.28613 15.2754C4.34569 15.3508 4.40722 15.4236 4.47269 15.4938C5.10387 16.1699 6.00242 16.5927 6.99947 16.5927C8.03163 16.5927 8.95725 16.1402 9.59108 15.423C9.63344 15.3753 9.67376 15.3257 9.71281 15.2754" stroke="white" stroke-miterlimit="10" stroke-linecap="round" stroke-linejoin="round"/>
</svg>
