<svg width="56" height="52" viewBox="0 0 56 52" fill="none" xmlns="http://www.w3.org/2000/svg">
<g filter="url(#filter0_d_1031_2112)">
<path d="M6 4H44C46.8284 4 48.2426 4 49.1213 4.87868C50 5.75736 50 7.17157 50 10V38C50 40.8284 50 42.2426 49.1213 43.1213C48.2426 44 46.8284 44 44 44H6V4Z" fill="#2D2DB2"/>
</g>
<path d="M34.3959 15.7105H33.5997V14.8621C33.6029 14.7502 33.5847 14.6386 33.5462 14.5342C33.5076 14.4298 33.4495 14.3345 33.3753 14.2541C33.3011 14.1737 33.2123 14.1098 33.1141 14.0661C33.016 14.0225 32.9105 14 32.8039 14C32.6974 14 32.5919 14.0225 32.4937 14.0661C32.3956 14.1098 32.3068 14.1737 32.2326 14.2541C32.1584 14.3345 32.1003 14.4298 32.0617 14.5342C32.0232 14.6386 32.0049 14.7502 32.0081 14.8621V15.7105H24.367V14.8621C24.3703 14.7502 24.352 14.6386 24.3135 14.5342C24.2749 14.4298 24.2168 14.3345 24.1426 14.2541C24.0684 14.1737 23.9796 14.1098 23.8815 14.0661C23.7833 14.0225 23.6778 14 23.5713 14C23.4647 14 23.3592 14.0225 23.2611 14.0661C23.1629 14.1098 23.0741 14.1737 22.9999 14.2541C22.9257 14.3345 22.8676 14.4298 22.829 14.5342C22.7905 14.6386 22.7723 14.7502 22.7755 14.8621V15.7105H21.9793C20.9169 15.7197 19.9014 16.1715 19.1554 16.9668C18.4094 17.7621 17.9939 18.836 18.0001 19.9529V30.1328C17.9939 31.2497 18.4094 32.3236 19.1554 33.1189C19.9014 33.9142 20.9169 34.366 21.9793 34.3752H34.3959C35.4583 34.366 36.4738 33.9142 37.2198 33.1189C37.9658 32.3236 38.3813 31.2497 38.3751 30.1328V19.9529C38.3813 18.836 37.9658 17.7621 37.2198 16.9668C36.4738 16.1715 35.4583 15.7197 34.3959 15.7105ZM36.7836 30.1328C36.7872 30.8029 36.5379 31.4472 36.0902 31.9243C35.6426 32.4014 35.0333 32.6724 34.3959 32.6778H21.9793C21.3419 32.6724 20.7326 32.4014 20.2849 31.9243C19.8373 31.4472 19.588 30.8029 19.5916 30.1328V19.9529C19.588 19.2827 19.8373 18.6385 20.2849 18.1614C20.7326 17.6843 21.3419 17.4133 21.9793 17.4079H34.3959C35.0333 17.4133 35.6426 17.6843 36.0902 18.1614C36.5379 18.6385 36.7872 19.2827 36.7836 19.9529V30.1328Z" fill="white"/>
<path d="M29.0238 22.537H27.3509C27.129 22.537 26.9163 22.4444 26.7594 22.2795C26.6025 22.1146 26.5144 21.8909 26.5144 21.6577C26.5144 21.4245 26.6025 21.2008 26.7594 21.0359C26.9163 20.871 27.129 20.7783 27.3509 20.7783H29.0238C29.2456 20.7783 29.4584 20.871 29.6152 21.0359C29.7721 21.2008 29.8602 21.4245 29.8602 21.6577C29.8602 21.8909 29.7721 22.1146 29.6152 22.2795C29.4584 22.4444 29.2456 22.537 29.0238 22.537Z" fill="white"/>
<path d="M34.7113 22.3837H33.0384C32.8165 22.3837 32.6038 22.2911 32.4469 22.1262C32.29 21.9612 32.2019 21.7376 32.2019 21.5044C32.2019 21.2711 32.29 21.0475 32.4469 20.8826C32.6038 20.7177 32.8165 20.625 33.0384 20.625H34.7113C34.9331 20.625 35.1459 20.7177 35.3027 20.8826C35.4596 21.0475 35.5477 21.2711 35.5477 21.5044C35.5477 21.7376 35.4596 21.9612 35.3027 22.1262C35.1459 22.2911 34.9331 22.3837 34.7113 22.3837Z" fill="white"/>
<path d="M23.337 25.9003H21.6648C21.443 25.9003 21.2302 25.8077 21.0734 25.6428C20.9165 25.4779 20.8284 25.2542 20.8284 25.0209C20.8284 24.7877 20.9165 24.5641 21.0734 24.3992C21.2302 24.2342 21.443 24.1416 21.6648 24.1416H23.3377C23.5596 24.1416 23.7723 24.2342 23.9292 24.3992C24.0861 24.5641 24.1742 24.7877 24.1742 25.0209C24.1742 25.2542 24.0861 25.4779 23.9292 25.6428C23.7723 25.8077 23.5596 25.9003 23.3377 25.9003H23.337Z" fill="white"/>
<path d="M29.0238 25.9003H27.3509C27.129 25.9003 26.9163 25.8077 26.7594 25.6428C26.6025 25.4779 26.5144 25.2542 26.5144 25.0209C26.5144 24.7877 26.6025 24.5641 26.7594 24.3992C26.9163 24.2342 27.129 24.1416 27.3509 24.1416H29.0238C29.2456 24.1416 29.4584 24.2342 29.6152 24.3992C29.7721 24.5641 29.8602 24.7877 29.8602 25.0209C29.8602 25.2542 29.7721 25.4779 29.6152 25.6428C29.4584 25.8077 29.2456 25.9003 29.0238 25.9003Z" fill="white"/>
<path d="M34.7113 25.9003H33.0384C32.8165 25.9003 32.6038 25.8077 32.4469 25.6428C32.29 25.4779 32.2019 25.2542 32.2019 25.0209C32.2019 24.7877 32.29 24.5641 32.4469 24.3992C32.6038 24.2342 32.8165 24.1416 33.0384 24.1416H34.7113C34.9331 24.1416 35.1459 24.2342 35.3027 24.3992C35.4596 24.5641 35.5477 24.7877 35.5477 25.0209C35.5477 25.2542 35.4596 25.4779 35.3027 25.6428C35.1459 25.8077 34.9331 25.9003 34.7113 25.9003Z" fill="white"/>
<path d="M23.337 29.4189H21.6648C21.443 29.4189 21.2302 29.3262 21.0734 29.1613C20.9165 28.9964 20.8284 28.7727 20.8284 28.5395C20.8284 28.3063 20.9165 28.0826 21.0734 27.9177C21.2302 27.7528 21.443 27.6602 21.6648 27.6602H23.3377C23.5596 27.6602 23.7723 27.7528 23.9292 27.9177C24.0861 28.0826 24.1742 28.3063 24.1742 28.5395C24.1742 28.7727 24.0861 28.9964 23.9292 29.1613C23.7723 29.3262 23.5596 29.4189 23.3377 29.4189H23.337Z" fill="white"/>
<path d="M29.0238 29.4189H27.3509C27.129 29.4189 26.9163 29.3262 26.7594 29.1613C26.6025 28.9964 26.5144 28.7727 26.5144 28.5395C26.5144 28.3063 26.6025 28.0826 26.7594 27.9177C26.9163 27.7528 27.129 27.6602 27.3509 27.6602H29.0238C29.2456 27.6602 29.4584 27.7528 29.6152 27.9177C29.7721 28.0826 29.8602 28.3063 29.8602 28.5395C29.8602 28.7727 29.7721 28.9964 29.6152 29.1613C29.4584 29.3262 29.2456 29.4189 29.0238 29.4189Z" fill="white"/>
<defs>
<filter id="filter0_d_1031_2112" x="0" y="0" width="56" height="52" filterUnits="userSpaceOnUse" color-interpolation-filters="sRGB">
<feFlood flood-opacity="0" result="BackgroundImageFix"/>
<feColorMatrix in="SourceAlpha" type="matrix" values="0 0 0 0 0 0 0 0 0 0 0 0 0 0 0 0 0 0 127 0" result="hardAlpha"/>
<feOffset dy="2"/>
<feGaussianBlur stdDeviation="3"/>
<feComposite in2="hardAlpha" operator="out"/>
<feColorMatrix type="matrix" values="0 0 0 0 0.176471 0 0 0 0 0.176471 0 0 0 0 0.698039 0 0 0 0.1 0"/>
<feBlend mode="normal" in2="BackgroundImageFix" result="effect1_dropShadow_1031_2112"/>
<feBlend mode="normal" in="SourceGraphic" in2="effect1_dropShadow_1031_2112" result="shape"/>
</filter>
</defs>
</svg>
