<svg width="64" height="64" viewBox="0 0 64 64" fill="none" xmlns="http://www.w3.org/2000/svg">
<circle cx="32" cy="32" r="32" fill="#2D2DB2"/>
<path d="M48.8634 39.6268L48.8036 39.2935C48.9608 39.0689 49.0852 38.8238 49.1753 38.5649C49.4298 37.833 49.4036 37.0317 49.0999 36.3187C48.3288 34.4179 47.1869 33.637 45.3926 33.789C45.3778 33.7898 45.3631 33.7922 45.3484 33.7955C42.2222 34.391 42.1952 36.8602 42.3286 37.8935C42.363 38.1671 42.2656 38.4416 42.0667 38.6335L41.925 38.7699C41.8399 38.8533 41.7106 38.8753 41.6025 38.8247C40.7856 38.4293 39.9989 38.5306 39.4431 39.1024C39.0535 39.5198 38.848 40.0752 38.8717 40.6445C38.8619 41.5724 39.4284 42.4097 40.2944 42.7478C40.5138 42.832 40.7463 42.8761 40.9804 42.8769C41.3586 42.8736 41.7269 42.7577 42.0388 42.5445C42.8476 42.0094 43.0105 41.3756 43.0039 40.9378C42.9998 40.8144 43.0735 40.7017 43.1889 40.656L43.3289 40.6012C43.5516 40.5147 43.7996 40.5228 44.0165 40.6233C44.6059 40.9002 45.3181 40.9606 46.1244 40.7965C46.4756 41.2612 47.0568 41.4916 47.6314 41.3952C48.4574 41.24 49.005 40.4526 48.8634 39.626V39.6268ZM46.8087 40.2721C46.6123 40.0164 46.2865 39.8939 45.9697 39.9576C45.3369 40.0801 44.8032 40.0417 44.3833 39.8441C43.9527 39.6431 43.4583 39.6268 43.0146 39.7991L42.8746 39.8539C42.426 40.0319 42.1338 40.4681 42.1412 40.95C42.1461 41.2792 41.9562 41.5651 41.5616 41.8265C41.2816 42.0274 40.9174 42.0715 40.5981 41.9416C40.0693 41.7236 39.728 41.2057 39.7345 40.6356C39.7124 40.2925 39.8311 39.9551 40.0628 39.7011C40.2134 39.5377 40.4262 39.4454 40.6489 39.4471C40.8502 39.4536 41.0467 39.5059 41.2252 39.599C41.659 39.8057 42.1764 39.7223 42.5226 39.3899L42.6642 39.2535C43.0596 38.8729 43.252 38.328 43.1832 37.7832C43.0285 36.5849 43.3044 35.0706 45.4867 34.645C46.6524 34.5511 47.5766 34.8598 48.2985 36.6413C48.522 37.1632 48.5425 37.7489 48.3575 38.2847C48.2928 38.4718 48.202 38.649 48.0882 38.81C47.9621 38.9929 47.913 39.2184 47.9523 39.4373L48.0129 39.7763C48.0783 40.1373 47.8377 40.4828 47.4759 40.5482C47.4742 40.5482 47.4726 40.5482 47.471 40.549C47.2147 40.5874 46.9593 40.4804 46.8063 40.2712L46.8087 40.2721Z" fill="white" stroke="white" stroke-width="0.25"/>
<path d="M51.8503 30.1104C51.6571 29.5688 50.9662 28.5674 49.7343 28.6548C48.6881 28.7283 48.1708 29.2788 47.9219 29.7281C47.4864 30.5269 47.5814 31.5104 48.1626 32.2112C48.206 32.2602 48.2232 32.3272 48.2092 32.3909L48.2011 32.422C48.0824 32.8769 48.3132 33.3507 48.7462 33.5377L48.8854 33.5974C49.0025 33.6472 49.1285 33.6733 49.2562 33.6725C49.5427 33.6725 49.8137 33.5459 49.9962 33.3254L50.2508 33.015C50.2737 32.9864 50.304 32.966 50.3384 32.9545C50.7248 32.8377 51.4271 32.5388 51.7865 31.8526C52.0451 31.3585 52.0689 30.7769 51.8569 30.1218C51.8544 30.1177 51.8528 30.1136 51.8519 30.1095L51.8503 30.1104ZM51.0194 31.454C50.7976 31.8771 50.2925 32.0691 50.0854 32.1312C49.8873 32.1916 49.7122 32.3092 49.5812 32.4693L49.4535 32.6245C49.3798 32.7136 49.2529 32.7356 49.1531 32.6768C49.0859 32.6376 49.0434 32.5665 49.0393 32.4889C49.0303 32.2823 49.1367 32.0389 48.833 31.6697C48.4712 31.2416 48.409 30.6364 48.6758 30.1447C48.8911 29.7567 49.257 29.55 49.794 29.5124C49.8227 29.51 49.8513 29.5092 49.8792 29.5092C50.6732 29.5092 51.0039 30.3129 51.0358 30.3946C51.1709 30.8177 51.1652 31.173 51.0186 31.4532L51.0194 31.454Z" fill="white" stroke="white" stroke-width="0.25"/>
<path d="M45.2165 29.6241C44.971 29.4272 44.673 29.3063 44.3595 29.2745C43.3796 29.1683 42.6634 29.6412 42.4415 30.5365C42.3081 31.0012 42.3728 31.5003 42.62 31.9169C42.9171 32.389 43.4386 32.6741 43.9977 32.6684C44.3071 32.6676 44.61 32.5851 44.8777 32.4299C45.3017 32.1954 45.6185 31.8075 45.7642 31.3468C45.9713 30.7145 45.7511 30.0211 45.2165 29.6241ZM44.939 31.0927C44.8588 31.3468 44.682 31.56 44.4463 31.6841C44.0812 31.9169 43.5974 31.8189 43.3526 31.4619C43.2282 31.243 43.2012 30.9825 43.279 30.7431C43.3223 30.5667 43.4337 30.1199 44.0885 30.1199C44.1483 30.1199 44.2072 30.1232 44.267 30.1297C44.4152 30.1436 44.5559 30.1999 44.673 30.2914C45.0848 30.6247 44.9759 30.9759 44.9399 31.0919L44.939 31.0927Z" fill="white" stroke="white" stroke-width="0.25"/>
<path d="M50.3391 42.3807C50.0935 42.1839 49.7956 42.0622 49.482 42.0311C48.5022 41.9258 47.7859 42.3979 47.5641 43.2931C47.4307 43.7579 47.4953 44.257 47.7426 44.6736C48.0397 45.1465 48.5611 45.4307 49.1202 45.425C49.4297 45.4242 49.7325 45.3417 50.0002 45.1865C50.4242 44.9521 50.741 44.5641 50.8867 44.1034C51.0938 43.4712 50.8736 42.7785 50.3391 42.3807ZM50.0616 43.8494C49.9814 44.1034 49.8046 44.3166 49.5688 44.4408C49.2037 44.6736 48.7191 44.5755 48.4752 44.2186C48.3508 43.9997 48.3238 43.7391 48.4015 43.4998C48.4449 43.3233 48.5562 42.8765 49.2111 42.8765C49.2709 42.8765 49.3298 42.8798 49.3895 42.8864C49.5377 42.9002 49.6785 42.9566 49.7947 43.0481C50.2057 43.3805 50.0976 43.7326 50.0616 43.8477V43.8494Z" fill="white" stroke="white" stroke-width="0.25"/>
<path d="M46.9699 36.8688C46.5467 36.5984 46.0064 36.5886 45.5734 36.8451C45.205 37.0673 44.9259 37.4112 44.7843 37.8171C44.5944 38.3088 44.7 38.6535 44.8228 38.8561C45.0364 39.209 45.4604 39.4254 46.0858 39.499C46.1399 39.5055 46.1947 39.5088 46.2496 39.5088C46.8831 39.5112 47.4332 39.0742 47.5724 38.4575C47.5937 38.3619 47.6084 38.2639 47.6166 38.1659C47.66 37.6472 47.4103 37.1473 46.9699 36.8688ZM46.7563 38.0989C46.7514 38.1561 46.7432 38.2125 46.7309 38.2688C46.6703 38.513 46.437 38.674 46.1865 38.6446C45.801 38.5988 45.6086 38.491 45.5611 38.4118C45.5177 38.3399 45.5603 38.2018 45.589 38.1267C45.6618 37.9053 45.8083 37.7167 46.0048 37.5909C46.0793 37.5459 46.1644 37.5222 46.2512 37.5214C46.3429 37.5222 46.4321 37.5484 46.5099 37.5974C46.6801 37.7052 46.7751 37.8988 46.7554 38.0989H46.7563Z" fill="white" stroke="white" stroke-width="0.25"/>
<path d="M35.1333 17.3036V15.5818C35.1309 13.6042 33.5256 12.0025 31.5438 12H30.8644C28.8826 12.0025 27.2774 13.6042 27.2749 15.5818V17.3036C27.2733 18.528 27.9003 19.6683 28.9366 20.325C28.9366 20.325 28.813 21.5462 28.8024 21.5838C28.7394 21.8133 28.8744 22.0502 29.1036 22.1131C29.3336 22.1759 29.571 22.0412 29.6341 21.8125C29.6578 21.7275 29.6734 21.6409 29.6824 21.5535L29.8223 20.1347C29.8395 19.9607 29.7495 19.7933 29.594 19.7116C28.6976 19.2419 28.1361 18.3148 28.1369 17.3044V15.5826C28.1385 14.0804 29.3582 12.8634 30.8636 12.8617H31.543C33.0484 12.8634 34.2681 14.0804 34.2697 15.5826V17.3044C34.2705 18.3148 33.7098 19.2427 32.8126 19.7124C32.6579 19.7941 32.5671 19.9615 32.5842 20.1355L32.725 21.5543C32.7987 22.2854 33.3783 22.8645 34.1109 22.938C38.2333 23.344 42.6479 24.0563 44.9121 24.4451C45.3329 24.5178 45.6145 24.9172 45.5408 25.337C45.5359 25.3656 45.5293 25.3934 45.5212 25.4212L45.5048 25.4767C45.1798 26.5778 44.1066 27.286 42.9639 27.152L36.2605 26.3638C36.0239 26.336 35.8095 26.5051 35.7816 26.7412C35.78 26.7575 35.7784 26.773 35.7784 26.7893L35.7628 29.8745C35.7612 30.1122 35.9535 30.3058 36.1917 30.3074H36.1942C36.4316 30.3074 36.6248 30.1163 36.6256 29.8794L36.6379 27.2762L42.8616 28.008C44.421 28.191 45.8854 27.2272 46.3299 25.7242L46.3479 25.6646C46.6017 24.7996 46.1056 23.8929 45.2387 23.6397C45.179 23.6225 45.1184 23.6078 45.057 23.5972C42.7814 23.2068 38.3438 22.4912 34.1944 22.082C33.8702 22.0493 33.614 21.7945 33.5813 21.471L33.4683 20.3275C34.5046 19.6716 35.1317 18.5313 35.1309 17.3061L35.1333 17.3036Z" fill="white" stroke="white" stroke-width="0.25"/>
<path d="M20.3758 32.6316C20.3758 32.3939 20.1827 32.2012 19.9444 32.2012C19.7062 32.2012 19.5131 32.3939 19.5131 32.6316C19.5131 32.8922 19.4844 33.152 19.4271 33.4068H14.189C14.1309 33.1528 14.1022 32.8922 14.103 32.6316C14.103 32.3939 13.9098 32.2012 13.6716 32.2012C13.4334 32.2012 13.2402 32.3939 13.2402 32.6316C13.2402 34.8052 14.7071 35.9291 15.732 36.4486C14.7071 36.9722 13.2402 38.1043 13.2402 40.295C13.2402 42.4858 14.649 43.5721 15.6706 44.1088C14.649 44.6422 13.2402 45.7628 13.2402 47.8931C13.2402 48.1308 13.4334 48.3236 13.6716 48.3236C13.9098 48.3236 14.103 48.1308 14.103 47.8931C14.103 47.6325 14.1317 47.3728 14.189 47.1179H18.1436C18.3818 47.1179 18.575 46.9252 18.575 46.6875C18.575 46.4498 18.3818 46.257 18.1436 46.257H14.5254C15.1885 45.1167 16.4352 44.6683 16.8068 44.5572C17.3045 44.7108 19.5131 45.5243 19.5131 47.8931C19.5131 48.1308 19.7062 48.3236 19.9444 48.3236C20.1827 48.3236 20.3758 48.1308 20.3758 47.8931C20.3758 44.5923 16.9959 43.7134 16.9116 43.6922H16.9099C16.8019 43.6652 14.3977 43.0379 14.1276 40.7255H19.4877C19.4541 41.0285 19.3772 41.3242 19.2601 41.6052H15.9743C15.7361 41.6052 15.5429 41.798 15.5429 42.0357C15.5429 42.2734 15.7361 42.4662 15.9743 42.4662H18.7117C18.5668 42.6287 18.4071 42.7782 18.2352 42.913C18.0461 43.0575 18.0101 43.3279 18.1542 43.5166C18.2991 43.7053 18.57 43.7412 18.7591 43.5974C18.7624 43.595 18.7657 43.5925 18.769 43.5901C19.7987 42.8092 20.3955 41.5856 20.3758 40.295C20.3758 38.1043 18.9089 36.9722 17.8841 36.4486C18.9098 35.9291 20.3758 34.8052 20.3758 32.6316ZM19.4869 39.8646H14.1284C14.162 39.5624 14.2389 39.2658 14.356 38.9849H17.6418C17.88 38.9849 18.0732 38.7921 18.0732 38.5544C18.0732 38.3167 17.88 38.1239 17.6418 38.1239H14.9011C15.4201 37.5636 16.0774 37.1511 16.8084 36.9273C17.2898 37.0735 19.2454 37.7923 19.4877 39.8654L19.4869 39.8646ZM16.8076 35.9675C16.4376 35.8564 15.1885 35.4088 14.5246 34.2669H19.0898C18.426 35.4088 17.176 35.8564 16.8068 35.9675H16.8076Z" fill="white" stroke="white" stroke-width="0.25"/>
<path d="M19.0046 15.8682H12.4314C12.1932 15.8682 12 16.0609 12 16.2986C12 16.5363 12.1932 16.7291 12.4314 16.7291H19.0046C19.2428 16.7291 19.436 16.5363 19.436 16.2986C19.436 16.0609 19.2428 15.8682 19.0046 15.8682Z" fill="white" stroke="white" stroke-width="0.25"/>
<path d="M19.0047 18.3984H17.1064C16.8682 18.3984 16.675 18.592 16.675 18.8297C16.675 19.0674 16.8682 19.2594 17.1064 19.2602H19.0047C19.2429 19.2602 19.4361 19.0674 19.4361 18.8297C19.4361 18.592 19.2429 18.3993 19.0047 18.3993V18.3984Z" fill="white" stroke="white" stroke-width="0.25"/>
<path d="M14.8986 18.8289C14.8986 18.5912 14.7054 18.3984 14.4672 18.3984H12.4314C12.1932 18.3984 12 18.592 12 18.8297C12 19.0674 12.1932 19.2594 12.4314 19.2602H14.4672C14.7054 19.2602 14.8986 19.0674 14.8986 18.8297V18.8289Z" fill="white" stroke="white" stroke-width="0.25"/>
<path d="M29.3491 30.0073C29.1862 29.8334 28.9136 29.8244 28.7392 29.9869L26.6527 31.9326L26.6273 26.7883C26.6265 26.5506 26.4317 26.3586 26.1934 26.3602C26.1771 26.3602 26.1615 26.3611 26.1451 26.3635L19.4393 27.1526C18.2982 27.2857 17.2267 26.5792 16.9025 25.4797L16.8853 25.4225C16.7642 25.0141 16.9983 24.5853 17.4076 24.4644C17.4362 24.4562 17.4649 24.4497 17.4935 24.444C19.6276 24.0781 23.7712 23.4083 27.7463 22.9925L28.51 23.9498C28.6566 24.1369 28.9283 24.1704 29.1158 24.0241C29.3032 23.8779 29.3368 23.6067 29.1903 23.4197C29.1886 23.4181 29.187 23.4156 29.1854 23.414L22.0432 14.4608C21.5079 13.7869 20.6934 13.394 19.8314 13.3965H12.4314C12.1932 13.3965 12 13.5893 12 13.827C12 14.0647 12.1932 14.2574 12.4314 14.2574H19.8314C20.4298 14.2558 20.9962 14.5286 21.3679 14.9966L27.1094 22.1945C23.2817 22.6143 19.3943 23.2441 17.347 23.5945C16.4572 23.7481 15.8604 24.5918 16.0135 25.4805C16.0242 25.5418 16.0381 25.6031 16.0561 25.6627L16.0741 25.7239C16.5186 27.2244 17.9814 28.1883 19.5392 28.0053L25.7653 27.2735L25.7923 32.7331L21.1526 37.0606C20.9782 37.2231 20.9692 37.4951 21.1321 37.6691C21.295 37.8431 21.5676 37.8521 21.742 37.6895L29.327 30.6159C29.5013 30.4533 29.5103 30.1813 29.3474 30.0073H29.3491Z" fill="white" stroke="white" stroke-width="0.25"/>
<path d="M41.099 34.5909C41.3134 34.6939 41.5713 34.6032 41.6744 34.3892C41.7776 34.1752 41.6867 33.9179 41.4723 33.815C41.469 33.8133 41.4649 33.8117 41.4616 33.8101L34.4553 30.573C34.2392 30.4733 33.983 30.5673 33.8823 30.7829C33.7816 30.9986 33.8766 31.2542 34.0927 31.3547L35.7536 32.1225L35.6636 50.4087C35.6636 50.6415 35.5514 50.8595 35.3623 50.996C35.1708 51.1364 34.9244 51.1757 34.6985 51.103C32.5816 50.434 32.5153 48.8085 32.5128 48.7391L32.2795 37.7153C32.2689 37.1223 31.7778 36.6501 31.1835 36.6608C30.6047 36.6714 30.1373 37.137 30.1267 37.7153L29.8934 48.7432C29.8934 48.7595 29.85 50.4266 27.7086 51.103C27.4826 51.1757 27.2354 51.1356 27.0447 50.996C26.8556 50.8595 26.7435 50.6415 26.7435 50.4087L26.6665 35.072C26.6657 34.8352 26.4725 34.6432 26.2351 34.644H26.2327C25.9945 34.6448 25.8021 34.8384 25.8037 35.0761L25.8807 50.4127C25.8872 51.2892 26.5994 51.9974 27.4777 51.9998C27.6447 51.9998 27.8101 51.9737 27.9697 51.923C30.6997 51.0605 30.7553 48.8461 30.757 48.7562L30.9903 37.7324C30.9903 37.6148 31.086 37.5192 31.2039 37.5192C31.3218 37.5192 31.4176 37.6148 31.4176 37.7324L31.6509 48.7513C31.6517 48.8453 31.7082 51.0597 34.4382 51.9222C35.2805 52.191 36.1809 51.7278 36.4511 50.8873C36.5002 50.7338 36.5264 50.5728 36.5272 50.4111L36.6156 32.5187L41.0998 34.5909H41.099Z" fill="white" stroke="white" stroke-width="0.25"/>
<path d="M44.811 36.4794C45.0696 36.4794 45.2792 36.2702 45.2792 36.0121C45.2792 35.7541 45.0696 35.5449 44.811 35.5449C44.5524 35.5449 44.3428 35.7541 44.3428 36.0121C44.3428 36.2702 44.5524 36.4794 44.811 36.4794Z" fill="white" stroke="white" stroke-width="0.25"/>
</svg>
