<svg width="257" height="195" viewBox="0 0 257 195" fill="none" xmlns="http://www.w3.org/2000/svg">
<path d="M113.548 75.9904C113.479 76.3805 113.393 76.8796 113.311 77.4739C113.311 77.4739 113.157 78.5355 113.052 79.5971C111.343 98.2705 121.069 108.823 121.069 108.823C123.419 111.368 126.432 114.635 131.131 115.342C138.121 116.404 143.861 111.264 147.956 107.489C157.85 98.334 163.159 86.18 166.054 76.2444C166.299 78.7623 166.754 81.2394 167.408 83.6394C164.359 88.9202 161.382 95.0721 158.818 102.154C158.491 103.075 158.678 104.105 159.305 104.844C161.236 107.149 163.177 109.449 165.108 111.745C166.422 113.314 168.917 112.947 169.744 111.073C171.521 107.036 173.412 103.193 175.393 99.5589C179.347 104.59 184.406 108.741 190.314 111.586C208.743 120.46 228.118 113.097 239.166 103.56C254.637 90.2132 263.072 64.3807 251.86 49.9311C242.479 37.8542 223.646 39.2606 219.923 39.6417C201.503 41.5063 189.8 54.8489 179.947 66.0866C178.357 67.9058 176.584 70.0472 174.716 72.5379C173.23 71.0135 171.953 69.6933 170.971 68.7043C170.899 68.6317 170.23 67.6018 169.008 66.8533C168.531 66.5584 167.972 66.2453 167.499 66.4314C167.263 66.5221 166.813 66.8306 166.486 67.0574C166.458 67.0756 166.426 67.0983 166.386 67.13C166.067 67.3841 165.958 67.7062 165.931 67.7697C163.909 72.8055 162.127 78.1998 158.546 82.2829C156.178 84.9823 146.752 95.6618 135.531 92.7311C128.664 90.9481 123.337 84.6511 121.278 76.7344C135.204 76.993 143.834 70.5825 188.401 39.9275C197.836 33.4263 204.703 28.7262 203.785 24.2075C202.849 19.6072 195.072 21.1497 181.02 13.2149C170.226 7.10839 166.399 1.45102 156.078 0.207939C155.364 0.117204 151.86 -0.277496 147.316 0.339506C143.375 0.865773 133.495 2.14968 126.696 10.3159C121.951 16.0322 120.747 22.4336 120.46 26.2219C120.378 27.3334 121.442 28.1772 122.519 27.8506C129.259 25.809 141.225 23.3954 155.119 26.8706C162.25 28.6536 167.917 31.4981 172.003 34.0297C167.981 37.8587 149.474 54.6403 122.66 53.4063C118.492 53.2112 91.9052 52.0316 80.9931 34.3155C71.9808 19.6843 80.8386 5.46607 73.5578 1.12891C65.2135 -3.85248 44.162 9.26789 36.6676 27.4695C35.4359 30.4501 28.7232 47.7443 37.8083 59.2451C38.4037 60.0073 43.6529 66.4722 52.0699 67.9875C59.3189 69.2895 63.4047 65.9187 73.5851 67.9194C77.2346 68.6408 80.1296 69.2532 81.1158 71.4309C82.8656 75.3144 77.5936 82.2057 71.7671 85.3724C63.2683 89.9863 53.906 86.4885 51.6018 85.631C41.7987 81.9608 37.0902 73.7129 33.2862 67.1981C27.937 58.0701 25.8236 48.9557 25.0737 41.656C24.9783 40.6987 23.9739 40.1226 23.1058 40.5309C21.8969 41.098 20.638 41.656 19.32 42.1959C15.666 43.7021 12.1847 44.8453 8.95785 45.7119C8.35339 45.8797 7.93527 46.4105 7.93072 47.0366C7.88073 53.9461 8.86241 76.1582 25.9963 92.8128C29.2277 95.9613 48.8658 115.043 70.2083 108.224C82.2657 104.368 95.6229 92.0596 94.0504 78.3041C93.305 71.8029 89.3465 64.0495 82.4111 60.039C70.2583 53.0116 56.4966 62.9335 52.2608 56.9812C49.6703 53.3473 52.3154 46.2563 56.1648 42.332C56.792 41.6923 61.4232 37.0965 67.2496 37.8587C72.6125 38.5574 75.9847 43.4208 77.3891 45.3898C94.7684 69.6978 100.827 71.8392 103.953 73.4361C107.489 74.711 110.73 75.5095 113.557 75.9904M230.999 88.1716C222.864 94.201 209.493 98.3748 199.24 93.4207C195.309 91.5198 190.45 87.6136 185.778 83.3626C199.535 65.2246 215.438 55.9151 228.627 58.4784C232.567 59.2406 238.153 61.4409 244.156 68.1145C243.279 71.5262 240.307 81.2576 230.995 88.1671L230.999 88.1716Z" fill="#2020BD"/>
<path d="M208.943 19.3305C208.789 25.5913 206.93 30.7451 204.962 34.5061C204.016 36.3072 205.798 38.317 207.702 37.5956C214.156 35.1458 223.536 33.018 234.094 35.3953C235.867 35.7945 237.53 36.289 239.084 36.847C241.27 37.6274 243.061 34.9688 241.475 33.2766C239.239 30.8948 236.107 28.4994 231.894 27.2018C225.486 25.2283 219.987 26.8344 217.455 27.8279C217.065 27.9822 216.669 27.6328 216.774 27.2291C217.36 24.9607 218.11 20.4511 216.328 15.4017C215.197 12.1942 213.411 9.79421 211.615 8.04754C210.011 6.48689 207.384 8.01579 207.925 10.1889C208.57 12.7749 209.025 15.8644 208.939 19.3351L208.943 19.3305Z" fill="#FF508B"/>
<path d="M92.3098 100.584C96.4683 96.1246 99.1951 91.5515 100.981 87.727C101.781 86.0167 104.272 86.1528 104.84 87.9539C106.262 92.4362 108.507 97.7669 112.116 103.252C114.52 106.904 117.07 109.93 119.465 112.389C120.878 113.841 119.61 116.236 117.615 115.882C114.216 115.279 110.003 113.682 106.93 109.685C105.19 107.421 104.304 105.03 103.872 102.925C103.654 101.855 102.199 101.691 101.704 102.667C100.64 104.767 99.0179 107.081 96.5592 109.059C91.8326 112.852 86.4242 113.464 82.3748 113.197C80.3342 113.06 79.6979 110.397 81.4522 109.349C84.7654 107.371 88.6148 104.554 92.3188 100.584H92.3098Z" fill="#FF508B"/>
<path d="M110.307 23.3047C115.295 23.3047 119.338 19.2687 119.338 14.2901C119.338 9.31148 115.295 5.27551 110.307 5.27551C105.32 5.27551 101.277 9.31148 101.277 14.2901C101.277 19.2687 105.32 23.3047 110.307 23.3047Z" fill="#FF508B"/>
<path d="M90.1873 23.3047C95.1747 23.3047 99.2178 19.2687 99.2178 14.2901C99.2178 9.31148 95.1747 5.27551 90.1873 5.27551C85.1998 5.27551 81.1567 9.31148 81.1567 14.2901C81.1567 19.2687 85.1998 23.3047 90.1873 23.3047Z" fill="#FF508B"/>
<path d="M23.1967 118.799C28.1841 118.799 32.2272 114.763 32.2272 109.785C32.2272 104.806 28.1841 100.77 23.1967 100.77C18.2092 100.77 14.1661 104.806 14.1661 109.785C14.1661 114.763 18.2092 118.799 23.1967 118.799Z" fill="#FF508B"/>
<path d="M9.03054 104.536C14.018 104.536 18.0611 100.5 18.0611 95.5212C18.0611 90.5426 14.018 86.5066 9.03054 86.5066C4.04311 86.5066 0 90.5426 0 95.5212C0 100.5 4.04311 104.536 9.03054 104.536Z" fill="#FF508B"/>
<path d="M117.874 156.668C117.874 161.214 115.452 165.483 110.607 169.484C106.126 173.191 101.831 175.047 97.7136 175.047C92.4688 175.047 89.8465 173.046 89.8465 169.049C89.8465 167.851 90.1192 166.54 90.6646 165.125C91.9735 161.672 94.4686 158.492 98.1499 155.584C99.2043 154.749 100.227 154.332 101.209 154.332C102.299 154.332 102.849 154.803 102.849 155.747C102.849 156.437 102.486 157.221 101.758 158.093C100.699 159.331 99.6269 160.565 98.5362 161.799C96.8228 163.981 95.9684 165.655 95.9684 166.817C95.9684 167.978 96.841 168.563 98.5907 168.563C101.177 168.563 103.944 167.166 106.894 164.367C109.844 161.568 111.321 159.004 111.321 156.677C111.321 152.608 108.098 150.571 101.654 150.571C96.8455 150.571 90.7282 151.659 83.2974 153.842C77.2528 155.625 73.008 157.185 70.5719 158.533C68.7131 159.59 67.1497 160.116 65.8726 160.116C64.7819 160.116 64.2319 159.735 64.2319 158.973C64.2319 157.739 65.6136 156.337 68.3813 154.776C80.9068 147.799 92.3416 144.305 102.686 144.305C113.03 144.305 117.87 148.434 117.87 156.682L117.874 156.668ZM95.0958 134.637C92.0371 135.944 88.3558 136.602 84.0609 136.602C80.1615 136.602 78.2163 135.785 78.2163 134.147C78.2163 132.986 79.8706 132.147 83.1883 131.639C85.4471 131.312 88.5603 130.314 92.5279 128.64C93.0006 128.422 93.4733 128.313 93.9459 128.313C96.0593 128.313 97.1136 129.456 97.1136 131.747C97.1136 133.131 96.441 134.093 95.0912 134.637H95.0958Z" fill="#2020BD"/>
<path d="M136.122 176.19C129.641 176.19 126.269 173.808 126.014 169.044C125.469 159.449 124.374 148.125 122.737 135.073C122.701 134.855 122.683 134.656 122.683 134.474C122.683 133.458 123.083 132.528 123.883 131.693C124.719 130.822 125.664 130.386 126.723 130.386C128.141 130.386 128.946 131.149 129.127 132.678C129.927 141.365 131.041 153.161 132.459 168.069C132.568 169.122 133.786 169.652 136.117 169.652C138.303 169.652 139.394 170.741 139.394 172.923C139.394 175.106 138.303 176.194 136.117 176.194L136.122 176.19Z" fill="#2020BD"/>
<path d="M152.283 170.269L150.761 171.335C146.243 174.57 141.621 176.19 136.885 176.19C134.699 176.19 133.608 175.101 133.608 172.919C133.608 170.737 134.699 169.648 136.885 169.648C141.839 169.648 146.461 167.302 150.761 162.616C151.633 161.636 152.597 161.141 153.656 161.141C155.587 161.141 156.551 162.176 156.551 164.249C156.551 164.576 156.478 164.984 156.332 165.474C156.187 165.964 156.114 166.336 156.114 166.59C156.114 168.627 157.66 169.643 160.759 169.643C162.945 169.643 164.036 170.732 164.036 172.914M156.332 193.039C153.274 194.346 149.593 195.004 145.298 195.004C141.398 195.004 139.453 194.187 139.453 192.549C139.453 191.383 141.107 190.549 144.425 190.041C146.684 189.714 149.797 188.711 153.765 187.042C154.237 186.824 154.71 186.715 155.183 186.715C157.296 186.715 158.35 187.858 158.35 190.149C158.35 191.529 157.678 192.495 156.328 193.039H156.332Z" fill="#2020BD"/>
<path d="M155.346 161.531C155.464 161.581 155.764 161.831 156.246 162.271C156.728 162.711 157.278 163.196 157.891 163.732C158.51 164.267 159.137 164.78 159.773 165.27C160.409 165.76 160.95 166.105 161.4 166.295C162.054 166.581 162.818 166.762 163.686 166.839C164.554 166.917 165.436 166.93 166.331 166.876C167.222 166.821 168.09 166.703 168.931 166.522C169.772 166.34 170.512 166.123 171.158 165.873C172.744 165.329 174.216 164.757 175.575 164.163C176.934 163.568 178.339 162.793 179.788 161.831C179.397 161.59 178.961 161.309 178.479 160.996C177.998 160.679 177.534 160.338 177.093 159.966C176.484 159.417 175.875 158.8 175.271 158.111C174.666 157.421 174.053 156.741 173.43 156.06C172.803 155.38 172.148 154.749 171.467 154.168C170.78 153.588 170.035 153.12 169.235 152.771C168.135 152.29 167.017 152.086 165.886 152.158C164.754 152.231 163.672 152.594 162.645 153.243C162.559 153.275 162.427 153.352 162.254 153.47C162.077 153.588 161.886 153.706 161.673 153.828C161.459 153.946 161.264 154.055 161.077 154.155C160.891 154.25 160.755 154.282 160.668 154.241C160.55 154.191 160.555 154.014 160.686 153.719C160.909 153.216 161.191 152.744 161.541 152.313C161.891 151.882 162.259 151.464 162.645 151.07C163.445 150.217 164.377 149.464 165.44 148.81C166.504 148.162 167.622 147.672 168.79 147.349C169.958 147.027 171.149 146.882 172.358 146.914C173.566 146.946 174.739 147.209 175.871 147.703C176.943 148.171 177.839 148.774 178.561 149.514C179.284 150.253 180.002 151.097 180.725 152.05C181.052 152.512 181.347 152.934 181.606 153.311C181.865 153.687 182.133 154.046 182.415 154.381C182.692 154.717 183.029 155.021 183.424 155.298C183.815 155.575 184.324 155.851 184.951 156.124C185.397 156.319 185.837 156.45 186.269 156.514C186.701 156.577 187.128 156.641 187.546 156.7C187.964 156.759 188.383 156.818 188.801 156.877C189.219 156.936 189.637 157.054 190.051 157.235C190.319 157.353 190.469 157.535 190.505 157.78C190.537 158.025 190.496 158.283 190.382 158.551C190.214 158.936 189.96 159.236 189.619 159.44C187.146 161.196 184.797 162.72 182.565 164.009C180.334 165.302 178.066 166.595 175.762 167.892C174.575 168.577 173.121 169.344 171.408 170.188C169.69 171.031 167.89 171.762 166.008 172.374C164.127 172.987 162.259 173.386 160.405 173.568C158.55 173.749 156.91 173.531 155.483 172.905C154.501 172.479 153.815 171.807 153.169 171.145C152.683 170.646 152.183 170.138 151.651 169.693C151.12 169.249 150.565 168.831 149.993 168.441C149.602 168.201 149.165 167.946 148.675 167.679C148.188 167.416 147.634 167.143 147.007 166.871L146.379 166.599" fill="#2020BD"/>
</svg>
