<svg width="247" height="247" viewBox="0 0 247 247" fill="none" xmlns="http://www.w3.org/2000/svg">
<path d="M123.5 232C183.423 232 232 183.423 232 123.5C232 63.5771 183.423 15 123.5 15C63.5771 15 15 63.5771 15 123.5C15 183.423 63.5771 232 123.5 232Z" fill="#2D2DB2" fill-opacity="0.08" stroke="#2D2DB2" stroke-opacity="0.08" stroke-width="30"/>
<g opacity="0.5">
<path d="M146.828 175.583C146.828 176.734 147.76 177.667 148.911 177.667H155.16C156.311 177.667 157.243 176.734 157.243 175.583V169.334C157.243 168.184 156.311 167.251 155.16 167.251C154.01 167.251 153.077 168.184 153.077 169.334V173.5H148.911C147.76 173.5 146.828 174.433 146.828 175.583Z" fill="#2D2DB2" fill-opacity="0.5"/>
<path d="M123.913 77.6792C125.064 77.6792 125.997 76.7465 125.997 75.5961V71.4298C125.997 70.2793 125.064 69.3467 123.913 69.3467C122.763 69.3467 121.83 70.2793 121.83 71.4298V75.5961C121.83 76.7465 122.763 77.6792 123.913 77.6792Z" fill="#2D2DB2" fill-opacity="0.5"/>
<path d="M115.582 88.0862H132.247C133.398 88.0862 134.331 87.1535 134.331 86.0031C134.331 84.8526 133.398 83.9199 132.247 83.9199H115.582C114.432 83.9199 113.499 84.8526 113.499 86.0031C113.499 87.1535 114.432 88.0862 115.582 88.0862Z" fill="#2D2DB2" fill-opacity="0.5"/>
<path d="M79.1128 170.929C80.1543 171.553 81.1959 172.068 82.252 172.549V177.667C82.252 182.269 85.9826 186 90.5846 186H157.245C161.847 186 165.577 182.269 165.577 177.667V164.692C165.919 164.877 166.263 165.033 166.604 165.233C167.702 165.984 169.12 166.079 170.308 165.481C171.292 164.893 171.874 163.814 171.827 162.669V146.004C171.698 143.868 170.538 141.929 168.717 140.807C167.675 140.182 166.633 139.657 165.577 139.175V92.2592C165.577 87.6572 161.847 83.9266 157.245 83.9266H146.769C146.479 80.3847 143.966 77.4204 140.519 76.5544L137.728 75.8545C135.706 75.3449 134.3 73.5126 134.33 71.4279C134.337 65.959 130.112 61.4167 124.657 61.0269C119.202 60.6371 114.375 64.5325 113.603 69.9468C113.516 70.5516 113.481 71.1628 113.499 71.7737C113.544 73.6481 112.286 75.3042 110.468 75.7629L107.302 76.5544C103.855 77.4204 101.342 80.3847 101.052 83.9266H90.5846C85.9826 83.9266 82.252 87.6572 82.252 92.2592V147.045C81.9083 146.86 81.5646 146.702 81.2209 146.502C80.1233 145.751 78.7048 145.657 77.5171 146.254C76.5365 146.842 75.9556 147.919 76.0027 149.062V165.727C76.1304 167.864 77.2908 169.805 79.1128 170.929ZM161.411 177.667C161.411 179.968 159.546 181.834 157.245 181.834H90.5846C88.2836 181.834 86.4183 179.968 86.4183 177.667V174.141C89.5986 175.113 92.9063 175.605 96.2319 175.599C105.852 175.599 115.365 171.878 124.673 168.235C137.355 163.273 149.42 158.553 161.411 162.819V177.667ZM105.166 84.637C105.166 82.7246 106.467 81.0574 108.322 80.5936L111.487 79.802C115.202 78.8595 117.768 75.4679 117.665 71.6362C117.653 71.2623 117.674 70.888 117.726 70.5175C118.141 67.7501 120.338 65.592 123.113 65.2264C123.379 65.1951 123.647 65.1791 123.915 65.1785C125.44 65.1735 126.913 65.7313 128.052 66.745C129.403 67.9445 130.172 69.6672 130.164 71.4737C130.144 75.4573 132.851 78.9378 136.718 79.8979L139.507 80.5957C141.361 81.0593 142.663 82.7254 142.663 84.637V90.176C142.663 91.3265 141.73 92.2592 140.58 92.2592H107.25C106.099 92.2592 105.166 91.3265 105.166 90.176V84.637ZM86.4183 92.2592C86.4183 89.9582 88.2836 88.0929 90.5846 88.0929H101V90.176C101 93.6275 103.798 96.4254 107.25 96.4254H140.58C144.031 96.4254 146.829 93.6275 146.829 90.176V88.0929H157.245C159.546 88.0929 161.411 89.9582 161.411 92.2592V137.615C152.816 134.992 144.306 136.255 135.641 138.969L135.591 138.984C118.453 144.362 102.373 154.607 86.4287 148.935L86.4183 92.2592ZM80.1689 150.693C81.5098 151.422 82.9023 152.052 84.3352 152.578V161.557C84.3352 162.707 85.2678 163.64 86.4183 163.64C87.5688 163.64 88.5014 162.707 88.5014 161.557V153.884C89.8743 154.197 91.266 154.42 92.6677 154.553V158.886C92.6677 160.036 93.6003 160.969 94.7508 160.969C95.9013 160.969 96.834 160.036 96.834 158.886V154.753C98.2268 154.724 99.6173 154.625 101 154.457V158.319C101 159.47 101.933 160.403 103.083 160.403C104.234 160.403 105.166 159.47 105.166 158.319V153.789C106.558 153.505 107.947 153.164 109.333 152.78V156.261C109.333 157.412 110.265 158.344 111.416 158.344C112.566 158.344 113.499 157.412 113.499 156.261V151.528C114.893 151.072 116.28 150.581 117.665 150.07V157.486C117.665 158.637 118.598 159.569 119.748 159.569C120.899 159.569 121.832 158.637 121.832 157.486V148.504C122.781 148.137 123.729 147.768 124.673 147.395L125.998 146.877V150.085C125.998 151.235 126.93 152.168 128.081 152.168C129.231 152.168 130.164 151.235 130.164 150.085V145.273C131.56 144.748 132.948 144.249 134.33 143.775V147.145C134.33 148.296 135.263 149.229 136.413 149.229C137.564 149.229 138.497 148.296 138.497 147.145V142.442C139.885 142.033 141.274 141.677 142.663 141.371V145.094C142.663 146.244 143.595 147.177 144.746 147.177C145.896 147.177 146.829 146.244 146.829 145.094V140.642C148.211 140.457 149.602 140.349 150.995 140.319V148.685C150.995 149.835 151.928 150.768 153.078 150.768C154.229 150.768 155.162 149.835 155.162 148.685V140.544C159.21 141.008 163.115 142.324 166.619 144.404C167.155 144.787 167.527 145.358 167.66 146.004V161.038C152.972 153.049 138.507 158.33 123.156 164.335C108.641 170.014 94.9341 175.376 81.2209 167.327C80.6807 166.946 80.3048 166.374 80.1689 165.727V150.693Z" fill="#2D2DB2" fill-opacity="0.5"/>
<path d="M161.411 152.666C162.561 152.666 163.494 151.734 163.494 150.583C163.494 149.433 162.561 148.5 161.411 148.5C160.26 148.5 159.327 149.433 159.327 150.583C159.327 151.734 160.26 152.666 161.411 152.666Z" fill="#2D2DB2" fill-opacity="0.5"/>
<path d="M94.7516 106.845H128.082C129.232 106.845 130.165 105.912 130.165 104.762C130.165 103.611 129.232 102.679 128.082 102.679H94.7516C93.6011 102.679 92.6685 103.611 92.6685 104.762C92.6685 105.912 93.6011 106.845 94.7516 106.845Z" fill="#2D2DB2" fill-opacity="0.5"/>
<path d="M140.579 119.341H148.912C152.363 119.341 155.161 116.543 155.161 113.092V104.759C155.161 101.308 152.363 98.5098 148.912 98.5098H140.579C137.128 98.5098 134.33 101.308 134.33 104.759V113.092C134.33 116.543 137.128 119.341 140.579 119.341ZM138.496 104.759C138.496 103.609 139.429 102.676 140.579 102.676H148.912C150.062 102.676 150.995 103.609 150.995 104.759V113.092C150.995 114.242 150.062 115.175 148.912 115.175H140.579C139.429 115.175 138.496 114.242 138.496 113.092V104.759Z" fill="#2D2DB2" fill-opacity="0.5"/>
<path d="M94.7516 131.84H128.082C129.232 131.84 130.165 130.907 130.165 129.757C130.165 128.606 129.232 127.674 128.082 127.674H94.7516C93.6011 127.674 92.6685 128.606 92.6685 129.757C92.6685 130.907 93.6011 131.84 94.7516 131.84Z" fill="#2D2DB2" fill-opacity="0.5"/>
<path d="M94.7516 115.174H111.417C112.567 115.174 113.5 114.241 113.5 113.091C113.5 111.94 112.567 111.008 111.417 111.008H94.7516C93.6011 111.008 92.6685 111.94 92.6685 113.091C92.6685 114.241 93.6011 115.174 94.7516 115.174Z" fill="#2D2DB2" fill-opacity="0.5"/>
<path d="M113.5 138.086C113.5 136.936 112.567 136.003 111.417 136.003H94.7516C93.6011 136.003 92.6685 136.936 92.6685 138.086C92.6685 139.237 93.6011 140.169 94.7516 140.169H111.417C112.567 140.169 113.5 139.237 113.5 138.086Z" fill="#2D2DB2" fill-opacity="0.5"/>
<path d="M136.413 131.846C137.564 131.846 138.496 130.914 138.496 129.763C138.496 128.613 139.429 127.68 140.579 127.68H148.912C150.062 127.68 150.995 128.613 150.995 129.763C150.995 130.914 151.928 131.846 153.078 131.846C154.229 131.846 155.161 130.914 155.161 129.763C155.161 126.312 152.363 123.514 148.912 123.514H140.579C137.128 123.514 134.33 126.312 134.33 129.763C134.33 130.914 135.263 131.846 136.413 131.846Z" fill="#2D2DB2" fill-opacity="0.5"/>
</g>
</svg>
