<svg width="22" height="18" viewBox="0 0 22 18" fill="none" xmlns="http://www.w3.org/2000/svg">
<path d="M10.9961 2.58911C5.35108 2.58911 0.320076 8.45712 0.108076 8.70712C0.0380197 8.78983 -0.000427246 8.89471 -0.000427246 9.00311C-0.000427246 9.11151 0.0380197 9.2164 0.108076 9.29912C1.46912 10.8362 3.0304 12.1836 4.75008 13.3051L7.62208 10.4331C7.33885 9.76169 7.26227 9.02106 7.40212 8.30589C7.54196 7.59072 7.89189 6.93349 8.40717 6.41821C8.92245 5.90293 9.57968 5.553 10.2949 5.41315C11.01 5.27331 11.7507 5.34989 12.4221 5.63312L14.7831 3.27212C13.5696 2.8275 12.2884 2.59641 10.9961 2.58911Z" fill="#EE2E3A"/>
<path d="M21.9071 8.74207C20.482 6.82308 18.6639 5.23029 16.5741 4.07007L19.1061 1.53806C19.192 1.45213 19.2403 1.33559 19.2403 1.21407C19.2403 1.09254 19.192 0.975998 19.1061 0.890068C19.0202 0.804138 18.9036 0.755859 18.7821 0.755859C18.6606 0.755859 18.544 0.804138 18.4581 0.890068L2.8801 16.4681C2.79436 16.5541 2.74622 16.6706 2.74622 16.7921C2.74622 16.9135 2.79436 17.03 2.8801 17.1161C2.92232 17.1588 2.97261 17.1928 3.02806 17.216C3.08351 17.2391 3.143 17.2511 3.20309 17.2511C3.32455 17.2509 3.44102 17.2028 3.52709 17.1171L6.40009 14.2441C7.82194 14.9785 9.39221 15.38 10.9921 15.4181C16.6371 15.4181 21.6681 9.55006 21.8801 9.30006C21.9452 9.22291 21.9831 9.12648 21.988 9.02563C21.9929 8.92479 21.9645 8.82515 21.9071 8.74207ZM10.9921 12.6681C10.1803 12.6645 9.39313 12.3892 8.7561 11.8861L13.8751 6.76707C14.2995 7.30597 14.5632 7.95369 14.6359 8.63577C14.7086 9.31784 14.5873 10.0066 14.2861 10.6228C13.9849 11.2391 13.5159 11.7578 12.933 12.1195C12.3501 12.4811 11.677 12.6709 10.9911 12.6671L10.9921 12.6681Z" fill="#EE2E3A"/>
</svg>
