<svg width="11" height="14" viewBox="0 0 11 14" fill="none" xmlns="http://www.w3.org/2000/svg">
<path d="M10.686 2.11103L5.69528 0.0389297C5.57025 -0.0129638 5.42972 -0.0129893 5.30472 0.0389297L0.313984 2.11103C0.123903 2.18996 0 2.37554 0 2.58136V5.10028C0 8.56867 2.09634 11.6886 5.30755 12.9993C5.43089 13.0496 5.56908 13.0496 5.69245 12.9993C8.90361 11.6886 11 8.56869 11 5.10028V2.58136C11 2.37554 10.8761 2.18996 10.686 2.11103ZM9.98148 5.10028C9.98148 8.04876 8.25 10.763 5.5 11.9746C2.82349 10.7954 1.01852 8.12867 1.01852 5.10028V2.92134L5.5 1.06066L9.98148 2.92134V5.10028ZM4.93712 6.81684L7.12601 4.62797C7.32488 4.4291 7.64732 4.42908 7.84621 4.62797C8.0451 4.82686 8.04507 5.1493 7.84618 5.34816L5.29721 7.89713C5.0983 8.09605 4.77586 8.09597 4.57702 7.89713L3.15379 6.4739C2.9549 6.27501 2.9549 5.95258 3.15379 5.75371C3.35268 5.55484 3.67512 5.55482 3.87399 5.75371L4.93712 6.81684Z" fill="#2D2DB2"/>
</svg>
