<svg width="319" height="361" viewBox="0 0 319 361" fill="none" xmlns="http://www.w3.org/2000/svg">
<path d="M91.501 302.649C100.568 305.849 109.218 310.128 117.263 315.394C126.296 321.313 134.563 328.456 144.178 333.363C156.678 339.74 171.013 342.027 185.025 341.332C192.941 340.945 201.587 339.232 206.645 333.099C208.025 331.577 208.853 329.634 208.993 327.584C208.993 324.602 206.917 322.043 204.745 319.993C193.161 309.042 177.03 304.557 161.479 301.065C145.928 297.573 136.596 293.149 121.309 285.233C114.774 281.847 108.327 278.197 101.73 275.012L101.572 274.933C98.3236 273.199 94.9822 271.646 91.563 270.28C85.9775 268.155 80.1664 266.679 74.244 265.88C68.2961 265.088 62.2445 265.814 56.653 267.991C55.1936 268.493 53.9128 269.41 52.968 270.63C52.2952 271.752 51.9877 273.055 52.088 274.359C52.2551 277.024 53.2137 279.578 54.841 281.695C56.4603 283.795 58.3639 285.66 60.497 287.236C69.57 294.373 80.682 298.832 91.501 302.649Z" fill="#E0E0E0"/>
<path d="M167.6 129.059L130.131 131.214C130.131 131.214 127.29 143.396 126.217 152.631C125.144 161.866 130.439 170.979 130.439 170.979L132.77 186.75C115.091 191.702 108.301 201.94 99.751 211.58C93.541 218.617 86.997 225.653 80.717 228.573C75.217 231.15 73.311 232.973 81.394 239.893C85.794 243.631 89.894 242.532 89.894 242.532C89.894 242.532 124.663 222.592 141.357 213.55C153.996 207.543 155.993 207.25 160.127 195.22C168.7 170.372 168.876 138.426 167.6 129.059Z" fill="#F0997A"/>
<path d="M129.815 171.454C129.815 171.454 124.933 163.354 125.127 155.965C125.321 148.576 129.041 131.179 129.041 131.179L167.601 129.05C169.483 140.018 168.287 159.55 166.572 170.319C164.109 184.797 161.497 197.506 158.137 202.546C154.777 207.586 154.232 208.21 139.912 215.203C125.592 222.196 103.85 235.011 103.85 235.011C103.85 235.011 99.769 235.548 95.371 229.021C92.271 224.43 91.971 221.334 91.971 219.68C93.062 218.343 94.962 216.021 97.301 213.259C101.013 208.859 110.327 197.427 115.631 193.847C120.697 190.577 126.182 188.008 131.938 186.212L129.815 171.454Z" fill="#263238"/>
<path d="M150.845 147.048C153.396 157.248 149.517 185.212 149.086 188.387C148.523 192.345 143.659 193.295 138.021 194.394C135.438 194.833 132.889 195.456 130.395 196.259C123.112 198.81 118.521 203.559 111.555 210.737L109.937 212.408C106.067 216.384 101.907 217.879 98.802 216.419C97.7974 215.962 96.9959 215.151 96.55 214.141C96.339 214.396 96.128 214.634 95.934 214.88C96.4965 215.904 97.3728 216.721 98.434 217.211C99.3386 217.637 100.328 217.854 101.328 217.844C104.228 217.844 107.485 216.173 110.563 213.024L112.19 211.353C119.059 204.264 123.624 199.576 130.661 197.086C133.12 196.282 135.633 195.653 138.181 195.204C143.89 194.087 149.29 193.031 149.941 188.458C150.398 185.283 154.295 157.172 151.7 146.802C150.152 140.645 144.558 134.295 138.99 130.602L137.477 130.69C143.193 134.187 149.28 140.792 150.845 147.048Z" fill="black"/>
<path d="M82.811 260.43C83.488 255.522 87.033 249.638 88.783 247.289C91.941 243.076 94.852 241.862 93.322 240.639L92.636 241.017C88.636 241.43 84.623 238.07 82.961 237.499C81.299 236.928 78.132 243.392 76.303 248.494C74.8568 252.606 74.2003 256.954 74.368 261.309L82.811 260.43Z" fill="#8276F4"/>
<g opacity="0.2">
<path opacity="0.2" d="M82.81 260.43C83.487 255.522 87.032 249.638 88.782 247.289C91.94 243.076 94.851 241.862 93.321 240.639L92.635 241.017C88.635 241.43 84.622 238.07 82.96 237.499C81.298 236.928 78.131 243.392 76.302 248.494C74.8558 252.606 74.1993 256.954 74.367 261.309L82.81 260.43Z" fill="black"/>
</g>
<path d="M76.636 280.378C75.756 281.17 74.578 281.319 70.286 278.619C66.486 276.219 64.024 270.619 62.286 265.426C60.548 260.233 62.101 253.772 63.72 250.078C65.2589 246.044 65.9417 241.733 65.725 237.421C65.549 234.659 65.4 234.321 66.481 233.568C67.413 232.908 68.539 232.196 68.539 232.196L76.636 280.378Z" fill="#EBEBEB"/>
<path d="M82.705 227.526C80.946 228.916 80.392 229.681 80.066 232.267C79.8717 233.883 80.2313 235.517 81.086 236.902C81.966 238.274 78.786 242.619 76.886 248.231C75.558 252.131 74.335 259.208 74.854 260.031C76.393 259.151 80.536 259.31 82.823 260.031C82.4783 263.72 82.3901 267.429 82.559 271.131C82.859 275.331 83.65 276.153 82.251 277.684C81.459 278.564 78.231 280.484 76.208 280.173C74.748 279.953 69.321 276.883 65.785 269.187C62.485 262.019 64.422 257.093 66.119 250.919C67.544 245.765 67.878 242.378 67.746 240.039C67.57 236.574 67.324 234.164 68.52 232.211C69.8187 230.793 71.4472 229.718 73.261 229.08C76.445 227.893 79.031 227.321 81.467 226.142C81.9527 225.93 82.4818 225.836 83.0107 225.869C83.5397 225.901 84.0535 226.058 84.51 226.327C83.9311 226.76 83.3285 227.16 82.705 227.526Z" fill="#8276F4"/>
<path d="M80.357 276.28C78.51 276.966 77.885 277.16 76.68 278.541C76.3628 279.055 75.8956 279.46 75.3413 279.701C74.7871 279.941 74.1723 280.006 73.58 279.887C71.012 279.306 68.523 276.606 67.661 275.487C66.799 274.368 63.536 269.163 62.561 265.53C61.3708 261.567 61.4569 257.33 62.807 253.418C64.496 248.492 65.331 246.795 65.754 241.764C66.177 236.733 65.454 235.378 65.754 234.323C65.4194 234.574 65.1048 234.85 64.813 235.15C64.444 237.006 65.455 238.325 64.413 245.063C63.7707 247.93 62.9092 250.744 61.836 253.48C60.5304 257.599 60.4785 262.014 61.687 266.163C62.945 270.825 65.687 276.832 71.178 280.104C72.6284 280.922 74.2566 281.374 75.9213 281.42C77.5859 281.466 79.2367 281.105 80.73 280.368C81.845 279.325 82.6256 277.975 82.973 276.489C83.057 275.497 81.873 275.717 80.357 276.28Z" fill="#455A64"/>
<path d="M74.279 261.011C77.472 259.463 82.6 260.536 82.714 261.565V262.093C82.714 262.093 83.114 262.163 83.268 260.747C83.162 259.753 82.582 259.058 79.75 258.706C77.8938 258.458 76.0054 258.632 74.226 259.216C74.226 259.216 73.708 260.641 74.279 261.011Z" fill="#37474F"/>
<path d="M75.009 255.429C79.715 254.303 83.55 256.089 83.725 256.792L83.619 257.109C83.619 257.109 84.164 257.188 84.314 255.781C84.235 255.245 83.434 254.145 80.892 253.661C78.9924 253.303 77.0371 253.369 75.166 253.855C75.166 253.855 74.516 254.898 75.009 255.429Z" fill="#37474F"/>
<path d="M75.959 250.817C81.694 249.058 85.414 251.917 85.529 252.638L85.371 252.946C85.371 252.946 85.934 253.078 86.251 251.679C86.251 251.142 85.53 249.999 83.041 249.251C80.8438 248.632 78.5155 248.654 76.33 249.313C76.33 249.313 75.51 250.245 75.959 250.817Z" fill="#37474F"/>
<path d="M77.56 245.416C82.837 244.536 87.921 247.641 88.036 248.363L87.86 248.627C87.86 248.627 88.432 248.803 88.74 247.404C88.74 246.868 87.86 246.137 85.53 244.976C83.2402 243.864 80.6646 243.48 78.15 243.876C78.15 243.876 77.111 244.845 77.56 245.416Z" fill="#37474F"/>
<path d="M153.745 225.388C153.745 225.388 138.01 207.726 126.769 194.888C121.835 189.259 114.769 180.296 110.937 171.527C106.737 161.852 107.322 150.875 109.099 143.381C110.709 136.581 113.251 132.228 116.135 127.61L167.625 129.096C166.151 134.816 164.21 140.406 161.82 145.808C158.372 153.126 151.072 157.55 151.072 157.55C161.899 177.991 180.977 205.688 181.953 215.109C182.428 219.509 182.322 228.214 181.689 238.321C180.106 261.521 179.745 285.914 179.772 291.156C179.772 296.125 179.658 301.781 183.018 308.114C185.318 312.45 185.569 317.147 189.118 320.305C192.667 323.463 200.289 325.38 197.192 329.778C194.095 334.176 187.392 334.178 181.465 333.411C175.538 332.644 170.62 324.111 168.773 318.995C166.926 313.879 161.927 310.457 158.545 307.61C155.163 304.763 156.003 301.453 158.765 297.231C161.527 293.009 161.931 292.596 161.624 287.617C160.912 276.417 156.083 258.811 154.482 250.464C151.038 232.495 153.745 225.388 153.745 225.388Z" fill="#FFBDA7"/>
<path d="M117.879 185.272C114.185 179.995 110.165 174.805 107.773 166.493C105.425 158.331 105.249 149.869 107.236 142.833C108.959 136.832 111.99 131.287 116.111 126.596L167.601 129.024C169.87 147.433 153.941 158.718 153.941 158.718L160.341 170.018C167.377 181.602 178.724 203.118 181.151 209.405C183.578 215.692 183.517 216.142 182.585 231.746C181.653 247.35 179.946 280.896 179.946 280.896C179.946 280.896 177.8 283.696 169.593 283.535C161.386 283.374 160.366 280.615 160.366 280.615C160.366 280.615 157.842 268.037 156.742 263.024C154.666 253.498 150.075 237.2 153.092 225.616C153.071 225.644 121.573 190.596 117.879 185.272Z" fill="#37474F"/>
<path d="M162.473 245.478C162.056 240.818 162.038 236.13 162.42 231.467C162.72 226.304 162.965 222.223 161.03 219.391C159.649 217.368 157.03 214.114 153.712 209.962C144.644 198.651 130.931 181.543 126.375 169.581C124.555 164.677 123.18 159.62 122.267 154.47C121.458 150.406 120.816 147.196 119.32 144.417C117.269 140.529 114.061 137.376 110.139 135.392C109.998 135.647 109.866 135.911 109.739 136.175C113.493 138.07 116.567 141.081 118.539 144.795C119.973 147.434 120.606 150.618 121.398 154.602C122.325 159.801 123.711 164.908 125.541 169.862C130.15 181.947 143.915 199.116 153.019 210.48C156.326 214.596 158.938 217.851 160.293 219.847C162.052 222.433 161.841 226.189 161.533 231.387C161.154 236.095 161.175 240.826 161.595 245.53C162.281 252.065 162.589 259.181 159.686 262.374C159.031 263.083 158.199 263.605 157.276 263.887C157.338 264.151 157.399 264.441 157.469 264.767C158.567 264.457 159.556 263.848 160.328 263.008C163.484 259.551 163.185 252.207 162.473 245.478Z" fill="#263238"/>
<path d="M188.517 315.534C186.459 312.983 182.517 305.134 181.903 303.123C180.795 299.49 182.325 297.661 180.065 296.254C177.665 295.207 173.165 296.861 170.39 298.77C167.615 300.679 172.378 308.718 173.803 311.313C175.964 315.292 178.766 318.888 182.097 321.956C184.207 319.8 186.617 318.033 188.517 315.534Z" fill="#8276F4"/>
<path opacity="0.2" d="M188.517 315.534C186.459 312.983 182.517 305.134 181.903 303.123C180.795 299.49 182.325 297.661 180.065 296.254C177.665 295.207 173.165 296.861 170.39 298.77C167.615 300.679 172.378 308.718 173.803 311.313C175.964 315.292 178.766 318.888 182.097 321.956C184.207 319.8 186.617 318.033 188.517 315.534Z" fill="black"/>
<path d="M197.013 333.54C195.254 336.003 194.577 336.267 190.513 337.058C186.913 337.77 179.913 336.047 175.56 333.54C171.207 331.033 166.94 325.422 165.076 320.98C163.176 316.816 160.529 313.036 157.265 309.827C155.26 307.822 154.952 307.918 154.881 306.309C154.81 304.7 155.356 304.972 155.381 303.67C169.193 313.794 183.371 323.143 197.013 333.54Z" fill="#EBEBEB"/>
<path d="M161.708 289.473C161.638 292.112 162.227 293.282 164.039 295.692C165.165 297.192 166.168 297.645 168.49 299.21C170.812 300.775 172.219 307.284 174.049 310.741C175.324 313.141 178.702 318.974 181.534 320.641C182.379 319.393 183.464 318.327 184.727 317.505C185.99 316.684 187.404 316.123 188.887 315.856C190.743 318.611 193.061 321.024 195.739 322.989C197.762 324.423 201.711 325.962 200.48 328.882C199.785 330.536 199.28 332.092 195.766 333.79C193.206 335.03 185.853 335.611 180.69 333.544C171.235 329.753 169.89 324.889 167.628 320.034C165.746 315.979 162.528 312.47 160.662 310.359C157.891 307.193 156.362 307.113 155.455 303.659C154.901 301.513 155.71 300.141 156.598 297.907C157.486 295.673 159.298 291.996 160.116 289.674C160.635 288.188 160.556 287.765 161.647 287.625L161.708 289.473Z" fill="#8276F4"/>
<path d="M198.175 329.098C197.49 329.317 196.89 329.743 196.458 330.318C196.026 330.894 195.784 331.589 195.765 332.308C195.598 333.68 195.923 334.947 194.173 335.738C191.719 336.829 189.467 336.829 186.125 336.406C182.533 336.059 179.043 335.013 175.852 333.328C172.089 331.135 169.006 327.945 166.942 324.11C165.044 320.193 162.789 316.46 160.205 312.957C157.945 310.134 156.564 309.694 154.769 307.143C154.757 307.567 154.719 307.99 154.655 308.409C157.171 311.778 158.855 312.596 161.806 316.642C162.861 318.102 164.682 321.842 166.415 325.077C168.74 329.042 172.028 332.355 175.976 334.708C179.741 337.03 188.167 338.341 192.354 337.496C198.036 336.353 199.83 334.435 200.684 333.045C201.309 332.034 201.256 330.318 201.177 328.945C201.112 327.207 199.824 328.421 198.175 329.098Z" fill="#455A64"/>
<path d="M181.269 321.252C182.579 319.132 186.546 316.142 189.369 316.564L189.65 316.925C189.914 316.573 189.694 316.256 188.95 315.377C188.414 314.797 186.822 314.946 184.65 316.019C183.111 316.775 180.789 318.279 179.927 320.003C180.014 320.314 180.186 320.596 180.423 320.816C180.659 321.036 180.952 321.187 181.269 321.252Z" fill="#37474F"/>
<path d="M177.117 317.259C178.665 315.306 183.696 311.577 186.405 312.298L186.634 312.698C186.942 312.381 186.766 312.03 186.124 311.088C185.649 310.437 183.872 310.745 181.814 311.588C180.231 312.239 176.968 314.227 175.93 315.88C175.978 316.198 176.114 316.497 176.324 316.741C176.534 316.985 176.809 317.165 177.117 317.259Z" fill="#37474F"/>
<path d="M174.382 312.518C176.018 310.644 181.419 307.082 184.057 307.935L184.268 308.335C184.585 308.035 184.426 307.684 183.837 306.699C183.389 306.031 181.453 306.321 179.36 307.068C177.742 307.649 174.391 309.504 173.273 311.079C173.304 311.399 173.424 311.704 173.62 311.958C173.816 312.213 174.08 312.407 174.382 312.518Z" fill="#37474F"/>
<path d="M172.008 307.232C173.767 305.473 179.408 302.368 182 303.432L182.167 303.845C182.501 303.572 182.396 303.212 181.877 302.191C181.49 301.491 179.537 301.628 177.382 302.191C175.728 302.64 172.245 304.223 171.005 305.709C171.011 306.032 171.108 306.346 171.286 306.616C171.463 306.885 171.714 307.099 172.008 307.232Z" fill="#37474F"/>
<path d="M157.055 58.218C163.071 58.543 169.87 59.168 178.055 64.736C184.168 68.888 212.675 88.906 217.155 92.671C217.155 92.671 211.614 110.596 211.236 110.509C206.363 109.348 165.402 87.939 165.402 87.939L157.055 58.218Z" fill="#FFBDA7"/>
<path d="M202.071 81.588C200.083 90.032 200.241 96.048 203.294 100.639L209.451 86.883C207.216 85.258 204.701 83.497 202.071 81.588Z" fill="#F0997A"/>
<path d="M202.704 88.132C205.22 75.897 209.257 68.694 210.242 59.52C210.462 57.471 209.362 56.336 208.28 54.506C207.13 52.2395 206.114 49.9075 205.237 47.522C204.371 45.3847 203.381 43.2995 202.273 41.277C202.192 41.1423 202.13 40.9973 202.088 40.846C201.93 40.116 202.809 39.579 203.557 39.562C204.289 39.6071 205.003 39.8096 205.649 40.1556C206.296 40.5016 206.86 40.983 207.304 41.567C208.244 42.789 209.244 43.9617 210.304 45.085C211.316 44.478 210.304 38.145 209.556 34.864C209.175 33.1888 208.651 31.5495 207.99 29.964C207.089 28.2535 206.468 26.4094 206.152 24.502C206.131 24.0893 206.214 23.678 206.394 23.3059C206.574 22.9339 206.845 22.6131 207.181 22.373C207.295 22.2638 207.439 22.1904 207.594 22.162C207.733 22.1797 207.866 22.2275 207.984 22.3019C208.103 22.3764 208.204 22.4757 208.28 22.593C209.353 23.912 209.01 23.622 210.092 24.941C210.229 25.1331 210.398 25.2999 210.592 25.434C210.917 25.6021 211.274 25.7009 211.639 25.724C212.39 25.8574 213.105 26.1462 213.738 26.5719C214.372 26.9976 214.909 27.5507 215.316 28.196C215.552 28.6824 215.848 29.1376 216.196 29.551C216.625 29.9052 217.122 30.1685 217.656 30.325C218.83 30.6189 219.88 31.2779 220.656 32.207C221.096 32.867 221.236 33.685 221.676 34.344C222.166 34.9415 222.707 35.4949 223.294 35.998C224.757 37.6513 225.583 39.7717 225.625 41.979C225.791 45.2636 225.718 48.556 225.405 51.83C224.959 54.4494 224.666 57.0926 224.526 59.746C224.464 61.4 224.28 62.974 224.209 64.619C223.919 71.128 223.971 76.537 223.673 83.09C223.303 90.927 223.33 92.642 223.004 95.659C222.604 99.259 221.131 105.818 215.968 109.917C210.752 114.132 199.573 103.366 202.704 88.132Z" fill="#FFBDA7"/>
<path d="M121.556 107.641C122.031 110.447 123.148 113.587 121.943 117.052C120.738 120.517 119.043 122.672 116.112 126.63C122.812 133.579 137.802 136.807 148.788 136.085C163.881 135.1 167.602 129.049 167.602 129.049L169.465 109.191L121.556 107.641Z" fill="#FFBDA7"/>
<path d="M178.684 83.207C173.684 70.233 157.056 58.207 157.056 58.207C154.708 57.97 153.898 57.565 143.704 57.961C138.163 58.172 130.326 58.788 125.523 59.439C121.653 61.9275 118.71 65.6215 117.15 69.95C116.209 72.413 115.294 81.49 116.191 85.263C118.064 93.179 121.873 109.82 121.873 109.82C132.542 118.466 162.236 118.07 169.237 112.459C169.237 112.459 169.791 107.182 170.231 102.942C179.123 98.3 181.129 89.548 178.684 83.207Z" fill="#455A64"/>
<path d="M169.237 112.523C169.637 109.532 169.949 106.366 170.231 103.006C166.131 102.663 164.901 100.948 157.038 104.123C149.175 107.298 146.114 107.323 137.617 106.41C129.12 105.497 119.744 100.675 119.744 100.675L121.855 109.858C132.542 118.469 162.236 118.073 169.237 112.523Z" fill="#8276F4"/>
<path opacity="0.2" d="M169.237 112.523C169.637 109.532 169.949 106.366 170.231 103.006C166.131 102.663 164.901 100.948 157.038 104.123C149.175 107.298 146.114 107.323 137.617 106.41C129.12 105.497 119.744 100.675 119.744 100.675L121.855 109.858C132.542 118.469 162.236 118.073 169.237 112.523Z" fill="black"/>
<path d="M159.544 103.182C159.544 103.182 150.608 106.582 142.964 103.27C134.705 99.69 133.588 92.249 134.335 89.347C134.335 89.347 130.527 101.142 140.923 105.434C151.109 109.646 159.544 103.182 159.544 103.182Z" fill="#37474F"/>
<path d="M113.895 129.436L119.955 121.318C119.955 121.318 129.155 128.979 145.515 129.991C163.106 131.082 168.173 122.954 168.173 122.954L168.252 134.573C168.252 134.573 162.095 142.401 144.917 140.862C120.096 138.618 113.895 129.436 113.895 129.436Z" fill="#263238"/>
<path d="M91.413 149.218C89.962 146.228 88.913 144.046 88.959 142.991C89.135 141.302 92.011 145.391 93.242 146.175C94.2094 146.899 95.4222 147.215 96.62 147.055C97.394 147.011 98.581 146.175 98.441 145.384C98.441 145.226 98.283 145.138 98.168 145.023C96.5668 143.117 95.1335 141.076 93.884 138.923C92.7952 137.124 91.4701 135.479 89.944 134.033C87.9814 132.101 86.703 129.581 86.303 126.856C85.239 116.504 85.423 108.614 85.679 98.631C95.495 94.858 110.685 89.536 114.502 88.199C119.137 86.572 121.275 85.208 122.471 84.171C126.79 80.459 128.857 77.249 130.194 72.534C131.232 68.849 131.733 61.17 131.206 58.804C123.492 58.971 120.554 58.874 112.418 61.944C107.418 63.826 98.187 68.215 90.318 72.006C83.5865 75.3438 77.0943 79.1439 70.888 83.379C68.645 84.945 65.901 86.579 66.367 92.579C66.7473 98.2359 67.4373 103.868 68.434 109.449C69.182 113.849 69.797 115.826 71.125 123.049C71.38 124.439 71.749 126.629 72.163 129.206C72.577 131.783 72.796 135.363 72.963 138.006C73.1117 140.7 73.4915 143.377 74.098 146.006C74.698 148.319 76.957 153.825 78.663 155.356C79.263 155.893 79.974 156.007 80.536 156.543C81.098 157.079 81.416 157.801 81.996 158.302C82.928 159.058 83.696 158.802 85.057 158.619C85.5898 158.522 86.1393 158.592 86.631 158.819C87.0632 159.126 87.4651 159.473 87.831 159.857C88.5154 160.394 89.3374 160.726 90.2025 160.817C91.0676 160.907 91.9406 160.751 92.721 160.367C94.076 161.334 94.744 161.827 96.072 162.795C96.2717 162.966 96.5307 163.052 96.793 163.033C96.8738 163.015 96.9492 162.979 97.0133 162.927C97.0775 162.875 97.1284 162.808 97.162 162.733C97.603 162.078 97.7702 161.276 97.628 160.499C97.3828 159.067 96.757 157.727 95.816 156.62C94.2225 154.23 92.7529 151.759 91.413 149.218Z" fill="#FFBDA7"/>
<path d="M175.613 21.453C175.551 24.971 174.313 28.973 166.413 34.189C165.331 34.901 141.152 47.743 136.013 50.289C136.013 50.289 132.108 41.828 128.739 37.236C123.69 30.349 123.796 16.036 132.257 13.488C132.889 10.9539 134.137 8.61549 135.892 6.68104C137.647 4.7466 139.852 3.27624 142.313 2.40099C156.905 -2.85001 175.93 2.57699 175.613 21.453Z" fill="#263238"/>
<path d="M129.314 38.067C125.914 38.199 125.057 41.427 124.705 44.743C124.081 44.5746 123.422 44.5816 122.801 44.7631C122.181 44.9447 121.622 45.2937 121.187 45.772C120.116 46.8483 119.377 48.2101 119.058 49.695C115.733 49.167 114.819 49.625 113.218 50.469C112.256 51.0858 111.391 51.8417 110.65 52.712C108.712 51.6161 106.474 51.1693 104.264 51.437C103.543 51.5153 102.848 51.7483 102.225 52.1203C101.603 52.4922 101.068 52.9943 100.658 53.592C100.232 52.9052 99.6621 52.3186 98.9881 51.8722C98.3141 51.4259 97.5517 51.1304 96.753 51.006C95.3729 50.7587 93.9499 50.9558 92.689 51.569C92.6197 51.0348 92.404 50.5302 92.0656 50.111C91.7273 49.6918 91.2796 49.3744 90.772 49.194C88.643 48.57 87.711 49.537 86.372 49.317C85.8345 49.2451 85.3266 49.0289 84.9023 48.6913C84.4779 48.3538 84.153 47.9075 83.962 47.4C83.9239 48.3487 84.123 49.2919 84.5413 50.1442C84.9596 50.9965 85.584 51.731 86.3577 52.2812C87.1315 52.8314 88.0303 53.1798 88.9728 53.2951C89.9152 53.4103 90.8715 53.2886 91.755 52.941C91.139 55.729 96.25 56.741 97.912 55.254C99.803 58.227 104.949 58.931 107.543 56.222C109.843 59.679 116.189 58.386 117.289 54.991C119.789 56.75 123.446 56.891 124.405 53.531C126.622 53.9 129.867 54.613 130.835 51.42C131.625 51.7603 132.495 51.8723 133.345 51.7432C134.195 51.6142 134.993 51.2493 135.646 50.69C137.053 49.511 136.877 47.356 137.097 45.571C137.485 42.474 133.448 35.833 129.314 38.067Z" fill="#263238"/>
<path d="M141.25 32.307C137.864 31.955 136.562 35.034 135.744 38.262C135.151 38.0106 134.5 37.9268 133.863 38.0199C133.225 38.1131 132.625 38.3794 132.129 38.79C130.924 39.7091 130.008 40.9547 129.49 42.379C126.271 41.385 125.303 41.702 123.597 42.309C122.567 42.7896 121.61 43.4146 120.756 44.165C118.989 42.8017 116.83 42.043 114.599 42.001C113.862 41.967 113.126 42.0951 112.444 42.3762C111.762 42.6573 111.149 43.0846 110.65 43.628C110.323 42.8877 109.838 42.2272 109.231 41.6921C108.624 41.1569 107.908 40.7597 107.132 40.528C105.8 40.0914 104.364 40.0914 103.032 40.528C103.042 39.9871 102.902 39.4539 102.627 38.988C102.352 38.522 101.953 38.1415 101.475 37.889C99.452 37.009 98.396 37.789 97.13 37.389C96.6089 37.2426 96.1373 36.9575 95.7655 36.564C95.3937 36.1706 95.1357 35.6836 95.019 35.155C94.8466 36.0885 94.91 37.0503 95.2036 37.953C95.4971 38.8558 96.0115 39.6709 96.7 40.3244C97.3885 40.978 98.2294 41.4492 99.1462 41.6954C100.063 41.9415 101.027 41.9548 101.95 41.734C100.939 44.373 105.864 46.134 107.694 44.9C109.154 48.11 114.124 49.527 117.094 47.213C118.853 50.96 125.353 50.582 126.919 47.38C129.144 49.429 132.777 50.124 134.167 46.94C136.304 47.617 139.444 48.778 140.825 45.761C141.561 46.2094 142.408 46.4422 143.269 46.4328C144.131 46.4234 144.972 46.1723 145.698 45.708C147.255 44.741 147.387 42.586 147.862 40.853C148.717 37.831 145.656 30.724 141.25 32.307Z" fill="#263238"/>
<path d="M170.459 14.935C170.459 14.935 173.476 18.62 172.324 28.445C172.124 30.151 173.107 33.274 172.799 37.619C172.104 47.505 168.63 52.176 163.572 53.689C161.329 54.366 157.472 54.041 155.401 53.627L154.521 60.338C154.521 60.338 165.076 70.822 154.838 72.291C150.238 72.959 144.723 70.347 141.029 67.014C138.637 64.7806 136.579 62.2154 134.916 59.397L136.886 43.415C136.886 43.415 133.948 45.456 130.728 41.885C127.21 37.953 127.79 32.148 130.965 30.292C135.627 27.574 138.441 31.172 139.303 33.37C140.165 35.568 142.768 36.009 143.331 31.154C143.409 30.0613 143.314 28.9631 143.05 27.9C147.272 26.071 149.84 21.893 148.019 15.5C155.665 19.285 165.437 19.285 170.459 14.935Z" fill="#FFBDA7"/>
<path d="M136.869 35.552C136.88 35.9242 136.8 36.2935 136.638 36.6287C136.476 36.9639 136.235 37.2552 135.937 37.478C135.602 37.7258 135.208 37.8832 134.794 37.935C134.548 37.935 134.644 38.335 134.899 39.492L135.066 40.231C135.116 40.4118 135.093 40.6048 135.002 40.7691C134.912 40.9334 134.761 41.056 134.582 41.111C134.402 41.161 134.21 41.1394 134.046 41.0508C133.882 40.9623 133.759 40.8136 133.702 40.636L132.374 36.423C132.169 35.8158 132.211 35.1522 132.492 34.576C132.773 33.9998 133.269 33.5575 133.874 33.345C134.219 33.2451 134.583 33.2261 134.937 33.2895C135.291 33.3529 135.626 33.4969 135.915 33.7104C136.204 33.924 136.44 34.2012 136.605 34.5208C136.77 34.8403 136.859 35.1935 136.865 35.553L136.869 35.552Z" fill="#FAFAFA"/>
<path d="M144.076 36.572C144.296 38.234 146.398 39.325 148.776 39.017C151.154 38.709 152.901 37.108 152.69 35.446C152.479 33.784 150.368 32.693 147.99 33.001C145.612 33.309 143.827 34.91 144.076 36.572Z" fill="#F0997A"/>
<path d="M168.7 35.5C168.7 37.18 170.573 38.578 172.975 38.631C175.377 38.684 177.375 37.382 177.375 35.702C177.375 34.022 175.502 32.624 173.109 32.571C170.716 32.518 168.77 33.829 168.7 35.5Z" fill="#F0997A"/>
<path d="M154.759 40.979L160.784 42.844C160.578 43.6384 160.065 44.3185 159.358 44.7353C158.65 45.152 157.807 45.2713 157.012 45.067L156.897 45.034C156.085 44.7668 155.408 44.1947 155.009 43.4383C154.61 42.6819 154.521 41.8002 154.759 40.979Z" fill="#B16668"/>
<path d="M154.495 25.033L150.095 26.792C149.838 26.2427 149.809 25.6137 150.015 25.0433C150.222 24.4728 150.646 24.0077 151.195 23.75C151.236 23.732 151.278 23.713 151.32 23.696C151.92 23.471 152.583 23.4841 153.174 23.7328C153.764 23.9814 154.237 24.4466 154.495 25.033Z" fill="#263238"/>
<path d="M166.062 25.112L170.462 27.047C170.733 26.5023 170.777 25.8724 170.585 25.2951C170.393 24.7178 169.98 24.2403 169.436 23.967C169.4 23.949 169.364 23.932 169.327 23.916C168.734 23.6527 168.062 23.6302 167.453 23.8534C166.843 24.0766 166.345 24.5279 166.062 25.112Z" fill="#263238"/>
<path d="M160.608 27.873V38.673L166.932 37.037L160.608 27.873Z" fill="#F0997A"/>
<path d="M155.375 53.592C152.648 53.038 145.875 50.725 142.639 48.315C141.052 46.8874 139.869 45.067 139.209 43.037C139.209 43.037 139.367 47.919 141.901 50.223C145.929 53.873 155.001 56.582 155.001 56.582L155.375 53.592Z" fill="#F0997A"/>
<path d="M165.675 30.232C165.707 30.7094 165.919 31.157 166.268 31.4837C166.618 31.8104 167.079 31.9918 167.557 31.991C168.023 31.9907 168.471 31.8053 168.8 31.4754C169.13 31.1456 169.315 30.6983 169.315 30.232C169.286 29.7553 169.076 29.3079 168.727 28.9809C168.379 28.654 167.92 28.4723 167.442 28.473C167.211 28.4718 166.982 28.5161 166.768 28.6034C166.554 28.6907 166.36 28.8193 166.196 28.9818C166.031 29.1443 165.901 29.3376 165.811 29.5505C165.722 29.7635 165.675 29.992 165.674 30.223L165.675 30.232Z" fill="#263238"/>
<path d="M151.857 30.119C151.806 30.6022 151.945 31.0863 152.243 31.4699C152.541 31.8534 152.976 32.1068 153.457 32.177C153.918 32.2501 154.389 32.1373 154.766 31.8633C155.144 31.5893 155.397 31.1766 155.47 30.716C155.47 30.693 155.477 30.669 155.48 30.647C155.531 30.1638 155.392 29.6797 155.094 29.2961C154.796 28.9125 154.361 28.6592 153.88 28.589C153.419 28.5158 152.948 28.6287 152.571 28.9027C152.193 29.1766 151.94 29.5893 151.867 30.05C151.863 30.07 151.859 30.094 151.857 30.119Z" fill="#263238"/>
<path d="M154.751 42.729C154.997 42.7114 155.244 42.7114 155.49 42.729C156.165 42.8332 156.808 43.0912 157.367 43.4831C157.927 43.8749 158.389 44.3902 158.718 44.989C158.126 45.1781 157.489 45.1781 156.897 44.989C156.377 44.8246 155.908 44.5311 155.533 44.1358C155.157 43.7405 154.888 43.2565 154.751 42.729Z" fill="#F28F8F"/>
<path d="M34.655 359.935C53.3084 359.935 68.43 344.813 68.43 326.16C68.43 307.507 53.3084 292.385 34.655 292.385C16.0016 292.385 0.880005 307.507 0.880005 326.16C0.880005 344.813 16.0016 359.935 34.655 359.935Z" fill="white"/>
<path d="M34.655 359.055C28.148 359.055 21.7871 357.125 16.3767 353.51C10.9664 349.895 6.74949 344.757 4.25937 338.745C1.76925 332.734 1.11772 326.119 2.38717 319.737C3.65662 313.355 6.79004 307.492 11.3912 302.891C15.9923 298.29 21.8546 295.157 28.2365 293.887C34.6185 292.618 41.2336 293.269 47.2453 295.759C53.257 298.249 58.3953 302.466 62.0104 307.877C65.6255 313.287 67.555 319.648 67.555 326.155C67.5567 330.474 66.7076 334.751 65.0562 338.742C63.4048 342.733 60.9835 346.36 57.9304 349.415C54.8773 352.47 51.2524 354.894 47.2626 356.548C43.2727 358.202 38.9961 359.054 34.677 359.055H34.659H34.655ZM34.659 360.814C41.513 360.813 48.2128 358.78 53.9113 354.972C59.6098 351.163 64.051 345.75 66.6733 339.418C69.2956 333.085 69.9813 326.118 68.6436 319.395C67.3059 312.673 64.0049 306.499 59.158 301.652C54.3112 296.806 48.1361 293.506 41.4138 292.169C34.6914 290.833 27.7236 291.519 21.3915 294.143C15.0594 296.766 9.6473 301.208 5.83966 306.907C2.03202 312.606 -0.000197718 319.306 1.44279e-08 326.16C0.00926569 335.348 3.66339 344.157 10.1605 350.655C16.6575 357.152 25.4668 360.806 34.655 360.815L34.659 360.814Z" fill="#8276F4"/>
<path d="M143.579 317.145C143.579 316.734 143.457 316.333 143.229 315.992C143.001 315.65 142.677 315.384 142.297 315.227C141.918 315.07 141.501 315.029 141.098 315.109C140.695 315.189 140.325 315.387 140.035 315.677C139.745 315.967 139.547 316.337 139.467 316.74C139.387 317.143 139.428 317.56 139.585 317.939C139.742 318.319 140.008 318.643 140.35 318.871C140.691 319.099 141.092 319.221 141.503 319.221H141.512C142.061 319.219 142.587 318.999 142.974 318.61C143.362 318.221 143.579 317.694 143.579 317.145Z" fill="#8276F4"/>
<path d="M141.512 316.705H108.828L97.42 325.721H67.55V326.601H97.728L109.136 317.585H141.513L141.512 316.705Z" fill="#8276F4"/>
<path d="M10.783 342.765C10.7091 342.522 10.6707 342.271 10.669 342.017C10.6637 341.977 10.6665 341.936 10.6771 341.896C10.6878 341.857 10.7061 341.82 10.731 341.788L14.205 336.748C14.4225 336.436 14.6139 336.107 14.777 335.763C14.8835 335.519 14.9403 335.256 14.944 334.989C14.9539 334.815 14.9243 334.64 14.8572 334.479C14.7902 334.317 14.6876 334.173 14.557 334.057C14.2624 333.825 13.8931 333.71 13.519 333.732C13.2388 333.724 12.9601 333.775 12.701 333.882C12.4505 333.988 12.2093 334.114 11.98 334.26C11.872 334.353 11.7418 334.417 11.602 334.445C11.4968 334.433 11.3962 334.396 11.309 334.336C11.2218 334.276 11.1507 334.196 11.102 334.102C10.9544 333.923 10.8682 333.701 10.856 333.469C10.868 333.325 10.9153 333.187 10.9936 333.065C11.0719 332.944 11.1788 332.844 11.305 332.774C11.6451 332.551 12.0239 332.392 12.422 332.308C12.8647 332.197 13.3195 332.141 13.776 332.141C14.6173 332.093 15.4459 332.363 16.098 332.897C16.3749 333.15 16.5932 333.461 16.7376 333.807C16.882 334.153 16.949 334.527 16.934 334.902C16.9332 335.374 16.8376 335.84 16.653 336.274C16.3673 336.853 16.0225 337.402 15.624 337.91L13.152 341.587H16.582C16.644 341.583 16.706 341.596 16.7617 341.623C16.8174 341.651 16.8647 341.693 16.899 341.745C16.98 341.902 17.0147 342.079 16.999 342.255V342.492C17.0139 342.668 16.9792 342.845 16.899 343.002C16.8647 343.054 16.8174 343.096 16.7617 343.124C16.706 343.151 16.644 343.164 16.582 343.16H11.058C10.95 343.161 10.862 343.029 10.783 342.765Z" fill="#455A64"/>
<path d="M18.779 342.969C18.137 342.769 17.811 342.485 17.811 342.133C17.8331 341.899 17.9151 341.675 18.049 341.482C18.207 341.215 18.3566 341.082 18.498 341.082C18.6251 341.109 18.745 341.163 18.85 341.24C19.0992 341.364 19.3545 341.476 19.615 341.574C19.8706 341.657 20.1384 341.695 20.407 341.688C20.8468 341.699 21.275 341.546 21.607 341.257C21.7775 341.086 21.909 340.881 21.9925 340.654C22.0761 340.428 22.1096 340.186 22.091 339.946C22.1088 339.704 22.0766 339.462 21.9964 339.233C21.9162 339.005 21.7898 338.795 21.625 338.618C21.2182 338.306 20.7108 338.156 20.2 338.196H19.628C19.5666 338.201 19.505 338.19 19.4494 338.163C19.3938 338.137 19.346 338.097 19.311 338.046C19.2284 337.886 19.1917 337.706 19.205 337.527V337.289C19.1917 337.112 19.2284 336.936 19.311 336.779C19.3436 336.726 19.3907 336.682 19.4467 336.654C19.5028 336.626 19.5656 336.615 19.628 336.621H20.05C20.2766 336.637 20.504 336.603 20.7165 336.523C20.929 336.442 21.1215 336.317 21.281 336.155C21.5655 335.863 21.7236 335.471 21.721 335.064C21.7335 334.711 21.6144 334.367 21.387 334.097C21.2529 333.967 21.0926 333.866 20.9168 333.802C20.7409 333.738 20.5535 333.713 20.367 333.727C20.1169 333.721 19.8675 333.755 19.628 333.827C19.4421 333.893 19.2624 333.975 19.091 334.073C18.9981 334.134 18.8971 334.181 18.791 334.214C18.668 334.214 18.518 334.082 18.351 333.827C18.2076 333.635 18.1222 333.406 18.105 333.167C18.105 332.85 18.369 332.604 18.914 332.419C19.5011 332.224 20.1165 332.129 20.735 332.137C21.5246 332.093 22.3014 332.351 22.908 332.858C23.1749 333.111 23.3839 333.419 23.5206 333.761C23.6573 334.102 23.7185 334.47 23.7 334.837C23.7156 335.331 23.5756 335.817 23.3 336.227C23.0271 336.618 22.6487 336.922 22.209 337.106V337.168C22.7632 337.354 23.2399 337.719 23.564 338.206C23.9032 338.729 24.0774 339.342 24.064 339.965C24.0814 340.578 23.9358 341.185 23.642 341.724C23.3745 342.208 22.9708 342.603 22.481 342.859C21.9576 343.123 21.378 343.256 20.792 343.246C20.1109 343.255 19.4324 343.161 18.779 342.969Z" fill="#455A64"/>
<path d="M26.404 343.117C26.0609 343.047 25.7331 342.916 25.436 342.73C25.3384 342.68 25.2549 342.606 25.1934 342.516C25.1318 342.425 25.0942 342.32 25.084 342.211C25.114 341.97 25.2083 341.742 25.357 341.551C25.5443 341.27 25.7027 341.129 25.832 341.129C25.9549 341.172 26.0729 341.228 26.184 341.296C26.4037 341.41 26.6333 341.504 26.87 341.577C27.1556 341.661 27.4525 341.699 27.75 341.691C27.9578 341.697 28.1643 341.657 28.3546 341.573C28.5448 341.489 28.7141 341.364 28.85 341.207C29.16 340.829 29.317 340.349 29.29 339.861C29.3253 339.607 29.3011 339.349 29.2193 339.106C29.1375 338.863 29.0004 338.642 28.8188 338.461C28.6372 338.28 28.416 338.144 28.1727 338.063C27.9294 337.983 27.6707 337.96 27.417 337.996H26.035C25.9602 338.002 25.8849 337.993 25.8138 337.968C25.7428 337.944 25.6775 337.906 25.622 337.855C25.5316 337.727 25.4911 337.571 25.508 337.415L25.808 332.833C25.8007 332.67 25.8542 332.51 25.958 332.384C26.0834 332.287 26.2401 332.24 26.398 332.252H30.462C30.5251 332.248 30.588 332.262 30.644 332.291C30.6999 332.32 30.7466 332.365 30.779 332.419C30.854 332.578 30.8884 332.753 30.879 332.929V333.29C30.8877 333.437 30.8529 333.584 30.779 333.712C30.7414 333.759 30.6927 333.795 30.6373 333.818C30.5819 333.841 30.5216 333.85 30.462 333.844H27.612L27.445 336.421H27.832C30.1247 336.421 31.274 337.564 31.28 339.851C31.3263 340.34 31.2582 340.833 31.0812 341.291C30.9042 341.749 30.623 342.159 30.26 342.49C29.5565 343.042 28.6822 343.332 27.788 343.308C27.3205 343.303 26.8555 343.239 26.404 343.117Z" fill="#455A64"/>
<path d="M40.829 342.969C40.829 343.127 40.583 343.198 40.099 343.198H39.404C39.2686 343.206 39.1329 343.188 39.004 343.145C38.9223 343.098 38.8599 343.023 38.828 342.934L37.069 339.275H36.911V342.75C36.911 343.05 36.647 343.199 36.128 343.199H35.741C35.213 343.199 34.949 343.049 34.949 342.75V331.86C34.949 331.57 35.213 331.42 35.741 331.42H36.128C36.647 331.42 36.911 331.57 36.911 331.86V338.518H36.99L38.644 335.246C38.6851 335.149 38.7601 335.071 38.855 335.026C38.9837 334.983 39.1195 334.965 39.255 334.973H39.897C40.39 334.973 40.627 335.061 40.627 335.228C40.6136 335.342 40.5775 335.453 40.521 335.553L38.762 338.887L40.688 342.66C40.755 342.753 40.8029 342.858 40.829 342.969Z" fill="#455A64"/>
<path d="M42.193 342.247C41.6506 341.281 41.3658 340.193 41.3658 339.085C41.3658 337.978 41.6506 336.889 42.193 335.923C42.4985 335.572 42.8817 335.297 43.3123 335.12C43.7428 334.942 44.2087 334.868 44.673 334.903C45.1867 334.896 45.6966 334.992 46.173 335.184C46.613 335.378 46.833 335.597 46.833 335.852C46.8131 336.084 46.7376 336.307 46.613 336.503C46.472 336.776 46.332 336.903 46.213 336.903C46.1249 336.885 46.0412 336.849 45.967 336.798C45.7974 336.703 45.6209 336.621 45.439 336.552C45.2511 336.495 45.0553 336.468 44.859 336.473C44.6382 336.462 44.4186 336.512 44.2245 336.618C44.0303 336.724 43.8693 336.881 43.759 337.073C43.466 337.693 43.3389 338.378 43.39 339.061C43.3445 339.75 43.462 340.44 43.733 341.075C43.8391 341.273 43.9999 341.437 44.1964 341.546C44.3929 341.655 44.6167 341.706 44.841 341.691C45.0554 341.697 45.2693 341.667 45.474 341.603C45.6579 341.535 45.8373 341.456 46.011 341.365L46.152 341.286C46.1927 341.279 46.2343 341.279 46.275 341.286C46.416 341.286 46.548 341.418 46.688 341.686C46.8092 341.886 46.8815 342.113 46.899 342.346C46.899 342.511 46.776 342.669 46.53 342.821C46.2586 342.989 45.9612 343.111 45.65 343.182C45.331 343.265 45.0034 343.309 44.674 343.314C44.2055 343.346 43.7362 343.265 43.3048 343.08C42.8734 342.894 42.4924 342.609 42.193 342.247Z" fill="#455A64"/>
<path d="M48.376 342.625C47.9549 342.043 47.7594 341.328 47.8258 340.613C47.8922 339.898 48.216 339.231 48.737 338.737C49.5803 338.145 50.6044 337.868 51.631 337.954V337.532C51.6491 337.386 51.633 337.238 51.584 337.099C51.5349 336.96 51.4544 336.835 51.3486 336.732C51.2428 336.63 51.1147 336.554 50.9744 336.51C50.8341 336.465 50.6854 336.454 50.54 336.477C50.2928 336.47 50.0462 336.504 49.81 336.577C49.5794 336.655 49.3534 336.746 49.133 336.85C49.049 336.916 48.9489 336.959 48.843 336.973C48.702 336.973 48.553 336.832 48.377 336.551C48.2404 336.352 48.153 336.123 48.122 335.883C48.122 335.713 48.245 335.555 48.491 335.408C48.7889 335.236 49.1128 335.114 49.45 335.047C49.8476 334.951 50.2551 334.904 50.664 334.906C51.4637 334.842 52.2575 335.087 52.881 335.592C53.1242 335.839 53.3131 336.134 53.4357 336.458C53.5583 336.782 53.6119 337.128 53.593 337.474V340.574C53.5827 341.092 53.6162 341.61 53.693 342.122C53.7356 342.32 53.765 342.52 53.781 342.722C53.781 342.871 53.614 342.977 53.271 343.056C52.9829 343.128 52.6879 343.169 52.391 343.179C52.321 343.181 52.2519 343.163 52.1913 343.127C52.1308 343.092 52.0812 343.041 52.048 342.979C51.955 342.773 51.8843 342.558 51.837 342.337C51.646 342.609 51.3966 342.834 51.107 342.997C50.7844 343.185 50.4161 343.279 50.043 343.27C49.7345 343.295 49.4245 343.249 49.1359 343.138C48.8473 343.026 48.5875 342.851 48.376 342.625ZM51.155 341.587C51.3483 341.472 51.5112 341.312 51.63 341.121V339.23C50.302 339.23 49.63 339.723 49.63 340.716C49.6144 340.99 49.6954 341.261 49.859 341.481C49.943 341.576 50.0479 341.65 50.1654 341.697C50.2828 341.745 50.4097 341.764 50.536 341.754C50.7531 341.756 50.9665 341.698 51.153 341.587H51.155Z" fill="#455A64"/>
<path d="M56.116 342.74C55.7315 342.272 55.5453 341.672 55.597 341.069V331.86C55.597 331.57 55.878 331.42 56.424 331.42H56.741C57.286 331.42 57.568 331.57 57.568 331.86V341.06C57.5564 341.228 57.5932 341.396 57.674 341.544C57.7105 341.595 57.7597 341.636 57.8167 341.662C57.8737 341.688 57.9365 341.699 57.999 341.693C58.0751 341.702 58.1519 341.702 58.228 341.693C58.2863 341.684 58.3457 341.684 58.404 341.693C58.516 341.693 58.6127 341.816 58.694 342.062C58.7673 342.265 58.8088 342.479 58.817 342.695C58.817 342.906 58.676 343.073 58.404 343.179C58.1207 343.276 57.8235 343.327 57.524 343.329C57.2607 343.338 56.9986 343.29 56.7556 343.188C56.5126 343.087 56.2944 342.934 56.116 342.74Z" fill="#455A64"/>
<path d="M33.028 326.257L30.987 318.165L35.701 319.845L33.942 310.724L39.624 322.616L34.232 321.807L36.765 326.258C36.765 326.258 40.943 326.038 43.133 322.907C45.323 319.776 46.484 315.176 43.793 311.525C43.063 315.925 38.753 312.185 38.832 309.484C38.911 306.783 38.832 299.562 32.992 297.232C34.672 298.912 34.311 305.474 31.901 306.784C29.491 308.094 28.691 305.544 29.711 304.145C27.38 304.585 26.58 306.335 26.8 308.816C27.02 311.297 29.439 313.698 28.251 315.852C27.063 318.006 24.97 315.122 25.56 312.562C23.185 314.937 23.59 320.662 26.141 323.062C27.9902 324.903 30.4283 326.034 33.028 326.257Z" fill="#8276F4"/>
<path d="M273.764 330.487C292.417 330.487 307.539 315.365 307.539 296.712C307.539 278.059 292.417 262.937 273.764 262.937C255.111 262.937 239.989 278.059 239.989 296.712C239.989 315.365 255.111 330.487 273.764 330.487Z" fill="white"/>
<path d="M273.76 329.607C267.253 329.607 260.892 327.677 255.482 324.062C250.071 320.447 245.854 315.309 243.364 309.297C240.874 303.286 240.223 296.67 241.492 290.288C242.762 283.907 245.895 278.044 250.496 273.443C255.097 268.842 260.96 265.709 267.341 264.439C273.723 263.17 280.339 263.821 286.35 266.311C292.362 268.801 297.5 273.018 301.115 278.429C304.73 283.839 306.66 290.2 306.66 296.707C306.66 305.433 303.194 313.801 297.024 319.971C290.854 326.141 282.486 329.607 273.76 329.607ZM273.76 331.366C280.614 331.366 287.314 329.333 293.013 325.526C298.712 321.718 303.154 316.305 305.777 309.973C308.4 303.641 309.086 296.673 307.749 289.95C306.412 283.228 303.111 277.053 298.265 272.206C293.418 267.36 287.243 264.059 280.521 262.722C273.798 261.385 266.83 262.071 260.498 264.694C254.166 267.317 248.753 271.759 244.945 277.458C241.137 283.157 239.105 289.857 239.105 296.711C239.114 305.899 242.768 314.709 249.265 321.206C255.762 327.703 264.572 331.358 273.76 331.367V331.366Z" fill="#8276F4"/>
<path d="M195.747 287.697C195.745 287.286 195.865 286.884 196.092 286.542C196.318 286.2 196.642 285.932 197.02 285.773C197.399 285.615 197.816 285.572 198.219 285.65C198.622 285.729 198.993 285.925 199.285 286.214C199.576 286.503 199.775 286.872 199.857 287.274C199.939 287.677 199.9 288.094 199.744 288.474C199.589 288.854 199.324 289.18 198.984 289.409C198.643 289.639 198.243 289.762 197.832 289.764H197.814C197.266 289.764 196.74 289.546 196.352 289.159C195.965 288.771 195.747 288.245 195.747 287.697Z" fill="#8276F4"/>
<path d="M197.814 287.248H216.021L227.429 296.272H240.869V297.152H227.13L215.714 288.128H197.814V287.248Z" fill="#8276F4"/>
<path d="M275.91 293.001C278.979 294.628 280.704 290.952 281.733 288.454L277.01 286.176C277.01 286.176 272.884 291.391 275.91 293.001ZM283.923 269.719C279.481 269.332 278.311 274.856 278.329 277.011C278.4 279.092 278.288 281.176 277.995 283.238L282.718 285.516C284.179 283.658 285.419 281.636 286.412 279.491C287.661 276.491 288.321 270.101 283.923 269.718V269.719Z" fill="#8276F4"/>
<path d="M266.112 290.775L261.054 289.438C260.174 292.015 259.145 295.938 262.532 296.686C265.919 297.434 266.112 290.775 266.112 290.775ZM263.312 279.64C262.678 281.915 262.309 284.255 262.212 286.615L267.287 287.952C268.4 286.189 269.669 284.528 271.078 282.991C272.485 281.373 275.186 276.412 271.562 273.817C267.938 271.222 264.291 276.499 263.315 279.64H263.312Z" fill="#8276F4"/>
<path d="M252.004 313.841C251.935 313.68 251.905 313.506 251.916 313.331V313.067C251.902 312.889 251.932 312.711 252.004 312.548C252.037 312.495 252.084 312.451 252.14 312.423C252.196 312.396 252.259 312.384 252.321 312.39H254.121V304.896L252.239 305.196C252.081 305.196 251.975 305.064 251.905 304.818C251.835 304.569 251.799 304.312 251.8 304.053C251.8 303.853 251.923 303.719 252.161 303.666L255.512 303.006C255.646 303.011 255.776 303.051 255.89 303.12C256.022 303.191 256.09 303.278 256.09 303.366V312.39H257.533C257.596 312.385 257.66 312.397 257.717 312.425C257.774 312.453 257.823 312.495 257.858 312.548C257.935 312.71 257.969 312.888 257.958 313.067V313.296C257.968 313.475 257.934 313.653 257.858 313.815C257.82 313.865 257.771 313.904 257.714 313.93C257.657 313.956 257.595 313.968 257.533 313.964H252.3C252.244 313.97 252.188 313.962 252.136 313.94C252.085 313.919 252.039 313.885 252.004 313.841Z" fill="#455A64"/>
<path d="M259.761 312.684C258.693 310.025 258.693 307.057 259.761 304.398C259.985 303.972 260.321 303.616 260.732 303.368C261.144 303.119 261.616 302.988 262.096 302.988C262.577 302.988 263.049 303.119 263.461 303.368C263.872 303.616 264.208 303.972 264.432 304.398C265.51 307.055 265.51 310.027 264.432 312.684C264.208 313.109 263.872 313.466 263.461 313.714C263.049 313.963 262.577 314.094 262.096 314.094C261.616 314.094 261.144 313.963 260.732 313.714C260.321 313.466 259.985 313.109 259.761 312.684ZM262.699 312.191C262.905 311.816 263.03 311.403 263.068 310.977C263.244 309.36 263.244 307.73 263.068 306.113C263.031 305.684 262.906 305.268 262.699 304.89C262.636 304.786 262.547 304.699 262.44 304.639C262.334 304.579 262.214 304.547 262.092 304.547C261.97 304.546 261.849 304.577 261.743 304.638C261.636 304.698 261.547 304.785 261.485 304.89C261.278 305.268 261.153 305.684 261.116 306.113C260.94 307.73 260.94 309.36 261.116 310.977C261.154 311.403 261.279 311.816 261.485 312.191C261.547 312.296 261.636 312.383 261.743 312.443C261.849 312.504 261.97 312.535 262.092 312.534C262.215 312.533 262.335 312.499 262.442 312.438C262.548 312.376 262.637 312.288 262.699 312.182V312.191Z" fill="#455A64"/>
<path d="M266.13 313.573V312.28C266.13 311.99 266.394 311.849 266.922 311.849H267.36C267.888 311.849 268.152 311.99 268.152 312.28V313.573C268.152 313.881 267.888 314.03 267.36 314.03H266.92C266.394 314.029 266.13 313.881 266.13 313.573Z" fill="#455A64"/>
<path d="M269.023 313.599C268.947 313.36 268.906 313.111 268.9 312.86C268.894 312.776 268.916 312.692 268.962 312.622L272.436 307.591C272.657 307.278 272.848 306.945 273.008 306.597C273.118 306.357 273.175 306.096 273.175 305.832C273.185 305.656 273.155 305.48 273.088 305.318C273.021 305.155 272.919 305.009 272.788 304.891C272.492 304.663 272.124 304.547 271.75 304.566C271.473 304.562 271.198 304.613 270.941 304.716C270.688 304.823 270.444 304.949 270.211 305.094C270.107 305.19 269.98 305.256 269.842 305.287C269.735 305.277 269.632 305.24 269.543 305.18C269.454 305.12 269.382 305.039 269.332 304.944C269.191 304.758 269.108 304.535 269.095 304.302C269.106 304.159 269.152 304.021 269.229 303.9C269.305 303.779 269.411 303.678 269.535 303.607C269.878 303.383 270.26 303.225 270.661 303.141C271.102 303.034 271.553 302.978 272.007 302.974C272.848 302.926 273.677 303.196 274.329 303.73C274.614 303.979 274.84 304.288 274.993 304.634C275.145 304.981 275.219 305.357 275.209 305.735C275.21 306.208 275.111 306.675 274.919 307.107C274.638 307.687 274.296 308.235 273.899 308.743L271.419 312.42H274.849C274.911 312.416 274.973 312.429 275.029 312.456C275.084 312.484 275.132 312.526 275.166 312.578C275.25 312.737 275.287 312.917 275.272 313.097V313.326C275.285 313.505 275.249 313.685 275.166 313.845C275.13 313.894 275.082 313.934 275.026 313.96C274.971 313.986 274.91 313.998 274.849 313.995H269.325C269.19 313.995 269.093 313.863 269.023 313.599Z" fill="#455A64"/>
<path d="M284.75 313.793C284.75 313.951 284.513 314.03 284.02 314.03H283.334C283.199 314.038 283.063 314.02 282.934 313.977C282.891 313.956 282.854 313.927 282.823 313.89C282.793 313.854 282.771 313.812 282.758 313.766L280.999 310.098H280.841V313.572C280.841 313.88 280.586 314.029 280.067 314.029H279.68C279.144 314.029 278.88 313.879 278.88 313.572V302.702C278.88 302.412 279.144 302.262 279.68 302.262H280.067C280.586 302.262 280.841 302.411 280.841 302.702V309.351H280.92L282.574 306.079C282.618 305.984 282.692 305.906 282.785 305.859C282.92 305.825 283.059 305.81 283.198 305.815H283.84C284.324 305.815 284.57 305.894 284.57 306.061C284.557 306.178 284.521 306.292 284.464 306.395L282.705 309.729L284.64 313.502C284.696 313.59 284.734 313.689 284.75 313.793Z" fill="#455A64"/>
<path d="M294.812 306.317C295.164 306.817 295.332 307.423 295.287 308.032V313.571C295.287 313.879 295.023 314.028 294.495 314.028H294.108C293.572 314.028 293.308 313.878 293.308 313.571V308.417C293.328 308.144 293.267 307.872 293.132 307.634C293.067 307.545 292.981 307.473 292.881 307.427C292.78 307.381 292.67 307.361 292.56 307.37C292.363 307.368 292.171 307.434 292.015 307.555C291.846 307.675 291.7 307.824 291.584 307.995V313.571C291.584 313.879 291.311 314.028 290.784 314.028H290.384C289.856 314.028 289.592 313.878 289.592 313.571V308.417C289.61 308.143 289.546 307.871 289.407 307.634C289.344 307.545 289.26 307.473 289.161 307.427C289.062 307.38 288.953 307.361 288.844 307.37C288.623 307.365 288.409 307.444 288.244 307.59C288.087 307.727 287.956 307.891 287.857 308.074V313.574C287.861 313.644 287.845 313.713 287.811 313.774C287.777 313.835 287.726 313.885 287.664 313.917C287.477 314.006 287.27 314.045 287.064 314.031H286.664C286.145 314.031 285.881 313.881 285.881 313.574V308.437C285.892 307.92 285.866 307.402 285.802 306.889C285.749 306.581 285.723 306.396 285.723 306.344C285.778 306.246 285.855 306.162 285.948 306.1C286.041 306.037 286.148 305.997 286.259 305.983C286.57 305.908 286.889 305.867 287.209 305.86C287.279 305.852 287.351 305.865 287.414 305.898C287.477 305.931 287.528 305.982 287.561 306.045C287.629 306.183 287.674 306.332 287.693 306.485C287.702 306.628 287.725 306.769 287.763 306.907C287.991 306.555 288.291 306.255 288.643 306.027C288.985 305.812 289.382 305.699 289.786 305.702C290.152 305.692 290.513 305.79 290.824 305.984C291.131 306.191 291.35 306.505 291.44 306.864C291.666 306.529 291.967 306.252 292.32 306.055C292.684 305.842 293.099 305.732 293.52 305.738C293.765 305.73 294.009 305.778 294.233 305.879C294.456 305.979 294.655 306.129 294.812 306.317Z" fill="#455A64"/>
<path d="M251.045 215.818C269.698 215.818 284.82 200.696 284.82 182.043C284.82 163.39 269.698 148.268 251.045 148.268C232.392 148.268 217.27 163.39 217.27 182.043C217.27 200.696 232.392 215.818 251.045 215.818Z" fill="white"/>
<path d="M251.045 214.939C254.022 220.716 259.171 225.074 265.361 227.056C271.551 229.037 278.274 228.479 284.052 225.504C289.83 222.53 294.191 217.382 296.175 211.193C298.158 205.004 297.603 198.281 294.631 192.501C291.658 186.722 286.512 182.359 280.324 180.373C274.136 178.387 267.413 178.94 261.632 181.91C255.851 184.88 251.487 190.024 249.498 196.211C247.509 202.398 248.059 209.122 251.027 214.904L251.045 214.939ZM251.027 216.663C257.881 216.663 264.581 214.631 270.281 210.823C275.98 207.015 280.422 201.603 283.045 195.271C285.668 188.938 286.354 181.97 285.017 175.248C283.68 168.525 280.38 162.35 275.533 157.504C270.687 152.657 264.512 149.356 257.789 148.019C251.067 146.682 244.099 147.368 237.766 149.991C231.434 152.614 226.022 157.056 222.214 162.755C218.406 168.454 216.373 175.154 216.373 182.008C216.382 191.196 220.036 200.005 226.533 206.503C233.031 213 241.84 216.654 251.028 216.663H251.027Z" fill="#8276F4"/>
<path d="M174.734 173.023C174.734 172.612 174.856 172.211 175.084 171.87C175.312 171.528 175.636 171.262 176.016 171.105C176.395 170.948 176.812 170.907 177.215 170.987C177.618 171.067 177.988 171.265 178.278 171.555C178.568 171.845 178.766 172.215 178.846 172.618C178.926 173.021 178.885 173.438 178.728 173.817C178.571 174.197 178.305 174.521 177.963 174.749C177.622 174.977 177.221 175.099 176.81 175.099C176.259 175.099 175.731 174.88 175.342 174.491C174.953 174.102 174.734 173.574 174.734 173.023Z" fill="#8276F4"/>
<path d="M176.81 172.579H193.302L204.71 181.599H218.15V182.479H204.411L192.99 173.459H176.81V172.579Z" fill="#8276F4"/>
<path d="M227.895 197.118C226.816 194.459 226.816 191.483 227.895 188.824C228.107 188.392 228.439 188.029 228.85 187.778C229.261 187.527 229.735 187.399 230.217 187.408C230.701 187.399 231.178 187.527 231.592 187.777C232.006 188.028 232.341 188.391 232.557 188.824C233.636 191.483 233.636 194.459 232.557 197.118C232.332 197.541 231.997 197.895 231.586 198.142C231.175 198.389 230.705 198.52 230.226 198.52C229.747 198.52 229.277 198.389 228.866 198.142C228.455 197.895 228.12 197.541 227.895 197.118ZM230.833 196.618C231.031 196.241 231.154 195.828 231.194 195.404C231.37 193.787 231.37 192.157 231.194 190.54C231.154 190.116 231.031 189.703 230.833 189.326C230.77 189.22 230.68 189.133 230.573 189.072C230.466 189.012 230.345 188.98 230.221 188.98C230.098 188.98 229.977 189.012 229.87 189.072C229.763 189.133 229.673 189.22 229.61 189.326C229.412 189.703 229.289 190.116 229.249 190.54C229.073 192.157 229.073 193.787 229.249 195.404C229.289 195.828 229.412 196.241 229.61 196.618C229.673 196.724 229.763 196.812 229.87 196.872C229.977 196.933 230.098 196.965 230.221 196.965C230.345 196.965 230.466 196.933 230.573 196.872C230.68 196.812 230.77 196.724 230.833 196.618Z" fill="#455A64"/>
<path d="M235.045 197.119C233.978 194.457 233.978 191.487 235.045 188.825C235.269 188.399 235.605 188.043 236.016 187.795C236.428 187.546 236.9 187.415 237.381 187.415C237.861 187.415 238.333 187.546 238.745 187.795C239.156 188.043 239.492 188.399 239.716 188.825C240.795 191.484 240.795 194.46 239.716 197.119C239.492 197.545 239.156 197.901 238.745 198.149C238.333 198.398 237.861 198.529 237.381 198.529C236.9 198.529 236.428 198.398 236.016 198.149C235.605 197.901 235.269 197.545 235.045 197.119ZM237.983 196.619C238.189 196.244 238.315 195.831 238.353 195.405C238.529 193.788 238.529 192.158 238.353 190.541C238.315 190.115 238.189 189.702 237.983 189.327C237.934 189.247 237.87 189.178 237.794 189.123C237.718 189.068 237.633 189.029 237.542 189.007C237.451 188.985 237.356 188.982 237.264 188.996C237.171 189.011 237.083 189.044 237.003 189.093C236.908 189.152 236.828 189.232 236.769 189.327C236.563 189.702 236.438 190.115 236.4 190.541C236.224 192.158 236.224 193.788 236.4 195.405C236.438 195.831 236.563 196.244 236.769 196.619C236.818 196.699 236.882 196.768 236.958 196.823C237.034 196.878 237.12 196.917 237.211 196.939C237.302 196.961 237.396 196.964 237.488 196.95C237.581 196.935 237.669 196.902 237.749 196.853C237.844 196.794 237.924 196.713 237.983 196.618V196.619Z" fill="#455A64"/>
<path d="M241.414 191.991V190.698C241.414 190.399 241.678 190.249 242.206 190.249H242.646C243.174 190.249 243.438 190.399 243.438 190.698V191.991C243.438 192.281 243.174 192.431 242.646 192.431H242.206C241.704 192.43 241.414 192.279 241.414 191.991ZM241.414 198.007V196.714C241.414 196.424 241.678 196.274 242.206 196.274H242.646C243.174 196.274 243.438 196.424 243.438 196.714V198.007C243.438 198.306 243.174 198.456 242.646 198.456H242.206C241.678 198.455 241.414 198.306 241.414 198.007Z" fill="#455A64"/>
<path d="M247.931 198.007V196.081H244.501C244.395 196.081 244.29 195.931 244.176 195.632C244.069 195.391 244.009 195.131 244 194.867C243.984 194.812 243.984 194.755 244 194.7L247.624 187.8C247.688 187.682 247.796 187.594 247.924 187.554C248.096 187.507 248.274 187.486 248.452 187.492H249.077C249.596 187.492 249.86 187.642 249.86 187.941V194.503H250.502C250.565 194.498 250.629 194.511 250.686 194.538C250.743 194.566 250.792 194.608 250.827 194.661C250.904 194.823 250.938 195.001 250.927 195.18V195.409C250.937 195.588 250.903 195.766 250.827 195.928C250.789 195.978 250.74 196.018 250.683 196.044C250.627 196.07 250.564 196.082 250.502 196.078H249.93V198.013C249.93 198.313 249.666 198.462 249.147 198.462H248.747C248.191 198.456 247.931 198.306 247.931 198.007ZM247.931 194.489V192.422C247.932 191.734 247.979 191.046 248.072 190.364H248.002L245.882 194.507L247.931 194.489Z" fill="#455A64"/>
<path d="M252.77 198.394C252.426 198.321 252.097 198.186 251.802 197.994C251.704 197.944 251.621 197.87 251.559 197.78C251.498 197.689 251.46 197.584 251.45 197.475C251.48 197.234 251.574 197.006 251.723 196.815C251.908 196.534 252.066 196.402 252.198 196.402C252.322 196.44 252.44 196.493 252.55 196.56C252.768 196.678 252.998 196.773 253.236 196.842C253.522 196.926 253.819 196.964 254.116 196.956C254.328 196.964 254.539 196.925 254.734 196.841C254.929 196.758 255.102 196.631 255.242 196.472C255.551 196.09 255.708 195.607 255.682 195.117C255.742 194.683 255.627 194.242 255.362 193.893C255.097 193.544 254.704 193.314 254.27 193.254C254.116 193.232 253.96 193.232 253.806 193.254H252.434C252.36 193.261 252.285 193.254 252.214 193.231C252.143 193.208 252.077 193.171 252.021 193.122C251.931 192.991 251.89 192.831 251.907 192.673L252.207 188.09C252.199 187.93 252.253 187.772 252.357 187.65C252.417 187.598 252.487 187.559 252.563 187.535C252.638 187.51 252.718 187.502 252.797 187.509H256.861C256.924 187.505 256.987 187.519 257.043 187.548C257.099 187.577 257.146 187.622 257.178 187.676C257.248 187.836 257.278 188.011 257.266 188.186V188.529C257.278 188.675 257.248 188.822 257.178 188.951C257.14 188.998 257.092 189.034 257.036 189.057C256.981 189.08 256.921 189.089 256.861 189.083H254.02L253.853 191.66H254.24C256.538 191.66 257.687 192.803 257.688 195.09C257.735 195.58 257.667 196.074 257.488 196.532C257.309 196.99 257.025 197.4 256.659 197.729C255.959 198.281 255.087 198.57 254.196 198.547C253.716 198.553 253.238 198.502 252.77 198.394Z" fill="#455A64"/>
<path d="M258.653 191.991V190.698C258.653 190.399 258.917 190.249 259.445 190.249H259.885C260.413 190.249 260.677 190.399 260.677 190.698V191.991C260.677 192.281 260.413 192.431 259.885 192.431H259.445C258.917 192.43 258.653 192.279 258.653 191.991ZM258.653 198.007V196.714C258.653 196.424 258.917 196.274 259.445 196.274H259.885C260.413 196.274 260.677 196.424 260.677 196.714V198.007C260.677 198.306 260.413 198.456 259.885 198.456H259.445C258.917 198.455 258.653 198.306 258.653 198.007Z" fill="#455A64"/>
<path d="M261.766 198.262C261.691 198.106 261.657 197.934 261.666 197.762V197.524C261.656 197.348 261.69 197.173 261.766 197.014C261.799 196.961 261.846 196.917 261.902 196.889C261.958 196.861 262.021 196.85 262.083 196.856H263.883V189.362L262.001 189.652C261.843 189.652 261.728 189.529 261.667 189.283C261.598 189.034 261.562 188.777 261.561 188.518C261.568 188.424 261.609 188.336 261.677 188.27C261.746 188.205 261.836 188.168 261.93 188.166L265.281 187.506C265.415 187.508 265.546 187.547 265.659 187.62C265.791 187.69 265.852 187.77 265.852 187.866V196.89H267.321C267.383 196.885 267.446 196.897 267.502 196.925C267.557 196.953 267.605 196.995 267.638 197.048C267.721 197.205 267.757 197.381 267.744 197.558V197.795C267.757 197.972 267.721 198.148 267.638 198.305C267.605 198.358 267.557 198.4 267.502 198.428C267.446 198.456 267.383 198.468 267.321 198.463H262.088C262.02 198.467 261.952 198.45 261.895 198.414C261.837 198.378 261.792 198.325 261.766 198.262Z" fill="#455A64"/>
<path d="M270.009 198.394C269.665 198.321 269.337 198.186 269.042 197.994C268.944 197.944 268.861 197.87 268.799 197.78C268.738 197.689 268.7 197.584 268.69 197.475C268.72 197.234 268.814 197.006 268.963 196.815C269.148 196.534 269.306 196.402 269.438 196.402C269.562 196.44 269.68 196.493 269.79 196.56C270.008 196.678 270.238 196.773 270.476 196.842C270.762 196.926 271.059 196.964 271.356 196.956C271.568 196.963 271.778 196.923 271.973 196.839C272.167 196.756 272.341 196.63 272.482 196.472C272.791 196.09 272.947 195.607 272.922 195.117C272.952 194.902 272.939 194.683 272.884 194.473C272.829 194.263 272.733 194.066 272.601 193.893C272.47 193.72 272.306 193.574 272.119 193.465C271.931 193.355 271.724 193.283 271.509 193.254C271.355 193.232 271.199 193.232 271.045 193.254H269.673C269.599 193.261 269.524 193.254 269.453 193.231C269.382 193.208 269.316 193.171 269.26 193.122C269.17 192.991 269.129 192.831 269.146 192.673L269.436 188.09C269.435 187.929 269.491 187.773 269.594 187.65C269.654 187.598 269.724 187.559 269.8 187.535C269.875 187.51 269.955 187.502 270.034 187.509H274.098C274.161 187.505 274.224 187.519 274.28 187.548C274.336 187.577 274.383 187.622 274.415 187.676C274.485 187.836 274.515 188.011 274.503 188.186V188.529C274.515 188.675 274.485 188.822 274.415 188.951C274.377 188.998 274.329 189.034 274.273 189.057C274.218 189.08 274.158 189.089 274.098 189.083H271.248L271.081 191.66H271.468C273.767 191.66 274.913 192.803 274.907 195.09C274.955 195.579 274.888 196.073 274.711 196.531C274.534 196.989 274.252 197.4 273.887 197.729C273.184 198.283 272.309 198.573 271.415 198.547C270.942 198.552 270.47 198.501 270.009 198.394Z" fill="#455A64"/>
<path d="M258.583 173.027C257.954 174.378 256.974 175.534 255.744 176.376C254.515 177.218 253.082 177.714 251.595 177.812C250.109 177.91 248.623 177.607 247.294 176.934C245.965 176.261 244.841 175.243 244.04 173.987C243.239 172.731 242.79 171.282 242.741 169.793C242.691 168.304 243.043 166.829 243.759 165.523C244.475 164.216 245.529 163.126 246.811 162.367C248.093 161.608 249.555 161.207 251.045 161.206V169.518C251.045 169.518 256.525 172.121 258.583 173.027Z" fill="#8276F4"/>
<g opacity="0.5">
<path opacity="0.5" d="M258.582 173.027C257.953 174.378 256.973 175.534 255.743 176.376C254.514 177.218 253.081 177.714 251.595 177.812C250.108 177.91 248.622 177.607 247.293 176.934C245.964 176.261 244.84 175.243 244.039 173.987C243.238 172.731 242.789 171.282 242.74 169.793C242.69 168.304 243.042 166.829 243.758 165.523C244.474 164.216 245.528 163.126 246.81 162.367C248.092 161.608 249.554 161.207 251.044 161.206V169.518C251.044 169.518 256.524 172.121 258.582 173.027Z" fill="white"/>
</g>
<path d="M252.479 158.919V157.767H253.658C253.735 157.767 253.809 157.736 253.863 157.682C253.917 157.628 253.948 157.554 253.948 157.477V155.462C253.948 155.385 253.917 155.311 253.863 155.257C253.809 155.203 253.735 155.172 253.658 155.172H248.433C248.356 155.172 248.282 155.203 248.228 155.257C248.174 155.311 248.143 155.385 248.143 155.462V157.476C248.143 157.553 248.174 157.627 248.228 157.681C248.282 157.735 248.356 157.766 248.433 157.766H249.62V158.918C247.612 159.182 245.722 160.019 244.176 161.328L243.657 160.809L244.211 160.255C244.229 160.239 244.243 160.219 244.254 160.197C244.264 160.175 244.27 160.151 244.271 160.127C244.272 160.103 244.268 160.078 244.26 160.056C244.251 160.033 244.239 160.012 244.222 159.994L244.211 159.983L243.27 159.033C243.233 158.998 243.184 158.979 243.134 158.979C243.083 158.979 243.034 158.998 242.997 159.033L240.543 161.478C240.525 161.494 240.511 161.514 240.5 161.536C240.49 161.558 240.484 161.582 240.483 161.606C240.482 161.63 240.486 161.655 240.494 161.677C240.503 161.7 240.515 161.721 240.532 161.739L240.543 161.75L241.484 162.691C241.5 162.709 241.52 162.723 241.542 162.734C241.564 162.744 241.588 162.75 241.612 162.751C241.636 162.752 241.661 162.748 241.683 162.74C241.706 162.731 241.727 162.719 241.745 162.702L241.756 162.691L242.31 162.146L242.829 162.665C241.307 164.488 240.433 166.765 240.346 169.138C240.259 171.511 240.962 173.846 242.347 175.776C243.731 177.706 245.717 179.121 247.993 179.799C250.269 180.477 252.706 180.38 254.921 179.522C257.135 178.664 259.002 177.095 260.228 175.061C261.453 173.027 261.968 170.643 261.692 168.284C261.415 165.925 260.362 163.725 258.699 162.03C257.036 160.335 254.857 159.24 252.504 158.918L252.479 158.919ZM251.045 178.982C249.171 178.982 247.34 178.426 245.782 177.386C244.224 176.345 243.01 174.865 242.293 173.134C241.576 171.403 241.388 169.498 241.754 167.661C242.12 165.823 243.022 164.135 244.347 162.811C245.671 161.486 247.359 160.584 249.197 160.218C251.034 159.853 252.939 160.04 254.67 160.757C256.401 161.474 257.881 162.688 258.922 164.246C259.962 165.804 260.518 167.635 260.518 169.509V169.518C260.516 172.029 259.517 174.436 257.74 176.211C255.964 177.985 253.556 178.982 251.045 178.982Z" fill="#8276F4"/>
<path d="M284.336 89.628C302.989 89.628 318.111 74.5064 318.111 55.853C318.111 37.1996 302.989 22.078 284.336 22.078C265.683 22.078 250.561 37.1996 250.561 55.853C250.561 74.5064 265.683 89.628 284.336 89.628Z" fill="white"/>
<path d="M284.336 22.957C290.843 22.957 297.204 24.8866 302.614 28.5016C308.025 32.1167 312.242 37.255 314.732 43.2667C317.222 49.2784 317.873 55.8935 316.604 62.2755C315.334 68.6574 312.201 74.5197 307.6 79.1208C302.999 83.722 297.136 86.8554 290.754 88.1248C284.373 89.3943 277.757 88.7428 271.746 86.2526C265.734 83.7625 260.596 79.5456 256.981 74.1353C253.366 68.7249 251.436 62.364 251.436 55.857C251.436 47.1314 254.902 38.7631 261.072 32.5932C267.242 26.4232 275.61 22.957 284.336 22.957ZM284.336 21.198C277.482 21.1998 270.783 23.2338 265.085 27.0428C259.387 30.8518 254.947 36.2648 252.325 42.5973C249.704 48.9299 249.019 55.8976 250.357 62.6194C251.695 69.3412 254.996 75.5153 259.843 80.361C264.69 85.2066 270.865 88.5063 277.587 89.8428C284.31 91.1792 291.277 90.4924 297.609 87.8692C303.941 85.246 309.353 80.8041 313.16 75.1054C316.968 69.4066 319 62.7067 319 55.853C319 51.3013 318.103 46.7942 316.361 42.589C314.619 38.3839 312.066 34.5632 308.847 31.345C305.628 28.1269 301.806 25.5744 297.601 23.8334C293.395 22.0923 288.888 21.1968 284.336 21.198Z" fill="#8276F4"/>
<path d="M196.028 64.869C196.028 65.2796 196.15 65.681 196.378 66.0224C196.606 66.3638 196.93 66.6298 197.31 66.787C197.689 66.9441 198.106 66.9852 198.509 66.9051C198.912 66.825 199.282 66.6273 199.572 66.3369C199.862 66.0466 200.06 65.6767 200.14 65.274C200.22 64.8713 200.179 64.4539 200.022 64.0745C199.865 63.6952 199.599 63.371 199.257 63.1429C198.916 62.9148 198.515 62.793 198.104 62.793C197.831 62.793 197.561 62.8467 197.31 62.951C197.058 63.0554 196.829 63.2083 196.636 63.401C196.443 63.5938 196.29 63.8227 196.186 64.0745C196.082 64.3264 196.028 64.5964 196.028 64.869Z" fill="#8276F4"/>
<path d="M198.104 65.308H218.387L229.795 56.292H251.441V55.412H229.487L218.074 64.429H198.104V65.308Z" fill="#8276F4"/>
<path d="M278.548 35.385C275.925 36.4887 273.562 38.1272 271.608 40.196C271.39 40.4232 271.271 40.7277 271.277 41.0425C271.284 41.3574 271.415 41.6568 271.642 41.875C271.714 41.9434 271.794 42.0028 271.88 42.052C272.107 42.1872 272.373 42.2416 272.635 42.2064C272.897 42.1712 273.139 42.0484 273.322 41.858C275.058 40.0334 277.155 38.5898 279.479 37.619C279.753 37.5146 279.98 37.3167 280.122 37.0605C280.264 36.8043 280.31 36.5062 280.253 36.219C280.19 35.9084 280.006 35.6354 279.742 35.4597C279.479 35.2839 279.156 35.2197 278.845 35.281C278.742 35.302 278.642 35.337 278.548 35.385ZM303.176 47.312C303.266 47.5295 303.418 47.7153 303.614 47.8454C303.81 47.9755 304.041 48.044 304.276 48.042C304.436 48.0427 304.594 48.0129 304.742 47.954C305.033 47.8291 305.262 47.5945 305.381 47.3012C305.499 47.008 305.497 46.6798 305.375 46.388C303.819 42.6565 301.193 39.4695 297.827 37.2295C294.462 34.9895 290.508 33.7968 286.465 33.802H286.403C286.248 33.8031 286.095 33.8346 285.953 33.8948C285.81 33.9551 285.681 34.0428 285.572 34.153C285.463 34.2633 285.377 34.3938 285.319 34.5373C285.261 34.6807 285.232 34.8342 285.233 34.989V35.002C285.241 35.3231 285.374 35.6283 285.604 35.8525C285.834 36.0767 286.143 36.2021 286.464 36.202C290.034 36.1996 293.525 37.2541 296.497 39.2327C299.469 41.2112 301.789 44.0252 303.164 47.32L303.176 47.312ZM305.771 53.029C305.453 53.029 305.147 53.1554 304.922 53.3805C304.697 53.6055 304.571 53.9107 304.571 54.229V54.317C304.575 57.8961 303.515 61.3956 301.526 64.3712C299.537 67.3468 296.709 69.6641 293.4 71.029C293.148 71.1387 292.942 71.3314 292.815 71.575C292.688 71.8186 292.649 72.0982 292.703 72.3674C292.758 72.6365 292.903 72.8788 293.115 73.0538C293.326 73.2288 293.591 73.3259 293.866 73.329C294.023 73.3254 294.179 73.2915 294.323 73.229C298.069 71.6808 301.271 69.0539 303.522 65.6821C305.772 62.3104 306.97 58.3458 306.962 54.292V54.204C306.957 53.8894 306.828 53.5895 306.603 53.369C306.379 53.1485 306.077 53.025 305.762 53.025L305.771 53.029Z" fill="#8276F4"/>
<path opacity="0.5" d="M278.548 35.385C275.925 36.4887 273.562 38.1272 271.608 40.196C271.39 40.4232 271.271 40.7277 271.277 41.0425C271.284 41.3574 271.415 41.6568 271.642 41.875C271.714 41.9434 271.794 42.0028 271.88 42.052C272.107 42.1872 272.373 42.2416 272.635 42.2064C272.897 42.1712 273.139 42.0484 273.322 41.858C275.058 40.0334 277.155 38.5898 279.479 37.619C279.753 37.5146 279.98 37.3167 280.122 37.0605C280.264 36.8043 280.31 36.5062 280.253 36.219C280.19 35.9084 280.006 35.6354 279.742 35.4597C279.479 35.2839 279.156 35.2197 278.845 35.281C278.742 35.302 278.642 35.337 278.548 35.385ZM303.176 47.312C303.266 47.5295 303.418 47.7153 303.614 47.8454C303.81 47.9755 304.041 48.044 304.276 48.042C304.436 48.0427 304.594 48.0129 304.742 47.954C305.033 47.8291 305.262 47.5945 305.381 47.3012C305.499 47.008 305.497 46.6798 305.375 46.388C303.819 42.6565 301.193 39.4695 297.827 37.2295C294.462 34.9895 290.508 33.7968 286.465 33.802H286.403C286.248 33.8031 286.095 33.8346 285.953 33.8948C285.81 33.9551 285.681 34.0428 285.572 34.153C285.463 34.2633 285.377 34.3938 285.319 34.5373C285.261 34.6807 285.232 34.8342 285.233 34.989V35.002C285.241 35.3231 285.374 35.6283 285.604 35.8525C285.834 36.0767 286.143 36.2021 286.464 36.202C290.034 36.1996 293.525 37.2541 296.497 39.2327C299.469 41.2112 301.789 44.0252 303.164 47.32L303.176 47.312ZM305.771 53.029C305.453 53.029 305.147 53.1554 304.922 53.3805C304.697 53.6055 304.571 53.9107 304.571 54.229V54.317C304.575 57.8961 303.515 61.3956 301.526 64.3712C299.537 67.3468 296.709 69.6641 293.4 71.029C293.148 71.1387 292.942 71.3314 292.815 71.575C292.688 71.8186 292.649 72.0982 292.703 72.3674C292.758 72.6365 292.903 72.8788 293.115 73.0538C293.326 73.2288 293.591 73.3259 293.866 73.329C294.023 73.3254 294.179 73.2915 294.323 73.229C298.069 71.6808 301.271 69.0539 303.522 65.6821C305.772 62.3104 306.97 58.3458 306.962 54.292V54.204C306.957 53.8894 306.828 53.5895 306.603 53.369C306.379 53.1485 306.077 53.025 305.762 53.025L305.771 53.029Z" fill="white"/>
<path d="M269.252 56.724L267.836 55.844C266.638 55.138 265.507 54.3225 264.459 53.408C262.937 52.053 261.521 50.479 261.53 48.131C261.544 47.1281 261.94 46.1683 262.638 45.448C263.008 45.0396 263.458 44.7117 263.961 44.4848C264.463 44.2578 265.007 44.1367 265.558 44.129C266.29 44.0399 267.032 44.1704 267.69 44.5039C268.348 44.8374 268.891 45.3588 269.252 46.002C269.614 45.362 270.157 44.8429 270.812 44.5098C271.468 44.1766 272.207 44.0442 272.937 44.129C273.483 44.1364 274.021 44.2548 274.52 44.4771C275.019 44.6994 275.467 45.0209 275.837 45.422L275.899 45.492C276.573 46.2066 276.953 47.1488 276.963 48.131C276.963 50.488 275.556 52.071 274.034 53.408C272.981 54.3267 271.843 55.1424 270.634 55.844L269.252 56.724ZM265.874 44.902H265.601C265.156 44.9065 264.717 45.0017 264.31 45.1817C263.903 45.3617 263.538 45.6228 263.235 45.949C262.678 46.5329 262.364 47.3063 262.355 48.113C262.355 50.154 263.63 51.57 264.994 52.792C266.001 53.6809 267.094 54.4674 268.257 55.14L269.251 55.765L270.227 55.149C271.391 54.4707 272.487 53.6814 273.499 52.792C274.889 51.569 276.138 50.153 276.138 48.113C276.128 47.3145 275.813 46.55 275.258 45.976L275.197 45.892C274.895 45.5803 274.535 45.3319 274.136 45.1612C273.737 44.9905 273.309 44.9011 272.875 44.898C272.261 44.8208 271.638 44.9391 271.095 45.236C270.552 45.5329 270.116 45.9933 269.849 46.552L269.26 47.563L268.66 46.552C268.411 46.0321 268.013 45.5978 267.517 45.3041C267.022 45.0103 266.45 44.8704 265.874 44.902Z" fill="#8276F4"/>
<path d="M262.048 72.67C261.965 72.5009 261.929 72.3128 261.943 72.125V71.865C261.93 71.6773 261.966 71.4894 262.048 71.32C262.088 71.2645 262.141 71.22 262.202 71.1907C262.264 71.1615 262.332 71.1485 262.4 71.153H264.872V60.99L262.233 61.412C262.075 61.412 261.96 61.28 261.881 61.025C261.8 60.7629 261.759 60.4903 261.758 60.216C261.758 59.996 261.89 59.855 262.158 59.785L266.283 58.905C266.441 58.9048 266.596 58.9473 266.732 59.028C266.793 59.0548 266.846 59.0975 266.884 59.1517C266.923 59.2059 266.946 59.2696 266.952 59.336V71.184H268.975C269.042 71.1789 269.109 71.1917 269.169 71.2211C269.229 71.2504 269.281 71.2952 269.318 71.351C269.4 71.5204 269.436 71.7083 269.423 71.896V72.151C269.437 72.3388 269.401 72.5269 269.318 72.696C269.281 72.7524 269.23 72.7978 269.17 72.8273C269.109 72.8567 269.042 72.8691 268.975 72.863H262.396C262.326 72.864 262.257 72.8467 262.196 72.8128C262.135 72.779 262.084 72.7297 262.048 72.67Z" fill="#455A64"/>
<path d="M272.603 72.811C272.116 72.7244 271.645 72.5674 271.203 72.345C270.842 72.152 270.658 71.932 270.658 71.694C270.686 71.4378 270.787 71.195 270.948 70.994C271.133 70.704 271.3 70.563 271.432 70.563C271.593 70.5992 271.748 70.6617 271.889 70.748C272.201 70.9058 272.524 71.0395 272.856 71.148C273.216 71.2523 273.589 71.3028 273.964 71.298C274.605 71.316 275.23 71.1003 275.723 70.691C275.984 70.4449 276.186 70.143 276.314 69.808C276.442 69.4729 276.492 69.1134 276.462 68.756C276.491 68.4173 276.446 68.0764 276.329 67.7573C276.212 67.4381 276.026 67.1485 275.785 66.909C275.218 66.4964 274.524 66.2971 273.824 66.346H273.05C272.983 66.3479 272.916 66.3328 272.856 66.302C272.796 66.2713 272.745 66.2259 272.707 66.17C272.615 66.0038 272.576 65.814 272.593 65.625V65.371C272.576 65.1846 272.616 64.9974 272.707 64.834C272.745 64.78 272.797 64.737 272.857 64.7092C272.918 64.6815 272.984 64.6701 273.05 64.676H273.701C274.168 64.6957 274.629 64.5695 275.02 64.315C275.351 64.0974 275.616 63.793 275.785 63.435C275.932 63.1056 276.007 62.7487 276.005 62.388C276.014 61.9144 275.848 61.4541 275.539 61.095C275.336 60.9015 275.093 60.7542 274.827 60.6631C274.562 60.572 274.279 60.5392 274 60.567C273.664 60.5584 273.328 60.6029 273.006 60.699C272.75 60.7893 272.501 60.8951 272.258 61.016C272.131 61.0996 271.992 61.1621 271.845 61.201C271.713 61.201 271.555 61.051 271.37 60.761C271.213 60.5472 271.116 60.2951 271.089 60.031C271.089 59.697 271.441 59.424 272.136 59.151C272.821 58.9506 273.533 58.8558 274.247 58.87C275.245 58.8068 276.231 59.1209 277.009 59.75C277.353 60.069 277.623 60.4597 277.799 60.8945C277.975 61.3293 278.054 61.7975 278.029 62.266C278.047 62.8964 277.855 63.515 277.484 64.025C277.113 64.507 276.617 64.8781 276.05 65.098V65.177C276.762 65.3892 277.382 65.8356 277.809 66.444C278.295 67.1473 278.539 67.9898 278.504 68.844C278.524 69.6238 278.335 70.3948 277.959 71.078C277.611 71.6861 277.088 72.1761 276.459 72.485C275.794 72.8087 275.062 72.9714 274.322 72.96C273.745 72.9677 273.17 72.9178 272.603 72.811Z" fill="#455A64"/>
<path d="M281.6 72.793C281.175 72.6985 280.769 72.5317 280.4 72.3C280.11 72.107 279.969 71.9 279.969 71.711C279.998 71.4514 280.098 71.2049 280.259 70.999C280.459 70.709 280.629 70.559 280.759 70.559C280.902 70.5815 281.039 70.6354 281.159 70.717C281.478 70.901 281.813 71.0569 282.159 71.183C282.52 71.2956 282.898 71.3489 283.276 71.341C283.588 71.3463 283.897 71.2868 284.185 71.1663C284.473 71.0458 284.732 70.8669 284.947 70.641C285.417 70.1025 285.656 69.4013 285.615 68.688C285.639 68.3349 285.589 67.9805 285.466 67.6485C285.343 67.3165 285.151 67.0143 284.903 66.762C284.302 66.2878 283.546 66.0556 282.783 66.111H281.2C281.113 66.1214 281.025 66.1134 280.942 66.0875C280.859 66.0617 280.782 66.0186 280.716 65.961C280.614 65.8154 280.567 65.6381 280.584 65.461L280.936 59.673C280.936 59.4916 281.001 59.3164 281.121 59.18C281.258 59.0645 281.435 59.0076 281.613 59.022H286.644C286.712 59.0175 286.78 59.0305 286.842 59.0597C286.903 59.089 286.956 59.1335 286.996 59.189C287.079 59.358 287.116 59.5461 287.102 59.734V60.051C287.115 60.2222 287.079 60.3935 286.996 60.544C286.955 60.5979 286.902 60.6406 286.84 60.6682C286.779 60.6959 286.711 60.7075 286.644 60.702H282.844L282.607 64.431H283.319C284.434 64.3918 285.528 64.7363 286.419 65.407C286.868 65.8188 287.215 66.3299 287.432 66.8996C287.649 67.4692 287.73 68.0816 287.668 68.688C287.727 69.3002 287.645 69.9179 287.427 70.493C287.208 71.0682 286.861 71.5852 286.41 72.004C285.542 72.6945 284.458 73.0558 283.349 73.024C282.759 73.0177 282.172 72.9402 281.6 72.793Z" fill="#455A64"/>
</svg>
