<svg width="375" height="812" viewBox="0 0 375 812" fill="none" xmlns="http://www.w3.org/2000/svg">
<rect width="375" height="812" fill="white"/>
<path d="M17.4775 26.2393C16.5752 26.2393 15.8073 25.9954 15.1738 25.5078C14.5404 25.0156 14.1507 24.3639 14.0049 23.5527H15.7617C15.8757 23.9264 16.0853 24.2227 16.3906 24.4414C16.7005 24.6556 17.0674 24.7627 17.4912 24.7627C18.2113 24.7627 18.7741 24.446 19.1797 23.8125C19.5853 23.1745 19.7881 22.2904 19.7881 21.1602H19.7266H19.6924H19.6719C19.4395 21.6296 19.0999 21.9941 18.6533 22.2539C18.2067 22.5091 17.694 22.6367 17.1152 22.6367C16.1764 22.6367 15.3994 22.3268 14.7842 21.707C14.1735 21.0872 13.8682 20.3034 13.8682 19.3555C13.8682 18.3438 14.21 17.5143 14.8936 16.8672C15.5817 16.2155 16.4613 15.8896 17.5322 15.8896C18.2523 15.8896 18.8903 16.056 19.4463 16.3887C20.0023 16.7214 20.4466 17.2044 20.7793 17.8379C21.2441 18.6628 21.4766 19.7018 21.4766 20.9551C21.4766 22.6139 21.1234 23.9105 20.417 24.8447C19.7106 25.7744 18.7308 26.2393 17.4775 26.2393ZM16.1445 20.6953C16.5091 21.0553 16.974 21.2354 17.5391 21.2354C18.1042 21.2354 18.5713 21.0553 18.9404 20.6953C19.3096 20.3353 19.4941 19.8796 19.4941 19.3281C19.4941 18.7721 19.3073 18.305 18.9336 17.9268C18.5599 17.5485 18.0973 17.3594 17.5459 17.3594C16.9945 17.3594 16.5319 17.5462 16.1582 17.9199C15.7845 18.2891 15.5977 18.7493 15.5977 19.3008C15.5977 19.8659 15.7799 20.3307 16.1445 20.6953ZM24.5732 24.9541C24.2542 24.9541 23.9922 24.8516 23.7871 24.6465C23.582 24.4414 23.4795 24.1839 23.4795 23.874C23.4795 23.5596 23.582 23.3021 23.7871 23.1016C23.9922 22.8965 24.2542 22.7939 24.5732 22.7939C24.8968 22.7939 25.1589 22.8965 25.3594 23.1016C25.5645 23.3021 25.667 23.5596 25.667 23.874C25.667 24.1839 25.5645 24.4414 25.3594 24.6465C25.1589 24.8516 24.8968 24.9541 24.5732 24.9541ZM24.5732 19.8271C24.2542 19.8271 23.9922 19.7269 23.7871 19.5264C23.582 19.3213 23.4795 19.0638 23.4795 18.7539C23.4795 18.4395 23.582 18.182 23.7871 17.9814C23.9922 17.7764 24.2542 17.6738 24.5732 17.6738C24.8968 17.6738 25.1589 17.7764 25.3594 17.9814C25.5645 18.182 25.667 18.4395 25.667 18.7539C25.667 19.0638 25.5645 19.3213 25.3594 19.5264C25.1589 19.7269 24.8968 19.8271 24.5732 19.8271ZM32.4824 26V24.1611H27.6631V22.5889C28.4652 21.1123 29.805 18.9613 31.6826 16.1357H34.1709V22.6709H35.5039V24.1611H34.1709V26H32.4824ZM29.2969 22.6094V22.7119H32.5098V17.5713H32.4141C31.3477 19.1481 30.3086 20.8275 29.2969 22.6094ZM39.5439 26V17.9131H39.4277L36.9736 19.6357V17.9404L39.5508 16.1357H41.3076V26H39.5439Z" fill="white"/>
<path d="M293 22.67H294C294.55 22.67 295 23.12 295 23.67V25.67C295 26.22 294.55 26.67 294 26.67H293C292.45 26.67 292 26.22 292 25.67V23.67C292 23.11 292.45 22.67 293 22.67ZM297.67 20.67H298.67C299.22 20.67 299.67 21.12 299.67 21.67V25.67C299.67 26.22 299.22 26.67 298.67 26.67H297.67C297.12 26.67 296.67 26.22 296.67 25.67V21.67C296.67 21.11 297.11 20.67 297.67 20.67ZM302.33 18.33H303.33C303.88 18.33 304.33 18.78 304.33 19.33V25.66C304.33 26.21 303.88 26.66 303.33 26.66H302.33C301.78 26.66 301.33 26.21 301.33 25.66V19.33C301.33 18.78 301.78 18.33 302.33 18.33ZM307 16H308C308.55 16 309 16.45 309 17V25.67C309 26.22 308.55 26.67 308 26.67H307C306.45 26.67 306 26.22 306 25.67V17C306 16.45 306.45 16 307 16Z" fill="white"/>
<path d="M322.65 18.281C324.87 18.281 327 19.131 328.6 20.661C328.72 20.781 328.91 20.781 329.03 20.661L330.19 19.491C330.25 19.431 330.28 19.351 330.28 19.261C330.28 19.171 330.24 19.091 330.18 19.031C325.96 14.991 319.32 14.991 315.1 19.031C315.04 19.091 315 19.171 315 19.261C315 19.351 315.03 19.431 315.09 19.491L316.25 20.661C316.37 20.781 316.56 20.781 316.68 20.661C318.3 19.131 320.43 18.281 322.65 18.281ZM322.65 22.081C323.87 22.081 325.04 22.531 325.94 23.351C326.06 23.471 326.25 23.461 326.37 23.341L327.52 22.171C327.58 22.111 327.61 22.031 327.61 21.941C327.61 21.851 327.57 21.771 327.51 21.711C324.76 19.151 320.51 19.151 317.76 21.711C317.7 21.771 317.66 21.851 317.66 21.941C317.66 22.031 317.69 22.111 317.75 22.171L318.9 23.341C319.02 23.461 319.21 23.461 319.33 23.351C320.26 22.531 321.43 22.081 322.65 22.081ZM324.87 24.861C324.93 24.801 324.97 24.721 324.96 24.631C324.96 24.541 324.92 24.461 324.86 24.401C323.58 23.321 321.72 23.321 320.44 24.401C320.38 24.461 320.34 24.541 320.34 24.631C320.34 24.721 320.37 24.801 320.43 24.861L322.43 26.881C322.49 26.941 322.57 26.971 322.65 26.971C322.73 26.971 322.81 26.941 322.87 26.881L324.87 24.861Z" fill="white"/>
<path d="M340.17 16.5H356.84C358.31 16.5 359.51 17.69 359.51 19.17V25.17C359.51 26.64 358.32 27.84 356.84 27.84H340.17C338.7 27.84 337.5 26.65 337.5 25.17V19.17C337.5 17.69 338.69 16.5 340.17 16.5Z" stroke="white" stroke-miterlimit="10"/>
<path d="M340.17 16.5H356.84C358.31 16.5 359.51 17.69 359.51 19.17V25.17C359.51 26.64 358.32 27.84 356.84 27.84H340.17C338.7 27.84 337.5 26.65 337.5 25.17V19.17C337.5 17.69 338.69 16.5 340.17 16.5Z" stroke="white" stroke-miterlimit="10"/>
<path d="M340.83 18.5H356.16C356.9 18.5 357.49 19.1 357.49 19.83V24.5C357.49 25.24 356.89 25.83 356.16 25.83H340.83C340.1 25.83 339.5 25.24 339.5 24.5V19.83C339.5 19.1 340.1 18.5 340.83 18.5Z" fill="white"/>
<path d="M360.84 20.1101V24.1101C361.64 23.7701 362.17 22.9801 362.17 22.1101C362.17 21.2401 361.64 20.4501 360.84 20.1101Z" fill="white"/>
<path d="M165.384 340.953C170.475 340.953 174.601 336.813 174.601 331.706C174.601 326.599 170.475 322.459 165.384 322.459C160.294 322.459 156.167 326.599 156.167 331.706C156.167 336.813 160.294 340.953 165.384 340.953Z" fill="#FF508B"/>
<path d="M144.849 340.953C149.939 340.953 154.066 336.813 154.066 331.706C154.066 326.599 149.939 322.459 144.849 322.459C139.758 322.459 135.631 326.599 135.631 331.706C135.631 336.813 139.758 340.953 144.849 340.953Z" fill="#FF508B"/>
<path d="M121.122 450.102C126.212 450.102 130.339 445.962 130.339 440.855C130.339 435.748 126.212 431.608 121.122 431.608C116.031 431.608 111.905 435.748 111.905 440.855C111.905 445.962 116.031 450.102 121.122 450.102Z" fill="#FF508B"/>
<path d="M100.586 450.102C105.677 450.102 109.803 445.962 109.803 440.855C109.803 435.748 105.677 431.608 100.586 431.608C95.4958 431.608 91.3691 435.748 91.3691 440.855C91.3691 445.962 95.4958 450.102 100.586 450.102Z" fill="#FF508B"/>
<path d="M147.018 420.236C151.268 415.663 154.045 410.968 155.868 407.046C156.686 405.29 159.227 405.432 159.809 407.277C161.26 411.877 163.55 417.345 167.234 422.97C169.686 426.718 172.29 429.82 174.738 432.344C176.179 433.831 174.884 436.292 172.846 435.929C169.377 435.309 165.075 433.668 161.936 429.573C160.16 427.255 159.253 424.8 158.813 422.639C158.588 421.54 157.105 421.372 156.602 422.371C155.517 424.526 153.861 426.902 151.346 428.926C146.52 432.817 140.997 433.442 136.868 433.169C134.788 433.032 134.133 430.298 135.925 429.226C139.305 427.197 143.235 424.305 147.018 420.231V420.236Z" fill="#FF508B"/>
<path d="M266.071 336.874C265.914 343.298 264.017 348.581 262.004 352.44C261.04 354.291 262.859 356.352 264.803 355.61C271.389 353.097 280.963 350.91 291.747 353.355C293.555 353.765 295.258 354.27 296.84 354.843C299.067 355.642 300.896 352.913 299.277 351.178C296.992 348.734 293.796 346.279 289.494 344.944C282.954 342.92 277.342 344.57 274.759 345.585C274.36 345.743 273.957 345.385 274.062 344.97C274.659 342.646 275.424 338.015 273.611 332.836C272.458 329.545 270.63 327.085 268.801 325.292C267.161 323.689 264.483 325.261 265.033 327.485C265.693 330.139 266.155 333.304 266.065 336.869L266.071 336.874Z" fill="#FF508B"/>
<path d="M309.006 368.24C299.433 355.849 280.207 357.295 276.403 357.684C257.597 359.597 245.655 373.281 235.594 384.81C233.969 386.677 232.162 388.874 230.254 391.429C228.735 389.868 227.435 388.511 226.434 387.497C226.361 387.418 225.68 386.367 224.433 385.594C223.945 385.294 223.374 384.973 222.892 385.157C222.651 385.252 222.195 385.567 221.855 385.799C221.828 385.82 221.797 385.841 221.755 385.872C221.43 386.135 221.315 386.461 221.289 386.529C219.224 391.697 217.406 397.233 213.748 401.418C211.327 404.188 201.712 415.144 190.257 412.137C183.252 410.308 177.807 403.847 175.711 395.724C189.927 395.987 198.736 389.41 244.224 357.962C253.855 351.296 260.866 346.47 259.928 341.839C258.97 337.118 251.031 338.7 236.689 330.557C225.675 324.295 221.766 318.486 211.233 317.214C210.505 317.119 206.926 316.715 202.288 317.351C198.264 317.892 188.177 319.207 181.245 327.586C176.398 333.448 175.171 340.02 174.883 343.905C174.799 345.045 175.884 345.913 176.984 345.576C183.865 343.484 196.079 341.008 210.258 344.572C217.537 346.402 223.327 349.319 227.493 351.916C223.385 355.844 204.494 373.061 177.121 371.794C172.866 371.594 145.728 370.385 134.588 352.211C125.386 337.202 134.43 322.613 127 318.166C118.475 313.061 96.9906 326.519 89.335 345.193C88.0774 348.252 81.2287 365.995 90.4983 377.792C91.1061 378.575 96.4614 385.21 105.055 386.761C112.454 388.096 116.625 384.642 127.016 386.687C130.741 387.428 133.697 388.054 134.703 390.288C136.49 394.273 131.108 401.339 125.161 404.593C116.483 409.324 106.931 405.739 104.578 404.856C94.5697 401.092 89.7647 392.628 85.8818 385.946C80.4217 376.583 78.2629 367.231 77.4978 359.744C77.3983 358.761 76.3765 358.172 75.4909 358.593C74.2543 359.177 72.9705 359.744 71.6238 360.302C67.8929 361.847 64.3402 363.02 61.0495 363.908C60.4311 364.076 60.0067 364.628 60.0015 365.27C59.9543 372.356 60.9499 395.146 78.4463 412.232C81.7422 415.465 101.79 435.042 123.573 428.045C135.882 424.087 149.511 411.464 147.913 397.349C147.153 390.683 143.113 382.723 136.034 378.612C123.626 371.405 109.582 381.577 105.254 375.474C102.608 371.746 105.312 364.471 109.242 360.444C109.881 359.786 114.613 355.071 120.555 355.854C126.031 356.574 129.473 361.563 130.904 363.582C148.647 388.517 154.83 390.719 158.021 392.354C161.631 393.663 164.938 394.484 167.825 394.972C167.825 394.957 167.83 394.946 167.83 394.93C167.888 394.951 167.951 394.978 168.024 395.009C167.961 394.993 167.898 394.988 167.825 394.972C167.752 395.372 167.668 395.882 167.584 396.497C167.584 396.497 167.427 397.585 167.322 398.673C165.577 417.831 175.507 428.655 175.507 428.655C177.907 431.268 180.983 434.617 185.777 435.342C192.914 436.43 198.772 431.157 202.949 427.288C213.051 417.894 218.47 405.424 221.42 395.235C221.666 397.817 222.138 400.361 222.803 402.821C219.69 408.236 216.651 414.55 214.036 421.815C213.701 422.762 213.895 423.813 214.534 424.575C216.505 426.936 218.485 429.302 220.456 431.657C221.797 433.265 224.344 432.887 225.187 430.968C227.006 426.825 228.934 422.883 230.956 419.155C234.991 424.313 240.158 428.576 246.184 431.494C264.996 440.594 284.771 433.045 296.053 423.261C311.841 409.566 320.456 383.065 309.012 368.245L309.006 368.24ZM287.711 407.469C279.406 413.651 265.755 417.936 255.296 412.857C251.282 410.907 246.325 406.901 241.557 402.537C255.6 383.927 271.834 374.375 285.295 377.009C289.32 377.792 295.021 380.047 301.152 386.892C300.255 390.393 297.222 400.377 287.716 407.469H287.711Z" fill="#2D2DB2"/>
<path d="M104.61 485.348C104.028 485.348 103.52 485.127 103.085 484.691C102.65 484.254 102.43 483.744 102.43 483.161C102.577 480.538 102.954 478.077 103.562 475.775C104.169 473.472 105.071 471.464 106.265 469.739C107.455 468.02 108.975 466.664 110.819 465.676C112.664 464.687 114.896 464.188 117.505 464.188C118.234 464.188 118.784 464.419 119.161 464.887C119.538 465.355 119.727 465.865 119.727 466.417C119.727 466.943 119.538 467.437 119.161 467.905C118.784 468.373 118.234 468.604 117.505 468.604H117.028C115.315 468.604 113.853 468.993 112.648 469.76C111.443 470.533 110.452 471.527 109.687 472.731C108.917 473.94 108.33 475.28 107.921 476.752C107.513 478.224 107.251 479.66 107.135 481.058H125.874V473.493C125.874 471.364 126.225 469.619 126.922 468.246C127.618 466.88 128.535 465.797 129.667 465.013C130.799 464.225 132.099 463.678 133.566 463.373C135.033 463.068 136.537 462.916 138.078 462.916C138.659 462.916 139.167 463.136 139.602 463.573C140.037 464.009 140.257 464.519 140.257 465.103V474.676C140.257 475.407 140.032 475.953 139.581 476.316C139.131 476.679 138.628 476.863 138.078 476.863C137.527 476.863 137.024 476.679 136.574 476.316C136.123 475.953 135.898 475.407 135.898 474.676V467.332C135.405 467.332 134.839 467.411 134.2 467.573C133.561 467.736 132.953 468.052 132.371 468.536C131.79 469.014 131.297 469.703 130.888 470.591C130.48 471.48 130.28 472.652 130.28 474.108V483.156C130.28 483.739 130.06 484.249 129.625 484.685C129.19 485.122 128.682 485.343 128.101 485.343H104.615L104.61 485.348Z" fill="#2D2DB2"/>
<path d="M146.614 485.348C145.917 485.348 145.387 485.122 145.021 484.67C144.659 484.218 144.476 483.729 144.476 483.208C144.476 482.656 144.659 482.157 145.021 481.721C145.382 481.284 145.911 481.063 146.614 481.063H156.549V472.273C156.549 471.632 156.496 471.006 156.397 470.391C156.297 469.782 156.119 469.219 155.873 468.709C155.626 468.199 155.275 467.752 154.825 467.374C154.374 466.995 153.803 466.717 153.106 466.543C151.654 466.191 150.926 465.465 150.926 464.356C150.926 463.804 151.109 463.299 151.471 462.847C151.833 462.395 152.378 462.169 153.106 462.169C154.065 462.169 155.008 462.379 155.941 462.805C156.868 463.226 157.707 463.82 158.445 464.577C159.184 465.334 159.787 466.259 160.253 467.353C160.72 468.446 160.95 469.65 160.95 470.959V481.058H167.705V485.343H146.614V485.348Z" fill="#2D2DB2"/>
<path d="M182.565 485.348C181.983 485.348 181.376 485.306 180.736 485.216C180.097 485.127 179.458 484.964 178.818 484.712C178.179 484.465 177.571 484.112 176.99 483.66C176.408 483.208 175.884 482.635 175.423 481.936C174.695 483.161 173.783 484.034 172.677 484.559C171.572 485.085 170.193 485.348 168.538 485.348H166.84V481.063H168.889C170.052 481.063 171.032 480.653 171.828 479.838C172.625 479.024 173.028 477.783 173.028 476.122V465.192C173.028 464.466 173.254 463.914 173.704 463.552C174.155 463.189 174.658 463.005 175.208 463.005C175.758 463.005 176.261 463.189 176.712 463.552C177.163 463.914 177.388 464.461 177.388 465.192V476.122C177.388 477.667 177.881 478.876 178.871 479.749C179.856 480.622 181.108 481.058 182.617 481.058H184.011V485.343H182.576L182.565 485.348Z" fill="#2D2DB2"/>
<path d="M183.131 485.348V481.063H184.567C186.076 481.063 187.244 480.559 188.072 479.555C188.9 478.55 189.314 477.215 189.314 475.554V453.868C189.314 453.137 189.539 452.591 189.99 452.228C190.441 451.865 190.944 451.681 191.494 451.681C192.044 451.681 192.547 451.865 192.998 452.228C193.449 452.591 193.674 453.137 193.674 453.868V475.727C193.674 477.157 193.454 478.461 193.019 479.639C192.584 480.822 191.96 481.831 191.143 482.677C190.331 483.524 189.34 484.181 188.182 484.643C187.019 485.111 185.725 485.343 184.305 485.343H183.126L183.131 485.348Z" fill="#2D2DB2"/>
<path d="M201.387 453.868C201.387 453.137 201.613 452.591 202.063 452.228C202.514 451.865 203.017 451.681 203.567 451.681C204.117 451.681 204.62 451.865 205.071 452.228C205.522 452.591 205.747 453.137 205.747 453.868V483.245C205.747 483.944 205.506 484.47 205.029 484.817C204.552 485.169 204.065 485.343 203.567 485.343C203.043 485.343 202.55 485.169 202.084 484.817C201.618 484.465 201.387 483.944 201.387 483.245V453.868Z" fill="#2D2DB2"/>
<path d="M240.126 485.348C239.545 485.348 238.879 485.253 238.12 485.064C237.365 484.875 236.684 484.559 236.071 484.123C235.521 484.559 234.866 484.875 234.111 485.064C233.356 485.253 232.659 485.348 232.02 485.348H229.536C228.693 485.348 227.896 485.469 227.142 485.721C226.387 485.968 225.732 486.357 225.182 486.878C224.632 487.403 224.192 488.066 223.877 488.865C223.558 489.664 223.4 490.621 223.4 491.73V492.824C223.4 493.523 223.159 494.048 222.682 494.395C222.206 494.748 221.703 494.921 221.179 494.921C220.655 494.921 220.162 494.748 219.696 494.395C219.229 494.043 218.999 493.523 218.999 492.824V491.73C218.999 490.621 219.187 489.443 219.565 488.187C219.942 486.936 220.55 485.784 221.393 484.733C222.237 483.681 223.332 482.809 224.684 482.109C226.036 481.41 227.697 481.058 229.673 481.058H231.805C231.281 480.59 230.694 480.059 230.039 479.46C229.384 478.861 228.761 478.288 228.164 477.73C227.566 477.178 227.047 476.695 226.597 476.29C226.146 475.88 225.863 475.617 225.748 475.501C225.313 475.065 224.957 474.65 224.679 474.255C224.401 473.861 224.265 473.446 224.265 473.009C224.265 471.9 224.548 470.728 225.114 469.487C225.68 468.246 226.471 467.111 227.488 466.075C228.504 465.04 229.741 464.188 231.192 463.52C232.644 462.847 234.273 462.516 236.071 462.516C237.868 462.516 239.461 462.853 240.928 463.52C242.395 464.193 243.637 465.045 244.654 466.075C245.67 467.111 246.462 468.246 247.028 469.487C247.593 470.728 247.876 471.9 247.876 473.009C247.876 473.446 247.74 473.861 247.462 474.255C247.185 474.65 246.818 475.065 246.352 475.501C246.263 475.591 246.121 475.727 245.917 475.917C245.712 476.106 245.466 476.337 245.178 476.616C244.89 476.894 244.56 477.199 244.198 477.536C243.836 477.872 243.48 478.198 243.129 478.519C242.285 479.276 241.342 480.122 240.294 481.053H253.237V485.337H240.121L240.126 485.348ZM236.076 479.97C236.453 479.591 236.977 479.081 237.643 478.44C238.308 477.799 238.995 477.141 239.692 476.474C240.388 475.806 241.059 475.154 241.698 474.529C242.338 473.903 242.846 473.398 243.223 473.02C243.166 472.231 242.977 471.448 242.657 470.659C242.338 469.871 241.871 469.166 241.264 468.541C240.656 467.915 239.922 467.405 239.063 467.011C238.203 466.617 237.213 466.422 236.076 466.422C234.939 466.422 233.985 466.617 233.115 467.011C232.246 467.405 231.501 467.915 230.894 468.541C230.286 469.166 229.809 469.876 229.479 470.659C229.143 471.448 228.965 472.231 228.934 473.02C229.343 473.43 229.861 473.95 230.501 474.592C231.14 475.233 231.805 475.89 232.507 476.558C233.204 477.231 233.875 477.867 234.514 478.482C235.154 479.092 235.678 479.591 236.081 479.97H236.076Z" fill="#2D2DB2"/>
<path d="M252.372 485.348V481.063H254.332C254.971 481.063 255.595 480.942 256.208 480.69C256.816 480.443 257.356 480.043 257.822 479.486C258.288 478.934 258.666 478.219 258.954 477.347C259.242 476.474 259.389 475.407 259.389 474.155V473.325C259.389 469.534 260.211 466.585 261.851 464.472C263.492 462.358 265.766 461.302 268.669 461.302C271.572 461.302 273.846 462.358 275.486 464.472C277.126 466.585 277.949 469.534 277.949 473.325C277.949 477.115 277.142 480.101 275.528 482.199C273.914 484.297 271.629 485.348 268.663 485.348C267.123 485.348 265.745 485.048 264.524 484.454C263.303 483.855 262.286 482.945 261.474 481.72C261.155 482.33 260.725 482.867 260.19 483.319C259.651 483.771 259.048 484.149 258.383 484.454C257.712 484.759 257.025 484.985 256.313 485.132C255.6 485.28 254.94 485.353 254.332 485.353H252.372V485.348ZM268.669 481.063C270.267 481.063 271.467 480.417 272.263 479.118C273.06 477.82 273.463 475.89 273.463 473.325C273.463 470.586 273.07 468.567 272.284 467.269C271.498 465.97 270.293 465.323 268.669 465.323C267.044 465.323 265.792 465.97 265.006 467.269C264.22 468.567 263.827 470.586 263.827 473.325C263.827 475.89 264.225 477.82 265.027 479.118C265.823 480.417 267.039 481.063 268.663 481.063H268.669Z" fill="#2D2DB2"/>
<path d="M175.203 461.097C176.407 461.097 177.383 460.118 177.383 458.91C177.383 457.702 176.407 456.723 175.203 456.723C173.999 456.723 173.023 457.702 173.023 458.91C173.023 460.118 173.999 461.097 175.203 461.097Z" fill="#2D2DB2"/>
</svg>
