<svg width="332" height="332" viewBox="0 0 332 332" fill="none" xmlns="http://www.w3.org/2000/svg">
<circle cx="167.887" cy="165.333" r="105.538" fill="#F2F1F9" stroke="white" stroke-width="9"/>
<g filter="url(#filter0_d_177_4421)">
<path d="M266.407 129.433C273.373 126.9 281.151 130.485 282.893 137.688C288.222 159.725 287.234 182.918 279.901 204.563C271.127 230.462 253.79 252.6 230.749 267.327C207.707 282.053 180.336 288.491 153.145 285.577C130.422 283.143 108.959 274.299 91.1977 260.209C85.3914 255.603 85.4053 247.038 90.6291 241.78C95.8528 236.523 104.302 236.587 110.252 241.005C123.571 250.892 139.352 257.107 156.005 258.891C177.129 261.154 198.394 256.153 216.295 244.712C234.196 233.271 247.665 216.072 254.481 195.951C259.855 180.088 260.843 163.156 257.463 146.917C255.953 139.661 259.442 131.966 266.407 129.433Z" fill="#75E5EB"/>
</g>
<g filter="url(#filter1_d_177_4421)">
<path d="M125.354 264.828C122.538 271.684 114.651 275.023 108.151 271.462C90.5011 261.79 75.4923 247.805 64.5806 230.724C51.2516 209.858 44.6855 185.388 45.7783 160.652C46.8711 135.917 55.5696 112.121 70.6867 92.5117C83.0622 76.459 99.2459 63.8523 117.68 55.7748C124.469 52.8004 132.03 56.8223 134.231 63.8996C136.431 70.9768 132.419 78.4125 125.729 81.6029C112.536 87.895 100.943 97.2236 91.9426 108.898C80.1981 124.133 73.4402 142.62 72.5912 161.837C71.7422 181.054 76.8434 200.065 87.1987 216.276C95.1345 228.699 105.86 239.013 118.447 246.444C124.829 250.212 128.17 257.973 125.354 264.828Z" fill="#F995E2"/>
</g>
<g filter="url(#filter2_d_177_4421)">
<path d="M61.087 145.349C53.8147 143.919 49.0058 136.832 51.2357 129.764C59.0178 105.097 74.5919 83.4681 95.7948 68.2434C116.998 53.0187 142.47 45.1743 168.33 45.6841C175.74 45.8301 180.919 52.6522 179.949 59.9998C178.979 67.3475 172.219 72.4156 164.808 72.507C145.752 72.7421 127.103 78.8042 111.449 90.0444C95.7954 101.284 84.0907 117.018 77.7773 134.999C75.3221 141.992 68.3592 146.778 61.087 145.349Z" fill="#F5D25D"/>
</g>
<path d="M164.928 231.995C199.678 231.995 227.848 203.825 227.848 169.075C227.848 134.326 199.678 106.155 164.928 106.155C130.178 106.155 102.008 134.326 102.008 169.075C102.008 203.825 130.178 231.995 164.928 231.995Z" fill="#FF8F15"/>
<path d="M164.928 108.443C198.39 108.443 225.56 135.613 225.56 169.075C225.56 202.537 198.39 229.85 164.928 229.85C131.466 229.85 104.153 202.537 104.153 169.075C104.153 135.613 131.323 108.443 164.928 108.443ZM164.928 104.153C129.035 104.153 99.863 133.182 99.863 169.075C99.863 204.968 129.035 234.14 164.928 234.14C200.821 234.14 229.85 204.968 229.85 169.075C229.85 133.182 200.821 104.153 164.928 104.153Z" fill="white"/>
<path d="M173.079 198.676H158.35V234.283H173.079V198.676Z" fill="#D7F0FC" stroke="#8EA6B2" stroke-width="0.3664" stroke-miterlimit="10" stroke-linecap="round" stroke-linejoin="round"/>
<path d="M166.93 206.97C168.932 206.827 171.077 206.398 173.079 205.683V198.533H158.207V205.397C160.781 206.827 164.07 207.113 166.93 206.97Z" fill="#D7F0FC"/>
<path d="M209.973 110.588C205.826 100.149 183.947 97.4318 170.648 96.8598C168.789 96.7168 166.93 96.7168 165.5 96.7168C164.07 96.7168 162.211 96.7168 160.352 96.8598C147.053 97.4318 125.174 100.149 121.027 110.588C116.451 122.028 115.164 191.955 158.35 202.251C160.638 202.823 163.069 203.109 165.5 203.395C168.074 203.252 170.362 202.823 172.65 202.251C215.836 192.098 214.549 122.028 209.973 110.588Z" fill="#EDEDEE" stroke="#9FB9C6" stroke-width="0.3664" stroke-miterlimit="10" stroke-linecap="round" stroke-linejoin="round"/>
<path d="M207.828 108.729C203.824 101.007 182.946 98.2898 170.362 97.7178C168.503 97.7178 162.354 98.0038 160.638 98.0038C148.054 98.4328 127.319 100.864 123.315 108.586C119.025 116.88 117.738 167.931 158.779 175.51C160.924 175.939 163.212 176.225 165.643 176.368C168.074 176.225 170.362 175.939 172.507 175.51C213.405 168.074 212.118 117.023 207.828 108.729Z" fill="#B9D7E6"/>
<path d="M200.106 109.158C196.817 101.722 179.8 99.863 169.504 99.434C168.074 99.434 166.644 99.291 165.5 99.291C164.356 99.291 162.926 99.291 161.496 99.434C151.2 99.863 134.183 101.722 130.894 109.158C127.319 117.166 126.318 166.644 159.923 173.937C161.639 174.366 163.498 174.652 165.5 174.652C167.502 174.509 169.361 174.223 171.077 173.937C204.682 166.644 203.538 117.166 200.106 109.158Z" fill="#00214B"/>
<path d="M199.391 109.301C196.245 102.151 179.514 100.435 169.361 100.006C167.931 100.006 166.501 99.8633 165.5 99.8633C164.356 99.8633 163.069 99.8633 161.639 100.006C151.486 100.435 134.898 102.151 131.609 109.301C128.177 117.023 127.176 164.499 160.066 171.506C161.782 171.935 163.641 172.078 165.5 172.221C167.359 172.078 169.218 171.792 170.934 171.506C203.824 164.499 202.823 117.023 199.391 109.301Z" fill="#024985"/>
<path d="M197.103 130.036C197.103 139.903 189.095 147.768 179.371 147.768H154.489C144.622 147.768 136.757 139.76 136.757 130.036V129.893C136.757 120.026 144.765 112.161 154.489 112.161H179.228C189.095 112.161 197.103 120.169 197.103 130.036Z" fill="#B9D7E6" stroke="white" stroke-width="0.3664" stroke-miterlimit="10" stroke-linecap="round" stroke-linejoin="round"/>
<path d="M194.958 130.036C194.958 139.188 187.379 146.767 178.084 146.767H155.204C145.909 146.767 138.33 139.188 138.33 130.036V129.893C138.33 120.741 145.766 113.162 155.204 113.162H177.941C187.379 113.305 194.958 120.741 194.958 130.036Z" fill="white" stroke="#B9D7E6" stroke-width="0.3664" stroke-miterlimit="10" stroke-linecap="round" stroke-linejoin="round"/>
<path d="M152.201 125.46V121.17L153.774 119.597V126.032L153.202 126.604L152.201 125.46ZM153.917 127.748V134.04L152.344 132.467V128.177L153.345 127.176L153.917 127.748Z" fill="black"/>
<path d="M159.065 125.46L158.064 126.461L157.492 125.889V119.454L159.065 121.027V125.46ZM159.065 132.467L157.492 134.04V127.748L158.064 127.176L159.065 128.177V132.467ZM166.215 119.168L164.642 120.741H159.351L157.778 119.168H166.215ZM166.215 134.326H157.778L159.351 132.753H164.642L166.215 134.326ZM166.501 125.889L165.929 126.461L164.928 125.46V121.17L166.501 119.597V125.889ZM166.501 134.04L164.928 132.467V128.177L165.929 127.176L166.501 127.748V134.04Z" fill="black"/>
<path d="M170.791 125.46L169.79 126.461L169.218 125.889V119.454L170.791 121.027V125.46ZM170.791 132.467L169.075 134.04V127.748L169.647 127.176L170.648 128.177V132.467H170.791ZM177.941 119.168L176.368 120.741H171.077L169.504 119.168H177.941ZM177.941 134.326H169.504L171.077 132.753H176.368L177.941 134.326ZM178.227 125.889L177.655 126.461L176.654 125.46V121.17L178.227 119.597V125.889ZM178.227 134.04L176.654 132.467V128.177L177.655 127.176L178.227 127.748V134.04Z" fill="black"/>
<path d="M169.933 140.045H170.505V140.331C170.648 140.045 170.934 139.902 171.363 139.902C171.506 139.902 171.792 139.902 171.935 140.045C172.078 140.188 172.221 140.188 172.221 140.331C172.507 140.045 172.793 139.902 173.222 139.902C173.508 139.902 173.651 140.045 173.937 140.188C174.08 140.331 174.223 140.617 174.223 141.046V143.048H173.651V141.189C173.651 140.903 173.651 140.76 173.508 140.76C173.365 140.617 173.222 140.617 173.079 140.617C172.936 140.617 172.793 140.617 172.65 140.76C172.507 140.903 172.507 141.046 172.507 141.189V143.048H171.935V141.189C171.935 140.903 171.935 140.76 171.792 140.76C171.649 140.617 171.506 140.617 171.363 140.617C171.22 140.617 171.077 140.617 170.934 140.76C170.791 140.903 170.791 141.046 170.791 141.189V143.048H170.219V140.045H169.933Z" fill="black"/>
<path d="M176.797 142.763C176.654 143.049 176.368 143.049 176.082 143.049C175.939 143.049 175.796 143.049 175.653 142.906C175.51 142.763 175.367 142.763 175.367 142.62C175.224 142.477 175.224 142.334 175.224 142.191C175.224 142.048 175.224 141.762 175.224 141.333C175.224 140.904 175.224 140.618 175.224 140.475C175.224 140.332 175.367 140.189 175.367 140.046C175.367 139.903 175.51 139.903 175.653 139.76C175.796 139.617 175.939 139.617 176.082 139.617C176.368 139.617 176.654 139.76 176.797 140.046V139.76H177.369V142.763C177.369 143.192 177.226 143.621 176.94 143.764C176.654 144.05 176.368 144.05 176.082 144.05C175.653 144.05 175.367 143.907 175.081 143.478L175.51 143.049C175.653 143.192 175.653 143.192 175.796 143.192C175.939 143.192 175.939 143.335 176.082 143.335C176.225 143.335 176.511 143.335 176.511 143.192C176.654 143.049 176.654 142.906 176.654 142.763H176.797ZM175.51 141.619C175.51 141.905 175.51 142.048 175.51 142.048C175.51 142.191 175.51 142.191 175.653 142.334L175.796 142.477C175.939 142.477 175.939 142.62 176.082 142.62C176.225 142.62 176.225 142.62 176.368 142.477C176.511 142.477 176.511 142.334 176.511 142.334C176.511 142.334 176.654 142.191 176.654 142.048C176.654 141.905 176.654 141.762 176.654 141.619C176.654 141.333 176.654 141.19 176.654 141.19C176.654 141.047 176.654 141.047 176.511 140.904L176.368 140.761C176.225 140.761 176.225 140.761 176.082 140.618C175.939 140.618 175.939 140.618 175.796 140.761C175.653 140.761 175.653 140.904 175.653 140.904C175.653 140.904 175.51 141.047 175.51 141.19C175.51 141.19 175.51 141.333 175.51 141.619Z" fill="black"/>
<path d="M179.228 138.759H179.8L178.37 143.192H177.941L179.228 138.759Z" fill="black"/>
<path d="M181.945 142.763C181.802 143.049 181.516 143.049 181.23 143.049C181.087 143.049 180.944 143.049 180.801 142.906C180.658 142.906 180.515 142.763 180.515 142.62C180.372 142.477 180.372 142.334 180.372 142.191C180.372 142.048 180.372 141.762 180.372 141.476C180.372 141.047 180.372 140.904 180.372 140.761C180.372 140.618 180.515 140.475 180.515 140.332C180.658 140.046 180.944 139.903 181.373 139.903C181.516 139.903 181.659 139.903 181.802 140.046C181.945 140.046 182.088 140.189 182.088 140.332V138.759H182.66V143.049H182.088V142.763H181.945ZM181.373 140.618C181.23 140.618 181.087 140.618 181.087 140.761C180.944 140.761 180.944 140.904 180.944 141.047C180.944 141.19 180.944 141.19 180.944 141.333C180.944 141.476 180.944 141.619 180.944 141.762C180.944 141.905 180.944 142.048 180.944 142.048C180.944 142.191 180.944 142.334 180.944 142.334C180.944 142.477 181.087 142.477 181.087 142.62C181.23 142.62 181.23 142.763 181.373 142.763C181.516 142.763 181.659 142.763 181.659 142.62C181.802 142.62 181.802 142.477 181.802 142.334C181.802 142.191 181.802 142.191 181.945 142.048C181.945 141.905 181.945 141.762 181.945 141.762C181.945 141.619 181.945 141.476 181.945 141.476C181.945 141.333 181.945 141.333 181.802 141.19C181.802 141.047 181.659 141.047 181.659 140.904C181.659 140.618 181.516 140.618 181.373 140.618Z" fill="black"/>
<path d="M183.375 138.759H184.09V142.477H186.092V143.049H183.375V138.759Z" fill="black"/>
<path d="M174.652 177.226C175.081 176.94 175.653 176.654 176.654 176.654C179.657 176.511 188.38 183.947 188.952 184.662C189.381 185.234 189.524 185.806 189.524 186.378C189.524 186.95 189.381 187.379 189.095 187.951C188.523 188.952 179.657 196.388 176.654 196.245C175.51 196.245 175.081 195.959 174.652 195.53C173.794 194.958 173.937 194.1 173.937 194.1V178.799C173.794 178.799 173.651 177.941 174.652 177.226Z" fill="#00214B"/>
<path d="M175.367 177.941C175.796 177.655 176.368 177.512 177.226 177.512C179.657 177.369 186.95 184.09 187.379 184.805C187.808 185.234 187.951 185.806 187.951 186.378C187.951 186.807 187.951 187.379 187.522 187.808C187.093 188.666 179.8 195.387 177.369 195.244C176.511 195.244 175.653 194.958 175.367 194.672C174.652 194.1 174.366 193.385 174.366 193.385V179.514C174.223 179.371 174.509 178.513 175.367 177.941Z" fill="#024985"/>
<path d="M157.063 177.226C156.634 176.94 156.062 176.654 155.061 176.654C152.058 176.511 143.335 183.947 142.763 184.662C142.334 185.234 142.191 185.806 142.191 186.378C142.191 186.95 142.334 187.379 142.62 187.951C143.192 188.952 152.058 196.388 155.061 196.245C156.205 196.245 156.777 195.959 157.206 195.53C158.064 194.958 157.921 194.1 157.921 194.1V178.799C158.064 178.799 158.064 177.941 157.063 177.226Z" fill="#00214B"/>
<path d="M156.062 177.941C155.633 177.655 155.061 177.512 154.346 177.512C151.915 177.369 144.622 184.09 144.193 184.805C143.764 185.234 143.621 185.806 143.764 186.378C143.764 186.807 143.907 187.379 144.193 187.808C144.622 188.666 151.915 195.387 154.346 195.244C155.204 195.244 155.919 194.958 156.205 194.672C156.92 194.1 156.92 193.385 156.92 193.385V179.514C156.92 179.371 156.92 178.513 156.062 177.941Z" fill="#024985"/>
<path d="M172.221 190.668C172.221 193.814 169.647 196.388 166.501 196.388H166.358C163.212 196.388 160.638 193.814 160.638 190.668V182.088C160.638 178.942 163.212 176.368 166.358 176.368H166.501C169.647 176.368 172.221 178.942 172.221 182.088V190.668Z" fill="#00214B"/>
<path d="M171.649 190.668C171.649 193.528 168.932 195.816 166.215 195.816C163.355 195.816 160.781 193.528 160.781 190.668V183.089C160.781 180.229 163.498 177.941 166.215 177.941C169.075 177.941 171.649 180.229 171.649 183.089V190.668Z" fill="#024985"/>
<path d="M167.502 188.809C167.502 189.095 166.93 189.381 166.644 189.381H166.358C166.072 189.381 165.929 189.095 165.929 188.809V185.663C165.929 185.377 166.072 184.805 166.358 184.805H166.644C166.93 184.805 167.502 185.377 167.502 185.663V188.809Z" fill="white"/>
<path d="M169.647 186.95C169.647 188.952 168.074 190.525 166.072 190.525C164.07 190.525 162.64 188.952 162.64 186.95C162.64 184.948 164.213 183.375 166.215 183.375C168.217 183.375 169.647 185.091 169.647 186.95Z" stroke="white" stroke-width="0.3664" stroke-miterlimit="10" stroke-linecap="round" stroke-linejoin="round"/>
<path d="M123.029 156.205C123.029 156.205 129.178 197.389 163.927 202.251C163.927 202.251 135.041 195.816 123.029 156.205Z" fill="#EDEDEE"/>
<path d="M208.114 156.205C208.114 156.205 201.965 197.389 167.216 202.251C167.216 202.251 196.102 195.816 208.114 156.205Z" fill="#EDEDEE"/>
<defs>
<filter id="filter0_d_177_4421" x="71.7745" y="128.623" width="229.488" height="187.639" filterUnits="userSpaceOnUse" color-interpolation-filters="sRGB">
<feFlood flood-opacity="0" result="BackgroundImageFix"/>
<feColorMatrix in="SourceAlpha" type="matrix" values="0 0 0 0 0 0 0 0 0 0 0 0 0 0 0 0 0 0 127 0" result="hardAlpha"/>
<feOffset dy="15"/>
<feGaussianBlur stdDeviation="7.5"/>
<feComposite in2="hardAlpha" operator="out"/>
<feColorMatrix type="matrix" values="0 0 0 0 0.458824 0 0 0 0 0.898039 0 0 0 0 0.921569 0 0 0 0.5 0"/>
<feBlend mode="normal" in2="BackgroundImageFix" result="effect1_dropShadow_177_4421"/>
<feBlend mode="normal" in="SourceGraphic" in2="effect1_dropShadow_177_4421" result="shape"/>
</filter>
<filter id="filter1_d_177_4421" x="30.661" y="54.7852" width="119.176" height="248.12" filterUnits="userSpaceOnUse" color-interpolation-filters="sRGB">
<feFlood flood-opacity="0" result="BackgroundImageFix"/>
<feColorMatrix in="SourceAlpha" type="matrix" values="0 0 0 0 0 0 0 0 0 0 0 0 0 0 0 0 0 0 127 0" result="hardAlpha"/>
<feOffset dy="15"/>
<feGaussianBlur stdDeviation="7.5"/>
<feComposite in2="hardAlpha" operator="out"/>
<feColorMatrix type="matrix" values="0 0 0 0 0.976471 0 0 0 0 0.584314 0 0 0 0 0.886275 0 0 0 0.5 0"/>
<feBlend mode="normal" in2="BackgroundImageFix" result="effect1_dropShadow_177_4421"/>
<feBlend mode="normal" in="SourceGraphic" in2="effect1_dropShadow_177_4421" result="shape"/>
</filter>
<filter id="filter2_d_177_4421" x="35.686" y="45.6611" width="159.38" height="129.94" filterUnits="userSpaceOnUse" color-interpolation-filters="sRGB">
<feFlood flood-opacity="0" result="BackgroundImageFix"/>
<feColorMatrix in="SourceAlpha" type="matrix" values="0 0 0 0 0 0 0 0 0 0 0 0 0 0 0 0 0 0 127 0" result="hardAlpha"/>
<feOffset dy="15"/>
<feGaussianBlur stdDeviation="7.5"/>
<feComposite in2="hardAlpha" operator="out"/>
<feColorMatrix type="matrix" values="0 0 0 0 0.960784 0 0 0 0 0.823529 0 0 0 0 0.364706 0 0 0 0.5 0"/>
<feBlend mode="normal" in2="BackgroundImageFix" result="effect1_dropShadow_177_4421"/>
<feBlend mode="normal" in="SourceGraphic" in2="effect1_dropShadow_177_4421" result="shape"/>
</filter>
</defs>
</svg>
