<svg width="340" height="340" viewBox="0 0 340 340" fill="none" xmlns="http://www.w3.org/2000/svg">
<circle cx="170.999" cy="169.999" r="119.511" fill="#F2F1F9" stroke="white" stroke-width="6"/>
<g filter="url(#filter0_d_269_3342)">
<path d="M142.038 54.2733C141.29 51.1797 143.191 48.0519 146.315 47.4479C168.626 43.136 191.731 44.9904 213.123 52.8662C236.322 61.4067 256.462 76.6433 270.99 96.6442C285.518 116.645 293.78 140.51 294.728 165.212C295.677 189.914 289.269 214.342 276.317 235.398C263.365 256.454 244.452 273.189 221.977 283.483C199.502 293.777 174.476 297.166 150.073 293.219C125.669 289.273 102.987 278.169 84.9026 261.316C68.2254 245.774 56.1502 225.989 49.9369 204.131C49.0667 201.07 51.0012 197.963 54.0996 197.235C57.1979 196.507 60.2853 198.434 61.1699 201.491C66.8516 221.127 77.7532 238.899 92.7602 252.884C109.175 268.181 129.763 278.26 151.913 281.842C174.063 285.424 196.778 282.348 217.178 273.005C237.578 263.661 254.744 248.471 266.5 229.359C278.256 210.247 284.072 188.075 283.211 165.654C282.35 143.233 274.851 121.572 261.665 103.418C248.478 85.2637 230.198 71.434 209.142 63.682C189.891 56.595 169.113 54.8796 149.025 58.6644C145.897 59.2536 142.785 57.367 142.038 54.2733Z" fill="#F5D25D"/>
</g>
<circle cx="170.244" cy="168.879" r="101.877" fill="#F2F1F9" stroke="white" stroke-width="6"/>
<g filter="url(#filter1_d_269_3342)">
<path d="M133.89 74.7234C132.677 71.5051 134.298 67.8938 137.582 66.87C154.645 61.5493 172.806 60.5844 190.395 64.1112C210.025 68.0469 228.154 77.4179 242.716 91.1563C257.278 104.895 267.688 122.448 272.759 141.815C277.83 161.182 277.358 181.584 271.397 200.696C265.436 219.808 254.225 236.861 239.044 249.911C223.862 262.961 205.319 271.484 185.529 274.508C165.739 277.532 145.497 274.935 127.111 267.014C110.635 259.916 96.2426 248.798 85.2295 234.72C83.1102 232.011 83.8295 228.119 86.6573 226.161C89.4851 224.203 93.349 224.923 95.489 227.616C105.159 239.782 117.706 249.4 132.039 255.575C148.282 262.573 166.164 264.867 183.647 262.196C201.131 259.524 217.512 251.995 230.924 240.466C244.337 228.937 254.24 213.871 259.506 196.987C264.772 180.103 265.189 162.079 260.709 144.97C256.23 127.86 247.033 112.353 234.168 100.216C221.304 88.0792 205.288 79.8005 187.947 76.3236C172.646 73.2557 156.855 74.0351 141.983 78.5474C138.692 79.546 135.104 77.9418 133.89 74.7234Z" fill="#F995E2"/>
</g>
<circle cx="168.358" cy="168.266" r="83.0866" fill="#F2F1F9" stroke="white" stroke-width="6"/>
<g filter="url(#filter2_d_269_3342)">
<path d="M113.239 107.316C111.032 104.844 111.235 101.032 113.852 98.9992C124.1 91.0391 136.008 85.436 148.727 82.6248C163.403 79.381 178.666 79.9631 193.053 84.3153C207.439 88.6675 220.466 96.6437 230.883 107.479C241.3 118.314 248.758 131.644 252.541 146.19C256.324 160.737 256.306 176.011 252.488 190.548C248.669 205.086 241.179 218.398 230.736 229.207C220.293 240.017 207.247 247.962 192.85 252.28C180.373 256.021 167.244 256.93 154.417 254.971C151.141 254.471 149.107 251.241 149.83 248.007C150.553 244.773 153.759 242.762 157.041 243.227C167.854 244.758 178.896 243.935 189.403 240.784C201.83 237.057 213.091 230.2 222.105 220.869C231.119 211.538 237.584 200.048 240.88 187.5C244.176 174.951 244.192 161.767 240.926 149.211C237.661 136.655 231.223 125.149 222.232 115.796C213.24 106.444 201.996 99.559 189.578 95.8024C177.16 92.0457 163.985 91.5432 151.317 94.3432C140.606 96.7105 130.562 101.371 121.865 107.977C119.226 109.981 115.446 109.788 113.239 107.316Z" fill="#75E5EB"/>
</g>
<path d="M206.061 185.539L205.931 184.817C206.272 184.33 206.541 183.799 206.737 183.238C207.288 181.652 207.231 179.916 206.573 178.371C204.903 174.252 202.428 172.56 198.54 172.89C198.508 172.891 198.476 172.897 198.444 172.904C191.67 174.194 191.612 179.544 191.901 181.783C191.976 182.376 191.765 182.971 191.333 183.387L191.027 183.682C190.842 183.863 190.562 183.911 190.328 183.801C188.558 182.944 186.853 183.164 185.649 184.403C184.804 185.307 184.359 186.511 184.411 187.744C184.389 189.755 185.617 191.569 187.493 192.302C187.969 192.484 188.472 192.58 188.98 192.582C189.799 192.574 190.597 192.323 191.273 191.861C193.026 190.702 193.379 189.328 193.364 188.38C193.356 188.113 193.515 187.868 193.765 187.769L194.069 187.651C194.551 187.463 195.088 187.481 195.559 187.698C196.836 188.298 198.379 188.429 200.126 188.074C200.887 189.081 202.146 189.58 203.391 189.371C205.181 189.035 206.368 187.328 206.061 185.537V185.539ZM201.609 186.937C201.183 186.383 200.477 186.118 199.791 186.256C198.42 186.521 197.263 186.438 196.353 186.01C195.42 185.575 194.349 185.539 193.387 185.913L193.084 186.031C192.112 186.417 191.479 187.362 191.495 188.406C191.506 189.12 191.094 189.739 190.239 190.305C189.632 190.741 188.843 190.836 188.151 190.555C187.006 190.082 186.266 188.96 186.28 187.725C186.232 186.982 186.489 186.251 186.991 185.7C187.318 185.346 187.779 185.146 188.261 185.15C188.698 185.164 189.123 185.277 189.51 185.479C190.45 185.927 191.571 185.746 192.321 185.026L192.628 184.73C193.485 183.905 193.902 182.725 193.753 181.544C193.418 178.948 194.015 175.667 198.744 174.744C201.27 174.541 203.272 175.21 204.837 179.07C205.321 180.201 205.365 181.47 204.965 182.631C204.824 183.036 204.628 183.421 204.381 183.769C204.108 184.166 204.001 184.654 204.087 185.128L204.218 185.863C204.36 186.645 203.838 187.394 203.054 187.536C203.051 187.536 203.047 187.536 203.044 187.537C202.488 187.621 201.935 187.389 201.603 186.936L201.609 186.937Z" fill="#2D2DB2" stroke="#2D2DB2" stroke-width="0.25"/>
<path d="M212.533 164.919C212.114 163.745 210.617 161.575 207.948 161.765C205.681 161.924 204.56 163.117 204.021 164.09C203.077 165.821 203.283 167.952 204.542 169.471C204.636 169.577 204.673 169.722 204.643 169.86L204.626 169.927C204.368 170.913 204.869 171.94 205.807 172.345L206.108 172.474C206.362 172.582 206.635 172.639 206.912 172.637C207.533 172.637 208.12 172.363 208.515 171.885L209.067 171.212C209.117 171.15 209.182 171.106 209.257 171.081C210.094 170.828 211.616 170.18 212.394 168.694C212.955 167.623 213.006 166.363 212.547 164.943C212.542 164.934 212.538 164.926 212.536 164.917L212.533 164.919ZM210.732 167.83C210.252 168.747 209.157 169.163 208.709 169.297C208.279 169.428 207.9 169.683 207.616 170.03L207.339 170.366C207.18 170.559 206.905 170.607 206.688 170.48C206.543 170.395 206.451 170.241 206.442 170.072C206.422 169.625 206.653 169.097 205.995 168.297C205.211 167.37 205.076 166.058 205.654 164.993C206.121 164.152 206.914 163.704 208.077 163.623C208.139 163.618 208.201 163.616 208.262 163.616C209.982 163.616 210.699 165.357 210.768 165.534C211.061 166.451 211.048 167.221 210.731 167.828L210.732 167.83Z" fill="#2D2DB2" stroke="#2D2DB2" stroke-width="0.25"/>
<path d="M198.158 163.864C197.626 163.437 196.981 163.175 196.301 163.106C194.178 162.876 192.626 163.901 192.146 165.841C191.856 166.848 191.997 167.929 192.532 168.832C193.176 169.855 194.306 170.472 195.517 170.46C196.188 170.458 196.844 170.28 197.424 169.943C198.343 169.435 199.029 168.595 199.345 167.596C199.794 166.226 199.317 164.724 198.158 163.864ZM197.557 167.046C197.383 167.596 197 168.058 196.489 168.327C195.698 168.832 194.65 168.619 194.12 167.846C193.85 167.372 193.792 166.807 193.96 166.288C194.054 165.906 194.295 164.938 195.714 164.938C195.844 164.938 195.971 164.945 196.101 164.959C196.422 164.989 196.727 165.111 196.981 165.31C197.873 166.032 197.637 166.793 197.559 167.044L197.557 167.046Z" fill="#2D2DB2" stroke="#2D2DB2" stroke-width="0.25"/>
<path d="M209.259 191.507C208.726 191.08 208.081 190.817 207.401 190.749C205.278 190.521 203.726 191.544 203.246 193.484C202.957 194.491 203.097 195.572 203.632 196.475C204.276 197.5 205.406 198.116 206.617 198.103C207.288 198.101 207.944 197.923 208.524 197.586C209.443 197.078 210.129 196.238 210.445 195.24C210.894 193.87 210.417 192.369 209.259 191.507ZM208.657 194.689C208.483 195.24 208.1 195.701 207.589 195.97C206.798 196.475 205.748 196.263 205.22 195.489C204.95 195.015 204.892 194.45 205.06 193.932C205.154 193.549 205.395 192.581 206.814 192.581C206.944 192.581 207.072 192.588 207.201 192.602C207.522 192.632 207.827 192.755 208.079 192.953C208.969 193.673 208.735 194.436 208.657 194.686V194.689Z" fill="#2D2DB2" stroke="#2D2DB2" stroke-width="0.25"/>
<path d="M201.958 179.563C201.041 178.977 199.87 178.956 198.932 179.511C198.133 179.993 197.529 180.738 197.222 181.617C196.81 182.683 197.039 183.43 197.305 183.869C197.768 184.633 198.687 185.102 200.042 185.262C200.159 185.276 200.278 185.283 200.397 185.283C201.77 185.288 202.962 184.341 203.263 183.005C203.309 182.798 203.341 182.586 203.359 182.373C203.453 181.249 202.912 180.166 201.958 179.563ZM201.495 182.228C201.484 182.352 201.466 182.474 201.44 182.596C201.308 183.125 200.803 183.474 200.26 183.41C199.425 183.311 199.008 183.078 198.905 182.906C198.811 182.75 198.903 182.451 198.965 182.288C199.123 181.809 199.441 181.4 199.866 181.127C200.028 181.03 200.212 180.979 200.4 180.977C200.599 180.979 200.792 181.035 200.961 181.141C201.33 181.375 201.535 181.794 201.493 182.228H201.495Z" fill="#2D2DB2" stroke="#2D2DB2" stroke-width="0.25"/>
<path d="M176.31 137.168V133.437C176.305 129.152 172.826 125.681 168.532 125.676H167.06C162.766 125.681 159.288 129.152 159.282 133.437V137.168C159.279 139.821 160.637 142.292 162.883 143.715C162.883 143.715 162.615 146.361 162.592 146.442C162.455 146.939 162.748 147.453 163.245 147.589C163.743 147.725 164.258 147.433 164.394 146.938C164.446 146.754 164.479 146.566 164.499 146.377L164.802 143.302C164.839 142.925 164.644 142.562 164.307 142.385C162.365 141.368 161.148 139.359 161.15 137.17V133.439C161.154 130.184 163.796 127.547 167.058 127.543H168.53C171.792 127.547 174.435 130.184 174.439 133.439V137.17C174.441 139.359 173.226 141.37 171.282 142.387C170.946 142.564 170.749 142.927 170.787 143.304L171.092 146.378C171.251 147.962 172.507 149.217 174.095 149.377C183.027 150.256 192.593 151.8 197.499 152.642C198.411 152.8 199.021 153.665 198.861 154.575C198.851 154.637 198.836 154.697 198.819 154.757L198.783 154.877C198.079 157.263 195.754 158.798 193.278 158.508L178.752 156.8C178.24 156.739 177.775 157.106 177.715 157.617C177.711 157.653 177.708 157.686 177.708 157.722L177.674 164.407C177.67 164.922 178.087 165.341 178.603 165.345H178.609C179.123 165.345 179.542 164.931 179.544 164.417L179.57 158.777L193.056 160.362C196.435 160.759 199.608 158.67 200.571 155.414L200.61 155.285C201.16 153.41 200.085 151.446 198.207 150.897C198.077 150.86 197.946 150.828 197.813 150.805C192.882 149.959 183.267 148.408 174.276 147.522C173.573 147.451 173.018 146.899 172.947 146.198L172.702 143.72C174.948 142.299 176.306 139.828 176.305 137.173L176.31 137.168Z" fill="#2D2DB2" stroke="#2D2DB2" stroke-width="0.25"/>
<path d="M144.333 170.381C144.333 169.866 143.915 169.448 143.398 169.448C142.882 169.448 142.464 169.866 142.464 170.381C142.464 170.946 142.402 171.508 142.277 172.061H130.927C130.801 171.51 130.739 170.946 130.741 170.381C130.741 169.866 130.322 169.448 129.806 169.448C129.29 169.448 128.872 169.866 128.872 170.381C128.872 175.091 132.05 177.526 134.271 178.652C132.05 179.786 128.872 182.239 128.872 186.986C128.872 191.733 131.924 194.087 134.138 195.25C131.924 196.406 128.872 198.834 128.872 203.45C128.872 203.965 129.29 204.383 129.806 204.383C130.322 204.383 130.741 203.965 130.741 203.45C130.741 202.885 130.803 202.322 130.927 201.77H139.496C140.012 201.77 140.431 201.353 140.431 200.838C140.431 200.322 140.012 199.905 139.496 199.905H131.656C133.093 197.434 135.794 196.462 136.6 196.222C137.678 196.554 142.464 198.317 142.464 203.45C142.464 203.965 142.882 204.383 143.398 204.383C143.915 204.383 144.333 203.965 144.333 203.45C144.333 196.298 137.009 194.393 136.827 194.347H136.823C136.589 194.289 131.38 192.93 130.794 187.919H142.409C142.336 188.576 142.169 189.216 141.916 189.825H134.796C134.28 189.825 133.861 190.243 133.861 190.758C133.861 191.273 134.28 191.691 134.796 191.691H140.727C140.413 192.043 140.067 192.367 139.695 192.659C139.285 192.972 139.207 193.558 139.519 193.967C139.833 194.376 140.42 194.453 140.83 194.142C140.837 194.137 140.844 194.131 140.851 194.126C143.083 192.434 144.376 189.783 144.333 186.986C144.333 182.239 141.155 179.786 138.934 178.652C141.156 177.526 144.333 175.091 144.333 170.381ZM142.407 186.053H130.796C130.869 185.399 131.036 184.756 131.289 184.147H138.409C138.925 184.147 139.344 183.73 139.344 183.215C139.344 182.7 138.925 182.282 138.409 182.282H132.47C133.595 181.068 135.019 180.174 136.603 179.689C137.646 180.006 141.884 181.563 142.409 186.055L142.407 186.053ZM136.601 177.609C135.8 177.369 133.093 176.399 131.655 173.924H141.547C140.108 176.399 137.4 177.369 136.6 177.609H136.601Z" fill="#2D2DB2" stroke="#2D2DB2" stroke-width="0.25"/>
<path d="M141.362 134.059H127.119C126.603 134.059 126.184 134.476 126.184 134.991C126.184 135.506 126.603 135.924 127.119 135.924H141.362C141.878 135.924 142.297 135.506 142.297 134.991C142.297 134.476 141.878 134.059 141.362 134.059Z" fill="#2D2DB2" stroke="#2D2DB2" stroke-width="0.25"/>
<path d="M141.362 139.54H137.249C136.733 139.54 136.314 139.96 136.314 140.475C136.314 140.99 136.733 141.406 137.249 141.407H141.362C141.879 141.407 142.297 140.99 142.297 140.475C142.297 139.96 141.879 139.542 141.362 139.542V139.54Z" fill="#2D2DB2" stroke="#2D2DB2" stroke-width="0.25"/>
<path d="M132.465 140.473C132.465 139.958 132.046 139.54 131.53 139.54H127.119C126.603 139.54 126.184 139.96 126.184 140.475C126.184 140.99 126.603 141.406 127.119 141.407H131.53C132.046 141.407 132.465 140.99 132.465 140.475V140.473Z" fill="#2D2DB2" stroke="#2D2DB2" stroke-width="0.25"/>
<path d="M163.777 164.695C163.424 164.318 162.833 164.299 162.455 164.651L157.934 168.867L157.879 157.72C157.877 157.205 157.455 156.789 156.939 156.792C156.903 156.792 156.87 156.794 156.834 156.799L142.304 158.509C139.831 158.798 137.509 157.267 136.807 154.884L136.77 154.76C136.507 153.876 137.015 152.946 137.901 152.684C137.964 152.667 138.026 152.653 138.088 152.64C142.712 151.847 151.69 150.396 160.304 149.495L161.959 151.569C162.276 151.975 162.865 152.047 163.271 151.73C163.677 151.414 163.75 150.826 163.433 150.421C163.429 150.417 163.425 150.412 163.422 150.408L147.946 131.008C146.786 129.548 145.021 128.697 143.153 128.702H127.119C126.603 128.702 126.184 129.12 126.184 129.635C126.184 130.15 126.603 130.568 127.119 130.568H143.153C144.45 130.564 145.677 131.155 146.483 132.169L158.924 147.766C150.63 148.676 142.206 150.04 137.77 150.799C135.842 151.132 134.549 152.96 134.881 154.886C134.904 155.019 134.934 155.152 134.973 155.281L135.012 155.414C135.975 158.665 139.145 160.753 142.52 160.357L156.011 158.771L156.07 170.601L146.016 179.978C145.638 180.33 145.619 180.92 145.972 181.297C146.325 181.674 146.916 181.693 147.293 181.341L163.729 166.014C164.107 165.661 164.126 165.072 163.773 164.695H163.777Z" fill="#2D2DB2" stroke="#2D2DB2" stroke-width="0.25"/>
<path d="M189.237 174.626C189.701 174.849 190.26 174.653 190.483 174.189C190.707 173.725 190.51 173.168 190.045 172.945C190.038 172.941 190.029 172.938 190.022 172.934L174.841 165.92C174.373 165.704 173.817 165.908 173.599 166.375C173.381 166.842 173.587 167.396 174.055 167.614L177.654 169.278L177.459 208.901C177.459 209.405 177.216 209.878 176.806 210.173C176.391 210.478 175.857 210.563 175.368 210.405C170.781 208.955 170.637 205.433 170.632 205.283L170.126 181.396C170.103 180.111 169.039 179.088 167.751 179.111C166.497 179.134 165.485 180.143 165.461 181.396L164.956 205.292C164.956 205.327 164.862 208.94 160.222 210.405C159.732 210.563 159.197 210.476 158.783 210.173C158.374 209.878 158.131 209.405 158.131 208.901L157.964 175.669C157.962 175.156 157.544 174.74 157.029 174.741H157.024C156.508 174.743 156.091 175.163 156.094 175.678L156.261 208.909C156.275 210.809 157.818 212.343 159.722 212.348C160.083 212.348 160.442 212.292 160.788 212.182C166.703 210.313 166.824 205.515 166.827 205.32L167.333 181.433C167.333 181.179 167.54 180.971 167.796 180.971C168.051 180.971 168.259 181.179 168.259 181.433L168.764 205.309C168.766 205.513 168.888 210.311 174.804 212.18C176.629 212.763 178.58 211.759 179.165 209.938C179.272 209.605 179.328 209.256 179.33 208.906L179.522 170.136L189.238 174.626H189.237Z" fill="#2D2DB2" stroke="#2D2DB2" stroke-width="0.25"/>
<path d="M197.28 178.718C197.84 178.718 198.294 178.265 198.294 177.706C198.294 177.147 197.84 176.693 197.28 176.693C196.719 176.693 196.265 177.147 196.265 177.706C196.265 178.265 196.719 178.718 197.28 178.718Z" fill="#2D2DB2" stroke="#2D2DB2" stroke-width="0.25"/>
<defs>
<filter id="filter0_d_269_3342" x="34.7278" y="45.1807" width="275.092" height="279.64" filterUnits="userSpaceOnUse" color-interpolation-filters="sRGB">
<feFlood flood-opacity="0" result="BackgroundImageFix"/>
<feColorMatrix in="SourceAlpha" type="matrix" values="0 0 0 0 0 0 0 0 0 0 0 0 0 0 0 0 0 0 127 0" result="hardAlpha"/>
<feOffset dy="15"/>
<feGaussianBlur stdDeviation="7.5"/>
<feComposite in2="hardAlpha" operator="out"/>
<feColorMatrix type="matrix" values="0 0 0 0 0.960784 0 0 0 0 0.823529 0 0 0 0 0.364706 0 0 0 0.5 0"/>
<feBlend mode="normal" in2="BackgroundImageFix" result="effect1_dropShadow_269_3342"/>
<feBlend mode="normal" in="SourceGraphic" in2="effect1_dropShadow_269_3342" result="shape"/>
</filter>
<filter id="filter1_d_269_3342" x="69.0017" y="62.0264" width="222.241" height="243.708" filterUnits="userSpaceOnUse" color-interpolation-filters="sRGB">
<feFlood flood-opacity="0" result="BackgroundImageFix"/>
<feColorMatrix in="SourceAlpha" type="matrix" values="0 0 0 0 0 0 0 0 0 0 0 0 0 0 0 0 0 0 127 0" result="hardAlpha"/>
<feOffset dy="15"/>
<feGaussianBlur stdDeviation="7.5"/>
<feComposite in2="hardAlpha" operator="out"/>
<feColorMatrix type="matrix" values="0 0 0 0 0.976471 0 0 0 0 0.584314 0 0 0 0 0.886275 0 0 0 0.5 0"/>
<feBlend mode="normal" in2="BackgroundImageFix" result="effect1_dropShadow_269_3342"/>
<feBlend mode="normal" in="SourceGraphic" in2="effect1_dropShadow_269_3342" result="shape"/>
</filter>
<filter id="filter2_d_269_3342" x="96.7231" y="80.5576" width="173.642" height="205.418" filterUnits="userSpaceOnUse" color-interpolation-filters="sRGB">
<feFlood flood-opacity="0" result="BackgroundImageFix"/>
<feColorMatrix in="SourceAlpha" type="matrix" values="0 0 0 0 0 0 0 0 0 0 0 0 0 0 0 0 0 0 127 0" result="hardAlpha"/>
<feOffset dy="15"/>
<feGaussianBlur stdDeviation="7.5"/>
<feComposite in2="hardAlpha" operator="out"/>
<feColorMatrix type="matrix" values="0 0 0 0 0.458824 0 0 0 0 0.898039 0 0 0 0 0.921569 0 0 0 0.5 0"/>
<feBlend mode="normal" in2="BackgroundImageFix" result="effect1_dropShadow_269_3342"/>
<feBlend mode="normal" in="SourceGraphic" in2="effect1_dropShadow_269_3342" result="shape"/>
</filter>
</defs>
</svg>
