<svg width="31" height="31" viewBox="0 0 31 31" fill="none" xmlns="http://www.w3.org/2000/svg">
<rect width="31" height="31" rx="3" transform="matrix(-1 0 0 1 31 0)" fill="#FF508B"/>
<path d="M18.7875 16.2125L13.5215 21.4785C13.3999 21.5997 13.2352 21.6677 13.0635 21.6677C12.8919 21.6677 12.7272 21.5997 12.6055 21.4785L12.2175 21.0905C12.0961 20.969 12.0279 20.8043 12.0279 20.6325C12.0279 20.4608 12.0961 20.296 12.2175 20.1745L16.6395 15.7525L12.2125 11.3255C12.0914 11.2039 12.0234 11.0392 12.0234 10.8675C12.0234 10.6958 12.0914 10.5311 12.2125 10.4095L12.6005 10.0215C12.7222 9.90036 12.8869 9.83234 13.0585 9.83234C13.2302 9.83234 13.3949 9.90036 13.5165 10.0215L18.7875 15.2935C18.9086 15.4158 18.9766 15.5809 18.9766 15.753C18.9766 15.9251 18.9086 16.0902 18.7875 16.2125Z" fill="white"/>
</svg>
