<svg width="13" height="14" viewBox="0 0 13 14" fill="none" xmlns="http://www.w3.org/2000/svg">
<path d="M6.66709 9.69512C7.19991 9.69512 7.72077 9.53713 8.1638 9.24111C8.60682 8.94509 8.95211 8.52435 9.15601 8.03208C9.35992 7.53982 9.41327 6.99813 9.30932 6.47555C9.20537 5.95296 8.94879 5.47295 8.57203 5.09618C8.19527 4.71942 7.71525 4.46284 7.19267 4.35889C6.67008 4.25495 6.1284 4.3083 5.63613 4.5122C5.14387 4.7161 4.72312 5.06139 4.4271 5.50442C4.13108 5.94744 3.97309 6.4683 3.97309 7.00112C3.97468 7.71513 4.25901 8.39944 4.76389 8.90432C5.26877 9.4092 5.95309 9.69354 6.66709 9.69512ZM6.66709 5.11514C7.04011 5.11514 7.40475 5.22574 7.7149 5.43298C8.02505 5.64021 8.26678 5.93476 8.40952 6.27938C8.55227 6.624 8.58963 7.00322 8.51685 7.36907C8.44408 7.73492 8.26446 8.07098 8.00069 8.33474C7.73693 8.5985 7.40087 8.77811 7.03503 8.85088C6.66918 8.92366 6.28997 8.88632 5.94535 8.74357C5.60073 8.60082 5.30617 8.35908 5.09893 8.04893C4.89169 7.73878 4.78109 7.37414 4.78109 7.00112C4.78135 6.50091 4.98011 6.02125 5.33372 5.66746C5.68733 5.31366 6.16688 5.11466 6.66709 5.11413V5.11514Z" fill="#2D2DB2"/>
<path d="M5.77102 13.4672H7.56302C7.77402 13.4659 7.97838 13.3932 8.14287 13.2611C8.30736 13.1289 8.42231 12.945 8.46902 12.7392L8.69602 11.7342C9.07086 11.5743 9.42454 11.3687 9.74902 11.1222L10.731 11.4322C10.9341 11.4963 11.153 11.4892 11.3514 11.4119C11.5498 11.3346 11.7159 11.1918 11.822 11.0072L12.715 9.46218C12.819 9.27878 12.8585 9.06579 12.8272 8.8573C12.7958 8.6488 12.6954 8.45685 12.542 8.31218L11.781 7.61218C11.8037 7.4103 11.815 7.20732 11.815 7.00418C11.8148 6.80104 11.8034 6.59807 11.781 6.39618L12.538 5.69618C12.692 5.55248 12.7934 5.36125 12.8259 5.15311C12.8583 4.94497 12.82 4.73196 12.717 4.54818L11.817 2.99318C11.7105 2.81036 11.545 2.66915 11.3477 2.59266C11.1504 2.51618 10.933 2.50895 10.731 2.57218L9.74702 2.88318C9.4225 2.63668 9.06884 2.43113 8.69402 2.27118L8.46802 1.26018C8.42112 1.05485 8.3062 0.871408 8.14192 0.739618C7.97763 0.607828 7.77363 0.535431 7.56302 0.53418L5.77102 0.53418C5.56001 0.535489 5.35565 0.608135 5.19116 0.740307C5.02667 0.872478 4.91173 1.0564 4.86502 1.26218L4.63802 2.27118C4.26317 2.43107 3.9095 2.63663 3.58502 2.88318L2.60302 2.57318C2.39995 2.50923 2.18114 2.51649 1.98276 2.59377C1.78438 2.67105 1.61831 2.81371 1.51202 2.99818L0.619018 4.54318C0.514996 4.72657 0.475506 4.93957 0.506871 5.14806C0.538237 5.35656 0.638642 5.54851 0.792018 5.69318L1.55302 6.39318C1.50777 6.79759 1.50777 7.20577 1.55302 7.61018L0.795018 8.31018C0.642024 8.45396 0.541571 8.64483 0.509673 8.85235C0.477776 9.05986 0.516269 9.27209 0.619018 9.45518L1.51902 11.0102C1.62535 11.1935 1.79097 11.3351 1.98858 11.4116C2.18618 11.4881 2.40396 11.495 2.60602 11.4312L3.59002 11.1202C3.91288 11.367 4.26485 11.5732 4.63802 11.7342L4.86502 12.7442C4.91238 12.9492 5.02765 13.1322 5.19212 13.2634C5.35659 13.3947 5.5606 13.4665 5.77102 13.4672ZM9.67102 10.2672C9.57721 10.2668 9.48625 10.2993 9.41402 10.3592C9.05619 10.6583 8.65051 10.8949 8.21402 11.0592C8.15068 11.0822 8.09418 11.1209 8.04978 11.1716C8.00537 11.2223 7.9745 11.2834 7.96002 11.3492L7.68602 12.5672C7.68115 12.5948 7.66681 12.6199 7.64547 12.6382C7.62412 12.6564 7.59709 12.6667 7.56902 12.6672H5.77702C5.74977 12.6669 5.72344 12.6573 5.70235 12.64C5.68127 12.6228 5.66669 12.5988 5.66102 12.5722L5.38602 11.3532C5.37154 11.2874 5.34066 11.2263 5.29626 11.1756C5.25185 11.1249 5.19536 11.0862 5.13202 11.0632C4.69559 10.8988 4.28993 10.6622 3.93202 10.3632C3.88022 10.3199 3.81831 10.2904 3.75204 10.2774C3.68577 10.2645 3.6173 10.2685 3.55302 10.2892L2.36702 10.6642C2.34105 10.6734 2.31273 10.6734 2.28673 10.6643C2.26072 10.6552 2.2386 10.6375 2.22402 10.6142L1.32402 9.05918C1.31092 9.03386 1.30638 9.00498 1.31107 8.97686C1.31575 8.94874 1.32942 8.92289 1.35002 8.90318L2.26002 8.06718C2.30887 8.02271 2.34594 7.96683 2.36793 7.90453C2.38991 7.84223 2.39613 7.77546 2.38602 7.71018C2.31483 7.24288 2.31483 6.76748 2.38602 6.30018C2.39613 6.2349 2.38991 6.16812 2.36793 6.10583C2.34594 6.04353 2.30887 5.98765 2.26002 5.94318L1.34802 5.10418C1.32778 5.08373 1.31477 5.05723 1.31098 5.02871C1.30719 5.00019 1.31282 4.97121 1.32702 4.94618L2.22002 3.40118C2.23457 3.37664 2.25714 3.35787 2.28391 3.34804C2.31069 3.3382 2.34004 3.3379 2.36702 3.34718L3.55102 3.72118C3.6153 3.74184 3.68377 3.74588 3.75004 3.73294C3.81631 3.72 3.87822 3.6905 3.93002 3.64718C4.28785 3.34809 4.69353 3.11145 5.13002 2.94718C5.19336 2.92415 5.24985 2.8855 5.29426 2.8348C5.33866 2.7841 5.36954 2.723 5.38402 2.65718L5.65302 1.43418C5.65926 1.40745 5.67427 1.38357 5.69566 1.36636C5.71704 1.34914 5.74357 1.33958 5.77102 1.33918H7.56302C7.59027 1.33949 7.6166 1.34907 7.63768 1.36633C7.65876 1.3836 7.67334 1.40753 7.67902 1.43418L7.95402 2.65318C7.96849 2.719 7.99937 2.7801 8.04378 2.8308C8.08818 2.8815 8.14468 2.92015 8.20802 2.94318C8.64453 3.10738 9.05022 3.34403 9.40802 3.64318C9.46004 3.68609 9.52195 3.71534 9.58813 3.72826C9.65431 3.74118 9.72268 3.73737 9.78702 3.71718L10.973 3.34218C10.999 3.33318 11.0273 3.33322 11.0532 3.3423C11.0792 3.35137 11.1013 3.36895 11.116 3.39218L12.016 4.94618C12.0291 4.97182 12.0335 5.00104 12.0284 5.02939C12.0234 5.05773 12.0092 5.08364 11.988 5.10318L11.079 5.93818C11.0302 5.98265 10.9931 6.03853 10.9711 6.10083C10.9491 6.16313 10.9429 6.2299 10.953 6.29518C11.0242 6.76248 11.0242 7.23788 10.953 7.70518C10.9429 7.77046 10.9491 7.83723 10.9711 7.89953C10.9931 7.96183 11.0302 8.01771 11.079 8.06218L11.991 8.90018C12.0113 8.92063 12.0243 8.94713 12.0281 8.97565C12.0318 9.00418 12.0262 9.03315 12.012 9.05818L11.119 10.6032C11.1045 10.6277 11.0819 10.6465 11.0551 10.6563C11.0283 10.6662 10.999 10.6665 10.972 10.6572L9.78802 10.2842C9.74861 10.2715 9.70743 10.265 9.66602 10.2652L9.67102 10.2672Z" fill="#2D2DB2"/>
</svg>
