<svg width="15" height="16" viewBox="0 0 15 16" fill="none" xmlns="http://www.w3.org/2000/svg">
<path fill-rule="evenodd" clip-rule="evenodd" d="M13.7663 4.89333L13.313 4.10667C12.9294 3.44103 12.0795 3.2114 11.413 3.59333V3.59333C11.0957 3.78024 10.7171 3.83327 10.3606 3.74073C10.0042 3.64818 9.69924 3.41766 9.51296 3.1C9.39313 2.89809 9.32873 2.66812 9.3263 2.43333V2.43333C9.33711 2.05692 9.1951 1.69215 8.93261 1.42214C8.67013 1.15212 8.30953 0.999845 7.93296 1H7.01963C6.6507 0.999996 6.29699 1.14701 6.03674 1.4085C5.7765 1.66999 5.63119 2.02441 5.63296 2.39333V2.39333C5.62203 3.15503 5.0014 3.76675 4.23963 3.76667C4.00485 3.76423 3.77487 3.69984 3.57296 3.58V3.58C2.90641 3.19806 2.05648 3.42769 1.67296 4.09333L1.18629 4.89333C0.803238 5.55814 1.02974 6.40753 1.69296 6.79333V6.79333C2.12406 7.04223 2.38964 7.50221 2.38964 8C2.38964 8.49779 2.12406 8.95777 1.69296 9.20667V9.20667C1.03058 9.58986 0.803833 10.4372 1.18629 11.1V11.1L1.64629 11.8933C1.82599 12.2176 2.12749 12.4568 2.48407 12.5582C2.84066 12.6595 3.22293 12.6146 3.54629 12.4333V12.4333C3.86418 12.2478 4.243 12.197 4.59853 12.2922C4.95407 12.3873 5.25687 12.6205 5.43963 12.94C5.55946 13.1419 5.62386 13.3719 5.6263 13.6067V13.6067C5.6263 14.3762 6.25011 15 7.01963 15H7.93296C8.69988 15 9.32263 14.3802 9.3263 13.6133V13.6133C9.32451 13.2433 9.47074 12.8878 9.73243 12.6261C9.99411 12.3644 10.3496 12.2182 10.7196 12.22C10.9538 12.2263 11.1829 12.2904 11.3863 12.4067V12.4067C12.0511 12.7897 12.9005 12.5632 13.2863 11.9V11.9L13.7663 11.1C13.9521 10.7811 14.0031 10.4013 13.908 10.0447C13.8129 9.68804 13.5795 9.38405 13.2596 9.2V9.2C12.9397 9.01595 12.7064 8.71196 12.6113 8.35534C12.5162 7.99872 12.5672 7.61891 12.753 7.3C12.8738 7.08906 13.0487 6.91416 13.2596 6.79333V6.79333C13.9189 6.40774 14.1448 5.56331 13.7663 4.9V4.9V4.89333Z" stroke="white" stroke-linecap="round" stroke-linejoin="round"/>
<circle cx="7.47957" cy="8.00008" r="1.92" stroke="white" stroke-linecap="round" stroke-linejoin="round"/>
</svg>
