<svg width="53" height="53" viewBox="0 0 53 53" fill="none" xmlns="http://www.w3.org/2000/svg">
<path d="M26.5 53C41.1355 53 53 41.1355 53 26.5C53 11.8645 41.1355 0 26.5 0C11.8645 0 0 11.8645 0 26.5C0 41.1355 11.8645 53 26.5 53Z" fill="#2D2DB2"/>
<path d="M25.0655 34.9375H15.5312C15.0661 34.9375 14.6875 34.5593 14.6875 34.0938V21.4375H36.625V25.6727C36.625 26.1391 37.0024 26.5165 37.4688 26.5165C37.9351 26.5165 38.3125 26.1391 38.3125 25.6727V17.2188C38.3125 15.8229 37.1771 14.6875 35.7812 14.6875H31.5625V13.8438C31.5625 13.3774 31.1851 13 30.7188 13C30.2524 13 29.875 13.3774 29.875 13.8438V14.6875H26.5V13.8438C26.5 13.3774 26.1222 13 25.6562 13C25.1903 13 24.8125 13.3774 24.8125 13.8438V14.6875H21.4375V13.8438C21.4375 13.3774 21.0597 13 20.5938 13C20.1278 13 19.75 13.3774 19.75 13.8438V14.6875H15.5312C14.1354 14.6875 13 15.8229 13 17.2188V34.0938C13 35.4896 14.1354 36.625 15.5312 36.625H25.0655C25.5314 36.625 25.9092 36.2476 25.9092 35.7812C25.9092 35.3149 25.5314 34.9375 25.0655 34.9375ZM15.5312 16.375H19.75V17.2188C19.75 17.6851 20.1278 18.0625 20.5938 18.0625C21.0597 18.0625 21.4375 17.6851 21.4375 17.2188V16.375H24.8125V17.2188C24.8125 17.6851 25.1903 18.0625 25.6562 18.0625C26.1222 18.0625 26.5 17.6851 26.5 17.2188V16.375H29.875V17.2188C29.875 17.6851 30.2524 18.0625 30.7188 18.0625C31.1851 18.0625 31.5625 17.6851 31.5625 17.2188V16.375H35.7812C36.2468 16.375 36.625 16.7532 36.625 17.2188V19.75H14.6875V17.2188C14.6875 16.7532 15.0661 16.375 15.5312 16.375Z" fill="white"/>
<path d="M33.6719 27.3438C30.1823 27.3438 27.3438 30.1823 27.3438 33.6719C27.3438 37.1614 30.1823 40 33.6719 40C37.1614 40 40 37.1614 40 33.6719C40 30.1823 37.1614 27.3438 33.6719 27.3438ZM33.6719 38.3125C31.1134 38.3125 29.0312 36.2303 29.0312 33.6719C29.0312 31.1134 31.1134 29.0312 33.6719 29.0312C36.2303 29.0312 38.3125 31.1134 38.3125 33.6719C38.3125 36.2303 36.2303 38.3125 33.6719 38.3125Z" fill="white"/>
<path d="M36.7997 31.8097C36.4701 31.4801 35.9361 31.4801 35.6066 31.8097L32.8281 34.5881C32.8281 34.5881 31.7396 33.4996 31.7372 33.4972C30.9706 32.7307 29.7716 33.9179 30.5441 34.6903L32.2316 36.3778C32.5571 36.7033 33.0998 36.7026 33.4247 36.3778L36.7997 33.0028C37.1293 32.6732 37.1293 32.1393 36.7997 31.8097Z" fill="white"/>
<path d="M17.2188 23.125C16.7528 23.125 16.375 23.5024 16.375 23.9688C16.375 24.4351 16.7528 24.8125 17.2188 24.8125H22.2812C22.7472 24.8125 23.125 24.4351 23.125 23.9688C23.125 23.5024 22.7472 23.125 22.2812 23.125H17.2188Z" fill="white"/>
</svg>
