<svg width="15" height="16" viewBox="0 0 15 16" fill="none" xmlns="http://www.w3.org/2000/svg">
<path d="M7.66604 0.499023C8.4364 0.499023 9.18945 0.727461 9.82998 1.15545C10.4705 1.58344 10.9697 2.19175 11.2645 2.90347C11.5594 3.61519 11.6365 4.39834 11.4862 5.1539C11.3359 5.90946 10.9649 6.60348 10.4202 7.1482C9.87549 7.69293 9.18147 8.06389 8.42591 8.21418C7.67035 8.36447 6.8872 8.28734 6.17548 7.99253C5.46377 7.69773 4.85545 7.1985 4.42746 6.55797C3.99947 5.91744 3.77103 5.16438 3.77103 4.39402C3.77367 3.36182 4.18489 2.37264 4.91477 1.64276C5.64465 0.912876 6.63383 0.501663 7.66604 0.499023V0.499023Z" fill="#2D2DB2"/>
<path d="M0.981999 11.3998C1.08517 11.1479 1.21633 10.9084 1.373 10.6858C1.75137 10.1179 2.24551 9.63649 2.82302 9.27303C3.40053 8.90957 4.04835 8.6723 4.724 8.57679C4.89734 8.55507 5.07265 8.59739 5.217 8.69579C5.92808 9.2157 6.78612 9.49593 7.667 9.49593C8.54788 9.49593 9.40592 9.2157 10.117 8.69579C10.1867 8.6433 10.2664 8.60566 10.3512 8.58519C10.436 8.56473 10.5241 8.56187 10.61 8.57679C11.2863 8.67014 11.935 8.90651 12.5128 9.27016C13.0906 9.63381 13.5843 10.1164 13.961 10.6858C14.1142 10.9105 14.2451 11.1497 14.352 11.3998C14.3744 11.4513 14.3845 11.5072 14.3816 11.5633C14.3786 11.6194 14.3627 11.6739 14.335 11.7228C14.1959 11.9585 14.0426 12.1856 13.876 12.4028C13.6428 12.7207 13.3811 13.0166 13.094 13.2868C12.845 13.5266 12.584 13.7535 12.312 13.9668C10.9745 14.9607 9.35238 15.4974 7.686 15.4974C6.01961 15.4974 4.39753 14.9607 3.06 13.9668C2.78393 13.7585 2.52263 13.5313 2.278 13.2868C1.99551 13.0122 1.73411 12.7167 1.496 12.4028C1.32757 12.1869 1.17421 11.9597 1.037 11.7228C0.996338 11.6808 0.969327 11.6274 0.959512 11.5698C0.949697 11.5122 0.957536 11.4529 0.981999 11.3998Z" fill="#2D2DB2"/>
</svg>
