<svg width="16" height="16" viewBox="0 0 16 16" fill="none" xmlns="http://www.w3.org/2000/svg">
<circle cx="8" cy="8" r="8" fill="#06AD2B"/>
<g clip-path="url(#clip0_1032_1963)">
<path d="M8.596 4.85146C8.624 4.77843 8.684 4.74921 8.72 4.74191C8.752 4.73096 8.82 4.72 8.892 4.76382C9.176 4.93909 9.316 5.24948 9.248 5.55255L8.96 6.86711C8.936 6.973 8.968 7.0862 9.04 7.17019C9.116 7.25417 9.228 7.30529 9.348 7.30529L10.988 7.3126C11.104 7.3126 11.2 7.40023 11.2 7.50978V9.23696C11.2 9.51447 11.08 9.77373 10.868 9.97092C10.652 10.1681 10.368 10.274 10.064 10.274H7.444C7.28 10.274 7.116 10.2375 6.968 10.1718L6.596 10.0038V7.54995L6.796 7.42944C7.496 7.00221 8.032 6.3705 8.304 5.64384L8.596 4.86241V4.85146ZM10.024 5.09611C9.94 4.72 9.7 4.38041 9.34 4.15767C9.08 4.00065 8.76 3.95683 8.464 4.04812C8.168 4.13941 7.94 4.34755 7.84 4.61411L7.66 5.09611L7.34 5.82642C7.104 6.22078 6.768 6.56403 6.356 6.81233C6.196 6.66262 5.976 6.57133 5.732 6.57133H4.872C4.392 6.57133 4 6.92918 4 7.36737V10.2046C4 10.6428 4.392 11.0006 4.872 11.0006H5.732C5.996 11.0006 6.232 10.8911 6.392 10.7195L6.616 10.8217C6.872 10.9386 7.16 11.0006 7.452 11.0006H10.072C10.588 11.0006 11.076 10.8181 11.44 10.4821C11.804 10.1462 12.008 9.70435 12.008 9.2333V7.50613C12.008 6.99856 11.556 6.58229 11 6.57864L9.848 6.57133L10.012 5.82277L10.036 5.09246L10.024 5.09611ZM5.8 7.36737V10.2046C5.8 10.2411 5.768 10.2703 5.728 10.2703H4.872C4.832 10.2703 4.8 10.2411 4.8 10.2046V7.36737C4.8 7.33085 4.832 7.30164 4.872 7.30164H5.732C5.772 7.30164 5.804 7.33085 5.804 7.36737H5.8Z" fill="white"/>
</g>
<defs>
<clipPath id="clip0_1032_1963">
<rect width="8" height="7" fill="white" transform="translate(4 4)"/>
</clipPath>
</defs>
</svg>
