<svg width="15" height="15" viewBox="0 0 15 15" fill="none" xmlns="http://www.w3.org/2000/svg">
<path d="M14.9806 1.42798C14.9412 1.33301 14.8485 1.27106 14.7457 1.27119H13.7288V0.254238C13.7288 0.151327 13.6668 0.0587187 13.5719 0.0193665C13.4769 -0.0199856 13.3675 0.00173875 13.2948 0.0744844L12.0236 1.34567C11.9759 1.39334 11.9491 1.45802 11.9491 1.52543V2.69134L11.3217 3.31874C9.35596 1.51872 6.42168 1.27591 4.18668 2.72809C1.95168 4.18027 0.981527 6.96012 1.82766 9.4876L2.31069 9.32585C1.53457 7.02244 2.41422 4.48565 4.44961 3.15711C6.48512 1.82857 9.16144 2.04458 10.9576 3.68235L9.87933 4.7605C8.47606 3.53425 6.39189 3.50259 4.952 4.68564C3.51211 5.86857 3.13882 7.91935 4.06949 9.53391L4.50981 9.27967C3.70303 7.88558 4.01946 6.11287 5.25875 5.08413C6.49803 4.05539 8.29867 4.07066 9.52032 5.12025L8.43659 6.20337C7.68617 5.64176 6.62937 5.75548 6.01562 6.46394C5.40188 7.17228 5.43974 8.23454 6.10252 8.89732C6.7653 9.5601 7.82756 9.59809 8.53602 8.98434C9.24436 8.3706 9.3582 7.3138 8.79659 6.56338L9.88033 5.47951C10.8086 6.55841 10.94 8.11102 10.2061 9.33044L10.6413 9.59263C11.496 8.17346 11.3334 6.36426 10.2393 5.12025L11.3176 4.04235C12.6223 5.46996 13.0505 7.49256 12.4362 9.32647L12.9193 9.4881C13.5943 7.47083 13.1207 5.24613 11.6825 3.67875L12.3086 3.05085H13.4745C13.5419 3.05085 13.6066 3.02404 13.6543 2.97637L14.9255 1.70518C14.9982 1.63243 15.0199 1.52307 14.9806 1.42798ZM8.64402 7.62713C8.64576 8.2117 8.24963 8.72266 7.68294 8.86666C7.11624 9.01054 6.52435 8.75071 6.24677 8.23603C5.96932 7.72147 6.07732 7.08402 6.50895 6.68963C6.94058 6.29523 7.58524 6.24496 8.07274 6.56772L7.19308 7.44737L7.55259 7.80688L8.43224 6.92723C8.57029 7.13454 8.64402 7.37798 8.64402 7.62713ZM13.3693 2.54238H12.4576V1.6307L13.2203 0.867984V1.52543C13.2203 1.66583 13.3341 1.77966 13.4745 1.77966H14.132L13.3693 2.54238Z" fill="#FF508B"/>
<path d="M7.11865 0.253906H7.62713V0.762381H7.11865V0.253906Z" fill="#FF508B"/>
<path d="M8.31445 0.82292L8.40284 0.322266L8.90362 0.410653L8.81523 0.911307L8.31445 0.82292Z" fill="#FF508B"/>
<path d="M9.48206 1.09012L9.65597 0.612305L10.1335 0.7861L9.95974 1.26391L9.48206 1.09012Z" fill="#FF508B"/>
<path d="M10.5851 1.55531L10.8393 1.11523L11.2794 1.36935L11.0252 1.80942L10.5851 1.55531Z" fill="#FF508B"/>
<path d="M13.1906 3.97396L13.631 3.71973L13.8851 4.16017L13.4448 4.41441L13.1906 3.97396Z" fill="#FF508B"/>
<path d="M13.7361 5.04025L14.2139 4.86621L14.3879 5.34402L13.9103 5.51807L13.7361 5.04025Z" fill="#FF508B"/>
<path d="M14.089 6.18519L14.5896 6.09668L14.678 6.59721L14.1774 6.6856L14.089 6.18519Z" fill="#FF508B"/>
<path d="M14.2373 7.37305H14.7458V7.88152H14.2373V7.37305Z" fill="#FF508B"/>
<path d="M14.0889 9.06974L14.1771 8.56934L14.6779 8.65772L14.5895 9.15813L14.0889 9.06974Z" fill="#FF508B"/>
<path d="M0.0675049 8.65772L0.568283 8.56934L0.65667 9.06974L0.155892 9.15825L0.0675049 8.65772Z" fill="#FF508B"/>
<path d="M0 7.37305H0.508475V7.88152H0V7.37305Z" fill="#FF508B"/>
<path d="M0.0678711 6.59721L0.156134 6.09668L0.656912 6.18507L0.568525 6.6856L0.0678711 6.59721Z" fill="#FF508B"/>
<path d="M0.357666 5.34402L0.531709 4.86621L1.00952 5.04025L0.835478 5.51794L0.357666 5.34402Z" fill="#FF508B"/>
<path d="M0.860474 4.16115L1.11471 3.7207L1.55503 3.97506L1.3008 4.41539L0.860474 4.16115Z" fill="#FF508B"/>
<path d="M1.5614 3.08303L1.88826 2.69336L2.27793 3.02009L1.95095 3.40989L1.5614 3.08303Z" fill="#FF508B"/>
<path d="M2.43884 2.14241L2.82839 1.81543L3.15513 2.20473L2.76558 2.53171L2.43884 2.14241Z" fill="#FF508B"/>
<path d="M3.46631 1.36947L3.90638 1.11523L4.16062 1.55543L3.72055 1.80955L3.46631 1.36947Z" fill="#FF508B"/>
<path d="M4.61255 0.786224L5.09011 0.612305L5.26416 1.09012L4.78659 1.26404L4.61255 0.786224Z" fill="#FF508B"/>
<path d="M5.84229 0.410529L6.34306 0.322266L6.43133 0.823044L5.93055 0.911307L5.84229 0.410529Z" fill="#FF508B"/>
<path d="M13.8425 10.3981C13.9497 10.3462 14.0064 10.2269 13.9793 10.1111C13.9519 9.99513 13.8479 9.91369 13.7289 9.91506H2.54243C2.04078 9.91282 1.58531 10.2072 1.38098 10.6652C1.17677 11.1233 1.2623 11.6588 1.59922 12.0305C1.01986 12.2407 0.675495 12.8368 0.782627 13.4436C0.889883 14.0504 1.41772 14.4923 2.03395 14.4913H13.2204C13.3366 14.4908 13.4375 14.4113 13.4649 14.2983C13.4929 14.1848 13.4406 14.0669 13.3378 14.0113C13.0796 13.8345 12.9375 13.5317 12.9662 13.2201C12.9442 12.9274 13.067 12.6425 13.2946 12.4574H13.7289C13.8451 12.4569 13.946 12.3774 13.9734 12.2644C14.0014 12.1509 13.9491 12.033 13.8463 11.9774C13.5881 11.8006 13.446 11.4978 13.4746 11.1862C13.4466 10.8764 13.587 10.5755 13.8425 10.3981ZM13.1493 11.949H4.06785V11.4405H12.4577V10.932H4.06785V10.4235H13.1493C12.9051 10.9027 12.9051 11.4698 13.1493 11.949ZM3.0509 13.9829H2.79666V12.4574H3.0509V13.9829ZM3.55937 11.949H3.30514V10.4235H3.55937V11.949ZM2.54243 10.4235H2.79666V11.949H2.54243C2.12122 11.949 1.77971 11.6074 1.77971 11.1862C1.77971 10.7649 2.12122 10.4235 2.54243 10.4235ZM1.27124 13.2201C1.27124 12.7988 1.61275 12.4574 2.03395 12.4574H2.28819V13.9829H2.03395C1.61275 13.9829 1.27124 13.6413 1.27124 13.2201ZM12.6408 13.9829H3.55937V13.4744H11.9492V12.9659H3.55937V12.4574H12.6408C12.3966 12.9366 12.3966 13.5037 12.6408 13.9829Z" fill="#FF508B"/>
</svg>
