<svg width="16" height="15" viewBox="0 0 16 15" fill="none" xmlns="http://www.w3.org/2000/svg">
<path d="M12.6895 1.25923H12.0734V0.634699C12.0758 0.55226 12.0618 0.470161 12.0319 0.393271C12.0021 0.31638 11.9571 0.246262 11.8997 0.187073C11.8422 0.127883 11.7735 0.0808261 11.6975 0.0486919C11.6216 0.0165576 11.5399 0 11.4575 0C11.375 0 11.2934 0.0165576 11.2174 0.0486919C11.1414 0.0808261 11.0727 0.127883 11.0153 0.187073C10.9578 0.246262 10.9129 0.31638 10.883 0.393271C10.8532 0.470161 10.8391 0.55226 10.8416 0.634699V1.25923H4.92777V0.634699C4.93025 0.55226 4.91615 0.470161 4.88631 0.393271C4.85648 0.31638 4.81151 0.246262 4.75407 0.187073C4.69664 0.127883 4.6279 0.0808261 4.55194 0.0486919C4.47598 0.0165576 4.39435 0 4.31187 0C4.22939 0 4.14776 0.0165576 4.0718 0.0486919C3.99584 0.0808261 3.92711 0.127883 3.86967 0.187073C3.81223 0.246262 3.76726 0.31638 3.73743 0.393271C3.70759 0.470161 3.6935 0.55226 3.69598 0.634699V1.25923H3.0798C2.25756 1.266 1.47156 1.59861 0.894216 2.1841C0.316868 2.7696 -0.00469666 3.56017 5.18525e-05 4.38243V11.8768C-0.00469666 12.6991 0.316868 13.4896 0.894216 14.0751C1.47156 14.6606 2.25756 14.9932 3.0798 15H12.6895C13.5118 14.9932 14.2978 14.6606 14.8751 14.0751C15.4525 13.4896 15.774 12.6991 15.7693 11.8768V4.38243C15.774 3.56017 15.4525 2.7696 14.8751 2.1841C14.2978 1.59861 13.5118 1.266 12.6895 1.25923ZM14.5375 11.8768C14.5403 12.3701 14.3473 12.8444 14.0009 13.1957C13.6545 13.5469 13.1829 13.7464 12.6895 13.7504H3.0798C2.58648 13.7464 2.11487 13.5469 1.76843 13.1957C1.422 12.8444 1.22902 12.3701 1.23184 11.8768V4.38243C1.22902 3.8891 1.422 3.41479 1.76843 3.06355C2.11487 2.71231 2.58648 2.51282 3.0798 2.50885H12.6895C13.1829 2.51282 13.6545 2.71231 14.0009 3.06355C14.3473 3.41479 14.5403 3.8891 14.5375 4.38243V11.8768Z" fill="#FF508B"/>
<path d="M8.53184 6.28498H7.23709C7.0654 6.28498 6.90074 6.21677 6.77934 6.09537C6.65793 5.97396 6.58972 5.8093 6.58972 5.63761C6.58972 5.46591 6.65793 5.30125 6.77934 5.17985C6.90074 5.05844 7.0654 4.99023 7.23709 4.99023H8.53184C8.70353 4.99023 8.86819 5.05844 8.9896 5.17985C9.11101 5.30125 9.17921 5.46591 9.17921 5.63761C9.17921 5.8093 9.11101 5.97396 8.9896 6.09537C8.86819 6.21677 8.70353 6.28498 8.53184 6.28498Z" fill="#FF508B"/>
<path d="M12.9336 6.1717H11.6388C11.4671 6.1717 11.3025 6.10349 11.1811 5.98209C11.0597 5.86068 10.9915 5.69602 10.9915 5.52433C10.9915 5.35263 11.0597 5.18797 11.1811 5.06657C11.3025 4.94516 11.4671 4.87695 11.6388 4.87695H12.9336C13.1053 4.87695 13.2699 4.94516 13.3913 5.06657C13.5127 5.18797 13.5809 5.35263 13.5809 5.52433C13.5809 5.69602 13.5127 5.86068 13.3913 5.98209C13.2699 6.10349 13.1053 6.1717 12.9336 6.1717Z" fill="#FF508B"/>
<path d="M4.13052 8.76154H2.83634C2.66464 8.76154 2.49998 8.69334 2.37857 8.57194C2.25717 8.45053 2.18896 8.28586 2.18896 8.11416C2.18896 7.94247 2.25717 7.77781 2.37857 7.6564C2.49998 7.535 2.66464 7.4668 2.83634 7.4668H4.13108C4.30277 7.4668 4.46743 7.535 4.58884 7.6564C4.71025 7.77781 4.77845 7.94247 4.77845 8.11416C4.77845 8.28586 4.71025 8.45053 4.58884 8.57194C4.46743 8.69334 4.30277 8.76154 4.13108 8.76154H4.13052Z" fill="#FF508B"/>
<path d="M8.53184 8.76154H7.23709C7.0654 8.76154 6.90074 8.69334 6.77934 8.57194C6.65793 8.45053 6.58972 8.28586 6.58972 8.11416C6.58972 7.94247 6.65793 7.77781 6.77934 7.6564C6.90074 7.535 7.0654 7.4668 7.23709 7.4668H8.53184C8.70353 7.4668 8.86819 7.535 8.9896 7.6564C9.11101 7.77781 9.17921 7.94247 9.17921 8.11416C9.17921 8.28586 9.11101 8.45053 8.9896 8.57194C8.86819 8.69334 8.70353 8.76154 8.53184 8.76154Z" fill="#FF508B"/>
<path d="M12.9336 8.76154H11.6388C11.4671 8.76154 11.3025 8.69334 11.1811 8.57194C11.0597 8.45053 10.9915 8.28586 10.9915 8.11416C10.9915 7.94247 11.0597 7.77781 11.1811 7.6564C11.3025 7.535 11.4671 7.4668 11.6388 7.4668H12.9336C13.1053 7.4668 13.2699 7.535 13.3913 7.6564C13.5127 7.77781 13.5809 7.94247 13.5809 8.11416C13.5809 8.28586 13.5127 8.45053 13.3913 8.57194C13.2699 8.69334 13.1053 8.76154 12.9336 8.76154Z" fill="#FF508B"/>
<path d="M4.13052 11.3494H2.83634C2.66464 11.3494 2.49998 11.2812 2.37857 11.1598C2.25717 11.0384 2.18896 10.8737 2.18896 10.7021C2.18896 10.5304 2.25717 10.3657 2.37857 10.2443C2.49998 10.1229 2.66464 10.0547 2.83634 10.0547H4.13108C4.30277 10.0547 4.46743 10.1229 4.58884 10.2443C4.71025 10.3657 4.77845 10.5304 4.77845 10.7021C4.77845 10.8737 4.71025 11.0384 4.58884 11.1598C4.46743 11.2812 4.30277 11.3494 4.13108 11.3494H4.13052Z" fill="#FF508B"/>
<path d="M8.53184 11.3494H7.23709C7.0654 11.3494 6.90074 11.2812 6.77934 11.1598C6.65793 11.0384 6.58972 10.8737 6.58972 10.7021C6.58972 10.5304 6.65793 10.3657 6.77934 10.2443C6.90074 10.1229 7.0654 10.0547 7.23709 10.0547H8.53184C8.70353 10.0547 8.86819 10.1229 8.9896 10.2443C9.11101 10.3657 9.17921 10.5304 9.17921 10.7021C9.17921 10.8737 9.11101 11.0384 8.9896 11.1598C8.86819 11.2812 8.70353 11.3494 8.53184 11.3494Z" fill="#FF508B"/>
</svg>
