<svg width="13" height="13" viewBox="0 0 13 13" fill="none" xmlns="http://www.w3.org/2000/svg">
<path d="M12.4246 5.0312C12.3386 5.0312 12.2562 5.06535 12.1954 5.12613C12.1346 5.18692 12.1005 5.26936 12.1005 5.35532V8.57102H9.39947C9.17982 8.57125 8.96923 8.6586 8.81392 8.81392C8.6586 8.96923 8.57125 9.17982 8.57102 9.39947V12.1005H2.84534C2.26327 12.0986 1.70555 11.8666 1.29392 11.4551C0.882292 11.0435 0.650177 10.4859 0.648239 9.9038V2.84534C0.650062 2.26327 0.882068 1.70555 1.29362 1.29392C1.70516 0.882292 2.26283 0.650177 2.84491 0.648239H7.40376C7.48972 0.648239 7.57216 0.614091 7.63294 0.553307C7.69373 0.492522 7.72787 0.410081 7.72787 0.32412C7.72787 0.238158 7.69373 0.155717 7.63294 0.0949324C7.57216 0.0341482 7.48972 0 7.40376 0H2.84491C2.09099 0.00193943 1.3685 0.302293 0.835396 0.835396C0.302293 1.3685 0.00193943 2.09099 0 2.84491V9.9038C0.00193943 10.6577 0.302293 11.3802 0.835396 11.9133C1.3685 12.4464 2.09099 12.7468 2.84491 12.7487H8.57102C8.68951 12.7487 8.80788 12.741 8.92539 12.7258C8.9341 12.7253 8.94277 12.7241 8.95132 12.7223C9.56634 12.6374 10.1368 12.3541 10.5762 11.9155L11.9159 10.5758C12.4497 10.0422 12.7497 9.31842 12.75 8.56367V5.35532C12.75 5.31265 12.7416 5.27039 12.7252 5.23098C12.7088 5.19158 12.6848 5.15579 12.6546 5.12567C12.6244 5.09556 12.5885 5.07171 12.549 5.0555C12.5095 5.03929 12.4673 5.03103 12.4246 5.0312ZM11.4565 10.1173L10.1169 11.457C9.86597 11.7081 9.55776 11.8944 9.21883 11.9998V9.39947C9.21894 9.35163 9.23802 9.3058 9.27189 9.27201C9.30575 9.23823 9.35163 9.21926 9.39947 9.21926H12.0006C11.8947 9.55827 11.708 9.86645 11.4565 10.1173Z" fill="white"/>
<path d="M9.23521 0.829725L3.35482 6.71012C2.82119 7.24366 2.52119 7.96722 2.52075 8.72182V9.39945C2.52098 9.6191 2.60834 9.82968 2.76365 9.985C2.91897 10.1403 3.12955 10.2277 3.3492 10.2279H4.03331C4.78526 10.2258 5.50584 9.92629 6.03767 9.39469L11.9189 3.51344L12.1838 3.24852C12.539 2.89092 12.7378 2.4071 12.7367 1.90313C12.7357 1.39916 12.5348 0.916167 12.1782 0.560058C11.8175 0.214477 11.337 0.021986 10.8375 0.0229528C10.3379 0.0239197 9.85819 0.21827 9.49883 0.565244L9.23435 0.829725H9.23521ZM5.57871 8.93704C5.16848 9.3472 4.61254 9.57824 4.03245 9.57966H3.3492C3.30148 9.57943 3.25577 9.56037 3.22202 9.52662C3.18828 9.49288 3.16922 9.44717 3.16899 9.39945V8.72139C3.16922 8.13953 3.40035 7.58154 3.81161 7.16994L9.46469 1.51643L11.2318 3.28353L5.57871 8.93704ZM11.7262 1.02204C11.9596 1.25685 12.0906 1.57449 12.0906 1.90559C12.0906 2.23668 11.9596 2.55432 11.7262 2.78914L11.6899 2.82544L9.92321 1.05877L9.95433 1.02765C10.1921 0.798771 10.5091 0.670445 10.8391 0.669398C11.1692 0.668351 11.4869 0.794666 11.7262 1.02204Z" fill="white"/>
</svg>
