<svg width="25" height="25" viewBox="0 0 25 25" fill="none" xmlns="http://www.w3.org/2000/svg">
<path d="M6.87045e-05 23.8642C6.87045e-05 24.1654 0.119791 24.4543 0.3329 24.6673C0.546009 24.8803 0.835047 25 1.13643 25C1.43781 25 1.72685 24.8803 1.93995 24.6673C2.15306 24.4543 2.27279 24.1654 2.27279 23.8642C2.26923 21.9213 2.82374 20.0182 3.87045 18.3809C4.91716 16.7437 6.41207 15.4412 8.17759 14.6281C9.46498 15.4676 10.9693 15.9138 12.5064 15.9122C14.0436 15.9106 15.547 15.4612 16.8326 14.619C17.9069 15.1205 18.8871 15.8025 19.7307 16.6352C20.6835 17.5822 21.4389 18.7086 21.9532 19.9493C22.4676 21.1899 22.7307 22.5202 22.7272 23.8632C22.7272 24.1644 22.847 24.4533 23.0601 24.6663C23.2732 24.8793 23.5622 24.999 23.8636 24.999C24.165 24.999 24.454 24.8793 24.6671 24.6663C24.8802 24.4533 25 24.1644 25 23.8632C25.0041 22.2219 24.6825 20.596 24.0538 19.0797C23.4252 17.5633 22.5019 16.1867 21.3375 15.0293C20.5343 14.2361 19.628 13.5545 18.643 13.0029C19.6003 11.8393 20.2071 10.4278 20.3929 8.93284C20.5787 7.43787 20.3359 5.9209 19.6926 4.55852C19.0494 3.19614 18.0322 2.0444 16.7595 1.23738C15.4868 0.430353 14.0109 0.00124422 12.5036 2.70167e-06C10.9964 -0.00123882 9.51981 0.425438 8.24577 1.23037C6.97173 2.03529 5.95264 3.18536 5.30714 4.54667C4.66164 5.90799 4.41628 7.42456 4.59963 8.91983C4.78298 10.4151 5.38749 11.8276 6.3428 12.9928C4.41262 14.076 2.80697 15.6549 1.69187 17.5662C0.576774 19.4775 -0.00729109 21.6517 6.87045e-05 23.8642ZM12.501 2.28349C13.625 2.28349 14.7237 2.61661 15.6582 3.24072C16.5928 3.86484 17.3211 4.75192 17.7513 5.78978C18.1814 6.82764 18.2939 7.96968 18.0746 9.07147C17.8554 10.1733 17.3141 11.1853 16.5194 11.9797C15.7246 12.774 14.712 13.315 13.6097 13.5341C12.5073 13.7533 11.3647 13.6408 10.3263 13.2109C9.28791 12.781 8.40038 12.053 7.77595 11.119C7.15151 10.1849 6.81822 9.08675 6.81822 7.96338C6.81929 6.45703 7.41826 5.01264 8.48368 3.9472C9.54909 2.88177 10.9939 2.28233 12.501 2.28045V2.28349Z" fill="#2D2DB2"/>
</svg>
