<svg width="25" height="30" viewBox="0 0 25 30" fill="none" xmlns="http://www.w3.org/2000/svg">
<path d="M9.30491 27.2116C9.53662 27.2116 9.71954 27.0266 9.71954 26.7923C9.71954 26.558 9.53662 26.373 9.30491 26.373H9.0732C8.8415 26.373 8.65857 26.558 8.65857 26.7923C8.65857 27.0266 8.8415 27.2116 9.0732 27.2116H9.30491Z" fill="#2D2DB2" fill-opacity="0.5"/>
<path d="M17.5976 12.376C17.1707 12.376 16.8293 12.7213 16.8293 13.1529V24.0292H6.41463C5.9878 24.0292 5.64634 24.3745 5.64634 24.8061C5.64634 25.2377 5.9878 25.5829 6.41463 25.5829H16.7317C16.3902 26.9887 15.1341 27.9999 13.6707 27.9999H4.69512C3.23171 27.9999 1.97561 26.9887 1.63415 25.5829H4.03658C4.46341 25.5829 4.80488 25.2377 4.80488 24.8061C4.80488 24.3745 4.46341 24.0292 4.03658 24.0292H1.53659V8.79987H13.0366C13.4634 8.79987 13.8049 8.45459 13.8049 8.02299C13.8049 7.59139 13.4634 7.24611 13.0366 7.24611H1.63415C1.97561 5.84033 3.23171 4.82915 4.69512 4.82915H10.9878C11.4146 4.82915 11.7561 4.48387 11.7561 4.05227C11.7561 3.62067 11.4146 3.27539 10.9878 3.27539H4.69512C2.10976 3.27539 0 5.40873 0 8.02299V24.8061C0 27.4203 2.10976 29.5537 4.69512 29.5537H13.6707C16.2561 29.5537 18.3659 27.4203 18.3659 24.8061V13.1529C18.3659 12.9432 18.2927 12.7459 18.1463 12.5979C18 12.45 17.8049 12.3637 17.5976 12.3637V12.376Z" fill="#2D2DB2" fill-opacity="0.5"/>
<path d="M7.49996 5.61914C7.26825 5.61914 7.08533 5.80411 7.08533 6.03841C7.08533 6.27271 7.26825 6.45768 7.49996 6.45768H10.878C11.1097 6.45768 11.2926 6.27271 11.2926 6.03841C11.2926 5.80411 11.1097 5.61914 10.878 5.61914H7.49996Z" fill="#2D2DB2" fill-opacity="0.5"/>
<path d="M21.5 1.11677C21.3537 1.30175 21.3903 1.56071 21.561 1.70868C22.3537 2.34992 22.8171 3.31177 22.8171 4.33528V4.37227C22.8171 4.60657 23 4.79154 23.2317 4.79154C23.4634 4.79154 23.6464 4.60657 23.6464 4.37227V4.33528C23.6464 3.05281 23.0732 1.85666 22.0854 1.05512C21.9025 0.90714 21.6464 0.944134 21.5 1.11677Z" fill="#2D2DB2" fill-opacity="0.5"/>
<path d="M22.9147 0.106887C22.7318 -0.0287589 22.4757 0.00823535 22.3294 0.193207C22.1952 0.378178 22.2318 0.637138 22.4147 0.785115C23.5245 1.63598 24.1708 2.93078 24.1708 4.3489V4.73117C24.1708 4.96547 24.3538 5.15044 24.5855 5.15044C24.8172 5.15044 25.0001 4.96547 25.0001 4.73117V4.3489C25.0001 2.67182 24.244 1.1304 22.9147 0.119218V0.106887Z" fill="#2D2DB2" fill-opacity="0.5"/>
<path d="M13.9513 4.36054C13.9513 4.59484 14.1342 4.77981 14.3659 4.77981C14.5976 4.77981 14.7806 4.59484 14.7806 4.36054V4.32355C14.7806 3.30004 15.2318 2.33819 16.0367 1.69695C16.2196 1.54898 16.244 1.29002 16.0976 1.10504C15.9513 0.920073 15.6952 0.89541 15.5123 1.04339C14.5245 1.84493 13.9513 3.04108 13.9513 4.32355V4.36054Z" fill="#2D2DB2" fill-opacity="0.5"/>
<path d="M12.9998 5.12505C13.2315 5.12505 13.4145 4.94008 13.4145 4.70578V4.32351C13.4145 2.91772 14.0486 1.62292 15.1706 0.759725C15.3535 0.624079 15.3901 0.352788 15.2559 0.167816C15.1218 -0.0171553 14.8535 -0.0541495 14.6706 0.0814962C13.3413 1.09267 12.5852 2.6341 12.5852 4.31118V4.69345C12.5852 4.92775 12.7681 5.11272 12.9998 5.11272V5.12505Z" fill="#2D2DB2" fill-opacity="0.5"/>
<path d="M22.3414 7.94906C22.2438 7.94906 22.1585 7.86274 22.1585 7.76409V4.7059C22.1585 3.06582 21.0243 1.6477 19.4877 1.27776V1.14211C19.4877 0.710514 19.1463 0.365234 18.7194 0.365234C18.2926 0.365234 17.9511 0.710514 17.9511 1.14211V1.27776C17.3292 1.42574 16.756 1.74635 16.2926 2.21495C15.6463 2.86851 15.2804 3.74405 15.2804 4.6689V7.75176C15.2804 7.85041 15.195 7.93673 15.0975 7.93673C14.4511 7.93673 13.9146 8.46698 13.9146 9.13288V9.58914C13.9146 10.2427 14.4389 10.7853 15.0975 10.7853H16.9389C17.2438 11.5498 17.9877 12.0678 18.8292 12.0678C19.6706 12.0678 20.4024 11.5498 20.7194 10.7853H22.3536C22.9999 10.7853 23.5365 10.255 23.5365 9.58914V9.13288C23.5365 8.47931 23.0121 7.93673 22.3536 7.93673L22.3414 7.94906ZM20.0975 9.24386H15.9999C16.4877 8.93558 16.817 8.39299 16.817 7.76409V4.68123C16.817 4.16331 17.0121 3.68239 17.378 3.32478C17.7316 2.96717 18.2194 2.75753 18.7438 2.75753C19.7804 2.75753 20.6219 3.64539 20.6219 4.71823V7.77642C20.6219 8.40532 20.9511 8.94791 21.4389 9.25619H20.0975V9.24386Z" fill="#2D2DB2" fill-opacity="0.5"/>
<path d="M12.8172 15.3843L10.2074 12.7454C8.97572 11.4999 6.80499 11.4876 5.57328 12.7454C4.29279 14.0402 4.29279 16.1488 5.57328 17.4436L7.60986 19.503H5.37816C4.95133 19.503 4.60986 19.8483 4.60986 20.2799C4.60986 20.7115 4.95133 21.0568 5.37816 21.0568H13.0123C13.4391 21.0568 13.7806 20.7115 13.7806 20.2799C13.7806 19.9346 13.5611 19.651 13.2562 19.54C13.5977 19.0097 13.7806 18.3932 13.7806 17.7396C13.7806 16.8517 13.4391 16.0255 12.8172 15.3966V15.3843ZM9.87816 14.6074L7.41474 17.0984L6.64645 16.3215C5.96352 15.6309 5.96352 14.5211 6.64645 13.8305C7.30499 13.1646 8.45133 13.1646 9.10986 13.8305L9.86596 14.6074H9.87816ZM12.244 17.7273C12.244 18.1959 12.0611 18.6398 11.7318 18.9727C11.0733 19.6386 9.92694 19.6386 9.2684 18.9727L8.5123 18.2082L10.9757 15.7172L11.7928 16.5558C12.0855 16.8764 12.244 17.2957 12.244 17.7396V17.7273Z" fill="#2D2DB2" fill-opacity="0.5"/>
</svg>
