<svg width="7" height="19" viewBox="0 0 7 19" fill="none" xmlns="http://www.w3.org/2000/svg">
<path d="M5.38673 9.76367V15.9921H5.27885V9.87087H2.69336V9.76367H5.38673Z" fill="#2D2DB2"/>
<path d="M5.21839 3.19824V6.56496H5.13436V3.27883H3.03003V3.19824H5.21839Z" fill="#2D2DB2"/>
<path d="M4.37683 7.07031V8.08033H3.87183V8.01853H4.32754V7.07031H4.37683Z" fill="#2D2DB2"/>
<path d="M2.86157 8.92163C2.88882 8.87488 2.90483 8.81656 2.90483 8.7533C2.90483 8.69004 2.88882 8.63171 2.86174 8.58496H5.21811C5.19103 8.63171 5.17501 8.69004 5.17501 8.7533C5.17501 8.81656 5.19103 8.87488 5.21827 8.92163H2.86157Z" fill="#2D2DB2"/>
<path d="M2.02003 8.45752V8.58557H0V8.08057H0.120819V8.45752H2.02003Z" fill="#2D2DB2"/>
<path d="M2.02014 6.90186H1.85181V8.41688H2.02014V6.90186Z" fill="#2D2DB2"/>
<path d="M1.68336 8.41688H0.48051L0.428385 7.86713L0.33667 6.90186C0.360423 7.13596 0.621381 7.32062 0.939743 7.32062C1.24078 7.32062 1.4902 7.15566 1.53671 6.93974L1.62876 7.86713L1.68336 8.41688Z" fill="#2D2DB2"/>
<path d="M6.73352 8.41639H6.22852L6.35347 7.57471C6.39087 7.5998 6.43454 7.61422 6.48102 7.61422C6.5275 7.61422 6.56749 7.60098 6.60381 7.57787L6.73352 8.41639Z" fill="#2D2DB2"/>
<path d="M6.30036 7.40711C6.30036 7.47397 6.33777 7.53417 6.39673 7.57544H6.06006V7.23877H6.39673C6.33777 7.28004 6.30036 7.34024 6.30036 7.40711Z" fill="#2D2DB2"/>
<path d="M6.22854 0.504883L6.07152 1.17823H2.07592L1.85181 0.504883H6.22854Z" fill="#2D2DB2"/>
<path d="M5.27626 17.844L2.63037 17.818C2.45633 17.8163 2.32931 17.6656 2.36211 17.5073C2.38638 17.6238 2.49398 17.7167 2.63037 17.718L5.27626 17.7439C5.41633 17.7454 5.5318 17.6482 5.55222 17.5227L5.55489 17.5686C5.5636 17.7193 5.43591 17.8456 5.27626 17.844Z" fill="#2D2DB2"/>
<path d="M6.7333 18.3486H1.17822V18.6853H6.7333V18.3486Z" fill="#2D2DB2"/>
<path d="M2.18836 18.6851C2.18836 18.7313 2.1702 18.7734 2.14088 18.8039C2.11171 18.8345 2.07138 18.8534 2.027 18.8534H1.8447C1.75596 18.8534 1.68335 18.7776 1.68335 18.6851H2.18836Z" fill="#2D2DB2"/>
<path d="M4.20813 18.6851C4.20813 18.7313 4.18999 18.7734 4.16067 18.8039C4.13136 18.8345 4.09103 18.8534 4.04667 18.8534H3.86458C3.77587 18.8534 3.70312 18.7776 3.70312 18.6851H4.20813Z" fill="#2D2DB2"/>
<path d="M6.22864 18.6851C6.22864 18.7313 6.21049 18.7734 6.18116 18.8039C6.152 18.8345 6.11166 18.8534 6.06729 18.8534H5.88499C5.79624 18.8534 5.72363 18.7776 5.72363 18.6851H6.22864Z" fill="#2D2DB2"/>
<path d="M6.39921 0.289728L6.28848 0.249535L6.05478 0.93593H6.02659V1.0572L6.14051 1.08631L6.32656 0.309998H1.8298L2.09924 1.09757L2.20997 1.0572V0.93593H2.12591L1.88567 0.410999H6.39921V0.289728L6.28848 0.249535L6.39921 0.289728V0.168457H1.51489L1.97727 1.17847H2.37606L2.16199 0.55254H6.02659L5.8766 1.17847H6.22121L6.56497 0.168457H6.39921V0.289728Z" fill="#2D2DB2"/>
<path d="M1.97075 1.12954H1.85181V16.8338H6.22854V1.01025H1.85181V1.12954H1.97075V1.24883H5.99064V16.5952H2.0897V1.12954H1.97075ZM2.81018 2.95039V3.06968H5.20967V6.63605H2.92912V2.95039H2.81018H2.69123V6.87463H5.44757V2.8311H2.69123V2.95039H2.81018ZM4.35903 7.11423H4.24009V7.86949H3.93134V7.23351H4.35903V7.11423V6.99494H3.69344V8.10807H4.47798V6.99494H4.35903V7.11423ZM5.60203 16.2643V16.145H2.63635V9.72664H5.48308V16.2643H5.60203H5.72097V9.48806H2.39845V16.3836H5.72097V16.2643H5.60203ZM5.44587 9.01176V8.89247C5.42854 8.89247 5.4129 8.88838 5.3988 8.88122C5.3847 8.87407 5.37229 8.8635 5.36278 8.85072L5.32709 8.80301H2.78265L2.74697 8.85072C2.73745 8.8635 2.72505 8.87407 2.71094 8.88122C2.69684 8.88838 2.68121 8.89247 2.66387 8.89247C2.64926 8.89247 2.63584 8.88957 2.62343 8.88429C2.60491 8.87645 2.58894 8.86316 2.57772 8.84646C2.56651 8.82976 2.56005 8.81033 2.56005 8.78835C2.56005 8.77352 2.56294 8.76023 2.56821 8.74779C2.57602 8.72922 2.58928 8.71303 2.60593 8.70178C2.62258 8.69053 2.64195 8.68406 2.66387 8.68406C2.68121 8.68406 2.69701 8.68815 2.71111 8.69548C2.72522 8.7028 2.73762 8.71337 2.74714 8.72598L2.78282 8.77386H5.32709L5.36278 8.72598C5.37229 8.7132 5.3847 8.70263 5.3988 8.69548C5.4129 8.68815 5.42871 8.68423 5.44604 8.68406C5.46065 8.68406 5.47408 8.68695 5.48648 8.69224C5.505 8.70008 5.52097 8.71337 5.53219 8.73007C5.5434 8.74677 5.54986 8.76637 5.54986 8.78835C5.54986 8.80301 5.54697 8.81647 5.54171 8.82891C5.53389 8.84748 5.52063 8.8635 5.50398 8.87475C5.48733 8.886 5.46796 8.89247 5.44604 8.89247V9.13105C5.49294 9.13105 5.53814 9.1215 5.57909 9.10412C5.6406 9.07805 5.69243 9.03477 5.7293 8.98006C5.76618 8.92553 5.78776 8.8589 5.78776 8.78835C5.78776 8.74132 5.77824 8.69599 5.76091 8.65492C5.73491 8.59323 5.69175 8.54108 5.6372 8.5041C5.58283 8.46712 5.51639 8.44548 5.44604 8.44548C5.3903 8.44548 5.33712 8.45911 5.29039 8.48297C5.24366 8.507 5.20339 8.54125 5.17212 8.58317L5.26745 8.65458V8.53529H2.84229V8.65458L2.93762 8.58317C2.90652 8.54142 2.86608 8.507 2.81935 8.48297C2.77262 8.45894 2.71927 8.44531 2.6637 8.44548C2.6168 8.44548 2.5716 8.45502 2.53065 8.47241C2.46914 8.49848 2.41714 8.54176 2.38044 8.59647C2.34357 8.651 2.32199 8.71763 2.32199 8.78818C2.32199 8.83521 2.3315 8.88054 2.34883 8.92161C2.37483 8.9833 2.41799 9.03528 2.47254 9.07226C2.52691 9.10923 2.59335 9.13088 2.6637 9.13088C2.71944 9.13088 2.77262 9.11724 2.81935 9.09339C2.86608 9.06936 2.90618 9.03511 2.93728 8.99353L2.84212 8.92195V9.04124H5.26745V8.92195L5.17229 8.99353C5.20339 9.03511 5.24366 9.06936 5.29022 9.09339C5.33678 9.11741 5.39013 9.13105 5.44587 9.13088V9.01159V9.01176Z" fill="#2D2DB2"/>
<path d="M6.75359 18.2353V18.1221H1.3398L1.86994 16.5552H1.96205V16.4419H1.84153V16.7845H6.27631V16.5552H6.35362V16.4419L6.23568 16.4652L6.63565 18.2587L6.75359 18.2353V18.1221V18.2353L6.87153 18.212L6.45142 16.3286H6.03526V16.558H2.08258V16.3286H1.69363L1.01025 18.3486H6.90201L6.87153 18.212L6.75359 18.2353Z" fill="#2D2DB2"/>
<path d="M2.47746 9.54615H2.35693V16.3285H5.72365V9.42676H2.35693V9.54615H2.47746V9.66555H5.48259V16.0897H2.59799V9.54615H2.47746ZM5.3965 16.0045V15.8851H2.80461V9.87023H5.27597V16.0045H5.3965H5.51703V9.63144H2.56355V16.1238H5.51703V16.0045H5.3965Z" fill="#2D2DB2"/>
<path d="M5.27262 9.88329H5.15851V15.9212H2.92158V10.0029H5.27262V9.88329H5.15851H5.27262V9.76367H2.69336V16.1604H5.38673V9.76367H5.27262V9.88329Z" fill="#2D2DB2"/>
<path d="M2.80959 2.981H2.69336V6.90188H5.38673V2.86182H2.69336V2.981H2.80959V3.10019H5.15427V6.6635H2.92582V2.981H2.80959ZM5.07125 6.57837V6.45919H3.12507V3.30451H4.95502V6.57837H5.07125H5.18748V3.06613H2.89261V6.69756H5.18748V6.57837H5.07125Z" fill="#2D2DB2"/>
<path d="M5.09465 3.14846H4.97102V6.32748H3.10883V3.26714H5.09465V3.14846H4.97102H5.09465V3.02979H2.86157V6.56484H5.21827V3.02979H5.09465V3.14846Z" fill="#2D2DB2"/>
<path d="M4.41719 7.02813H4.28958V7.82765H3.95835V7.15441H4.41719V7.02813H4.28958H4.41719V6.90186H3.70312V8.08021H4.5448V6.90186H4.41719V7.02813Z" fill="#2D2DB2"/>
<path d="M2.91312 8.75351H2.79595C2.79595 8.77712 2.78842 8.79737 2.77587 8.81412L2.7747 8.81562L2.77537 8.81462C2.76599 8.82717 2.75378 8.83755 2.73988 8.84459C2.72599 8.85162 2.71059 8.85563 2.69352 8.85563C2.67913 8.85563 2.6659 8.85279 2.65369 8.8476C2.63544 8.8399 2.61971 8.82684 2.60866 8.81043C2.59762 8.79403 2.59126 8.77494 2.59126 8.75334C2.59126 8.73878 2.5941 8.72572 2.59929 8.7135C2.60699 8.69525 2.62004 8.67935 2.63645 8.6683C2.65285 8.65725 2.67193 8.65089 2.69352 8.65089C2.71059 8.65089 2.72616 8.6549 2.74005 8.6621C2.75394 8.6693 2.76616 8.67968 2.77553 8.69207V8.6924C2.78842 8.70931 2.79579 8.72974 2.79595 8.75334H3.03028C3.03028 8.67817 3.00534 8.60753 2.96299 8.55144V8.55178C2.93253 8.51076 2.89286 8.47694 2.84684 8.45334C2.80081 8.42973 2.74825 8.41634 2.69352 8.41651C2.64733 8.41651 2.60281 8.42588 2.56247 8.44296C2.50188 8.46857 2.45066 8.51109 2.41451 8.56483C2.37819 8.61841 2.35693 8.68387 2.35693 8.75318C2.35693 8.79938 2.36631 8.84392 2.38338 8.88426C2.40899 8.94487 2.4515 8.99593 2.50523 9.03226C2.55879 9.06859 2.62423 9.08985 2.69352 9.08985C2.74842 9.08985 2.80081 9.07645 2.84684 9.05302C2.89286 9.02941 2.93236 8.99576 2.96299 8.95491L2.96266 8.95541C3.00534 8.89916 3.03028 8.82851 3.03028 8.75318H2.91312V8.75351Z" fill="#2D2DB2"/>
<path d="M5.60609 8.75334H5.48896C5.48896 8.76774 5.48612 8.78097 5.48093 8.79319C5.47323 8.81144 5.46018 8.82717 5.44378 8.83822C5.42738 8.84927 5.40831 8.85563 5.38672 8.85563C5.36965 8.85563 5.35426 8.85161 5.34037 8.84458C5.32648 8.83755 5.31427 8.82717 5.3049 8.81462L5.30456 8.81411C5.29201 8.79721 5.28448 8.77695 5.28448 8.75334C5.28448 8.72974 5.29201 8.70931 5.30456 8.6924V8.69207C5.3141 8.67951 5.32648 8.66913 5.34037 8.6621C5.35426 8.6549 5.36982 8.65105 5.38689 8.65088C5.40128 8.65088 5.4145 8.65373 5.42671 8.65892C5.44495 8.66662 5.46068 8.67968 5.47173 8.69609C5.48277 8.71249 5.48913 8.73175 5.48913 8.75334H5.72339C5.72339 8.70714 5.71402 8.6626 5.69695 8.62226C5.67135 8.56165 5.62885 8.51042 5.57514 8.47409C5.52159 8.43777 5.45616 8.4165 5.38689 8.4165C5.332 8.4165 5.27963 8.4299 5.23361 8.45334C5.1876 8.47694 5.14794 8.51059 5.11715 8.55178L5.11548 8.55395L5.11732 8.55144C5.07498 8.60752 5.05005 8.67817 5.05005 8.75334C5.05005 8.82851 5.07498 8.89933 5.11765 8.95541L5.11732 8.95491C5.14794 8.99576 5.1876 9.02941 5.23344 9.05301C5.27929 9.07662 5.33184 9.09001 5.38672 9.08985C5.4329 9.08985 5.47741 9.08047 5.51774 9.06339C5.57832 9.03778 5.62935 8.99526 5.66566 8.94152C5.70197 8.88794 5.72322 8.82248 5.72322 8.75318H5.60609V8.75334Z" fill="#2D2DB2"/>
<path d="M1.90623 7.87074H1.79257V8.33116H1.69449V8.45824L1.8075 8.44535L1.76658 7.99783H1.90623V7.87074H1.79257H1.90623V7.74365H1.51489L1.59186 8.58533H2.0199V7.74365H1.90623V7.87074Z" fill="#2D2DB2"/>
<path d="M0.366462 8.45824V8.33116H0.251247V7.99783H0.309752V7.87074L0.184667 7.88308L0.241377 8.47059L0.366462 8.45824V8.33116V8.45824L0.491548 8.4459L0.423711 7.74365H0V8.58533H0.505007L0.491548 8.4459L0.366462 8.45824Z" fill="#2D2DB2"/>
<path d="M0.925881 6.35103V6.22869C0.826152 6.22869 0.730585 6.24355 0.642649 6.27081C0.510833 6.31188 0.39532 6.38075 0.309466 6.47373C0.266626 6.52022 0.231417 6.573 0.206788 6.63103C0.182159 6.68905 0.168457 6.7525 0.168457 6.81787C0.168457 6.83464 0.169498 6.8509 0.171059 6.86628C0.179557 6.94825 0.209216 7.02463 0.253617 7.09087C0.320219 7.19049 0.418215 7.26862 0.533727 7.32262C0.649414 7.37663 0.783312 7.40669 0.926055 7.40687C1.10592 7.40687 1.2719 7.35915 1.40476 7.27561C1.47101 7.23366 1.52912 7.18263 1.57542 7.12285C1.62156 7.06308 1.6559 6.99422 1.67238 6.91924L1.67533 6.90613V6.8925H1.55392L1.67238 6.91906C1.67966 6.88603 1.68348 6.85212 1.68348 6.81769C1.68348 6.73048 1.65902 6.64693 1.61705 6.57458C1.58566 6.52004 1.5449 6.47146 1.4972 6.42899C1.42574 6.36537 1.33885 6.31573 1.24207 6.28147C1.14529 6.24722 1.03845 6.22852 0.926228 6.22852V6.4732C1.00202 6.4732 1.07383 6.48456 1.138 6.50449C1.23444 6.53438 1.31318 6.58384 1.36452 6.63994C1.39036 6.66791 1.40927 6.69744 1.42193 6.72698C1.43442 6.75669 1.44066 6.78641 1.44083 6.81769C1.44083 6.8343 1.4391 6.8502 1.43563 6.86593L1.43268 6.87904V6.89267H1.55409L1.43563 6.8661C1.42765 6.90211 1.41083 6.93794 1.38412 6.97237C1.3444 7.0241 1.28196 7.07234 1.20287 7.10677C1.12395 7.14138 1.02891 7.16218 0.926402 7.162C0.781751 7.16218 0.652189 7.12041 0.561305 7.05801C0.515863 7.0269 0.480134 6.99107 0.455505 6.95419C0.430876 6.91714 0.417 6.87956 0.413011 6.84076C0.412144 6.83272 0.411797 6.82486 0.411797 6.81752C0.411797 6.77592 0.422898 6.73659 0.445445 6.69727C0.462269 6.66791 0.485857 6.63907 0.516036 6.61233C0.561131 6.57213 0.620969 6.537 0.690867 6.51218C0.760937 6.48736 0.841068 6.47303 0.926402 6.47303V6.35069L0.925881 6.35103ZM0.925881 7.17983V7.05749C0.86535 7.05749 0.807247 7.04875 0.75504 7.03337C0.676644 7.01047 0.61195 6.97219 0.571538 6.93165C0.551245 6.91137 0.536849 6.89092 0.528004 6.87187C0.519158 6.85282 0.515343 6.83534 0.515169 6.81787C0.515169 6.80616 0.516903 6.79462 0.520719 6.78239C0.52731 6.76124 0.540318 6.73782 0.561825 6.71405C0.593739 6.67839 0.644557 6.64326 0.707864 6.61844C0.77117 6.59328 0.846271 6.57807 0.925708 6.57825C0.98624 6.57825 1.04434 6.58698 1.09638 6.60237C1.17477 6.62526 1.23929 6.66336 1.2797 6.70409C1.3 6.72436 1.31439 6.74481 1.32324 6.76386C1.33208 6.78309 1.3359 6.80039 1.33607 6.81787C1.33607 6.82958 1.33434 6.84111 1.33052 6.85335C1.32393 6.87449 1.31092 6.89791 1.28942 6.92168C1.2575 6.95734 1.20669 6.99247 1.14355 7.01729C1.08042 7.04246 1.00514 7.05766 0.925708 7.05749V7.30217C1.00931 7.30217 1.08978 7.29029 1.16437 7.26827C1.27606 7.23523 1.3751 7.1807 1.45072 7.10555C1.48836 7.06797 1.52027 7.0248 1.54299 6.97639C1.56571 6.92798 1.57907 6.87397 1.57889 6.81787C1.57889 6.78064 1.573 6.74394 1.56242 6.7095C1.54368 6.64903 1.51056 6.59537 1.4691 6.54941C1.40666 6.48055 1.32515 6.42759 1.23253 6.39071C1.13991 6.35401 1.0355 6.33356 0.925708 6.33338C0.842109 6.33338 0.761631 6.34527 0.687051 6.36729C0.575354 6.40032 0.476318 6.45485 0.400697 6.53001C0.36306 6.56758 0.331146 6.61075 0.308425 6.65917C0.285704 6.70758 0.272349 6.76176 0.272349 6.81769C0.272349 6.85492 0.278246 6.89162 0.288826 6.92605C0.307558 6.98653 0.340686 7.04018 0.382312 7.08615C0.444925 7.15501 0.526269 7.20797 0.618888 7.24467C0.711506 7.28138 0.815919 7.30182 0.925708 7.30182V7.17948L0.925881 7.17983Z" fill="#2D2DB2"/>
<path d="M6.6385 7.40706H6.54388C6.54388 7.43363 6.53874 7.45754 6.5309 7.47644C6.52306 7.49535 6.51265 7.50863 6.50359 7.51582H6.50346C6.49913 7.51942 6.49521 7.5216 6.49143 7.52301C6.48778 7.52442 6.4844 7.52504 6.48075 7.52504C6.47696 7.52504 6.47345 7.52442 6.46953 7.52285C6.46574 7.52129 6.46142 7.51879 6.45696 7.51504L6.45615 7.51426L6.45561 7.51379C6.45317 7.51176 6.44979 7.50848 6.4456 7.50301L6.44601 7.50363C6.43857 7.49395 6.43114 7.48035 6.426 7.46379C6.42073 7.44722 6.41749 7.42785 6.41762 7.40706C6.41762 7.38612 6.42087 7.36675 6.426 7.35034C6.43128 7.33377 6.43857 7.32018 6.44601 7.31049H6.44587C6.45236 7.30237 6.45899 7.29674 6.4648 7.29361C6.47061 7.29033 6.47548 7.28924 6.48088 7.28908C6.4867 7.28908 6.49183 7.29049 6.49819 7.2944C6.50751 7.30002 6.51941 7.31237 6.5286 7.33206C6.53779 7.35159 6.54415 7.37768 6.54415 7.40706H6.73339C6.73339 7.32049 6.70946 7.24017 6.66634 7.17782C6.64471 7.14673 6.61795 7.12 6.58645 7.10078C6.55509 7.08156 6.51873 7.07031 6.48088 7.07031C6.44587 7.07031 6.41195 7.08 6.38234 7.09672C6.3526 7.11344 6.32679 7.13688 6.30529 7.16438H6.30516C6.28042 7.19657 6.2615 7.23408 6.24852 7.27502C6.23554 7.31596 6.22852 7.36065 6.22852 7.40706C6.22852 7.45347 6.23554 7.49816 6.24852 7.53911C6.2615 7.58005 6.28056 7.61755 6.30516 7.64943L6.30556 7.65005C6.31719 7.6649 6.33071 7.67943 6.34666 7.6924L6.40127 7.60302L6.34531 7.69115C6.36423 7.70725 6.38532 7.72037 6.40816 7.72944C6.43101 7.7385 6.45574 7.74366 6.48102 7.74366C6.50522 7.74366 6.52887 7.73912 6.5509 7.73069C6.57294 7.72225 6.59348 7.71022 6.61187 7.69537H6.61173C6.65107 7.66396 6.68121 7.62068 6.70176 7.5713C6.7223 7.52192 6.73352 7.46582 6.73352 7.40691H6.6389L6.6385 7.40706Z" fill="#2D2DB2"/>
<path d="M5.59962 17.6623H5.47898L5.59962 17.6624L5.48036 17.6448C5.4745 17.6822 5.4545 17.7156 5.42572 17.7399C5.39677 17.764 5.36006 17.7785 5.31853 17.7785H5.31663L2.59175 17.7512C2.5709 17.7511 2.55212 17.7474 2.53471 17.7409C2.48266 17.722 2.4432 17.6762 2.43268 17.6237V17.6233C2.43062 17.6135 2.42958 17.6037 2.42958 17.5936C2.42958 17.5799 2.43148 17.566 2.43561 17.5515L2.54022 17.1819C2.55005 17.1475 2.5709 17.1187 2.59882 17.0979C2.62674 17.0773 2.66121 17.0655 2.69826 17.0655H2.69929L5.29819 17.0828C5.34162 17.0831 5.3804 17.0994 5.40987 17.1266C5.43934 17.1537 5.45795 17.1904 5.46054 17.2323L5.48242 17.6179L5.48208 17.6115C5.48208 17.6145 5.48225 17.6177 5.48225 17.621C5.48225 17.6293 5.48156 17.6373 5.48053 17.6448L5.47915 17.6534V17.6623H5.59979L5.71905 17.6797C5.72215 17.6603 5.72353 17.6406 5.72353 17.621C5.72353 17.614 5.72353 17.6069 5.72301 17.5996L5.70147 17.2197C5.69561 17.1169 5.64856 17.0243 5.57652 16.9582C5.50466 16.892 5.40659 16.851 5.29992 16.8503L2.70102 16.833H2.69826C2.60709 16.833 2.52127 16.8626 2.4525 16.9132C2.38374 16.9637 2.33152 17.0359 2.30756 17.1209L2.20295 17.4905C2.19313 17.5249 2.18848 17.5598 2.18848 17.5939C2.18848 17.6195 2.19106 17.6448 2.19623 17.6692V17.6689C2.21416 17.7564 2.26224 17.8342 2.331 17.8909C2.36547 17.9194 2.40511 17.9423 2.44888 17.9585C2.49249 17.9746 2.54022 17.9836 2.58969 17.9841L5.31456 18.0114H5.31887C5.42021 18.0114 5.51362 17.9749 5.58428 17.9157C5.65494 17.8565 5.70423 17.7737 5.71922 17.6802L5.7206 17.6714V17.6623H5.59996H5.59962Z" fill="#2D2DB2"/>
<path d="M6.44476 0.126072V0H1.51489V0.505007H6.56497V0H6.44476V0.126072H6.32455V0.252864H1.75531V0.252144H6.44476V0.126072H6.32455H6.44476Z" fill="#2D2DB2"/>
</svg>
