<svg width="26" height="26" viewBox="0 0 26 26" fill="none" xmlns="http://www.w3.org/2000/svg">
<path d="M13 26C15.5712 26 18.0846 25.2376 20.2224 23.8091C22.3602 22.3807 24.0265 20.3503 25.0104 17.9749C25.9944 15.5995 26.2518 12.9856 25.7502 10.4638C25.2486 7.94208 24.0105 5.6257 22.1924 3.80762C20.3743 1.98954 18.0579 0.751405 15.5362 0.249797C13.0144 -0.251811 10.4005 0.0056327 8.02511 0.989572C5.64967 1.97351 3.61935 3.63975 2.19089 5.77759C0.76243 7.91543 -5.72205e-06 10.4288 -5.72205e-06 13C0.00396347 16.4466 1.37488 19.7509 3.81199 22.188C6.2491 24.6251 9.5534 25.996 13 26ZM13 1.85701C15.2039 1.85701 17.3583 2.51053 19.1907 3.73494C21.0232 4.95935 22.4514 6.69965 23.2948 8.73576C24.1382 10.7719 24.3588 13.0124 23.9289 15.1739C23.4989 17.3354 22.4377 19.3209 20.8793 20.8793C19.3209 22.4377 17.3354 23.4989 15.1739 23.9289C13.0124 24.3589 10.7719 24.1382 8.73575 23.2948C6.69963 22.4514 4.95934 21.0232 3.73493 19.1907C2.51052 17.3583 1.85699 15.2039 1.85699 13C1.86044 10.0458 3.03553 7.21349 5.1245 5.12452C7.21348 3.03554 10.0457 1.86045 13 1.85701Z" fill="white"/>
<path d="M8.358 18.5716C8.48004 18.5719 8.60093 18.548 8.71368 18.5013C8.82644 18.4546 8.92885 18.3861 9.015 18.2996L18.301 9.01364C18.4751 8.83953 18.5729 8.60338 18.5729 8.35715C18.5729 8.11091 18.4751 7.87475 18.301 7.70064C18.1269 7.52652 17.8907 7.42871 17.6445 7.42871C17.3983 7.42871 17.1621 7.52652 16.988 7.70064L7.702 16.9866C7.57244 17.1165 7.48426 17.2819 7.44856 17.4619C7.41287 17.6419 7.43125 17.8284 7.50142 17.9979C7.57158 18.1674 7.69038 18.3124 7.84282 18.4145C7.99526 18.5166 8.17453 18.5713 8.358 18.5716Z" fill="white"/>
<path d="M17.643 18.5707C17.8265 18.5703 18.0057 18.5156 18.1582 18.4135C18.3106 18.3114 18.4294 18.1665 18.4996 17.9969C18.5697 17.8274 18.5881 17.6409 18.5524 17.4609C18.5167 17.281 18.4285 17.1156 18.299 16.9857L9.01299 7.69966C8.83888 7.52555 8.60273 7.42773 8.3565 7.42773C8.11026 7.42773 7.8741 7.52555 7.69999 7.69966C7.52587 7.87378 7.42806 8.10992 7.42806 8.35616C7.42806 8.60239 7.52587 8.83855 7.69999 9.01266L16.986 18.2987C17.0722 18.3851 17.1746 18.4536 17.2873 18.5003C17.4001 18.547 17.521 18.5709 17.643 18.5707Z" fill="white"/>
</svg>
