<svg width="7" height="11" viewBox="0 0 7 11" fill="none" xmlns="http://www.w3.org/2000/svg">
<path fill-rule="evenodd" clip-rule="evenodd" d="M0 3.51408C0 1.59851 1.59211 0 3.50001 0C5.40794 0 7 1.59851 7 3.51408C7 5.14085 5.85178 6.53898 4.33697 6.92359V6.95174C4.33697 7.41585 3.96226 7.79206 3.50001 7.79206C3.03776 7.79206 2.66305 7.41585 2.66305 6.95174V6.1878C2.66305 5.72378 3.03776 5.34748 3.50001 5.34748C4.48343 5.34748 5.32608 4.50144 5.32608 3.51408C5.32608 2.52671 4.48343 1.68065 3.50001 1.68065C2.51658 1.68065 1.67392 2.52671 1.67392 3.51408C1.67392 3.97817 1.29919 4.35439 0.836958 4.35439C0.374714 4.35439 0 3.97817 0 3.51408ZM4.48913 10.0069C4.48913 10.5554 4.04621 11 3.49992 11C2.95364 11 2.51081 10.5554 2.51081 10.0069C2.51081 9.45843 2.95364 9.01381 3.49992 9.01381C4.04621 9.01381 4.48913 9.45843 4.48913 10.0069Z" fill="#FF508B"/>
</svg>
