<svg width="162" height="162" viewBox="0 0 162 162" fill="none" xmlns="http://www.w3.org/2000/svg">
<circle cx="81" cy="81" r="81" fill="#F5F5FF"/>
<g opacity="0.5">
<path d="M102.564 129.718C102.564 130.796 103.438 131.671 104.516 131.671H110.375C111.453 131.671 112.327 130.796 112.327 129.718V123.86C112.327 122.781 111.453 121.907 110.375 121.907C109.296 121.907 108.422 122.781 108.422 123.86V127.765H104.516C103.438 127.765 102.564 128.64 102.564 129.718Z" fill="#B5B5FF"/>
<path d="M81.0843 37.9436C82.1627 37.9436 83.037 37.0694 83.037 35.9909V32.0855C83.037 31.0071 82.1627 30.1328 81.0843 30.1328C80.0058 30.1328 79.1316 31.0071 79.1316 32.0855V35.9909C79.1316 37.0694 80.0058 37.9436 81.0843 37.9436Z" fill="#B5B5FF"/>
<path d="M73.2747 47.7003H88.8963C89.9748 47.7003 90.849 46.8261 90.849 45.7476C90.849 44.6692 89.9748 43.7949 88.8963 43.7949H73.2747C72.1963 43.7949 71.322 44.6692 71.322 45.7476C71.322 46.8261 72.1963 47.7003 73.2747 47.7003Z" fill="#B5B5FF"/>
<path d="M39.0885 125.355C40.0649 125.941 41.0412 126.423 42.0313 126.875V131.672C42.0313 135.986 45.5283 139.483 49.8421 139.483H112.329C116.642 139.483 120.139 135.986 120.139 131.672V119.509C120.46 119.683 120.782 119.829 121.102 120.017C122.131 120.72 123.461 120.809 124.574 120.249C125.496 119.698 126.042 118.686 125.997 117.613V101.991C125.877 99.9894 124.789 98.1715 123.082 97.1193C122.106 96.5335 121.129 96.0414 120.139 95.5903V51.6116C120.139 47.2978 116.642 43.8007 112.329 43.8007H102.508C102.237 40.4805 99.8812 37.7018 96.6503 36.8901L94.0337 36.234C92.1386 35.7563 90.8203 34.0387 90.8488 32.0845C90.8546 26.9581 86.8946 22.7001 81.7812 22.3347C76.6678 21.9694 72.1426 25.6209 71.4194 30.6962C71.3377 31.2631 71.305 31.8361 71.3218 32.4087C71.3643 34.1657 70.1848 35.7181 68.4806 36.1481L65.5125 36.8901C62.2816 37.7018 59.9261 40.4805 59.6544 43.8007H49.8421C45.5283 43.8007 42.0313 47.2978 42.0313 51.6116V102.968C41.7091 102.794 41.3869 102.645 41.0647 102.458C40.0358 101.755 38.7061 101.666 37.5928 102.226C36.6735 102.777 36.129 103.787 36.1731 104.858V120.479C36.2929 122.483 37.3806 124.302 39.0885 125.355ZM116.234 131.672C116.234 133.829 114.485 135.578 112.329 135.578H49.8421C47.6852 135.578 45.9367 133.829 45.9367 131.672V128.366C48.9178 129.278 52.0185 129.739 55.1358 129.733C64.1534 129.733 73.0714 126.246 81.7961 122.831C93.6841 118.179 104.994 113.754 116.234 117.753V131.672ZM63.511 44.4666C63.5104 42.674 64.7302 41.1111 66.4693 40.6764L69.4355 39.9344C72.9183 39.0509 75.3238 35.8717 75.2272 32.2798C75.2162 31.9293 75.2351 31.5785 75.2838 31.2312C75.6731 28.6371 77.7328 26.614 80.3335 26.2713C80.583 26.242 80.8341 26.227 81.0853 26.2264C82.5147 26.2218 83.8955 26.7446 84.9634 27.6949C86.2296 28.8193 86.9509 30.4341 86.9434 32.1275C86.9243 35.8617 89.4624 39.1243 93.0866 40.0242L95.7013 40.6784C97.4397 41.1129 98.6594 42.6747 98.6596 44.4666V49.6589C98.6596 50.7373 97.7854 51.6116 96.7069 51.6116H65.4637C64.3852 51.6116 63.511 50.7373 63.511 49.6589V44.4666ZM45.9367 51.6116C45.9367 49.4547 47.6852 47.7061 49.8421 47.7061H59.6056V49.6589C59.6056 52.8942 62.2283 55.517 65.4637 55.517H96.7069C99.9423 55.517 102.565 52.8942 102.565 49.6589V47.7061H112.329C114.485 47.7061 116.234 49.4547 116.234 51.6116V94.1277C108.177 91.6693 100.2 92.8526 92.0771 95.397L92.0302 95.4107C75.9653 100.453 60.8924 110.056 45.9464 104.739L45.9367 51.6116ZM40.0786 106.387C41.3355 107.07 42.6408 107.661 43.984 108.154V116.57C43.984 117.649 44.8582 118.523 45.9367 118.523C47.0151 118.523 47.8894 117.649 47.8894 116.57V109.378C49.1762 109.671 50.4808 109.881 51.7948 110.005V114.067C51.7948 115.145 52.669 116.019 53.7475 116.019C54.8259 116.019 55.7002 115.145 55.7002 114.067V110.193C57.0058 110.165 58.3092 110.073 59.6056 109.915V113.536C59.6056 114.614 60.4798 115.488 61.5583 115.488C62.6367 115.488 63.511 114.614 63.511 113.536V109.289C64.8154 109.023 66.1178 108.703 67.4164 108.343V111.606C67.4164 112.685 68.2906 113.559 69.3691 113.559C70.4475 113.559 71.3218 112.685 71.3218 111.606V107.17C72.6281 106.742 73.9286 106.281 75.2272 105.803V112.755C75.2272 113.833 76.1014 114.707 77.1799 114.707C78.2583 114.707 79.1326 113.833 79.1326 112.755V104.335C80.023 103.991 80.9109 103.645 81.7961 103.296L83.038 102.809V105.817C83.038 106.895 83.9123 107.769 84.9907 107.769C86.0692 107.769 86.9434 106.895 86.9434 105.817V101.306C88.2517 100.814 89.5535 100.346 90.8488 99.9019V103.061C90.8488 104.14 91.7231 105.014 92.8015 105.014C93.88 105.014 94.7542 104.14 94.7542 103.061V98.6522C96.056 98.2694 97.3578 97.9349 98.6596 97.6485V101.138C98.6596 102.216 99.5339 103.091 100.612 103.091C101.691 103.091 102.565 102.216 102.565 101.138V96.965C103.86 96.7916 105.164 96.6906 106.47 96.6624V104.504C106.47 105.583 107.345 106.457 108.423 106.457C109.502 106.457 110.376 105.583 110.376 104.504V96.8732C114.171 97.3083 117.831 98.5414 121.116 100.492C121.619 100.85 121.967 101.386 122.092 101.991V116.084C108.324 108.595 94.764 113.545 80.3745 119.175C66.7681 124.498 53.9193 129.524 41.0647 121.979C40.5583 121.622 40.206 121.086 40.0786 120.479V106.387Z" fill="#B5B5FF"/>
<path d="M116.234 108.236C117.312 108.236 118.186 107.362 118.186 106.284C118.186 105.205 117.312 104.331 116.234 104.331C115.155 104.331 114.281 105.205 114.281 106.284C114.281 107.362 115.155 108.236 116.234 108.236Z" fill="#B5B5FF"/>
<path d="M53.7481 65.2843H84.9913C86.0698 65.2843 86.944 64.4101 86.944 63.3316C86.944 62.2532 86.0698 61.3789 84.9913 61.3789H53.7481C52.6697 61.3789 51.7954 62.2532 51.7954 63.3316C51.7954 64.4101 52.6697 65.2843 53.7481 65.2843Z" fill="#B5B5FF"/>
<path d="M96.7067 76.9977H104.518C107.753 76.9977 110.376 74.375 110.376 71.1396V63.3288C110.376 60.0935 107.753 57.4707 104.518 57.4707H96.7067C93.4714 57.4707 90.8486 60.0935 90.8486 63.3288V71.1396C90.8486 74.375 93.4714 76.9977 96.7067 76.9977ZM94.754 63.3288C94.754 62.2504 95.6283 61.3761 96.7067 61.3761H104.518C105.596 61.3761 106.47 62.2504 106.47 63.3288V71.1396C106.47 72.2181 105.596 73.0923 104.518 73.0923H96.7067C95.6283 73.0923 94.754 72.2181 94.754 71.1396V63.3288Z" fill="#B5B5FF"/>
<path d="M53.7481 88.714H84.9913C86.0698 88.714 86.944 87.8397 86.944 86.7613C86.944 85.6828 86.0698 84.8086 84.9913 84.8086H53.7481C52.6697 84.8086 51.7954 85.6828 51.7954 86.7613C51.7954 87.8397 52.6697 88.714 53.7481 88.714Z" fill="#B5B5FF"/>
<path d="M53.7481 73.0919H69.3697C70.4482 73.0919 71.3224 72.2177 71.3224 71.1392C71.3224 70.0608 70.4482 69.1865 69.3697 69.1865H53.7481C52.6697 69.1865 51.7954 70.0608 51.7954 71.1392C51.7954 72.2177 52.6697 73.0919 53.7481 73.0919Z" fill="#B5B5FF"/>
<path d="M71.3224 94.5689C71.3224 93.4905 70.4482 92.6162 69.3697 92.6162H53.7481C52.6697 92.6162 51.7954 93.4905 51.7954 94.5689C51.7954 95.6474 52.6697 96.5216 53.7481 96.5216H69.3697C70.4482 96.5216 71.3224 95.6474 71.3224 94.5689Z" fill="#B5B5FF"/>
<path d="M92.8013 88.72C93.8798 88.72 94.754 87.8457 94.754 86.7673C94.754 85.6888 95.6283 84.8146 96.7067 84.8146H104.518C105.596 84.8146 106.47 85.6888 106.47 86.7673C106.47 87.8457 107.345 88.72 108.423 88.72C109.501 88.72 110.376 87.8457 110.376 86.7673C110.376 83.5319 107.753 80.9092 104.518 80.9092H96.7067C93.4714 80.9092 90.8486 83.5319 90.8486 86.7673C90.8486 87.8457 91.7229 88.72 92.8013 88.72Z" fill="#B5B5FF"/>
</g>
</svg>
