<svg width="63" height="63" viewBox="0 0 63 63" fill="none" xmlns="http://www.w3.org/2000/svg">
<rect width="63" height="63" rx="3" fill="#FF508B"/>
<path d="M37 32.374V48.5616H36.7197V32.6526H30V32.374H37Z" fill="white"/>
<path d="M36.5624 15.3135V24.0635H36.344V15.5229H30.8749V15.3135H36.5624Z" fill="white"/>
<path d="M34.3751 25.375V28H33.0626V27.8394H34.247V25.375H34.3751Z" fill="white"/>
<path d="M30.4377 30.1865C30.5086 30.065 30.5502 29.9134 30.5502 29.749C30.5502 29.5846 30.5086 29.433 30.4382 29.3115H36.5624C36.492 29.433 36.4504 29.5846 36.4504 29.749C36.4504 29.9134 36.492 30.065 36.5628 30.1865H30.4377Z" fill="white"/>
<path d="M28.25 28.9797V29.3125H23V28H23.314V28.9797H28.25Z" fill="white"/>
<path d="M28.2499 24.9375H27.8124V28.875H28.2499V24.9375Z" fill="white"/>
<path d="M27.375 28.875H24.2488L24.1134 27.4462L23.875 24.9375C23.9367 25.5459 24.615 26.0259 25.4424 26.0259C26.2248 26.0259 26.873 25.5971 26.9939 25.036L27.2331 27.4462L27.375 28.875Z" fill="white"/>
<path d="M40.5001 28.875H39.1876L39.5124 26.6875C39.6096 26.7527 39.7231 26.7902 39.8439 26.7902C39.9647 26.7902 40.0686 26.7558 40.163 26.6957L40.5001 28.875Z" fill="white"/>
<path d="M39.3747 26.25C39.3747 26.4238 39.4719 26.5802 39.6251 26.6875H38.7501V25.8125H39.6251C39.4719 25.9198 39.3747 26.0762 39.3747 26.25Z" fill="white"/>
<path d="M39.1875 8.3125L38.7794 10.0625H28.3948L27.8124 8.3125H39.1875Z" fill="white"/>
<path d="M36.7123 53.375L29.8356 53.3075C29.3833 53.303 29.0532 52.9114 29.1385 52.5C29.2015 52.8028 29.4812 53.0442 29.8356 53.0475L36.7123 53.115C37.0763 53.1187 37.3764 52.8661 37.4295 52.5399L37.4365 52.6592C37.4591 53.0508 37.1272 53.3791 36.7123 53.375Z" fill="white"/>
<path d="M40.5001 54.6875H26.0625V55.5625H40.5001V54.6875Z" fill="white"/>
<path d="M28.6878 55.5625C28.6878 55.6827 28.6406 55.792 28.5644 55.8714C28.4886 55.9508 28.3837 56 28.2684 56H27.7946C27.564 56 27.3752 55.8029 27.3752 55.5625H28.6878Z" fill="white"/>
<path d="M33.9376 55.5625C33.9376 55.6827 33.8905 55.792 33.8143 55.8714C33.7381 55.9508 33.6333 56 33.518 56H33.0448C32.8142 56 32.6251 55.8029 32.6251 55.5625H33.9376Z" fill="white"/>
<path d="M39.1876 55.5625C39.1876 55.6827 39.1405 55.792 39.0642 55.8714C38.9884 55.9508 38.8836 56 38.7683 56H38.2945C38.0638 56 37.8751 55.8029 37.8751 55.5625H39.1876Z" fill="white"/>
<path d="M39.6318 7.75268L39.344 7.64822L38.7366 9.43215H38.6634V9.74734L38.9594 9.82298L39.443 7.80536H27.7559L28.4562 9.85225L28.744 9.74734V9.43215H28.5255L27.9011 8.06786H39.6318V7.75268L39.344 7.64822L39.6318 7.75268V7.4375H26.9375L28.1392 10.0625H29.1757L28.6193 8.43573H38.6634L38.2735 10.0625H39.1692L40.0626 7.4375H39.6318V7.75268Z" fill="white"/>
<path d="M28.1215 9.93503H27.8124V50.7503H39.1875V9.625H27.8124V9.93503H28.1215V10.2451H38.5692V50.1302H28.4307V9.93503H28.1215ZM30.3032 14.6674V14.9774H36.5394V24.2464H30.6123V14.6674H30.3032H29.994V24.8664H37.1577V14.3574H29.994V14.6674H30.3032ZM34.3286 25.4892H34.0195V27.4521H33.2171V25.7992H34.3286V25.4892V25.1791H32.5988V28.0721H34.6378V25.1791H34.3286V25.4892ZM37.5592 49.2701V48.9601H29.8514V32.2788H37.25V49.2701H37.5592H37.8683V31.6587H29.2331V49.5802H37.8683V49.2701H37.5592ZM37.1533 30.4208V30.1108C37.1083 30.1108 37.0676 30.1002 37.031 30.0816C36.9943 30.063 36.9621 30.0355 36.9373 30.0023L36.8446 29.8783H30.2316L30.1389 30.0023C30.1142 30.0355 30.0819 30.063 30.0453 30.0816C30.0086 30.1002 29.968 30.1108 29.9229 30.1108C29.885 30.1108 29.8501 30.1033 29.8178 30.0895C29.7697 30.0692 29.7282 30.0346 29.699 29.9912C29.6699 29.9478 29.6531 29.8973 29.6531 29.8402C29.6531 29.8017 29.6606 29.7671 29.6743 29.7348C29.6946 29.6865 29.7291 29.6444 29.7723 29.6152C29.8156 29.586 29.866 29.5691 29.9229 29.5691C29.968 29.5691 30.009 29.5798 30.0457 29.5988C30.0824 29.6179 30.1146 29.6453 30.1393 29.6781L30.2321 29.8025H36.8446L36.9373 29.6781C36.9621 29.6449 36.9943 29.6174 37.031 29.5988C37.0676 29.5798 37.1087 29.5696 37.1537 29.5691C37.1917 29.5691 37.2266 29.5767 37.2589 29.5904C37.307 29.6108 37.3485 29.6453 37.3777 29.6887C37.4068 29.7321 37.4236 29.7831 37.4236 29.8402C37.4236 29.8783 37.4161 29.9133 37.4024 29.9456C37.3821 29.9939 37.3476 30.0355 37.3043 30.0647C37.2611 30.094 37.2107 30.1108 37.1537 30.1108V30.7309C37.2756 30.7309 37.3931 30.7061 37.4995 30.6609C37.6594 30.5931 37.7941 30.4806 37.8899 30.3385C37.9858 30.1967 38.0419 30.0236 38.0419 29.8402C38.0419 29.718 38.0171 29.6001 37.9721 29.4934C37.9045 29.3331 37.7923 29.1975 37.6506 29.1014C37.5093 29.0053 37.3366 28.9491 37.1537 28.9491C37.0089 28.9491 36.8707 28.9845 36.7492 29.0465C36.6278 29.109 36.5231 29.198 36.4418 29.3069L36.6896 29.4925V29.1825H30.3866V29.4925L30.6344 29.3069C30.5536 29.1984 30.4485 29.109 30.327 29.0465C30.2056 28.9841 30.0669 28.9486 29.9225 28.9491C29.8006 28.9491 29.6831 28.9739 29.5767 29.0191C29.4168 29.0868 29.2817 29.1993 29.1863 29.3415C29.0905 29.4832 29.0344 29.6564 29.0344 29.8398C29.0344 29.962 29.0591 30.0798 29.1041 30.1865C29.1717 30.3469 29.2839 30.482 29.4257 30.5781C29.567 30.6742 29.7397 30.7304 29.9225 30.7304C30.0673 30.7304 30.2056 30.695 30.327 30.633C30.4485 30.5705 30.5527 30.4815 30.6335 30.3734L30.3862 30.1874V30.4975H36.6896V30.1874L36.4423 30.3734C36.5231 30.4815 36.6278 30.5705 36.7488 30.633C36.8698 30.6954 37.0085 30.7309 37.1533 30.7304V30.4204V30.4208Z" fill="white"/>
<path d="M40.5519 54.3931V54.0986H26.4815L27.8593 50.0264H28.0987V49.7319H27.7855V50.6225H39.3114V50.0264H39.5124V49.7319L39.2058 49.7925L40.2453 54.4537L40.5519 54.3931V54.0986V54.3931L40.8584 54.3325L39.7665 49.4375H38.6849V50.0336H28.412V49.4375H27.4011L25.625 54.6875H40.9376L40.8584 54.3325L40.5519 54.3931Z" fill="white"/>
<path d="M29.4383 31.8103H29.125V49.4376H37.8751V31.5H29.125V31.8103H29.4383V32.1206H37.2486V48.817H29.7515V31.8103H29.4383ZM37.0248 48.5954V48.285H30.2885V32.6526H36.7115V48.5954H37.0248H37.3381V32.032H29.662V48.9057H37.3381V48.5954H37.0248Z" fill="white"/>
<path d="M36.7035 32.6849H36.4069V48.3774H30.5932V32.9958H36.7035V32.6849H36.4069H36.7035V32.374H30V48.9991H37V32.374H36.7035V32.6849Z" fill="white"/>
<path d="M30.3021 14.7473H30V24.9376H37V14.4375H30V14.7473H30.3021V15.057H36.3959V24.318H30.6042V14.7473H30.3021ZM36.1801 24.0968V23.787H31.122V15.588H35.878V24.0968H36.1801H36.4822V14.9685H30.5179V24.4066H36.4822V24.0968H36.1801Z" fill="white"/>
<path d="M36.2415 15.1834H35.9202V23.4457H31.0804V15.4919H36.2415V15.1834H35.9202H36.2415V14.875H30.4377V24.0626H36.5628V14.875H36.2415V15.1834Z" fill="white"/>
<path d="M34.481 25.2657H34.1493V27.3436H33.2884V25.5939H34.481V25.2657H34.1493H34.481V24.9375H32.6251V28H34.8126V24.9375H34.481V25.2657Z" fill="white"/>
<path d="M30.5705 29.7509H30.266C30.266 29.8122 30.2464 29.8649 30.2138 29.9084L30.2108 29.9123L30.2125 29.9097C30.1881 29.9423 30.1564 29.9693 30.1203 29.9876C30.0842 30.0059 30.0442 30.0163 29.9998 30.0163C29.9624 30.0163 29.928 30.0089 29.8963 29.9954C29.8488 29.9754 29.808 29.9415 29.7792 29.8988C29.7505 29.8562 29.734 29.8066 29.734 29.7504C29.734 29.7126 29.7414 29.6787 29.7549 29.6469C29.7749 29.5995 29.8088 29.5581 29.8515 29.5294C29.8941 29.5007 29.9437 29.4842 29.9998 29.4842C30.0442 29.4842 30.0846 29.4946 30.1207 29.5133C30.1568 29.532 30.1886 29.559 30.2129 29.5912V29.5921C30.2464 29.636 30.2656 29.6891 30.266 29.7504H30.875C30.875 29.5551 30.8102 29.3715 30.7001 29.2257V29.2266C30.621 29.12 30.5179 29.0321 30.3982 28.9707C30.2786 28.9094 30.142 28.8746 29.9998 28.875C29.8797 28.875 29.764 28.8994 29.6592 28.9438C29.5017 29.0103 29.3686 29.1208 29.2746 29.2605C29.1802 29.3997 29.125 29.5699 29.125 29.75C29.125 29.8701 29.1494 29.9858 29.1937 30.0907C29.2603 30.2482 29.3708 30.3809 29.5104 30.4753C29.6496 30.5698 29.8197 30.625 29.9998 30.625C30.1425 30.625 30.2786 30.5902 30.3982 30.5293C30.5179 30.4679 30.6205 30.3805 30.7001 30.2743L30.6993 30.2756C30.8102 30.1294 30.875 29.9458 30.875 29.75H30.5705V29.7509Z" fill="white"/>
<path d="M37.5703 29.7504H37.2658C37.2658 29.7879 37.2585 29.8222 37.245 29.854C37.225 29.9014 37.191 29.9423 37.1484 29.971C37.1058 29.9998 37.0562 30.0163 37.0001 30.0163C36.9558 30.0163 36.9158 30.0058 36.8797 29.9876C36.8436 29.9693 36.8118 29.9423 36.7875 29.9097L36.7866 29.9084C36.754 29.8644 36.7344 29.8118 36.7344 29.7504C36.7344 29.6891 36.754 29.636 36.7866 29.5921V29.5912C36.8114 29.5586 36.8436 29.5316 36.8797 29.5133C36.9158 29.4946 36.9562 29.4846 37.0006 29.4842C37.038 29.4842 37.0723 29.4915 37.1041 29.505C37.1515 29.5251 37.1924 29.559 37.2211 29.6016C37.2498 29.6443 37.2663 29.6943 37.2663 29.7504H37.8751C37.8751 29.6304 37.8508 29.5146 37.8064 29.4097C37.7399 29.2522 37.6294 29.1191 37.4898 29.0247C37.3507 28.9303 37.1806 28.875 37.0006 28.875C36.8579 28.875 36.7218 28.9098 36.6022 28.9707C36.4826 29.0321 36.3795 29.1195 36.2995 29.2266L36.2952 29.2322L36.3 29.2257C36.1899 29.3715 36.1251 29.5551 36.1251 29.7504C36.1251 29.9458 36.1899 30.1299 36.3008 30.2756L36.3 30.2743C36.3795 30.3805 36.4826 30.4679 36.6018 30.5293C36.7209 30.5906 36.8575 30.6254 37.0001 30.625C37.1202 30.625 37.2358 30.6006 37.3406 30.5563C37.4981 30.4897 37.6307 30.3792 37.7251 30.2395C37.8195 30.1003 37.8747 29.9301 37.8747 29.75H37.5703V29.7504Z" fill="white"/>
<path d="M27.9546 27.4553H27.6592V28.6519H27.4043V28.9822L27.698 28.9487L27.5916 27.7856H27.9546V27.4553H27.6592H27.9546V27.125H26.9375L27.1375 29.3125H28.25V27.125H27.9546V27.4553Z" fill="white"/>
<path d="M23.9524 28.9822V28.6519H23.653V27.7856H23.805V27.4553L23.4799 27.4874L23.6273 29.0143L23.9524 28.9822V28.6519V28.9822L24.2775 28.9501L24.1012 27.125H23V29.3125H24.3125L24.2775 28.9501L23.9524 28.9822Z" fill="white"/>
<path d="M25.406 23.5049V23.187C25.1468 23.187 24.8985 23.2256 24.6699 23.2965C24.3273 23.4032 24.0271 23.5822 23.804 23.8238C23.6926 23.9447 23.6011 24.0818 23.5371 24.2326C23.4731 24.3835 23.4375 24.5484 23.4375 24.7182C23.4375 24.7618 23.4402 24.8041 23.4443 24.8441C23.4663 25.0571 23.5434 25.2556 23.6588 25.4278C23.8319 25.6867 24.0866 25.8897 24.3868 26.0301C24.6875 26.1705 25.0355 26.2486 25.4065 26.249C25.8739 26.249 26.3053 26.125 26.6506 25.9079C26.8228 25.7989 26.9738 25.6662 27.0942 25.5109C27.2141 25.3555 27.3034 25.1766 27.3462 24.9817L27.3538 24.9476V24.9122H27.0383L27.3462 24.9812C27.3651 24.8954 27.375 24.8073 27.375 24.7178C27.375 24.4911 27.3115 24.274 27.2024 24.0859C27.1208 23.9442 27.0149 23.8179 26.8909 23.7075C26.7052 23.5422 26.4793 23.4132 26.2278 23.3242C25.9763 23.2351 25.6986 23.1865 25.4069 23.1865V23.8225C25.6039 23.8225 25.7905 23.852 25.9573 23.9038C26.208 23.9815 26.4126 24.11 26.5461 24.2558C26.6132 24.3285 26.6624 24.4053 26.6953 24.482C26.7277 24.5593 26.7439 24.6365 26.7444 24.7178C26.7444 24.7609 26.7399 24.8023 26.7309 24.8432L26.7232 24.8772V24.9127H27.0387L26.7309 24.8436C26.7101 24.9372 26.6664 25.0303 26.597 25.1198C26.4938 25.2542 26.3315 25.3796 26.1259 25.4691C25.9208 25.559 25.6738 25.6131 25.4074 25.6126C25.0314 25.6131 24.6947 25.5045 24.4585 25.3424C24.3404 25.2615 24.2475 25.1684 24.1835 25.0726C24.1195 24.9763 24.0835 24.8786 24.0731 24.7777C24.0708 24.7568 24.0699 24.7364 24.0699 24.7173C24.0699 24.6092 24.0988 24.507 24.1574 24.4048C24.2011 24.3285 24.2624 24.2535 24.3409 24.184C24.4581 24.0796 24.6136 23.9883 24.7952 23.9238C24.9774 23.8593 25.1856 23.822 25.4074 23.822V23.504L25.406 23.5049ZM25.406 25.659V25.341C25.2487 25.341 25.0977 25.3183 24.962 25.2783C24.7583 25.2188 24.5901 25.1193 24.4851 25.014C24.4324 24.9613 24.3949 24.9081 24.372 24.8586C24.349 24.8091 24.3391 24.7637 24.3386 24.7182C24.3386 24.6878 24.3431 24.6578 24.353 24.626C24.3702 24.5711 24.404 24.5102 24.4599 24.4484C24.5428 24.3558 24.6749 24.2644 24.8394 24.1999C25.0039 24.1345 25.1991 24.095 25.4056 24.0955C25.5629 24.0955 25.7139 24.1182 25.8492 24.1582C26.0529 24.2177 26.2206 24.3167 26.3256 24.4225C26.3784 24.4752 26.4158 24.5284 26.4388 24.5779C26.4618 24.6278 26.4717 24.6728 26.4721 24.7182C26.4721 24.7487 26.4676 24.7787 26.4577 24.8104C26.4406 24.8654 26.4068 24.9263 26.3509 24.9881C26.2679 25.0807 26.1358 25.172 25.9718 25.2365C25.8077 25.3019 25.612 25.3415 25.4056 25.341V25.977C25.6229 25.977 25.832 25.9461 26.0259 25.8888C26.3162 25.803 26.5735 25.6613 26.7701 25.4659C26.8679 25.3683 26.9508 25.2561 27.0099 25.1302C27.069 25.0044 27.1037 24.8641 27.1032 24.7182C27.1032 24.6215 27.0879 24.5261 27.0604 24.4366C27.0117 24.2794 26.9256 24.14 26.8179 24.0205C26.6556 23.8415 26.4437 23.7039 26.203 23.6081C25.9623 23.5127 25.6909 23.4595 25.4056 23.4591C25.1883 23.4591 24.9792 23.49 24.7853 23.5472C24.495 23.633 24.2376 23.7748 24.0411 23.9701C23.9433 24.0678 23.8603 24.18 23.8013 24.3058C23.7422 24.4316 23.7075 24.5724 23.7075 24.7178C23.7075 24.8145 23.7228 24.9099 23.7503 24.9994C23.799 25.1566 23.8851 25.296 23.9933 25.4155C24.156 25.5945 24.3675 25.7321 24.6082 25.8275C24.8489 25.9229 25.1202 25.976 25.4056 25.976V25.6581L25.406 25.659Z" fill="white"/>
<path d="M40.2532 26.2502H40.0072C40.0072 26.3193 39.9939 26.3814 39.9735 26.4305C39.9531 26.4797 39.9261 26.5142 39.9025 26.5329H39.9022C39.891 26.5422 39.8808 26.5479 39.8709 26.5516C39.8614 26.5552 39.8527 26.5568 39.8432 26.5568C39.8333 26.5568 39.8242 26.5552 39.814 26.5512C39.8042 26.5471 39.7929 26.5406 39.7813 26.5308L39.7792 26.5288L39.7778 26.5276C39.7715 26.5223 39.7627 26.5138 39.7518 26.4996L39.7529 26.5012C39.7336 26.476 39.7142 26.4407 39.7009 26.3976C39.6872 26.3546 39.6788 26.3042 39.6791 26.2502C39.6791 26.1958 39.6875 26.1454 39.7009 26.1028C39.7146 26.0597 39.7336 26.0244 39.7529 25.9992H39.7525C39.7694 25.9781 39.7866 25.9635 39.8017 25.9554C39.8168 25.9468 39.8295 25.944 39.8435 25.9436C39.8586 25.9436 39.872 25.9472 39.8885 25.9574C39.9127 25.972 39.9436 26.0041 39.9675 26.0553C39.9914 26.106 40.0079 26.1739 40.0079 26.2502H40.4998C40.4998 26.0252 40.4376 25.8165 40.3255 25.6544C40.2693 25.5736 40.1998 25.5041 40.1179 25.4542C40.0364 25.4042 39.9419 25.375 39.8435 25.375C39.7525 25.375 39.6644 25.4002 39.5874 25.4436C39.5101 25.4871 39.443 25.548 39.3872 25.6195H39.3868C39.3225 25.7032 39.2733 25.8006 39.2396 25.907C39.2059 26.0134 39.1876 26.1296 39.1876 26.2502C39.1876 26.3708 39.2059 26.487 39.2396 26.5934C39.2733 26.6998 39.3229 26.7973 39.3868 26.8801L39.3879 26.8817C39.4181 26.9203 39.4532 26.9581 39.4947 26.9918L39.6366 26.7595L39.4912 26.9886C39.5403 27.0304 39.5951 27.0645 39.6545 27.0881C39.7139 27.1116 39.7782 27.125 39.8439 27.125C39.9068 27.125 39.9682 27.1132 40.0255 27.0913C40.0828 27.0694 40.1362 27.0381 40.1839 26.9995H40.1836C40.2858 26.9179 40.3642 26.8054 40.4176 26.6771C40.471 26.5487 40.5001 26.4029 40.5001 26.2498H40.2542L40.2532 26.2502Z" fill="white"/>
<path d="M37.553 52.9042H37.2395L37.553 52.9047L37.2431 52.8589C37.2278 52.9561 37.1759 53.043 37.1011 53.1061C37.0258 53.1688 36.9304 53.2064 36.8225 53.2064H36.8175L29.7356 53.1355C29.6814 53.1351 29.6326 53.1256 29.5874 53.1087C29.4521 53.0594 29.3495 52.9406 29.3222 52.804V52.8031C29.3168 52.7776 29.3141 52.7521 29.3141 52.7257C29.3141 52.6903 29.3191 52.654 29.3298 52.6164L29.6017 51.6559C29.6272 51.5664 29.6814 51.4916 29.754 51.4376C29.8265 51.384 29.9161 51.3533 30.0124 51.3533H30.0151L36.7696 51.3983C36.8825 51.3991 36.9833 51.4415 37.0599 51.512C37.1365 51.5824 37.1848 51.6779 37.1916 51.7869L37.2484 52.7888L37.2475 52.7724C37.2475 52.7802 37.248 52.7884 37.248 52.797C37.248 52.8187 37.2462 52.8394 37.2435 52.8589L37.2399 52.8813V52.9042H37.5535L37.8634 52.9496C37.8715 52.8991 37.8751 52.8481 37.8751 52.797C37.8751 52.7789 37.8751 52.7603 37.8737 52.7413L37.8177 51.754C37.8025 51.4869 37.6802 51.2461 37.493 51.0745C37.3062 50.9025 37.0514 50.7957 36.7741 50.794L30.0196 50.749H30.0124C29.7755 50.749 29.5524 50.826 29.3737 50.9574C29.195 51.0888 29.0593 51.2764 28.997 51.4973L28.7251 52.4577C28.6996 52.5472 28.6875 52.638 28.6875 52.7266C28.6875 52.7932 28.6942 52.8589 28.7077 52.9224V52.9215C28.7542 53.1489 28.8792 53.3512 29.0579 53.4986C29.1475 53.5725 29.2505 53.6322 29.3643 53.6741C29.4776 53.716 29.6017 53.7394 29.7302 53.7407L36.8122 53.8115H36.8234C37.0867 53.8115 37.3295 53.7169 37.5132 53.563C37.6968 53.4091 37.8249 53.1939 37.8639 52.9509L37.8674 52.928V52.9042H37.5539H37.553Z" fill="white"/>
<path d="M39.7502 7.32766V7H26.9375V8.31251H40.0626V7H39.7502V7.32766H39.4378V7.65719H27.5623V7.65532H39.7502V7.32766H39.4378H39.7502Z" fill="white"/>
</svg>
