<svg width="9" height="21" viewBox="0 0 9 21" fill="none" xmlns="http://www.w3.org/2000/svg">
<path d="M6.59209 10.7993V17.6884H6.47276V10.9179H3.61304V10.7993H6.59209Z" fill="white"/>
<path d="M6.40583 3.5376V7.26142H6.31288V3.62673H3.98535V3.5376H6.40583Z" fill="white"/>
<path d="M5.47483 7.82031V8.93746H4.91626V8.86911H5.42031V7.82031H5.47483Z" fill="white"/>
<path d="M3.79883 9.86799C3.82896 9.81628 3.84668 9.75177 3.84668 9.6818C3.84668 9.61183 3.82896 9.54731 3.79901 9.49561H6.40532C6.37537 9.54731 6.35765 9.61183 6.35765 9.6818C6.35765 9.75177 6.37537 9.81628 6.4055 9.86799H3.79883Z" fill="white"/>
<path d="M2.86808 9.35443V9.49607H0.633789V8.9375H0.767424V9.35443H2.86808Z" fill="white"/>
<path d="M2.86832 7.63428H2.68213V9.31H2.86832V7.63428Z" fill="white"/>
<path d="M2.49563 9.31H1.1652L1.10755 8.70194L1.0061 7.63428C1.03238 7.89321 1.32101 8.09746 1.67314 8.09746C2.00612 8.09746 2.28198 7.915 2.33343 7.67618L2.43524 8.70194L2.49563 9.31Z" fill="white"/>
<path d="M8.08152 9.30937H7.52295L7.66116 8.37842C7.70252 8.40617 7.75083 8.42212 7.80224 8.42212C7.85364 8.42212 7.89788 8.40748 7.93805 8.38191L8.08152 9.30937Z" fill="white"/>
<path d="M7.60246 8.19254C7.60246 8.2665 7.64384 8.33308 7.70905 8.37873H7.33667V8.00635H7.70905C7.64384 8.05199 7.60246 8.11858 7.60246 8.19254Z" fill="white"/>
<path d="M7.52309 0.558105L7.34942 1.30287H2.93001L2.68213 0.558105H7.52309Z" fill="white"/>
<path d="M6.4697 19.7366L3.54316 19.7079C3.35066 19.706 3.21017 19.5393 3.24645 19.3643C3.27329 19.4931 3.3923 19.5959 3.54316 19.5973L6.4697 19.626C6.62463 19.6276 6.75234 19.5201 6.77492 19.3812L6.77788 19.432C6.78751 19.5987 6.64628 19.7384 6.4697 19.7366Z" fill="white"/>
<path d="M8.08131 20.2949H1.93701V20.6673H8.08131V20.2949Z" fill="white"/>
<path d="M3.05418 20.667C3.05418 20.7181 3.0341 20.7646 3.00167 20.7985C2.96941 20.8323 2.92479 20.8532 2.87571 20.8532H2.67407C2.57592 20.8532 2.49561 20.7693 2.49561 20.667H3.05418Z" fill="white"/>
<path d="M5.28831 20.667C5.28831 20.7181 5.26824 20.7646 5.23581 20.7985C5.20339 20.8323 5.15879 20.8532 5.10972 20.8532H4.90832C4.81019 20.8532 4.72974 20.7693 4.72974 20.667H5.28831Z" fill="white"/>
<path d="M7.52293 20.667C7.52293 20.7181 7.50285 20.7646 7.47042 20.7985C7.43816 20.8323 7.39354 20.8532 7.34446 20.8532H7.14282C7.04467 20.8532 6.96436 20.7693 6.96436 20.667H7.52293Z" fill="white"/>
<path d="M7.71171 0.320658L7.58924 0.276202L7.33075 1.0354H7.29957V1.16953L7.42557 1.20173L7.63136 0.343077H2.65763L2.95565 1.21418L3.07813 1.16953V1.0354H2.98516L2.71943 0.454792H7.71171V0.320658L7.58924 0.276202L7.71171 0.320658V0.186523H2.30933L2.82075 1.30367H3.26184L3.02505 0.611345H7.29957L7.13367 1.30367H7.51483L7.89505 0.186523H7.71171V0.320658Z" fill="white"/>
<path d="M2.81369 1.24962H2.68213V18.6196H7.52309V1.11768H2.68213V1.24962H2.81369V1.38156H7.25996V18.3557H2.94526V1.24962H2.81369ZM3.74215 3.2636V3.39554H6.39616V7.34019H3.87372V3.2636H3.74215H3.61059V7.60407H6.65928V3.13166H3.61059V3.2636H3.74215ZM5.45529 7.86908H5.32373V8.70446H4.98223V8.00103H5.45529V7.86908V7.73714H4.7191V8.96834H5.58686V7.73714H5.45529V7.86908ZM6.83013 17.9897V17.8578H3.54988V10.7586H6.69857V17.9897H6.83013H6.96169V10.4947H3.28676V18.1216H6.96169V17.9897H6.83013ZM6.6574 9.96789V9.83594C6.63823 9.83594 6.62094 9.83142 6.60534 9.8235C6.58974 9.81559 6.57602 9.8039 6.5655 9.78976L6.52603 9.73699H3.71171L3.67224 9.78976C3.66171 9.8039 3.64799 9.81559 3.63239 9.8235C3.61679 9.83142 3.5995 9.83594 3.58033 9.83594C3.56417 9.83594 3.54932 9.83274 3.5356 9.8269C3.51511 9.81823 3.49744 9.80352 3.48504 9.78505C3.47264 9.76658 3.46549 9.74509 3.46549 9.72078C3.46549 9.70438 3.46869 9.68968 3.47452 9.67592C3.48316 9.65537 3.49782 9.63747 3.51624 9.62503C3.53466 9.61259 3.55608 9.60542 3.58033 9.60542C3.5995 9.60542 3.61698 9.60995 3.63258 9.61805C3.64818 9.62616 3.6619 9.63784 3.67242 9.65179L3.71189 9.70476H6.52603L6.5655 9.65179C6.57602 9.63766 6.58974 9.62597 6.60534 9.61805C6.62094 9.60995 6.63842 9.60561 6.65759 9.60542C6.67376 9.60542 6.6886 9.60863 6.70232 9.61447C6.72281 9.62314 6.74048 9.63785 6.75288 9.65632C6.76529 9.67479 6.77243 9.69646 6.77243 9.72078C6.77243 9.73699 6.76923 9.75188 6.76341 9.76564C6.75476 9.78618 6.7401 9.8039 6.72168 9.81634C6.70326 9.82878 6.68184 9.83594 6.65759 9.83594V10.0998C6.70947 10.0998 6.75946 10.0893 6.80476 10.07C6.87279 10.0412 6.93012 9.99333 6.9709 9.93283C7.01169 9.87251 7.03556 9.79881 7.03556 9.72078C7.03556 9.66876 7.02503 9.61862 7.00586 9.57319C6.9771 9.50496 6.92936 9.44728 6.86903 9.40638C6.80889 9.36548 6.7354 9.34154 6.65759 9.34154C6.59595 9.34154 6.53712 9.35662 6.48543 9.38301C6.43375 9.40959 6.3892 9.44747 6.35462 9.49384L6.46006 9.57282V9.44088H3.77767V9.57282L3.88311 9.49384C3.84872 9.44766 3.80399 9.40959 3.7523 9.38301C3.70062 9.35643 3.6416 9.34135 3.58014 9.34154C3.52827 9.34154 3.47827 9.3521 3.43298 9.37132C3.36494 9.40016 3.30743 9.44804 3.26683 9.50854C3.22605 9.56886 3.20218 9.64256 3.20218 9.72059C3.20218 9.77261 3.2127 9.82275 3.23188 9.86818C3.26063 9.93641 3.30837 9.9939 3.3687 10.0348C3.42884 10.0757 3.50233 10.0996 3.58014 10.0996C3.64179 10.0996 3.70062 10.0846 3.7523 10.0582C3.80399 10.0316 3.84834 9.99371 3.88274 9.94772L3.77749 9.86855V10.0005H6.46006V9.86855L6.35481 9.94772C6.3892 9.99371 6.43375 10.0316 6.48525 10.0582C6.53674 10.0847 6.59576 10.0998 6.6574 10.0996V9.9677V9.96789Z" fill="white"/>
<path d="M8.10374 20.17V20.0447H2.11572L2.70209 18.3117H2.80398V18.1863H2.67067V18.5653H7.57584V18.3117H7.66135V18.1863L7.5309 18.2121L7.97329 20.1958L8.10374 20.17V20.0447V20.17L8.23419 20.1442L7.76952 18.061H7.30922V18.3147H2.93728V18.061H2.50708L1.75122 20.2953H8.2679L8.23419 20.1442L8.10374 20.17Z" fill="white"/>
<path d="M3.37404 10.5588H3.24072V18.0606H6.96454V10.4268H3.24072V10.5588H3.37404V10.6909H6.69791V17.7965H3.50735V10.5588H3.37404ZM6.60269 17.7021V17.5701H3.73589V10.9173H6.46938V17.7021H6.60269H6.736V10.6531H3.46926V17.8342H6.736V17.7021H6.60269Z" fill="white"/>
<path d="M6.46588 10.9316H6.33966V17.61H3.86547V11.0639H6.46588V10.9316H6.33966H6.46588V10.7993H3.61304V17.8746H6.59209V10.7993H6.46588V10.9316Z" fill="white"/>
<path d="M3.7416 3.29735H3.61304V7.63411H6.59209V3.16553H3.61304V3.29735H3.7416V3.42918H6.33498V7.37045H3.87015V3.29735H3.7416ZM6.24315 7.27629V7.14446H4.09054V3.65517H6.11459V7.27629H6.24315H6.37171V3.39152H3.83342V7.40812H6.37171V7.27629H6.24315Z" fill="white"/>
<path d="M6.26876 3.48234H6.13202V6.99855H4.07231V3.6136H6.26876V3.48234H6.13202H6.26876V3.35107H3.79883V7.26108H6.4055V3.35107H6.26876V3.48234Z" fill="white"/>
<path d="M5.51955 7.77395H5.3784V8.65827H5.01203V7.91362H5.51955V7.77395H5.3784H5.51955V7.63428H4.72974V8.93761H5.66069V7.63428H5.51955V7.77395Z" fill="white"/>
<path d="M3.8559 9.68184H3.72631C3.72631 9.70794 3.71798 9.73035 3.70409 9.74887L3.7028 9.75053L3.70354 9.74942C3.69317 9.76331 3.67966 9.77479 3.66429 9.78257C3.64893 9.79035 3.63189 9.79479 3.61301 9.79479C3.59709 9.79479 3.58247 9.79164 3.56895 9.7859C3.54877 9.77738 3.53137 9.76294 3.51915 9.74479C3.50693 9.72665 3.4999 9.70554 3.4999 9.68165C3.4999 9.66554 3.50305 9.6511 3.50879 9.63758C3.5173 9.6174 3.53174 9.5998 3.54988 9.58758C3.56803 9.57536 3.58913 9.56832 3.61301 9.56832C3.63189 9.56832 3.64911 9.57277 3.66448 9.58073C3.67984 9.58869 3.69336 9.60017 3.70372 9.61388V9.61425C3.71798 9.63295 3.72612 9.65554 3.72631 9.68165H3.98549C3.98549 9.59851 3.9579 9.52037 3.91107 9.45833V9.4587C3.87737 9.41334 3.8335 9.37593 3.78259 9.34982C3.73168 9.32371 3.67355 9.3089 3.61301 9.30908C3.56192 9.30908 3.51267 9.31945 3.46806 9.33834C3.40104 9.36667 3.34439 9.41371 3.30441 9.47315C3.26423 9.5324 3.24072 9.6048 3.24072 9.68146C3.24072 9.73257 3.25109 9.78183 3.26997 9.82645C3.2983 9.89349 3.34532 9.94996 3.40474 9.99015C3.46399 10.0303 3.53637 10.0538 3.61301 10.0538C3.67373 10.0538 3.73168 10.039 3.78259 10.0131C3.8335 9.987 3.87719 9.94978 3.91107 9.9046L3.91069 9.90515C3.9579 9.84294 3.98549 9.76479 3.98549 9.68146H3.8559V9.68184Z" fill="white"/>
<path d="M6.8345 9.68165H6.70495C6.70495 9.69757 6.7018 9.7122 6.69606 9.72572C6.68755 9.7459 6.67311 9.76331 6.65498 9.77553C6.63684 9.78775 6.61574 9.79479 6.59186 9.79479C6.57299 9.79479 6.55596 9.79034 6.5406 9.78257C6.52524 9.77479 6.51172 9.76331 6.50136 9.74942L6.50099 9.74887C6.48711 9.73016 6.47878 9.70776 6.47878 9.68165C6.47878 9.65554 6.48711 9.63295 6.50099 9.61425V9.61387C6.51154 9.59999 6.52524 9.58851 6.5406 9.58073C6.55596 9.57277 6.57317 9.56851 6.59205 9.56832C6.60797 9.56832 6.62259 9.57147 6.6361 9.57721C6.65627 9.58573 6.67367 9.60017 6.68588 9.61832C6.6981 9.63647 6.70513 9.65776 6.70513 9.68165H6.96425C6.96425 9.63054 6.95388 9.58128 6.935 9.53666C6.90669 9.46963 6.85968 9.41296 6.80026 9.37278C6.74104 9.3326 6.66867 9.30908 6.59205 9.30908C6.53134 9.30908 6.47341 9.3239 6.42252 9.34982C6.37162 9.37593 6.32775 9.41315 6.2937 9.4587L6.29185 9.46111L6.29389 9.45833C6.24706 9.52036 6.21948 9.59851 6.21948 9.68165C6.21948 9.76479 6.24706 9.84312 6.29426 9.90515L6.29389 9.9046C6.32775 9.94978 6.37162 9.987 6.42233 10.0131C6.47304 10.0392 6.53116 10.054 6.59186 10.0538C6.64295 10.0538 6.69218 10.0435 6.73678 10.0246C6.80378 9.99625 6.86023 9.94922 6.90039 9.88978C6.94056 9.83053 6.96406 9.75812 6.96406 9.68146H6.8345V9.68165Z" fill="white"/>
<path d="M2.74217 8.70551H2.61645V9.21476H2.50797V9.35533L2.63298 9.34107L2.58771 8.84608H2.74217V8.70551H2.61645H2.74217V8.56494H2.30933L2.39446 9.4959H2.8679V8.56494H2.74217V8.70551Z" fill="white"/>
<path d="M1.03912 9.35533V9.21476H0.911686V8.84608H0.976396V8.70551L0.838043 8.71916L0.900768 9.36898L1.03912 9.35533V9.21476V9.35533L1.17747 9.34167L1.10244 8.56494H0.633789V9.4959H1.19236L1.17747 9.34167L1.03912 9.35533Z" fill="white"/>
<path d="M1.65808 7.02467V6.88935C1.54777 6.88935 1.44206 6.90579 1.3448 6.93594C1.199 6.98137 1.07124 7.05754 0.976278 7.16038C0.928894 7.2118 0.88995 7.27019 0.862709 7.33437C0.835468 7.39855 0.820312 7.46872 0.820312 7.54102C0.820312 7.55958 0.821464 7.57756 0.82319 7.59457C0.83259 7.68524 0.865395 7.76971 0.914506 7.84298C0.988172 7.95317 1.09656 8.03958 1.22433 8.09932C1.35228 8.15905 1.50038 8.1923 1.65827 8.1925C1.8572 8.1925 2.0408 8.13972 2.18774 8.04732C2.26103 8.00092 2.32529 7.94447 2.37651 7.87836C2.42754 7.81224 2.46553 7.73608 2.48375 7.65315L2.48701 7.63865V7.62357H2.35273L2.48375 7.65295C2.49181 7.61641 2.49603 7.57891 2.49603 7.54083C2.49603 7.44436 2.46898 7.35196 2.42256 7.27193C2.38783 7.21161 2.34275 7.15787 2.28999 7.11089C2.21096 7.04053 2.11485 6.98562 2.0078 6.94773C1.90075 6.90984 1.78258 6.88916 1.65846 6.88916V7.1598C1.74229 7.1598 1.82171 7.17237 1.8927 7.19441C1.99936 7.22746 2.08645 7.28217 2.14324 7.34423C2.17182 7.37516 2.19273 7.40783 2.20674 7.4405C2.22055 7.47336 2.22746 7.50622 2.22765 7.54083C2.22765 7.55919 2.22573 7.57678 2.22189 7.59418L2.21863 7.60868V7.62376H2.35292L2.22189 7.59438C2.21307 7.6342 2.19446 7.67383 2.16492 7.71191C2.12098 7.76913 2.05192 7.82249 1.96444 7.86057C1.87716 7.89885 1.77203 7.92185 1.65865 7.92166C1.49866 7.92185 1.35535 7.87565 1.25483 7.80664C1.20457 7.77223 1.16505 7.7326 1.13781 7.69181C1.11057 7.65083 1.09522 7.60926 1.09081 7.56635C1.08985 7.55745 1.08946 7.54875 1.08946 7.54063C1.08946 7.49463 1.10174 7.45113 1.12668 7.40763C1.14529 7.37516 1.17138 7.34326 1.20476 7.31368C1.25464 7.26922 1.32082 7.23036 1.39813 7.20291C1.47564 7.17546 1.56427 7.15961 1.65865 7.15961V7.02429L1.65808 7.02467ZM1.65808 7.94138V7.80606C1.59112 7.80606 1.52686 7.79639 1.46911 7.77938C1.3824 7.75406 1.31085 7.71172 1.26615 7.66687C1.2437 7.64445 1.22778 7.62183 1.218 7.60076C1.20821 7.57968 1.20399 7.56035 1.2038 7.54102C1.2038 7.52807 1.20572 7.51531 1.20994 7.50178C1.21723 7.47839 1.23162 7.45248 1.2554 7.42619C1.2907 7.38676 1.34691 7.3479 1.41693 7.32045C1.48695 7.29261 1.57002 7.27579 1.65788 7.27599C1.72484 7.27599 1.7891 7.28565 1.84665 7.30266C1.93337 7.32799 2.00473 7.37013 2.04943 7.41517C2.07187 7.4376 2.0878 7.46022 2.09758 7.48129C2.10736 7.50255 2.11158 7.52169 2.11178 7.54102C2.11178 7.55397 2.10986 7.56673 2.10564 7.58026C2.09835 7.60366 2.08396 7.62956 2.06017 7.65585C2.02487 7.69529 1.96866 7.73414 1.89883 7.76159C1.829 7.78943 1.74575 7.80625 1.65788 7.80606V8.0767C1.75035 8.0767 1.83936 8.06355 1.92185 8.0392C2.0454 8.00266 2.15494 7.94235 2.23858 7.85922C2.28021 7.81766 2.31551 7.76991 2.34064 7.71636C2.36577 7.66281 2.38054 7.60308 2.38035 7.54102C2.38035 7.49985 2.37383 7.45925 2.36213 7.42117C2.34141 7.35428 2.30477 7.29493 2.25892 7.24409C2.18985 7.16792 2.09969 7.10935 1.99725 7.06856C1.89481 7.02796 1.77932 7.00534 1.65788 7.00515C1.56542 7.00515 1.4764 7.0183 1.39391 7.04265C1.27037 7.07919 1.16083 7.1395 1.07719 7.22263C1.03556 7.26419 1.00026 7.31194 0.975127 7.36549C0.949996 7.41904 0.935224 7.47897 0.935224 7.54083C0.935224 7.582 0.941747 7.6226 0.953449 7.66068C0.974168 7.72757 1.01081 7.78692 1.05685 7.83776C1.1261 7.91393 1.21608 7.9725 1.31852 8.0131C1.42096 8.0537 1.53645 8.07631 1.65788 8.07631V7.94099L1.65808 7.94138Z" fill="white"/>
<path d="M7.97642 8.19278H7.87176C7.87176 8.22216 7.86608 8.24861 7.8574 8.26952C7.84873 8.29044 7.83722 8.30513 7.8272 8.31308H7.82705C7.82227 8.31705 7.81793 8.31947 7.81375 8.32103C7.80971 8.32258 7.80597 8.32327 7.80194 8.32327C7.79775 8.32327 7.79386 8.32258 7.78953 8.32085C7.78534 8.31913 7.78056 8.31636 7.77562 8.31221L7.77473 8.31135L7.77413 8.31083C7.77144 8.30858 7.7677 8.30495 7.76306 8.2989L7.76351 8.2996C7.75529 8.28888 7.74707 8.27384 7.74138 8.25552C7.73555 8.2372 7.73197 8.21577 7.73211 8.19278C7.73211 8.16962 7.7357 8.14819 7.74138 8.13004C7.74722 8.11172 7.75529 8.09668 7.76351 8.08597H7.76336C7.77054 8.07698 7.77787 8.07076 7.78429 8.0673C7.79072 8.06367 7.79611 8.06246 7.80209 8.06229C7.80852 8.06229 7.8142 8.06384 7.82122 8.06816C7.83154 8.07439 7.8447 8.08804 7.85486 8.10982C7.86503 8.13142 7.87206 8.16029 7.87206 8.19278H8.08137C8.08137 8.09703 8.05491 8.00819 8.00721 7.93923C7.98329 7.90483 7.95369 7.87528 7.91885 7.85402C7.88417 7.83276 7.84395 7.82031 7.80209 7.82031C7.76336 7.82031 7.72584 7.83103 7.69309 7.84952C7.6602 7.86802 7.63164 7.89394 7.60787 7.92436H7.60772C7.58036 7.95997 7.55943 8.00145 7.54508 8.04673C7.53072 8.09202 7.52295 8.14145 7.52295 8.19278C7.52295 8.24411 7.53072 8.29355 7.54508 8.33883C7.55943 8.38411 7.58051 8.42559 7.60772 8.46085L7.60817 8.46155C7.62103 8.47797 7.63598 8.49404 7.65362 8.50838L7.71402 8.40952L7.65213 8.507C7.67306 8.5248 7.69638 8.53932 7.72165 8.54935C7.74692 8.55937 7.77428 8.56508 7.80224 8.56508C7.829 8.56508 7.85516 8.56006 7.87953 8.55073C7.9039 8.5414 7.92663 8.52809 7.94696 8.51167H7.94681C7.99032 8.47693 8.02366 8.42905 8.04639 8.37443C8.06911 8.31982 8.08152 8.25777 8.08152 8.19261H7.97686L7.97642 8.19278Z" fill="white"/>
<path d="M6.8274 19.5359H6.69396L6.8274 19.536L6.69549 19.5165C6.689 19.5579 6.66689 19.5949 6.63506 19.6218C6.60303 19.6484 6.56243 19.6644 6.51649 19.6644H6.5144L3.5005 19.6343C3.47743 19.6341 3.45665 19.63 3.4374 19.6229C3.37983 19.6019 3.33618 19.5513 3.32455 19.4932V19.4928C3.32227 19.482 3.32112 19.4711 3.32112 19.4599C3.32112 19.4448 3.32322 19.4294 3.32779 19.4133L3.4435 19.0046C3.45437 18.9665 3.47743 18.9347 3.50831 18.9117C3.53919 18.8889 3.57732 18.8758 3.6183 18.8758H3.61944L6.494 18.895C6.54204 18.8953 6.58493 18.9134 6.61752 18.9433C6.65012 18.9733 6.67071 19.014 6.67356 19.0603L6.69777 19.4867L6.69739 19.4798C6.69739 19.4831 6.69758 19.4866 6.69758 19.4902C6.69758 19.4994 6.69682 19.5083 6.69568 19.5165L6.69415 19.5261V19.5359H6.82759L6.9595 19.5552C6.96293 19.5337 6.96445 19.5119 6.96445 19.4902C6.96445 19.4825 6.96445 19.4746 6.96388 19.4665L6.94005 19.0464C6.93357 18.9327 6.88153 18.8302 6.80185 18.7572C6.72236 18.684 6.6139 18.6385 6.49591 18.6378L3.62135 18.6187H3.6183C3.51746 18.6187 3.42253 18.6514 3.34647 18.7073C3.27042 18.7632 3.21266 18.8431 3.18616 18.9371L3.07046 19.3458C3.05959 19.3839 3.05444 19.4225 3.05444 19.4603C3.05444 19.4886 3.0573 19.5165 3.06302 19.5436V19.5432C3.08285 19.64 3.13603 19.7261 3.21209 19.7888C3.25021 19.8203 3.29405 19.8456 3.34247 19.8635C3.3907 19.8813 3.4435 19.8913 3.49821 19.8918L6.51211 19.922H6.51687C6.62896 19.922 6.73228 19.8817 6.81043 19.8162C6.88858 19.7507 6.9431 19.6591 6.95969 19.5557L6.96121 19.546V19.5359H6.82778H6.8274Z" fill="white"/>
<path d="M7.76209 0.139444V0H2.30933V0.558573H7.89505V0H7.76209V0.139444H7.62914V0.279685H2.57524V0.278888H7.76209V0.139444H7.62914H7.76209Z" fill="white"/>
</svg>
