<svg width="16" height="16" viewBox="0 0 16 16" fill="none" xmlns="http://www.w3.org/2000/svg">
<path d="M11.3125 0.274414V2.84351H13.8503L11.3125 0.274414Z" fill="white"/>
<path d="M10.8438 3.78125C10.5812 3.78125 10.375 3.57497 10.375 3.3125V0H2.34375C2.08122 0 1.875 0.206219 1.875 0.46875V3.78125H4.73122C5.49059 3.78125 6.2125 4.15622 6.64375 4.775L7.27187 5.65625H10.8438C12.1375 5.65625 13.1875 6.70625 13.1875 8V14.5938C13.1875 14.8562 13.3937 15.0625 13.6562 15.0625C13.9188 15.0625 14.125 14.8562 14.125 14.5938V3.78125H10.8438Z" fill="white"/>
<path d="M12.25 14.5938V8C12.25 7.22184 11.6219 6.59375 10.8438 6.59375H7.02812C6.87816 6.59375 6.7375 6.51872 6.64378 6.39684L5.88441 5.30937C5.62187 4.94375 5.19059 4.71875 4.73125 4.71875H1.40625C0.628094 4.71875 0 5.34684 0 6.125V13.6562C0 14.95 1.05 16 2.34375 16H13.6562C12.8781 16 12.25 15.3718 12.25 14.5938ZM9.90625 11.2812H8.03125C7.76872 11.2812 7.5625 11.075 7.5625 10.8125C7.5625 10.55 7.76872 10.3438 8.03125 10.3438H9.90625C10.1688 10.3438 10.375 10.55 10.375 10.8125C10.375 11.075 10.1688 11.2812 9.90625 11.2812ZM9.90625 9.40625H8.03125C7.76872 9.40625 7.5625 9.19997 7.5625 8.9375C7.5625 8.67497 7.76872 8.46875 8.03125 8.46875H9.90625C10.1688 8.46875 10.375 8.67497 10.375 8.9375C10.375 9.19997 10.1688 9.40625 9.90625 9.40625Z" fill="white"/>
<path d="M15.5312 6.59375H15.0625V14.5938C15.0625 15.3718 14.4344 16 13.6562 16H15.0625C15.5781 16 16 15.5781 16 15.0625V7.0625C16 6.79997 15.7938 6.59375 15.5312 6.59375Z" fill="white"/>
</svg>
