<svg width="289" height="287" viewBox="0 0 289 287" fill="none" xmlns="http://www.w3.org/2000/svg">
<path d="M8.3179 262.183C13.4179 263.194 18.7629 262.926 23.8689 263.954C27.3665 264.755 30.7867 265.862 34.0899 267.263C37.0852 268.414 40.0746 269.589 43.0579 270.788C43.6579 271.021 50.8339 273.488 50.8339 273.829C62.9339 278.339 75.2149 284.829 88.5339 284.05C90.0904 283.959 91.6136 283.561 93.0166 282.881C94.4196 282.201 95.6748 281.251 96.7106 280.085C97.7463 278.92 98.5424 277.562 99.0533 276.089C99.5641 274.616 99.7798 273.056 99.6879 271.5C99.6879 271.427 99.6789 271.353 99.6729 271.28C99.4829 268.749 98.4729 266.243 98.8089 263.72C99.8029 256.964 106.009 257.672 110.991 258.82C113.903 259.494 116.771 260.315 119.631 261.23C127.113 263.63 134.992 265.878 140.945 271.295C144.772 274.751 148.461 276.159 153.637 276.738C157.237 277.144 160.799 277.369 164.255 278.57C167.711 279.771 170.631 282.026 173.755 283.754C178.077 286.069 182.954 287.146 187.848 286.868C192.743 286.589 197.466 284.964 201.497 282.173C202.836 281.223 204.21 279.832 203.951 278.207C203.312 274.302 196.772 273.507 193.998 271.866C188.998 268.894 183.967 265.948 178.905 263.066C168.768 257.306 158.516 251.777 148.148 246.478C137.14 240.651 125.777 235.524 114.125 231.125C108.362 229.034 101.788 227.272 96.2759 229.967C91.8269 232.136 90.0759 236.257 87.1869 239.92C84.4999 243.32 81.0179 246.832 77.0699 248.758C73.9249 250.279 70.3569 250.641 66.8699 250.797C55.2839 251.315 43.6899 249.933 32.3119 247.808C27.4909 246.944 22.6179 245.881 17.7199 246.184C12.4669 246.504 3.8969 247.852 0.984903 252.923C0.490183 253.713 0.158358 254.595 0.00890548 255.515C-0.0306115 256.267 0.104864 257.019 0.404696 257.71C0.704527 258.401 1.16054 259.013 1.7369 259.498C2.89347 260.465 4.2511 261.161 5.7109 261.537C6.56784 261.798 7.43807 262.014 8.3179 262.183Z" fill="#E0E0E0"/>
<path d="M270.071 219.392C280.373 219.392 288.724 214.568 288.724 208.618C288.724 202.668 280.373 197.844 270.071 197.844C259.769 197.844 251.418 202.668 251.418 208.618C251.418 214.568 259.769 219.392 270.071 219.392Z" fill="#E0E0E0"/>
<path d="M255.626 277.129L252.576 275.401C250.511 274.209 250.511 272.273 252.576 271.081L259.332 267.15L234.796 252.95L228.014 256.872C226.855 257.46 225.573 257.767 224.273 257.767C222.973 257.767 221.691 257.46 220.532 256.872L217.482 255.144C215.417 253.952 215.417 252.016 217.482 250.824L238.082 238.901C239.241 238.313 240.523 238.006 241.823 238.006C243.123 238.006 244.405 238.313 245.564 238.901L248.605 240.629C250.679 241.821 250.679 243.757 248.605 244.949L241.114 249.269L265.676 263.455L273.176 259.135C274.335 258.547 275.617 258.24 276.917 258.24C278.217 258.24 279.499 258.547 280.658 259.135L283.708 260.863C285.773 262.055 285.773 263.991 283.708 265.183L263.108 277.071C261.953 277.668 260.674 277.985 259.374 277.995C258.074 278.005 256.79 277.708 255.626 277.129Z" fill="#E0E0E0"/>
<path d="M243.106 227.694C241.482 222.394 234.872 218.018 228.687 219.746C227.713 220.02 226.778 220.418 225.905 220.93C219.905 224.386 215.045 232.809 215.045 239.738C215.025 240.908 215.188 242.074 215.529 243.194C217.145 248.494 223.763 252.844 229.948 251.108C230.922 250.834 231.857 250.436 232.73 249.924C238.73 246.468 243.59 238.036 243.59 231.107C243.604 229.951 243.44 228.8 243.106 227.694Z" fill="#455A64"/>
<path d="M232.722 249.915C238.722 246.459 243.582 238.027 243.582 231.098C243.582 224.169 238.718 221.361 232.722 224.817C226.726 228.273 221.862 236.696 221.862 243.625C221.862 250.554 226.726 253.38 232.722 249.915Z" fill="#37474F"/>
<path d="M232.722 232.506C235.029 231.175 236.895 232.255 236.895 234.925C236.817 236.373 236.398 237.783 235.673 239.039C234.948 240.296 233.937 241.363 232.722 242.156C230.415 243.486 228.549 242.407 228.549 239.746C228.627 238.296 229.046 236.885 229.771 235.628C230.496 234.37 231.507 233.3 232.722 232.506Z" fill="#455A64"/>
<path d="M234.148 236.507C234.122 237.003 233.979 237.487 233.731 237.917C233.484 238.348 233.138 238.715 232.722 238.987C232.585 239.086 232.426 239.149 232.259 239.172C232.091 239.195 231.921 239.176 231.763 239.117L231.663 239.057C231.538 238.952 231.439 238.819 231.375 238.669C231.31 238.519 231.282 238.356 231.292 238.193C231.321 237.696 231.466 237.213 231.715 236.783C231.964 236.352 232.31 235.986 232.726 235.713C232.863 235.615 233.023 235.553 233.19 235.532C233.358 235.511 233.528 235.531 233.685 235.592L233.785 235.644C233.909 235.749 234.006 235.882 234.069 236.032C234.132 236.182 234.159 236.345 234.148 236.507Z" fill="#37474F"/>
<path d="M257.094 249.752C257.067 250.248 256.924 250.731 256.676 251.162C256.429 251.593 256.083 251.959 255.668 252.232C255.482 252.352 255.267 252.418 255.046 252.422C254.878 252.419 254.714 252.371 254.571 252.284L231.763 239.117L231.663 239.057C231.538 238.952 231.439 238.819 231.375 238.669C231.31 238.519 231.282 238.356 231.292 238.193C231.321 237.696 231.466 237.213 231.715 236.783C231.964 236.352 232.31 235.986 232.726 235.713C232.863 235.615 233.023 235.553 233.19 235.532C233.358 235.511 233.528 235.531 233.685 235.592L233.785 235.644L256.593 248.811C256.757 248.905 256.891 249.043 256.979 249.209C257.068 249.376 257.108 249.564 257.094 249.752Z" fill="#FAFAFA"/>
<path d="M279.48 248.688C277.864 243.388 271.246 239.012 265.061 240.748C264.084 241.023 263.146 241.421 262.27 241.932C256.27 245.388 251.41 253.82 251.41 260.749C251.395 261.919 251.558 263.084 251.894 264.205C253.518 269.505 260.128 273.855 266.313 272.127C267.288 271.855 268.223 271.457 269.095 270.943C275.095 267.487 279.955 259.055 279.955 252.135C279.975 250.968 279.815 249.806 279.48 248.688Z" fill="#455A64"/>
<path d="M269.103 270.91C275.103 267.454 279.963 259.022 279.963 252.102C279.963 245.182 275.099 242.365 269.103 245.821C263.107 249.277 258.234 257.709 258.243 264.638C258.252 271.567 263.103 274.374 269.103 270.91Z" fill="#37474F"/>
<path d="M269.104 253.509C271.411 252.179 273.277 253.25 273.277 255.919C273.199 257.367 272.78 258.777 272.055 260.033C271.33 261.29 270.319 262.357 269.104 263.15C266.797 264.481 264.922 263.401 264.922 260.74C265.002 259.291 265.422 257.881 266.148 256.625C266.875 255.368 267.888 254.301 269.104 253.509Z" fill="#455A64"/>
<path d="M270.563 257.501C270.536 257.997 270.393 258.48 270.145 258.911C269.898 259.342 269.552 259.708 269.137 259.981C269 260.08 268.841 260.143 268.674 260.166C268.506 260.189 268.336 260.17 268.178 260.111C268.141 260.097 268.107 260.077 268.078 260.05C267.953 259.945 267.854 259.812 267.789 259.662C267.724 259.512 267.696 259.349 267.706 259.186C267.733 258.688 267.877 258.203 268.126 257.771C268.375 257.339 268.723 256.971 269.14 256.698C269.277 256.602 269.434 256.541 269.6 256.52C269.765 256.499 269.934 256.518 270.09 256.577L270.19 256.637C270.317 256.74 270.417 256.873 270.482 257.023C270.547 257.174 270.575 257.338 270.563 257.501Z" fill="#37474F"/>
<path d="M274.019 259.505C273.993 260 273.85 260.482 273.602 260.911C273.354 261.341 273.009 261.706 272.593 261.976C272.407 262.096 272.192 262.162 271.971 262.166C271.803 262.167 271.637 262.119 271.496 262.028L268.178 260.11C268.141 260.096 268.107 260.076 268.078 260.049C267.953 259.944 267.854 259.811 267.789 259.661C267.724 259.511 267.696 259.348 267.706 259.185C267.733 258.687 267.877 258.202 268.126 257.77C268.375 257.338 268.723 256.97 269.14 256.697C269.277 256.601 269.434 256.54 269.6 256.519C269.765 256.498 269.934 256.517 270.09 256.576L270.19 256.636L273.516 258.545C273.682 258.641 273.818 258.782 273.907 258.952C273.996 259.122 274.035 259.314 274.019 259.505Z" fill="#FAFAFA"/>
<path d="M274.019 259.488C273.994 259.986 273.851 260.47 273.603 260.902C273.356 261.335 273.009 261.703 272.593 261.976C272.455 262.072 272.295 262.133 272.128 262.154C271.961 262.175 271.792 262.155 271.634 262.097L271.534 262.037C271.408 261.933 271.309 261.8 271.244 261.65C271.18 261.5 271.152 261.336 271.163 261.173C271.191 260.676 271.336 260.193 271.585 259.762C271.834 259.332 272.181 258.965 272.597 258.693C272.734 258.594 272.893 258.531 273.06 258.508C273.227 258.485 273.398 258.504 273.556 258.563L273.656 258.623C273.78 258.729 273.878 258.862 273.941 259.012C274.004 259.162 274.031 259.325 274.019 259.488Z" fill="#E0E0E0"/>
<path d="M283.195 185.602C282.657 183.657 281.927 181.77 281.018 179.969C280.918 179.762 280.818 179.554 280.718 179.356C279.851 177.667 279.411 175.792 279.439 173.894C279.466 171.995 279.959 170.133 280.874 168.47L281.074 168.124C282.211 166.181 282.794 163.964 282.759 161.713C282.689 160.483 282.32 159.289 281.682 158.235C281.045 157.181 280.16 156.299 279.104 155.665C278.549 155.336 277.972 155.047 277.376 154.801C276.835 154.589 276.371 154.219 276.043 153.74C275.715 153.261 275.538 152.695 275.536 152.114V148.797H264.914V152.115C264.908 152.695 264.728 153.26 264.397 153.736C264.066 154.213 263.599 154.578 263.057 154.785C262.46 155.009 261.882 155.28 261.329 155.597C260.264 156.225 259.369 157.105 258.723 158.159C258.076 159.214 257.699 160.411 257.623 161.645C257.572 163.893 258.137 166.113 259.256 168.064L259.437 168.384C260.348 170.055 260.833 171.926 260.848 173.829C260.863 175.733 260.407 177.61 259.523 179.296C259.423 179.503 259.316 179.702 259.223 179.909C258.294 181.701 257.55 183.583 257.003 185.525C256.623 187.407 256.449 189.324 256.485 191.244L256.476 206.674C256.476 208.674 257.776 210.691 260.416 212.221C262.783 213.518 265.404 214.285 268.097 214.467C269.373 214.571 270.656 214.571 271.933 214.467C274.605 214.299 277.21 213.557 279.57 212.29C282.222 210.778 283.553 208.782 283.561 206.778V195.598C283.561 194.207 283.621 192.756 283.63 191.278C283.69 189.376 283.545 187.473 283.195 185.602Z" fill="#8276F4"/>
<path opacity="0.3" d="M283.195 185.602C282.657 183.657 281.927 181.77 281.018 179.969C280.918 179.762 280.818 179.554 280.718 179.356C279.851 177.667 279.411 175.792 279.439 173.894C279.466 171.995 279.959 170.133 280.874 168.47L281.074 168.124C282.211 166.181 282.794 163.964 282.759 161.713C282.689 160.483 282.32 159.289 281.682 158.235C281.045 157.181 280.16 156.299 279.104 155.665C278.549 155.336 277.972 155.047 277.376 154.801C276.835 154.589 276.371 154.219 276.043 153.74C275.715 153.261 275.538 152.695 275.536 152.114V148.797H264.914V152.115C264.908 152.695 264.728 153.26 264.397 153.736C264.066 154.213 263.599 154.578 263.057 154.785C262.46 155.009 261.882 155.28 261.329 155.597C260.264 156.225 259.369 157.105 258.723 158.159C258.076 159.214 257.699 160.411 257.623 161.645C257.572 163.893 258.137 166.113 259.256 168.064L259.437 168.384C260.348 170.055 260.833 171.926 260.848 173.829C260.863 175.733 260.407 177.61 259.523 179.296C259.423 179.503 259.316 179.702 259.223 179.909C258.294 181.701 257.55 183.583 257.003 185.525C256.623 187.407 256.449 189.324 256.485 191.244L256.476 206.674C256.476 208.674 257.776 210.691 260.416 212.221C262.783 213.518 265.404 214.285 268.097 214.467C269.373 214.571 270.656 214.571 271.933 214.467C274.605 214.299 277.21 213.557 279.57 212.29C282.222 210.778 283.553 208.782 283.561 206.778V195.598C283.561 194.207 283.621 192.756 283.63 191.278C283.69 189.376 283.545 187.473 283.195 185.602Z" fill="black"/>
<path opacity="0.1" d="M280.872 168.469L281.072 168.123C282.036 166.467 282.601 164.609 282.722 162.697C282.477 163.467 282.138 164.204 281.711 164.891C280.405 166.808 278.791 168.496 276.933 169.885C275.11 171.371 273.088 173.056 272.864 175.397C272.64 177.738 274.238 179.717 276.052 181.082C277.866 182.447 279.992 183.415 281.625 184.996C282.321 185.697 282.941 186.471 283.474 187.303C283.413 186.722 283.321 186.146 283.198 185.575C282.661 183.63 281.932 181.743 281.021 179.942C280.921 179.735 280.821 179.527 280.721 179.329C279.857 177.644 279.42 175.773 279.446 173.88C279.472 171.987 279.962 170.129 280.872 168.469Z" fill="black"/>
<path d="M263.16 152.486V154.274C263.218 154.91 263.443 155.52 263.813 156.04C264.184 156.561 264.686 156.974 265.268 157.237C266.847 158.041 268.593 158.46 270.365 158.46C272.137 158.46 273.884 158.041 275.463 157.237C276.09 156.905 276.634 156.436 277.053 155.863C277.389 155.413 277.576 154.869 277.589 154.308V152.494C277.593 152.331 277.576 152.168 277.537 152.01C277.393 151.477 277.136 150.98 276.784 150.554C276.433 150.128 275.994 149.782 275.498 149.539L275.398 149.479C273.829 148.699 272.1 148.293 270.348 148.293C268.595 148.293 266.867 148.699 265.298 149.479C264.798 149.716 264.354 150.057 263.998 150.481C263.642 150.904 263.381 151.4 263.233 151.933C263.182 152.113 263.158 152.299 263.16 152.486Z" fill="#8276F4"/>
<path opacity="0.1" d="M263.16 152.486V154.274C263.218 154.91 263.443 155.52 263.813 156.04C264.184 156.561 264.686 156.974 265.268 157.237C266.847 158.041 268.593 158.46 270.365 158.46C272.137 158.46 273.884 158.041 275.463 157.237C276.09 156.905 276.634 156.436 277.053 155.863C277.389 155.413 277.576 154.869 277.589 154.308V152.494C277.593 152.331 277.576 152.168 277.537 152.01C277.393 151.477 277.136 150.98 276.784 150.554C276.433 150.128 275.994 149.782 275.498 149.539L275.398 149.479C273.829 148.699 272.1 148.293 270.348 148.293C268.595 148.293 266.867 148.699 265.298 149.479C264.798 149.716 264.354 150.057 263.998 150.481C263.642 150.904 263.381 151.4 263.233 151.933C263.182 152.113 263.158 152.299 263.16 152.486Z" fill="black"/>
<path opacity="0.2" d="M275.463 155.467C278.279 153.851 278.297 151.216 275.463 149.575C273.884 148.771 272.137 148.352 270.365 148.352C268.593 148.352 266.847 148.771 265.268 149.575C262.443 151.191 262.434 153.826 265.268 155.459C266.846 156.264 268.593 156.685 270.364 156.686C272.136 156.688 273.883 156.27 275.463 155.467Z" fill="black"/>
<path d="M263.169 150.404V151.484C263.168 151.652 263.188 151.82 263.229 151.984C263.374 152.517 263.631 153.013 263.985 153.438C264.338 153.863 264.779 154.207 265.277 154.446C266.66 155.2 268.202 155.618 269.777 155.664C271.75 155.804 273.723 155.394 275.477 154.48C276.096 154.144 276.635 153.678 277.058 153.115C277.293 152.797 277.455 152.432 277.533 152.044C277.574 151.883 277.594 151.718 277.593 151.552V150.446C277.538 149.812 277.315 149.205 276.947 148.685C276.58 148.166 276.081 147.754 275.502 147.491L275.113 147.284C273.569 146.576 271.885 146.223 270.187 146.251C268.488 146.28 266.818 146.689 265.298 147.448C264.712 147.707 264.206 148.117 263.832 148.637C263.458 149.156 263.229 149.766 263.169 150.404Z" fill="#8276F4"/>
<path opacity="0.1" d="M263.169 150.404V151.484C263.168 151.652 263.188 151.82 263.229 151.984C263.374 152.517 263.631 153.013 263.985 153.438C264.338 153.863 264.779 154.207 265.277 154.446C266.66 155.2 268.202 155.618 269.777 155.664C271.75 155.804 273.723 155.394 275.477 154.48C276.096 154.144 276.635 153.678 277.058 153.115C277.293 152.797 277.455 152.432 277.533 152.044C277.574 151.883 277.594 151.718 277.593 151.552V150.446C277.538 149.812 277.315 149.205 276.947 148.685C276.58 148.166 276.081 147.754 275.502 147.491L275.113 147.284C273.569 146.576 271.885 146.223 270.187 146.251C268.488 146.28 266.818 146.689 265.298 147.448C264.712 147.707 264.206 148.117 263.832 148.637C263.458 149.156 263.229 149.766 263.169 150.404Z" fill="black"/>
<path d="M263.169 150.37C263.169 152.659 266.383 154.526 270.369 154.543C274.355 154.56 277.583 152.72 277.592 150.431C277.601 148.142 274.378 146.267 270.392 146.249C266.406 146.231 263.178 148.081 263.169 150.37Z" fill="#8276F4"/>
<path d="M267.895 146.119V149.851C267.886 149.908 267.886 149.967 267.895 150.024C267.944 150.21 268.032 150.384 268.154 150.533C268.277 150.682 268.43 150.803 268.603 150.888C269.082 151.153 269.619 151.298 270.167 151.311C270.849 151.357 271.531 151.213 272.137 150.896C272.349 150.781 272.536 150.624 272.686 150.435C272.765 150.324 272.821 150.197 272.85 150.063C272.854 150.005 272.854 149.948 272.85 149.89V146.135C272.83 145.916 272.752 145.706 272.624 145.527C272.497 145.348 272.324 145.206 272.124 145.116L271.986 145.047C271.452 144.798 270.869 144.674 270.28 144.683C269.691 144.692 269.112 144.834 268.586 145.099C268.393 145.196 268.228 145.34 268.107 145.519C267.986 145.697 267.913 145.904 267.895 146.119Z" fill="#8276F4"/>
<path opacity="0.1" d="M267.895 146.119V149.851C267.886 149.908 267.886 149.967 267.895 150.024C267.944 150.21 268.032 150.384 268.154 150.533C268.277 150.682 268.43 150.803 268.603 150.888C269.082 151.153 269.619 151.298 270.167 151.311C270.849 151.357 271.531 151.213 272.137 150.896C272.349 150.781 272.536 150.624 272.686 150.435C272.765 150.324 272.821 150.197 272.85 150.063C272.854 150.005 272.854 149.948 272.85 149.89V146.135C272.83 145.916 272.752 145.706 272.624 145.527C272.497 145.348 272.324 145.206 272.124 145.116L271.986 145.047C271.452 144.798 270.869 144.674 270.28 144.683C269.691 144.692 269.112 144.834 268.586 145.099C268.393 145.196 268.228 145.34 268.107 145.519C267.986 145.697 267.913 145.904 267.895 146.119Z" fill="black"/>
<path d="M267.894 146.102C267.894 146.897 269.009 147.545 270.394 147.553C271.779 147.561 272.894 146.914 272.9 146.127C272.906 145.34 271.785 144.684 270.4 144.676C269.015 144.668 267.903 145.336 267.894 146.102Z" fill="#8276F4"/>
<path opacity="0.5" d="M269.51 146.111C269.51 146.396 269.91 146.621 270.374 146.621C270.838 146.621 271.238 146.396 271.238 146.121C271.238 145.846 270.838 145.611 270.374 145.603C269.91 145.595 269.51 145.826 269.51 146.111Z" fill="#8276F4"/>
<path opacity="0.3" d="M269.51 146.111C269.51 146.396 269.91 146.621 270.374 146.621C270.838 146.621 271.238 146.396 271.238 146.121C271.238 145.846 270.838 145.611 270.374 145.603C269.91 145.595 269.51 145.826 269.51 146.111Z" fill="black"/>
<path d="M221.128 0.705997L158.456 36.897C158.174 37.0808 157.94 37.3283 157.772 37.6194C157.604 37.9106 157.506 38.2373 157.488 38.573V64.63C157.506 64.9655 157.604 65.2919 157.774 65.5819C157.944 65.8718 158.18 66.117 158.464 66.297L161.92 68.241C162.221 68.3901 162.552 68.4677 162.887 68.4677C163.223 68.4677 163.554 68.3901 163.855 68.241L226.501 32.033C226.783 31.8516 227.017 31.6059 227.186 31.3161C227.354 31.0263 227.451 30.7007 227.469 30.366V4.29999C227.451 3.96533 227.354 3.63968 227.186 3.34986C227.017 3.06005 226.783 2.81434 226.501 2.63299L223.045 0.697994C222.746 0.552352 222.418 0.477331 222.086 0.478718C221.753 0.480105 221.425 0.557867 221.128 0.705997Z" fill="#8276F4"/>
<path d="M162.897 67.671V41.657C162.907 41.3122 163 40.9749 163.168 40.6739C163.337 40.373 163.576 40.1174 163.865 39.929L226.502 3.74798C227.038 3.43698 227.47 3.68798 227.47 4.30098V30.365C227.452 30.6996 227.355 31.0253 227.187 31.3151C227.018 31.6049 226.784 31.8506 226.502 32.032L163.83 68.232C163.329 68.535 162.897 68.293 162.897 67.671Z" fill="#8276F4"/>
<path opacity="0.2" d="M163.867 68.234C163.566 68.381 163.235 68.4575 162.899 68.4575C162.564 68.4575 162.233 68.381 161.932 68.234L158.476 66.29C158.193 66.1109 157.957 65.867 157.787 65.5785C157.618 65.29 157.519 64.9652 157.5 64.631V38.574C157.514 38.2238 157.621 37.8838 157.811 37.589L163.193 40.665C163.017 40.9517 162.919 41.279 162.908 41.615V67.672C162.897 68.234 163.294 68.562 163.867 68.234Z" fill="black"/>
<path opacity="0.4" d="M227.495 4.12799C227.417 3.63599 227.02 3.46299 226.536 3.73899L163.865 39.93C163.577 40.1071 163.341 40.3577 163.182 40.656L157.791 37.58C157.952 37.2983 158.181 37.061 158.456 36.889L221.136 0.705994C221.435 0.552755 221.767 0.472839 222.103 0.472839C222.44 0.472839 222.771 0.552755 223.071 0.705994L226.527 2.64099C226.785 2.80584 227.004 3.02373 227.171 3.28014C227.338 3.53654 227.448 3.82558 227.495 4.12799Z" fill="white"/>
<path d="M154.845 58.937C154.232 58.574 149.661 56.017 149.545 55.93C149.445 55.8762 149.357 55.8032 149.285 55.7152C149.213 55.6273 149.159 55.526 149.127 55.4172C149.094 55.3085 149.083 55.1944 149.095 55.0814C149.106 54.9685 149.14 54.8589 149.194 54.759C149.236 54.6805 149.291 54.609 149.355 54.547L157.58 47.739L162.902 50.763L154.686 57.58C154.606 57.6686 154.545 57.772 154.505 57.8843C154.465 57.9966 154.448 58.1156 154.455 58.2346C154.461 58.3535 154.491 58.4701 154.542 58.5776C154.593 58.685 154.665 58.7814 154.754 58.861C154.783 58.8881 154.813 58.9135 154.845 58.937Z" fill="#8276F4"/>
<path opacity="0.1" d="M154.845 58.937C154.232 58.574 149.661 56.017 149.545 55.93C149.445 55.8762 149.357 55.8032 149.285 55.7152C149.213 55.6273 149.159 55.526 149.127 55.4172C149.094 55.3085 149.083 55.1944 149.095 55.0814C149.106 54.9685 149.14 54.8589 149.194 54.759C149.236 54.6805 149.291 54.609 149.355 54.547L157.58 47.739L162.902 50.763L154.686 57.58C154.606 57.6686 154.545 57.772 154.505 57.8843C154.465 57.9966 154.448 58.1156 154.455 58.2346C154.461 58.3535 154.491 58.4701 154.542 58.5776C154.593 58.685 154.665 58.7814 154.754 58.861C154.783 58.8881 154.813 58.9135 154.845 58.937Z" fill="black"/>
<path d="M162.897 50.729L154.672 57.537C154.553 57.6541 154.471 57.8031 154.435 57.966C154.399 58.1288 154.411 58.2985 154.47 58.4546C154.528 58.6108 154.631 58.7467 154.765 58.8459C154.899 58.9452 155.058 59.0035 155.225 59.014L162.897 58.15V50.729Z" fill="#8276F4"/>
<path d="M167.822 48.31C167.768 48.1943 167.747 48.0658 167.762 47.939C167.779 47.7883 167.823 47.6419 167.892 47.507L170.302 42.824L170.518 42.418C170.588 42.2843 170.691 42.1713 170.818 42.09L172.183 41.304C172.209 41.2755 172.246 41.2585 172.285 41.2568C172.323 41.2551 172.361 41.2689 172.39 41.295L172.399 41.304C172.465 41.4 172.495 41.516 172.485 41.632V54.514C172.486 54.6623 172.457 54.8093 172.399 54.946C172.36 55.0599 172.284 55.1573 172.183 55.222L170.714 56.086C170.685 56.1139 170.646 56.1294 170.606 56.1294C170.566 56.1294 170.527 56.1139 170.498 56.086C170.432 55.99 170.401 55.874 170.412 55.758V47.032L169.073 49.624C169.054 49.6764 169.024 49.7242 168.985 49.7643C168.946 49.8044 168.9 49.836 168.848 49.857C168.77 49.857 168.701 49.857 168.648 49.771L167.822 48.31Z" fill="#FAFAFA"/>
<path d="M176.435 52.267C176.436 52.4153 176.407 52.5623 176.349 52.699C176.31 52.8129 176.234 52.9103 176.133 52.975L174.664 53.839C174.63 53.8619 174.588 53.8702 174.547 53.8621C174.507 53.854 174.471 53.8303 174.448 53.796C174.383 53.7027 174.352 53.5894 174.362 53.476V50.884C174.361 50.7356 174.39 50.5886 174.448 50.452C174.486 50.3381 174.563 50.2407 174.664 50.176L176.133 49.312C176.162 49.2841 176.201 49.2686 176.241 49.2686C176.281 49.2686 176.32 49.2841 176.349 49.312C176.415 49.408 176.445 49.524 176.435 49.64V52.267Z" fill="#FAFAFA"/>
<path d="M180.217 50.081C180.214 50.2303 180.18 50.3774 180.117 50.513C180.076 50.6255 180.004 50.7243 179.91 50.798L178.433 51.662C178.405 51.6893 178.368 51.7046 178.329 51.7046C178.291 51.7046 178.253 51.6893 178.226 51.662C178.154 51.5683 178.119 51.4518 178.126 51.334V48.742C178.129 48.5926 178.163 48.4455 178.226 48.31C178.262 48.195 178.335 48.0949 178.433 48.025L179.91 47.161C179.937 47.1337 179.975 47.1184 180.013 47.1184C180.052 47.1184 180.089 47.1337 180.117 47.161C180.189 47.2547 180.224 47.3712 180.217 47.489V50.081Z" fill="#FAFAFA"/>
<path d="M183.995 47.904C183.996 48.0524 183.967 48.1994 183.909 48.336C183.87 48.4499 183.794 48.5473 183.693 48.612L182.224 49.476C182.195 49.5039 182.156 49.5194 182.116 49.5194C182.076 49.5194 182.037 49.5039 182.008 49.476C181.942 49.38 181.912 49.264 181.922 49.148V46.556C181.92 46.4076 181.949 46.2604 182.008 46.124C182.049 46.0093 182.125 45.9098 182.224 45.839L183.693 44.975C183.723 44.9486 183.761 44.9341 183.801 44.9341C183.841 44.9341 183.879 44.9486 183.909 44.975C183.974 45.0713 184.005 45.1871 183.995 45.303V47.904Z" fill="#FAFAFA"/>
<path d="M191.943 34.392C191.941 34.776 191.918 35.1596 191.874 35.541C191.826 35.9404 191.751 36.336 191.649 36.725C191.53 37.151 191.386 37.5695 191.217 37.978C191.044 38.41 190.828 38.842 190.578 39.352L189.006 42.367L191.822 40.743C191.849 40.7157 191.887 40.7004 191.925 40.7004C191.964 40.7004 192.001 40.7157 192.029 40.743C192.099 40.8375 192.134 40.9534 192.129 41.071V43.188C192.125 43.3372 192.091 43.4841 192.029 43.62C191.991 43.7315 191.918 43.828 191.822 43.896L185.895 47.352C185.866 47.3798 185.827 47.3954 185.787 47.3954C185.747 47.3954 185.708 47.3798 185.679 47.352C185.617 47.2542 185.587 47.1396 185.593 47.024V45.296C185.595 45.0692 185.622 44.8433 185.671 44.622C185.714 44.3814 185.799 44.1503 185.922 43.939L189.274 37.727C189.49 37.3408 189.655 36.9284 189.766 36.5C189.828 36.2161 189.862 35.9266 189.866 35.636C189.872 35.512 189.872 35.388 189.866 35.265C189.842 35.1187 189.798 34.9764 189.736 34.842C189.678 34.722 189.576 34.6292 189.451 34.583C189.365 34.5609 189.276 34.5584 189.189 34.5757C189.103 34.5931 189.021 34.6297 188.951 34.683C188.744 34.7999 188.568 34.9661 188.441 35.167C188.319 35.3553 188.218 35.5565 188.141 35.767C188.069 35.9545 188.014 36.1484 187.977 36.346C187.97 36.4866 187.947 36.6259 187.908 36.761C187.887 36.928 187.828 37.0879 187.735 37.228C187.66 37.3291 187.567 37.4144 187.459 37.479L186.077 38.274C186.053 38.2954 186.022 38.3073 185.99 38.3073C185.958 38.3073 185.928 38.2954 185.904 38.274C185.853 38.1943 185.829 38.1004 185.835 38.006C185.846 37.405 185.913 36.8064 186.035 36.218C186.165 35.5891 186.359 34.9752 186.614 34.386C186.864 33.7939 187.19 33.2363 187.582 32.727C187.95 32.2411 188.411 31.8332 188.938 31.527C189.326 31.2687 189.785 31.1389 190.251 31.156C190.616 31.1939 190.953 31.3699 191.193 31.648C191.475 31.9824 191.674 32.3794 191.772 32.806C191.893 33.3257 191.951 33.8583 191.943 34.392Z" fill="#FAFAFA"/>
<path d="M195.805 41.079C195.807 41.2274 195.777 41.3746 195.719 41.511C195.681 41.6275 195.605 41.7279 195.503 41.796L194.034 42.66C194.005 42.6879 193.966 42.7034 193.926 42.7034C193.886 42.7034 193.847 42.6879 193.818 42.66C193.752 42.564 193.721 42.448 193.732 42.332V39.74C193.73 39.5916 193.759 39.4444 193.818 39.308C193.862 39.1946 193.937 39.0958 194.034 39.023L195.503 38.159C195.532 38.1311 195.571 38.1156 195.611 38.1156C195.651 38.1156 195.69 38.1311 195.719 38.159C195.785 38.255 195.815 38.371 195.805 38.487V41.079Z" fill="#FAFAFA"/>
<path d="M199.589 38.902C199.585 39.0512 199.551 39.1982 199.489 39.334C199.451 39.4455 199.378 39.5421 199.282 39.61L197.813 40.474C197.779 40.4969 197.737 40.5052 197.696 40.4971C197.656 40.4891 197.62 40.4653 197.597 40.431C197.531 40.335 197.501 40.219 197.511 40.103V37.511C197.51 37.3626 197.539 37.2156 197.597 37.079C197.638 36.9643 197.714 36.8648 197.813 36.794L199.282 35.93C199.309 35.9027 199.347 35.8874 199.385 35.8874C199.424 35.8874 199.461 35.9027 199.489 35.93C199.559 36.0246 199.594 36.1404 199.589 36.258V38.902Z" fill="#FAFAFA"/>
<path d="M203.364 36.716C203.366 36.8644 203.337 37.0116 203.278 37.148C203.237 37.2627 203.161 37.3622 203.062 37.433L201.593 38.297C201.565 38.3243 201.528 38.3396 201.489 38.3396C201.451 38.3396 201.413 38.3243 201.386 38.297C201.316 38.2024 201.281 38.0866 201.286 37.969V35.377C201.289 35.2305 201.323 35.0864 201.386 34.954C201.419 34.8373 201.492 34.7363 201.593 34.669L203.062 33.805C203.091 33.7771 203.13 33.7616 203.17 33.7616C203.21 33.7616 203.249 33.7771 203.278 33.805C203.344 33.901 203.374 34.017 203.364 34.133V36.716Z" fill="#FAFAFA"/>
<path d="M210.903 18.953C210.93 18.9257 210.968 18.9104 211.006 18.9104C211.045 18.9104 211.082 18.9257 211.11 18.953C211.176 19.049 211.206 19.165 211.196 19.281V21.398C211.194 21.5483 211.168 21.6973 211.118 21.839C211.066 21.986 211.018 22.115 210.98 22.219L209.612 25.44C209.874 25.3939 210.144 25.4174 210.394 25.5083C210.644 25.5993 210.866 25.7543 211.038 25.958C211.471 26.6001 211.667 27.3732 211.591 28.144C211.628 29.4952 211.331 30.8346 210.727 32.044C210.178 33.1247 209.329 34.0246 208.282 34.636C207.851 34.9124 207.358 35.0786 206.848 35.12C206.477 35.1487 206.108 35.048 205.803 34.835C205.508 34.6134 205.281 34.3143 205.146 33.971C204.987 33.556 204.905 33.1155 204.904 32.671C204.905 32.5498 204.929 32.4298 204.973 32.317C205.01 32.2262 205.07 32.1461 205.146 32.084L206.563 31.272C206.718 31.1766 206.839 31.1766 206.926 31.272L207.194 31.523C207.309 31.6168 207.447 31.6792 207.594 31.704C207.841 31.7146 208.084 31.6417 208.285 31.497C208.636 31.2798 208.932 30.9841 209.149 30.633C209.388 30.2725 209.512 29.8476 209.503 29.415C209.503 28.948 209.382 28.681 209.149 28.603C209 28.574 208.846 28.576 208.697 28.6086C208.549 28.6413 208.408 28.704 208.285 28.793L207.352 29.337C207.323 29.3649 207.284 29.3804 207.244 29.3804C207.204 29.3804 207.165 29.3649 207.136 29.337C207.07 29.241 207.04 29.125 207.05 29.009V27.273C207.051 27.1226 207.077 26.9735 207.128 26.832C207.18 26.6767 207.232 26.5383 207.284 26.417L208.468 23.517L205.534 25.24C205.505 25.2679 205.466 25.2834 205.426 25.2834C205.386 25.2834 205.347 25.2679 205.318 25.24C205.252 25.144 205.222 25.028 205.232 24.912V22.763C205.23 22.6146 205.259 22.4674 205.318 22.331C205.356 22.2145 205.432 22.1141 205.534 22.046L210.903 18.953Z" fill="#FAFAFA"/>
<path d="M215.27 29.83C215.272 29.9784 215.242 30.1256 215.184 30.262C215.142 30.3767 215.067 30.4761 214.968 30.547L213.499 31.411C213.471 31.4383 213.434 31.4536 213.395 31.4536C213.357 31.4536 213.319 31.4383 213.292 31.411C213.22 31.3173 213.185 31.2008 213.192 31.083V28.487C213.195 28.3376 213.229 28.1905 213.292 28.055C213.328 27.94 213.401 27.8399 213.499 27.77L214.968 26.906C214.997 26.8781 215.036 26.8625 215.076 26.8625C215.116 26.8625 215.155 26.8781 215.184 26.906C215.25 27.002 215.28 27.118 215.27 27.234V29.83Z" fill="#FAFAFA"/>
<path d="M219.071 27.653C219.067 27.8009 219.038 27.9471 218.985 28.085C218.943 28.1973 218.868 28.2938 218.769 28.361L217.3 29.225C217.274 29.2535 217.237 29.2705 217.198 29.2722C217.159 29.2738 217.122 29.2601 217.093 29.234L217.084 29.225C217.018 29.129 216.987 29.013 216.998 28.897V26.306C216.996 26.1576 217.025 26.0104 217.084 25.874C217.125 25.7592 217.201 25.6598 217.3 25.589L218.769 24.725C218.799 24.6986 218.837 24.6841 218.877 24.6841C218.917 24.6841 218.955 24.6986 218.985 24.725C219.046 24.8231 219.076 24.9375 219.071 25.053V27.653Z" fill="#FAFAFA"/>
<path d="M222.847 25.467C222.849 25.6154 222.819 25.7626 222.761 25.899C222.72 26.0113 222.648 26.11 222.554 26.184L221.077 27.048C221.049 27.0753 221.012 27.0906 220.973 27.0906C220.935 27.0906 220.897 27.0753 220.87 27.048C220.8 26.9534 220.764 26.8376 220.77 26.72V24.128C220.774 23.9787 220.808 23.8318 220.87 23.696C220.908 23.5845 220.98 23.4879 221.077 23.42L222.554 22.556C222.581 22.5287 222.619 22.5134 222.657 22.5134C222.696 22.5134 222.733 22.5287 222.761 22.556C222.827 22.652 222.857 22.768 222.847 22.884V25.467Z" fill="#FAFAFA"/>
<g opacity="0.3">
<path opacity="0.3" d="M57.0019 181.368C56.962 181.377 56.9208 181.377 56.8809 181.368L51.9309 179.968C51.7583 179.922 51.6109 179.809 51.5211 179.655C51.4313 179.501 51.4064 179.317 51.4519 179.144C51.4519 179.131 51.4599 179.117 51.4639 179.104C51.5136 178.927 51.6313 178.778 51.7913 178.688C51.9512 178.598 52.1403 178.575 52.3169 178.625H52.3279L57.2789 180.025C57.4456 180.069 57.5895 180.175 57.6816 180.32C57.7737 180.466 57.8073 180.642 57.7755 180.811C57.7437 180.981 57.649 181.132 57.5103 181.234C57.3716 181.337 57.1993 181.383 57.0279 181.364L57.0019 181.368Z" fill="black"/>
<path opacity="0.3" d="M51.9299 185.203C51.7731 185.182 51.6284 185.107 51.5199 184.992C51.4115 184.876 51.346 184.727 51.3343 184.569C51.3226 184.412 51.3654 184.255 51.4556 184.124C51.5458 183.994 51.678 183.899 51.8299 183.855L56.8059 182.602C56.976 182.547 57.1609 182.562 57.32 182.644C57.479 182.725 57.5991 182.867 57.6539 183.037C57.6599 183.056 57.6649 183.075 57.6699 183.095C57.6963 183.181 57.7056 183.271 57.6971 183.36C57.6887 183.449 57.6628 183.536 57.6208 183.615C57.5788 183.694 57.5216 183.765 57.4525 183.822C57.3833 183.879 57.3036 183.922 57.2179 183.948L57.1769 183.959L52.1919 185.22C52.1042 185.226 52.016 185.22 51.9299 185.203Z" fill="black"/>
<path opacity="0.3" d="M54.4359 189.8C54.2726 189.782 54.1203 189.709 54.0039 189.593C53.8771 189.464 53.806 189.29 53.806 189.109C53.806 188.928 53.8771 188.754 54.0039 188.625L57.6949 185.048C57.757 184.985 57.8309 184.935 57.9125 184.9C57.994 184.866 58.0816 184.848 58.1701 184.847C58.2586 184.847 58.3464 184.864 58.4284 184.897C58.5104 184.93 58.5849 184.98 58.6479 185.042L58.6539 185.048C58.7173 185.111 58.7676 185.187 58.8019 185.269C58.8362 185.352 58.8539 185.441 58.8539 185.531C58.8539 185.62 58.8362 185.709 58.8019 185.792C58.7676 185.874 58.7173 185.95 58.6539 186.013L54.9649 189.598C54.8956 189.667 54.8128 189.72 54.7217 189.755C54.6306 189.79 54.5332 189.805 54.4359 189.8Z" fill="black"/>
<path opacity="0.3" d="M58.8919 192.521H58.7709C58.6835 192.497 58.6018 192.455 58.5304 192.399C58.459 192.343 58.3994 192.273 58.3549 192.194C58.3104 192.115 58.282 192.028 58.2712 191.938C58.2603 191.848 58.2674 191.756 58.2919 191.669V191.657L59.6919 186.715C59.7428 186.546 59.8573 186.403 60.0114 186.316C60.1654 186.23 60.3471 186.206 60.5181 186.251C60.6892 186.295 60.8363 186.404 60.9285 186.555C61.0208 186.706 61.051 186.886 61.0129 187.059L61.0049 187.087L59.6049 192.029C59.5628 192.182 59.4683 192.315 59.3379 192.405C59.2075 192.495 59.0496 192.536 58.8919 192.521Z" fill="black"/>
</g>
<path d="M193.87 115.803L181.524 122.931L154.404 126.853C154.404 126.853 134.583 97.115 131.553 92.441C128.523 87.767 124.978 84.769 116.753 84.778L118.308 108.502C118.567 109.262 134.956 129.462 145.765 140.468C149.584 144.347 151.934 145.332 157.904 143.682C173.136 139.457 191.598 126.939 193.084 123.811C195.036 119.725 193.723 115.88 193.87 115.803Z" fill="#FFA8A7"/>
<path d="M188.781 100.762C190.405 95.475 197.014 91.094 203.2 92.822C204.177 93.1001 205.115 93.5006 205.991 94.014C211.991 97.47 216.851 105.893 216.851 112.822C216.868 113.993 216.702 115.159 216.359 116.278C214.735 121.578 208.126 125.928 201.94 124.192C200.964 123.919 200.029 123.518 199.158 123C193.158 119.544 188.298 111.121 188.298 104.192C188.283 103.031 188.446 101.874 188.781 100.762Z" fill="#455A64"/>
<path d="M199.166 122.983C193.166 119.527 188.306 111.104 188.306 104.175C188.306 97.246 193.17 94.438 199.166 97.903C205.162 101.368 210.026 109.782 210.026 116.711C210.026 123.64 205.162 126.447 199.166 122.983Z" fill="#37474F"/>
<path d="M199.163 105.591C196.856 104.261 194.99 105.34 194.99 108.001C195.068 109.451 195.487 110.862 196.212 112.119C196.937 113.377 197.948 114.447 199.163 115.241C201.47 116.571 203.345 115.492 203.345 112.831C203.267 111.38 202.847 109.969 202.12 108.711C201.394 107.453 200.38 106.384 199.163 105.591Z" fill="#455A64"/>
<path d="M197.74 109.582C197.766 110.078 197.909 110.562 198.156 110.992C198.404 111.423 198.75 111.79 199.166 112.062C199.304 112.159 199.463 112.221 199.63 112.244C199.796 112.266 199.966 112.248 200.125 112.192L200.225 112.132C200.349 112.026 200.447 111.893 200.511 111.743C200.576 111.593 200.605 111.431 200.596 111.268C200.567 110.771 200.422 110.288 200.173 109.858C199.924 109.427 199.578 109.061 199.162 108.788C199.025 108.689 198.866 108.626 198.699 108.603C198.531 108.58 198.361 108.599 198.203 108.658L198.103 108.718C197.98 108.824 197.883 108.957 197.82 109.107C197.757 109.257 197.73 109.42 197.74 109.582Z" fill="#37474F"/>
<path d="M174.794 122.87C174.821 123.366 174.964 123.849 175.212 124.28C175.46 124.71 175.805 125.077 176.22 125.35C176.407 125.466 176.622 125.531 176.842 125.54C177.01 125.538 177.174 125.49 177.317 125.402L200.125 112.235L200.225 112.175C200.349 112.069 200.447 111.936 200.511 111.786C200.576 111.636 200.605 111.474 200.596 111.311C200.567 110.814 200.422 110.331 200.173 109.901C199.924 109.47 199.578 109.104 199.162 108.831C199.025 108.732 198.866 108.669 198.699 108.646C198.531 108.623 198.361 108.642 198.203 108.701L198.103 108.761L175.303 121.928C175.137 122.02 175.001 122.158 174.911 122.325C174.821 122.492 174.78 122.681 174.794 122.87Z" fill="#FAFAFA"/>
<path d="M152.408 121.756C154.024 116.469 160.642 112.088 166.827 113.816C167.801 114.09 168.736 114.488 169.609 115C175.609 118.456 180.469 126.879 180.469 133.808C180.484 134.978 180.321 136.143 179.985 137.264C178.369 142.564 171.751 146.914 165.566 145.178C164.595 144.903 163.663 144.505 162.793 143.994C156.793 140.538 151.933 132.106 151.933 125.177C151.917 124.019 152.077 122.866 152.408 121.756Z" fill="#455A64"/>
<path d="M162.793 143.985C156.793 140.529 151.933 132.097 151.933 125.168C151.933 118.239 156.788 115.44 162.793 118.896C168.798 122.352 173.653 130.775 173.653 137.704C173.653 144.633 168.789 147.441 162.793 143.985Z" fill="#37474F"/>
<path d="M162.791 126.576C160.484 125.246 158.609 126.325 158.609 128.995C158.689 130.444 159.109 131.854 159.836 133.11C160.562 134.367 161.575 135.434 162.791 136.226C165.098 137.556 166.964 136.477 166.964 133.816C166.886 132.366 166.467 130.955 165.742 129.698C165.017 128.44 164.006 127.37 162.791 126.576Z" fill="#455A64"/>
<path d="M161.359 130.576C161.386 131.072 161.529 131.555 161.777 131.986C162.025 132.416 162.37 132.783 162.785 133.056C162.924 133.155 163.084 133.218 163.253 133.241C163.422 133.264 163.593 133.245 163.753 133.186L163.853 133.126C163.975 133.019 164.071 132.885 164.134 132.736C164.197 132.586 164.225 132.424 164.216 132.262C164.188 131.765 164.044 131.282 163.795 130.851C163.546 130.42 163.199 130.054 162.782 129.782C162.647 129.683 162.489 129.62 162.323 129.597C162.158 129.575 161.989 129.593 161.832 129.652L161.732 129.712C161.606 129.816 161.506 129.949 161.442 130.099C161.377 130.249 161.348 130.413 161.359 130.576Z" fill="#37474F"/>
<path d="M157.903 132.572C157.93 133.068 158.073 133.551 158.32 133.982C158.568 134.413 158.914 134.779 159.329 135.052C159.515 135.172 159.73 135.238 159.951 135.242C160.119 135.239 160.283 135.191 160.426 135.104L163.752 133.186L163.852 133.126C163.974 133.019 164.07 132.885 164.133 132.736C164.196 132.586 164.224 132.424 164.215 132.262C164.187 131.765 164.043 131.282 163.794 130.851C163.545 130.42 163.198 130.054 162.781 129.782C162.646 129.683 162.488 129.62 162.322 129.597C162.157 129.575 161.988 129.593 161.831 129.652L161.731 129.712L158.405 131.63C158.241 131.724 158.107 131.862 158.018 132.028C157.929 132.195 157.889 132.384 157.903 132.572Z" fill="#FAFAFA"/>
<path d="M157.903 132.564C157.93 133.06 158.073 133.543 158.32 133.974C158.568 134.405 158.914 134.771 159.329 135.044C159.466 135.143 159.625 135.206 159.792 135.229C159.959 135.252 160.13 135.233 160.288 135.174L160.388 135.114C160.513 135.009 160.612 134.876 160.676 134.726C160.741 134.576 160.769 134.413 160.759 134.25C160.731 133.753 160.586 133.27 160.337 132.839C160.088 132.409 159.741 132.042 159.325 131.77C159.189 131.672 159.031 131.61 158.865 131.588C158.699 131.567 158.531 131.588 158.375 131.649L158.263 131.709C158.141 131.814 158.044 131.946 157.982 132.094C157.92 132.242 157.892 132.403 157.903 132.564Z" fill="#E0E0E0"/>
<path d="M185.965 129.894C191.201 125.885 196.229 125.92 195.322 116.131C194.553 111.811 193.49 111.509 189.274 109.867C187.417 109.15 184.954 108.606 183.474 110.299C183.308 110.509 183.126 110.705 182.93 110.886C182.496 111.168 181.995 111.329 181.479 111.353C180.493 111.406 179.557 111.803 178.835 112.476C178.343 113.029 178.153 113.806 177.669 114.368C177.207 114.807 176.71 115.209 176.183 115.568C175.802 115.897 175.494 116.302 175.28 116.758C175.066 117.213 174.95 117.709 174.939 118.212C174.977 118.787 175.14 119.347 175.416 119.853C175.692 120.359 176.075 120.798 176.539 121.141L179.131 119.62C180.22 118.868 182.449 121.52 181.49 122.929C180.004 125.16 185.965 129.894 185.965 129.894Z" fill="#FFA8A7"/>
<path d="M124.875 149.558C126.551 142.776 127.035 125.851 127.035 125.851L77.98 127.328L80.65 138.015C81.0929 140.43 81.3297 142.878 81.358 145.333C81.358 145.333 86.118 154.154 100.227 155.701C108.903 156.524 117.6 154.356 124.875 149.558Z" fill="#FFA8A7"/>
<path d="M127.034 125.851C127.094 126.395 126.758 131.519 126.758 131.519C120.477 136.798 100.358 139.467 79.2399 132.443L74.7649 115.164C74.7649 115.164 89.9529 108.494 79.6979 86.118L90.7219 85.254L110.308 84.762H116.779C122.065 89.8897 126.531 95.7989 130.023 102.283C132.564 107.086 135.838 114.092 127.034 125.851Z" fill="#455A64"/>
<path d="M99.3009 126.006C90.4709 123.751 88.2509 118.23 87.6199 114.17C87.6199 114.17 85.9529 126.006 98.5839 128.77C111.906 131.67 117.384 121.124 117.384 121.124C117.384 121.124 109.971 128.728 99.3009 126.006Z" fill="#37474F"/>
<path d="M24.0679 257.725C21.4759 259.617 15.5059 260.075 10.2449 257.604C4.98393 255.133 2.77992 248.104 3.76492 242.666C4.95692 236.039 8.23193 232.411 9.06493 228.428C9.89793 224.445 9.06493 218.928 10.3179 215.365C10.8404 213.998 11.6509 212.76 12.6945 211.734C13.7381 210.709 14.9903 209.92 16.3659 209.421C17.2437 209.082 18.1876 208.948 19.1251 209.03C20.0626 209.113 20.9687 209.409 21.7739 209.896L23.3379 210.812L24.0679 257.725Z" fill="#263238"/>
<path d="M30.2539 232.454L26.1539 244.731C26.1539 244.731 28.7459 253.5 27.2859 255.824C25.1259 259.28 21.3419 259.893 14.9569 257.941C7.64789 255.721 5.92889 249.111 6.31689 243.979C6.82689 236.661 13.5919 231.158 12.8169 224.108C12.324 220.553 13.0228 216.934 14.8039 213.818C16.9209 210.492 20.3939 209.87 24.0039 210.958C27.0879 211.891 29.8039 213.835 32.4189 215.658C33.1724 216.134 33.8534 216.716 34.4409 217.386C34.9114 218.007 35.263 218.71 35.4779 219.459C35.9515 220.969 36.0931 222.563 35.8929 224.133C35.7029 225.602 34.7699 226.457 33.8929 227.589L30.2539 232.454Z" fill="#37474F"/>
<path d="M47.9039 226.64C47.6449 226.54 35.1349 218.54 33.7869 217.94C32.4389 217.34 29.1299 216.48 25.9159 223.893C23.6269 229.18 26.9159 231.133 26.9159 231.133L41.6029 239.859L47.9039 226.64Z" fill="#FFA8A7"/>
<path d="M26.1589 244.731C23.51 243.414 20.5803 242.762 17.6229 242.831C17.4025 242.853 17.1801 242.821 16.9753 242.736C16.7704 242.652 16.5895 242.519 16.4486 242.348C16.3076 242.177 16.2109 241.974 16.167 241.757C16.1231 241.54 16.1334 241.315 16.1969 241.103C16.2798 240.85 16.4355 240.628 16.6446 240.463C16.8537 240.299 17.1068 240.2 17.3719 240.179C19.3499 240.032 24.1539 239.972 27.3419 242.598C28.1889 244.307 26.1589 244.731 26.1589 244.731Z" fill="#8276F4"/>
<path d="M27.653 239.124C25.0787 237.666 22.1862 236.862 19.229 236.783C19.0059 236.792 18.784 236.747 18.5829 236.65C18.3818 236.553 18.2077 236.408 18.0761 236.227C17.9445 236.047 17.8595 235.837 17.8286 235.616C17.7977 235.395 17.8219 235.17 17.899 234.96C17.9918 234.712 18.1565 234.497 18.3721 234.343C18.5876 234.189 18.8442 234.103 19.109 234.096C21.096 234.044 25.9 234.234 28.949 237.025C29.709 238.796 27.653 239.124 27.653 239.124Z" fill="#8276F4"/>
<path opacity="0.3" d="M26.1589 244.731C23.51 243.414 20.5803 242.762 17.6229 242.831C17.4025 242.853 17.1801 242.821 16.9753 242.736C16.7704 242.652 16.5895 242.519 16.4486 242.348C16.3076 242.177 16.2109 241.974 16.167 241.757C16.1231 241.54 16.1334 241.315 16.1969 241.103C16.2798 240.85 16.4355 240.628 16.6446 240.463C16.8537 240.299 17.1068 240.2 17.3719 240.179C19.3499 240.032 24.1539 239.972 27.3419 242.598C28.1889 244.307 26.1589 244.731 26.1589 244.731Z" fill="black"/>
<path opacity="0.3" d="M27.653 239.124C25.0787 237.666 22.1862 236.862 19.229 236.783C19.0059 236.792 18.784 236.747 18.5829 236.65C18.3818 236.553 18.2077 236.408 18.0761 236.227C17.9445 236.047 17.8595 235.837 17.8286 235.616C17.7977 235.395 17.8219 235.17 17.899 234.96C17.9918 234.712 18.1565 234.497 18.3721 234.343C18.5876 234.189 18.8442 234.103 19.109 234.096C21.096 234.044 25.9 234.234 28.949 237.025C29.709 238.796 27.653 239.124 27.653 239.124Z" fill="black"/>
<path d="M155.156 259.059L171.398 252.614C171.121 248.424 170.098 242.843 171.165 231.879L152.737 228.359V246.822L155.156 259.059Z" fill="#FFA8A7"/>
<path d="M201.516 273.319C201.952 274.629 201.872 276.057 201.291 277.31C200.738 278.476 194.647 281.91 186.431 281.353C180.352 280.922 174.5 278.873 169.48 275.418C166.344 273.345 163.087 272.956 159.018 272.718C154.949 272.48 149.609 270.454 148.711 268.554C147.813 266.654 148.849 263.37 148.849 263.37L201.516 273.319Z" fill="#263238"/>
<path d="M168.366 247.69L169.014 247.552C169.367 247.458 169.735 247.437 170.096 247.49C170.497 247.613 170.852 247.854 171.115 248.181C171.919 249.208 172.622 250.311 173.215 251.473C174.943 254.281 178.546 256.605 182.494 258.73C185.181 260.173 187.807 261.322 190.581 262.54C193.355 263.758 197.156 264.588 199.367 266.074C202.598 268.251 203.013 273.711 199.367 275.863C196.196 277.721 187.859 279.742 179.116 277.263C174.356 275.915 169.068 270.826 162.816 270.351C158.842 270.04 151.325 268.925 148.759 265.91C147.817 264.571 149.079 260.32 150.115 256.657C151.247 252.657 151.67 245.607 152.992 245.957C152.992 245.957 152.629 246.951 153.148 247.486C153.667 248.021 155.498 249.086 156.025 249.542C156.946 250.452 157.692 251.524 158.225 252.704C158.442 253.236 158.844 253.672 159.357 253.931C160.022 254.182 160.523 253.758 161.085 253.49C161.825 253.162 162.657 253.104 163.435 253.326C163.357 252.536 163.218 251.754 163.02 250.985C162.928 250.743 162.907 250.479 162.96 250.225C163.061 249.983 163.241 249.782 163.47 249.655C164.947 248.665 166.615 247.996 168.366 247.69Z" fill="#37474F"/>
<path d="M178.785 256.568C178.499 256.021 178.08 255.553 177.567 255.209C177.054 254.865 176.463 254.655 175.848 254.598C174.034 254.261 170.848 255.598 168.859 257.19C168.67 257.343 168.522 257.54 168.427 257.764C168.332 257.988 168.293 258.232 168.315 258.474C168.336 258.717 168.416 258.95 168.549 259.154C168.682 259.358 168.862 259.526 169.075 259.644C169.346 259.799 169.659 259.864 169.97 259.83C170.28 259.796 170.572 259.664 170.803 259.454C172.987 257.491 175.85 256.456 178.785 256.568Z" fill="#8276F4"/>
<path d="M184.393 259.705C184 259.154 183.481 258.705 182.881 258.394C182.28 258.083 181.613 257.92 180.937 257.917C180.937 257.917 176.211 258.047 173.291 260.777C173.11 260.925 172.969 261.115 172.878 261.331C172.787 261.546 172.75 261.78 172.77 262.013C172.789 262.246 172.865 262.47 172.991 262.667C173.117 262.864 173.288 263.028 173.491 263.144C173.749 263.286 174.045 263.344 174.338 263.31C174.631 263.276 174.905 263.152 175.124 262.954C176.328 261.754 177.786 260.839 179.39 260.277C180.994 259.715 182.703 259.519 184.393 259.705Z" fill="#8276F4"/>
<path d="M190.579 262.533C190.128 262.019 189.571 261.608 188.948 261.329C188.324 261.049 187.647 260.907 186.963 260.913C184.276 261.076 181.71 262.09 179.637 263.807C179.458 263.957 179.318 264.147 179.229 264.362C179.139 264.577 179.103 264.81 179.122 265.042C179.142 265.275 179.217 265.498 179.341 265.695C179.466 265.892 179.636 266.056 179.837 266.174C180.095 266.317 180.391 266.376 180.684 266.342C180.977 266.308 181.252 266.183 181.47 265.984C182.615 264.739 184.034 263.779 185.616 263.18C187.197 262.581 188.897 262.359 190.579 262.533Z" fill="#8276F4"/>
<path opacity="0.3" d="M178.785 256.568C178.499 256.021 178.08 255.553 177.567 255.209C177.054 254.865 176.463 254.655 175.848 254.598C174.034 254.261 170.848 255.598 168.859 257.19C168.67 257.343 168.522 257.54 168.427 257.764C168.332 257.988 168.293 258.232 168.315 258.474C168.336 258.717 168.416 258.95 168.549 259.154C168.682 259.358 168.862 259.526 169.075 259.644C169.346 259.799 169.659 259.864 169.97 259.83C170.28 259.796 170.572 259.664 170.803 259.454C172.987 257.491 175.85 256.456 178.785 256.568Z" fill="black"/>
<path opacity="0.3" d="M184.393 259.705C184 259.154 183.481 258.705 182.881 258.394C182.28 258.083 181.613 257.92 180.937 257.917C180.937 257.917 176.211 258.047 173.291 260.777C173.11 260.925 172.969 261.115 172.878 261.331C172.787 261.546 172.75 261.78 172.77 262.013C172.789 262.246 172.865 262.47 172.991 262.667C173.117 262.864 173.288 263.028 173.491 263.144C173.749 263.286 174.045 263.344 174.338 263.31C174.631 263.276 174.905 263.152 175.124 262.954C176.328 261.754 177.786 260.839 179.39 260.277C180.994 259.715 182.703 259.519 184.393 259.705Z" fill="black"/>
<path opacity="0.3" d="M190.579 262.533C190.128 262.019 189.571 261.608 188.948 261.329C188.324 261.049 187.647 260.907 186.963 260.913C184.276 261.076 181.71 262.09 179.637 263.807C179.458 263.957 179.318 264.147 179.229 264.362C179.139 264.577 179.103 264.81 179.122 265.042C179.142 265.275 179.217 265.498 179.341 265.695C179.466 265.892 179.636 266.056 179.837 266.174C180.095 266.317 180.391 266.376 180.684 266.342C180.977 266.308 181.252 266.183 181.47 265.984C182.615 264.739 184.034 263.779 185.616 263.18C187.197 262.581 188.897 262.359 190.579 262.533Z" fill="black"/>
<path d="M166.258 166.379C153.929 163.606 124.399 157.428 124.399 157.428L124.874 149.549C114.187 155.087 91.724 153.523 81.356 145.333L79.714 153.687C75.7845 158.392 72.3832 163.515 69.571 168.962C67.195 173.653 63.238 180.971 67.178 198.017C69.493 208.017 72.586 234.381 72.586 234.381L42.347 223.245C42.347 223.245 39.755 223.686 37.561 229.345C36.274 232.706 35.833 235.928 37.146 237.596C48.205 246.322 66.123 260.596 84.232 268.596C96.332 273.227 102.755 263.058 103.351 259.296C105.615 244.868 108.241 198.508 108.241 198.508L148.622 197.177C147.292 204.832 152.734 234.742 152.734 234.742C152.734 234.742 162.678 239.062 170.92 234.642C170.92 234.642 176.432 200.222 176.968 188.742C177.55 175.952 178.206 169.057 166.258 166.379Z" fill="#8276F4"/>
<path opacity="0.15" d="M148.625 197.171C148.625 195.106 149.999 187.883 154.673 184.047C154.673 184.047 148.262 185.196 145.334 197.274L148.625 197.171Z" fill="black"/>
<path opacity="0.15" d="M72.5869 234.364C72.5869 234.364 73.4509 245.751 75.6199 251.289C75.6199 251.289 70.1679 241.44 69.5719 233.25L72.5869 234.364Z" fill="black"/>
<path opacity="0.15" d="M124.39 157.433L124.874 149.562C114.187 155.091 91.7239 153.528 81.3559 145.337L79.7139 153.691C79.7919 153.777 86.4439 160.603 103.741 161.544C121.038 162.485 124.39 157.433 124.39 157.433Z" fill="black"/>
<path opacity="0.15" d="M108.269 198.483C108.124 194.206 107.111 190.004 105.291 186.13C103.472 182.257 100.885 178.794 97.6859 175.951C97.6859 175.951 106.986 180.271 110.092 193.951C110.092 193.951 117.004 190.728 120.615 181.069C120.615 181.069 119.509 190.728 113.945 196.214L130.723 197.769L108.269 198.483Z" fill="black"/>
<path d="M102.827 23.748C95.6661 23.748 88.7985 26.5926 83.735 31.6561C78.6715 36.7196 75.8269 43.5871 75.8269 50.748C75.8269 57.9095 78.6713 64.7778 83.7346 69.8424C88.7979 74.9069 95.6654 77.7531 102.827 77.755C109.989 77.7523 116.857 74.9061 121.921 69.8419C126.985 64.7777 129.831 57.9099 129.834 50.748C129.832 43.5865 126.986 36.719 121.921 31.6557C116.857 26.5924 109.988 23.748 102.827 23.748Z" fill="#263238"/>
<path d="M74.661 40.198C75.6373 40.1532 76.6157 40.2081 77.581 40.362C77.9071 40.3805 78.2149 40.5191 78.445 40.751C78.5758 40.9497 78.6533 41.1787 78.67 41.416C78.8825 42.9163 78.7435 44.4455 78.264 45.883C77.875 46.877 76.692 47.395 75.94 48.121C73.02 50.946 72.787 55.646 73.94 59.543C75.093 63.44 77.396 66.913 78.89 70.671C80.384 74.429 81.179 78.982 79.063 82.771C78.199 84.231 76.748 85.363 76.929 87.091C77.136 89.208 78.985 91.238 79.78 93.139C80.6476 95.4051 80.9444 97.85 80.644 100.258C80.403 103.243 79.2781 106.088 77.413 108.431C75.991 110.085 74.1565 111.334 72.0958 112.05C70.0351 112.767 67.8216 112.925 65.68 112.509C64.7758 112.352 63.9202 111.988 63.18 111.446C61.91 110.427 61.409 108.759 60.718 107.282C58.489 102.504 53.806 99.031 52.372 93.96C50.872 88.595 53.443 82.945 56.605 78.36C58.082 76.217 59.733 74.109 60.458 71.613C61.434 68.235 60.579 64.632 60.358 61.125C60.1306 57.6894 60.5138 54.2408 61.49 50.939C62.207 48.554 63.296 45.807 65.162 44.096C67.7758 41.727 71.1365 40.3478 74.661 40.198Z" fill="#263238"/>
<path d="M119.751 36.103C122.714 37.874 126.343 45.347 125.92 60.985C125.557 74.238 121.246 77.495 119.086 78.428C116.926 79.361 112.77 78.774 108.719 78.082V86.039C108.719 86.039 114.283 92.553 113.903 96.199C113.523 99.845 105.816 100.683 100.603 97.063C95.39 93.443 90.996 86.583 90.996 86.583L91.16 68.283C91.16 68.283 88.767 70.59 84.749 67.039C81.423 64.11 80.326 59.194 82.935 56.568C83.6107 55.9436 84.4252 55.4889 85.3113 55.2415C86.1974 54.994 87.1296 54.9609 88.031 55.1449C88.9325 55.3288 89.7772 55.7246 90.4955 56.2994C91.2137 56.8743 91.785 57.6118 92.162 58.451C92.162 58.451 98.607 58.71 107.221 54.028C110.574 52.239 113.457 49.6827 115.635 46.5676C117.812 43.4525 119.223 39.8668 119.751 36.103Z" fill="#FFA8A7"/>
<path d="M111.137 57.598C111.138 57.9254 111.043 58.2459 110.864 58.5196C110.684 58.7933 110.428 59.0081 110.127 59.1371C109.826 59.266 109.494 59.3036 109.171 59.2449C108.849 59.1863 108.552 59.0341 108.315 58.8074C108.079 58.5806 107.915 58.2894 107.843 57.9699C107.772 57.6505 107.796 57.317 107.912 57.0111C108.029 56.7052 108.233 56.4403 108.499 56.2497C108.765 56.059 109.082 55.951 109.409 55.939C109.856 55.9386 110.285 56.1112 110.607 56.4205C110.929 56.7298 111.119 57.1518 111.137 57.598Z" fill="#263238"/>
<g opacity="0.5">
<path opacity="0.5" d="M111.534 68.829L115.396 70.082C115.256 70.5914 114.919 71.0246 114.461 71.2869C114.002 71.5492 113.458 71.6193 112.948 71.482L112.874 71.46C112.354 71.2787 111.925 70.9039 111.675 70.4136C111.426 69.9234 111.375 69.3557 111.534 68.829Z" fill="#F28F8F"/>
</g>
<path d="M124.823 52.535L121.462 50.176C121.74 49.7341 122.183 49.4209 122.692 49.3052C123.201 49.1895 123.736 49.2808 124.178 49.559C124.207 49.577 124.234 49.595 124.261 49.614C124.713 49.9347 125.024 50.4175 125.128 50.9617C125.233 51.5059 125.124 52.0695 124.823 52.535Z" fill="#263238"/>
<path d="M124.028 56.44C124.029 56.7674 123.934 57.0879 123.755 57.3616C123.575 57.6353 123.319 57.8501 123.018 57.9791C122.717 58.108 122.385 58.1456 122.062 58.0869C121.74 58.0283 121.443 57.8761 121.206 57.6494C120.97 57.4226 120.806 57.1314 120.734 56.8119C120.663 56.4925 120.687 56.159 120.803 55.8531C120.92 55.5472 121.124 55.2823 121.39 55.0917C121.656 54.901 121.973 54.793 122.3 54.781C122.747 54.7806 123.176 54.9532 123.498 55.2625C123.82 55.5718 124.01 55.9938 124.028 56.44Z" fill="#263238"/>
<g opacity="0.5">
<path opacity="0.5" d="M116.166 55.455L116.391 65.494L121.678 63.878L116.166 55.455Z" fill="#F28F8F"/>
</g>
<g opacity="0.5">
<path opacity="0.5" d="M108.727 78.083C104.468 77.504 95.707 74.955 94.351 71.483C94.8938 73.2379 95.9609 74.7846 97.409 75.915C100.001 78.17 108.709 80.736 108.709 80.736L108.727 78.083Z" fill="#F28F8F"/>
</g>
<path d="M79.716 86.126C71.353 86.713 67.897 87.785 63.24 98.118C59.058 107.406 49.028 131.432 46.522 136.797C44.016 142.162 43.541 144.305 45.658 149.912C47.386 154.482 61.494 180.738 63.041 184.565C64.588 188.392 65.27 192.265 67.905 196.721C70.54 201.177 74.705 205.533 77.996 206.561C82.877 208.09 89.227 205.961 89.418 203.019C89.609 200.077 82.256 195.157 80.251 188.619C81.5791 189.492 82.978 190.252 84.433 190.891C86.42 191.703 88.623 191.522 89.28 190.399C89.937 189.276 87.958 188.585 86.196 186.839C85.142 185.794 83.276 183.439 80.896 181.37C79.289 179.97 76.637 179.556 75.453 178.018C74.805 177.197 71.902 170.087 69.725 163.745C67.025 155.9 63.47 145.445 63.47 145.445L78.002 115.206C78.002 115.206 89.401 103.863 79.716 86.126Z" fill="#FFA8A7"/>
<path d="M63.023 184.565C63.023 184.565 66.367 177.8 75.429 178.016L73.036 172.694C73.036 172.694 64.189 173.316 60.465 179.294L63.023 184.565Z" fill="#37474F"/>
<path d="M62.0469 178.82L64.0169 181.576C64.1536 181.771 64.3274 181.938 64.5283 182.066C64.7293 182.194 64.9535 182.281 65.1882 182.322C65.4229 182.363 65.6634 182.358 65.896 182.306C66.1286 182.255 66.3488 182.158 66.5439 182.021L66.6089 181.973L70.0649 179.381C70.4641 179.072 70.7315 178.623 70.8133 178.124C70.8951 177.626 70.7853 177.115 70.5059 176.694L68.6999 174.033C68.4405 173.633 68.0333 173.353 67.5675 173.253C67.1017 173.153 66.6153 173.242 66.2149 173.5C66.1779 173.524 66.1419 173.549 66.1079 173.575L62.4359 176.167C62.0334 176.468 61.7665 176.916 61.6936 177.413C61.6207 177.91 61.7477 178.416 62.0469 178.82Z" fill="#263238"/>
<path d="M61.3989 178.75L63.3689 181.506C63.5065 181.702 63.6812 181.869 63.8833 181.997C64.0853 182.126 64.3107 182.213 64.5464 182.254C64.7822 182.295 65.0238 182.29 65.2574 182.238C65.4911 182.185 65.7121 182.088 65.9079 181.95L65.9609 181.912L69.4169 179.32C69.8174 179.012 70.0864 178.563 70.1697 178.065C70.253 177.566 70.1444 177.055 69.8659 176.633L68.0599 173.972C67.7909 173.57 67.3733 173.292 66.899 173.198C66.4247 173.104 65.9326 173.203 65.5309 173.472C65.5089 173.486 65.4889 173.501 65.4679 173.516L61.8049 176.151C61.4115 176.446 61.1487 176.882 61.0729 177.368C60.997 177.853 61.114 178.349 61.3989 178.75Z" fill="#455A64"/>
<path d="M69.503 177.848C69.4844 178.018 69.4311 178.182 69.3465 178.331C69.2619 178.48 69.1477 178.609 69.011 178.712L65.555 181.304C65.3067 181.487 64.9962 181.565 64.6909 181.52C64.5438 181.498 64.4028 181.446 64.2765 181.367C64.1503 181.288 64.0415 181.184 63.957 181.062L61.9869 178.297C61.8193 178.066 61.7425 177.781 61.7709 177.497C61.7849 177.327 61.8354 177.161 61.9189 177.012C62.0024 176.863 62.117 176.734 62.255 176.633L65.9179 174.041C66.0404 173.95 66.1803 173.885 66.329 173.851C66.4777 173.816 66.6319 173.813 66.7819 173.841C66.9305 173.865 67.0725 173.92 67.1988 174.001C67.3252 174.083 67.4332 174.19 67.516 174.316L69.322 176.977C69.4912 177.231 69.5645 177.538 69.529 177.841L69.503 177.848Z" fill="#8276F4"/>
</svg>
