<svg width="162" height="162" viewBox="0 0 162 162" fill="none" xmlns="http://www.w3.org/2000/svg">
<circle cx="81" cy="81" r="81" fill="#F5F5FF"/>
<g opacity="0.5">
<path d="M69.6791 126.49C70.5177 126.49 71.1799 125.821 71.1799 124.973C71.1799 124.125 70.5177 123.455 69.6791 123.455H68.8404C68.0017 123.455 67.3396 124.125 67.3396 124.973C67.3396 125.821 68.0017 126.49 68.8404 126.49H69.6791Z" fill="#B5B5FF"/>
<path d="M99.6952 72.7955C98.1503 72.7955 96.9143 74.0453 96.9143 75.6075V114.975H59.2181C57.6731 114.975 56.4372 116.225 56.4372 117.787C56.4372 119.349 57.6731 120.599 59.2181 120.599H96.5612C95.3253 125.687 90.7788 129.347 85.4819 129.347H52.9942C47.6973 129.347 43.1508 125.687 41.9149 120.599H50.6106C52.1555 120.599 53.3915 119.349 53.3915 117.787C53.3915 116.225 52.1555 114.975 50.6106 114.975H41.5617V59.8516H83.1866C84.7315 59.8516 85.9674 58.6018 85.9674 57.0396C85.9674 55.4774 84.7315 54.2277 83.1866 54.2277H41.9149C43.1508 49.1394 47.6973 45.4794 52.9942 45.4794H75.7709C77.3158 45.4794 78.5518 44.2296 78.5518 42.6674C78.5518 41.1052 77.3158 39.8555 75.7709 39.8555H52.9942C43.6364 39.8555 36 47.5772 36 57.0396V117.787C36 127.249 43.6364 134.971 52.9942 134.971H85.4819C94.8397 134.971 102.476 127.249 102.476 117.787V75.6075C102.476 74.8487 102.211 74.1345 101.682 73.5989C101.152 73.0633 100.446 72.7509 99.6952 72.7509V72.7955Z" fill="#B5B5FF"/>
<path d="M63.1468 48.3359C62.3081 48.3359 61.646 49.0055 61.646 49.8535C61.646 50.7016 62.3081 51.3711 63.1468 51.3711H75.3738C76.2125 51.3711 76.8746 50.7016 76.8746 49.8535C76.8746 49.0055 76.2125 48.3359 75.3738 48.3359H63.1468Z" fill="#B5B5FF"/>
<path d="M113.82 32.0462C113.29 32.7158 113.423 33.6531 114.041 34.1887C116.91 36.5097 118.587 39.9911 118.587 43.6958V43.8297C118.587 44.6777 119.249 45.3472 120.088 45.3472C120.927 45.3472 121.589 44.6777 121.589 43.8297V43.6958C121.589 39.0538 119.514 34.7243 115.939 31.8231C115.277 31.2875 114.35 31.4214 113.82 32.0462Z" fill="#B5B5FF"/>
<path d="M118.941 28.3838C118.279 27.8929 117.352 28.0268 116.822 28.6963C116.337 29.3658 116.469 30.3031 117.131 30.8387C121.148 33.9185 123.488 38.6051 123.488 43.738V45.1217C123.488 45.9697 124.15 46.6392 124.988 46.6392C125.827 46.6392 126.489 45.9697 126.489 45.1217V43.738C126.489 37.6678 123.752 32.0885 118.941 28.4285V28.3838Z" fill="#B5B5FF"/>
<path d="M86.4971 43.7832C86.4971 44.6313 87.1592 45.3008 87.9979 45.3008C88.8365 45.3008 89.4986 44.6313 89.4986 43.7832V43.6493C89.4986 39.9447 91.1319 36.4632 94.0451 34.1422C94.7073 33.6066 94.7955 32.6693 94.2659 31.9998C93.7362 31.3303 92.8092 31.241 92.1471 31.7766C88.5717 34.6779 86.4971 39.0074 86.4971 43.6493V43.7832Z" fill="#B5B5FF"/>
<path d="M83.0533 46.5504C83.892 46.5504 84.5541 45.8809 84.5541 45.0328V43.6491C84.5541 38.5608 86.8494 33.8743 90.9104 30.7499C91.5725 30.2589 91.7049 29.2769 91.2193 28.6074C90.7338 27.9379 89.7627 27.804 89.1006 28.295C84.2892 31.955 81.5525 37.5343 81.5525 43.6045V44.9882C81.5525 45.8362 82.2146 46.5057 83.0533 46.5057V46.5504Z" fill="#B5B5FF"/>
<path d="M116.866 56.7723C116.512 56.7723 116.203 56.4599 116.203 56.1028V45.0335C116.203 39.0972 112.098 33.9642 106.537 32.6252V32.1342C106.537 30.572 105.301 29.3223 103.756 29.3223C102.211 29.3223 100.975 30.572 100.975 32.1342V32.6252C98.7237 33.1608 96.6491 34.3213 94.9717 36.0174C92.6323 38.383 91.308 41.552 91.308 44.8996V56.0581C91.308 56.4152 90.999 56.7277 90.6459 56.7277C88.3065 56.7277 86.3643 58.6469 86.3643 61.0572V62.7086C86.3643 65.0743 88.2623 67.0382 90.6459 67.0382H97.3112C98.4147 69.8055 101.107 71.6801 104.153 71.6801C107.199 71.6801 109.847 69.8055 110.995 67.0382H116.91C119.249 67.0382 121.191 65.1189 121.191 62.7086V61.0572C121.191 58.6916 119.293 56.7277 116.91 56.7277L116.866 56.7723ZM108.744 61.4589H93.9123C95.678 60.343 96.8698 58.3791 96.8698 56.1028V44.9442C96.8698 43.0696 97.576 41.3289 98.9003 40.0345C100.18 38.7401 101.946 37.9813 103.844 37.9813C107.596 37.9813 110.642 41.195 110.642 45.0781V56.1474C110.642 58.4238 111.834 60.3877 113.599 61.5035H108.744V61.4589Z" fill="#B5B5FF"/>
<path d="M82.3923 83.6839L72.9462 74.1322C68.488 69.6241 60.6309 69.5795 56.1727 74.1322C51.5379 78.8188 51.5379 86.4512 56.1727 91.1378L63.5442 98.5917H55.4664C53.9215 98.5917 52.6855 99.8415 52.6855 101.404C52.6855 102.966 53.9215 104.216 55.4664 104.216H83.0986C84.6435 104.216 85.8795 102.966 85.8795 101.404C85.8795 100.154 85.0849 99.1273 83.9814 98.7256C85.2173 96.8063 85.8795 94.5746 85.8795 92.209C85.8795 88.9954 84.6435 86.0049 82.3923 83.7285V83.6839ZM71.7544 80.8719L62.8379 89.888L60.0571 87.0761C57.5852 84.5766 57.5852 80.5595 60.0571 78.06C62.4407 75.6497 66.5899 75.6497 68.9735 78.06L71.7102 80.8719H71.7544ZM80.3177 92.1644C80.3177 93.8605 79.6556 95.4673 78.4638 96.6724C76.0802 99.0827 71.931 99.0827 69.5473 96.6724L66.8106 93.9051L75.7271 84.889L78.6845 87.9241C79.7439 89.0846 80.3177 90.6022 80.3177 92.209V92.1644Z" fill="#B5B5FF"/>
</g>
</svg>
