<svg width="17" height="17" viewBox="0 0 17 17" fill="none" xmlns="http://www.w3.org/2000/svg">
<path fill-rule="evenodd" clip-rule="evenodd" d="M16.7031 7.66567C16.7031 3.57172 13.3843 0.25293 9.29039 0.25293C5.19644 0.25293 1.87765 3.57172 1.87765 7.66567C1.87765 9.33078 2.42662 10.8675 3.35342 12.105L0.775906 14.6826C0.362345 15.0962 0.362345 15.7666 0.775906 16.1801C1.18947 16.5937 1.85986 16.5937 2.27342 16.1801L4.85108 13.6026C6.08851 14.5294 7.62527 15.0784 9.29039 15.0784C13.3843 15.0784 16.7031 11.7596 16.7031 7.66567ZM9.29039 2.37085C12.2146 2.37085 14.5852 4.74142 14.5852 7.66567C14.5852 10.59 12.2146 12.9605 9.29039 12.9605C6.3661 12.9605 3.99557 10.59 3.99557 7.66567C3.99557 4.74142 6.3661 2.37085 9.29039 2.37085Z" fill="#FF508B"/>
</svg>
