<svg width="17" height="16" viewBox="0 0 17 16" fill="none" xmlns="http://www.w3.org/2000/svg">
<g opacity="0.5">
<path opacity="0.5" d="M9.44399 0C10.8376 0 12.1998 0.413241 13.3585 1.18747C14.5172 1.96169 15.4203 3.06212 15.9536 4.34961C16.4869 5.6371 16.6265 7.05382 16.3546 8.42061C16.0827 9.7874 15.4117 11.0429 14.4263 12.0283C13.4409 13.0137 12.1854 13.6847 10.8186 13.9566C9.4518 14.2285 8.03509 14.089 6.7476 13.5557C5.46011 13.0224 4.35968 12.1193 3.58545 10.9605C2.81123 9.80184 2.39799 8.43957 2.39799 7.046C2.4001 5.17793 3.14313 3.38699 4.46405 2.06606C5.78497 0.745142 7.57592 0.00211739 9.44399 0V0ZM9.44399 12.791C10.5802 12.791 11.691 12.4541 12.6357 11.8228C13.5805 11.1915 14.3168 10.2943 14.7517 9.24452C15.1865 8.19475 15.3003 7.03963 15.0786 5.92521C14.8569 4.81079 14.3098 3.78712 13.5063 2.98367C12.7029 2.18022 11.6792 1.63306 10.5648 1.41139C9.45036 1.18972 8.29523 1.30349 7.24547 1.73831C6.19571 2.17314 5.29846 2.90949 4.66719 3.85425C4.03593 4.79901 3.69899 5.90975 3.69899 7.046C3.70084 8.5691 4.30671 10.0293 5.38371 11.1063C6.4607 12.1833 7.92089 12.7891 9.44399 12.791Z" fill="#2D2DB2" fill-opacity="0.5"/>
<path opacity="0.5" d="M0.680969 14.8888L4.40997 11.1598C4.53197 11.0378 4.69743 10.9692 4.86996 10.9692C5.0425 10.9692 5.20799 11.0378 5.32999 11.1598C5.45199 11.2818 5.52051 11.4472 5.52051 11.6198C5.52051 11.7923 5.45199 11.9578 5.32999 12.0798L1.60098 15.8088C1.47898 15.9308 1.31352 15.9993 1.14099 15.9993C0.968458 15.9993 0.802969 15.9308 0.680969 15.8088C0.558969 15.6868 0.490448 15.5213 0.490448 15.3488C0.490448 15.1762 0.558969 15.0108 0.680969 14.8888Z" fill="#2D2DB2" fill-opacity="0.5"/>
</g>
</svg>
