<svg width="13" height="15" viewBox="0 0 13 15" fill="none" xmlns="http://www.w3.org/2000/svg">
<path opacity="0.9" d="M6.75406 0.595218C6.92353 0.595218 7.08607 0.662547 7.2059 0.782382C7.32574 0.902218 7.39306 1.06474 7.39306 1.23422V1.91922C8.45754 2.07427 9.43074 2.60698 10.135 3.4201C10.8393 4.23322 11.2276 5.27251 11.2291 6.34822V10.2782C11.2231 10.3778 11.2433 10.4772 11.2874 10.5666C11.3316 10.6561 11.3984 10.7324 11.4811 10.7882C11.861 10.9873 12.1631 11.308 12.3393 11.6991C12.5154 12.0902 12.5552 12.529 12.4525 12.9455C12.3497 13.3619 12.1103 13.7318 11.7725 13.9961C11.4347 14.2604 11.018 14.4037 10.5891 14.4032H2.91706C2.48816 14.4037 2.07147 14.2604 1.73365 13.9961C1.39583 13.7318 1.1564 13.3619 1.05365 12.9455C0.950902 12.529 0.990766 12.0902 1.16687 11.6991C1.34298 11.308 1.64516 10.9873 2.02507 10.7882C2.10776 10.7324 2.17449 10.6561 2.21868 10.5666C2.26287 10.4772 2.283 10.3778 2.27706 10.2782V6.34922C2.27855 5.27352 2.66687 4.23422 3.37113 3.4211C4.07538 2.60798 5.04859 2.07527 6.11306 1.92022V1.23522C6.11293 1.15105 6.12943 1.06769 6.16161 0.989917C6.19379 0.912144 6.24101 0.841493 6.30057 0.782024C6.36013 0.722555 6.43086 0.67544 6.50868 0.643382C6.58651 0.611325 6.66989 0.594954 6.75406 0.595218ZM3.55406 6.34922V10.2792C3.56258 10.6119 3.48009 10.9405 3.31549 11.2297C3.15088 11.5189 2.91043 11.7577 2.62007 11.9202C2.49307 11.9862 2.39191 12.0929 2.3328 12.2233C2.27368 12.3536 2.26003 12.5 2.29403 12.639C2.32804 12.7781 2.40773 12.9017 2.52034 12.99C2.63294 13.0783 2.77195 13.1263 2.91506 13.1262H10.5901C10.7332 13.1263 10.8722 13.0783 10.9848 12.99C11.0974 12.9017 11.1771 12.7781 11.2111 12.639C11.2451 12.5 11.2315 12.3536 11.1723 12.2233C11.1132 12.0929 11.0121 11.9862 10.8851 11.9202C10.5947 11.7577 10.3542 11.5189 10.1896 11.2297C10.025 10.9405 9.94254 10.6119 9.95106 10.2792V6.34922C9.91259 5.52733 9.55902 4.75185 8.96377 4.18381C8.36852 3.61578 7.57735 3.29885 6.75456 3.29885C5.93178 3.29885 5.1406 3.61578 4.54535 4.18381C3.95011 4.75185 3.59653 5.52733 3.55806 6.34922H3.55406Z" fill="#2D2DB2"/>
</svg>
