<svg width="247" height="247" viewBox="0 0 247 247" fill="none" xmlns="http://www.w3.org/2000/svg">
<path d="M123.5 232C183.423 232 232 183.423 232 123.5C232 63.5771 183.423 15 123.5 15C63.5771 15 15 63.5771 15 123.5C15 183.423 63.5771 232 123.5 232Z" fill="#2D2DB2" fill-opacity="0.08" stroke="#2D2DB2" stroke-opacity="0.08" stroke-width="30"/>
<g opacity="0.5">
<path d="M168.313 64H114.052C108.077 64 103.248 68.9055 103.248 74.976V94.9044C100.955 94.9658 98.7215 95.4563 96.6694 96.3761C93.048 97.9704 90.0301 100.607 88.0384 104.102L70.3539 135.313C69.4486 136.969 68.7846 138.686 68.3621 140.464C68.2414 141.077 68.1207 141.629 68.0604 142.242C68.0604 142.549 68 142.855 68 143.162C68 143.775 68 144.327 68 144.94C68 145.247 68 145.615 68 145.921C68.1207 147.638 68.4829 149.355 69.0864 150.949C69.2675 151.44 69.4486 151.869 69.8107 152.605C71.38 155.916 73.9149 158.676 77.1138 160.515C79.5281 161.803 82.3045 162.6 85.0206 162.784C87.7366 162.968 90.0905 162.477 91.9616 161.925C92.8066 167.321 95.2812 172.227 99.144 176.213C104.033 181.179 110.491 183.939 117.613 184C128.839 184 138.859 176.58 142.299 165.788L149.904 165.666C152.499 165.421 154.25 165.298 156.543 164.194L157.147 163.949C157.75 163.704 158.474 163.336 159.138 162.906C162.036 161.128 165.295 158.246 168.735 154.506C171.27 151.747 173.684 148.742 175.918 145.615C178.03 142.671 179.177 139.176 179.177 135.497V74.976C179.177 68.9055 174.348 64 168.373 64H168.313ZM158.897 146.78C158.897 145.615 159.863 144.634 161.009 144.634H166.502L158.897 152.605V146.78ZM121.355 139.299C129.081 141.322 134.875 147.883 135.599 155.671C136.444 164.807 130.288 173.331 121.355 175.783V139.238V139.299ZM143.023 152.421H145.136C147.188 152.421 148.878 150.704 148.878 148.619C148.878 146.534 147.188 144.879 145.136 144.879H140.186C138.436 141.813 134.875 137.091 128.719 134.026C123.287 131.389 118.096 131.082 114.414 131.45L119.484 122.559C121.053 119.738 121.898 116.55 121.898 113.361C121.898 112.993 121.898 112.441 121.838 111.951C122.261 112.135 122.743 112.258 123.226 112.258H149.904C151.956 112.258 153.646 110.541 153.646 108.456C153.646 106.371 151.956 104.654 149.904 104.654H123.226C122.079 104.654 121.053 105.267 120.329 106.126C119.846 104.961 119.243 103.796 118.398 102.631C115.923 99.1967 112.845 97.3572 110.732 96.4374V74.976C110.732 73.1364 112.181 71.6648 113.992 71.6648H168.252C170.063 71.6648 171.512 73.1364 171.512 74.976V136.969H160.889C155.698 137.091 151.292 141.568 151.292 146.718V158.001C150.87 158.001 150.568 158.001 150.206 158.001L143.446 158.124V157.51C143.446 155.794 143.265 154.015 142.963 152.36L143.023 152.421ZM99.3251 155.732C100.049 147.883 105.844 141.384 113.569 139.36V175.906C104.576 173.453 98.4197 164.93 99.3251 155.794V155.732ZM113.026 118.757L106.025 131.082L87.6159 120.29L94.6172 107.965C96.9108 103.918 101.8 101.772 106.206 102.815C107.232 103.06 108.197 103.428 109.103 103.98C112.362 105.88 114.414 109.498 114.414 113.361C114.414 115.262 113.931 117.102 112.966 118.757H113.026ZM94.8587 143.591C92.6255 147.332 91.9012 151.011 91.7805 153.709C90.5734 154.506 88.6419 155.426 86.107 155.426C83.8134 155.426 81.9424 154.629 80.7956 153.893C75.7256 150.888 73.9753 144.266 76.8724 139.115L83.8738 126.79L101.015 136.846C98.9629 138.257 96.6694 140.403 94.8587 143.53V143.591Z" fill="#2D2DB2" fill-opacity="0.5"/>
<path d="M162.699 88.2217C162.699 86.1368 161.009 84.4199 158.957 84.4199H123.226C121.173 84.4199 119.483 86.1368 119.483 88.2217C119.483 90.3065 121.173 92.0234 123.226 92.0234H158.957C161.009 92.0234 162.699 90.3065 162.699 88.2217Z" fill="#2D2DB2" fill-opacity="0.5"/>
<path d="M159.5 104.532C157.448 104.532 155.758 106.249 155.758 108.334C155.758 110.419 157.448 112.136 159.5 112.136C161.552 112.136 163.242 110.419 163.242 108.334C163.242 106.249 161.552 104.532 159.5 104.532Z" fill="#2D2DB2" fill-opacity="0.5"/>
<path d="M162.7 128.445C162.7 126.36 161.01 124.644 158.958 124.644H134.212C132.16 124.644 130.47 126.36 130.47 128.445C130.47 130.53 132.16 132.247 134.212 132.247H158.958C161.01 132.247 162.7 130.53 162.7 128.445Z" fill="#2D2DB2" fill-opacity="0.5"/>
</g>
</svg>
