<svg width="53" height="53" viewBox="0 0 53 53" fill="none" xmlns="http://www.w3.org/2000/svg">
<path d="M26.5 53C41.1355 53 53 41.1355 53 26.5C53 11.8645 41.1355 0 26.5 0C11.8645 0 0 11.8645 0 26.5C0 41.1355 11.8645 53 26.5 53Z" fill="#2D2DB2"/>
<path d="M14.0001 37.8642C14.0001 38.1654 14.1198 38.4543 14.3329 38.6673C14.546 38.8803 14.835 39 15.1364 39C15.4378 39 15.7268 38.8803 15.94 38.6673C16.1531 38.4543 16.2728 38.1654 16.2728 37.8642C16.2692 35.9213 16.8237 34.0182 17.8704 32.3809C18.9172 30.7437 20.4121 29.4412 22.1776 28.6281C23.465 29.4676 24.9693 29.9138 26.5064 29.9122C28.0436 29.9106 29.547 29.4612 30.8326 28.619C31.9069 29.1205 32.8871 29.8025 33.7307 30.6352C34.6835 31.5822 35.4389 32.7086 35.9532 33.9493C36.4676 35.1899 36.7307 36.5202 36.7272 37.8632C36.7272 38.1644 36.847 38.4533 37.0601 38.6663C37.2732 38.8793 37.5622 38.999 37.8636 38.999C38.165 38.999 38.454 38.8793 38.6671 38.6663C38.8802 38.4533 39 38.1644 39 37.8632C39.0041 36.2219 38.6825 34.596 38.0538 33.0797C37.4252 31.5633 36.5019 30.1867 35.3375 29.0293C34.5343 28.2361 33.628 27.5545 32.643 27.0029C33.6003 25.8393 34.2071 24.4278 34.3929 22.9328C34.5787 21.4379 34.3359 19.9209 33.6926 18.5585C33.0494 17.1961 32.0322 16.0444 30.7595 15.2374C29.4868 14.4304 28.0109 14.0012 26.5036 14C24.9964 13.9988 23.5198 14.4254 22.2458 15.2304C20.9717 16.0353 19.9526 17.1854 19.3071 18.5467C18.6616 19.908 18.4163 21.4246 18.5996 22.9198C18.783 24.4151 19.3875 25.8276 20.3428 26.9928C18.4126 28.076 16.807 29.6549 15.6919 31.5662C14.5768 33.4775 13.9927 35.6517 14.0001 37.8642ZM26.501 16.2835C27.625 16.2835 28.7237 16.6166 29.6582 17.2407C30.5928 17.8648 31.3211 18.7519 31.7513 19.7898C32.1814 20.8276 32.2939 21.9697 32.0746 23.0715C31.8554 24.1733 31.3141 25.1853 30.5194 25.9797C29.7246 26.774 28.712 27.315 27.6097 27.5341C26.5073 27.7533 25.3647 27.6408 24.3263 27.2109C23.2879 26.781 22.4004 26.053 21.7759 25.119C21.1515 24.1849 20.8182 23.0868 20.8182 21.9634C20.8193 20.457 21.4183 19.0126 22.4837 17.9472C23.5491 16.8818 24.9939 16.2823 26.501 16.2805V16.2835Z" fill="white"/>
</svg>
