<svg width="18" height="18" viewBox="0 0 18 18" fill="none" xmlns="http://www.w3.org/2000/svg">
<path d="M12.1426 17.9999C14.1569 17.9999 15.9998 17.075 17.1998 15.4814C17.6855 14.8269 17.6855 13.9162 17.1998 13.2617C15.9998 11.668 14.1569 10.7432 12.1426 10.7432C10.1283 10.7432 8.28548 11.668 7.08548 13.2617C6.59976 13.9162 6.59976 14.8269 7.08548 15.4814C8.28548 17.075 10.1283 17.9999 12.1426 17.9999ZM7.77119 13.7739C8.81405 12.3937 10.3998 11.5969 12.1426 11.5969C13.8855 11.5969 15.4712 12.3937 16.514 13.7739C16.7855 14.1296 16.7855 14.6134 16.514 14.9691C15.4712 16.3493 13.8855 17.1462 12.1426 17.1462C10.3998 17.1462 8.81405 16.3493 7.77119 14.9691C7.49976 14.6134 7.49976 14.1296 7.77119 13.7739Z" fill="#FF508B"/>
<path d="M12.143 16.5057C12.6859 16.5057 13.243 16.2923 13.6573 15.8796C14.4859 15.0543 14.4859 13.6884 13.6573 12.8631C12.8288 12.0378 11.4573 12.0378 10.6288 12.8631C9.80018 13.6884 9.80018 15.0543 10.6288 15.8796C11.043 16.2923 11.6002 16.5057 12.143 16.5057ZM11.2288 13.4607C11.4859 13.2046 11.8145 13.0908 12.143 13.0908C12.4716 13.0908 12.8002 13.2188 13.0573 13.4607C13.5573 13.9587 13.5573 14.7698 13.0573 15.2678C12.5573 15.7658 11.743 15.7658 11.243 15.2678C10.7288 14.784 10.7288 13.9587 11.2288 13.4607Z" fill="#FF508B"/>
<path d="M3 1.99219H2.42857C2.18571 1.99219 2 2.17716 2 2.41905C2 2.66095 2.18571 2.84592 2.42857 2.84592H3C3.24286 2.84592 3.42857 2.66095 3.42857 2.41905C3.42857 2.17716 3.24286 1.99219 3 1.99219Z" fill="#FF508B"/>
<path d="M5.28589 1.99219H4.71446C4.4716 1.99219 4.28589 2.17716 4.28589 2.41905C4.28589 2.66095 4.4716 2.84592 4.71446 2.84592H5.28589C5.52875 2.84592 5.71446 2.66095 5.71446 2.41905C5.71446 2.17716 5.52875 1.99219 5.28589 1.99219Z" fill="#FF508B"/>
<path d="M16.1429 0H1.85714C0.828571 0 0 0.825276 0 1.84976V16.0786C0 17.1031 0.828571 17.9284 1.85714 17.9284H4.71429C4.95714 17.9284 5.14286 17.7434 5.14286 17.5015C5.14286 17.2596 4.95714 17.0747 4.71429 17.0747H1.85714C1.3 17.0747 0.857143 16.6336 0.857143 16.0786V4.83782H17.1429V10.2448C17.1429 10.4867 17.3286 10.6717 17.5714 10.6717C17.8143 10.6717 18 10.4867 18 10.2448V1.84976C18 0.825276 17.1714 0 16.1429 0ZM17.1429 3.98409H0.857143V1.84976C0.857143 1.29483 1.3 0.853733 1.85714 0.853733H16.1429C16.7 0.853733 17.1429 1.29483 17.1429 1.84976V3.98409Z" fill="#FF508B"/>
</svg>
