<svg width="38" height="38" viewBox="0 0 38 38" fill="none" xmlns="http://www.w3.org/2000/svg">
<g clip-path="url(#clip0_3801_3865)">
<path d="M4.5503 30.9141C4.25151 31.9529 3.7032 32.8878 2.9439 33.6481C2.63013 33.9619 2.53589 34.4331 2.70616 34.8433C2.8754 35.2535 3.27596 35.5201 3.71929 35.5201H5.91252C7.67421 35.5201 9.30415 34.6698 10.3279 33.2562C10.6706 33.298 11.0272 33.3269 11.3956 33.3269C16.2476 33.3269 20.3264 30.1377 21.7673 25.7616C19.8571 24.9771 18.1864 23.7431 16.8484 22.2111C16.8558 22.2622 16.8787 22.3076 16.8787 22.3607C16.8787 22.9663 16.3877 23.4573 15.7821 23.4573C15.1765 23.4573 14.6855 22.9663 14.6855 22.3607C14.6855 21.7549 15.1765 21.2641 15.7821 21.2641C15.914 21.2641 16.0367 21.2966 16.1537 21.3392C14.5539 19.1619 13.5889 16.4917 13.5889 13.5878C13.5889 12.9321 13.653 12.2925 13.746 11.6623C12.987 11.4955 12.204 11.3945 11.3956 11.3945C5.34923 11.3945 0.356323 16.3143 0.356323 22.3607C0.356323 25.6934 1.95658 28.8376 4.5503 30.9141ZM11.3956 21.2641C12.0012 21.2641 12.4922 21.7549 12.4922 22.3607C12.4922 22.9663 12.0012 23.4573 11.3956 23.4573C10.79 23.4573 10.299 22.9663 10.299 22.3607C10.299 21.7549 10.79 21.2641 11.3956 21.2641ZM7.00914 21.2641C7.61477 21.2641 8.10576 21.7549 8.10576 22.3607C8.10576 22.9663 7.61477 23.4573 7.00914 23.4573C6.40352 23.4573 5.91252 22.9663 5.91252 22.3607C5.91252 21.7549 6.40352 21.2641 7.00914 21.2641Z" fill="white"/>
<path d="M26.7483 2.62109C20.7019 2.62109 15.7821 7.54089 15.7821 13.5873C15.7821 19.6337 20.7019 24.5535 26.7483 24.5535C27.1167 24.5535 27.4733 24.5245 27.816 24.4828C28.8398 25.8964 30.4697 26.7467 32.2314 26.7467H34.4246C34.8679 26.7467 35.2685 26.4801 35.4377 26.0699C35.6079 25.6597 35.5137 25.1885 35.1999 24.8747C34.4406 24.1144 33.8923 23.1795 33.5935 22.1407C36.1873 20.0642 37.7876 16.92 37.7876 13.5873C37.7876 7.54089 32.7947 2.62109 26.7483 2.62109ZM26.7483 19.0704C26.1427 19.0704 25.6517 18.5794 25.6517 17.9738C25.6517 17.368 26.1427 16.8771 26.7483 16.8771C27.3539 16.8771 27.8449 17.368 27.8449 17.9738C27.8449 18.5794 27.3539 19.0704 26.7483 19.0704ZM28.6984 12.9469C28.164 13.341 27.8449 13.9707 27.8449 14.6325C27.8449 15.2386 27.3544 15.7549 26.7483 15.7549C26.1422 15.7549 25.6517 15.2901 25.6517 14.684C25.6517 13.2768 26.3039 11.9874 27.3962 11.1821C27.681 10.9722 27.8449 10.6499 27.8449 10.2975C27.8449 9.69246 27.3533 9.20088 26.7483 9.20088C26.1433 9.20088 25.6517 9.69246 25.6517 10.2975C25.6517 10.9036 25.1612 11.3941 24.5551 11.3941C23.9489 11.3941 23.4584 10.9036 23.4584 10.2975C23.4584 8.4834 24.9342 7.00764 26.7483 7.00764C28.5624 7.00764 30.0381 8.4834 30.0381 10.2975C30.0381 11.3383 29.537 12.3289 28.6984 12.9469Z" fill="white"/>
</g>
<defs>
<clipPath id="clip0_3801_3865">
<rect width="37.4313" height="37.4313" fill="white" transform="translate(0.356323 0.355469)"/>
</clipPath>
</defs>
</svg>
