<svg width="18" height="18" viewBox="0 0 18 18" fill="none" xmlns="http://www.w3.org/2000/svg">
<path d="M15.7875 12.8625V11.025C15.7875 10.8 15.6375 10.65 15.4125 10.65H9.375V9H16.575C17.3625 9 18 8.3625 18 7.575V1.4625C18 0.6375 17.3625 0 16.575 0H1.425C0.6375 0 0 0.6375 0 1.4625V7.575C0 8.3625 0.6375 9 1.425 9H8.625V10.65H2.5875C2.3625 10.65 2.2125 10.8 2.2125 11.025V12.8625C0.975 13.05 0 14.1 0 15.4125C0 16.8375 1.1625 18 2.5875 18C4.0125 18 5.175 16.8375 5.175 15.4125C5.175 14.1 4.2 13.05 2.9625 12.8625V11.4H8.625V12.8625C7.3875 13.05 6.4125 14.1 6.4125 15.4125C6.4125 16.8375 7.575 18 9 18C10.425 18 11.5875 16.8375 11.5875 15.4125C11.5875 14.1 10.6125 13.05 9.375 12.8625V11.4H15.0375V12.8625C13.8 13.05 12.825 14.1 12.825 15.4125C12.825 16.8375 13.9875 18 15.4125 18C16.8375 18 18 16.8375 18 15.4125C18 14.1 17.025 13.05 15.7875 12.8625ZM4.425 15.4125C4.425 16.425 3.6 17.25 2.5875 17.25C1.575 17.25 0.75 16.425 0.75 15.4125C0.75 14.4 1.575 13.575 2.5875 13.575C3.6 13.575 4.425 14.4 4.425 15.4125ZM10.8375 15.4125C10.8375 16.425 10.0125 17.25 9 17.25C7.9875 17.25 7.1625 16.425 7.1625 15.4125C7.1625 14.4 7.9875 13.575 9 13.575C10.0125 13.575 10.8375 14.4 10.8375 15.4125ZM1.425 8.2125C1.05 8.2125 0.75 7.9125 0.75 7.5375V1.4625C0.75 1.0875 1.05 0.75 1.425 0.75H16.5375C16.9125 0.75 17.2125 1.05 17.2125 1.425V7.5375C17.2125 7.9125 16.9125 8.2125 16.5375 8.2125H1.425ZM15.4125 17.25C14.4 17.25 13.575 16.425 13.575 15.4125C13.575 14.4 14.4 13.575 15.4125 13.575C16.425 13.575 17.25 14.4 17.25 15.4125C17.25 16.425 16.425 17.25 15.4125 17.25Z" fill="#FF508B"/>
<path d="M15.1501 2.47461H2.8501C2.6251 2.47461 2.4751 2.62461 2.4751 2.84961C2.4751 3.07461 2.6251 3.22461 2.8501 3.22461H15.1501C15.3751 3.22461 15.5251 3.07461 15.5251 2.84961C15.5251 2.62461 15.3376 2.47461 15.1501 2.47461Z" fill="#FF508B"/>
<path d="M15.1501 4.125H2.8501C2.6251 4.125 2.4751 4.275 2.4751 4.5C2.4751 4.725 2.6251 4.875 2.8501 4.875H15.1501C15.3751 4.875 15.5251 4.725 15.5251 4.5C15.5251 4.275 15.3376 4.125 15.1501 4.125Z" fill="#FF508B"/>
<path d="M13.1624 5.77539H4.8374C4.6124 5.77539 4.4624 5.92539 4.4624 6.15039C4.4624 6.37539 4.6124 6.52539 4.8374 6.52539H13.1999C13.4249 6.52539 13.5749 6.37539 13.5749 6.15039C13.5749 5.92539 13.3874 5.77539 13.1624 5.77539Z" fill="#FF508B"/>
</svg>
