<svg width="18" height="21" viewBox="0 0 18 21" fill="none" xmlns="http://www.w3.org/2000/svg">
<path opacity="0.9" d="M8.37162 2.63819e-05C8.24949 2.63819e-05 8.12856 0.0240827 8.01572 0.0708195C7.90289 0.117556 7.80037 0.18606 7.71401 0.272419C7.62765 0.358777 7.55915 0.461298 7.51241 0.574131C7.46568 0.686963 7.44162 0.807897 7.44162 0.930027V1.93003C5.89253 2.15544 4.47622 2.93057 3.45138 4.11386C2.42653 5.29715 1.86155 6.80963 1.85962 8.37503V14.094C1.86822 14.2389 1.8389 14.3836 1.77454 14.5137C1.71018 14.6438 1.61302 14.7549 1.49262 14.836C0.94024 15.1262 0.501057 15.5931 0.245254 16.1622C-0.0105489 16.7313 -0.068206 17.3697 0.0814966 17.9754C0.231199 18.5812 0.579621 19.1192 1.07108 19.5036C1.56254 19.888 2.16867 20.0966 2.79262 20.096H13.9576C14.5816 20.0966 15.1877 19.888 15.6792 19.5036C16.1706 19.1192 16.519 18.5812 16.6687 17.9754C16.8184 17.3697 16.7608 16.7313 16.505 16.1622C16.2492 15.5931 15.81 15.1262 15.2576 14.836C15.1372 14.7549 15.0401 14.6438 14.9757 14.5137C14.9113 14.3836 14.882 14.2389 14.8906 14.094V8.37203C14.8887 6.80663 14.3237 5.29416 13.2989 4.11087C12.274 2.92758 10.8577 2.15244 9.30862 1.92703V0.927028C9.30822 0.80456 9.28365 0.683375 9.2363 0.57043C9.18895 0.457486 9.11976 0.355003 9.0327 0.268871C8.94564 0.182738 8.84242 0.114652 8.72897 0.0685155C8.61553 0.0223794 8.49408 -0.00089605 8.37162 2.63819e-05ZM13.0226 8.37203V14.094C13.0103 14.5779 13.1304 15.056 13.3699 15.4767C13.6094 15.8973 13.9592 16.2446 14.3816 16.481C14.5666 16.5768 14.7141 16.732 14.8003 16.9216C14.8865 17.1113 14.9064 17.3244 14.8569 17.5267C14.8074 17.7291 14.6914 17.9089 14.5274 18.0374C14.3634 18.1658 14.1609 18.2355 13.9526 18.235H2.79462C2.5863 18.2355 2.38388 18.1658 2.21988 18.0374C2.05588 17.9089 1.93981 17.7291 1.89032 17.5267C1.84083 17.3244 1.86078 17.1113 1.94698 16.9216C2.03318 16.732 2.18062 16.5768 2.36562 16.481C2.78803 16.2446 3.13785 15.8973 3.37735 15.4767C3.61685 15.056 3.73692 14.5779 3.72462 14.094V8.37203C3.74985 7.15547 4.25084 5.99725 5.12014 5.14579C5.98944 4.29434 7.1578 3.81747 8.37462 3.81747C9.59144 3.81747 10.7598 4.29434 11.6291 5.14579C12.4984 5.99725 12.9994 7.15547 13.0246 8.37203H13.0226Z" fill="#2D2DB2"/>
<path d="M12.7926 10.5088C15.2321 10.5088 17.2096 8.53125 17.2096 6.0918C17.2096 3.65236 15.2321 1.6748 12.7926 1.6748C10.3532 1.6748 8.37561 3.65236 8.37561 6.0918C8.37561 8.53125 10.3532 10.5088 12.7926 10.5088Z" fill="#FF8F15"/>
<path d="M12.7926 9.5088C14.6798 9.5088 16.2096 7.97896 16.2096 6.0918C16.2096 4.20465 14.6798 2.6748 12.7926 2.6748C10.9055 2.6748 9.37561 4.20465 9.37561 6.0918C9.37561 7.97896 10.9055 9.5088 12.7926 9.5088Z" stroke="#F5F5FF" stroke-width="2"/>
</svg>
