<svg width="18" height="18" viewBox="0 0 18 18" fill="none" xmlns="http://www.w3.org/2000/svg">
<path fill-rule="evenodd" clip-rule="evenodd" d="M11.9886 8.2613C12.1346 8.2613 12.2774 8.3046 12.3988 8.38573C12.5202 8.46686 12.6148 8.58217 12.6707 8.71708C12.7266 8.85198 12.7412 9.00043 12.7127 9.14365C12.6843 9.28687 12.6139 9.41842 12.5107 9.52168C12.4074 9.62493 12.2759 9.69525 12.1327 9.72374C11.9894 9.75222 11.841 9.7376 11.7061 9.68172C11.5712 9.62584 11.4559 9.53121 11.3747 9.4098C11.2936 9.28838 11.2503 9.14564 11.2503 8.99961C11.2505 8.80387 11.3284 8.6162 11.4668 8.47779C11.6052 8.33937 11.7929 8.26152 11.9886 8.2613ZM16.4639 0H1.53737C1.12585 0.0121165 0.735219 0.183979 0.448243 0.479172C0.161267 0.774365 0.000497864 1.16969 0 1.58139V16.4179C0.000455997 16.8374 0.167286 17.2395 0.463887 17.5361C0.760488 17.8327 1.16263 17.9995 1.58209 18H16.4193C16.8385 17.9992 17.2403 17.8323 17.5367 17.5357C17.833 17.2391 17.9996 16.8371 18 16.4179V1.58139C17.9995 1.1699 17.839 0.774741 17.5523 0.479576C17.2656 0.18441 16.8752 0.0124129 16.4639 0ZM4.74609 9.52705H10.2748C10.401 9.9374 10.6704 10.2888 11.0338 10.5174C11.3972 10.746 11.8306 10.8366 12.2551 10.7728C12.6797 10.7089 13.0673 10.4949 13.3474 10.1695C13.6275 9.84411 13.7815 9.42902 13.7815 8.99968C13.7815 8.57035 13.6275 8.15526 13.3474 7.82988C13.0673 7.5045 12.6797 7.29043 12.2551 7.22658C11.8306 7.16273 11.3972 7.25335 11.0338 7.48195C10.6704 7.71056 10.401 8.06197 10.2748 8.47232H4.74609C4.60623 8.47232 4.47209 8.52788 4.37319 8.62678C4.27429 8.72568 4.21873 8.85982 4.21873 8.99968C4.21873 9.13955 4.27429 9.27369 4.37319 9.37259C4.47209 9.47149 4.60623 9.52705 4.74609 9.52705ZM6.01177 12.6122C6.15779 12.6122 6.30053 12.6555 6.42195 12.7366C6.54336 12.8177 6.63799 12.933 6.69387 13.0679C6.74975 13.2028 6.76438 13.3513 6.73589 13.4945C6.7074 13.6377 6.63708 13.7693 6.53383 13.8725C6.43057 13.9758 6.29902 14.0461 6.1558 14.0746C6.01259 14.1031 5.86414 14.0885 5.72923 14.0326C5.59432 13.9767 5.47901 13.8821 5.39789 13.7607C5.31676 13.6392 5.27346 13.4965 5.27346 13.3505C5.27365 13.1547 5.3515 12.967 5.48992 12.8286C5.62834 12.6902 5.81601 12.6124 6.01177 12.6122ZM6.01177 15.1435C5.67991 15.1435 5.35459 15.0513 5.072 14.8773C4.78942 14.7033 4.56066 14.4543 4.4112 14.158C4.26173 13.8618 4.19743 13.5298 4.22544 13.1991C4.25345 12.8685 4.37268 12.5521 4.56985 12.2851C4.76702 12.0182 5.0344 11.8112 5.34223 11.6873C5.65005 11.5633 5.98625 11.5272 6.31338 11.5829C6.64051 11.6387 6.94575 11.7842 7.19512 12.0031C7.44449 12.2221 7.6282 12.5059 7.7258 12.8231H13.2544C13.3942 12.8231 13.5284 12.8787 13.6273 12.9776C13.7262 13.0765 13.7817 13.2106 13.7817 13.3505C13.7817 13.4903 13.7262 13.6245 13.6273 13.7234C13.5284 13.8223 13.3942 13.8778 13.2544 13.8778H7.72587C7.61254 14.244 7.38506 14.5644 7.07668 14.7921C6.7683 15.0198 6.39518 15.143 6.01184 15.1435H6.01177ZM6.01177 3.91065C6.15779 3.91065 6.30053 3.95395 6.42195 4.03508C6.54336 4.11621 6.63799 4.23152 6.69387 4.36642C6.74975 4.50133 6.76438 4.64978 6.73589 4.793C6.7074 4.93622 6.63708 5.06777 6.53383 5.17103C6.43057 5.27428 6.29902 5.3446 6.1558 5.37309C6.01259 5.40157 5.86414 5.38695 5.72923 5.33107C5.59432 5.27519 5.47901 5.18056 5.39789 5.05915C5.31676 4.93773 5.27346 4.79499 5.27346 4.64896C5.27365 4.45321 5.3515 4.26553 5.48992 4.12711C5.62834 3.9887 5.81601 3.91085 6.01177 3.91065ZM6.01177 6.442C5.67991 6.44195 5.35459 6.34979 5.072 6.17581C4.78942 6.00182 4.56066 5.75282 4.4112 5.45653C4.26173 5.16024 4.19743 4.82829 4.22544 4.49762C4.25345 4.16695 4.37268 3.85054 4.56985 3.58362C4.76702 3.31669 5.0344 3.10972 5.34223 2.98575C5.65005 2.86177 5.98625 2.82566 6.31338 2.88142C6.64051 2.93719 6.94575 3.08264 7.19512 3.3016C7.44449 3.52056 7.6282 3.80442 7.7258 4.1216H13.2544C13.3942 4.1216 13.5284 4.17716 13.6273 4.27606C13.7262 4.37496 13.7817 4.5091 13.7817 4.64896C13.7817 4.78883 13.7262 4.92297 13.6273 5.02187C13.5284 5.12077 13.3942 5.17633 13.2544 5.17633H7.72587C7.61254 5.54253 7.38506 5.8629 7.07668 6.09061C6.7683 6.31833 6.39518 6.44145 6.01184 6.442H6.01177ZM1.05455 1.58146V16.418C1.05472 16.5578 1.11033 16.6918 1.2092 16.7907C1.30806 16.8896 1.4421 16.9452 1.58191 16.9453H16.4191C16.5589 16.9451 16.6929 16.8894 16.7917 16.7906C16.8906 16.6917 16.9462 16.5578 16.9465 16.418V1.58146C16.9462 1.44167 16.8906 1.30769 16.7917 1.20884C16.6929 1.11 16.5589 1.05436 16.4191 1.0541H1.58205C1.44223 1.05424 1.30818 1.10983 1.20929 1.20868C1.11041 1.30753 1.05477 1.44157 1.05459 1.58139L1.05455 1.58146Z" fill="#FF508B"/>
</svg>
