<svg width="13" height="17" viewBox="0 0 13 17" fill="none" xmlns="http://www.w3.org/2000/svg">
<path d="M10.9589 0H2.04106C0.915534 0 0 0.915657 0 2.04106V16.0773H13V2.04106C13 0.915657 12.0843 0 10.9589 0ZM8.03865 12.1662H4.96135V10.139H8.03865V12.1662ZM8.98068 10.1391H12.058V12.1662H8.98068V10.1391ZM8.03865 13.1082V15.1353H4.96135V13.1082H8.03865ZM4.01932 12.1662H0.942029V10.139H4.01932V12.1662ZM4.96135 9.19705V7.16997H8.03865V9.19705H4.96135ZM4.01932 7.16985V9.19693H0.942029V7.16985H4.01932ZM0.942029 13.1082H4.01932V15.1353H0.942029V13.1082ZM8.98068 15.1353V13.1082H12.058V15.1353H8.98068ZM8.98068 9.19705V7.16997H12.058V9.19705H8.98068ZM12.058 6.22782H0.942029V2.04106C0.942029 1.435 1.435 0.942029 2.04106 0.942029H10.9589C11.565 0.942029 12.058 1.435 12.058 2.04106V6.22782Z" fill="#FF508B"/>
<path d="M3.9885 2.14258H2.52148V2.87609H3.01593V5.02717H3.9885V2.14258Z" fill="#FF508B"/>
<path d="M6.74934 3.89853C7.1697 3.51939 7.24379 3.26388 7.24379 2.97956C7.24379 2.43151 6.76173 2.07715 6.07766 2.07715C5.4554 2.07715 5.03922 2.34909 4.82898 2.74466L5.56261 3.11142C5.64908 2.93834 5.81394 2.84365 5.98701 2.84365C6.17247 2.84365 6.26717 2.93013 6.26717 3.0702C6.26717 3.16919 6.23834 3.28044 6.04049 3.46578L4.99801 4.43014V5.02761H7.30978V4.2735H6.33721L6.74934 3.89853Z" fill="#FF508B"/>
<path d="M9.78619 3.28405L10.322 2.74018V2.14258H8.17088V2.87608H9.2011L8.7767 3.30883V3.90631H9.15989C9.40705 3.90631 9.50186 3.98052 9.50186 4.10416C9.50186 4.25245 9.34535 4.32666 9.12689 4.32666C8.88378 4.32666 8.59945 4.26067 8.35217 4.11655L8.02246 4.83349C8.33156 5.00657 8.76419 5.09316 9.15976 5.09316C10.0829 5.09316 10.4785 4.5986 10.4785 4.10416C10.4785 3.70441 10.2395 3.3953 9.78619 3.28405Z" fill="#FF508B"/>
</svg>
