<svg width="25" height="25" viewBox="0 0 25 25" fill="none" xmlns="http://www.w3.org/2000/svg">
<path d="M19.1364 25H5.85764C4.30468 24.9981 2.81586 24.3801 1.71775 23.2815C0.619639 22.1829 0.00188925 20.6934 0 19.1397L0 10.926C0.00221136 10.0241 0.21125 9.13473 0.611024 8.32636C1.0108 7.51799 1.59065 6.81217 2.30593 6.26324L8.94531 1.19693C9.96691 0.420406 11.2146 0 12.4976 0C13.7806 0 15.0283 0.420406 16.0499 1.19693L18.1595 2.80515V1.55762C18.1684 1.30448 18.2751 1.06466 18.4572 0.888706C18.6393 0.712753 18.8826 0.614412 19.1358 0.614412C19.389 0.614412 19.6323 0.712753 19.8144 0.888706C19.9965 1.06466 20.1032 1.30448 20.1121 1.55762V4.77168C20.112 4.95369 20.0611 5.13205 19.9651 5.28667C19.8691 5.44129 19.7319 5.56603 19.5689 5.64683C19.4059 5.72763 19.2235 5.76129 19.0424 5.744C18.8613 5.72672 18.6887 5.65918 18.5439 5.549L14.866 2.7492C14.1849 2.23142 13.353 1.9511 12.4976 1.9511C11.6422 1.9511 10.8103 2.23142 10.1292 2.7492L3.48984 7.81075C3.0131 8.17646 2.6266 8.64673 2.36008 9.18537C2.09357 9.72401 1.95415 10.3166 1.95255 10.9177V19.1314C1.95192 19.6451 2.05244 20.1538 2.24835 20.6286C2.44426 21.1035 2.73173 21.535 3.09435 21.8987C3.45697 22.2624 3.88764 22.551 4.36177 22.7482C4.8359 22.9453 5.34419 23.0471 5.85764 23.0478H19.1364C20.1717 23.0465 21.1643 22.6345 21.8963 21.9021C22.6284 21.1697 23.0402 20.1767 23.0415 19.1409V10.9272C23.0436 10.3258 22.9078 9.73203 22.6443 9.19151C22.3809 8.651 21.9969 8.1782 21.5221 7.80956C21.4135 7.73401 21.3214 7.63721 21.2514 7.52502C21.1814 7.41282 21.1348 7.28757 21.1146 7.15685C21.0944 7.02613 21.1009 6.89267 21.1337 6.76454C21.1666 6.63641 21.2251 6.51628 21.3057 6.41143C21.3863 6.30659 21.4873 6.2192 21.6027 6.15458C21.7181 6.08995 21.8453 6.04943 21.9768 6.03546C22.1083 6.0215 22.2412 6.03438 22.3676 6.07332C22.4939 6.11227 22.6111 6.17648 22.7119 6.26205C23.4249 6.81379 24.0019 7.52178 24.3986 8.33156C24.7952 9.14134 25.001 10.0313 25 10.9331V19.1468C24.9962 20.7003 24.3768 22.1889 23.2776 23.2861C22.1784 24.3833 20.6892 24.9997 19.1364 25Z" fill="#2D2DB2" fill-opacity="0.5"/>
<path d="M11.7641 12.4977C11.7641 12.7393 11.6925 12.9754 11.5583 13.1762C11.4242 13.3771 11.2336 13.5336 11.0105 13.6261C10.7874 13.7185 10.542 13.7427 10.3051 13.6956C10.0683 13.6485 9.85081 13.5321 9.68008 13.3613C9.50935 13.1905 9.39307 12.9729 9.34596 12.736C9.29886 12.499 9.32305 12.2535 9.41545 12.0303C9.50784 11.8071 9.66431 11.6164 9.86507 11.4822C10.0658 11.348 10.3018 11.2764 10.5433 11.2764C10.8671 11.2764 11.1776 11.405 11.4065 11.6341C11.6355 11.8631 11.7641 12.1738 11.7641 12.4977ZM14.4484 11.2764C14.207 11.2764 13.9709 11.348 13.7702 11.4822C13.5694 11.6164 13.4129 11.8071 13.3205 12.0303C13.2281 12.2535 13.204 12.499 13.2511 12.736C13.2982 12.9729 13.4144 13.1905 13.5852 13.3613C13.7559 13.5321 13.9734 13.6485 14.2102 13.6956C14.4471 13.7427 14.6925 13.7185 14.9156 13.6261C15.1386 13.5336 15.3293 13.3771 15.4635 13.1762C15.5976 12.9754 15.6692 12.7393 15.6692 12.4977C15.6692 12.174 15.5407 11.8635 15.3121 11.6345C15.0834 11.4055 14.7732 11.2767 14.4496 11.2764H14.4484ZM10.5433 15.1832C10.3018 15.1832 10.0658 15.2549 9.86507 15.3891C9.66431 15.5233 9.50784 15.714 9.41545 15.9372C9.32305 16.1603 9.29886 16.4059 9.34596 16.6428C9.39307 16.8798 9.50935 17.0974 9.68008 17.2682C9.85081 17.439 10.0683 17.5553 10.3051 17.6024C10.542 17.6496 10.7874 17.6254 11.0105 17.5329C11.2336 17.4405 11.4242 17.284 11.5583 17.0831C11.6925 16.8823 11.7641 16.6461 11.7641 16.4046C11.7641 16.0809 11.6356 15.7704 11.4069 15.5414C11.1783 15.3124 10.8681 15.1835 10.5445 15.1832H10.5433ZM14.4484 15.1832C14.207 15.1832 13.9709 15.2549 13.7702 15.3891C13.5694 15.5233 13.4129 15.714 13.3205 15.9372C13.2281 16.1603 13.204 16.4059 13.2511 16.6428C13.2982 16.8798 13.4144 17.0974 13.5852 17.2682C13.7559 17.439 13.9734 17.5553 14.2102 17.6024C14.4471 17.6496 14.6925 17.6254 14.9156 17.5329C15.1386 17.4405 15.3293 17.284 15.4635 17.0831C15.5976 16.8823 15.6692 16.6461 15.6692 16.4046C15.6692 16.0809 15.5407 15.7704 15.3121 15.5414C15.0834 15.3124 14.7732 15.1835 14.4496 15.1832H14.4484Z" fill="#2D2DB2" fill-opacity="0.5"/>
</svg>
